<?xml  version="1.0" encoding="UTF-8"?>
<!DOCTYPE svg PUBLIC "-//W3C//DTD SVG 1.0//EN" "http://www.w3.org/TR/2001/REC-SVG-20010904/DTD/svg10.dtd" >
<svg xmlns="http://www.w3.org/2000/svg" >
<metadata>
<version>1.0</version>
<id><![CDATA[Sabon Next W01 X Bd SC]]></id>
<vendor>Monotype Imaging Inc.</vendor>
<credits>
<name>Fonts.com WebFonts</name>
<URL>http://webfonts.fonts.com</URL>
<role>Home of the Web fonts</role>
</credits>
<license>
<URL>http://webfonts.fonts.com/Legal</URL>
</license>
<copyright><![CDATA[Copyright © 2002 - 2005 Linotype GmbH, www.linotype.com. All rights reserved. This font software may not be reproduced, modified, disclosed or transferred without the express written approval of Linotype GmbH. Sabon is a trademark of Heidelberger Druckmaschinen AG which may be registered in certain jurisdictions, exclusively licensed through Linotype GmbH. This typeface is original artwork of Jean Franois Porchez. The design may be protected in certain jurisdictions.]]></copyright>
<trademark><![CDATA[Sabon is a trademark of Heidelberger Druckmaschinen AG which may be registered in certain jurisdictions, exclusively licensed through Linotype GmbH.]]></trademark>
<licensee>
<name></name>
</licensee>
</metadata>
<defs >
<font horiz-adv-x="563" id="086cb8c0-79e4-462b-b760-23e7b5f51968">
<font-face font-family="" panose-1="2 0 8 3 8 0 0 2 0 3" ascent="917" descent="-279" units-per-em="1000" alphabetic="0">
</font-face>
<missing-glyph horiz-adv-x="0" />

<glyph unicode="&#xA;" />
<glyph unicode="&#xD;" horiz-adv-x="0" />
<glyph unicode=" " horiz-adv-x="250" />
<glyph unicode="!" horiz-adv-x="206" d="M178 61Q178 29 158 8T103 -13Q70 -13 49 7T27 60Q27 92 47 113T102 135Q135 135 156 114T178 61ZM192 429Q192 401 186 366T170 293T149 220T128 154Q121 152 105 152Q89 152 82 154Q73 183 62 219T42 292T26 365T19 429Q19 448 26 461T46 482T73 493T105 496Q121 496 136 493T164 482T184 461T192 429Z"  />
<glyph unicode="&quot;" horiz-adv-x="448" d="M202 627Q202 611 199 596T193 565L153 377Q151 366 148 355T129 343Q115 343 111 354T104 377L64 565Q61 581 58 596T55 627Q55 699 129 699Q202 699 202 627ZM393 627Q393 611 390 596T383 565L344 377Q342 366 339 355T319 343Q305 343 301 354T294 377L254 565Q251 581 248 596T245 627Q245 699 319 699Q393 699 393 627Z"  />
<glyph unicode="#" horiz-adv-x="495" d="M311 363Q309 368 306 370H214Q208 366 207 363L186 264Q188 259 191 257H282Q288 261 289 264L311 363H311ZM493 454Q493 444 492 431T488 406T481 383T469 370H376Q371 367 370 363L350 264Q352 259 355 257H434Q439 252 441 242T443 223Q443 213 442 200T438 175T431 152T419 139H328Q323 136 322 132L292 -8Q289 -10 284 -10Q279 -10 274 -10Q266 -10 253 -8T233 -1L261 132Q259 137 256 139H164Q159 136 158 132L128 -8Q125 -10 120 -10Q116 -10 111 -10Q103 -10 89 -8T69 -1L98 132Q96 137 93 139H10Q5 144 3 154T1 173Q1 183 2 196T6 221T13 244T25 257H120Q125 260 126 264L147 363Q145 368 142 370H60Q55 375 53 385T51 404Q51 414 52 427T56 452T63 475T75 488H170Q175 491 176 495L203 626Q206 628 211 628Q216 628 221 628Q229 628 242 626T262 619L236 495Q238 490 241 488H333Q338 491 339 495L367 626Q370 628 374 628Q379 628 384 628Q392 628 406 626T426 619L399 495Q401 490 404 488H484Q489 483 491 473T493 454Z"  />
<glyph unicode="$" horiz-adv-x="515" d="M316 87Q316 110 306 123T275 147Q272 146 271 143V39Q272 37 273 37Q275 37 277 35Q295 41 305 54T316 87ZM252 440Q251 443 248 445Q226 438 217 425T207 393Q207 375 217 363T248 340Q251 342 252 345V440ZM448 151Q448 112 434 84T396 35T341 3T276 -14Q272 -17 271 -20V-100Q269 -105 264 -106T243 -108Q228 -108 221 -107T212 -100V-23Q211 -21 211 -20Q211 -20 209 -18Q168 -18 132 -13T72 1Q67 3 66 6Q64 33 61 67T54 127Q57 128 64 129T77 130Q91 130 94 120Q105 75 129 54T206 30Q208 32 209 32T212 35V171Q211 173 211 174T210 177Q187 189 165 201T123 231T93 274T81 336Q81 407 127 444T248 490Q251 492 252 494V579Q254 584 259 586T280 588Q295 588 302 586T311 579V497Q312 495 316 492Q346 491 371 488T414 481Q417 480 419 475Q421 449 423 425T428 373Q425 372 418 371T406 370Q398 370 394 371T388 379Q380 414 363 429T316 447Q312 444 311 441V316Q312 314 312 313Q312 312 314 310Q338 298 361 285T404 254T436 212T448 151Z"  />
<glyph unicode="%" horiz-adv-x="667" d="M178 303Q178 384 169 418T145 452Q138 452 133 448T125 431T119 395T117 333Q117 252 126 219T150 185Q157 185 162 189T170 205T176 241T178 303ZM549 143Q549 224 540 257T516 291Q509 291 504 287T496 270T491 234T489 172Q489 91 498 58T521 24Q528 24 533 28T541 45T547 81T549 143ZM285 316Q285 278 276 247T248 194T205 159T147 146Q114 146 89 159T46 195T21 250T12 320Q12 395 48 442T148 490Q181 490 207 477T250 441T276 386T285 316ZM198 -26Q194 -25 188 -22T175 -14T162 -6T153 1L468 501Q472 499 478 496T491 489T504 480T513 473L198 -26ZM655 156Q655 81 619 34T519 -14Q486 -14 461 -1T418 35T392 90T383 160Q383 235 419 282T520 330Q553 330 578 317T621 281T646 226T655 156Z"  />
<glyph unicode="&amp;" horiz-adv-x="666" d="M307 88Q309 92 308 94Q298 108 288 120T262 150Q240 173 217 192T171 234L168 232Q167 226 167 220Q167 214 167 208Q167 142 195 111T265 79Q287 79 307 88ZM293 405Q293 431 284 441T261 452Q246 452 239 441T231 414Q231 388 246 371T279 340H283Q287 351 290 369T293 405ZM663 64Q663 61 662 58T656 49Q644 37 626 26T584 4T534 -12T482 -18Q431 -18 398 0T338 52Q335 53 332 52Q308 26 274 9T197 -8Q164 -8 133 1T78 30T40 77T25 141Q25 190 55 218T131 262Q132 265 131 268Q115 284 102 307T88 365Q88 390 98 413T131 453T186 481T266 492Q296 492 324 488T374 474T409 445T423 400Q423 367 394 346T324 316Q322 313 324 310Q344 293 362 278T398 242Q410 228 418 218T429 203Q432 201 435 203Q441 213 448 224T466 252Q475 267 484 283T493 311Q493 319 487 322T473 328L448 332Q440 334 438 338T436 351Q436 360 438 370Q464 369 490 368T546 367Q572 367 602 368T659 370Q661 360 661 351Q661 342 659 338T649 332L607 325Q596 323 583 316T555 288Q543 271 534 257T514 229T494 199T470 163Q468 159 470 156Q480 143 490 130T518 97Q531 82 546 73T582 63Q599 63 615 70T644 89Q649 87 656 79T663 64Z"  />
<glyph unicode="&apos;" horiz-adv-x="257" d="M202 627Q202 611 199 596T193 565L153 377Q151 366 148 355T129 343Q115 343 111 354T104 377L64 565Q61 581 58 596T55 627Q55 699 129 699Q202 699 202 627Z"  />
<glyph unicode="(" horiz-adv-x="338" d="M273 -117Q265 -128 252 -138Q227 -157 215 -140Q150 -53 113 55T75 281Q75 398 112 506T215 702Q227 719 252 700Q265 689 273 679Q244 639 221 591T183 492T159 386T151 281Q151 230 159 176T182 71T220 -29T273 -117Z"  />
<glyph unicode=")" horiz-adv-x="338" d="M263 281Q263 164 226 56T123 -140Q111 -157 86 -138Q72 -128 65 -117Q94 -77 117 -29T155 70T179 176T188 281Q188 332 180 386T156 491T118 591T65 679Q72 689 86 700Q111 719 123 702Q188 615 225 507T263 281Z"  />
<glyph unicode="*" horiz-adv-x="411" d="M176 476Q170 465 160 445T136 406T109 372T80 358Q69 358 58 365T38 382T24 405T18 427Q18 444 35 456T77 476T125 489T162 497Q173 488 176 476ZM297 362Q297 350 289 341T270 326T247 316T224 313Q210 313 202 319T189 336T183 358T181 381Q181 404 184 427T192 474Q199 478 204 480T218 480Q226 471 239 456T265 424T287 391T297 362ZM179 533Q172 520 161 514Q150 517 134 520T100 529T66 540T41 553Q23 566 23 585Q23 595 28 607T42 630T61 648T82 656Q97 656 112 641T139 606T162 565T179 533ZM395 501Q395 481 387 463T354 444Q340 444 323 449T289 463T255 481T227 497Q226 504 226 510T231 523Q243 527 259 533T291 544T324 553T352 557Q377 557 386 540T395 501ZM309 652Q309 638 299 621T274 588T244 557T219 533Q213 534 206 536T195 544Q193 567 193 591T194 638Q195 648 196 659T202 679T213 693T235 699Q244 699 257 696T281 687T301 673T309 652Z"  />
<glyph unicode="+" horiz-adv-x="500" d="M287 199V0H213V199H17V276H213V474H286V276H483V199H287Z"  />
<glyph unicode="&#x2c;" horiz-adv-x="257" d="M225 26Q225 -12 213 -44T180 -103T130 -149T66 -181Q52 -186 46 -184T36 -171Q34 -166 33 -161T32 -151Q55 -144 77 -132T117 -105T145 -70T156 -29Q156 -10 144 3T111 16Q103 16 96 16T81 15Q56 15 39 35T22 82Q22 122 46 144T107 167Q132 167 153 157T191 127T216 82T225 26Z"  />
<glyph unicode="-" horiz-adv-x="257" d="M248 288Q248 274 248 259T246 231T241 209T234 197H16Q10 201 10 223Q10 237 10 252T12 280T16 302T24 314H242Q248 310 248 288Z"  />
<glyph unicode="." horiz-adv-x="257" d="M226 79Q226 38 200 11T130 -16Q87 -16 59 10T31 78Q31 119 58 147T128 175Q171 175 198 148T226 79Z"  />
<glyph unicode="/" horiz-adv-x="300" d="M50 -15Q45 -14 37 -12T19 -6T1 0T-12 7L251 714Q256 713 264 711T282 705T300 698T313 691L50 -15Z"  />
<glyph unicode="0" horiz-adv-x="515" d="M441 233Q441 270 426 297T384 343T324 369T251 378Q216 378 184 370T128 344T90 301T75 241Q75 204 89 177T129 131T188 105T260 96Q295 96 328 104T386 130T426 172T441 233ZM497 233Q497 178 480 132T432 53T356 1T256 -18Q198 -18 154 1T79 54T34 136T18 240Q18 295 34 341T82 420T157 473T257 492Q315 492 360 473T435 419T481 337T497 233Z"  />
<glyph unicode="1" horiz-adv-x="515" d="M442 16Q442 7 440 -3Q421 -3 397 -3T348 -2T300 -1T258 0Q240 0 216 0T167 -1T118 -2T75 -3Q74 1 73 6T72 16Q72 35 85 36L148 42Q167 43 170 63T174 135V339Q174 365 174 382T171 410T163 426T148 432L85 438Q72 439 72 458Q72 463 73 468T75 477Q94 477 118 477T166 476T215 475T257 474Q275 474 299 474T348 475T397 476T440 477Q442 467 442 458Q442 449 440 444T430 438L367 432Q358 431 353 426T345 411T342 383T341 339V135Q341 83 344 63T367 42L430 36Q438 35 440 30T442 16Z"  />
<glyph unicode="2" horiz-adv-x="515" d="M505 165Q503 152 499 131T492 86T485 40T479 5Q478 2 472 -2Q467 -1 438 -1T370 0Q332 0 294 0Q257 0 235 0Q208 0 176 0T114 -1T59 -2T24 -3Q23 0 22 9T20 28T19 49Q19 59 20 63Q55 88 93 114T162 170T214 230T235 298Q235 317 229 334T210 363T182 383T148 391Q123 391 103 379T69 353Q66 355 63 358T56 364Q49 372 49 378T59 398Q98 443 143 467T247 492Q280 492 309 482T361 453T395 411T408 357Q408 322 395 293T352 235T279 177T171 114V111H368Q392 111 407 113T434 120T452 134T465 156Q468 163 471 166T486 168Q491 168 496 167T505 165Z"  />
<glyph unicode="3" horiz-adv-x="515" d="M465 58Q465 5 438 -43T362 -128T250 -186T110 -208Q23 -208 23 -152Q23 -142 26 -134Q28 -132 30 -130T36 -127Q54 -135 75 -138T116 -141Q153 -141 185 -130T240 -97T276 -44T289 25Q289 75 265 108T190 142Q175 142 164 139T143 131Q126 123 120 125T106 136Q104 139 101 145T96 154Q122 169 150 185T201 222T238 265T253 317Q253 347 234 370T180 393Q154 393 137 384T102 358Q99 360 95 363T88 369Q81 377 81 383Q81 389 92 402Q130 446 173 469T273 492Q306 492 333 483T381 457T412 418T424 370Q424 341 413 317T381 274T332 238T270 209V206Q305 213 340 207T402 183T447 133T465 58Z"  />
<glyph unicode="4" horiz-adv-x="515" d="M264 308H262L101 81V79H258Q262 82 264 87V308ZM512 33Q512 13 511 2T505 -13H437Q432 -16 431 -20V-184Q429 -187 420 -188T399 -190T372 -191Q359 -191 348 -191Q337 -191 323 -191Q309 -191 297 -190T275 -188T264 -184V-20Q263 -16 258 -13H130Q97 -13 70 -13T8 -16Q6 -12 6 -3T5 18Q5 30 5 40T8 56Q21 70 42 97T87 157L231 363Q259 402 282 437T320 496Q325 497 341 497T377 498Q396 498 412 498T434 496Q432 467 432 437T431 374V87Q433 82 437 79H505Q510 76 511 65T512 33Z"  />
<glyph unicode="5" horiz-adv-x="515" d="M439 355Q438 352 432 348H216Q212 347 209 342L200 315Q199 311 202 306Q241 283 281 256T355 196T410 124T432 37Q432 -20 409 -65T346 -142T256 -191T150 -208Q87 -208 65 -194T42 -151Q42 -147 42 -142T45 -132Q48 -130 50 -129T55 -126Q73 -132 96 -136T144 -141Q172 -141 197 -134T241 -112T271 -75T282 -22Q282 32 237 80T100 180Q97 186 97 192L188 474H464Q469 471 470 467L439 355Z"  />
<glyph unicode="6" horiz-adv-x="515" d="M529 619Q448 605 385 568T278 478T213 357T190 214Q190 196 191 166T200 108T221 59T260 38Q279 38 291 48T311 75T322 116T326 165Q326 186 323 207T313 245T293 274T263 285Q249 285 240 281T223 270Q221 272 219 275T215 282Q211 288 212 295T222 312Q247 339 277 354T346 369Q370 369 397 360T446 329T483 276T498 198Q498 147 480 107T429 39T354 -3T261 -18Q203 -18 158 0T83 51T36 132T20 236Q20 312 54 384T149 515T294 612T479 658Q502 660 512 657T526 640Q529 629 529 619Z"  />
<glyph unicode="7" horiz-adv-x="515" d="M507 411Q501 403 492 389T472 356T450 317T428 277L175 -203Q167 -204 153 -199T126 -187T101 -171T85 -158L375 336V338H175Q149 338 132 335T104 326T86 310T72 286Q69 279 66 276T51 274Q46 274 41 275T31 277Q33 290 38 316T48 372T59 428T66 469Q67 472 73 476Q78 475 104 475T164 474Q198 474 232 474Q266 474 288 474Q315 474 348 474T412 475T468 476T504 477Q505 474 506 465T507 446T508 425Q508 415 507 411Z"  />
<glyph unicode="8" horiz-adv-x="515" d="M316 125Q316 173 288 202T218 251H210Q196 225 187 197T177 135Q177 118 181 101T193 71T215 50T249 42Q279 42 297 66T316 125ZM331 499Q331 533 314 558T263 583Q228 583 213 561T197 508Q197 463 221 437T287 390H294Q311 413 321 440T331 499ZM488 170Q488 119 468 83T415 25T338 -8T250 -18Q212 -18 173 -8T102 22T50 72T29 142Q29 173 40 196T69 236T112 265T162 285L161 288Q134 303 111 319T72 355T46 400T37 459Q37 508 56 542T107 597T179 627T263 637Q297 637 335 630T404 607T456 562T477 493Q477 463 466 442T437 406T395 381T347 361V358Q377 344 402 326T447 285T477 234T488 170Z"  />
<glyph unicode="9" horiz-adv-x="515" d="M495 238Q495 152 461 75T365 -63T219 -161T36 -207Q13 -209 3 -206T-11 -189Q-14 -179 -14 -168Q67 -154 130 -116T236 -21T302 107T325 260Q325 278 323 307T314 365T293 415T254 436Q235 436 223 426T203 399T192 358T189 309Q189 288 192 267T202 229T222 200T252 189Q266 189 275 193T292 204Q294 202 296 199T300 192Q304 186 303 179T293 162Q268 135 237 120T168 105Q144 105 117 114T68 145T32 198T17 276Q17 327 35 367T86 435T161 477T254 492Q312 492 356 474T432 423T479 342T495 238Z"  />
<glyph unicode=":" horiz-adv-x="257" d="M226 79Q226 38 200 11T130 -16Q87 -16 59 10T31 78Q31 119 58 147T128 175Q171 175 198 148T226 79ZM226 361Q226 320 200 293T130 266Q87 266 59 292T31 360Q31 401 58 428T128 456Q171 456 198 429T226 361Z"  />
<glyph unicode=";" horiz-adv-x="257" d="M227 26Q227 -12 215 -44T182 -103T132 -149T68 -181Q54 -186 48 -184T38 -171Q36 -166 35 -161T34 -151Q57 -144 79 -132T118 -105T146 -70T157 -29Q157 -10 146 3T113 16Q105 16 98 16T83 15Q58 15 41 35T24 82Q24 122 48 144T109 167Q134 167 155 157T193 127T218 82T227 26ZM220 361Q220 320 194 293T124 266Q81 266 54 292T26 360Q26 401 52 428T122 456Q165 456 192 429T220 361Z"  />
<glyph unicode="&lt;" horiz-adv-x="500" d="M17 200V276L483 478V390L113 238L483 86V-2L17 200Z"  />
<glyph unicode="=" horiz-adv-x="500" d="M17 71V149H483V71H17ZM17 320V397H483V320H17Z"  />
<glyph unicode="&gt;" horiz-adv-x="500" d="M17 -2V86L387 238L17 390V478L483 277V200L17 -2Z"  />
<glyph unicode="?" horiz-adv-x="250" d="M164 61Q164 29 144 8T89 -13Q56 -13 35 7T13 60Q13 92 33 113T88 135Q121 135 142 114T164 61ZM237 325Q237 272 219 238T154 198Q125 194 119 187T110 172Q108 166 107 162T104 155Q100 151 84 151Q77 151 70 151Q63 151 58 152Q56 169 54 196T52 249Q52 273 57 286T73 307T102 316T143 321Q168 323 178 327T189 342Q189 360 159 360Q139 360 121 358T82 355Q61 355 51 372T41 428Q41 465 52 480T85 496Q118 496 145 484T193 449T225 395T237 325Z"  />
<glyph unicode="@" horiz-adv-x="595" d="M343 298Q343 320 324 320Q305 320 290 302T264 261T247 215T241 182Q241 174 244 168T256 162Q267 162 282 178T310 216T333 261T343 298ZM578 285Q578 240 563 201T518 133T447 86T351 69Q328 69 313 78T297 111Q297 125 301 139T311 167H310Q300 151 286 134T254 103T216 79T174 69Q144 69 130 86T115 129Q115 170 135 213T189 292T262 351T343 374Q358 374 371 371T393 357H394L397 364Q402 375 407 378T425 382Q441 382 461 382T494 380Q491 372 486 358T474 327L413 156Q411 152 409 145T407 133Q407 121 419 121Q437 121 455 134T488 171T512 223T522 285Q522 331 507 362T465 412T404 439T329 447Q272 447 228 425T153 366T107 280T91 178Q91 85 147 38T302 -9Q338 -9 375 -1T445 26Q450 20 454 11T459 -6Q459 -14 451 -19T437 -26Q401 -42 362 -48T283 -55Q218 -55 168 -36T82 16T29 94T10 192Q10 259 36 314T106 409T209 470T334 492Q384 492 428 479T506 440T558 376T578 285Z"  />
<glyph unicode="A" horiz-adv-x="733" d="M301 542H297L220 294Q221 290 226 287H381Q386 290 387 294L301 542ZM730 16Q730 11 729 6T727 -3Q709 -3 688 -3T644 -2T602 -1T563 0Q545 0 524 0T479 -1T434 -2T393 -3Q392 1 391 6T390 16Q390 25 392 29T402 36L432 41Q448 44 455 49T462 65Q462 71 459 81T452 105T444 131T435 156L412 221Q409 226 404 227H205Q201 226 198 221L177 156Q143 50 201 41L233 36Q241 34 243 30T245 16Q245 11 244 6T242 -3Q224 -3 209 -3T181 -2T153 -1T121 0Q104 0 91 0T65 -1T38 -2T6 -3Q5 1 4 6T3 16Q3 25 5 29T15 36L29 39Q39 41 47 47T63 67T80 102T100 157L238 565Q241 574 243 585T246 605Q246 612 245 615Q248 623 254 627T270 636T295 647T331 664Q350 674 361 681T381 694T394 703T408 706Q418 706 426 698Q435 663 447 629T479 545L630 157Q643 124 652 102T668 67T683 48T701 40L717 36Q730 33 730 16Z"  />
<glyph unicode="B" horiz-adv-x="684" d="M467 190Q467 226 456 252T425 295T380 320T326 328H287Q282 325 281 322V163Q281 130 283 109T291 75T305 58T328 53H347Q399 53 433 86T467 190ZM422 505Q422 542 413 566T390 605T359 625T325 631Q314 631 307 629T290 624Q286 617 284 596T281 526V385Q282 381 287 378H328Q371 378 396 409T422 505ZM659 194Q659 150 639 114T587 54Q540 19 490 10T398 0H174Q135 0 100 -1T29 -3Q27 7 27 16Q27 25 29 29T39 36L75 42Q94 45 97 64T101 135V543Q101 595 98 614T75 636L39 642Q31 644 29 648T27 662Q27 671 29 681Q64 680 97 679T165 678Q191 678 220 679T278 681T331 684T372 685Q424 685 467 675T542 645T590 594T607 522Q607 495 596 469T564 422T512 387T441 367V366Q484 366 523 355T593 321T641 268T659 194Z"  />
<glyph unicode="C" horiz-adv-x="724" d="M675 195Q672 176 670 154T665 110T660 67T655 28Q654 26 652 24T647 20Q597 2 544 -8T427 -18Q344 -18 271 7T144 80T57 194T25 342Q25 430 57 496T145 607T272 674T424 697Q481 697 536 688T645 659Q647 657 649 655T653 651Q655 616 658 569T665 484Q660 483 655 482T643 480Q633 480 629 482T622 492Q603 568 554 601T439 635Q381 635 340 614T271 557T232 470T219 363Q219 291 237 233T287 132T364 67T463 44Q534 44 572 82T632 188Q634 196 639 198T654 199Q668 197 675 195Z"  />
<glyph unicode="D" horiz-adv-x="808" d="M589 325Q589 404 572 461T525 555T455 609T370 627Q349 627 326 624T289 616Q287 613 286 609T283 595T282 571T281 531V172Q281 138 283 117T292 83T307 67T331 62H393Q427 62 462 75T525 120T571 201T589 325ZM783 343Q783 274 759 212T686 101Q637 51 569 26T417 0H171Q152 0 132 0T92 -1T56 -2T29 -3Q27 7 27 16Q27 25 29 29T39 36L75 42Q94 45 97 64T101 135V544Q101 596 98 615T75 637L39 643Q31 645 29 649T27 662Q27 672 29 682Q38 681 53 681T88 680T126 679T162 678Q222 678 277 684T398 690Q485 690 559 667T688 589Q733 544 758 483T783 343Z"  />
<glyph unicode="E" horiz-adv-x="628" d="M610 162Q599 127 591 85T577 5Q575 2 569 -2Q561 0 519 0Q478 0 406 0H170Q151 0 131 0T91 -1T56 -2T29 -3Q27 7 27 16Q27 25 29 29T39 36L75 42Q94 45 97 64T101 135V543Q101 595 98 614T75 636L39 642Q31 644 29 648T27 662Q27 671 29 681Q38 680 53 680T87 679T126 678Q146 678 164 678H363Q433 678 469 678Q506 678 516 680Q524 676 525 673Q530 638 534 600T545 523Q540 521 536 520T525 517Q515 515 511 517T502 528L493 549Q483 570 473 583T447 604T410 615T357 618H292Q287 612 284 592T280 525V388Q281 384 286 381H336Q394 381 415 389T438 416L442 441Q443 454 460 454Q465 454 470 453T480 451Q479 425 479 399T478 349Q478 325 478 299T480 246Q470 244 460 244Q451 244 447 246T442 256L438 286Q436 305 415 313T336 321H286Q281 318 280 314V170Q280 136 282 115T291 81T306 65T330 60H407Q440 60 461 63T498 75T525 97T550 132L566 159Q571 167 575 168T590 168Q603 165 610 162Z"  />
<glyph unicode="F" horiz-adv-x="597" d="M564 519Q553 515 542 514Q525 511 520 524L510 547Q501 568 491 581T465 603T427 615T374 618H293Q288 612 285 592T281 525V380Q282 376 287 373H352Q410 373 431 381T454 408L457 434Q458 442 462 444T476 446Q481 446 487 445T497 443Q496 417 495 393T494 345Q494 319 495 291T497 234Q493 233 487 232T476 231Q458 231 457 244L454 278Q452 297 431 305T351 313H287Q282 310 281 307V142Q281 89 288 67T315 43L369 37Q377 36 379 31T381 17Q381 12 380 7T378 -3Q360 -3 336 -3T288 -2T240 -1T199 0Q181 0 160 0T115 -1T70 -2T29 -3Q27 7 27 16Q27 25 29 29T39 36L75 42Q94 45 97 64T101 135V542Q101 568 101 585T98 612T91 628T76 635L40 641Q27 644 27 661Q27 666 28 671T30 680Q39 679 55 679T90 678Q110 678 131 678Q152 678 170 678H380Q450 678 487 678Q524 678 534 680Q541 677 542 673Q547 638 552 598T564 519Z"  />
<glyph unicode="G" horiz-adv-x="781" d="M765 280Q765 271 763 267T753 260L719 255Q701 252 698 234T694 168V119Q694 79 700 62T711 37Q707 29 703 25Q646 2 575 -8T435 -18Q343 -18 268 7T138 78T55 191T25 340Q25 429 57 496T144 607T273 674T432 697Q469 697 505 694T575 686T637 673T689 659Q695 655 696 651Q697 633 698 612T701 569T704 524T708 483Q703 482 698 481T687 479Q677 479 672 481T665 491Q647 560 589 597T450 635Q390 635 347 614T275 555T233 467T219 359Q219 272 236 212T283 113T351 57T432 40Q457 40 480 47T516 66Q518 74 518 88T519 119V160Q519 186 518 202T514 228T504 242T485 249L427 260Q419 262 417 266T415 279Q415 284 416 289T418 299Q436 299 459 299T507 298T555 297T596 296Q614 296 635 296T678 297T722 298T762 299Q763 295 764 290T765 280Z"  />
<glyph unicode="H" horiz-adv-x="839" d="M812 16Q812 11 811 6T809 -3Q771 -2 729 -1T650 0Q613 0 569 -1T487 -3Q486 1 485 6T484 16Q484 33 497 36L533 42Q542 43 547 48T555 64T557 92T558 135V312Q557 315 553 318H287Q282 315 281 312V135Q281 109 281 92T284 65T291 49T306 42L342 36Q350 34 352 30T354 16Q354 7 352 -3Q314 -2 272 -1T192 0Q155 0 111 -1T29 -3Q27 7 27 16Q27 25 29 29T39 36L75 42Q94 45 97 64T101 135V544Q101 596 98 615T75 637L39 643Q31 645 29 649T27 662Q27 672 29 682Q67 681 109 680T189 679Q226 679 270 680T352 682Q354 672 354 662Q354 653 352 649T342 643L306 637Q297 635 292 630T284 615T282 587T281 544V398Q282 394 287 391H553Q556 393 558 398V544Q558 570 558 587T555 614T548 630T533 637L497 643Q484 646 484 662Q484 667 485 672T487 682Q525 681 567 680T647 679Q684 679 727 680T809 682Q810 678 811 673T812 662Q812 653 810 649T800 643L764 637Q745 634 742 615T738 544V135Q738 83 741 64T764 42L800 36Q808 34 810 30T812 16Z"  />
<glyph unicode="I" horiz-adv-x="389" d="M358 16Q358 7 356 -3Q318 -2 276 -1T196 0Q159 0 115 -1T33 -3Q31 7 31 16Q31 25 33 29T43 36L79 42Q98 45 101 64T105 135V543Q105 595 102 614T79 636L43 642Q35 644 33 648T31 662Q31 671 33 681Q71 680 113 679T193 678Q230 678 274 679T356 681Q358 671 358 662Q358 653 356 649T346 642L310 636Q301 634 296 629T288 614T286 586T285 543V135Q285 109 285 92T288 65T295 49T310 42L346 36Q354 34 356 30T358 16Z"  />
<glyph unicode="J" horiz-adv-x="376" d="M358 662Q358 645 345 642L309 636Q300 634 295 629T287 614T285 586T284 543V141Q284 57 260 -13T195 -135T99 -215T-17 -244Q-64 -244 -92 -225T-120 -179Q-120 -167 -115 -154T-101 -130T-81 -111T-59 -103Q-46 -103 -37 -113T-17 -135T6 -157T39 -167Q63 -167 76 -152T96 -113T103 -59T104 4V543Q104 595 100 614T77 636L39 642Q26 645 26 662Q26 667 27 672T29 681Q67 680 111 679T193 678Q230 678 273 679T355 681Q356 677 357 672T358 662Z"  />
<glyph unicode="K" horiz-adv-x="779" d="M777 16Q777 11 776 6T774 -4Q767 -3 750 -3T711 -2T670 -1T638 0Q625 0 608 0Q592 0 575 0T542 -1T514 -3Q493 21 467 57T412 135T354 221T300 308Q297 306 290 300T281 290V135Q281 109 281 92T284 65T291 49T306 42L342 36Q350 34 352 30T354 16Q354 7 352 -3Q314 -2 272 -1T192 0Q155 0 111 -1T29 -3Q27 7 27 16Q27 25 29 29T39 36L75 42Q94 45 97 64T101 135V543Q101 595 98 614T75 636L39 642Q31 644 29 648T27 662Q27 671 29 681Q67 680 109 679T189 678Q226 678 270 679T352 681Q354 671 354 662Q354 653 352 649T342 642L306 636Q297 634 292 629T284 614T282 586T281 543V368Q287 368 290 369Q325 402 370 449T456 541Q485 573 496 590T508 617Q508 627 502 631T485 637L452 642Q439 645 439 662Q439 667 440 672T442 681Q476 680 513 679T587 678Q622 678 655 679T722 681Q723 677 724 672T725 662Q725 645 712 642L687 637Q670 634 653 623T610 587L444 422Q443 417 444 412Q456 393 480 357T533 279T588 200T635 138Q659 109 675 91T703 62T726 46T749 39L765 36Q773 34 775 30T777 16Z"  />
<glyph unicode="L" horiz-adv-x="632" d="M609 179Q604 161 599 139T588 93T579 47T572 5Q570 2 564 -2Q556 0 513 0Q471 0 397 0H173Q155 0 135 0T95 -1T58 -3T29 -4Q27 6 27 16Q27 25 29 29T39 35L75 41Q94 44 97 63T101 134V543Q101 595 98 614T75 636L39 642Q31 644 29 648T27 662Q27 671 29 681Q67 680 113 679T196 678Q214 678 237 678T285 679T333 680T376 681Q378 671 378 662Q378 653 376 649T366 642L317 635Q305 633 298 628T288 611T283 581T281 534V173Q281 138 283 117T291 82T306 65T331 60H397Q430 60 453 63T494 74T523 96T546 133L564 175Q571 189 589 185Q602 182 609 179Z"  />
<glyph unicode="M" horiz-adv-x="942" d="M919 16Q919 7 917 -3Q879 -2 837 -1T758 0Q721 0 677 -1T594 -3Q592 7 592 16Q592 25 594 29T604 36L640 42Q659 45 662 64T665 135L661 472H659L475 -3Q468 -5 453 -5T419 -6Q402 -6 387 -6T366 -3L180 470H178L176 209Q176 163 177 133T184 83T199 54T225 42L260 36Q273 33 273 16Q273 11 272 6T270 -4Q238 -3 206 -2T141 0Q109 0 79 -1T16 -3Q15 1 14 6T13 16Q13 25 15 29T25 36L59 42Q71 44 78 53T90 81T97 130T100 208L107 544Q108 585 99 611T67 639L39 642Q26 643 26 662Q26 667 27 672T29 681Q101 678 165 678Q201 678 226 679T284 681Q290 680 295 676Q302 653 314 616T340 542L477 180H479L611 542Q625 579 636 616T653 676Q658 680 664 681Q680 681 692 681T717 680T742 679T775 678Q806 678 843 678T916 681Q918 671 918 661Q918 652 916 648T906 642L876 639Q853 637 845 612T838 541L845 135Q846 84 849 65T872 42L907 36Q915 34 917 30T919 16Z"  />
<glyph unicode="N" horiz-adv-x="801" d="M786 662Q786 645 773 642L739 636Q726 634 718 626T706 599T700 549T698 470V206Q698 140 701 83T708 -8Q701 -9 689 -10T662 -11Q648 -11 632 -11Q617 -11 603 -11Q595 -11 592 -8T584 0Q577 11 562 32T523 80L191 478H189L193 246Q194 186 196 148T205 88T223 56T252 43L295 36Q303 34 305 30T307 16Q307 11 306 6T304 -3Q266 -2 234 -1T164 0Q128 0 96 -1T25 -3Q24 1 23 6T22 16Q22 33 35 36L70 42Q83 44 90 52T102 79T108 129T110 208V542Q110 564 107 580T93 610Q82 624 71 629T45 636L18 640Q5 641 5 660Q5 665 6 671T8 681Q44 679 73 679T134 678Q170 678 201 679T265 681Q271 680 276 676Q289 655 313 622T366 554L616 252H618L616 432Q615 492 613 530T604 590T586 622T557 635L514 642Q501 645 501 662Q501 667 502 672T504 681Q542 680 575 679T645 678Q681 678 713 679T783 681Q784 677 785 672T786 662Z"  />
<glyph unicode="O" horiz-adv-x="809" d="M591 320Q591 374 580 430T545 533T484 609T394 639Q344 639 311 614T257 549T227 459T218 357Q218 303 229 247T264 144T325 69T416 39Q465 39 499 64T553 128T582 218T591 320ZM784 337Q784 258 756 193T678 81T559 8T406 -18Q324 -18 255 9T134 83T54 196T25 340Q25 419 53 484T131 597T250 671T403 697Q485 697 554 670T675 595T755 481T784 337Z"  />
<glyph unicode="P" horiz-adv-x="673" d="M642 477Q642 435 624 396T569 326T481 277T360 258Q331 258 321 264T311 284Q311 292 311 298Q311 305 313 313Q319 311 324 311T338 310Q356 310 375 316T410 340T437 388T448 467Q448 545 420 587T334 630Q325 630 313 629T292 624Q287 618 284 597T281 530V142Q281 89 288 67T315 43L369 37Q377 36 379 31T381 17Q381 12 380 7T378 -3Q360 -3 336 -3T288 -2T240 -1T199 0Q181 0 160 0T115 -1T70 -2T29 -3Q27 7 27 16Q27 25 29 29T39 36L75 42Q94 45 97 64T101 135V542Q101 594 98 613T75 635L39 641Q31 643 29 647T27 661Q27 670 29 680Q39 679 55 679T91 678Q110 678 129 678Q149 678 166 678Q193 678 226 679T291 681T351 684T396 685Q444 685 488 673T566 635T621 570T642 477Z"  />
<glyph unicode="Q" horiz-adv-x="809" d="M591 320Q591 374 580 430T545 533T484 609T394 639Q344 639 311 614T257 549T227 459T218 357Q218 303 229 247T264 144T325 69T416 39Q465 39 499 64T553 128T582 218T591 320ZM1372 -112Q1378 -118 1380 -124T1374 -137Q1296 -201 1210 -235T1020 -270Q945 -270 869 -252T714 -202T549 -125T370 -27Q357 -20 349 -17T323 -10Q257 2 203 33T109 109T47 213T25 340Q25 419 53 484T131 597T250 671T403 697Q485 697 554 670T675 595T755 481T784 337Q784 274 766 219T714 121T633 46T529 -2L530 -5Q635 -49 721 -79T878 -129T1008 -157T1116 -166Q1182 -166 1239 -153T1359 -99Q1365 -104 1372 -112Z"  />
<glyph unicode="R" horiz-adv-x="758" d="M447 488Q447 528 437 555T411 600T375 624T333 631Q310 631 292 624Q287 617 284 596T281 526V363Q282 360 286 357H332Q380 357 413 388T447 488ZM756 16Q756 11 755 6T753 -3Q747 -2 732 -2T699 -1T664 0T634 1Q622 1 605 1Q589 1 572 1T537 0T507 -2Q484 22 461 56T415 130T369 213T324 300Q320 304 317 306H286Q283 304 281 298V135Q281 109 281 92T284 65T291 49T306 42L342 36Q350 34 352 30T354 16Q354 7 352 -3Q314 -2 272 -1T192 0Q155 0 111 -1T29 -3Q27 7 27 16Q27 25 29 29T39 36L75 42Q94 45 97 64T101 135V543Q101 595 98 614T75 636L39 642Q31 644 29 648T27 662Q27 671 29 681Q67 680 98 679T167 678Q193 678 226 679T291 681T351 684T396 685Q507 685 570 639T633 504Q633 445 595 404T500 343Q499 340 499 339T499 335Q508 318 522 295T553 246T587 194T620 147Q642 115 657 95T685 63T707 46T728 39L744 36Q752 34 754 30T756 16Z"  />
<glyph unicode="S" horiz-adv-x="536" d="M503 213Q503 157 480 114T418 42T329 -2T225 -18Q171 -18 125 -12T45 9Q39 11 37 17Q36 35 34 56T30 100T26 144T21 184Q26 185 32 186T45 188Q55 188 59 186T66 175Q81 110 116 76T223 41Q274 41 308 64T342 136Q342 175 321 199T269 244T200 283T132 328T79 391T58 486Q58 537 77 576T131 642T211 683T310 697Q356 697 394 692T456 680Q462 676 463 672Q465 637 468 604T475 532Q470 531 465 530T453 528Q443 528 439 530T432 540Q418 597 387 620T310 644Q260 644 235 618T210 552Q210 518 231 495T286 453T356 414T427 368T481 304T503 213Z"  />
<glyph unicode="T" horiz-adv-x="676" d="M657 510Q652 509 646 509T634 508Q624 508 620 510T613 521L607 548Q602 568 595 581T575 601T540 611T487 614H440Q435 608 432 588T429 520V135Q429 83 432 64T455 42L491 36Q499 34 501 30T503 16Q503 11 502 6T500 -3Q462 -2 420 -1T341 0Q304 0 260 -1T178 -3Q176 7 176 16Q176 25 178 29T188 36L224 42Q233 43 238 48T246 64T248 92T249 135V520Q249 569 247 588T239 614H191Q158 614 137 611T103 601T83 581T70 548L63 521Q61 513 57 511T42 508Q36 508 30 508T19 510Q20 524 22 550T25 604T28 659T31 698Q35 700 46 700Q51 700 55 699T62 694Q67 676 75 676Q85 675 120 675T198 674H479Q522 674 557 674T603 676Q611 676 616 694Q618 698 622 699T632 700Q643 700 647 698Q648 685 649 660T651 606T654 551T657 510Z"  />
<glyph unicode="U" horiz-adv-x="756" d="M745 662Q745 653 743 649T733 642L699 636Q686 634 678 625T664 597T657 547T655 469V231Q655 108 587 45T393 -18Q325 -18 270 -5T177 38T118 113T97 225V543Q97 595 94 614T71 636L35 642Q27 644 25 648T23 662Q23 667 24 672T26 681Q64 680 106 679T185 678Q222 678 266 679T348 681Q349 677 350 672T351 662Q351 645 338 642L302 636Q293 634 288 629T280 614T278 586T277 543V229Q277 150 311 104T422 57Q491 57 528 97T565 228V468Q565 514 563 545T554 595T537 624T509 636L473 642Q465 644 463 648T461 662Q461 667 462 672T464 681Q502 680 537 679T609 678Q645 678 675 679T743 681Q745 671 745 662Z"  />
<glyph unicode="V" horiz-adv-x="720" d="M717 662Q717 653 715 649T705 643L691 640Q681 638 673 631T656 611T640 576T620 521L479 101Q469 72 461 46T447 -6Q442 -8 419 -9T369 -11Q342 -11 319 -10T291 -6Q286 20 278 46T259 101L102 521Q90 554 81 576T65 611T49 630T31 639L15 643Q7 645 5 649T3 662Q3 667 4 672T6 681Q43 680 86 679T165 678Q183 678 205 678T250 679T295 680T336 681Q337 677 338 672T339 662Q339 646 326 643L296 637Q280 634 274 629T267 613Q267 607 269 596T275 573T283 547T292 522L419 148H422L523 469Q529 487 537 514T547 567T544 613T514 637L482 643Q474 645 472 649T470 662Q470 671 472 681Q490 681 505 681T535 680T565 679T597 678Q614 678 627 678T654 679T681 680T714 681Q715 677 716 672T717 662Z"  />
<glyph unicode="W" horiz-adv-x="1051" d="M1048 662Q1048 646 1035 643L1023 640Q1014 638 1007 633T993 614T976 579T953 521L792 100Q781 71 771 46T756 -6Q752 -8 732 -9T688 -11Q665 -11 645 -10T620 -6Q615 20 607 45T588 100L540 230H539L485 100Q474 72 465 46T451 -6Q447 -8 427 -9T382 -11Q359 -11 339 -10T314 -6Q309 20 299 45T277 100L103 521Q89 554 80 575T63 610T48 630T30 639L14 643Q3 645 3 662Q3 667 4 672T6 681Q41 680 79 679T153 678Q188 678 228 679T304 681Q306 671 306 662Q306 652 304 649T294 643L281 641Q264 638 264 616Q264 599 274 572T292 522L435 155H438L501 305V315L420 521Q407 554 398 576T382 611T368 631T352 639L336 643Q323 646 323 662Q323 667 324 672T326 681Q361 680 395 679T465 678Q500 678 533 679T602 681Q603 677 604 672T605 662Q605 646 592 643L582 641Q564 638 564 617Q564 600 573 572T590 522L617 445H618L646 522Q668 582 670 608T650 640L638 643Q625 646 625 662Q625 667 626 672T628 681Q654 681 678 680T723 678Q746 678 769 679T816 681Q817 677 818 672T819 662Q819 646 807 643L792 640Q783 638 776 633T761 614T743 578T718 521L658 377V367L735 154H739L857 476Q886 554 890 594T868 640L851 643Q843 645 841 649T839 662Q839 671 841 681Q859 681 871 681T895 680T918 679T947 678Q963 678 974 678T995 679T1016 680T1045 681Q1046 677 1047 672T1048 662Z"  />
<glyph unicode="X" horiz-adv-x="688" d="M685 16Q685 11 684 6T682 -3Q646 -2 603 -1T524 0Q507 0 484 0T436 -1T388 -2T346 -3Q345 1 344 6T343 16Q343 26 345 29T355 35L376 40Q397 44 397 61Q397 77 384 102T354 156L289 262H288L226 161Q210 135 198 109T185 65Q185 43 206 39L229 35Q241 32 241 16Q241 11 240 6T238 -3Q206 -2 180 -1T118 0Q101 0 89 0T64 -1T40 -2T11 -3Q10 1 9 6T8 16Q8 32 20 35L37 39Q47 41 56 47T77 66T103 101T140 158L244 324V333L128 521Q108 553 94 574T70 609T50 629T32 638L15 643Q3 646 3 662Q3 667 4 672T6 681Q42 680 85 679T163 678Q180 678 203 678T250 679T297 680T339 681Q341 671 341 662Q341 652 339 649T329 643L310 638Q290 634 290 617Q290 601 303 576T333 522L393 427H395L448 518Q464 545 476 571T489 613Q489 625 484 631T467 639L446 643Q434 646 434 662Q434 671 436 681Q468 680 493 679T553 678Q570 678 582 678T606 679T630 680T659 681Q660 677 661 672T662 662Q662 645 651 643L633 639Q622 637 613 631T592 612T565 577T529 520L436 366V356L560 157Q580 125 594 104T618 69T636 49T654 40L673 35Q685 32 685 16Z"  />
<glyph unicode="Y" horiz-adv-x="684" d="M681 662Q681 653 679 649T668 643L656 639Q645 636 636 630T616 611T590 576T555 520L458 356Q447 339 444 326T441 284V135Q441 109 441 92T444 65T451 49T466 42L502 36Q515 33 515 16Q515 11 514 6T512 -3Q474 -2 432 -1T353 0Q316 0 272 -1T190 -3Q189 1 188 6T187 16Q187 33 200 36L236 42Q245 43 250 48T258 64T260 92T261 135V262Q261 285 258 297T243 327L130 521Q110 554 96 576T71 611T51 630T33 638L15 643Q7 645 5 649T3 662Q3 667 4 672T6 681Q43 680 88 679T168 678Q186 678 209 678T256 679T303 680T345 681Q346 677 347 672T348 662Q348 652 346 649T336 643L314 638Q293 633 293 617Q293 601 306 576T335 522L401 396H403L469 519Q484 546 496 571T509 613Q509 625 503 631T486 639L463 643Q455 645 453 649T451 662Q451 667 452 672T454 681Q487 680 512 679T574 678Q591 678 603 678T626 679T649 680T678 681Q679 677 680 672T681 662Z"  />
<glyph unicode="Z" horiz-adv-x="674" d="M658 180Q653 162 648 140T637 94T628 47T620 5Q618 1 611 -3Q604 -2 574 -2T505 -1T421 0Q378 0 344 0Q304 0 255 0T159 -1T75 -2T21 -4Q19 1 19 10Q19 20 21 25Q36 45 57 78T99 144L382 614V617H245Q206 617 181 614T140 602T115 580T99 544L91 521Q88 513 85 510T71 507Q65 507 60 508T49 510Q50 523 52 550T57 606T62 662T65 702Q69 704 71 704T80 703Q92 703 94 696Q98 680 108 680Q114 680 129 680T165 679T214 678T271 677Q311 677 363 677T466 678T556 679T612 681Q614 676 614 667Q614 658 612 652Q607 646 598 632T578 602T556 567T536 534L254 63V60H434Q471 60 497 63T541 75T571 99T595 138L612 176Q619 190 636 186Q642 184 648 183T658 180Z"  />
<glyph unicode="[" horiz-adv-x="338" d="M270 -106Q270 -114 269 -122T267 -137Q253 -137 240 -137T213 -136H118Q106 -136 94 -136T69 -137V699Q81 699 93 699T118 698H213Q227 698 240 698T267 699Q268 693 269 685T270 668Q270 659 267 653T255 646H187Q169 646 159 644T144 632T137 601T136 543V19Q136 -18 137 -39T143 -70T159 -82T187 -84H255Q263 -84 266 -90T270 -106Z"  />
<glyph unicode="\" horiz-adv-x="300" d="M313 7Q309 4 301 1T283 -6T265 -11T251 -15L-12 691Q-8 694 0 697T18 704T35 710T49 714L313 7H313Z"  />
<glyph unicode="]" horiz-adv-x="338" d="M269 -137Q257 -137 245 -137T220 -136H125Q111 -136 98 -136T71 -137Q70 -131 69 -123T68 -106Q68 -97 71 -91T83 -84H151Q169 -84 179 -82T194 -70T201 -39T202 19V543Q202 580 201 601T195 632T179 644T151 646H83Q75 646 72 652T68 668Q68 676 69 684T71 699Q85 699 98 699T125 698H220Q232 698 244 698T269 699V-137H269Z"  />
<glyph unicode="^" horiz-adv-x="500" d="M391 201L249 540L109 201H25L214 634H286L475 201H391Z"  />
<glyph unicode="_" horiz-adv-x="500" d="M0 -241V-161H500V-241H0Z"  />
<glyph unicode="`" horiz-adv-x="500" d="M345 522Q345 515 338 510T323 506Q308 521 289 539T250 577T211 617T176 656Q165 669 160 678T155 699Q155 706 160 715T174 732T194 745T217 751Q234 751 244 739T270 694Q276 680 286 659T306 613T327 564T345 522Z"  />
<glyph unicode="a" horiz-adv-x="585" d="M231 377H228L174 212Q176 209 179 207H285Q288 209 290 212L231 377ZM582 16Q582 7 580 -3Q545 -2 506 -1T431 0Q396 0 358 -1T285 -3Q283 7 283 16Q283 25 285 29T295 35L319 39Q330 41 336 44T342 56Q342 61 340 70T334 88T328 107T322 122L309 157Q308 159 303 161H163Q158 159 157 157L145 122Q130 78 137 60T163 39L189 35Q197 33 199 29T201 16Q201 7 199 -3Q175 -2 151 -1T103 0Q78 0 54 -1T5 -3Q3 7 3 16Q3 25 5 29T15 35L29 37Q43 39 53 57T81 123L177 394Q179 399 181 408T183 424Q183 426 183 428T183 431Q186 437 191 440T206 447T229 456T263 470Q281 478 292 484T312 494T326 500T339 502Q348 502 354 495Q362 466 371 443T395 385L501 123Q520 75 529 58T553 38L570 35Q578 33 580 29T582 16Z"  />
<glyph unicode="b" horiz-adv-x="593" d="M395 133Q395 157 387 174T366 202T335 218T298 224H266Q262 222 261 220V118Q261 73 268 59T292 45H314Q356 45 375 69T395 133ZM362 352Q362 377 356 393T341 418T321 430T301 433Q289 433 282 432T268 429Q265 424 263 409T261 360V272Q263 269 266 267H301Q324 267 343 286T362 352ZM568 135Q568 105 553 80T515 38Q479 13 441 7T370 0H175Q140 0 102 -1T29 -3Q27 7 27 16Q27 25 29 29T39 35L72 41Q90 44 93 62T96 130V345Q96 394 93 412T72 433L39 439Q31 441 29 445T27 458Q27 467 29 477Q64 476 93 475T158 474Q180 474 207 475T262 476T311 478T346 479Q431 479 480 451T530 366Q530 328 497 296T392 256V255Q430 255 462 247T517 223T554 186T568 135Z"  />
<glyph unicode="c" horiz-adv-x="545" d="M506 141Q502 110 498 76T490 13Q489 11 487 10T483 8Q444 -5 408 -11T326 -18Q264 -18 210 0T114 52T49 133T25 239Q25 302 50 349T116 428T212 476T325 492Q367 492 403 486T483 466Q488 464 489 461Q491 432 493 397T498 330Q494 329 490 328T480 327Q471 327 467 328T460 337Q446 389 418 414T340 439Q300 439 273 425T230 385T206 326T199 252Q199 192 213 151T250 84T300 47T353 35Q380 35 398 42T429 63T451 95T468 135Q470 142 474 143T488 144Q493 143 497 143T506 141Z"  />
<glyph unicode="d" horiz-adv-x="645" d="M447 227Q447 283 435 321T404 384T360 418T313 429Q284 429 267 422Q266 420 265 418T263 409T262 393T261 365V126Q261 80 268 66T294 51H316Q337 51 360 59T402 87T434 141T447 227ZM620 240Q620 192 602 148T548 71Q513 39 461 20T352 0H175Q140 0 102 -1T29 -3Q27 7 27 16Q27 25 29 29T39 35L72 41Q90 44 93 62T96 130V345Q96 394 93 412T72 433L39 439Q31 441 29 445T27 458Q27 467 29 477Q64 476 95 475T162 474Q186 474 206 475T248 477T291 480T343 482Q401 482 456 465T549 413Q583 383 601 340T620 240Z"  />
<glyph unicode="e" horiz-adv-x="514" d="M506 127Q498 98 493 67T482 4Q481 1 476 -1Q470 0 437 0Q405 0 349 0H175Q140 0 102 -1T29 -3Q27 7 27 16Q27 25 29 29T39 35L72 41Q90 44 93 62T96 130V345Q96 394 93 412T72 433L39 439Q31 441 29 445T27 458Q27 467 29 477Q65 476 100 475T172 474H286Q329 474 371 474T435 476Q440 474 442 471Q446 442 448 412T456 352Q452 351 447 350T436 347Q427 346 423 348T416 357L409 371Q401 387 393 397T373 413T346 421T308 423H271Q268 418 265 404T261 357V276Q263 273 266 271H287Q332 271 347 276T365 296L368 312Q371 323 385 323Q395 323 403 321Q402 302 402 283Q402 264 402 245Q402 226 402 206Q402 186 403 167Q395 165 385 165Q369 165 368 175L365 195Q363 209 348 214T287 220H266Q263 218 261 215V127Q261 104 262 89T268 66T278 54T294 51H349Q372 51 388 53T415 62T436 78T455 105L466 123Q470 129 474 131T487 131Q492 130 497 129T506 127Z"  />
<glyph unicode="f" horiz-adv-x="485" d="M458 349Q454 348 449 347T438 345Q429 344 425 346T418 354L411 369Q403 385 396 395T377 412T350 420T312 423H270Q267 418 264 404T261 357V270Q263 267 266 265H289Q297 265 310 265Q323 265 335 267T357 275T368 290L370 307Q371 317 387 317Q391 317 397 316T406 314Q405 296 405 277T404 240Q404 220 404 199T406 158Q403 157 397 156T387 155Q371 155 370 166L368 190Q367 204 351 209T289 214H266Q263 212 261 209V130Q261 118 261 104T262 77T272 55T294 42L328 35Q336 33 338 29T340 16Q340 7 338 -3Q320 -3 299 -3T256 -2T213 -1T175 0Q140 0 102 -1T29 -3Q27 7 27 16Q27 25 29 29T39 35L72 41Q90 44 93 62T96 130V345Q96 394 93 412T72 433L39 439Q31 441 29 445T27 458Q27 467 29 477Q64 476 92 475T156 474H320Q374 474 402 474T438 476Q442 475 444 471Q448 442 450 411T458 349Z"  />
<glyph unicode="g" horiz-adv-x="603" d="M587 197Q587 188 585 184T575 178L554 172Q537 167 533 153T528 103V78Q528 49 532 37T541 19Q539 14 535 10Q492 -6 440 -12T335 -18Q265 -18 208 0T111 51T48 132T25 238Q25 302 49 350T116 429T214 476T334 492Q388 492 439 485T524 466Q527 465 529 460Q531 431 534 396T539 329Q535 328 531 327T521 326Q503 326 501 337Q489 385 452 412T353 439Q311 439 282 424T234 384T208 324T199 249Q199 183 210 141T240 75T280 41T326 32Q341 32 352 36T371 46Q373 51 373 61T374 83V103Q374 141 368 153T341 171L307 178Q299 180 297 184T295 197Q295 206 297 216Q332 215 370 214T444 213Q479 213 514 214T585 216Q587 206 587 197Z"  />
<glyph unicode="h" horiz-adv-x="700" d="M673 16Q673 7 671 -3Q636 -2 595 -1T518 0Q483 0 445 -1T372 -3Q370 7 370 16Q370 25 372 29T382 35L415 41Q433 44 436 62T439 130V213Q438 216 435 217H265Q262 216 261 213V130Q261 81 264 63T285 41L318 35Q326 33 328 29T330 16Q330 7 328 -3Q293 -2 252 -1T175 0Q140 0 102 -1T29 -3Q27 7 27 16Q27 25 29 29T39 35L72 41Q90 44 93 62T96 130V345Q96 394 93 412T72 433L39 439Q31 441 29 445T27 458Q27 467 29 477Q64 476 100 475T172 474Q207 474 250 475T328 477Q330 467 330 458Q330 449 328 445T318 439L285 433Q267 430 264 412T261 345V284Q263 280 265 279H435Q437 280 439 284V345Q439 394 436 412T415 433L382 439Q374 441 372 445T370 458Q370 467 372 477Q407 476 443 475T515 474Q550 474 593 475T671 477Q673 467 673 458Q673 449 671 445T661 439L628 433Q610 430 607 412T604 345V130Q604 81 607 63T628 41L661 35Q669 33 671 29T673 16Z"  />
<glyph unicode="i" horiz-adv-x="361" d="M332 16Q332 7 330 -3Q295 -2 254 -1T177 0Q142 0 104 -1T31 -3Q29 7 29 16Q29 25 31 29T41 35L74 41Q92 44 95 62T98 130V345Q98 394 95 412T74 433L41 439Q33 441 31 445T29 458Q29 467 31 477Q66 476 102 475T174 474Q209 474 252 475T330 477Q332 467 332 458Q332 449 330 445T320 439L287 433Q269 430 266 412T263 345V130Q263 81 266 63T287 41L320 35Q328 33 330 29T332 16Z"  />
<glyph unicode="j" horiz-adv-x="326" d="M319 458Q319 449 317 445T307 439L274 433Q256 430 253 412T250 345V35Q250 -27 229 -78T171 -166T89 -223T-5 -244Q-46 -244 -69 -229T-92 -194Q-92 -185 -88 -174T-76 -154T-60 -138T-41 -131Q-31 -131 -23 -138T-6 -155T13 -171T39 -179Q68 -179 76 -149T85 -59V345Q85 394 82 412T61 433L26 439Q18 441 16 445T14 458Q14 467 16 477Q51 476 88 475T161 474Q196 474 239 475T317 477Q319 467 319 458Z"  />
<glyph unicode="k" horiz-adv-x="642" d="M640 16Q640 7 638 -3Q603 -2 576 -1T515 0Q506 0 492 0Q479 0 464 0Q450 0 436 0T411 -2Q397 14 381 37T347 88T311 146T276 207Q274 205 269 200T261 193V130Q261 81 264 63T285 41L318 35Q326 33 328 29T330 16Q330 7 328 -3Q293 -2 252 -1T175 0Q140 0 102 -1T29 -3Q27 7 27 16Q27 25 29 29T39 35L72 41Q90 44 93 62T96 130V345Q96 394 93 412T72 433L39 439Q31 441 29 445T27 458Q27 467 29 477Q64 476 100 475T172 474Q207 474 250 475T328 477Q330 467 330 458Q330 450 328 446T318 439L285 433Q267 430 264 412T261 345V259Q265 259 267 260Q293 284 322 312T379 369Q399 389 407 400T415 419Q415 427 409 429T395 434L367 439Q359 441 357 445T355 458Q355 467 357 477Q392 476 428 475T500 474Q517 474 530 474T555 475T579 476T610 477Q612 467 612 458Q612 451 610 446T600 439L565 433Q543 430 510 400L403 303Q402 299 403 296Q410 284 426 258T462 204T499 149T529 108Q545 87 556 75T577 55T594 44T612 38L628 35Q636 33 638 29T640 16Z"  />
<glyph unicode="l" horiz-adv-x="497" d="M482 144Q478 129 474 111T466 75T459 38T453 4Q452 1 447 -1Q441 0 408 0Q376 0 320 0H175Q140 0 102 -1T29 -3Q27 7 27 16Q27 25 29 29T39 35L72 41Q90 44 93 62T96 130V344Q96 393 93 411T72 433L39 439Q31 441 29 445T27 458Q27 467 29 477Q64 476 102 475T175 474Q192 474 213 474T256 475T299 476T338 477Q340 467 340 458Q340 449 338 445T328 439L294 432Q283 430 277 427T267 414T262 389T261 344V127Q261 104 262 89T268 66T278 54T294 51H320Q364 51 387 61T425 105L441 140Q444 146 448 147T462 148Q467 148 473 147T482 144Z"  />
<glyph unicode="m" horiz-adv-x="759" d="M732 16Q732 7 730 -3Q695 -2 655 -1T580 0Q545 0 509 -1T437 -3Q435 7 435 16Q435 25 437 29T447 35L480 41Q497 44 499 62T501 130L500 310H498L381 -1Q375 -2 360 -2T326 -3Q309 -3 294 -3T273 -1L159 310H158L157 197Q157 151 158 122T162 76T173 52T194 41L222 35Q230 33 232 29T234 16Q234 7 232 -3Q217 -3 205 -3T183 -2T160 -1T133 0Q107 0 81 -1T29 -3Q27 7 27 16Q27 25 29 29T39 35L66 40Q75 41 80 47T88 67T92 103T94 160L99 370Q100 396 94 414T71 435L45 439Q37 441 35 445T33 458Q33 467 35 477Q61 476 93 475T151 474Q183 474 209 475T263 477Q265 476 266 475T270 473Q275 456 283 428T301 373L381 145H382L461 373Q470 399 478 427T490 473Q492 474 494 475T498 477Q526 476 548 475T602 474Q628 474 664 475T726 477Q728 467 728 458Q728 449 726 445T716 439L690 435Q673 433 668 415T662 370L665 130Q665 106 665 90T667 63T674 48T688 41L720 35Q728 33 730 29T732 16Z"  />
<glyph unicode="n" horiz-adv-x="620" d="M603 458Q603 449 601 445T591 439L561 434Q552 432 547 426T538 407T533 371T532 314V153Q532 104 534 63T539 -4Q533 -5 521 -5T494 -6T464 -7T435 -6Q429 -6 426 -3T419 4Q414 12 403 27T376 62L162 312H161L164 197Q165 151 167 122T173 76T185 52T207 42L246 35Q254 33 256 29T258 16Q258 7 256 -3Q225 -2 195 -1T133 0Q107 0 80 -1T27 -3Q25 7 25 16Q25 25 27 29T37 35L67 40Q76 41 81 47T90 66T95 102T96 160V366Q96 380 94 392T85 414Q72 431 51 434L25 438Q17 440 15 444T13 457Q13 467 15 477Q41 476 73 475T132 474Q164 474 188 474T241 476Q247 474 249 473Q257 458 274 433T310 386L465 208H467L464 277Q462 323 460 352T454 398T442 422T421 432L382 439Q374 441 372 445T370 458Q370 467 372 477Q403 476 433 475T495 474Q521 474 548 475T601 477Q603 467 603 458Z"  />
<glyph unicode="o" horiz-adv-x="628" d="M430 223Q430 260 425 299T405 370T367 422T307 443Q272 443 251 426T219 382T203 319T199 249Q199 212 204 173T224 103T262 51T322 30Q356 30 377 47T410 91T426 153T430 223ZM603 235Q603 177 583 131T525 51T434 0T314 -18Q249 -18 196 0T105 53T46 134T25 237Q25 295 45 342T103 422T194 474T314 492Q379 492 432 473T523 420T582 339T603 235Z"  />
<glyph unicode="p" horiz-adv-x="572" d="M549 330Q549 299 534 271T490 222T417 188T319 175Q295 175 287 179T279 195Q279 201 279 207Q279 214 280 220Q285 219 287 219T297 218Q305 218 318 221T343 234T363 266T372 323Q372 377 356 405T301 433Q295 433 285 432T270 429Q267 425 264 411T261 364V130Q261 102 262 86T267 60T277 48T294 42L328 35Q336 33 338 29T340 16Q340 7 338 -3Q320 -3 299 -3T256 -2T213 -1T175 0Q140 0 102 -1T29 -3Q27 7 27 16Q27 25 29 29T39 35L72 41Q90 44 93 62T96 130V345Q96 394 93 412T72 433L39 439Q31 441 29 445T27 458Q27 467 29 477Q64 476 93 475T158 474Q180 474 209 475T266 476T319 478T355 479Q394 479 429 470T490 443T533 396T549 330Z"  />
<glyph unicode="q" horiz-adv-x="628" d="M430 223Q430 260 425 299T405 370T367 422T307 443Q272 443 251 426T219 382T203 319T199 249Q199 212 204 173T224 103T262 51T322 30Q356 30 377 47T410 91T426 153T430 223ZM1158 -111Q1089 -174 1011 -209T848 -244Q783 -244 719 -227T587 -180T447 -111T294 -26Q285 -21 279 -19T261 -14Q208 -7 165 14T90 68T42 143T25 237Q25 295 45 342T103 422T194 474T314 492Q379 492 432 473T523 420T582 339T603 235Q603 144 555 83T422 -3L423 -6Q508 -39 576 -64T703 -107T812 -134T913 -143Q979 -143 1035 -128T1144 -73Q1146 -75 1149 -78T1156 -86Q1161 -92 1162 -98T1158 -111Z"  />
<glyph unicode="r" horiz-adv-x="634" d="M383 339Q383 368 377 386T360 415T336 429T309 433Q301 433 290 432T270 429Q266 424 264 409T261 360V256Q263 252 265 251H305Q338 251 360 271T383 339ZM632 16Q632 7 630 -3Q612 -3 599 -3T573 -2T547 -1T516 0Q507 0 493 0Q480 0 466 0Q452 0 438 0T413 -2Q382 35 351 91T292 205Q289 208 287 209H265Q264 208 261 203V130Q261 81 264 63T285 41L318 35Q326 33 328 29T330 16Q330 7 328 -3Q293 -2 252 -1T175 0Q140 0 102 -1T29 -3Q27 7 27 16Q27 25 29 29T39 35L72 41Q90 44 93 62T96 130V345Q96 394 93 412T72 433L39 439Q31 441 29 445T27 458Q27 467 29 477Q64 476 100 475T171 474Q193 474 222 474T279 476T331 477T368 478Q461 478 508 446T556 351Q556 311 528 282T453 239Q452 236 453 233Q464 213 483 182T525 119Q541 95 552 81T573 59T589 47T604 40L620 35Q628 33 630 29T632 16Z"  />
<glyph unicode="s" horiz-adv-x="431" d="M402 152Q402 111 384 80T334 26T263 -7T179 -18Q136 -18 99 -14T35 -1Q30 1 29 4Q27 34 24 68T17 132Q21 133 27 134T39 135Q56 135 58 124Q69 79 94 56T173 33Q210 33 234 46T259 90Q259 115 243 131T203 161T152 187T100 220T60 266T44 335Q44 376 61 405T107 454T173 483T249 492Q287 492 317 489T366 481Q370 479 372 475Q374 446 376 422T381 366Q377 365 371 364T360 363Q343 363 341 374Q330 416 309 431T253 447Q215 447 199 431T182 389Q182 367 198 352T239 323T292 297T345 264T385 219T402 152Z"  />
<glyph unicode="t" horiz-adv-x="530" d="M511 342Q501 340 490 340Q473 340 471 351L466 370Q462 385 457 394T442 409T417 417T377 419H356Q353 415 350 401T347 354V130Q347 81 350 63T371 41L404 35Q412 33 414 29T416 16Q416 7 414 -3Q379 -2 338 -1T261 0Q226 0 188 -1T115 -3Q113 7 113 16Q113 25 115 29T125 35L158 41Q176 44 179 62T182 130V354Q182 386 180 400T174 419H152Q105 419 88 409T63 370L58 351Q56 340 40 340Q29 340 19 342Q20 352 21 372T23 414T26 457T28 486Q31 487 34 487T43 488Q48 488 52 487T57 483Q62 470 67 470Q75 470 102 470T163 469H366Q400 469 427 469T462 470Q468 470 473 483Q474 486 477 487T486 488Q491 488 494 488T501 486Q502 477 503 457T505 415T508 372T511 342Z"  />
<glyph unicode="u" horiz-adv-x="594" d="M587 458Q587 449 585 445T575 439L545 434Q536 432 531 426T522 407T517 371T516 314V159Q516 71 464 27T316 -18Q263 -18 221 -9T150 21T104 74T88 154V345Q88 394 85 412T64 433L31 439Q23 441 21 445T19 458Q19 467 21 477Q56 476 92 475T164 474Q199 474 242 475T320 477Q322 467 322 458Q322 449 320 445T310 439L277 433Q259 430 256 412T253 345V158Q253 106 276 76T349 46Q392 46 417 71T443 157V277Q443 323 442 351T438 397T426 421T405 432L374 439Q366 441 364 445T362 458Q362 467 364 477Q395 476 420 475T477 474Q503 474 531 475T585 477Q587 467 587 458Z"  />
<glyph unicode="v" horiz-adv-x="562" d="M562 458Q562 449 560 445T550 439L536 437Q522 435 511 417T484 351L394 73Q387 52 381 34T370 -3Q367 -5 343 -5T291 -6Q263 -6 239 -6T211 -3Q207 15 201 33T187 73L81 351Q72 375 65 391T53 416T42 430T29 436L12 439Q4 441 2 445T0 458Q0 467 2 477Q37 476 75 475T149 474Q184 474 222 475T296 477Q298 467 298 458Q298 449 296 445T286 439L262 435Q251 433 245 430T239 418Q239 414 241 406T246 389T252 370T259 352L340 105H343L404 311Q414 346 419 369T425 406Q425 420 419 426T402 435L376 439Q368 441 366 446T364 458Q364 467 366 477Q390 476 414 475T462 474Q487 474 511 475T560 477Q562 467 562 458Z"  />
<glyph unicode="w" horiz-adv-x="824" d="M824 458Q824 449 822 445T812 439L800 437Q793 436 788 432T778 419T765 394T748 350L639 74Q631 53 624 34T612 -3Q609 -5 589 -5T544 -6Q520 -6 500 -6T475 -3Q471 15 466 34T452 74L426 148H424L392 74Q373 32 366 -3Q363 -5 343 -5T298 -6Q274 -6 254 -6T229 -3Q225 15 218 34T201 74L79 351Q58 398 49 416T26 437L12 439Q4 440 2 444T0 458Q0 467 2 477Q37 476 75 475T149 474Q166 474 178 474T202 475T226 476T257 477Q259 467 259 458Q259 449 257 445T247 439L243 438Q238 436 235 433T231 421Q231 409 239 389T253 353L349 115H351L392 208V215L337 352Q327 376 321 392T309 417T300 431T289 437L278 439Q270 441 268 445T266 458Q266 467 268 477Q286 477 301 477T330 476T360 475T392 474Q409 474 421 474T445 475T469 476T500 477Q502 467 502 458Q502 449 500 445T490 439L486 438Q475 435 475 420Q475 408 481 389T493 353L505 315H506L519 353Q535 399 536 417T524 438L520 439Q512 441 510 445T508 458Q508 467 510 477Q533 476 550 475T584 474Q604 474 618 475T653 477Q655 467 655 458Q655 449 653 445T643 439L632 437Q626 436 621 432T610 419T597 393T578 350L540 261V254L591 113H594L664 308Q686 370 692 400T679 437L673 439Q665 441 663 445T661 458Q661 467 663 477Q686 476 704 475T740 474Q760 474 781 475T822 477Q824 467 824 458Z"  />
<glyph unicode="x" horiz-adv-x="532" d="M532 16Q532 7 530 -3Q495 -2 457 -1T383 0Q348 0 310 -1T236 -3Q234 7 234 16Q234 24 236 28T246 35L259 37Q275 39 275 54Q275 66 266 84T245 121L212 177H210L177 122Q167 106 157 88T147 57Q147 40 164 37L177 35Q185 33 187 29T189 16Q189 7 187 -3Q163 -2 139 -1T91 0Q66 0 50 -1T9 -3Q7 7 7 16Q7 25 9 29T19 35L33 37Q40 38 46 42T61 56T79 82T106 122L175 228V235L101 351Q71 398 57 416T29 436L12 439Q4 441 2 445T0 458Q0 467 2 477Q37 476 75 475T149 474Q184 474 222 475T296 477Q298 467 298 458Q298 450 296 446T286 439L273 437Q258 435 258 421Q258 409 267 391T287 354L318 305H320L347 353Q356 369 366 387T376 418Q376 434 359 437L346 439Q338 441 336 445T334 458Q334 467 336 477Q360 476 384 475T432 474Q457 474 472 475T512 477Q514 467 514 458Q514 449 512 445T502 439L485 437Q478 436 472 432T457 417T439 391T413 351L354 255V248L433 123Q463 76 476 59T504 38L520 35Q528 33 530 29T532 16Z"  />
<glyph unicode="y" horiz-adv-x="527" d="M527 458Q527 449 525 445T515 439L501 437Q487 435 473 418T429 352L365 244Q357 231 355 222T352 192V130Q352 81 355 63T376 41L409 35Q417 33 419 29T421 16Q421 7 419 -3Q384 -2 343 -1T266 0Q231 0 193 -1T120 -3Q118 7 118 16Q118 25 120 29T130 35L163 41Q181 44 184 62T187 130V173Q187 190 184 199T173 221L99 351Q85 375 75 391T57 416T42 430T28 436L12 439Q4 441 2 445T0 458Q0 467 2 477Q37 476 75 475T149 474Q184 474 219 475T290 477Q292 467 292 458Q292 449 290 445T280 439L267 437Q251 434 251 420Q251 408 260 391T280 353L317 278H319L358 352Q366 369 376 386T387 417Q387 434 370 437L357 439Q349 441 347 445T345 458Q345 467 347 477Q371 476 395 475T443 474Q468 474 484 475T525 477Q527 467 527 458Z"  />
<glyph unicode="z" horiz-adv-x="521" d="M505 137Q497 108 490 71T477 3Q474 0 470 -2Q464 -1 443 -1T393 0Q365 0 334 0Q304 0 280 0Q251 0 212 0T134 -1T65 -2T23 -3Q21 0 21 9Q21 18 23 22Q35 39 49 60T76 104L260 419V421H175Q152 421 138 419T114 412T98 397T88 372L83 356Q79 345 65 345Q56 345 46 347Q47 357 48 376T50 418T52 459T54 488Q57 489 69 489Q78 489 81 484Q84 472 92 472Q99 472 126 472T185 471Q214 471 258 471T345 472T422 473T469 474Q471 471 471 462Q471 453 469 449Q465 444 459 435T445 413T430 389T417 367L235 52V50H347Q392 50 413 60T450 103L464 134Q469 145 486 142Q490 141 495 140T505 137Z"  />
<glyph unicode="{" horiz-adv-x="338" d="M300 -126Q300 -151 280 -151Q204 -151 161 -110T118 -4Q118 18 123 39T134 82T145 124T150 167Q150 217 117 234T35 252Q33 262 33 278Q33 294 35 304Q84 304 117 321T150 389Q150 410 145 431T134 474T123 516T118 560Q118 624 161 665T280 707Q300 707 300 682Q300 673 300 667T298 654Q266 654 245 646T210 625T192 595T186 560Q186 538 190 517T199 475T209 433T213 390Q213 345 191 319T130 279V277Q168 263 190 237T213 166Q213 144 209 123T200 81T190 39T186 -4Q186 -22 191 -39T210 -69T244 -90T298 -98Q299 -104 299 -110T300 -126Z"  />
<glyph unicode="|" horiz-adv-x="250" d="M157 -270Q152 -271 144 -271T125 -272Q116 -272 108 -272T93 -270V730Q104 732 125 732Q146 732 157 730V-270H157Z"  />
<glyph unicode="}" horiz-adv-x="338" d="M303 252Q254 252 221 235T188 167Q188 146 193 125T204 82T215 40T220 -4Q220 -68 177 -109T58 -151Q38 -151 38 -126Q38 -117 38 -111T40 -98Q72 -98 93 -90T128 -69T146 -39T152 -4Q152 18 148 39T139 81T129 123T125 166Q125 211 147 237T208 277V279Q170 293 148 319T125 390Q125 412 129 433T138 475T148 517T152 560Q152 578 147 595T128 625T94 646T40 654Q39 660 39 666T38 682Q38 707 58 707Q134 707 177 666T220 560Q220 538 215 517T204 474T193 432T188 389Q188 339 221 322T303 304Q305 294 305 278Q305 262 303 252Z"  />
<glyph unicode="~" horiz-adv-x="500" d="M483 220Q460 194 429 178T362 162Q333 162 305 172T248 196T193 219T138 230Q97 230 70 211T17 162V248Q40 274 71 289T138 305Q167 305 195 295T251 271T306 248T361 237Q403 237 430 256T483 305V220H483Z"  />
<glyph unicode="&#xA0;" horiz-adv-x="250" />
<glyph unicode="&#xA1;" horiz-adv-x="206" d="M192 54Q192 34 185 22T165 1T138 -10T106 -13Q90 -13 75 -10T47 1T27 21T19 54Q19 82 25 117T41 190T62 263T83 329Q90 331 106 331Q122 331 129 329Q138 300 149 264T169 191T185 118T192 54ZM184 423Q184 391 164 370T109 348Q76 348 55 369T33 422Q33 454 53 475T108 496Q141 496 162 476T184 423Z"  />
<glyph unicode="&#xA2;" horiz-adv-x="515" d="M295 434Q294 436 293 436T289 439Q261 432 243 415T214 374T199 320T195 254Q195 166 222 114T291 42Q293 44 294 44T295 45V434ZM488 136Q484 108 480 74T473 14Q472 12 470 11T466 9Q440 0 413 -7T357 -16Q354 -18 353 -20V-100Q351 -105 346 -106T326 -108Q311 -108 304 -107T295 -100V-23Q294 -21 293 -21T289 -18Q233 -15 186 5T103 59T48 138T28 239Q28 299 49 345T105 422T188 471T290 492Q292 494 293 494Q294 494 295 496V579Q297 584 302 586T322 588Q337 588 344 586T353 579V494Q354 492 355 492T359 489Q409 485 465 466Q470 464 471 461Q473 435 475 401T480 338Q476 337 471 336T461 335Q453 335 450 336T444 344Q433 389 412 412T358 441Q354 438 353 435V36Q355 34 355 33Q355 33 357 32Q379 34 394 42T419 63T437 93T452 131Q454 137 457 138T469 139Q474 138 479 138T488 136Z"  />
<glyph unicode="&#xA3;" horiz-adv-x="515" d="M527 676Q527 665 520 654T503 632T481 615T458 608Q438 608 427 621T408 649T388 677T357 690Q331 690 318 669T300 613T295 535T298 447Q299 444 305 440H430Q436 438 437 432T438 412Q438 398 437 391T430 382H305Q303 381 301 380T298 375Q297 307 268 254T181 155V153Q194 157 211 157Q237 157 263 146T315 120T364 95T406 83Q419 83 427 91T435 111Q435 123 426 132T405 151T384 171T374 197Q374 208 380 218T397 236T419 249T442 254Q457 254 468 245T487 222T499 191T503 155Q503 122 491 91T456 36T405 -3T342 -18Q309 -18 278 -5T220 25T171 56T131 70H123Q117 58 109 44T89 18T64 -2T34 -10Q17 -10 5 2T-7 32Q-7 52 3 68T28 97T61 119T94 134Q106 155 114 184T128 246T136 312T138 375Q137 378 131 382H48Q42 384 41 389T39 409Q39 436 49 440H132Q136 441 138 447V472Q139 521 156 572T205 664T287 732T403 758Q420 758 441 753T482 738T514 712T527 676Z"  />
<glyph unicode="&#xA4;" horiz-adv-x="500" d="M367 249Q367 273 358 294T333 330T296 355T250 364Q226 364 205 355T168 331T143 294T134 249Q134 225 143 204T168 167T205 142T250 132Q274 132 295 141T332 166T357 203T367 249ZM423 21L354 89Q307 58 250 58Q221 58 195 66T146 90L76 20L24 75L92 143Q77 166 69 193T60 249Q60 278 68 304T92 353L24 421L76 476L146 407Q169 422 195 430T250 439Q279 439 305 431T354 407L424 477L476 422L408 355Q441 308 441 249Q441 190 408 143L475 76L423 21Z"  />
<glyph unicode="&#xA5;" horiz-adv-x="526" d="M524 458Q524 442 513 440L499 437Q491 435 485 432T470 420T452 397T426 358L388 297Q390 292 393 290H474Q479 288 481 284T483 264Q483 249 481 243T474 235H356Q351 233 349 228Q346 220 346 212T345 188V164Q346 162 352 158H474Q479 156 481 152T483 132Q483 117 481 111T474 103H351Q347 102 345 96Q345 65 350 54T370 40L403 34Q410 32 411 28T413 16Q413 7 411 -3Q378 -2 337 -1T264 0Q232 0 191 -1T117 -3Q115 7 115 16Q115 24 116 28T125 34L157 40Q171 43 176 55T182 96Q181 100 176 103H53Q48 105 47 110T45 130Q45 145 47 150T54 158H176Q180 159 182 164V182Q182 198 179 207T169 228Q168 231 162 235H53Q48 237 47 242T45 262Q45 277 47 282T54 290H124Q126 291 128 297L92 357Q78 380 68 394T51 418T37 430T23 436L6 440Q-5 442 -5 458Q-5 467 -3 477Q30 476 67 475T137 474Q169 474 206 475T277 477Q279 467 279 458Q279 442 268 440L254 437Q239 434 239 421Q239 413 249 396T270 359L314 277H316L362 357Q372 374 381 392T391 419Q391 434 375 437L360 440Q353 442 352 446T350 458Q350 467 352 477Q375 476 397 475T443 474Q465 474 482 475T522 477Q524 467 524 458Z"  />
<glyph unicode="&#xA6;" horiz-adv-x="250" d="M86 0V280H164V0H86ZM86 399V678H164V399H86Z"  />
<glyph unicode="&#xA7;" horiz-adv-x="460" d="M370 25Q370 73 353 113T311 191T256 263T201 337T159 417T143 511H141Q123 491 114 461T104 404Q104 356 121 315T164 237T219 163T274 90T315 10T330 -82H332Q351 -63 360 -32T370 25ZM441 43Q441 -10 419 -55T360 -135T274 -188T171 -208Q153 -208 128 -205T81 -193T43 -171T27 -136Q27 -126 31 -115T43 -93T61 -77T84 -70Q102 -70 117 -81T147 -106T179 -131T217 -142Q243 -142 258 -125T273 -84Q273 -53 256 -22T212 44T156 117T99 197T56 286T38 389Q38 439 58 484T112 563T193 617T294 637Q310 637 333 634T376 622T410 601T425 566Q425 556 421 545T410 525T393 509T372 503Q356 503 342 513T313 537T283 560T249 571Q223 571 210 554T196 513Q196 482 214 449T259 382T318 309T377 230T423 142T441 43Z"  />
<glyph unicode="&#xA8;" horiz-adv-x="500" d="M224 646Q224 614 205 594T153 573Q121 573 101 593T81 645Q81 677 100 698T152 720Q184 720 204 699T224 646ZM419 646Q419 614 400 594T349 573Q317 573 297 593T276 645Q276 677 295 698T347 720Q379 720 399 699T419 646Z"  />
<glyph unicode="&#xA9;" horiz-adv-x="765" d="M553 269Q550 243 546 216T540 165Q539 163 535 161Q507 150 473 145T403 139Q356 139 315 153T244 194T195 258T177 341Q177 390 195 427T244 490T315 527T401 540Q433 540 468 535T534 519Q538 517 539 515Q541 491 543 464T547 411Q544 410 540 409T532 407Q525 407 523 409T519 416Q509 461 485 478T422 495Q390 495 367 484T330 454T308 409T301 353Q301 311 311 280T340 227T382 195T435 184Q475 184 494 204T524 264Q526 273 540 271Q544 270 547 270Q550 270 553 269ZM681 339Q681 404 658 460T595 559T499 625T378 649Q312 649 258 625T165 560T105 462T84 340Q84 275 107 219T170 120T266 54T387 30Q453 30 507 54T600 119T660 217T681 339ZM739 339Q739 262 713 197T641 84T530 9T387 -18Q310 -18 245 9T130 84T54 197T26 340Q26 417 52 482T124 595T235 670T378 697Q454 697 520 670T634 594T711 481T739 339Z"  />
<glyph unicode="&#xAA;" horiz-adv-x="373" d="M200 361Q193 359 185 356T169 350Q154 344 146 335T137 306Q137 288 146 277T171 266Q183 266 194 273Q199 276 199 279T200 288V361ZM373 251Q373 246 373 241Q373 236 372 233Q363 228 351 223T324 215T296 209T270 206Q245 206 233 215T210 244H206Q181 223 158 213T105 203Q67 203 43 226T18 284Q18 317 35 336T94 370Q117 378 147 386T197 401Q198 402 198 403T200 405V441Q200 468 185 481T150 494Q130 494 123 487T115 466Q115 461 115 456Q115 451 116 446Q116 442 113 438Q103 430 87 424T57 418Q48 418 40 423T31 438Q31 458 38 474T72 505Q103 523 140 538T214 553Q235 553 254 548T288 531T312 502T321 461V310Q321 285 325 273T344 260Q349 260 354 261T363 263Q373 263 373 251Z"  />
<glyph unicode="&#xAB;" horiz-adv-x="478" d="M257 73Q255 63 246 58T228 55Q208 71 181 95T126 147T71 201T25 249Q24 252 25 259Q44 280 70 307T125 361T181 412T228 453Q236 455 245 450T257 435Q251 419 241 396T218 349T194 301T172 259V249Q182 231 194 208T218 160T240 112T257 73ZM454 73Q452 63 442 58T424 55Q404 71 378 95T323 147T268 201T222 249Q221 252 222 259Q241 280 267 307T322 361T377 412T424 453Q432 455 442 450T454 435Q448 419 438 396T415 349T391 301T369 259V249Q379 231 391 208T415 160T437 112T454 73Z"  />
<glyph unicode="&#xAC;" horiz-adv-x="500" d="M409 -8V199H17V276H483V-8H409Z"  />
<glyph unicode="&#xAE;" horiz-adv-x="765" d="M434 423Q434 463 415 478T372 493Q366 493 356 493T340 490Q338 486 336 474T334 435V359Q335 357 335 356T336 354H371Q397 354 415 370T434 423ZM615 161Q615 155 613 147Q603 148 579 149T537 150Q519 150 501 150Q483 150 463 148Q440 174 417 221T372 313Q371 314 371 315T368 317H336Q334 316 334 315T334 312V247Q334 210 336 197T353 181L378 177Q388 176 388 161Q388 155 386 147Q358 148 332 148T278 149Q251 149 226 149T172 147Q170 155 170 161Q170 176 180 177L204 181Q218 183 220 196T223 247V432Q223 469 221 483T204 499L180 503Q170 504 170 518Q170 525 172 533Q200 532 218 532T264 531Q279 531 301 531T347 532T389 533T418 534Q481 534 516 508T551 432Q551 397 531 374T482 339Q481 336 482 334Q493 311 509 284T542 231Q562 202 574 192T595 179L606 177Q615 176 615 161ZM681 339Q681 404 658 460T595 559T499 625T378 649Q312 649 258 625T165 560T105 462T84 340Q84 275 107 219T170 120T266 54T387 30Q453 30 507 54T600 119T660 217T681 339ZM739 339Q739 262 713 197T641 84T530 9T387 -18Q310 -18 245 9T130 84T54 197T26 340Q26 417 52 482T124 595T235 670T378 697Q454 697 520 670T634 594T711 481T739 339Z"  />
<glyph unicode="&#xAF;" horiz-adv-x="500" d="M378 671Q378 666 378 655Q378 644 377 632T373 609T366 596H127Q123 598 123 604T122 616Q122 620 122 631Q122 643 123 655T127 678T134 692H372Q376 690 377 683T378 671Z"  />
<glyph unicode="&#xB0;" horiz-adv-x="352" d="M261 486Q261 506 255 524T238 557T212 580T176 589Q156 589 140 581T113 558T96 525T90 486Q90 466 95 448T112 415T139 391T175 382Q195 382 211 391T238 414T255 447T261 486ZM324 486Q324 454 313 427T281 379T233 346T175 334Q144 334 118 346T71 378T40 426T28 486Q28 518 39 545T71 593T118 625T176 637Q207 637 234 625T281 593T312 545T324 486Z"  />
<glyph unicode="&#xB1;" horiz-adv-x="500" d="M17 1V78H483V1H17ZM287 257V116H214V257H17V333H213V475H286V333H483V257H287Z"  />
<glyph unicode="&#xB2;" horiz-adv-x="351" d="M342 321Q340 311 338 296T332 265T327 233T323 209Q322 206 317 203Q313 203 294 203T249 204Q224 204 199 204Q174 204 159 204Q141 204 119 204Q97 204 77 204T39 203T14 202Q13 205 12 211T11 224T10 239Q10 247 11 251Q38 271 67 295T120 349T160 411T176 483Q176 515 158 539T100 563Q77 563 62 554T34 530Q30 532 27 535T22 540Q17 545 17 550Q17 556 26 566Q54 598 88 617T168 637Q195 637 219 628T262 603T291 565T302 515Q302 480 283 447T235 385T176 330T119 286V285H245Q277 285 289 291T309 314Q311 319 314 322T326 324Q331 324 334 323T342 321Z"  />
<glyph unicode="&#xB3;" horiz-adv-x="351" d="M324 330Q324 287 304 256T253 203T182 172T104 161Q60 161 32 174T4 207Q4 214 7 222T15 238T28 251T43 256Q53 256 61 248T79 231T99 213T127 205Q144 205 157 213T179 234T193 265T198 302Q198 339 181 363T128 388Q117 388 105 386T88 382Q76 380 71 384T64 397Q63 400 62 404T60 413Q84 418 104 426T140 445T165 471T174 507Q174 533 159 549T120 565Q103 565 90 558T65 539Q62 541 59 543T53 548Q48 555 48 559Q48 564 56 574Q79 602 111 620T188 638Q210 638 230 631T265 611T289 581T298 543Q298 522 289 506T266 477T235 455T199 440V438Q224 439 247 432T287 411T314 376T324 330Z"  />
<glyph unicode="&#xB4;" horiz-adv-x="500" d="M345 699Q345 688 340 679T324 656Q308 638 289 618T250 577T211 539T177 506Q170 504 163 509T155 522Q162 540 172 564T193 612T214 658T230 694Q245 726 255 738T283 751Q295 751 306 746T326 732T340 715T345 699Z"  />
<glyph unicode="&#xB5;" horiz-adv-x="625" d="M608 47Q608 43 608 37T606 28Q586 26 559 21T497 8Q465 0 440 -6T402 -12Q393 -12 392 -9L393 45Q391 47 384 47Q346 19 310 1T222 -18Q198 -18 182 -10Q178 -10 175 -15Q180 -46 190 -69T210 -112T227 -151T235 -193Q235 -235 212 -256T155 -278Q122 -278 98 -257T74 -193V331Q74 363 72 375T57 391L36 397Q28 399 26 403T24 416Q24 425 26 433Q45 435 69 438T128 449Q164 457 186 462T224 468Q232 468 234 465Q233 427 233 397T232 333V176Q232 157 234 139T250 105Q274 77 316 77Q335 77 349 82T375 93Q382 97 384 102T387 124V330Q387 362 385 375T369 390L327 397Q319 399 318 403T316 415Q316 425 318 433Q338 435 369 437T438 448Q476 456 499 462T538 468Q546 468 548 465Q547 427 547 397T546 333V110Q546 84 550 75T565 66L593 67Q601 68 604 64T608 47Z"  />
<glyph unicode="&#xB6;" horiz-adv-x="675" d="M655 -243Q655 -248 654 -253T652 -263Q614 -262 579 -261T507 -260V614H460V-260Q423 -260 378 -261T295 -263Q294 -259 293 -254T292 -243Q292 -225 305 -224L354 -218Q363 -217 369 -212T379 -197T384 -169T386 -125V64Q386 93 384 120T379 159Q364 157 348 157Q332 157 315 157Q249 157 196 180T106 240T48 327T28 427Q28 484 48 531T105 613T196 666T316 685Q337 685 364 684T420 682T474 679T519 678Q556 678 585 679T652 681Q653 677 654 672T655 661Q655 645 642 642L606 636Q597 634 592 629T584 614T582 586T581 543V-125Q581 -151 581 -168T584 -195T591 -211T606 -218L642 -224Q655 -227 655 -243Z"  />
<glyph unicode="&#xB7;" horiz-adv-x="257" d="M226 277Q226 236 200 209T130 181Q87 181 59 207T31 275Q31 316 58 344T128 372Q171 372 198 345T226 277Z"  />
<glyph unicode="&#xB8;" horiz-adv-x="500" d="M336 5Q319 -10 305 -25T290 -52Q290 -62 298 -73T317 -99T335 -129T344 -165Q344 -188 334 -208T307 -244T268 -269T224 -278Q218 -278 209 -278T192 -275T177 -268T171 -254Q171 -249 172 -242T177 -229T184 -218T196 -213Q210 -213 221 -222T247 -232Q267 -232 267 -211Q267 -199 257 -187T236 -161T214 -135T204 -106Q204 -89 215 -72T242 -38T278 -5T315 26L336 5H336Z"  />
<glyph unicode="&#xB9;" horiz-adv-x="324" d="M304 217Q304 207 303 202Q275 203 241 203T180 204Q168 204 151 204Q134 204 117 204T82 203T50 202Q49 206 49 209T48 217Q48 231 60 233L102 237Q109 238 112 244T117 259T119 278Q119 288 119 297V525Q119 535 114 540T96 540L33 519Q31 521 29 526T24 536Q22 541 22 547T27 556L139 602Q149 606 161 612T187 623T211 633T231 637Q236 637 237 637T243 634Q242 625 242 613T241 589Q241 577 241 566Q241 555 241 549V297Q241 288 241 278Q241 268 242 259T247 244T258 237L293 233Q300 232 302 228T304 217Z"  />
<glyph unicode="&#xBA;" horiz-adv-x="410" d="M268 377Q268 403 265 427T253 469T233 498T203 509Q184 509 172 499T154 470T145 429T142 379Q142 353 145 329T157 287T177 258T207 247Q226 247 237 257T256 286T265 327T268 377ZM399 380Q399 341 386 309T348 253T288 216T208 203Q164 203 128 215T67 249T27 304T12 376Q12 415 25 447T63 504T123 541T202 554Q245 554 281 542T344 508T384 453T399 380Z"  />
<glyph unicode="&#xBB;" horiz-adv-x="478" d="M256 249Q237 228 211 201T156 147T100 96T54 55Q46 53 36 58T24 73Q30 89 40 112T63 159T87 207T109 249V259Q99 277 87 300T63 348T41 396T24 435Q26 445 36 450T54 453Q73 437 100 413T155 361T210 307T256 259Q257 256 256 249ZM453 249Q434 228 408 201T353 147T297 96T251 55Q243 53 233 58T221 73Q227 89 237 112T260 159T284 207T306 249V259Q296 277 284 300T260 348T238 396T221 435Q223 445 233 450T251 453Q270 437 297 413T352 361T407 307T453 259Q454 256 453 249Z"  />
<glyph unicode="&#xBC;" horiz-adv-x="814" d="M621 294H619L518 151V149H619Q620 150 620 150Q620 151 621 152V294ZM317 217Q317 207 316 202Q288 203 254 203T193 204Q181 204 164 204Q147 204 130 204T95 203T63 202Q62 206 62 209T61 217Q61 231 73 233L115 237Q122 238 125 244T130 259T132 278Q132 288 132 297V525Q132 535 127 540T109 540L45 519Q43 521 41 526T36 536Q34 541 34 547Q34 554 40 556L152 602Q162 606 174 612T200 623T224 633T244 637Q249 637 250 637T255 634Q254 625 254 613T253 589Q253 577 253 566Q253 555 253 549V297Q253 288 253 278Q253 268 254 259T259 244T270 237L306 233Q313 232 315 228T317 217ZM262 -28Q258 -27 252 -24T239 -16T226 -8T217 -1L614 647Q618 645 624 642T637 635T650 627T659 620L262 -28ZM795 114Q795 106 795 95Q795 84 790 81H745Q742 78 742 77V-33Q741 -35 735 -36T719 -38T700 -39Q690 -39 683 -39Q675 -39 665 -39Q655 -39 646 -39T629 -37T621 -33V77Q621 79 619 81H534Q511 81 492 80T449 78Q448 81 447 88T446 104Q446 113 446 121T448 133Q457 142 472 160T502 200L599 338Q618 364 633 387T659 428Q663 429 675 429T701 430Q715 430 727 430T744 428Q743 407 743 387T742 343V152L745 149H790Q795 146 795 134Q795 122 795 114Z"  />
<glyph unicode="&#xBD;" horiz-adv-x="871" d="M317 217Q317 207 316 202Q288 203 254 203T193 204Q181 204 164 204Q147 204 130 204T95 203T63 202Q62 206 62 209T61 217Q61 231 73 233L115 237Q122 238 125 244T130 259T132 278Q132 288 132 297V525Q132 535 127 540T109 540L45 519Q43 521 41 526T36 536Q34 541 34 547Q34 554 40 556L152 602Q162 606 174 612T200 623T224 633T244 637Q249 637 250 637T255 634Q254 625 254 613T253 589Q253 577 253 566Q253 555 253 549V297Q253 288 253 278Q253 268 254 259T259 244T270 237L306 233Q313 232 315 228T317 217ZM262 -28Q258 -27 252 -24T239 -16T226 -8T217 -1L614 647Q618 645 624 642T637 635T650 627T659 620L262 -28ZM860 117Q858 107 856 92T851 61T846 29T842 5Q841 3 835 -1Q831 -1 812 -1T767 0Q742 0 717 0Q692 0 677 0Q659 0 637 0Q615 0 595 0T557 -1T532 -2Q531 1 530 7T529 20T528 35Q528 43 529 47Q556 67 585 91T638 145T678 207T694 279Q694 311 676 335T618 359Q595 359 580 350T552 326Q548 328 545 331T540 336Q535 341 535 346Q535 352 544 362Q572 394 606 413T686 433Q713 433 737 424T780 399T809 361T820 311Q820 276 801 243T753 181T694 126T637 82V81H763Q795 81 807 87T827 110Q829 115 833 118T845 120Q850 120 853 119T860 117Z"  />
<glyph unicode="&#xBE;" horiz-adv-x="815" d="M623 294H621L519 151V149H621Q622 150 622 150Q622 151 623 152V294ZM324 330Q324 287 304 256T253 203T182 172T104 161Q60 161 32 174T4 207Q4 214 7 222T15 238T28 251T43 256Q53 256 61 248T79 231T99 213T127 205Q144 205 157 213T179 234T193 265T198 302Q198 339 181 363T128 388Q117 388 105 386T88 382Q76 380 71 384T64 397Q63 400 62 404T60 413Q84 418 104 426T140 445T165 471T174 507Q174 533 159 549T120 565Q103 565 90 558T65 539Q62 541 59 543T53 548Q48 555 48 559Q48 564 56 574Q79 602 111 620T188 638Q210 638 230 631T265 611T289 581T298 543Q298 522 289 506T266 477T235 455T199 440V438Q224 439 247 432T287 411T314 376T324 330ZM264 -28Q260 -27 254 -24T241 -16T228 -8T219 -1L616 647Q620 645 626 642T639 635T651 627T660 620L264 -28ZM797 114Q797 106 797 95T791 81H746Q744 79 744 77V-33Q743 -35 736 -36T720 -38T701 -39Q691 -39 684 -39Q676 -39 666 -39Q656 -39 647 -39T631 -37T623 -33V77Q623 79 621 81H536Q513 81 494 80T450 78Q449 81 448 88T447 104Q447 113 447 121T449 133Q458 142 473 160T503 200L601 338Q620 364 635 387T660 428Q664 429 676 429T702 430Q717 430 729 430T746 428Q745 407 745 387T744 343V152Q745 151 745 150Q745 150 746 149H791Q796 146 796 134T797 114Z"  />
<glyph unicode="&#xBF;" horiz-adv-x="250" d="M209 55Q209 18 198 3T165 -13Q132 -13 105 -1T57 34T25 88T13 158Q13 210 31 244T96 285Q125 289 131 296T140 311Q142 317 143 321T146 328Q149 331 153 331T166 332Q173 332 180 332Q187 332 192 331Q194 314 196 287T198 234Q198 210 193 197T177 176T148 167T107 162Q82 160 72 156T61 141Q61 123 91 123Q111 123 129 125T168 128Q189 128 199 111T209 55ZM237 423Q237 391 217 370T162 348Q129 348 108 369T86 422Q86 454 106 475T161 496Q194 496 215 476T237 423Z"  />
<glyph unicode="&#xC0;" horiz-adv-x="733" d="M301 542H297L220 294Q221 290 226 287H381Q386 290 387 294L301 542ZM730 16Q730 11 729 6T727 -3Q709 -3 688 -3T644 -2T602 -1T563 0Q545 0 524 0T479 -1T434 -2T393 -3Q392 1 391 6T390 16Q390 25 392 29T402 36L432 41Q462 45 462 65Q462 71 460 81T453 105T444 131T435 156L412 221Q409 226 404 227H205Q201 226 198 221L177 156Q142 50 201 41L233 36Q241 34 243 30T245 16Q245 11 244 6T242 -3Q223 -3 209 -3T181 -2T153 -1T121 0Q104 0 91 0T65 -1T38 -2T6 -3Q5 1 4 6T3 16Q3 25 5 29T15 36L29 39Q39 41 47 47T64 67T80 102T100 157L238 565Q241 574 243 585T246 605Q246 607 246 610Q246 613 245 615Q248 623 254 627T270 636T295 647T331 664Q350 674 361 681T381 694T394 703T408 706Q418 706 426 698Q435 663 447 629T479 545L630 157Q643 124 652 103T668 68T683 49T701 40L717 36Q730 33 730 16ZM376 729Q378 723 374 716T363 706Q345 712 322 720T275 737T226 756T180 776Q166 783 157 789T143 806Q140 812 141 822T146 844T159 865T178 880Q192 887 207 880T249 850Q259 841 275 826T309 793T344 759T376 729Z"  />
<glyph unicode="&#xC1;" horiz-adv-x="733" d="M307 547H303L222 293Q223 290 228 287H391Q396 290 397 293L307 547ZM735 16Q735 11 734 6T732 -3Q695 -2 651 -1T572 0Q554 0 533 0T490 -1T447 -2T407 -3Q406 1 405 6T404 16Q404 32 417 35L447 41Q463 44 469 49T476 65Q476 71 473 81T466 105T456 131T447 156L423 222Q420 227 415 228H206Q201 227 198 222L177 156Q142 50 198 41L231 35Q239 33 240 29T242 16Q242 7 240 -3Q222 -3 207 -3T178 -2T150 -1T118 0Q101 0 88 0T63 -1T38 -2T6 -3Q5 1 4 6T3 16Q3 25 5 29T15 35L29 38Q39 40 47 47T64 67T82 102T103 157L243 565Q246 574 249 585T253 605Q253 612 252 615Q255 623 260 627T274 635T296 645T331 662Q350 672 361 680T381 694T394 703T408 706Q417 706 425 698Q434 663 446 629T478 545L633 157Q646 124 655 103T673 68T689 48T707 39L722 35Q735 32 735 16ZM546 805Q538 788 510 775Q489 765 466 756T419 737T373 720T332 706Q325 708 321 715T318 729Q331 742 348 758T383 791T416 823T443 847Q469 869 483 876T512 877Q522 872 530 863T542 842T548 821T546 805Z"  />
<glyph unicode="&#xC2;" horiz-adv-x="733" d="M301 542H297L220 294Q221 290 226 287H381Q386 290 387 294L301 542ZM730 16Q730 11 729 6T727 -3Q709 -3 688 -3T644 -2T602 -1T563 0Q545 0 524 0T479 -1T434 -2T393 -3Q392 1 391 6T390 16Q390 25 392 29T402 36L432 41Q448 44 455 49T462 65Q462 71 459 81T452 105T444 131T435 156L412 221Q409 226 404 227H205Q201 226 198 221L177 156Q143 50 201 41L233 36Q241 34 243 30T245 16Q245 11 244 6T242 -3Q224 -3 209 -3T181 -2T153 -1T121 0Q104 0 91 0T65 -1T38 -2T6 -3Q5 1 4 6T3 16Q3 25 5 29T15 36L29 39Q39 41 47 47T63 67T80 102T100 157L238 565Q241 574 243 585T246 605Q246 612 245 615Q248 623 254 627T270 636T295 647T331 664Q350 674 361 681T381 694T394 703T408 706Q418 706 426 698Q435 663 447 629T479 545L630 157Q643 124 652 102T668 67T683 48T701 40L717 36Q730 33 730 16ZM521 728Q524 722 519 714T506 705Q491 712 472 722T432 743T390 765T352 787Q349 789 346 789T340 787Q323 777 303 766T261 743T221 722T187 705Q180 705 175 713T172 728Q186 742 203 760T238 795T271 829T297 855Q310 868 321 876T346 885Q360 885 370 877T395 855Q405 845 421 829T454 796T489 760T521 728Z"  />
<glyph unicode="&#xC3;" horiz-adv-x="733" d="M530 835Q530 791 502 761T428 730Q399 730 371 741T319 766T276 791T246 803Q235 803 229 798T222 781Q222 774 225 771T231 764T238 756T241 745Q241 733 233 728T214 722Q194 722 186 739T177 774Q177 818 205 848T279 878Q308 878 336 867T388 842T431 817T461 806Q472 806 478 811T485 828Q485 835 482 838T476 845T469 852T466 863Q466 875 474 881T493 887Q513 887 521 870T530 835ZM301 542H297L220 294Q221 290 226 287H381Q386 290 387 294L301 542ZM730 16Q730 11 729 6T727 -3Q709 -3 688 -3T644 -2T602 -1T563 0Q545 0 524 0T479 -1T434 -2T393 -3Q392 1 391 6T390 16Q390 25 392 29T402 36L432 41Q448 44 455 49T462 65Q462 71 459 81T452 105T444 131T435 156L412 221Q409 226 404 227H205Q201 226 198 221L177 156Q143 50 201 41L233 36Q241 34 243 30T245 16Q245 11 244 6T242 -3Q224 -3 209 -3T181 -2T153 -1T121 0Q104 0 91 0T65 -1T38 -2T6 -3Q5 1 4 6T3 16Q3 25 5 29T15 36L29 39Q39 41 47 47T63 67T80 102T100 157L238 565Q241 574 243 585T246 605Q246 612 245 615Q248 623 254 627T270 636T295 647T331 664Q350 674 361 681T381 694T394 703T408 706Q418 706 426 698Q435 663 447 629T479 545L630 157Q643 124 652 102T668 67T683 48T701 40L717 36Q730 33 730 16Z"  />
<glyph unicode="&#xC4;" horiz-adv-x="733" d="M340 801Q340 769 321 749T269 728Q237 728 217 748T197 800Q197 832 216 853T268 875Q300 875 320 854T340 801ZM535 801Q535 769 516 749T465 728Q433 728 413 748T392 800Q392 832 411 853T463 875Q495 875 515 854T535 801ZM301 542H297L220 294Q221 290 226 287H381Q386 290 387 294L301 542ZM730 16Q730 11 729 6T727 -3Q709 -3 688 -3T644 -2T602 -1T563 0Q545 0 524 0T479 -1T434 -2T393 -3Q392 1 391 6T390 16Q390 25 392 29T402 36L432 41Q448 44 455 49T462 65Q462 71 459 81T452 105T444 131T435 156L412 221Q409 226 404 227H205Q201 226 198 221L177 156Q143 50 201 41L233 36Q241 34 243 30T245 16Q245 11 244 6T242 -3Q224 -3 209 -3T181 -2T153 -1T121 0Q104 0 91 0T65 -1T38 -2T6 -3Q5 1 4 6T3 16Q3 25 5 29T15 36L29 39Q39 41 47 47T63 67T80 102T100 157L238 565Q241 574 243 585T246 605Q246 612 245 615Q248 623 254 627T270 636T295 647T331 664Q350 674 361 681T381 694T394 703T408 706Q418 706 426 698Q435 663 447 629T479 545L630 157Q643 124 652 102T668 67T683 48T701 40L717 36Q730 33 730 16Z"  />
<glyph unicode="&#xC5;" horiz-adv-x="733" d="M412 823Q412 851 401 873T362 896Q333 896 324 874T315 823Q315 795 326 773T365 750Q394 750 403 772T412 823ZM487 824Q487 775 455 744T365 712Q309 712 275 741T241 822Q241 871 272 902T361 933Q417 933 452 904T487 824ZM301 542H297L220 294Q221 290 226 287H381Q386 290 387 294L301 542ZM730 16Q730 11 729 6T727 -3Q709 -3 688 -3T644 -2T602 -1T563 0Q545 0 524 0T479 -1T434 -2T393 -3Q392 1 391 6T390 16Q390 25 392 29T402 36L432 41Q448 44 455 49T462 65Q462 71 459 81T452 105T444 131T435 156L412 221Q409 226 404 227H205Q201 226 198 221L177 156Q143 50 201 41L233 36Q241 34 243 30T245 16Q245 11 244 6T242 -3Q224 -3 209 -3T181 -2T153 -1T121 0Q104 0 91 0T65 -1T38 -2T6 -3Q5 1 4 6T3 16Q3 25 5 29T15 36L29 39Q39 41 47 47T63 67T80 102T100 157L238 565Q241 574 243 585T246 605Q246 612 245 615Q248 623 254 627T270 636T295 647T331 664Q350 674 361 681T381 694T394 703T408 706Q418 706 426 698Q435 663 447 629T479 545L630 157Q643 124 652 102T668 67T683 48T701 40L717 36Q730 33 730 16Z"  />
<glyph unicode="&#xC6;" horiz-adv-x="962" d="M435 604H431L298 353Q300 348 304 345H429Q434 348 435 352V604ZM944 160Q933 125 925 84T911 5Q909 2 903 -2Q895 0 853 0Q812 0 740 0H504Q485 0 465 0T426 -1T391 -2T364 -3Q363 1 362 6T361 16Q361 25 363 29T373 36L409 42Q428 45 431 64T435 135V281Q434 284 429 287H269Q264 287 261 283L194 157Q168 108 172 77T209 41L242 36Q250 34 252 30T254 16Q254 11 253 6T251 -3Q233 -3 218 -3T190 -2T162 -1T131 0Q96 0 68 -1T3 -3Q2 1 1 6T0 16Q0 25 2 29T12 36L21 38Q31 41 40 48T59 68T82 103T113 157L313 521Q340 571 333 601T296 637L264 643Q251 646 251 662Q251 667 252 672T254 681Q291 680 318 679T381 678H697Q767 678 803 678Q840 678 850 680Q858 676 859 673Q864 638 868 598T879 520Q874 518 869 517T858 514Q841 511 836 525L827 549Q818 570 808 583T782 604T744 615T691 618H626Q621 612 618 592T614 525V361Q615 357 620 354H671Q729 354 750 362T773 389L776 418Q777 431 794 431Q799 431 804 430T814 428Q813 402 813 376T812 326Q812 302 812 279T814 228Q804 226 794 226Q785 226 782 227T776 237L773 259Q771 268 766 275T750 286T719 292T671 294H620Q615 291 614 287V170Q614 136 616 115T625 81T640 65T664 60H741Q774 60 795 63T832 74T859 95T884 130L900 156Q905 163 909 165T924 166Q937 163 944 160Z"  />
<glyph unicode="&#xC7;" horiz-adv-x="724" d="M675 195Q672 176 669 154L664 110Q662 88 660 67T655 28Q654 26 652 24T647 20Q597 2 543 -8Q506 -15 463 -17Q459 -21 455 -25Q441 -41 441 -52Q441 -62 449 -73T468 -99T486 -129T495 -165Q495 -188 485 -208T458 -244T419 -269T375 -278Q369 -278 360 -278T343 -275T328 -268T322 -254Q322 -249 323 -242T328 -229T335 -218T347 -213Q361 -213 372 -222T398 -232Q418 -232 418 -211Q418 -199 408 -187T387 -161T365 -135T355 -106Q355 -89 366 -72T393 -37Q403 -28 414 -18Q338 -16 271 7Q198 33 144 80T57 194T25 342Q25 430 57 496T145 607T272 674T424 697Q481 697 536 688T645 659Q647 657 649 655T653 651Q655 616 658 569T665 484Q660 483 655 482T643 480Q633 480 629 482T622 492Q603 568 554 601T439 635Q381 635 340 614T271 557T232 470T219 363Q219 291 237 233T287 132T364 67T463 44Q534 44 572 82T632 188Q634 196 639 198T654 199Q668 197 675 195Z"  />
<glyph unicode="&#xC8;" horiz-adv-x="628" d="M617 162Q606 127 598 85T584 5Q582 2 576 -2Q568 0 526 0Q485 0 413 0H170Q151 0 131 0T91 -1T56 -2T29 -3Q27 7 27 16Q27 25 29 29T39 36L75 42Q94 45 97 64T101 135V543Q101 595 98 614T75 636L39 642Q31 644 29 648T27 662Q27 671 29 681Q38 680 53 680T87 679T126 678Q146 678 164 678H370Q440 678 476 678Q513 678 523 680Q531 676 532 673Q537 638 542 600T553 523Q548 521 543 520T532 517Q522 515 518 517T510 528L500 549Q490 570 480 583T454 604T417 615T364 618H292Q287 612 284 592T280 525V388Q281 384 286 381H344Q402 381 423 389T446 416L449 441Q450 454 468 454Q473 454 478 453T488 451Q487 425 486 399T485 349Q485 325 486 299T488 246Q478 244 468 244Q459 244 455 246T449 256L446 286Q444 305 423 313T344 321H286Q281 318 280 314V170Q280 136 282 115T291 81T306 65T330 60H414Q447 60 468 63T505 75T532 97T557 132L573 159Q578 167 582 168T597 168Q610 165 617 162ZM370 729Q372 722 368 715T357 706Q339 712 316 720T269 737T220 756T174 776Q159 783 151 789T138 806Q135 812 136 822T141 844T153 865T172 880Q186 887 201 880T243 850Q253 841 269 826T304 793T339 759T370 729Z"  />
<glyph unicode="&#xC9;" horiz-adv-x="628" d="M617 162Q606 127 598 85T584 5Q582 2 576 -2Q568 0 526 0Q485 0 413 0H170Q151 0 131 0T91 -1T56 -2T29 -3Q27 7 27 16Q27 25 29 29T39 36L75 42Q94 45 97 64T101 135V543Q101 595 98 614T75 636L39 642Q31 644 29 648T27 662Q27 671 29 681Q38 680 53 680T87 679T126 678Q146 678 164 678H370Q440 678 476 678Q513 678 523 680Q531 676 532 673Q537 638 542 600T553 523Q548 521 543 520T532 517Q522 515 518 517T510 528L500 549Q490 570 480 583T454 604T417 615T364 618H292Q287 612 284 592T280 525V388Q281 384 286 381H344Q402 381 423 389T446 416L449 441Q450 454 468 454Q473 454 478 453T488 451Q487 425 486 399T485 349Q485 325 486 299T488 246Q478 244 468 244Q459 244 455 246T449 256L446 286Q444 305 423 313T344 321H286Q281 318 280 314V170Q280 136 282 115T291 81T306 65T330 60H414Q447 60 468 63T505 75T532 97T557 132L573 159Q578 167 582 168T597 168Q610 165 617 162ZM491 806Q486 795 478 789T455 776Q434 766 410 756T361 737T313 720T272 706Q265 708 261 715T258 729Q271 742 289 759T325 793T359 825T386 850Q412 873 427 880T456 880Q467 875 474 866T486 845T492 823T491 806Z"  />
<glyph unicode="&#xCA;" horiz-adv-x="628" d="M617 162Q606 127 598 85T584 5Q582 2 576 -2Q568 0 526 0Q485 0 413 0H170Q151 0 131 0T91 -1T56 -2T29 -3Q27 7 27 16Q27 25 29 29T39 36L75 42Q94 45 97 64T101 135V543Q101 595 98 614T75 636L39 642Q31 644 29 648T27 662Q27 671 29 681Q38 680 53 680T87 679T126 678Q146 678 164 678H370Q440 678 476 678Q513 678 523 680Q531 676 532 673Q537 638 542 600T553 523Q548 521 543 520T532 517Q522 515 518 517T510 528L500 549Q490 570 480 583T454 604T417 615T364 618H292Q287 612 284 592T280 525V388Q281 384 286 381H344Q402 381 423 389T446 416L449 441Q450 454 468 454Q473 454 478 453T488 451Q487 425 486 399T485 349Q485 325 486 299T488 246Q478 244 468 244Q459 244 455 246T449 256L446 286Q444 305 423 313T344 321H286Q281 318 280 314V170Q280 136 282 115T291 81T306 65T330 60H414Q447 60 468 63T505 75T532 97T557 132L573 159Q578 167 582 168T597 168Q610 165 617 162ZM472 727Q475 721 470 713T457 705Q443 712 424 722T385 742T345 764T307 785Q304 787 301 787T295 785Q278 775 258 764T217 743T178 722T145 705Q138 705 133 713T131 727Q144 741 161 759T196 794T228 826T253 852Q266 865 276 873T301 881Q315 881 325 874T349 852Q359 842 374 827T406 794T441 759T472 727Z"  />
<glyph unicode="&#xCB;" horiz-adv-x="628" d="M264 801Q264 769 245 749T193 728Q161 728 141 748T121 800Q121 832 140 853T192 875Q224 875 244 854T264 801ZM459 801Q459 769 440 749T389 728Q357 728 337 748T316 800Q316 832 335 853T387 875Q419 875 439 854T459 801ZM610 162Q599 127 591 85T577 5Q575 2 569 -2Q561 0 519 0Q478 0 406 0H170Q151 0 131 0T91 -1T56 -2T29 -3Q27 7 27 16Q27 25 29 29T39 36L75 42Q94 45 97 64T101 135V543Q101 595 98 614T75 636L39 642Q31 644 29 648T27 662Q27 671 29 681Q38 680 53 680T87 679T126 678Q146 678 164 678H363Q433 678 469 678Q506 678 516 680Q524 676 525 673Q530 638 534 600T545 523Q540 521 536 520T525 517Q515 515 511 517T502 528L493 549Q483 570 473 583T447 604T410 615T357 618H292Q287 612 284 592T280 525V388Q281 384 286 381H336Q394 381 415 389T438 416L442 441Q443 454 460 454Q465 454 470 453T480 451Q479 425 479 399T478 349Q478 325 478 299T480 246Q470 244 460 244Q451 244 447 246T442 256L438 286Q436 305 415 313T336 321H286Q281 318 280 314V170Q280 136 282 115T291 81T306 65T330 60H407Q440 60 461 63T498 75T525 97T550 132L566 159Q571 167 575 168T590 168Q603 165 610 162Z"  />
<glyph unicode="&#xCC;" horiz-adv-x="389" d="M358 16Q358 7 356 -3Q318 -2 276 -1T196 0Q159 0 115 -1T33 -3Q31 7 31 16Q31 25 33 29T43 36L79 42Q98 45 101 64T105 135V543Q105 595 102 614T79 636L43 642Q35 644 33 648T31 662Q31 671 33 681Q71 680 113 679T193 678Q230 678 274 679T356 681Q358 671 358 662Q358 653 356 649T346 642L310 636Q301 634 296 629T288 614T286 586T285 543V135Q285 109 285 92T288 65T295 49T310 42L346 36Q354 34 356 30T358 16ZM230 729Q232 722 228 715T216 705Q198 711 175 719T128 736T79 754T34 774Q20 781 12 787T-2 804Q-5 810 -4 820T1 842T13 863T32 878Q46 885 61 878T102 848Q112 839 128 824T163 792T199 759T230 729Z"  />
<glyph unicode="&#xCD;" horiz-adv-x="389" d="M358 16Q358 7 356 -3Q318 -2 276 -1T196 0Q159 0 115 -1T33 -3Q31 7 31 16Q31 25 33 29T43 36L79 42Q98 45 101 64T105 135V543Q105 595 102 614T79 636L43 642Q35 644 33 648T31 662Q31 671 33 681Q71 680 113 679T193 678Q230 678 274 679T356 681Q358 671 358 662Q358 653 356 649T346 642L310 636Q301 634 296 629T288 614T286 586T285 543V135Q285 109 285 92T288 65T295 49T310 42L346 36Q354 34 356 30T358 16ZM386 804Q381 793 373 787T350 774Q329 764 305 755T256 736T208 719T167 705Q160 707 156 714T154 729Q167 742 184 758T220 792T254 824T281 848Q307 871 322 878T351 878Q362 873 369 864T381 843T387 821T386 804Z"  />
<glyph unicode="&#xCE;" horiz-adv-x="389" d="M358 16Q358 7 356 -3Q318 -2 276 -1T196 0Q159 0 115 -1T33 -3Q31 7 31 16Q31 25 33 29T43 36L79 42Q98 45 101 64T105 135V543Q105 595 102 614T79 636L43 642Q35 644 33 648T31 662Q31 671 33 681Q71 680 113 679T193 678Q230 678 274 679T356 681Q358 671 358 662Q358 653 356 649T346 642L310 636Q301 634 296 629T288 614T286 586T285 543V135Q285 109 285 92T288 65T295 49T310 42L346 36Q354 34 356 30T358 16ZM367 728Q370 722 365 714T352 705Q337 712 318 722T278 743T236 765T198 787Q192 790 187 787Q170 777 149 766T107 743T67 722T33 705Q26 705 21 713T18 728Q32 742 49 760T84 795T117 829T143 855Q156 868 167 876T193 885Q207 885 217 877T242 855Q252 845 267 829T300 796T335 760T367 728Z"  />
<glyph unicode="&#xCF;" horiz-adv-x="389" d="M178 806Q178 774 159 754T107 733Q75 733 55 753T35 805Q35 837 54 858T106 880Q138 880 158 859T178 806ZM373 806Q373 774 354 754T303 733Q271 733 251 753T230 805Q230 837 249 858T301 880Q333 880 353 859T373 806ZM358 16Q358 7 356 -3Q318 -2 276 -1T196 0Q159 0 115 -1T33 -3Q31 7 31 16Q31 25 33 29T43 36L79 42Q98 45 101 64T105 135V543Q105 595 102 614T79 636L43 642Q35 644 33 648T31 662Q31 671 33 681Q71 680 113 679T193 678Q230 678 274 679T356 681Q358 671 358 662Q358 653 356 649T346 642L310 636Q301 634 296 629T288 614T286 586T285 543V135Q285 109 285 92T288 65T295 49T310 42L346 36Q354 34 356 30T358 16Z"  />
<glyph unicode="&#xD0;" horiz-adv-x="808" d="M589 325Q589 404 572 461T525 555T455 609T370 627Q349 627 326 624T289 616Q287 613 286 609T283 595T282 571T281 531V394Q283 392 283 391T286 387H450Q452 373 452 354T451 318H287Q283 316 281 312V172Q281 138 283 117T292 83T307 67T331 62H393Q427 62 462 75T525 120T571 201T589 325ZM783 343Q783 274 759 212T686 101Q637 51 569 26T417 0H171Q152 0 132 0T92 -1T56 -2T29 -3Q27 7 27 16Q27 25 29 29T39 36L75 42Q94 45 97 64T101 135V312Q99 314 99 315T96 318H28Q26 332 26 351T27 387H94Q98 390 101 394V544Q101 596 98 615T75 637L39 643Q31 645 29 649T27 662Q27 672 29 682Q38 681 53 681T88 680T126 679T162 678Q222 678 277 684T398 690Q485 690 559 667T688 589Q733 544 758 483T783 343Z"  />
<glyph unicode="&#xD1;" horiz-adv-x="801" d="M577 840Q577 796 549 766T475 735Q446 735 418 746T366 771T323 796T293 808Q282 808 276 803T269 786Q269 779 272 776T278 769T285 761T288 750Q288 738 280 733T261 727Q241 727 233 744T224 779Q224 823 252 853T326 883Q355 883 383 872T435 847T478 822T508 811Q519 811 525 816T532 833Q532 840 529 843T523 850T516 857T513 868Q513 880 521 886T540 892Q560 892 568 875T577 840ZM786 662Q786 645 773 642L739 636Q726 634 718 626T706 599T700 549T698 470V206Q698 140 701 83T708 -8Q701 -9 689 -10T662 -11Q648 -11 632 -11Q617 -11 603 -11Q595 -11 592 -8T584 0Q577 11 562 32T523 80L191 478H189L193 246Q194 186 196 148T205 88T223 56T252 43L295 36Q303 34 305 30T307 16Q307 11 306 6T304 -3Q266 -2 234 -1T164 0Q128 0 96 -1T25 -3Q24 1 23 6T22 16Q22 33 35 36L70 42Q83 44 90 52T102 79T108 129T110 208V542Q110 564 107 580T93 610Q82 624 71 629T45 636L18 640Q5 641 5 660Q5 665 6 671T8 681Q44 679 73 679T134 678Q170 678 201 679T265 681Q271 680 276 676Q289 655 313 622T366 554L616 252H618L616 432Q615 492 613 530T604 590T586 622T557 635L514 642Q501 645 501 662Q501 667 502 672T504 681Q542 680 575 679T645 678Q681 678 713 679T783 681Q784 677 785 672T786 662Z"  />
<glyph unicode="&#xD2;" horiz-adv-x="809" d="M591 320Q591 374 580 430T545 533T484 609T394 639Q344 639 311 614T257 549T227 458T218 357Q218 303 229 247T264 145T325 69T416 39Q466 39 499 64T553 129T582 219T591 320ZM784 337Q784 258 756 193T678 81T559 8T406 -18Q324 -18 255 9T134 83T54 196T25 340Q25 419 53 484T131 597T250 671T403 697Q485 697 554 670T675 595T755 481T784 337ZM445 729Q447 723 443 715T431 705Q413 711 390 719T343 736T294 754T249 774Q235 781 227 787T213 804Q210 810 211 820T216 842T229 863T248 878Q262 885 277 878T318 848Q328 839 344 824T379 793T414 759T445 729Z"  />
<glyph unicode="&#xD3;" horiz-adv-x="809" d="M591 320Q591 374 580 430T545 533T484 609T394 639Q344 639 311 614T257 549T227 459T218 357Q218 303 229 247T264 144T325 69T416 39Q465 39 499 64T553 128T582 218T591 320ZM784 337Q784 258 756 193T678 81T559 8T406 -18Q324 -18 255 9T134 83T54 196T25 340Q25 419 53 484T131 597T250 671T403 697Q485 697 554 670T675 595T755 481T784 337ZM590 804Q585 793 577 787T554 774Q533 764 509 755T460 736T412 719T371 705Q364 707 360 714T358 729Q371 742 388 758T424 792T458 824T485 848Q511 871 526 878T555 878Q566 873 573 864T585 843T591 821T590 804Z"  />
<glyph unicode="&#xD4;" horiz-adv-x="809" d="M591 320Q591 374 580 430T545 533T484 609T394 639Q344 639 311 614T257 549T227 459T218 357Q218 303 229 247T264 144T325 69T416 39Q465 39 499 64T553 128T582 218T591 320ZM784 337Q784 258 756 193T678 81T559 8T406 -18Q324 -18 255 9T134 83T54 196T25 340Q25 419 53 484T131 597T250 671T403 697Q485 697 554 670T675 595T755 481T784 337ZM575 728Q578 722 573 714T560 705Q545 712 526 722T486 743T444 765T406 787Q403 789 400 789T394 787Q377 777 356 766T314 743T274 722T240 705Q233 705 228 713T225 728Q239 742 256 760T291 795T325 829T351 855Q364 868 375 876T400 885Q414 885 424 877T449 855Q459 845 475 829T508 796T543 760T575 728Z"  />
<glyph unicode="&#xD5;" horiz-adv-x="809" d="M580 835Q580 791 552 761T478 730Q449 730 421 741T369 766T326 791T296 803Q285 803 279 798T272 781Q272 774 275 771T281 764T288 756T291 745Q291 733 283 728T264 722Q244 722 236 739T227 774Q227 818 255 848T329 878Q358 878 386 867T438 842T481 817T511 806Q522 806 528 811T535 828Q535 835 532 838T526 845T519 852T516 863Q516 875 524 881T543 887Q563 887 571 870T580 835ZM591 320Q591 374 580 430T545 533T484 609T394 639Q344 639 311 614T257 549T227 459T218 357Q218 303 229 247T264 144T325 69T416 39Q465 39 499 64T553 128T582 218T591 320ZM784 337Q784 258 756 193T678 81T559 8T406 -18Q324 -18 255 9T134 83T54 196T25 340Q25 419 53 484T131 597T250 671T403 697Q485 697 554 670T675 595T755 481T784 337Z"  />
<glyph unicode="&#xD6;" horiz-adv-x="809" d="M377 801Q377 769 358 749T306 728Q274 728 254 748T234 800Q234 832 253 853T305 875Q337 875 357 854T377 801ZM572 801Q572 769 553 749T502 728Q470 728 450 748T429 800Q429 832 448 853T500 875Q532 875 552 854T572 801ZM591 320Q591 374 580 430T545 533T484 609T394 639Q344 639 311 614T257 549T227 459T218 357Q218 303 229 247T264 144T325 69T416 39Q465 39 499 64T553 128T582 218T591 320ZM784 337Q784 258 756 193T678 81T559 8T406 -18Q324 -18 255 9T134 83T54 196T25 340Q25 419 53 484T131 597T250 671T403 697Q485 697 554 670T675 595T755 481T784 337Z"  />
<glyph unicode="&#xD7;" horiz-adv-x="500" d="M423 9L249 182L76 8L24 63L198 235L24 408L76 464L250 291L424 464L476 410L302 236L475 63L423 9Z"  />
<glyph unicode="&#xD8;" horiz-adv-x="809" d="M592 320Q592 387 574 452Q571 453 569 452L264 152Q263 149 264 145Q288 98 325 68T416 38Q466 38 499 63T553 128T583 218T592 320ZM549 525Q525 576 487 608T393 640Q343 640 310 615T256 550T226 459T217 357Q217 322 222 287T238 218Q240 217 240 217T243 217L548 518Q550 522 549 525ZM698 578Q696 573 697 571Q739 525 761 466T783 337Q783 258 756 193T678 81T559 8T406 -18Q338 -18 279 1T172 54Q168 55 164 54L63 -46Q58 -43 52 -38T40 -26T28 -13T20 -2L116 92Q118 97 117 99Q73 146 49 207T25 340Q25 419 52 484T130 597T249 671T402 697Q473 697 534 677T644 619Q647 618 651 619L747 713Q751 710 757 705T770 693T781 680T789 669L698 578Z"  />
<glyph unicode="&#xD9;" horiz-adv-x="756" d="M745 662Q745 653 743 649T733 642L699 636Q686 634 678 625T664 597T657 547T655 469V231Q655 108 587 45T393 -18Q325 -18 270 -5T177 38T118 113T97 225V543Q97 595 94 614T71 636L35 642Q27 644 25 648T23 662Q23 667 24 672T26 681Q64 680 106 679T185 678Q222 678 266 679T348 681Q349 677 350 672T351 662Q351 645 338 642L302 636Q293 634 288 629T280 614T278 586T277 543V229Q277 150 311 104T422 57Q491 57 527 97T564 228V468Q564 514 562 545T553 595T536 624T508 636L473 642Q460 645 460 662Q460 667 461 672T463 681Q501 680 536 679T609 678Q645 678 675 679T743 681Q745 671 745 662ZM436 729Q438 723 434 715T422 705Q404 711 381 719T334 736T285 754T240 774Q226 781 218 787T204 804Q201 810 202 820T207 842T220 863T239 878Q253 885 267 878T308 848Q318 839 334 824T369 793T405 759T436 729Z"  />
<glyph unicode="&#xDA;" horiz-adv-x="756" d="M745 662Q745 653 743 649T733 642L699 636Q686 634 678 625T664 597T657 547T655 469V231Q655 108 587 45T393 -18Q325 -18 270 -5T177 38T118 113T97 225V543Q97 595 94 614T71 636L35 642Q27 644 25 648T23 662Q23 667 24 672T26 681Q64 680 106 679T185 678Q222 678 266 679T348 681Q349 677 350 672T351 662Q351 645 338 642L302 636Q293 634 288 629T280 614T278 586T277 543V229Q277 150 311 104T422 57Q491 57 527 97T564 228V468Q564 514 562 545T553 595T536 624T508 636L473 642Q460 645 460 662Q460 667 461 672T463 681Q501 680 536 679T609 678Q645 678 675 679T743 681Q745 671 745 662ZM611 804Q606 793 598 787T575 774Q554 764 530 755T482 736T434 719T393 705Q386 707 382 715T379 729Q392 742 410 759T446 792T480 824T507 848Q533 871 548 878T577 878Q588 873 595 863T607 842T613 821T611 804Z"  />
<glyph unicode="&#xDB;" horiz-adv-x="756" d="M745 662Q745 653 743 649T733 642L699 636Q686 634 678 625T664 597T657 547T655 469V231Q655 108 587 45T393 -18Q325 -18 270 -5T177 38T118 113T97 225V543Q97 595 94 614T71 636L35 642Q27 644 25 648T23 662Q23 667 24 672T26 681Q64 680 106 679T185 678Q222 678 266 679T348 681Q349 677 350 672T351 662Q351 645 338 642L302 636Q293 634 288 629T280 614T278 586T277 543V229Q277 150 311 104T422 57Q491 57 527 97T564 228V468Q564 514 562 545T553 595T536 624T508 636L473 642Q460 645 460 662Q460 667 461 672T463 681Q501 680 536 679T609 678Q645 678 675 679T743 681Q745 671 745 662ZM575 728Q579 722 573 714T560 705Q545 712 526 722T486 743T444 765T406 787Q403 789 400 789T394 787Q377 777 357 766T315 743T275 722T241 705Q234 705 228 713T226 728Q239 742 256 760T291 795T325 829T351 855Q364 868 375 876T400 885Q414 885 425 877T450 855Q460 845 476 829T509 796T544 760T575 728Z"  />
<glyph unicode="&#xDC;" horiz-adv-x="756" d="M385 801Q385 769 366 749T314 728Q282 728 262 748T242 800Q242 832 261 853T313 875Q345 875 365 854T385 801ZM580 801Q580 769 561 749T510 728Q478 728 458 748T437 800Q437 832 456 853T508 875Q540 875 560 854T580 801ZM745 662Q745 653 743 649T733 642L699 636Q686 634 678 625T664 597T657 547T655 469V231Q655 108 587 45T393 -18Q325 -18 270 -5T177 38T118 113T97 225V543Q97 595 94 614T71 636L35 642Q27 644 25 648T23 662Q23 667 24 672T26 681Q64 680 106 679T185 678Q222 678 266 679T348 681Q349 677 350 672T351 662Q351 645 338 642L302 636Q293 634 288 629T280 614T278 586T277 543V229Q277 150 311 104T422 57Q491 57 528 97T565 228V468Q565 514 563 545T554 595T537 624T509 636L473 642Q465 644 463 648T461 662Q461 667 462 672T464 681Q502 680 537 679T609 678Q645 678 675 679T743 681Q745 671 745 662Z"  />
<glyph unicode="&#xDD;" horiz-adv-x="684" d="M696 662Q696 653 694 649T683 643L670 639Q659 636 650 630T631 611T606 576T570 520L465 348Q454 331 451 318T448 276V135Q448 83 451 64T474 42L510 36Q518 34 520 30T522 16Q522 7 520 -3Q482 -2 440 -1T360 0Q323 0 279 -1T197 -3Q195 7 195 16Q195 25 197 29T207 36L243 42Q252 43 257 48T265 64T267 92T268 135V254Q268 277 265 289T250 319L130 521Q110 554 96 575T71 610T51 629T33 638L15 643Q7 645 5 649T3 662Q3 667 4 672T6 681Q43 680 88 679T168 678Q186 678 209 678T256 679T303 680T345 681Q346 677 347 672T348 662Q348 652 346 649T336 643L314 638Q293 633 293 617Q293 601 306 576T335 522L408 389H410L483 519Q498 546 510 571T523 613Q523 625 518 631T501 639L478 643Q465 646 465 662Q465 667 466 672T468 681Q501 680 527 679T589 678Q606 678 618 678T641 679T664 680T693 681Q694 677 695 672T696 662ZM610 804Q605 793 597 787T574 774Q553 764 529 755T480 736T432 719T391 705Q384 707 380 714T378 729Q391 742 408 758T444 792T478 824T505 848Q531 871 546 878T575 878Q586 873 593 864T605 843T611 821T610 804Z"  />
<glyph unicode="&#xDE;" horiz-adv-x="673" d="M642 398Q642 357 624 319T569 251T481 204T360 186Q331 186 321 191T311 211Q311 219 311 225Q311 231 313 239Q319 237 324 237Q330 237 338 237Q356 237 375 243T410 267T437 313T448 389Q448 461 420 503T334 546Q324 546 310 545T286 541Q283 539 281 534V142Q281 89 288 67T315 43L369 37Q377 36 379 31T381 17Q381 12 380 7T378 -3Q360 -3 336 -3T288 -2T240 -1T199 0Q181 0 160 0T115 -1T70 -2T29 -3Q27 7 27 16Q27 25 29 29T39 36L75 42Q94 45 97 64T101 135V543Q101 595 98 614T75 636L39 642Q31 644 29 648T27 662Q27 671 29 681Q67 680 109 679T189 678Q226 678 270 679T352 681Q354 671 354 662Q354 653 352 649T342 642L302 636Q288 634 283 627T277 603Q278 600 283 597Q311 599 344 600T395 601Q443 601 487 589T566 552T621 489T642 398Z"  />
<glyph unicode="&#xDF;" horiz-adv-x="862" d="M841 152Q841 111 823 80T773 26T702 -7T618 -18Q575 -18 538 -14T474 -1Q469 1 468 4Q466 34 463 68T456 132Q460 133 466 134T478 135Q495 135 497 124Q508 79 533 56T612 33Q649 33 673 46T698 90Q698 115 682 131T642 161T591 187T539 220T499 266T483 335Q483 376 500 405T546 454T612 483T688 492Q726 492 756 489T805 481Q809 479 811 475Q813 446 815 422T820 366Q816 365 810 364T799 363Q782 363 780 374Q769 416 748 431T692 447Q654 447 638 431T621 389Q621 367 637 352T678 323T731 297T784 264T824 219T841 152ZM402 152Q402 111 384 80T334 26T263 -7T179 -18Q136 -18 99 -14T35 -1Q30 1 29 4Q27 34 24 68T17 132Q21 133 27 134T39 135Q56 135 58 124Q69 79 94 56T173 33Q210 33 234 46T259 90Q259 115 243 131T203 161T152 187T100 220T60 266T44 335Q44 376 61 405T107 454T173 483T249 492Q287 492 317 489T366 481Q370 479 372 475Q374 446 376 422T381 366Q377 365 371 364T360 363Q343 363 341 374Q330 416 309 431T253 447Q215 447 199 431T182 389Q182 367 198 352T239 323T292 297T345 264T385 219T402 152Z"  />
<glyph unicode="&#xE0;" horiz-adv-x="585" d="M231 377H228L174 212Q176 209 179 207H285Q288 209 290 212L231 377ZM582 16Q582 7 580 -3Q545 -2 506 -1T431 0Q396 0 358 -1T285 -3Q283 7 283 16Q283 25 285 29T295 35L319 39Q330 41 336 44T342 56Q342 61 340 70T334 88T328 107T322 122L309 157Q308 159 303 161H163Q158 159 157 157L145 122Q130 78 137 60T163 39L189 35Q197 33 199 29T201 16Q201 7 199 -3Q175 -2 151 -1T103 0Q78 0 54 -1T5 -3Q3 7 3 16Q3 25 5 29T15 35L29 37Q43 39 53 57T81 123L177 394Q179 399 181 408T183 424Q183 426 183 428T183 431Q186 437 191 440T206 447T229 456T263 470Q281 478 292 484T312 494T326 500T339 502Q348 502 354 495Q362 466 371 443T395 385L501 123Q520 75 529 58T553 38L570 35Q578 33 580 29T582 16ZM302 522Q302 515 295 510T280 506Q265 521 246 539T207 577T168 617T133 656Q122 669 117 678T112 699Q112 706 117 715T131 732T151 745T174 751Q191 751 201 739T227 694Q233 680 243 659T263 613T284 564T302 522Z"  />
<glyph unicode="&#xE1;" horiz-adv-x="585" d="M231 377H228L174 212Q176 209 179 207H285Q288 209 290 212L231 377ZM582 16Q582 7 580 -3Q545 -2 506 -1T431 0Q396 0 358 -1T285 -3Q283 7 283 16Q283 25 285 29T295 35L319 39Q330 41 336 44T342 56Q342 61 340 70T334 88T328 107T322 122L309 157Q308 159 303 161H163Q158 159 157 157L145 122Q130 78 137 60T163 39L189 35Q197 33 199 29T201 16Q201 7 199 -3Q175 -2 151 -1T103 0Q78 0 54 -1T5 -3Q3 7 3 16Q3 25 5 29T15 35L29 37Q43 39 53 57T81 123L177 394Q179 399 181 408T183 424Q183 426 183 428T183 431Q186 437 191 440T206 447T229 456T263 470Q281 478 292 484T312 494T326 500T339 502Q348 502 354 495Q362 466 371 443T395 385L501 123Q520 75 529 58T553 38L570 35Q578 33 580 29T582 16ZM437 699Q437 688 432 679T416 656Q400 638 381 618T342 577T303 539T269 506Q262 504 255 509T247 522Q254 540 264 564T285 612T306 658T322 694Q337 726 347 738T375 751Q387 751 398 746T418 732T432 715T437 699Z"  />
<glyph unicode="&#xE2;" horiz-adv-x="585" d="M231 377H228L174 212Q176 209 179 207H285Q288 209 290 212L231 377ZM582 16Q582 7 580 -3Q545 -2 506 -1T431 0Q396 0 358 -1T285 -3Q283 7 283 16Q283 25 285 29T295 35L319 39Q330 41 336 44T342 56Q342 61 340 70T334 88T328 107T322 122L309 157Q308 159 303 161H163Q158 159 157 157L145 122Q130 78 137 60T163 39L189 35Q197 33 199 29T201 16Q201 7 199 -3Q175 -2 151 -1T103 0Q78 0 54 -1T5 -3Q3 7 3 16Q3 25 5 29T15 35L29 37Q43 39 53 57T81 123L177 394Q179 399 181 408T183 424Q183 426 183 428T183 431Q186 437 191 440T206 447T229 456T263 470Q281 478 292 484T312 494T326 500T339 502Q348 502 354 495Q362 466 371 443T395 385L501 123Q520 75 529 58T553 38L570 35Q578 33 580 29T582 16ZM407 523Q408 516 400 511T385 507Q364 531 335 567T281 635Q276 637 271 635Q246 603 217 567T167 507Q160 505 152 510T145 523Q152 541 161 565T181 614T200 659T217 695Q222 705 227 715T239 733T255 747T276 752Q288 752 297 747T313 733T325 715T335 695Q342 681 351 660T371 614T390 566T407 523Z"  />
<glyph unicode="&#xE3;" horiz-adv-x="585" d="M231 377H228L174 212Q176 209 179 207H285Q288 209 290 212L231 377ZM582 16Q582 7 580 -3Q545 -2 506 -1T431 0Q396 0 358 -1T285 -3Q283 7 283 16Q283 25 285 29T295 35L319 39Q330 41 336 44T342 56Q342 61 340 70T334 88T328 107T322 122L309 157Q308 159 303 161H163Q158 159 157 157L145 122Q130 78 137 60T163 39L189 35Q197 33 199 29T201 16Q201 7 199 -3Q175 -2 151 -1T103 0Q78 0 54 -1T5 -3Q3 7 3 16Q3 25 5 29T15 35L29 37Q43 39 53 57T81 123L177 394Q179 399 181 408T183 424Q183 426 183 428T183 431Q186 437 191 440T206 447T229 456T263 470Q281 478 292 484T312 494T326 500T339 502Q348 502 354 495Q362 466 371 443T395 385L501 123Q520 75 529 58T553 38L570 35Q578 33 580 29T582 16ZM451 667Q451 623 423 593T349 562Q320 562 292 573T240 598T197 623T167 635Q156 635 150 630T143 613Q143 606 146 603T152 596T159 588T162 577Q162 565 154 560T135 554Q115 554 107 571T98 606Q98 650 126 680T200 710Q229 710 257 699T309 674T352 649T382 638Q393 638 399 643T406 660Q406 667 403 670T397 677T390 684T387 695Q387 707 395 713T414 719Q434 719 442 702T451 667Z"  />
<glyph unicode="&#xE4;" horiz-adv-x="585" d="M231 377H228L174 212Q176 209 179 207H285Q288 209 290 212L231 377ZM582 16Q582 7 580 -3Q545 -2 506 -1T431 0Q396 0 358 -1T285 -3Q283 7 283 16Q283 25 285 29T295 35L319 39Q330 41 336 44T342 56Q342 61 340 70T334 88T328 107T322 122L309 157Q308 159 303 161H163Q158 159 157 157L145 122Q130 78 137 60T163 39L189 35Q197 33 199 29T201 16Q201 7 199 -3Q175 -2 151 -1T103 0Q78 0 54 -1T5 -3Q3 7 3 16Q3 25 5 29T15 35L29 37Q43 39 53 57T81 123L177 394Q179 399 181 408T183 424Q183 426 183 428T183 431Q186 437 191 440T206 447T229 456T263 470Q281 478 292 484T312 494T326 500T339 502Q348 502 354 495Q362 466 371 443T395 385L501 123Q520 75 529 58T553 38L570 35Q578 33 580 29T582 16ZM258 646Q258 614 239 594T187 573Q155 573 135 593T115 645Q115 677 134 698T186 720Q218 720 238 699T258 646ZM453 646Q453 614 434 594T383 573Q351 573 331 593T310 645Q310 677 329 698T381 720Q413 720 433 699T453 646Z"  />
<glyph unicode="&#xE5;" horiz-adv-x="585" d="M231 377H228L174 212Q176 209 179 207H285Q288 209 290 212L231 377ZM582 16Q582 7 580 -3Q545 -2 506 -1T431 0Q396 0 358 -1T285 -3Q283 7 283 16Q283 25 285 29T295 35L319 39Q330 41 336 44T342 56Q342 61 340 70T334 88T328 107T322 122L309 157Q308 159 303 161H163Q158 159 157 157L145 122Q130 78 137 60T163 39L189 35Q197 33 199 29T201 16Q201 7 199 -3Q175 -2 151 -1T103 0Q78 0 54 -1T5 -3Q3 7 3 16Q3 25 5 29T15 35L29 37Q43 39 53 57T81 123L177 394Q179 399 181 408T183 424Q183 426 183 428T183 431Q186 437 191 440T206 447T229 456T263 470Q281 478 292 484T312 494T326 500T339 502Q348 502 354 495Q362 466 371 443T395 385L501 123Q520 75 529 58T553 38L570 35Q578 33 580 29T582 16ZM321 632Q321 660 310 682T271 705Q242 705 233 683T224 632Q224 604 235 582T274 559Q303 559 312 581T321 632ZM396 633Q396 584 364 553T274 521Q218 521 184 550T150 631Q150 680 181 711T270 742Q326 742 361 713T396 633Z"  />
<glyph unicode="&#xE6;" horiz-adv-x="753" d="M335 426H332L231 243Q234 238 235 237H331Q333 238 335 242V426ZM745 127Q737 98 732 67T721 4Q720 1 715 -1Q709 0 676 0Q644 0 588 0H414Q379 0 341 -1T268 -3Q266 7 266 16Q266 25 268 29T278 35L311 41Q329 44 332 62T335 130V186Q334 189 331 190H207Q201 190 200 188L165 123Q154 102 151 87T151 62T161 46T180 39L206 35Q214 33 216 29T218 16Q218 7 216 -3Q192 -2 160 -1T103 0Q78 0 54 -1T5 -3Q3 7 3 16Q3 25 5 29T15 35L26 37Q41 40 55 58T97 124L225 349Q237 370 239 385T238 410T226 426T209 434L182 439Q174 441 172 445T170 458Q170 467 172 477Q208 476 243 475T315 474H525Q568 474 610 474T674 476Q679 474 681 471Q685 442 687 412T695 352Q691 351 686 350T675 347Q666 346 662 348T655 357L648 371Q640 387 632 397T612 413T585 421T547 423H510Q507 418 504 404T500 357V254Q502 251 505 249H526Q571 249 586 254T604 274L607 295Q608 306 624 306Q634 306 642 304Q641 285 641 265Q641 245 641 226Q641 207 641 187Q641 167 642 148Q634 146 624 146Q608 146 607 156L604 173Q602 187 587 192T526 198H505Q502 196 500 193V127Q500 104 501 89T507 66T517 54T533 51H588Q611 51 627 53T654 62T675 78T694 105L705 123Q709 129 713 131T726 131Q731 130 736 129T745 127Z"  />
<glyph unicode="&#xE7;" horiz-adv-x="545" d="M506 141Q502 110 498 76T490 13Q489 11 487 10L483 8Q450 -3 419 -9T352 -17Q342 -27 336 -36T330 -52Q330 -62 338 -73T357 -99T375 -129T384 -165Q384 -188 374 -208T347 -244T308 -269T264 -278Q258 -278 249 -278T232 -275T217 -268T211 -254Q211 -249 212 -242T217 -229T224 -218T236 -213Q250 -213 261 -222T287 -232Q307 -232 307 -211Q307 -199 297 -187T276 -161T254 -135T244 -106Q244 -83 261 -61T303 -17Q245 -14 195 6T107 59T47 138T25 239Q25 302 50 349T116 428T212 476T325 492Q367 492 403 486T483 466Q488 464 489 461Q491 432 493 397T498 330Q494 329 490 328T480 327Q471 327 467 328T460 337Q446 389 418 414T340 439Q300 439 273 425T230 385T206 326T199 252Q199 192 213 151T250 84T300 47T353 35Q380 35 398 42T429 63T451 95T468 135Q470 142 474 143T488 144Q493 143 497 143T506 141Z"  />
<glyph unicode="&#xE8;" horiz-adv-x="514" d="M506 127Q498 98 493 67T482 4Q481 1 476 -1Q470 0 437 0Q405 0 349 0H175Q140 0 102 -1T29 -3Q27 7 27 16Q27 25 29 29T39 35L72 41Q90 44 93 62T96 130V345Q96 394 93 412T72 433L39 439Q31 441 29 445T27 458Q27 467 29 477Q65 476 100 475T172 474H286Q329 474 371 474T435 476Q440 474 442 471Q446 442 448 412T456 352Q452 351 447 350T436 347Q427 346 423 348T416 357L409 371Q401 387 393 397T373 413T346 421T308 423H271Q268 418 265 404T261 357V276Q263 273 266 271H287Q332 271 347 276T365 296L368 312Q371 323 385 323Q395 323 403 321Q402 302 402 283Q402 264 402 245Q402 226 402 206Q402 186 403 167Q395 165 385 165Q369 165 368 175L365 195Q363 209 348 214T287 220H266Q263 218 261 215V127Q261 104 262 89T268 66T278 54T294 51H349Q372 51 388 53T415 62T436 78T455 105L466 123Q470 129 474 131T487 131Q492 130 497 129T506 127ZM299 522Q299 515 292 510T277 506Q262 521 243 539T204 577T165 617T130 656Q119 669 114 678T109 699Q109 706 114 715T128 732T148 745T171 751Q188 751 198 739T224 694Q230 680 240 659T260 613T281 564T299 522Z"  />
<glyph unicode="&#xE9;" horiz-adv-x="514" d="M506 127Q498 98 493 67T482 4Q481 1 476 -1Q470 0 437 0Q405 0 349 0H175Q140 0 102 -1T29 -3Q27 7 27 16Q27 25 29 29T39 35L72 41Q90 44 93 62T96 130V345Q96 394 93 412T72 433L39 439Q31 441 29 445T27 458Q27 467 29 477Q65 476 100 475T172 474H286Q329 474 371 474T435 476Q440 474 442 471Q446 442 448 412T456 352Q452 351 447 350T436 347Q427 346 423 348T416 357L409 371Q401 387 393 397T373 413T346 421T308 423H271Q268 418 265 404T261 357V276Q263 273 266 271H287Q332 271 347 276T365 296L368 312Q371 323 385 323Q395 323 403 321Q402 302 402 283Q402 264 402 245Q402 226 402 206Q402 186 403 167Q395 165 385 165Q369 165 368 175L365 195Q363 209 348 214T287 220H266Q263 218 261 215V127Q261 104 262 89T268 66T278 54T294 51H349Q372 51 388 53T415 62T436 78T455 105L466 123Q470 129 474 131T487 131Q492 130 497 129T506 127ZM408 699Q408 688 403 679T387 656Q371 638 352 618T313 577T274 539T240 506Q233 504 226 509T218 522Q225 540 235 564T256 612T277 658T293 694Q308 726 318 738T346 751Q358 751 369 746T389 732T403 715T408 699Z"  />
<glyph unicode="&#xEA;" horiz-adv-x="514" d="M506 127Q498 98 493 67T482 4Q481 1 476 -1Q470 0 437 0Q405 0 349 0H175Q140 0 102 -1T29 -3Q27 7 27 16Q27 25 29 29T39 35L72 41Q90 44 93 62T96 130V345Q96 394 93 412T72 433L39 439Q31 441 29 445T27 458Q27 467 29 477Q65 476 100 475T172 474H286Q329 474 371 474T435 476Q440 474 442 471Q446 442 448 412T456 352Q452 351 447 350T436 347Q427 346 423 348T416 357L409 371Q401 387 393 397T373 413T346 421T308 423H271Q268 418 265 404T261 357V276Q263 273 266 271H287Q332 271 347 276T365 296L368 312Q371 323 385 323Q395 323 403 321Q402 302 402 283Q402 264 402 245Q402 226 402 206Q402 186 403 167Q395 165 385 165Q369 165 368 175L365 195Q363 209 348 214T287 220H266Q263 218 261 215V127Q261 104 262 89T268 66T278 54T294 51H349Q372 51 388 53T415 62T436 78T455 105L466 123Q470 129 474 131T487 131Q492 130 497 129T506 127ZM384 523Q385 516 377 511T362 507Q341 531 312 567T258 635Q253 637 248 635Q223 603 194 567T144 507Q137 505 129 510T122 523Q129 541 138 565T158 614T177 659T194 695Q199 705 204 715T216 733T232 747T253 752Q265 752 274 747T290 733T302 715T312 695Q319 681 328 660T348 614T367 566T384 523Z"  />
<glyph unicode="&#xEB;" horiz-adv-x="514" d="M506 127Q498 98 493 67T482 4Q481 1 476 -1Q470 0 437 0Q405 0 349 0H175Q140 0 102 -1T29 -3Q27 7 27 16Q27 25 29 29T39 35L72 41Q90 44 93 62T96 130V345Q96 394 93 412T72 433L39 439Q31 441 29 445T27 458Q27 467 29 477Q65 476 100 475T172 474H286Q329 474 371 474T435 476Q440 474 442 471Q446 442 448 412T456 352Q452 351 447 350T436 347Q427 346 423 348T416 357L409 371Q401 387 393 397T373 413T346 421T308 423H271Q268 418 265 404T261 357V276Q263 273 266 271H287Q332 271 347 276T365 296L368 312Q371 323 385 323Q395 323 403 321Q402 302 402 283Q402 264 402 245Q402 226 402 206Q402 186 403 167Q395 165 385 165Q369 165 368 175L365 195Q363 209 348 214T287 220H266Q263 218 261 215V127Q261 104 262 89T268 66T278 54T294 51H349Q372 51 388 53T415 62T436 78T455 105L466 123Q470 129 474 131T487 131Q492 130 497 129T506 127ZM224 646Q224 614 205 594T153 573Q121 573 101 593T81 645Q81 677 100 698T152 720Q184 720 204 699T224 646ZM419 646Q419 614 400 594T349 573Q317 573 297 593T276 645Q276 677 295 698T347 720Q379 720 399 699T419 646Z"  />
<glyph unicode="&#xEC;" horiz-adv-x="361" d="M334 16Q334 7 332 -3Q297 -2 256 -1T179 0Q144 0 106 -1T33 -3Q31 7 31 16Q31 25 33 29T43 35L76 41Q94 44 97 62T100 130V345Q100 394 97 412T76 433L43 439Q35 441 33 445T31 458Q31 467 33 477Q68 476 104 475T176 474Q211 474 254 475T332 477Q334 467 334 458Q334 449 332 445T322 439L289 433Q271 430 268 412T265 345V130Q265 81 268 63T289 41L322 35Q330 33 332 29T334 16ZM204 522Q204 515 197 510T182 506Q167 521 148 539T109 577T70 617T35 656Q24 669 19 678T14 699Q14 706 19 715T33 732T53 745T76 751Q93 751 103 739T129 694Q135 680 145 659T165 613T186 564T204 522Z"  />
<glyph unicode="&#xED;" horiz-adv-x="361" d="M334 16Q334 7 332 -3Q297 -2 256 -1T179 0Q144 0 106 -1T33 -3Q31 7 31 16Q31 25 33 29T43 35L76 41Q94 44 97 62T100 130V345Q100 394 97 412T76 433L43 439Q35 441 33 445T31 458Q31 467 33 477Q68 476 104 475T176 474Q211 474 254 475T332 477Q334 467 334 458Q334 449 332 445T322 439L289 433Q271 430 268 412T265 345V130Q265 81 268 63T289 41L322 35Q330 33 332 29T334 16ZM345 699Q345 688 340 679T324 656Q308 638 289 618T250 577T211 539T177 506Q170 504 163 509T155 522Q162 540 172 564T193 612T214 658T230 694Q245 726 255 738T283 751Q295 751 306 746T326 732T340 715T345 699Z"  />
<glyph unicode="&#xEE;" horiz-adv-x="361" d="M334 16Q334 7 332 -3Q297 -2 256 -1T179 0Q144 0 106 -1T33 -3Q31 7 31 16Q31 25 33 29T43 35L76 41Q94 44 97 62T100 130V345Q100 394 97 412T76 433L43 439Q35 441 33 445T31 458Q31 467 33 477Q68 476 104 475T176 474Q211 474 254 475T332 477Q334 467 334 458Q334 449 332 445T322 439L289 433Q271 430 268 412T265 345V130Q265 81 268 63T289 41L322 35Q330 33 332 29T334 16ZM312 523Q313 516 305 511T290 507Q269 531 240 567T186 635Q181 637 176 635Q151 603 122 567T72 507Q65 505 57 510T50 523Q57 541 66 565T86 614T105 659T122 695Q127 705 132 715T144 733T160 747T181 752Q193 752 202 747T218 733T230 715T240 695Q247 681 256 660T276 614T295 566T312 523Z"  />
<glyph unicode="&#xEF;" horiz-adv-x="361" d="M334 16Q334 7 332 -3Q297 -2 256 -1T179 0Q144 0 106 -1T33 -3Q31 7 31 16Q31 25 33 29T43 35L76 41Q94 44 97 62T100 130V345Q100 394 97 412T76 433L43 439Q35 441 33 445T31 458Q31 467 33 477Q68 476 104 475T176 474Q211 474 254 475T332 477Q334 467 334 458Q334 449 332 445T322 439L289 433Q271 430 268 412T265 345V130Q265 81 268 63T289 41L322 35Q330 33 332 29T334 16ZM154 646Q154 614 135 594T83 573Q51 573 31 593T11 645Q11 677 30 698T82 720Q114 720 134 699T154 646ZM349 646Q349 614 330 594T279 573Q247 573 227 593T206 645Q206 677 225 698T277 720Q309 720 329 699T349 646Z"  />
<glyph unicode="&#xF0;" horiz-adv-x="645" d="M447 227Q447 283 435 321T404 384T360 418T313 429Q284 429 267 422Q266 420 265 418T263 409T262 393T261 365V281Q263 277 265 276H372Q374 265 374 249Q374 233 373 219H266Q262 217 261 215V126Q261 80 268 66T294 51H316Q337 51 360 59T402 87T434 141T447 227ZM620 240Q620 192 602 148T548 71Q513 39 461 20T352 0H175Q140 0 102 -1T29 -3Q27 7 27 16Q27 25 29 29T39 35L72 41Q90 44 93 62T96 130V215Q95 218 92 219H44Q42 230 42 246Q42 262 43 276H91Q94 278 96 281V345Q96 394 93 412T72 433L39 439Q31 441 29 445T27 458Q27 467 29 477Q64 476 95 475T162 474Q186 474 206 475T248 477T291 480T343 482Q401 482 456 465T549 413Q583 383 601 340T620 240Z"  />
<glyph unicode="&#xF1;" horiz-adv-x="620" d="M603 458Q603 449 601 445T591 439L561 434Q552 432 547 426T538 407T533 371T532 314V153Q532 104 534 63T539 -4Q533 -5 521 -5T494 -6T464 -7T435 -6Q429 -6 426 -3T419 4Q414 12 403 27T376 62L162 312H161L164 197Q165 151 167 122T173 76T185 52T207 42L246 35Q254 33 256 29T258 16Q258 7 256 -3Q225 -2 195 -1T133 0Q107 0 80 -1T27 -3Q25 7 25 16Q25 25 27 29T37 35L67 40Q76 41 81 47T90 66T95 102T96 160V366Q96 380 94 392T85 414Q72 431 51 434L25 438Q17 440 15 444T13 457Q13 467 15 477Q41 476 73 475T132 474Q164 474 188 474T241 476Q247 474 249 473Q257 458 274 433T310 386L465 208H467L464 277Q462 323 460 352T454 398T442 422T421 432L382 439Q374 441 372 445T370 458Q370 467 372 477Q403 476 433 475T495 474Q521 474 548 475T601 477Q603 467 603 458ZM496 667Q496 623 468 593T394 562Q365 562 337 573T285 598T242 623T212 635Q201 635 195 630T188 613Q188 606 191 603T197 596T204 588T207 577Q207 565 199 560T180 554Q160 554 152 571T143 606Q143 650 171 680T245 710Q274 710 302 699T354 674T397 649T427 638Q438 638 444 643T451 660Q451 667 448 670T442 677T435 684T432 695Q432 707 440 713T459 719Q479 719 487 702T496 667Z"  />
<glyph unicode="&#xF2;" horiz-adv-x="628" d="M430 223Q430 260 425 299T405 370T367 422T307 443Q272 443 251 426T219 382T203 319T199 249Q199 212 204 173T224 103T262 51T322 30Q356 30 377 47T410 91T426 153T430 223ZM603 235Q603 177 583 131T525 51T434 0T314 -18Q249 -18 196 0T105 53T46 134T25 237Q25 295 45 342T103 422T194 474T314 492Q379 492 432 473T523 420T582 339T603 235ZM326 522Q326 515 319 510T304 506Q289 521 270 539T231 577T192 617T157 656Q146 669 141 678T136 699Q136 706 141 715T155 732T175 745T198 751Q215 751 225 739T251 694Q257 680 267 659T287 613T308 564T326 522Z"  />
<glyph unicode="&#xF3;" horiz-adv-x="628" d="M430 223Q430 260 425 299T405 370T367 422T307 443Q272 443 251 426T219 382T203 319T199 249Q199 212 204 173T224 103T262 51T322 30Q356 30 377 47T410 91T426 153T430 223ZM603 235Q603 177 583 131T525 51T434 0T314 -18Q249 -18 196 0T105 53T46 134T25 237Q25 295 45 342T103 422T194 474T314 492Q379 492 432 473T523 420T582 339T603 235ZM482 699Q482 688 477 679T461 656Q445 638 426 618T387 577T348 539T314 506Q307 504 300 509T292 522Q299 540 309 564T330 612T351 658T367 694Q382 726 392 738T420 751Q432 751 443 746T463 732T477 715T482 699Z"  />
<glyph unicode="&#xF4;" horiz-adv-x="628" d="M430 223Q430 260 425 299T405 370T367 422T307 443Q272 443 251 426T219 382T203 319T199 249Q199 212 204 173T224 103T262 51T322 30Q356 30 377 47T410 91T426 153T430 223ZM603 235Q603 177 583 131T525 51T434 0T314 -18Q249 -18 196 0T105 53T46 134T25 237Q25 295 45 342T103 422T194 474T314 492Q379 492 432 473T523 420T582 339T603 235ZM439 523Q440 516 432 511T417 507Q396 531 367 567T313 635Q308 637 303 635Q278 603 249 567T199 507Q192 505 184 510T177 523Q184 541 193 565T213 614T232 659T249 695Q254 705 259 715T271 733T287 747T308 752Q320 752 329 747T345 733T357 715T367 695Q374 681 383 660T403 614T422 566T439 523Z"  />
<glyph unicode="&#xF5;" horiz-adv-x="628" d="M430 223Q430 260 425 299T405 370T367 422T307 443Q272 443 251 426T219 382T203 319T199 249Q199 212 204 173T224 103T262 51T322 30Q356 30 377 47T410 91T426 153T430 223ZM603 235Q603 177 583 131T525 51T434 0T314 -18Q249 -18 196 0T105 53T46 134T25 237Q25 295 45 342T103 422T194 474T314 492Q379 492 432 473T523 420T582 339T603 235ZM491 667Q491 623 463 593T389 562Q360 562 332 573T280 598T237 623T207 635Q196 635 190 630T183 613Q183 606 186 603T192 596T199 588T202 577Q202 565 194 560T175 554Q155 554 147 571T138 606Q138 650 166 680T240 710Q269 710 297 699T349 674T392 649T422 638Q433 638 439 643T446 660Q446 667 443 670T437 677T430 684T427 695Q427 707 435 713T454 719Q474 719 482 702T491 667Z"  />
<glyph unicode="&#xF6;" horiz-adv-x="628" d="M430 223Q430 260 425 299T405 370T367 422T307 443Q272 443 251 426T219 382T203 319T199 249Q199 212 204 173T224 103T262 51T322 30Q356 30 377 47T410 91T426 153T430 223ZM603 235Q603 177 583 131T525 51T434 0T314 -18Q249 -18 196 0T105 53T46 134T25 237Q25 295 45 342T103 422T194 474T314 492Q379 492 432 473T523 420T582 339T603 235ZM290 646Q290 614 271 594T219 573Q187 573 167 593T147 645Q147 677 166 698T218 720Q250 720 270 699T290 646ZM485 646Q485 614 466 594T415 573Q383 573 363 593T342 645Q342 677 361 698T413 720Q445 720 465 699T485 646Z"  />
<glyph unicode="&#xF7;" horiz-adv-x="500" d="M304 56Q304 34 290 19T250 4Q224 4 210 18T195 56Q195 80 209 94T249 109Q274 109 289 94T304 56ZM17 199V276H483V199H17ZM305 419Q305 395 291 381T251 366Q226 366 211 381T196 419Q196 441 210 456T250 471Q276 471 290 457T305 419Z"  />
<glyph unicode="&#xF8;" horiz-adv-x="628" d="M430 223Q430 244 429 265T423 308Q421 309 419 308L221 113Q219 111 221 108Q235 73 259 52T322 30Q356 30 377 47T410 91T426 153T430 223ZM404 364Q407 367 406 368Q392 401 369 422T307 443Q272 443 251 426T219 382T203 319T199 249Q199 210 205 171Q207 170 208 170L404 364H404ZM531 418Q529 415 532 412Q566 378 584 334T603 235Q603 177 583 131T525 51T434 0T314 -18Q263 -18 220 -7T141 27Q138 28 135 27L73 -35Q66 -30 55 -18T38 0L96 58Q98 62 97 63Q63 96 44 140T25 237Q25 295 45 342T103 422T194 474T314 492Q415 492 486 449Q488 448 491 449L556 513Q563 508 574 496T590 477L531 418Z"  />
<glyph unicode="&#xF9;" horiz-adv-x="594" d="M587 458Q587 449 585 445T575 439L545 434Q536 432 531 426T522 407T517 371T516 314V159Q516 71 464 27T316 -18Q263 -18 221 -9T150 21T104 74T88 154V345Q88 394 85 412T64 433L31 439Q23 441 21 445T19 458Q19 467 21 477Q56 476 92 475T164 474Q199 474 242 475T320 477Q322 467 322 458Q322 449 320 445T310 439L277 433Q259 430 256 412T253 345V158Q253 106 276 76T349 46Q392 46 417 71T443 157V277Q443 323 442 351T438 397T426 421T405 432L374 439Q366 441 364 445T362 458Q362 467 364 477Q395 476 420 475T477 474Q503 474 531 475T585 477Q587 467 587 458ZM360 522Q360 515 353 510T338 506Q323 521 304 539T265 577T226 617T191 656Q180 669 175 678T170 699Q170 706 175 715T189 732T209 745T232 751Q249 751 259 739T285 694Q291 680 301 659T321 613T342 564T360 522Z"  />
<glyph unicode="&#xFA;" horiz-adv-x="594" d="M587 458Q587 449 585 445T575 439L545 434Q536 432 531 426T522 407T517 371T516 314V159Q516 71 464 27T316 -18Q263 -18 221 -9T150 21T104 74T88 154V345Q88 394 85 412T64 433L31 439Q23 441 21 445T19 458Q19 467 21 477Q56 476 92 475T164 474Q199 474 242 475T320 477Q322 467 322 458Q322 449 320 445T310 439L277 433Q259 430 256 412T253 345V158Q253 106 276 76T349 46Q392 46 417 71T443 157V277Q443 323 442 351T438 397T426 421T405 432L374 439Q366 441 364 445T362 458Q362 467 364 477Q395 476 420 475T477 474Q503 474 531 475T585 477Q587 467 587 458ZM515 699Q515 688 510 679T494 656Q478 638 459 618T420 577T381 539T347 506Q340 504 333 509T325 522Q332 540 342 564T363 612T384 658T400 694Q415 726 425 738T453 751Q465 751 476 746T496 732T510 715T515 699Z"  />
<glyph unicode="&#xFB;" horiz-adv-x="594" d="M587 458Q587 449 585 445T575 439L545 434Q536 432 531 426T522 407T517 371T516 314V159Q516 71 464 27T316 -18Q263 -18 221 -9T150 21T104 74T88 154V345Q88 394 85 412T64 433L31 439Q23 441 21 445T19 458Q19 467 21 477Q56 476 92 475T164 474Q199 474 242 475T320 477Q322 467 322 458Q322 449 320 445T310 439L277 433Q259 430 256 412T253 345V158Q253 106 276 76T349 46Q392 46 417 71T443 157V277Q443 323 442 351T438 397T426 421T405 432L374 439Q366 441 364 445T362 458Q362 467 364 477Q395 476 420 475T477 474Q503 474 531 475T585 477Q587 467 587 458ZM477 523Q478 516 470 511T455 507Q434 531 405 567T351 635Q346 637 341 635Q316 603 287 567T237 507Q230 505 222 510T215 523Q222 541 231 565T251 614T270 659T287 695Q292 705 297 715T309 733T325 747T346 752Q358 752 367 747T383 733T395 715T405 695Q412 681 421 660T441 614T460 566T477 523Z"  />
<glyph unicode="&#xFC;" horiz-adv-x="594" d="M587 458Q587 449 585 445T575 439L545 434Q536 432 531 426T522 407T517 371T516 314V159Q516 71 464 27T316 -18Q263 -18 221 -9T150 21T104 74T88 154V345Q88 394 85 412T64 433L31 439Q23 441 21 445T19 458Q19 467 21 477Q56 476 92 475T164 474Q199 474 242 475T320 477Q322 467 322 458Q322 449 320 445T310 439L277 433Q259 430 256 412T253 345V158Q253 106 276 76T349 46Q392 46 417 71T443 157V277Q443 323 442 351T438 397T426 421T405 432L374 439Q366 441 364 445T362 458Q362 467 364 477Q395 476 420 475T477 474Q503 474 531 475T585 477Q587 467 587 458ZM309 646Q309 614 290 594T238 573Q206 573 186 593T166 645Q166 677 185 698T237 720Q269 720 289 699T309 646ZM504 646Q504 614 485 594T434 573Q402 573 382 593T361 645Q361 677 380 698T432 720Q464 720 484 699T504 646Z"  />
<glyph unicode="&#xFD;" horiz-adv-x="527" d="M527 458Q527 449 525 445T515 439L501 437Q487 435 473 418T429 352L365 244Q357 231 355 222T352 192V130Q352 81 355 63T376 41L409 35Q417 33 419 29T421 16Q421 7 419 -3Q384 -2 343 -1T266 0Q231 0 193 -1T120 -3Q118 7 118 16Q118 25 120 29T130 35L163 41Q181 44 184 62T187 130V173Q187 190 184 199T173 221L99 351Q85 375 75 391T57 416T42 430T28 436L12 439Q4 441 2 445T0 458Q0 467 2 477Q37 476 75 475T149 474Q184 474 219 475T290 477Q292 467 292 458Q292 449 290 445T280 439L267 437Q251 434 251 420Q251 408 260 391T280 353L317 278H319L358 352Q366 369 376 386T387 417Q387 434 370 437L357 439Q349 441 347 445T345 458Q345 467 347 477Q371 476 395 475T443 474Q468 474 484 475T525 477Q527 467 527 458ZM490 699Q490 688 485 679T469 656Q453 638 434 618T395 577T356 539T322 506Q315 504 308 509T300 522Q307 540 317 564T338 612T359 658T375 694Q390 726 400 738T428 751Q440 751 451 746T471 732T485 715T490 699Z"  />
<glyph unicode="&#xFE;" horiz-adv-x="572" d="M549 281Q549 250 534 223T490 174T417 141T319 129Q295 129 287 133T279 149Q279 155 279 161Q279 168 280 174Q285 173 287 173T297 172Q305 172 318 174T343 187T363 218T372 274Q372 332 351 355T301 379Q295 379 283 378T265 375Q263 374 261 370V130Q261 102 262 86T267 60T277 48T294 42L328 35Q336 33 338 29T340 16Q340 7 338 -3Q320 -3 299 -3T256 -2T213 -1T175 0Q140 0 102 -1T29 -3Q27 7 27 16Q27 25 29 29T39 35L72 41Q90 44 93 62T96 130V345Q96 394 93 412T72 433L39 439Q31 441 29 445T27 458Q27 467 29 477Q64 476 100 475T172 474Q207 474 248 475T325 477Q327 467 327 459Q327 450 325 446T315 440L281 436Q268 434 265 432T262 427Q264 423 266 422Q278 422 303 423T355 425Q394 425 429 417T490 391T533 346T549 281Z"  />
<glyph unicode="&#xFF;" horiz-adv-x="527" d="M527 458Q527 449 525 445T515 439L501 437Q487 435 473 418T429 352L365 244Q357 231 355 222T352 192V130Q352 81 355 63T376 41L409 35Q417 33 419 29T421 16Q421 7 419 -3Q384 -2 343 -1T266 0Q231 0 193 -1T120 -3Q118 7 118 16Q118 25 120 29T130 35L163 41Q181 44 184 62T187 130V173Q187 190 184 199T173 221L99 351Q85 375 75 391T57 416T42 430T28 436L12 439Q4 441 2 445T0 458Q0 467 2 477Q37 476 75 475T149 474Q184 474 219 475T290 477Q292 467 292 458Q292 449 290 445T280 439L267 437Q251 434 251 420Q251 408 260 391T280 353L317 278H319L358 352Q366 369 376 386T387 417Q387 434 370 437L357 439Q349 441 347 445T345 458Q345 467 347 477Q371 476 395 475T443 474Q468 474 484 475T525 477Q527 467 527 458ZM285 646Q285 614 266 594T214 573Q182 573 162 593T142 645Q142 677 161 698T213 720Q245 720 265 699T285 646ZM480 646Q480 614 461 594T410 573Q378 573 358 593T337 645Q337 677 356 698T408 720Q440 720 460 699T480 646Z"  />
<glyph unicode="&#x152;" horiz-adv-x="1054" d="M527 506Q527 561 503 590T421 619Q363 619 325 596T263 535T229 449T219 351Q219 301 230 248T266 152T333 80T434 51Q488 51 507 77T527 154V506ZM1036 162Q1026 126 1018 85T1003 5Q1001 2 995 -2Q987 0 945 0Q904 0 832 0H638Q607 0 579 -2T523 -6T466 -10T402 -12Q321 -12 252 12T132 83T54 194T25 342Q25 411 50 472T124 582Q156 614 192 635T266 668T346 685T429 690Q462 690 489 688T543 684T595 680T650 678H790Q860 678 896 678Q932 678 942 680Q950 676 951 673Q956 637 961 599T972 523Q967 521 962 520T951 517Q941 515 937 517T929 528L919 549Q909 570 899 583T873 604T836 615T783 618H719Q714 612 711 592T707 525V388Q708 384 713 381H763Q821 381 842 389T865 416L868 441Q869 454 887 454Q892 454 897 453T907 451Q906 425 905 399T904 349Q904 325 905 299T907 246Q897 244 887 244Q878 244 874 246T868 256L865 286Q863 305 842 313T763 321H713Q708 318 707 314V170Q707 136 709 115T718 81T733 65T757 60H833Q866 60 887 63T924 75T952 97T976 132L992 159Q997 166 1001 168T1016 168Q1029 165 1036 162Z"  />
<glyph unicode="&#x153;" horiz-adv-x="802" d="M384 352Q384 384 372 406T323 428Q286 428 262 411T224 368T204 310T198 247Q198 216 204 181T226 115T267 65T332 45Q351 45 362 50T377 66T383 90T384 121V352ZM794 127Q786 98 781 67T770 4Q769 1 764 -1Q758 0 725 0Q693 0 637 0H485Q461 0 440 -1T398 -4T354 -7T302 -8Q245 -8 195 8T107 55T47 131T25 234Q25 285 45 329T100 408Q147 453 201 467T316 482Q342 482 363 481T403 478T440 475T482 474H583Q626 474 663 474T723 476Q728 474 730 471Q734 442 736 412T744 352Q740 351 735 350T724 347Q715 346 711 348T704 357L697 371Q689 387 681 397T661 413T634 421T596 423H559Q556 418 553 404T549 357V276Q551 273 554 271H575Q620 271 635 276T653 296L656 312Q659 323 673 323Q683 323 691 321Q690 302 690 283Q690 264 690 245Q690 226 690 206Q690 186 691 167Q683 165 673 165Q657 165 656 175L653 195Q651 209 636 214T575 220H554Q551 218 549 215V127Q549 104 550 89T556 66T566 54T582 51H637Q660 51 676 53T703 62T724 78T743 105L754 123Q758 129 762 131T775 131Q780 130 785 129T794 127Z"  />
<glyph unicode="&#x160;" horiz-adv-x="536" d="M509 213Q509 157 486 114T423 42T332 -2T227 -18Q173 -18 126 -12T45 9Q39 11 37 17Q36 35 34 56T30 100T26 144T21 184Q26 185 32 186T45 188Q55 188 59 186T66 175Q81 110 117 76T226 41Q278 41 312 64T346 136Q346 175 325 199T272 244T203 283T134 328T81 391T59 486Q59 537 79 576T133 642T214 683T314 697Q360 697 398 692T461 680Q463 678 465 676T469 672Q471 637 474 604T481 532Q476 531 471 530T459 528Q449 528 444 530T437 540Q423 597 392 620T314 644Q263 644 237 618T211 552Q211 518 233 495T288 453T360 414T432 368T487 304T509 213ZM451 862Q437 848 420 830T385 794T352 760T326 734Q313 721 302 713T276 705Q262 705 252 712T227 734Q217 744 202 760T169 794T134 830T102 862Q99 868 104 876T117 885Q132 877 151 868T191 847T233 825T271 803Q274 801 277 801T282 803Q299 813 320 824T362 847T402 867T436 885Q443 885 448 877T451 862Z"  />
<glyph unicode="&#x161;" horiz-adv-x="431" d="M402 152Q402 111 384 80T334 26T263 -7T179 -18Q136 -18 99 -14T35 -1Q30 1 29 4Q27 34 24 68T17 132Q21 133 27 134T39 135Q56 135 58 124Q69 79 94 56T173 33Q210 33 234 46T259 90Q259 115 243 131T203 161T152 187T100 220T60 266T44 335Q44 376 61 405T107 454T173 483T249 492Q287 492 317 489T366 481Q370 479 372 475Q374 446 376 422T381 366Q377 365 371 364T360 363Q343 363 341 374Q330 416 309 431T253 447Q215 447 199 431T182 389Q182 367 198 352T239 323T292 297T345 264T385 219T402 152ZM357 736Q350 718 341 694T321 646T302 600T285 565Q280 555 275 545T263 526T247 513T226 507Q214 507 205 512T189 526T177 545T167 565Q160 578 151 600T131 646T112 694T95 736Q94 743 102 748T117 752Q138 728 167 693T221 625Q226 622 231 625Q256 657 285 692T335 752Q342 754 350 749T357 736Z"  />
<glyph unicode="&#x178;" horiz-adv-x="684" d="M377 801Q377 769 358 749T306 728Q274 728 254 748T234 800Q234 832 253 853T305 875Q337 875 357 854T377 801ZM572 801Q572 769 553 749T502 728Q470 728 450 748T429 800Q429 832 448 853T500 875Q532 875 552 854T572 801ZM681 662Q681 653 679 649T668 643L656 639Q645 636 636 630T616 611T590 576T555 520L458 356Q447 339 444 326T441 284V135Q441 109 441 92T444 65T451 49T466 42L502 36Q515 33 515 16Q515 11 514 6T512 -3Q474 -2 432 -1T353 0Q316 0 272 -1T190 -3Q189 1 188 6T187 16Q187 33 200 36L236 42Q245 43 250 48T258 64T260 92T261 135V262Q261 285 258 297T243 327L130 521Q110 554 96 576T71 611T51 630T33 638L15 643Q7 645 5 649T3 662Q3 667 4 672T6 681Q43 680 88 679T168 678Q186 678 209 678T256 679T303 680T345 681Q346 677 347 672T348 662Q348 652 346 649T336 643L314 638Q293 633 293 617Q293 601 306 576T335 522L401 396H403L469 519Q484 546 496 571T509 613Q509 625 503 631T486 639L463 643Q455 645 453 649T451 662Q451 667 452 672T454 681Q487 680 512 679T574 678Q591 678 603 678T626 679T649 680T678 681Q679 677 680 672T681 662Z"  />
<glyph unicode="&#x17D;" horiz-adv-x="674" d="M156 862Q153 868 158 876T171 885Q186 877 205 868T245 847T287 825T325 803Q328 801 331 801T337 803Q354 813 375 824T417 847T457 867T491 885Q498 885 503 877T506 862Q492 848 475 830T440 794T406 760T380 734Q367 721 356 713T331 705Q317 705 307 712T282 734Q272 744 256 760T223 794T188 830T156 862ZM658 180Q653 162 648 140T637 94T628 47T620 5Q618 1 611 -3Q604 -2 574 -2T505 -1T421 0Q378 0 344 0Q304 0 255 0T159 -1T75 -2T21 -4Q19 1 19 10Q19 20 21 25Q36 45 57 78T99 144L382 614V617H245Q206 617 181 614T140 602T115 580T99 544L91 521Q88 513 85 510T71 507Q65 507 60 508T49 510Q50 523 52 550T57 606T62 662T65 702Q68 704 71 704T80 703Q92 703 94 696Q98 680 108 680Q114 680 129 680T165 679T214 678T271 677Q311 677 363 677T466 678T556 679T612 681Q614 676 614 667Q614 658 612 652Q607 646 598 632T578 602T556 567T536 534L254 63V60H434Q471 60 497 63T541 75T571 99T595 138L612 176Q619 190 636 186Q642 184 648 183T658 180Z"  />
<glyph unicode="&#x17E;" horiz-adv-x="521" d="M505 137Q497 108 490 71T477 3Q474 0 470 -2Q464 -1 443 -1T393 0Q365 0 334 0Q304 0 280 0Q251 0 212 0T134 -1T65 -2T23 -3Q21 0 21 9Q21 18 23 22Q35 39 49 60T76 104L260 419V421H175Q152 421 138 419T114 412T98 397T88 372L83 356Q79 345 65 345Q56 345 46 347Q47 357 48 376T50 418T52 459T54 488Q57 489 69 489Q78 489 81 484Q84 472 92 472Q99 472 126 472T185 471Q214 471 258 471T345 472T422 473T469 474Q471 471 471 462Q471 453 469 449Q465 444 459 435T445 413T430 389T417 367L235 52V50H347Q392 50 413 60T450 103L464 134Q469 145 486 142Q490 141 495 140T505 137ZM387 736Q380 718 371 694T351 646T332 600T315 565Q310 555 305 545T293 526T277 513T256 507Q244 507 235 512T219 526T207 545T197 565Q190 578 181 600T161 646T142 694T125 736Q124 743 132 748T147 752Q168 728 197 693T251 625Q256 622 261 625Q286 657 315 692T365 752Q372 754 380 749T387 736Z"  />
<glyph unicode="&#x192;" horiz-adv-x="515" d="M566 555Q566 544 560 533T543 511T520 494T498 487Q481 487 471 496T447 524Q433 544 420 556T385 569Q356 569 341 543T320 479T313 404T312 340Q313 337 319 333H443Q449 331 450 325T451 305Q451 291 450 284T443 274H315Q311 272 308 267Q306 144 284 55T224 -93T136 -180T28 -208Q11 -208 -5 -206T-34 -197T-55 -181T-64 -153Q-64 -145 -62 -135T-56 -115T-45 -100T-27 -93Q-15 -93 -5 -100T16 -116T37 -132T62 -140Q80 -140 93 -129T116 -89T131 -13T141 106Q143 151 144 192T147 267Q146 270 140 274H61Q55 276 54 282T53 302Q53 316 54 323T62 333H145Q149 334 151 340Q152 346 153 355T154 368Q158 423 180 472T239 558T327 616T436 637Q457 637 480 632T522 616T553 590T566 555Z"  />
<glyph unicode="&#x2C6;" horiz-adv-x="500" d="M381 523Q382 516 374 511T359 507Q338 531 309 567T255 635Q250 637 245 635Q220 603 191 567T141 507Q134 505 126 510T119 523Q126 541 135 565T155 614T174 659T191 695Q196 705 201 715T213 733T229 747T250 752Q262 752 271 747T287 733T299 715T309 695Q316 681 325 660T345 614T364 566T381 523Z"  />
<glyph unicode="&#x2DC;" horiz-adv-x="500" d="M427 667Q427 623 399 593T325 562Q296 562 268 573T216 598T173 623T143 635Q132 635 126 630T119 613Q119 606 122 603T128 596T135 588T138 577Q138 565 130 560T111 554Q91 554 83 571T74 606Q74 650 102 680T176 710Q205 710 233 699T285 674T328 649T358 638Q369 638 375 643T382 660Q382 667 379 670T373 677T366 684T363 695Q363 707 371 713T390 719Q410 719 418 702T427 667Z"  />
<glyph unicode="&#x3BC;" horiz-adv-x="625" d="M608 47Q608 43 608 37T606 28Q586 26 559 21T497 8Q465 0 440 -6T402 -12Q393 -12 392 -9L393 45Q391 47 384 47Q346 19 310 1T222 -18Q198 -18 182 -10Q178 -10 175 -15Q180 -46 190 -69T210 -112T227 -151T235 -193Q235 -235 212 -256T155 -278Q122 -278 98 -257T74 -193V331Q74 363 72 375T57 391L36 397Q28 399 26 403T24 416Q24 425 26 433Q45 435 69 438T128 449Q164 457 186 462T224 468Q232 468 234 465Q233 427 233 397T232 333V176Q232 157 234 139T250 105Q274 77 316 77Q335 77 349 82T375 93Q382 97 384 102T387 124V330Q387 362 385 375T369 390L327 397Q319 399 318 403T316 415Q316 425 318 433Q338 435 369 437T438 448Q476 456 499 462T538 468Q546 468 548 465Q547 427 547 397T546 333V110Q546 84 550 75T565 66L593 67Q601 68 604 64T608 47Z"  />
<glyph unicode="&#x2013;" horiz-adv-x="500" d="M491 279Q491 273 491 262Q491 252 490 241T486 220T478 207H15Q10 210 10 218T9 231Q9 237 9 247Q9 258 10 269T14 291T22 304H485Q490 301 490 293T491 279Z"  />
<glyph unicode="&#x2014;" horiz-adv-x="1000" d="M991 279Q991 273 991 262Q991 252 990 241T986 220T978 207H15Q10 210 10 218T9 231Q9 237 9 247Q9 258 10 269T14 291T22 304H985Q990 301 990 293T991 279Z"  />
<glyph unicode="&#x2018;" horiz-adv-x="257" d="M236 446Q236 407 212 385T151 363Q126 363 105 373T67 402T42 446T33 502Q33 544 46 576T82 633T132 673T190 698Q204 703 210 700T220 689Q222 684 223 679T225 669Q203 664 181 654T142 628T114 595T103 555Q103 536 115 524T147 511Q155 511 161 512T176 513Q202 513 219 493T236 446Z"  />
<glyph unicode="&#x2019;" horiz-adv-x="257" d="M224 560Q224 518 211 486T175 429T125 389T67 363Q53 358 47 361T37 372Q35 377 34 382T33 392Q55 397 77 407T116 433T144 466T155 506Q155 525 143 537T111 550Q103 550 96 550T81 549Q55 549 39 569T22 615Q22 654 46 676T106 698Q131 698 152 688T190 659T215 616T224 560Z"  />
<glyph unicode="&#x201A;" horiz-adv-x="257" d="M224 28Q224 -14 211 -46T175 -103T125 -143T67 -169Q53 -174 47 -171T37 -159Q35 -154 34 -149T33 -140Q55 -135 77 -125T116 -99T144 -65T155 -25Q155 -6 143 6T111 19Q103 19 96 18T81 17Q55 17 39 37T22 84Q22 123 46 145T106 167Q131 167 152 157T190 128T215 84T224 28Z"  />
<glyph unicode="&#x201C;" horiz-adv-x="478" d="M236 446Q236 407 212 385T151 363Q126 363 105 373T67 402T42 446T33 502Q33 544 46 576T82 633T132 673T190 698Q204 703 210 700T220 689Q222 684 223 679T225 669Q203 664 181 654T142 628T114 595T103 555Q103 536 115 524T147 511Q155 511 161 512T176 513Q202 513 219 493T236 446ZM457 446Q457 407 433 385T372 363Q347 363 326 373T288 402T263 446T254 502Q254 544 267 576T303 633T353 673T411 698Q425 703 431 700T441 689Q443 684 444 679T446 669Q424 664 402 654T363 628T335 595T324 555Q324 536 336 524T368 511Q376 511 382 512T397 513Q423 513 440 493T457 446Z"  />
<glyph unicode="&#x201D;" horiz-adv-x="478" d="M224 560Q224 518 211 486T175 429T125 389T67 363Q53 358 47 361T37 372Q35 377 34 382T33 392Q55 397 77 407T116 433T144 466T155 506Q155 525 143 537T111 550Q103 550 96 550T81 549Q55 549 39 569T22 615Q22 654 46 676T106 698Q131 698 152 688T190 659T215 616T224 560ZM445 560Q445 518 432 486T396 429T346 389T288 363Q274 358 268 361T258 372Q256 377 255 382T254 392Q276 397 298 407T337 433T365 466T376 506Q376 525 364 537T332 550Q324 550 317 550T302 549Q276 549 260 569T243 615Q243 654 267 676T327 698Q352 698 373 688T411 659T436 616T445 560Z"  />
<glyph unicode="&#x201E;" horiz-adv-x="478" d="M234 28Q234 -14 221 -46T185 -103T135 -143T77 -169Q63 -174 56 -171T46 -159Q44 -154 43 -149T42 -140Q64 -135 86 -125T125 -99T153 -65T164 -25Q164 -6 152 6T120 19Q112 19 106 18T91 17Q65 17 48 37T31 84Q31 123 55 145T116 167Q141 167 162 157T200 128T225 84T234 28ZM455 28Q455 -14 442 -46T406 -103T356 -143T298 -169Q284 -174 278 -171T268 -159Q266 -154 265 -149T263 -140Q285 -135 307 -125T346 -99T374 -65T385 -25Q385 -6 373 6T341 19Q333 19 327 18T312 17Q286 17 269 37T252 84Q252 123 276 145T337 167Q362 167 383 157T421 128T446 84T455 28Z"  />
<glyph unicode="&#x2020;" horiz-adv-x="500" d="M470 470Q470 467 470 460Q470 454 470 448T468 435T463 428L288 444Q283 442 281 437L303 -118Q301 -121 294 -123T277 -126T260 -127Q252 -127 250 -127Q248 -127 240 -127Q232 -127 223 -126T206 -123T197 -118L219 437Q218 440 212 444L37 428Q34 429 33 434T31 447T30 460Q30 467 30 470Q30 473 30 479Q30 485 30 492T32 504T37 511L212 496Q217 498 219 503L197 713Q198 716 206 718T223 721T240 722Q248 722 250 722Q252 722 260 722Q268 722 277 721T293 718T303 713L281 503Q282 500 288 496L463 511Q466 510 467 505T469 493T470 479Q470 473 470 470Z"  />
<glyph unicode="&#x2021;" horiz-adv-x="500" d="M470 145Q470 142 470 136Q470 130 469 124T467 112T463 104L288 119Q283 117 281 112L303 -118Q301 -121 294 -123T277 -126T260 -127Q252 -127 250 -127Q248 -127 240 -127Q232 -127 223 -126T207 -123T197 -118L219 112Q218 115 212 119L37 104Q34 105 33 110T31 123T30 136Q30 142 30 145Q30 148 30 154Q30 160 31 167T33 179T37 187L211 171Q216 173 218 178V417Q217 420 211 424L37 408Q34 409 33 415T31 427T30 440Q30 447 30 450Q30 453 30 459Q30 465 31 471T33 483T37 491L212 476Q217 478 219 483L197 713Q198 716 206 718T223 721T240 722Q248 722 250 722Q252 722 260 722Q268 722 277 721T293 718T303 713L281 483Q282 480 288 476L463 491Q466 489 467 484T469 472T470 459Q470 453 470 450Q470 447 470 441Q470 435 469 428T467 416T463 408L289 424Q284 422 282 417V178Q283 175 289 171L463 187Q466 185 467 180T469 168T470 154Q470 148 470 145Z"  />
<glyph unicode="&#x2022;" horiz-adv-x="515" d="M451 340Q451 298 437 263T398 201T337 160T259 145Q217 145 182 159T120 199T79 260T64 337Q64 379 78 414T117 476T177 517T255 532Q297 532 333 518T395 478T436 417T451 340Z"  />
<glyph unicode="&#x2026;" horiz-adv-x="1000" d="M233 79Q233 38 206 11T136 -16Q93 -16 66 10T38 78Q38 119 65 147T135 175Q178 175 205 148T233 79ZM597 79Q597 38 571 11T501 -16Q458 -16 431 10T403 78Q403 119 429 147T499 175Q542 175 569 148T597 79ZM962 79Q962 38 936 11T866 -16Q823 -16 795 10T767 78Q767 119 794 147T864 175Q907 175 934 148T962 79Z"  />
<glyph unicode="&#x2030;" horiz-adv-x="912" d="M178 304Q178 385 169 420T142 456Q134 456 129 451T119 433T114 396T112 334Q112 253 121 218T147 182Q155 182 161 187T170 205T176 242T178 304ZM516 142Q516 223 507 258T481 294Q473 294 468 289T458 271T453 234T451 172Q451 91 460 56T486 20Q494 20 499 25T509 43T514 80T516 142ZM799 142Q799 223 790 258T764 294Q756 294 751 289T741 271T736 234T734 172Q734 91 743 56T769 20Q777 20 782 25T792 43T797 80T799 142ZM279 316Q279 241 243 195T144 148Q78 148 45 195T12 320Q12 357 21 388T47 442T89 477T145 490Q178 490 203 477T245 441T270 386T279 316ZM183 -26Q180 -25 174 -22T162 -14T150 -6T141 1L444 501Q447 499 453 496T465 489T477 480T486 473L183 -26ZM618 156Q618 118 609 87T582 34T540 -1T484 -14Q451 -14 426 -1T384 35T359 90T350 160Q350 235 385 281T484 328Q550 328 584 281T618 156ZM901 156Q901 118 892 87T865 34T823 -1T767 -14Q734 -14 709 -1T667 35T641 90T632 160Q632 235 668 281T767 328Q833 328 867 281T901 156Z"  />
<glyph unicode="&#x2039;" horiz-adv-x="281" d="M257 73Q255 63 246 58T228 55Q208 71 181 95T126 147T71 201T25 249Q24 252 25 259Q44 280 70 307T125 361T181 412T228 453Q236 455 245 450T257 435Q251 419 241 396T218 349T194 301T172 259V249Q182 231 194 208T218 160T240 112T257 73Z"  />
<glyph unicode="&#x203A;" horiz-adv-x="281" d="M256 249Q237 228 211 201T156 147T100 96T54 55Q46 53 36 58T24 73Q30 89 40 112T63 159T87 207T109 249V259Q99 277 87 300T63 348T41 396T24 435Q26 445 36 450T54 453Q73 437 100 413T155 361T210 307T256 259Q257 256 256 249Z"  />
<glyph unicode="&#x20AC;" horiz-adv-x="515" d="M491 119Q487 91 484 65T478 12Q477 10 475 9T471 7Q439 -4 404 -11T326 -18Q235 -18 168 24T70 141Q69 145 64 148H19Q14 150 13 154T11 174Q11 189 13 194T20 202H48Q51 203 53 210Q52 217 52 223Q52 230 52 237Q52 245 52 255T54 273Q53 275 47 279H19Q14 281 13 285T11 305Q11 320 13 326T20 334H65Q69 335 71 341Q102 416 170 454T324 492Q362 492 397 486T471 467Q474 465 476 462Q478 436 480 412T484 359Q480 358 476 357T466 356Q458 356 454 357T448 364Q437 406 410 425T344 444Q290 444 264 416T226 341Q227 337 232 334H399Q404 332 405 328T407 308Q407 293 405 287T398 279H226Q221 277 219 272V252Q219 241 219 230Q219 219 220 209Q221 206 227 202H399Q404 200 405 196T407 176Q407 161 405 156T398 148H239Q236 147 234 141Q248 90 280 60T358 30Q400 30 422 53T456 114Q458 120 461 121T473 122Q478 121 482 121T491 119Z"  />
<glyph unicode="&#x2122;" horiz-adv-x="1041" d="M412 563Q409 562 405 562Q401 562 397 562Q390 562 388 563T383 571L378 589Q374 603 370 611T357 625T336 632T300 634H282Q280 630 278 618T276 577V363Q276 328 278 316T293 301L317 297Q325 296 325 283Q325 273 324 270Q298 271 269 271T214 272Q188 272 161 272T107 270Q105 276 105 283Q105 296 114 297L139 301Q152 303 154 315T156 363V577Q156 606 154 618T150 634H131Q109 634 96 632T74 625T61 612T52 589L47 571Q45 565 43 564T33 562Q29 562 24 562Q20 562 17 563Q18 573 19 591T21 628T24 665T26 692Q28 693 30 693T36 694Q46 694 47 689Q50 678 56 678Q63 678 82 677T130 676H302Q331 676 349 677T375 678Q381 678 384 689Q385 694 395 694Q399 694 401 694T405 692Q405 683 406 666T408 629T410 591T412 563ZM1012 283Q1012 276 1010 270Q984 271 956 271T901 272Q875 272 848 272T794 270Q792 276 792 283Q792 295 801 296L825 300Q838 302 840 315T842 363L840 551H839L731 270Q727 269 715 269T689 268Q676 268 664 268T648 270L539 551H538L537 414Q536 352 542 328T570 300L593 296Q602 295 602 283Q602 275 600 269Q579 269 556 270T511 272Q489 272 468 271T425 270Q423 276 423 283Q423 295 432 296L455 300Q471 303 475 327T482 413L487 588Q488 614 482 631T461 651L440 653Q432 654 432 668Q432 674 434 680Q460 678 484 678Q509 678 530 678Q553 678 573 678T613 680L619 677Q623 663 630 641T646 596Q651 581 662 551T686 488T710 426T725 383H726L803 596Q811 619 818 641T828 677Q830 678 831 678T835 680Q855 679 872 679T912 678Q931 678 957 678Q984 678 1006 680Q1008 674 1008 668Q1008 657 1000 656L982 654Q968 652 963 637T958 594L962 363Q963 329 964 316T979 300L1003 296Q1012 295 1012 283Z"  />

</font>
</defs>
</svg>
