<?xml  version="1.0" encoding="UTF-8"?>
<!DOCTYPE svg PUBLIC "-//W3C//DTD SVG 1.0//EN" "http://www.w3.org/TR/2001/REC-SVG-20010904/DTD/svg10.dtd" >
<svg xmlns="http://www.w3.org/2000/svg" >
<metadata>
<version>1.0</version>
<id><![CDATA[Sabon Next W01 Black Italic]]></id>
<vendor>Monotype Imaging Inc.</vendor>
<credits>
<name>Fonts.com WebFonts</name>
<URL>http://webfonts.fonts.com</URL>
<role>Home of the Web fonts</role>
</credits>
<license>
<URL>http://webfonts.fonts.com/Legal</URL>
</license>
<copyright><![CDATA[Copyright © 2002, 2006 Linotype GmbH, www.linotype.com. All rights reserved. This font software may not be reproduced, modified, disclosed or transferred without the express written approval of Linotype GmbH. Sabon is a trademark of Linotype GmbH and may be registered in certain jurisdictions. This typeface is original artwork of Jean Franois Porchez. The design may be protected in certain jurisdictions.]]></copyright>
<trademark><![CDATA[Sabon is a trademark of Linotype GmbH and may be registered in certain jurisdictions.]]></trademark>
<licensee>
<name></name>
</licensee>
</metadata>
<defs >
<font horiz-adv-x="555" id="1207237e-d476-416b-ad7e-5636622c8dbc">
<font-face font-family="" panose-1="2 10 10 3 3 0 0 9 0 4" ascent="940" descent="-279" units-per-em="1000" alphabetic="0">
</font-face>
<missing-glyph horiz-adv-x="0" />

<glyph unicode="&#xA;" />
<glyph unicode="&#xD;" horiz-adv-x="0" />
<glyph unicode=" " horiz-adv-x="250" />
<glyph unicode="!" horiz-adv-x="345" d="M222 79Q222 37 195 10T125 -18Q87 -18 61 6T34 69Q34 111 61 138T131 166Q169 166 195 142T222 79ZM344 620Q344 591 334 561T305 486Q290 448 273 409T239 333T208 266T183 218Q172 216 153 216T123 218Q123 281 123 339T122 448T125 539T133 611Q141 659 170 679T247 699Q267 699 285 695T316 682T336 657T344 620Z"  />
<glyph unicode="&quot;" horiz-adv-x="456" d="M483 641Q483 618 474 595T457 550L389 376Q379 350 373 336T349 321Q335 321 329 332T321 379L313 586Q311 640 331 669T408 699Q421 699 434 696T458 687T476 669T483 641ZM277 641Q277 618 268 595T251 550L183 376Q173 350 167 336T143 321Q129 321 123 332T115 379L107 586Q105 640 125 669T202 699Q215 699 228 696T252 687T270 669T277 641Z"  />
<glyph unicode="#" horiz-adv-x="450" d="M238 -7Q232 -9 220 -9Q211 -9 198 -7T179 0L214 121Q213 125 210 128H123Q118 125 117 121L79 -7Q73 -9 61 -9Q52 -9 39 -7T19 0L54 121Q53 125 50 128H-25Q-30 133 -31 145T-31 166Q-30 177 -28 191T-21 219T-11 244T2 259H87Q92 262 93 266L120 361Q119 364 116 367H44Q39 372 38 384T38 405Q39 416 41 430T48 458T58 483T71 498H154Q159 501 160 505L193 626Q198 628 204 628T216 628Q225 628 239 626T259 619L227 505Q228 501 231 498H313Q319 502 320 505L353 626Q358 628 362 628T372 628Q381 628 397 626T419 619L387 505Q388 501 391 498H461Q466 493 467 481T467 460Q466 449 464 435T457 407T447 382T434 367H350Q345 364 344 361L318 266Q319 262 322 259H392Q397 254 398 242T398 221Q397 210 395 196T388 168T378 143T365 128H282Q277 125 276 121L238 -7ZM246 259Q252 263 253 266L280 361Q279 364 276 367H191Q187 364 184 361L158 266Q159 262 162 259H246Z"  />
<glyph unicode="$" horiz-adv-x="520" d="M440 197Q440 149 421 112T371 47T298 4T213 -16Q211 -16 209 -16T205 -17Q202 -18 199 -21L182 -100Q179 -105 173 -106T151 -108Q122 -108 120 -100L138 -20Q138 -16 136 -14Q120 -12 103 -9T71 -2Q51 3 43 4T32 6Q27 6 24 4T17 0T10 -5T-2 -7Q-4 -7 -7 -7T-12 -6Q-8 16 -4 43T3 99T9 155T14 206Q19 207 24 207T34 206Q45 206 49 202T54 189L59 154Q71 63 150 49Q154 50 156 55L198 236Q198 239 195 242Q173 262 154 281T121 321T98 368T89 425Q89 466 104 504T149 572T220 619T313 637H322Q325 639 327 642L344 719Q347 724 353 725T375 727Q404 727 406 719L385 635Q385 633 388 630Q396 628 403 626T419 622Q443 615 451 613T463 610Q473 610 477 616T497 622Q499 622 502 622T507 621Q503 602 500 578T493 530T488 483T485 442Q480 441 475 441T465 441Q454 441 450 445T445 458L440 493Q435 523 418 542T376 570Q371 568 370 564L331 389Q331 385 332 384Q353 366 372 347T407 306T431 257T440 197ZM286 120Q286 138 277 155T252 189Q250 187 250 187T248 186L216 52Q216 49 219 48Q221 48 222 48T226 49Q249 53 267 71T286 120ZM242 503Q242 458 275 434Q278 436 280 439L310 572Q310 575 307 577H302Q286 575 275 567T256 547T246 524T242 503Z"  />
<glyph unicode="%" horiz-adv-x="765" d="M769 257Q769 212 756 164T717 75T650 8T557 -18Q521 -18 495 -4T452 35T427 89T419 150Q419 195 432 243T471 332T537 399T630 425Q666 425 692 411T736 372T761 318T769 257ZM643 337Q643 341 643 348T641 362T636 373T626 378Q610 378 598 352T577 292T563 226T556 182Q551 151 547 120T545 58Q545 50 547 40T561 29Q577 29 589 55T610 114T624 180T631 224Q636 252 639 280T643 337ZM141 -30Q130 -25 116 -13T95 8L623 649Q634 645 648 633T670 612L141 -30ZM345 469Q345 424 332 376T293 287T227 220T134 194Q98 194 72 208T29 247T4 301T-4 362Q-4 407 9 455T48 544T114 611T207 637Q243 637 269 623T312 584T337 530T345 469ZM219 561Q219 569 217 579T204 590Q188 590 176 564T155 505T141 439T133 395Q128 367 125 339T121 282Q121 277 121 271T123 257T128 246T138 241Q154 241 166 267T187 327T201 393T208 437Q213 468 217 499T219 561Z"  />
<glyph unicode="&amp;" horiz-adv-x="823" d="M844 497Q844 462 833 427T802 363T752 318T686 300Q662 300 645 307Q643 307 643 307T640 305Q639 299 638 293T636 281Q624 218 594 164T518 69T414 5T289 -18Q233 -18 184 0T99 51T42 131T21 236Q21 295 41 350T94 447T173 515T269 541Q287 541 307 538T344 524Q347 523 351 524L360 534Q377 553 386 573T400 613T406 653T407 691Q407 717 423 737T476 758Q511 758 525 740T540 697Q540 677 531 658T507 618T472 574T428 526L162 231Q161 229 161 228T162 224Q193 184 239 161T343 137Q390 137 431 152T504 193T559 254T590 332Q592 337 589 340Q573 353 559 366T532 391T507 409T483 417Q468 417 460 408T451 386Q451 368 460 360T482 345T503 330T513 303Q513 283 497 268T461 253Q443 253 430 261T407 281T393 310T388 344Q388 378 400 412T434 474T485 519T551 537Q586 537 615 519T668 480T711 440T749 422Q765 422 773 433T782 459Q782 474 774 485T755 506T736 526T727 551Q727 572 745 587T783 602Q801 602 813 592T832 567T841 533T844 497ZM200 443Q178 443 163 435T137 413T123 383T118 350Q118 316 130 282Q132 280 134 282L257 419Q258 423 257 427Q232 443 200 443Z"  />
<glyph unicode="&apos;" horiz-adv-x="260" d="M282 641Q282 618 273 595T256 550L188 376Q178 350 172 336T148 321Q134 321 128 332T120 379L112 586Q110 640 130 669T207 699Q220 699 233 696T257 687T275 669T282 641Z"  />
<glyph unicode="(" horiz-adv-x="338" d="M199 -118Q197 -120 193 -123T183 -130Q163 -147 151 -147T132 -137Q94 -64 72 18T50 185Q50 335 105 466T263 704Q274 715 286 710T315 690L327 678Q229 578 181 450T133 183Q133 140 136 101T146 26T166 -46T199 -118Z"  />
<glyph unicode=")" horiz-adv-x="338" d="M260 382Q260 232 205 101T47 -137Q36 -148 24 -143T-5 -123L-17 -111Q81 -11 129 117T177 384Q177 470 163 541T111 685Q113 687 117 690T127 697Q147 714 159 714T178 704Q216 631 238 549T260 382Z"  />
<glyph unicode="*" horiz-adv-x="411" d="M368 647Q367 632 355 615T326 580T292 547T263 523Q256 524 249 527T238 535Q237 558 237 580T239 625Q240 637 242 650T249 675T263 694T289 701Q300 701 314 698T340 687T361 670T368 647ZM448 492Q446 470 437 450T402 430Q387 430 369 436T331 452T295 472T266 489Q266 497 266 503T272 516Q284 521 302 527T340 538T377 547T408 551Q435 551 442 533T448 492ZM226 526Q218 510 206 505Q194 508 176 512T138 523T101 535T75 547Q58 561 59 581Q60 591 66 604T82 630T103 650T126 659Q142 659 158 643T187 605T211 561T226 526ZM341 351Q340 338 331 328T310 312T285 302T260 298Q245 298 237 304T224 319T219 339T219 363Q221 390 223 417T231 470Q245 478 258 475Q266 466 280 450T308 416T332 381T341 351ZM219 470Q212 458 200 437T173 395T142 359T109 344Q100 344 91 349T73 363Q61 376 54 392T48 421Q49 440 68 452T114 473T165 485T205 493Q210 488 214 483T219 470Z"  />
<glyph unicode="+" horiz-adv-x="500" d="M272 195V0H184V195H-7V288H184V482H271V288H463V195H272Z"  />
<glyph unicode="&#x2c;" horiz-adv-x="260" d="M198 62Q198 19 184 -20T144 -93T84 -151T10 -190Q0 -194 -6 -192T-16 -179Q-18 -172 -18 -166T-18 -156Q5 -150 28 -136T70 -103T100 -62T112 -15Q112 11 98 22T67 34Q62 34 54 34T40 33Q14 33 -2 52T-18 101Q-18 123 -10 140T11 169T41 187T78 193Q106 193 128 183T166 154T190 113T198 62Z"  />
<glyph unicode="-" horiz-adv-x="260" d="M229 287Q229 279 228 265T223 237T214 211T202 197H-4Q-11 201 -11 228Q-11 235 -10 249T-5 278T4 304T16 318H222Q229 314 229 287Z"  />
<glyph unicode="." horiz-adv-x="260" d="M187 96Q187 73 179 53T157 16T123 -9T79 -18Q37 -18 11 9T-15 78Q-15 101 -7 121T15 157T49 182T93 191Q135 191 161 165T187 96Z"  />
<glyph unicode="/" horiz-adv-x="300" d="M6 -18Q1 -17 -7 -14T-26 -6T-44 4T-56 12L300 714Q304 713 313 709T331 700T349 690T361 682L6 -18Z"  />
<glyph unicode="0" horiz-adv-x="520" d="M513 390Q513 323 494 251T436 119T339 21T205 -18Q152 -18 115 3T53 60T17 139T5 230Q5 274 13 321T39 414T82 500T142 571T219 619T313 637Q365 637 403 616T465 560T501 481T513 390ZM336 510Q336 517 336 528T333 550T324 568T307 576Q296 576 286 568T268 546Q250 516 235 458T207 334T189 207T182 109Q182 101 182 90T185 69T194 51T211 43Q222 43 232 51T250 73Q268 103 283 161T311 285T329 412T336 510Z"  />
<glyph unicode="1" horiz-adv-x="520" d="M396 -3Q377 -3 353 -3T305 -2T257 -1T215 0Q197 0 170 0T113 -1T55 -2T8 -3Q7 2 7 6T7 16Q7 36 24 38L79 43Q89 44 96 47T109 61T122 92T137 145L214 469Q223 505 177 491L79 460Q70 467 66 484Q60 507 73 511L280 586Q314 598 338 607T381 623T412 633T438 637Q450 637 454 634Q450 621 445 604T436 569T427 535T421 509L334 145Q326 112 324 93T323 63T332 48T349 43L388 38Q396 37 398 33T401 20Q401 9 396 -3Z"  />
<glyph unicode="2" horiz-adv-x="520" d="M452 485Q452 429 425 382T355 290T258 205T149 119V117H327Q350 117 365 119T390 126T408 140T424 162Q429 170 433 173T449 175Q454 175 459 174T469 172Q466 158 460 135T448 88T435 41T426 5Q423 2 419 -1Q414 0 385 0T319 1T246 1T188 0Q163 0 133 0T74 -1T23 -1T-10 -2Q-11 1 -11 12T-11 36T-9 60T-5 77Q34 103 78 138T159 217T220 314T245 427Q245 478 223 502T170 527Q144 527 124 516T89 491Q85 493 84 495T77 503Q71 509 71 516T84 539Q122 585 173 611T288 637Q315 637 344 629T397 602T436 554T452 485Z"  />
<glyph unicode="3" horiz-adv-x="520" d="M452 202Q452 148 427 99T356 12T246 -48T103 -71Q64 -71 35 -64T-14 -45T-44 -18T-54 12Q-54 24 -48 37T-33 61T-13 79T10 86Q25 86 36 72T60 40T89 9T132 -6Q167 -6 190 14T228 64T247 125T253 180Q253 231 230 252T170 273Q153 273 138 269T112 265Q96 265 91 288Q90 292 90 297T90 306Q125 318 157 331T213 363T252 404T267 458Q267 477 261 491T244 514T222 527T198 531Q169 531 147 522T107 500Q103 503 97 511T90 524Q90 529 92 534T103 548Q145 586 195 611T306 637Q337 637 366 629T416 604T451 563T464 507Q464 471 446 444T400 396T339 361T277 338V335Q311 342 342 337T398 314T437 268T452 202Z"  />
<glyph unicode="4" horiz-adv-x="520" d="M358 -56Q356 -59 345 -60T318 -62T286 -63T260 -64Q249 -64 233 -64T202 -63T175 -61T162 -56L200 114Q200 117 196 121H73Q44 121 20 121T-33 118Q-32 127 -30 140T-25 166T-18 191T-10 209Q0 218 30 247T96 318L266 511Q299 549 322 575T363 624Q369 626 391 626T440 627T488 626T516 624Q508 595 502 567T488 507L424 228Q424 225 428 221H490Q495 218 493 204T485 171Q480 152 477 138T467 121H405Q401 118 398 114L358 -56ZM220 221Q224 224 227 228L273 420H271L96 223V221H220Z"  />
<glyph unicode="5" horiz-adv-x="520" d="M436 180Q436 132 414 87T351 7T251 -49T121 -71Q103 -71 77 -68T27 -55T-14 -30T-31 12Q-31 24 -25 37T-10 61T10 79T32 86Q49 86 61 72T88 40T123 9T174 -6Q188 -6 204 -1T234 18T257 51T266 102Q266 138 251 168T212 222T159 267T102 305Q100 314 101 317L231 619H522Q529 613 529 601Q529 592 526 575T518 539T506 505T492 485H255Q250 483 247 479L235 447Q234 444 235 443T237 439Q276 415 312 388T375 330T419 261T436 180Z"  />
<glyph unicode="6" horiz-adv-x="520" d="M496 233Q496 176 477 130T423 51T341 0T238 -18Q133 -18 70 39T7 205Q7 267 26 325T79 434T161 527T266 598T388 644T522 661Q545 661 556 658T570 640Q571 635 571 628T571 616Q479 610 410 569T294 463T224 313T200 136Q200 88 209 66T243 43Q263 43 275 64T294 113T303 170T306 215Q306 229 305 245T298 276T283 299T257 309Q246 309 243 308Q241 311 240 317T237 328Q235 339 246 348Q270 368 298 382T360 396Q394 396 419 382T462 345T487 292T496 233Z"  />
<glyph unicode="7" horiz-adv-x="520" d="M153 -71Q144 -72 130 -67T103 -53T78 -35T64 -20L394 471V474H205Q182 474 167 471T141 462T123 446T107 422Q102 414 98 411T82 409Q77 409 72 410T62 413Q65 426 71 454T85 514T98 573T108 614Q109 617 115 621Q120 620 145 620T204 619T270 619T324 619Q349 619 382 619T447 620T504 621T540 622Q541 619 541 609T540 586T538 562T535 545Q523 531 501 496T453 419L153 -71Z"  />
<glyph unicode="8" horiz-adv-x="520" d="M469 174Q469 134 452 99T401 38T317 -3T201 -18Q161 -18 125 -10T61 14T17 57T0 118Q0 151 11 177T41 224T87 261T144 289V291Q124 313 109 332T83 370T67 410T62 458Q62 494 78 526T126 583T206 622T317 637Q353 637 387 628T449 602T493 559T510 500Q510 468 499 445T470 404T429 373T380 349V348Q420 307 444 267T469 174ZM259 120Q259 157 237 185T191 240Q188 242 187 242T182 240Q160 214 147 182T133 116Q133 103 137 90T148 67T167 49T194 42Q210 42 222 49T242 67T254 92T259 120ZM380 510Q380 534 367 556T324 578Q292 578 277 556T262 508Q262 492 268 477T285 448T307 421T330 396Q334 395 338 396Q355 421 367 450T380 510Z"  />
<glyph unicode="9" horiz-adv-x="520" d="M509 414Q509 317 468 229T358 72T196 -36T0 -77Q-23 -77 -34 -74T-48 -56Q-49 -51 -49 -44T-49 -32Q43 -26 111 18T225 132T293 292T316 483Q316 531 307 553T273 576Q253 576 241 555T221 506T212 449T210 404Q210 392 211 376T218 345T232 320T259 310Q270 310 273 311Q275 308 276 302T279 291Q281 280 270 271Q246 251 218 237T156 223Q122 223 97 237T54 274T29 326T20 387Q20 444 39 490T93 568T175 619T278 637Q383 637 446 580T509 414Z"  />
<glyph unicode=":" horiz-adv-x="260" d="M187 96Q187 73 179 53T157 16T123 -9T79 -18Q37 -18 11 9T-15 78Q-15 101 -7 121T15 157T49 182T93 191Q135 191 161 165T187 96ZM255 387Q255 364 247 344T225 307T191 282T147 273Q105 273 79 300T53 369Q53 392 61 412T83 448T117 473T161 482Q203 482 229 456T255 387Z"  />
<glyph unicode=";" horiz-adv-x="260" d="M198 62Q198 19 184 -20T144 -93T84 -151T10 -190Q0 -194 -6 -192T-16 -179Q-18 -172 -18 -166T-18 -156Q5 -150 28 -136T70 -103T100 -62T112 -15Q112 11 98 22T67 34Q62 34 54 34T40 33Q14 33 -2 52T-18 101Q-18 123 -10 140T11 169T41 187T78 193Q106 193 128 183T166 154T190 113T198 62ZM256 387Q256 364 248 344T226 307T192 282T148 273Q106 273 80 300T54 369Q54 392 62 412T84 448T118 473T162 482Q204 482 230 456T256 387Z"  />
<glyph unicode="&lt;" horiz-adv-x="500" d="M1 196V288L471 489V382L119 242L471 103V-4L1 196Z"  />
<glyph unicode="=" horiz-adv-x="500" d="M-7 65V158H463V65H-7ZM-7 317V410H463V317H-7Z"  />
<glyph unicode="&gt;" horiz-adv-x="500" d="M-10 -4V103L342 243L-10 382V489L460 289V197L-10 -4Z"  />
<glyph unicode="?" horiz-adv-x="423" d="M244 79Q244 37 217 10T147 -18Q109 -18 83 6T56 69Q56 111 83 138T153 166Q191 166 217 142T244 79ZM416 497Q416 454 401 427T361 384T310 358T259 340T220 321T204 293Q204 278 214 270T240 261Q255 261 265 263T289 266Q322 266 322 230Q322 209 313 194T281 179Q251 179 218 195T156 238T110 302T91 379Q91 420 106 446T145 488T196 515T247 533T286 552T302 580Q302 612 267 612Q252 612 241 607T219 597T197 586T172 581Q159 581 150 588T134 607T125 631T122 655Q122 662 124 670T134 684T155 695T190 699Q231 699 271 685T344 645T396 582T416 497Z"  />
<glyph unicode="@" horiz-adv-x="838" d="M804 345Q804 286 783 229T720 128T620 57T485 30Q453 30 432 42T411 87Q411 106 417 126T432 171H431Q415 148 395 124T350 78T297 44T236 30Q197 30 178 53T158 112Q158 170 187 231T261 341T362 422T472 454Q493 454 514 450T546 430H547L552 440Q559 454 565 459T591 465Q614 465 639 465T683 463Q678 452 671 432T655 391L567 147Q565 141 562 129T559 110Q559 98 578 98Q604 98 632 117T683 167T721 240T736 328Q736 392 716 437T662 512T579 554T476 567Q385 567 318 531T206 437T139 307T117 163Q117 97 141 50T207 -28T302 -73T416 -88Q468 -88 520 -76T618 -36Q625 -44 631 -56T637 -79Q637 -90 626 -96T606 -106Q555 -129 501 -138T389 -148Q311 -148 243 -129T123 -69T42 33T12 180Q12 275 49 356T151 496T299 589T476 623Q540 623 599 606T704 555T777 468T804 345ZM476 350Q476 381 447 381Q421 381 400 356T363 298T339 233T330 187Q330 175 335 167T351 158Q361 158 377 172T410 208T441 253T462 296L473 330Q476 342 476 350Z"  />
<glyph unicode="A" horiz-adv-x="739" d="M676 -3Q638 -3 593 -2T511 0Q493 0 472 0T429 -1T384 -2T343 -3Q342 2 342 6T342 16Q342 27 346 31T359 38L390 43Q400 44 406 48T415 63T417 93T412 145L402 221Q400 226 395 227H204Q199 225 195 221L170 175Q159 155 150 133T137 92T138 59T161 42L186 38Q194 36 196 32T199 20Q199 9 194 -3Q156 -3 128 -2T65 0Q47 0 34 0T7 -1T-21 -2T-55 -3Q-56 2 -56 6T-56 16Q-56 27 -52 31T-39 38L-22 42Q-14 44 -7 49T10 66T31 97T60 146L371 684Q372 686 383 687T410 689T446 690T481 690T509 688T521 684L607 145Q612 112 617 93T628 64T641 49T657 42L668 38Q676 35 678 32T681 20Q681 9 676 -3ZM386 289Q390 292 393 296L363 526H361L236 296Q236 292 241 289H386Z"  />
<glyph unicode="B" horiz-adv-x="703" d="M644 214Q644 176 628 141T585 78Q562 54 535 39T477 16T415 4T352 0H134Q116 0 92 0T43 -1T-7 -2T-51 -3Q-52 2 -52 6T-52 16Q-52 27 -48 31T-35 38L-2 43Q8 44 15 48T29 62T42 92T56 145L146 533Q154 566 156 585T157 615T148 629T131 635L102 640Q94 642 92 646T89 658Q89 669 94 681Q113 681 135 681T181 680T225 679T265 678Q319 678 370 681T476 685Q510 685 544 678T606 654T651 609T668 541Q668 505 652 476T611 424T555 386T492 364V362Q522 358 549 347T598 318T631 273T644 214ZM434 228Q434 280 406 303T342 326H301Q296 324 295 321L256 160Q248 127 245 107T243 76T252 61T274 57H295Q330 57 356 72T399 111T425 165T434 228ZM460 541Q460 586 443 606T397 626Q381 626 368 621Q360 601 355 581T345 541L309 389Q309 382 313 380H344Q372 380 390 390T426 424Q442 446 451 478T460 541Z"  />
<glyph unicode="C" horiz-adv-x="696" d="M629 193Q622 172 615 147T600 97T586 49T574 6Q572 5 568 5T562 5Q548 5 543 11T529 18Q522 18 515 15T493 7Q451 -5 413 -11T332 -18Q264 -18 207 2T109 61T46 154T23 276Q23 358 51 434T133 568T264 661T441 696Q480 696 508 692T569 675Q576 672 586 668T605 660T620 654T629 651Q634 651 637 653T643 658T649 663T661 666Q663 666 667 666T673 665Q670 647 666 621T659 567T652 512T646 467Q641 466 635 466T624 466Q605 466 602 485L596 525Q592 551 580 570T550 601T511 620T469 626Q426 626 392 608T331 559T287 489T257 410T240 329T234 258Q234 215 241 178T267 112T315 68T390 51Q456 51 497 78T566 162L581 193Q589 211 612 202Q617 200 620 198T629 193Z"  />
<glyph unicode="D" horiz-adv-x="793" d="M770 393Q770 360 763 324T742 251T705 178T651 111Q599 59 520 30T351 0H129Q111 0 88 0T40 -1T-8 -2T-51 -3Q-52 2 -52 6T-52 16Q-52 27 -48 31T-35 38L-2 43Q8 44 15 48T29 62T42 92T56 145L146 533Q154 566 156 585T157 615T148 629T131 635L102 640Q94 642 92 646T89 658Q89 669 94 681Q113 681 134 681T177 680T219 679T258 678Q276 678 302 679T358 681T416 684T466 685Q530 685 585 666T682 610T746 519T770 393ZM554 408Q554 444 548 481T526 549T483 600T412 620Q401 620 388 618T366 614Q361 603 355 584T344 541L258 166Q251 136 249 117T248 87T259 71T282 67H305Q368 67 413 98T491 180Q523 230 538 290T554 408Z"  />
<glyph unicode="E" horiz-adv-x="640" d="M573 179Q568 165 561 140T547 87T534 37T526 5Q522 -1 518 -2Q511 0 475 0T375 0H134Q116 0 92 0T43 -1T-7 -2T-51 -3Q-52 2 -52 6T-52 16Q-52 27 -48 31T-35 38L-2 43Q8 44 15 48T29 62T42 92T56 145L146 533Q154 566 156 585T157 615T148 629T131 635L102 640Q94 642 92 646T89 658Q89 669 94 681Q113 681 135 681T181 680T225 679T265 678H464Q525 678 557 678T598 680Q604 676 605 672Q603 663 600 640T594 590T589 538T585 497Q580 496 574 496T562 496Q541 496 540 515L535 555Q534 565 531 575T518 593T489 607T436 613H368Q363 604 357 583T340 520L309 389Q309 385 313 381H362Q390 381 407 383T435 389T450 399T458 416L466 438Q469 446 474 448T487 450Q493 450 500 449T511 446Q508 437 505 423T498 394T491 366T486 345Q484 337 481 324T475 296T470 266T465 239Q460 237 453 237T440 237Q423 237 425 252L427 277Q428 284 427 291T417 304T393 312T347 316H298Q294 313 291 309L262 184Q254 148 251 125T250 89T263 70T291 65H367Q396 65 417 68T453 80T481 104T506 143L525 179Q534 195 553 188Q558 186 563 184T573 179Z"  />
<glyph unicode="F" horiz-adv-x="579" d="M325 -3Q306 -3 281 -3T229 -2T177 -1T134 0Q116 0 92 0T43 -1T-7 -2T-51 -3Q-52 2 -52 6T-52 16Q-52 27 -48 31T-35 38L-2 43Q8 44 15 48T29 62T42 92T56 145L146 533Q154 566 156 585T157 615T148 629T131 635L102 640Q94 642 92 646T89 658Q89 669 94 681Q113 681 135 681T181 680T225 679T265 678H462Q523 678 555 678T596 680Q602 676 603 672Q601 663 598 640T592 590T587 538T583 497Q578 496 572 496T560 496Q539 496 538 515L533 555Q532 565 529 575T516 593T487 607T434 613H368Q363 604 357 583T340 520L309 389Q309 385 313 381H360Q388 381 405 383T433 389T448 399T456 416L464 438Q467 446 472 448T485 450Q491 450 498 449T509 446Q506 437 503 423T496 394T489 366T484 345Q482 337 479 322T472 291T466 258T461 229Q456 227 449 227T436 227Q419 227 421 242L425 277Q426 284 425 291T415 304T391 312T345 316H298Q294 313 291 309L253 145Q245 113 244 94T245 64T255 49T272 44L317 38Q325 37 327 33T330 20Q330 9 325 -3Z"  />
<glyph unicode="G" horiz-adv-x="757" d="M728 286Q729 281 729 277T729 267Q729 256 725 252T712 245L683 240Q674 238 667 235T653 221T640 191T626 138L620 112Q611 74 611 57T614 31Q612 29 611 26T607 20Q583 11 554 4T493 -8T429 -15T367 -18Q292 -18 229 1T121 58T49 149T23 271Q23 353 49 429T130 565T265 660T455 696Q492 696 528 691T599 675Q608 672 618 668T637 661T653 654T664 651Q670 651 673 653T679 658T686 663T699 666Q701 666 705 666T712 665Q708 644 704 618T696 565T689 512T684 467Q679 466 672 466T660 466Q649 466 645 471T638 485L632 525Q628 552 612 571T575 603T531 620T488 626Q440 626 403 609T337 562T290 495T258 416T240 332T234 252Q234 215 242 178T267 112T311 65T377 46Q396 46 411 53Q415 61 419 76T427 109L434 138Q442 171 443 190T442 220T431 235T413 240L368 245Q360 246 358 250T355 263Q355 274 360 286Q379 286 404 286T456 285T508 284T551 283Q569 283 591 283T638 284T685 285T728 286Z"  />
<glyph unicode="H" horiz-adv-x="827" d="M733 -3Q714 -3 692 -3T646 -2T602 -1T562 0Q544 0 520 0T471 -1T421 -2T377 -3Q376 2 376 6T376 16Q376 27 380 31T393 38L426 43Q436 44 443 48T456 62T469 92T484 145L523 312Q523 314 519 318H298Q293 316 292 312L253 145Q245 112 243 93T243 64T251 49T268 43L297 38Q305 36 307 32T310 20Q310 9 305 -3Q286 -3 264 -3T218 -2T174 -1T134 0Q116 0 92 0T43 -1T-7 -2T-51 -3Q-52 2 -52 6T-52 16Q-52 27 -48 31T-35 38L-2 43Q8 44 15 48T29 62T42 92T56 145L146 533Q154 566 156 585T157 615T148 629T131 635L102 640Q94 642 92 646T89 658Q89 669 94 681Q113 681 135 681T181 680T225 679T265 678Q283 678 307 678T356 679T406 680T450 681Q451 676 451 672T451 662Q451 651 447 647T434 640L401 635Q391 633 384 630T371 616T358 586T343 533L311 395Q311 393 315 389H536Q540 390 542 395L574 533Q582 566 584 585T585 615T576 629T559 635L530 640Q522 642 520 646T517 658Q517 669 522 681Q541 681 563 681T609 680T653 679T693 678Q711 678 735 678T784 679T834 680T878 681Q879 676 879 672T879 662Q879 651 875 647T862 640L829 635Q819 633 812 630T799 616T786 586T771 533L681 145Q673 112 671 93T671 63T679 49T696 43L725 38Q733 36 735 32T738 20Q738 9 733 -3Z"  />
<glyph unicode="I" horiz-adv-x="399" d="M305 -3Q286 -3 264 -3T218 -2T174 -1T134 0Q116 0 92 0T43 -1T-7 -2T-51 -3Q-52 2 -52 6T-52 16Q-52 27 -48 31T-35 38L-2 43Q8 44 15 48T29 62T42 92T56 145L146 533Q154 566 156 585T157 615T148 629T131 635L102 640Q94 642 92 646T89 658Q89 669 94 681Q113 681 135 681T181 680T225 679T265 678Q283 678 307 678T356 679T406 680T450 681Q451 676 451 672T451 662Q451 651 447 647T434 640L401 635Q391 633 384 630T371 616T358 586T343 533L253 145Q245 112 243 93T243 63T251 49T268 43L297 38Q305 36 307 32T310 20Q310 9 305 -3Z"  />
<glyph unicode="J" horiz-adv-x="397" d="M257 161Q233 57 195 -18T109 -141T8 -213T-102 -236Q-141 -236 -165 -230T-203 -213T-221 -193T-226 -175Q-226 -163 -220 -148T-205 -118T-183 -95T-157 -85Q-142 -85 -132 -97T-111 -123T-89 -149T-61 -161Q-46 -161 -34 -147T-9 -102T16 -21T46 100L146 533Q153 566 155 585T156 615T146 629T129 635L92 640Q84 641 82 645T79 658Q79 669 84 681Q103 681 127 681T175 680T223 679T265 678Q283 678 307 678T356 679T406 680T450 681Q451 676 451 672T451 662Q451 651 447 647T434 640L401 635Q391 633 384 630T370 616T357 586T343 533L257 161Z"  />
<glyph unicode="K" horiz-adv-x="792" d="M716 -3Q711 -2 687 -2T635 -1T579 -1T538 -2Q510 -2 491 5T457 26T431 59T407 105Q398 125 391 140T378 171T364 202T346 240Q334 266 326 280T311 306Q309 308 309 308T306 309H297Q296 308 294 307T291 304L253 145Q245 112 243 93T242 64T251 49T268 43L297 38Q305 36 307 32T310 20Q310 9 305 -3Q286 -3 264 -3T218 -2T174 -1T134 0Q116 0 92 0T43 -1T-7 -2T-51 -3Q-52 2 -52 6T-52 16Q-52 27 -48 31T-35 38L-2 43Q8 44 15 48T29 62T42 92T56 145L146 533Q154 566 156 585T157 615T148 629T131 635L102 640Q94 642 92 646T89 658Q89 669 94 681Q113 681 135 681T181 680T225 679T265 678Q283 678 307 678T356 679T406 680T450 681Q451 676 451 672T451 662Q451 651 447 647T434 640L401 635Q391 633 384 630T371 616T358 586T343 533L306 375Q306 370 310 366Q321 366 330 366T350 371T372 385T400 411L517 533Q547 564 560 583T574 613T570 628T555 635L536 640Q523 644 523 658Q523 669 528 681Q565 680 593 679T657 678Q692 678 722 679T790 681Q791 676 791 672T791 662Q791 651 787 647T774 640L759 636Q747 633 737 628T713 612T680 583T632 536L479 386Q478 383 478 381T478 375Q487 361 500 338T528 289T558 236T586 184Q600 158 612 134T637 91T663 59T693 42L708 38Q721 34 721 20Q721 9 716 -3Z"  />
<glyph unicode="L" horiz-adv-x="613" d="M553 189Q548 175 541 148T527 92T514 39T506 5Q502 -1 498 -2Q491 0 455 0T355 0H134Q116 0 92 0T43 -1T-7 -2T-51 -3Q-52 2 -52 6T-52 16Q-52 27 -48 31T-35 38L-2 43Q8 44 15 48T29 62T42 92T56 145L146 533Q154 566 156 585T157 615T148 629T131 635L102 640Q94 642 92 646T89 658Q89 669 94 681Q113 681 135 681T181 680T225 679T265 678Q283 678 308 678T361 679T415 680T460 681Q461 676 461 672T461 662Q461 651 457 647T444 640L404 634Q394 632 387 629T372 616T358 586T343 533L262 184Q254 148 251 125T250 89T263 70T291 65H345Q374 65 395 68T433 80T461 104T484 143L505 189Q513 207 533 198Q538 196 543 194T553 189Z"  />
<glyph unicode="M" horiz-adv-x="917" d="M848 -3Q829 -3 806 -3T758 -2T712 -1T671 0Q653 0 632 0T589 -1T545 -2T504 -3Q503 2 503 6T503 16Q503 27 507 31T520 38L551 43Q561 44 567 48T578 62T586 92T595 145L634 426H632L406 -10Q403 -11 386 -12T348 -13T310 -13T290 -10L207 418H205L161 216Q149 163 145 130T142 79T151 53T172 43L199 38Q207 36 209 32T212 20Q212 9 207 -3Q188 -3 174 -3T147 -2T121 -1T89 0Q71 0 57 0T28 -1T-2 -2T-36 -3Q-37 2 -37 6T-37 16Q-37 27 -33 31T-20 38L13 43Q22 44 29 51T43 76T60 128T81 216L154 537Q157 550 158 564T157 592T142 617T107 635L86 640Q78 642 76 646T73 658Q73 669 78 681Q85 681 100 681T132 680T164 679T187 678Q193 678 216 678T267 678T319 679T352 681Q354 680 356 679T360 676Q362 659 366 629T376 563L438 202H440L621 562Q640 600 652 629T672 676Q676 679 682 681Q688 680 705 680T741 679T778 678T804 678Q839 678 870 679T940 681Q941 676 941 672T941 662Q941 651 937 647T924 640L893 635Q885 633 877 630T863 616T850 586T840 533L787 145Q782 112 781 93T782 63T791 48T807 43L840 38Q848 36 850 32T853 20Q853 9 848 -3Z"  />
<glyph unicode="N" horiz-adv-x="765" d="M669 -3Q654 -2 629 -1T588 0Q571 0 549 0T505 0T465 -1T440 -3Q435 -2 431 2Q423 23 411 49T381 115L222 467H220L173 246Q160 187 156 148T153 86T163 54T185 43L233 38Q241 37 243 33T246 20Q246 9 241 -3Q203 -2 163 -1T87 0Q69 0 55 0T26 -1T-4 -2T-37 -3Q-38 2 -38 6T-38 16Q-38 27 -34 31T-21 38L12 43Q21 44 28 51T43 76T60 128T81 216L157 562Q159 570 157 576Q149 593 141 603T125 620T108 629T88 635L67 640Q59 642 57 646T54 658Q54 669 59 681Q66 681 81 681T114 680T147 679T171 678Q177 678 200 678T251 678T302 679T334 681Q339 680 343 676Q350 656 362 627T390 563L550 208H552L600 432Q613 492 617 530T620 592T610 624T588 635L540 640Q532 641 530 645T527 658Q527 669 532 681Q570 680 607 679T679 678Q714 678 743 679T810 681Q811 676 811 672T811 662Q811 651 807 647T794 640L761 635Q752 633 745 627T730 602T713 550T692 462L612 99Q610 94 612 88Q626 59 637 50T654 39L661 38Q669 36 671 32T674 20Q674 9 669 -3Z"  />
<glyph unicode="O" horiz-adv-x="786" d="M763 392Q763 302 731 227T643 97T510 12T347 -18Q281 -18 222 3T119 63T49 159T23 286Q23 376 55 451T143 581T276 666T439 696Q505 696 564 675T667 615T737 519T763 392ZM555 434Q555 463 551 498T534 563T498 614T436 635Q398 635 368 614T315 559T276 483T250 397T236 313T231 244Q231 215 235 180T252 115T288 64T350 43Q388 43 418 64T471 119T510 195T536 281T550 365T555 434Z"  />
<glyph unicode="P" horiz-adv-x="654" d="M325 -3Q306 -3 281 -3T229 -2T177 -1T134 0Q116 0 92 0T43 -1T-7 -2T-51 -3Q-52 2 -52 6T-52 16Q-52 27 -48 31T-35 38L-2 43Q8 44 15 48T29 62T42 92T56 145L146 533Q154 566 156 585T157 615T148 629T131 635L102 640Q94 642 92 646T89 658Q89 669 94 681Q132 680 173 679T265 678Q309 678 351 681T453 685Q495 685 534 675T603 642T651 587T669 508Q669 447 645 399T581 318T487 267T375 249Q338 249 328 256T317 276Q317 284 320 295T329 311Q334 310 339 310T349 309Q383 309 404 332T438 388T456 457T461 519Q461 567 445 596T390 626Q380 626 368 621Q360 601 355 581T345 541L253 145Q245 113 244 94T245 64T255 49T272 44L317 38Q325 37 327 33T330 20Q330 9 325 -3Z"  />
<glyph unicode="Q" horiz-adv-x="796" d="M768 392Q768 298 736 223T643 93Q620 73 593 55T531 21T453 -10T354 -39L217 -74V-76Q378 -112 474 -133T619 -155Q662 -155 692 -142T747 -108Q755 -101 762 -94T777 -80Q782 -82 785 -85T793 -91Q799 -96 802 -103T800 -117Q771 -151 740 -180T674 -231T597 -265T507 -278Q455 -278 397 -269T276 -236L125 -181Q71 -161 31 -153T-35 -146Q-38 -137 -39 -124T-38 -102Q-12 -96 16 -88T65 -74L280 -13L279 -11Q226 -1 180 24T100 88T47 176T28 286Q28 376 60 451T148 581T281 666T444 696Q510 696 569 675T672 615T742 519T768 392ZM560 434Q560 463 556 498T539 563T503 614T441 635Q403 635 373 614T320 559T281 483T255 397T241 313T236 244Q236 215 240 180T257 115T293 64T355 43Q393 43 423 64T476 119T515 195T541 281T555 365T560 434Z"  />
<glyph unicode="R" horiz-adv-x="773" d="M705 -3Q700 -2 677 -2T627 -1T573 -1T533 -2Q503 -2 484 5T450 25T426 59T404 105Q395 126 388 143T373 178T357 213T340 252Q332 270 327 282T314 306Q312 309 308 310H296Q291 307 291 305L253 145Q245 112 243 93T242 64T251 49T268 43L297 38Q305 36 307 32T310 20Q310 9 305 -3Q286 -3 264 -3T218 -2T174 -1T134 0Q116 0 92 0T43 -1T-7 -2T-51 -3Q-52 2 -52 6T-52 16Q-52 27 -48 31T-35 38L-2 43Q8 44 15 48T29 62T42 92T56 145L146 533Q154 566 156 585T157 615T148 629T131 635L102 640Q94 642 92 646T89 658Q89 669 94 681Q113 681 135 681T181 680T225 679T265 678Q319 678 370 681T475 685Q509 685 544 678T607 653T653 607T671 536Q671 495 656 464T616 409T561 371T499 350Q495 348 496 343Q506 327 517 307T539 265T562 221T585 179Q599 152 611 129T636 87T660 56T688 40L697 38Q705 36 707 32T710 20Q710 9 705 -3ZM463 536Q463 561 457 578T442 606T423 621T403 626Q395 626 385 625T368 621Q360 601 355 581T345 541L305 373Q305 365 309 364H343Q370 364 391 377T427 412Q445 437 454 470T463 536Z"  />
<glyph unicode="S" horiz-adv-x="514" d="M460 218Q460 162 436 119T371 45T281 -2T180 -18Q149 -18 121 -14T63 -1Q40 5 32 6T20 8Q14 8 11 6T4 1T-4 -4T-17 -6Q-19 -6 -22 -6T-28 -5Q-24 19 -20 48T-12 106T-5 165T0 218Q5 219 11 219T22 219Q33 219 37 214T44 200L49 166Q57 109 92 81T182 52Q224 52 251 73T278 133Q278 155 270 174T247 211T213 246T171 281Q152 297 135 315T104 356T82 405T74 464Q74 510 92 552T144 626T225 677T331 696Q363 696 386 692T435 680Q461 672 470 669T483 666Q489 666 492 668T498 673T507 678T520 680Q522 680 525 680T531 679Q527 658 523 632T516 579T511 527T507 483Q502 482 496 482T485 482Q474 482 470 487T463 501L457 539Q450 584 417 607T341 630Q317 630 300 623T273 604T257 578T252 550Q252 526 262 506T287 469T321 436T356 406Q378 386 397 366T430 324T452 275T460 218Z"  />
<glyph unicode="T" horiz-adv-x="680" d="M442 -3Q423 -3 401 -3T355 -2T311 -1T271 0Q253 0 229 0T180 -1T130 -2T86 -3Q85 2 85 6T85 16Q85 27 89 31T102 38L135 43Q145 44 152 48T166 62T179 92T193 145L279 516Q289 558 291 578T294 609H238Q209 609 191 605T161 593T142 574T129 548L109 502Q105 494 101 489T85 486Q80 487 74 487T62 490Q66 509 72 537T83 594T93 651T100 696Q102 696 106 696T113 697Q121 697 125 695T133 689T139 683T147 678Q157 675 182 675T250 674H566Q608 674 633 674T669 678Q674 680 677 683T683 689T690 694T703 697Q706 697 710 697T716 696Q713 684 708 655T699 594T690 531T685 486Q680 485 674 485T663 485Q642 485 641 504L637 551Q636 561 634 571T621 590T592 603T539 609H504Q499 600 493 579T476 516L390 145Q382 112 380 93T380 63T388 49T405 43L434 38Q442 36 444 32T447 20Q447 9 442 -3Z"  />
<glyph unicode="U" horiz-adv-x="701" d="M297 -18Q244 -18 199 -5T120 33T67 92T48 171Q48 194 52 217T61 264L125 533Q133 566 135 585T136 614T127 629T110 635L81 640Q73 642 71 646T68 658Q68 669 73 681Q92 681 114 681T160 680T204 679T244 678Q262 678 286 678T335 679T385 680T429 681Q430 676 430 672T430 662Q430 651 426 647T413 640L380 635Q370 633 363 630T350 616T337 586T322 533L253 238Q245 201 245 170Q245 151 250 132T267 98T298 73T345 63Q382 63 408 77T451 115T480 167T498 227L541 414Q555 477 561 518T567 585T557 622T531 635L495 640Q487 641 485 645T482 658Q482 669 487 681Q506 681 521 681T552 680T587 679T632 678Q667 678 696 679T764 681Q765 676 765 672T765 662Q765 651 761 647T748 640L715 635Q705 633 698 626T684 601T668 550T646 462L586 207Q561 100 492 41T297 -18Z"  />
<glyph unicode="V" horiz-adv-x="720" d="M363 -6Q361 -9 338 -10T288 -12T239 -11T214 -6L123 533Q117 566 113 585T103 614T91 628T75 636L66 640Q58 643 56 646T53 658Q53 669 58 681Q96 680 140 679T220 678Q256 678 302 679T386 681Q387 676 387 672T387 662Q387 651 383 647T370 640L339 635Q330 633 324 629T314 615T312 585T318 533L372 166H374L545 503Q555 524 565 546T578 587T577 619T554 636L528 640Q520 642 518 646T515 658Q515 669 520 681Q558 680 589 679T656 678Q674 678 687 678T712 679T738 680T771 681Q772 676 772 672T772 662Q772 651 768 647T755 640L738 636Q730 634 723 629T706 612T684 581T656 532L363 -6Z"  />
<glyph unicode="W" horiz-adv-x="1047" d="M690 -6Q688 -9 668 -10T623 -12T579 -11T557 -6L510 227H509L370 -6Q368 -9 348 -10T303 -12T259 -11T237 -6L124 533Q117 566 112 585T102 614T91 629T76 636L66 640Q58 643 56 646T53 658Q53 669 58 681Q96 680 140 679T219 678Q254 678 291 679T367 681Q368 676 368 672T368 662Q368 651 364 647T351 640L335 635Q328 633 323 629T314 614T312 584T319 533L387 163H389L489 324Q490 327 490 334L450 533Q443 567 438 587T427 617T415 632T402 638L394 640Q386 642 384 646T381 658Q381 669 386 681Q424 680 459 679T529 678Q547 678 562 678T592 679T622 680T657 681Q658 676 658 672T658 662Q658 651 654 647T641 640L630 637Q623 635 619 631T612 615T611 585T619 533L631 464H632L669 532Q688 567 695 587T702 617T697 631T688 637L681 640Q673 643 671 646T668 658Q668 669 673 681Q704 679 727 679T773 678Q796 678 821 679T863 681Q864 676 864 672T864 662Q864 651 860 647T847 640L843 639Q831 636 822 630T803 611T782 580T753 532L659 372Q658 370 657 367T657 361L697 165H699L889 532Q908 568 913 589T916 620T908 634T897 639L891 640Q883 642 881 646T878 658Q878 669 883 681Q910 681 935 680T985 678Q1011 678 1041 679T1098 681Q1099 676 1099 672T1099 662Q1099 651 1095 647T1082 640L1065 636Q1057 634 1050 629T1033 612T1011 581T983 532L690 -6Z"  />
<glyph unicode="X" horiz-adv-x="693" d="M615 -3Q596 -3 574 -3T528 -2T483 -1T443 0Q425 0 404 0T361 -1T316 -2T275 -3Q274 2 274 6T274 16Q274 27 278 31T291 38L320 43Q330 44 336 49T343 65T340 95T323 145L275 266H273L177 140Q145 98 142 73T163 43L189 38Q203 35 203 20Q203 15 201 9T197 -3Q159 -3 133 -2T71 0Q53 0 39 0T12 -1T-16 -2T-50 -3Q-51 2 -51 6T-51 16Q-51 27 -47 31T-34 38L-21 42Q-11 45 -2 51T19 70T46 100T85 146L238 333Q239 336 239 344L160 533Q147 564 138 583T121 612T106 628T92 636L81 640Q73 643 71 646T68 658Q68 669 73 681Q92 681 114 681T160 680T205 679T245 678Q263 678 284 678T327 679T372 680T413 681Q414 676 414 672T414 662Q414 651 410 647T397 640L368 635Q359 633 353 629T345 613T348 583T365 533L410 420H412L501 538Q533 580 536 605T515 635L489 640Q475 643 475 658Q475 663 477 669T481 681Q519 680 548 679T612 678Q630 678 643 678T668 679T694 680T727 681Q728 676 728 672T728 662Q728 651 724 647T711 640L698 636Q689 633 681 628T661 611T633 581T592 532L446 353Q444 347 446 342L528 145Q541 113 550 95T566 65T581 50T596 42L607 38Q615 35 617 32T620 20Q620 9 615 -3Z"  />
<glyph unicode="Y" horiz-adv-x="661" d="M447 -3Q428 -3 406 -3T360 -2T316 -1T276 0Q258 0 234 0T185 -1T135 -2T91 -3Q90 2 90 6T90 16Q90 27 94 31T107 38L140 43Q150 44 157 48T170 62T183 92T198 145L228 272Q232 289 230 302T223 328L150 533Q139 564 130 583T113 613T98 628T83 636L73 640Q65 643 63 646T60 658Q60 669 65 681Q84 681 106 681T151 680T195 679T235 678Q253 678 274 678T317 679T362 680T403 681Q404 676 404 672T404 662Q404 651 400 647T387 640L358 635Q349 633 344 629T337 614T340 584T355 533L401 389H403L492 526Q511 556 519 575T528 607T523 626T506 635L486 640Q472 645 472 658Q472 663 474 669T478 681Q515 680 543 679T606 678Q624 678 638 678T666 679T694 680T728 681Q729 676 729 672T729 662Q729 651 725 647T712 640L697 636Q689 634 680 629T658 612T629 582T591 532L452 339Q442 325 437 311T426 278L395 145Q387 112 385 93T385 64T393 49T410 43L439 38Q447 36 449 32T452 20Q452 9 447 -3Z"  />
<glyph unicode="Z" horiz-adv-x="681" d="M636 190Q631 176 623 149T608 93T594 39T585 5Q581 -1 577 -2Q537 -1 501 -1T431 0T361 0T288 0Q248 0 205 0T120 0T39 -1T-32 -3Q-34 5 -34 15T-32 35Q-14 53 8 82T59 150L401 611V613H255Q226 613 208 609T178 597T159 578T146 552L127 508Q123 500 119 495T103 492Q98 493 92 493T80 496Q84 515 90 543T101 599T111 655T118 700Q120 700 124 700T131 701Q139 701 143 699T151 693T157 687T165 682Q175 679 200 679T268 678H404Q443 678 477 678T542 678T604 678T666 681Q668 673 668 663T666 643Q652 629 627 597T575 528L233 67V65H426Q455 65 476 68T512 80T540 104T565 143L588 190Q597 206 616 199Q621 197 626 195T636 190Z"  />
<glyph unicode="[" horiz-adv-x="338" d="M187 -137Q173 -137 158 -137T129 -136H33Q21 -136 9 -136T-16 -137L174 699Q186 699 198 699T223 698H319Q333 698 343 698T368 699Q369 694 369 687T370 669Q370 652 365 647T346 641H287Q270 641 259 639T241 627T227 596T212 538L96 24Q88 -14 85 -34T83 -65T95 -77T123 -79H175Q193 -79 193 -104Q193 -112 191 -122T187 -137Z"  />
<glyph unicode="\" horiz-adv-x="300" d="M244 -5Q240 -7 231 -9T211 -12T190 -15T176 -16L51 702Q55 704 64 706T84 711T104 714T118 715L244 -5Z"  />
<glyph unicode="]" horiz-adv-x="338" d="M128 -137Q116 -137 104 -137T79 -136H-17Q-31 -136 -41 -136T-66 -137Q-67 -132 -67 -125T-68 -107Q-68 -90 -63 -85T-44 -79H15Q32 -79 43 -77T61 -65T75 -35T90 24L206 538Q214 575 217 596T219 627T207 639T179 641H127Q109 641 109 666Q109 674 111 684T115 699Q129 699 144 699T173 698H269Q281 698 293 698T318 699L128 -137Z"  />
<glyph unicode="^" horiz-adv-x="500" d="M353 196L221 521L90 196H-10L179 637H265L454 196H353Z"  />
<glyph unicode="_" horiz-adv-x="500" d="M-39 -260V-167H461V-260H-39Z"  />
<glyph unicode="`" horiz-adv-x="500" d="M338 524Q336 516 329 512T313 509Q279 543 246 581T180 660Q173 669 168 679T162 701Q162 712 169 722T188 741T212 755T236 760Q256 760 265 747T283 712Q315 623 338 524Z"  />
<glyph unicode="a" horiz-adv-x="600" d="M539 157Q547 155 556 148T566 131Q566 124 563 118T548 100Q527 78 504 57T455 19T401 -8T339 -18Q316 -18 302 -13T279 2T268 24T265 49Q265 72 273 98T291 153H290Q271 126 246 96T192 41T131 -1T65 -18Q19 -18 -4 9T-27 79Q-27 148 7 219T94 349T213 445T343 482Q364 482 387 477T424 454H425L431 465Q440 482 448 488T478 495Q504 495 531 495T580 493Q575 481 565 457T547 408L454 148Q452 141 448 127T444 105Q444 98 446 92T456 85Q479 85 539 157ZM340 337Q344 348 344 362Q344 398 309 398Q288 398 270 384T235 348T207 298T185 245T172 198T167 165Q167 151 173 141T193 130Q206 130 225 147T264 190T301 245T326 297L340 337Z"  />
<glyph unicode="b" horiz-adv-x="567" d="M554 366Q554 318 540 271T500 182T440 103T365 39T279 -3T188 -18Q148 -18 114 -11T55 11T16 48T2 103Q2 126 6 155T19 208L133 570Q146 610 147 627T133 650L110 659Q102 662 102 666T103 681Q105 691 109 699Q138 702 171 708T237 722Q284 732 310 740T359 749Q363 749 366 748T371 746Q366 732 359 713T345 673T332 634T321 600L248 366L250 365Q267 386 289 406T336 444T389 471T446 482Q463 482 482 477T517 459T543 423T554 366ZM360 316Q360 365 331 365Q316 365 296 349T256 307T219 249T191 185L174 129Q172 123 171 111T169 92Q169 74 180 63T208 52Q227 52 245 66T281 103T312 155T337 213T354 269T360 316Z"  />
<glyph unicode="c" horiz-adv-x="430" d="M355 166Q361 164 367 160T377 153Q385 145 385 135T366 105Q317 51 258 17T136 -18Q67 -18 28 22T-11 132Q-11 165 -1 204T28 281T75 356T142 420T226 465T329 482Q342 482 361 479T397 470T427 451T439 421Q439 412 435 400T422 376T404 358T383 350Q370 350 359 359T337 379T311 399T278 408Q261 408 246 394T219 358T198 308T182 254T173 204T169 168Q169 126 188 108T230 90Q249 90 266 97T299 115T329 139T355 166Z"  />
<glyph unicode="d" horiz-adv-x="625" d="M567 157Q575 155 584 148T594 131Q594 124 591 118T576 100Q554 78 531 57T483 19T429 -8T367 -18Q344 -18 329 -13T304 2T292 24T288 49Q288 69 294 91T306 132H305Q285 106 262 80T212 31T155 -4T92 -18Q44 -18 17 21T-11 121Q-11 158 -2 195T23 267T61 333T109 390Q154 435 204 458T317 482Q376 482 399 458Q402 458 402 460L437 570Q450 610 451 627T437 650L414 659Q406 662 406 666T407 681Q409 691 413 699Q442 702 475 708T541 722Q588 732 614 740T663 749Q667 749 670 748T675 746Q670 732 663 713T649 673T636 634T625 600L490 169Q485 152 478 132T471 101Q471 85 484 85Q507 85 567 157ZM363 335Q368 348 368 367Q368 385 357 398T323 412Q302 412 283 398T249 362T221 312T199 258T186 209T181 173Q181 164 182 154T186 136T195 123T212 117Q228 117 249 136T290 183T326 240T348 288L363 335Z"  />
<glyph unicode="e" horiz-adv-x="461" d="M371 165Q377 163 383 159T393 152Q401 144 401 134T382 104Q328 47 266 15T135 -18Q69 -18 29 19T-11 132Q-11 167 -2 206T27 285T74 359T138 422T219 466T317 482Q344 482 368 476T410 458T439 427T450 382Q450 334 422 301T351 246T262 216T175 207Q174 206 173 204T169 200Q166 180 166 168Q166 133 183 112T237 90Q272 90 306 111T371 165ZM301 395Q301 409 295 418T278 428Q261 428 247 412T221 371T200 318T183 265Q185 259 187 258Q209 259 229 269T266 298T291 340T301 395Z"  />
<glyph unicode="f" horiz-adv-x="396" d="M596 682Q596 667 588 651T566 622T538 600T510 591Q493 591 480 604T454 634T426 663T393 677Q378 677 368 668T350 643T336 607T322 564Q316 544 309 518T296 471Q298 465 300 464H413Q419 461 419 448Q419 441 418 432T415 415T410 400T402 393H280Q279 392 278 390T274 386Q254 305 234 225T188 67Q166 1 136 -61T66 -171T-25 -248T-139 -278Q-151 -278 -171 -275T-211 -265T-245 -246T-260 -216Q-260 -204 -254 -189T-238 -160T-216 -137T-191 -127Q-177 -127 -166 -138T-143 -163T-118 -188T-86 -199Q-70 -199 -57 -183T-32 -139T-9 -70T14 21Q26 70 38 122T61 222T81 313T96 385Q95 390 92 393H30Q24 396 24 409Q24 423 28 442T41 464H110Q111 465 112 467T116 471Q124 502 134 530T160 584T196 635T248 682Q294 717 345 737T453 758Q477 758 502 753T549 737T583 713T596 682Z"  />
<glyph unicode="g" horiz-adv-x="501" d="M454 -103Q454 -136 434 -167T377 -223T284 -263T160 -278Q102 -278 59 -267T-12 -239T-55 -200T-70 -157Q-70 -132 -58 -114T-27 -83T16 -60T63 -41L64 -38Q9 -13 9 23Q9 53 38 87T110 150Q72 166 48 196T24 277Q24 322 43 360T95 425T168 467T252 482Q293 482 319 475T373 457Q381 455 388 454T406 453Q428 453 445 458T492 463Q523 463 523 426Q523 408 515 398T492 387Q477 387 465 393T435 399H431Q437 386 441 371T445 337Q445 292 425 254T373 189T300 146T216 131Q185 131 165 135Q157 137 154 134T148 126Q145 120 145 113Q145 102 153 94T179 77T228 58T302 35Q327 27 354 17T403 -8T439 -46T454 -103ZM285 -161Q285 -138 264 -122T210 -95Q196 -89 169 -81T122 -64Q116 -62 108 -63T90 -72Q75 -83 66 -98T56 -133Q56 -152 67 -167T98 -193T142 -210T195 -216Q240 -216 262 -201T285 -161ZM291 390Q291 401 287 413T269 426Q250 426 234 401T205 342T185 274T178 224Q178 213 181 200T200 186Q219 186 235 211T264 271T284 339T291 390Z"  />
<glyph unicode="h" horiz-adv-x="574" d="M553 365Q553 329 546 291T524 216T491 144T448 82Q412 40 363 11T254 -18Q243 -18 230 -12T216 15Q216 22 217 32T223 51T232 66T247 73Q258 73 265 69T284 65Q300 65 308 79T325 116Q339 155 348 202T358 295Q358 310 355 323T336 337Q323 337 305 319T266 276Q230 233 212 188T180 94L168 48Q163 31 159 21T145 6T121 0T78 -2Q53 -2 30 -2T-22 1L135 570Q146 610 148 627T135 650L112 659Q104 662 104 666T105 681Q107 691 111 699Q140 702 173 708T239 722Q263 727 279 732T309 740T333 746T356 749Q360 749 363 748T368 746Q363 733 357 714T343 674T330 634T320 600L241 313H242Q259 336 278 360T319 405Q352 439 385 460T458 482Q483 482 501 473T530 447T547 410T553 365Z"  />
<glyph unicode="i" horiz-adv-x="349" d="M295 157Q303 155 312 148T322 131Q322 124 319 118T304 100Q283 78 260 57T211 19T157 -8T95 -18Q61 -18 34 -2T7 52Q7 77 18 109T39 166L87 285Q96 307 103 329T111 363Q111 379 98 379Q82 379 61 358T22 310Q14 312 4 319T-6 335Q-6 342 -2 348T12 367Q31 390 54 411T103 447T159 472T220 482Q235 482 251 479T280 468T301 447T309 415Q309 393 302 373T287 332L220 169Q213 152 206 132T199 101Q199 85 212 85Q235 85 295 157ZM395 658Q395 636 388 617T367 582T334 559T293 550Q253 550 229 576T204 642Q204 664 211 683T232 717T264 740T306 749Q346 749 370 724T395 658Z"  />
<glyph unicode="j" horiz-adv-x="348" d="M199 55Q177 -13 145 -73T72 -179T-19 -251T-124 -278Q-159 -278 -182 -272T-219 -257T-239 -237T-245 -217Q-245 -205 -239 -190T-224 -160T-202 -137T-176 -127Q-162 -127 -151 -138T-129 -162T-108 -186T-84 -197Q-59 -197 -37 -135T24 58Q31 83 41 115T60 178T78 238T91 285Q98 308 104 329T111 363Q111 379 98 379Q82 379 61 358T22 310Q14 312 4 319T-6 335Q-6 342 -2 348T12 367Q31 390 54 411T103 447T159 472T220 482Q235 482 251 479T280 468T301 447T309 415Q309 406 307 395T302 373T296 351T289 332L199 55ZM394 658Q394 636 387 617T366 582T333 559T292 550Q252 550 228 576T203 642Q203 664 210 683T231 717T263 740T305 749Q345 749 369 724T394 658Z"  />
<glyph unicode="k" horiz-adv-x="577" d="M545 70Q550 65 554 58T559 42Q559 33 551 28T531 16Q523 12 508 6T475 -5T438 -14T402 -18Q340 -18 309 15T258 108Q249 135 243 151T233 175T224 185T213 188Q211 186 209 185T206 182L168 48Q163 31 158 21T144 6T120 0T78 -2Q53 -2 30 -2T-22 1L135 570Q146 610 148 627T135 650L112 659Q104 662 104 666T105 681Q107 691 111 699Q140 702 173 708T239 722Q263 727 279 732T309 740T333 746T356 749Q360 749 363 748T368 746Q363 733 357 714T343 674T330 634T320 600L258 374L260 373Q277 393 299 412T348 447T403 472T460 482Q502 482 524 460T547 395Q547 354 529 323T485 271T429 237T374 222Q372 217 374 212Q388 201 400 187T427 139Q443 104 460 81T505 57Q516 57 527 61T545 70ZM367 335Q367 349 363 358T342 368Q324 368 306 356T274 329Q255 310 242 287T224 247Q225 242 228 239Q250 238 275 241T320 256T353 286T367 335Z"  />
<glyph unicode="l" horiz-adv-x="342" d="M282 157Q290 155 299 148T309 131Q309 124 306 118T291 100Q270 78 247 57T198 19T144 -8T82 -18Q48 -18 21 -2T-6 52Q-6 65 -2 81T7 113T17 143T25 166L152 570Q165 610 166 627T152 650L129 659Q121 662 121 666T122 681Q124 691 128 699Q157 702 190 708T256 722Q303 732 329 740T378 749Q382 749 385 748T390 746Q385 732 378 713T364 673T351 634T340 600L205 169Q200 152 193 132T186 101Q186 85 199 85Q222 85 282 157Z"  />
<glyph unicode="m" horiz-adv-x="953" d="M890 157Q898 155 907 148T917 131Q917 124 914 118T899 100Q878 78 855 57T806 19T752 -8T690 -18Q656 -18 629 -2T602 52Q602 78 612 109T634 166L669 250Q674 263 682 282T690 315Q690 334 673 334Q664 334 655 329T636 316T619 300T605 286Q569 248 547 200T507 104L487 48Q481 31 476 22T462 7T436 0T390 -2Q364 -2 342 -2T289 1L377 250Q380 260 387 281T394 315Q394 334 378 334Q371 334 362 329T344 316T327 300T313 286Q277 248 254 200T215 104L196 48Q190 31 185 22T171 7T145 0T99 -2Q73 -2 51 -2T-2 1L98 285Q106 307 114 329T122 363Q122 379 109 379Q93 379 72 358T33 310Q25 312 15 319T5 335Q5 342 9 348T23 367Q41 388 63 408T110 445T162 472T217 482Q251 482 274 465T297 409Q297 399 295 388T290 366T284 346T280 332L271 304H272Q299 344 363 404Q401 440 441 461T523 482Q555 482 578 466T601 414Q601 397 595 376T582 336L576 320H577Q604 356 655 404Q693 440 732 461T820 482Q853 482 878 466T904 414Q904 389 892 359T871 305L815 169Q808 152 801 132T794 101Q794 85 807 85Q830 85 890 157Z"  />
<glyph unicode="n" horiz-adv-x="661" d="M598 157Q606 155 615 148T625 131Q625 124 622 118T607 100Q586 78 563 57T514 19T460 -8T398 -18Q364 -18 337 -2T310 52Q310 78 320 109T342 166L377 250Q382 263 390 282T398 315Q398 334 381 334Q372 334 363 329T344 316T327 300T313 286Q277 248 254 200T215 104L196 48Q190 31 185 22T171 7T145 0T99 -2Q73 -2 51 -2T-2 1L98 285Q106 307 114 329T122 363Q122 379 109 379Q93 379 72 358T33 310Q25 312 15 319T5 335Q5 342 9 348T23 367Q41 388 63 408T110 445T162 472T217 482Q251 482 274 465T297 409Q297 399 295 388T290 366T284 346T280 332L271 304H272Q299 344 363 404Q401 440 440 461T528 482Q561 482 586 466T612 414Q612 389 600 359T579 305L523 169Q516 152 509 132T502 101Q502 85 515 85Q538 85 598 157Z"  />
<glyph unicode="o" horiz-adv-x="550" d="M519 288Q519 227 496 172T432 74T337 7T223 -18Q177 -18 136 -7T64 27T15 87T-3 176Q-3 237 20 292T84 390T179 457T293 482Q339 482 380 471T452 437T501 377T519 288ZM346 364Q346 382 340 400T311 418Q292 418 274 399T241 350T212 283T190 211T175 146T170 100Q170 82 176 64T205 46Q224 46 242 65T275 114T304 181T326 253T341 318T346 364Z"  />
<glyph unicode="p" horiz-adv-x="593" d="M576 352Q576 311 565 268T532 184T482 107T417 42T340 -2T256 -18Q240 -18 224 -16T190 -11Q187 -12 183 -18L155 -120Q146 -151 142 -171T138 -203T145 -220T165 -226L219 -231Q232 -233 226 -252Q224 -257 223 -261T220 -271Q201 -271 178 -271T131 -270T85 -269T44 -268Q26 -268 2 -268T-48 -269T-98 -270T-142 -271Q-141 -266 -141 -262T-139 -252Q-137 -241 -133 -237T-120 -231L-88 -226Q-75 -224 -67 -221T-51 -207T-37 -177T-21 -123L103 346Q103 348 99 352Q91 350 79 346T55 337T30 327T10 317Q5 322 -1 334T-8 354Q-8 362 -4 367T14 380Q37 392 67 404T119 424Q121 426 123 429T127 434L157 549Q163 558 180 562T218 569T262 572T299 573Q307 573 318 572T336 563L314 478Q314 476 318 472Q339 475 364 478T428 482Q456 482 483 475T530 453T563 413T576 352ZM387 322Q387 355 371 377T321 400Q315 400 311 400T299 397Q296 396 292 390L218 114Q216 108 215 100T214 84Q214 69 224 61T248 52Q274 52 299 84T343 160T375 249T387 322Z"  />
<glyph unicode="q" horiz-adv-x="588" d="M456 -271Q437 -271 414 -271T367 -270T321 -269T280 -268Q262 -268 238 -268T187 -269T135 -270T91 -271Q92 -266 92 -262T94 -252Q96 -241 100 -237T113 -231L157 -226Q170 -225 178 -221T193 -207T207 -176T224 -123L298 123H297Q278 98 256 73T208 28T153 -5T92 -18Q44 -18 17 21T-11 121Q-11 158 -2 195T23 267T61 333T109 390Q154 435 203 458T313 482Q351 482 376 476T418 457H419Q437 464 458 470T499 482T538 490T570 493Q584 493 592 489Q587 478 581 461T568 423T554 383T542 344L403 -120Q394 -150 390 -170T386 -202T393 -219T413 -226L455 -231Q467 -232 462 -252Q459 -263 456 -271ZM360 335Q365 348 365 367Q365 385 356 398T323 412Q302 412 283 398T249 362T221 312T199 258T186 209T181 173Q181 164 182 154T186 136T195 123T212 117Q228 117 249 136T290 183T326 239T347 288L360 335Z"  />
<glyph unicode="r" horiz-adv-x="477" d="M484 429Q484 416 480 397T468 359T449 327T422 313Q406 313 394 320T362 327Q339 327 321 311T286 272Q276 257 267 238T250 199T236 162T225 132L196 48Q190 31 185 22T171 7T145 0T99 -2Q73 -2 50 -2T-3 1L54 161Q62 183 71 209T87 262T98 311T103 353Q103 373 89 373Q81 373 73 366T55 349T38 325T22 300Q13 302 3 308T-8 325Q-8 332 -4 340T6 355Q25 378 44 400T86 441T133 470T187 482Q217 482 238 464T260 404Q260 386 256 366T247 325T234 287T221 254H225Q231 265 239 281T257 314T275 348T291 377Q322 430 354 456T437 482Q463 482 473 468T484 429Z"  />
<glyph unicode="s" horiz-adv-x="371" d="M317 163Q317 128 301 95T254 37T179 -3T77 -18Q56 -18 34 -14T-7 -2T-37 19T-49 51Q-49 62 -46 75T-37 99T-24 118T-7 126Q6 126 19 115T47 89T79 63T117 51Q138 51 150 60T162 85Q162 106 141 129T95 178T49 236T28 304Q28 334 42 365T86 423T160 465T264 482Q286 482 306 479T341 469T365 452T374 428Q374 417 370 404T359 379T342 359T321 351Q309 351 298 360T274 382T250 403T222 413Q203 413 195 402T186 381Q186 357 206 335T251 287T296 231T317 163Z"  />
<glyph unicode="t" horiz-adv-x="404" d="M318 186Q327 184 337 177T348 160Q348 155 343 147T333 130Q317 106 295 80T244 33T179 -3T100 -18Q58 -18 32 1T6 58Q6 79 13 105T28 154L99 385Q98 390 95 393H35Q29 396 29 409Q29 423 33 442T46 464H119Q120 465 121 467T125 471L161 591Q167 600 184 604T224 611T269 614T307 615Q315 615 327 614T344 605L304 471Q306 465 308 464H416Q422 461 422 448Q422 441 421 432T418 415T413 400T405 393H284Q283 392 282 390T278 386L205 148Q203 140 199 127T195 105Q195 98 198 92T210 85Q223 85 239 96T270 124T298 158T318 186Z"  />
<glyph unicode="u" horiz-adv-x="637" d="M579 157Q587 155 596 148T606 131Q606 124 603 118T588 100Q568 79 545 58T497 20T443 -7T384 -18Q351 -18 330 -1T308 55Q308 65 310 76T315 98T320 118T325 132L334 160H333Q315 134 293 109T249 61Q214 26 175 4T87 -18Q54 -18 29 -2T3 50Q3 61 6 75T15 105T25 134T36 159L88 285Q97 307 105 329T113 363Q113 379 100 379Q84 379 63 358T24 310Q16 312 6 319T-4 335Q-4 342 0 348T14 367Q33 390 56 411T105 447T161 472T222 482Q236 482 251 478T278 466T297 445T305 412Q305 386 295 355T273 298L238 214Q233 201 225 182T217 149Q217 130 230 130Q246 130 273 157T329 230Q350 262 365 296T390 360L409 416Q416 436 421 453T428 480Q454 482 478 481T515 477Q538 473 555 469T581 456T591 434T584 397L507 179Q499 157 491 135T483 101Q483 85 496 85Q519 85 579 157Z"  />
<glyph unicode="v" horiz-adv-x="503" d="M502 418Q502 335 469 257T381 116Q360 92 332 68T271 25T201 -6T125 -18Q83 -18 55 5T26 73Q26 91 30 113T42 159L88 285Q96 307 104 329T113 363Q113 379 100 379Q84 379 63 358T24 310Q16 312 6 319T-4 335Q-4 342 0 348T14 367Q33 390 56 411T105 447T161 472T222 482Q236 482 251 478T278 466T297 445T305 412Q305 386 294 355T273 298L231 178Q227 167 223 152T218 122Q218 109 224 101T245 93Q272 93 299 119T350 188Q370 222 383 261T396 337Q396 354 393 367T387 392T381 414T378 436Q378 453 394 467T443 482Q479 482 490 462T502 418Z"  />
<glyph unicode="w" horiz-adv-x="781" d="M780 418Q780 335 746 257T659 116Q608 56 546 19T424 -18Q386 -18 359 4T332 73Q332 85 335 103T340 129H338Q318 98 293 72T239 25T182 -6T125 -18Q83 -18 55 5T26 73Q26 91 30 113T42 159L88 286Q96 308 104 329T113 363Q113 379 100 379Q84 379 63 358T24 310Q16 312 6 319T-4 335Q-4 342 0 348T14 367Q33 390 56 411T105 447T161 472T222 482Q236 482 251 478T278 466T297 445T305 412Q305 386 294 355T273 298L232 180Q229 172 224 156T219 124Q219 115 222 107T236 99Q248 99 269 121T310 173T348 231T370 271Q380 316 391 354T419 421T461 466T524 482Q537 482 550 479T574 467T591 444T598 408Q598 384 591 363T574 324T552 290T531 262Q526 245 520 225T509 186T500 149T496 122Q496 109 502 101T523 93Q550 93 577 119T628 188Q648 222 661 261T674 337Q674 354 671 367T665 392T659 414T656 436Q656 453 672 467T721 482Q757 482 768 462T780 418Z"  />
<glyph unicode="x" horiz-adv-x="533" d="M449 181Q454 180 465 175Q479 168 479 158T470 127Q441 61 394 22T291 -18Q249 -18 228 6T196 82L185 142H184Q156 100 135 70T95 20T59 -9T20 -18Q-9 -18 -20 0T-32 50Q-32 66 -30 88T-22 129Q-15 153 -9 162T11 169Q22 167 28 163Q27 155 27 148T26 134Q26 123 31 116T48 108Q78 108 107 135T166 208Q168 216 168 218L152 301Q145 336 139 352T118 369Q104 369 86 347T49 283Q47 284 43 285T33 289Q20 295 19 304T28 337Q57 403 104 442T207 482Q249 482 272 459T306 383L317 332H318Q345 372 365 400T403 447T438 473T477 482Q505 482 516 464T528 417Q528 400 525 379T518 344Q511 321 507 312T487 304Q475 306 469 310Q470 318 470 324T471 337Q471 361 450 361Q424 361 396 337T334 264Q332 256 332 254L351 163Q358 132 362 114T381 95Q393 95 408 112T449 181Z"  />
<glyph unicode="y" horiz-adv-x="522" d="M512 418Q512 354 495 290T450 166T388 51T319 -49Q283 -96 244 -137T163 -210T74 -260T-21 -279Q-59 -279 -80 -266T-102 -214Q-102 -202 -100 -190T-92 -167T-78 -150T-56 -143Q-42 -143 -28 -149T2 -163T35 -177T72 -184Q111 -184 136 -159Q150 -145 157 -127T166 -88T169 -46T169 -7Q169 25 168 63T163 140T154 215T139 281T116 327T86 344Q69 344 60 331T45 299T37 263T34 237Q30 236 25 236T15 236Q1 236 -4 244T-6 279Q-1 318 9 354T38 419T85 465T154 482Q203 482 237 454T292 372T321 240T326 63H328Q361 115 384 177T408 325Q408 344 405 359T398 386T391 410T388 436Q388 453 403 467T453 482Q489 482 500 462T512 418Z"  />
<glyph unicode="z" horiz-adv-x="503" d="M479 123Q479 96 464 63T422 0T359 -50T279 -70Q240 -70 206 -49T143 -2T88 45T41 67Q28 67 21 61T14 46Q14 40 15 33T16 20Q16 9 6 1T-21 -8Q-31 -8 -38 0T-46 27Q-46 45 -38 61T-18 91T10 118T39 141L261 312L260 314Q243 318 222 322T179 329T140 335T110 337Q93 337 86 331T79 317Q79 306 87 299T96 277Q96 263 81 254T47 244Q27 244 21 260T15 293Q15 325 29 358T68 419T123 464T187 482Q213 482 243 476T312 458Q352 446 376 440T413 434Q429 434 437 441T446 461Q446 469 450 475T466 482Q480 482 491 472T502 451Q502 431 481 408T420 354L169 162V160Q185 157 197 153T220 143T241 130T264 113Q275 105 288 94T317 74T347 57T376 50Q390 50 401 58T412 82Q412 90 409 97T401 112T394 126T390 143Q390 160 403 167T430 174Q454 174 466 161T479 123Z"  />
<glyph unicode="{" horiz-adv-x="338" d="M176 -92Q176 -96 176 -104T177 -119Q177 -130 174 -140T155 -151Q127 -153 102 -146T58 -123T28 -87T17 -40Q17 -11 28 18T52 75T77 128T88 174Q88 215 60 233T-6 254Q-7 261 -4 278T1 302Q50 305 79 318T122 353T140 401T144 461Q144 481 144 507T147 560Q150 599 165 627T206 672T263 698T332 707Q343 707 348 701T354 678Q354 671 353 662T348 648Q312 648 288 641T250 621T230 593T222 560Q220 534 219 502T217 446Q216 414 211 387T192 338T157 300T99 275V273Q125 261 142 239T159 182Q159 154 148 126T125 69T101 14T90 -40Q90 -61 111 -78T176 -92Z"  />
<glyph unicode="|" horiz-adv-x="250" d="M16 -270Q10 -271 1 -271T-19 -272T-39 -272T-54 -270L177 730Q191 732 213 732T247 730L16 -270Z"  />
<glyph unicode="}" horiz-adv-x="338" d="M185 -4Q182 -43 167 -71T126 -116T69 -142T0 -151Q-11 -151 -16 -145T-22 -122Q-22 -115 -21 -106T-16 -92Q21 -92 44 -85T82 -65T102 -37T110 -4Q112 22 113 54T115 110Q116 142 121 169T140 218T175 256T233 281V283Q207 295 190 317T173 374Q173 402 184 430T207 487T231 542T242 596Q242 617 221 634T156 648Q156 652 156 660T155 675Q155 686 158 696T177 707Q205 708 230 701T274 679T304 643T315 596Q315 567 304 538T280 481T255 428T244 382Q244 341 272 323T338 302Q339 295 336 278T331 254Q281 251 253 238T210 203T192 154T188 95Q188 75 188 49T185 -4Z"  />
<glyph unicode="~" horiz-adv-x="500" d="M462 215Q438 189 408 173T340 157Q310 157 282 167T225 191T169 214T114 225Q72 225 45 206T-8 157V259Q15 285 46 300T114 316Q144 316 172 306T229 282T284 259T339 248Q381 248 408 267T462 316V215Z"  />
<glyph unicode="&#xA0;" horiz-adv-x="250" />
<glyph unicode="&#xA1;" horiz-adv-x="345" d="M173 -147Q165 -195 136 -215T59 -235Q18 -235 -10 -218T-38 -156Q-38 -127 -28 -97T1 -22Q16 15 33 55T67 131T98 198T123 246Q134 248 153 248T183 246Q183 183 183 125T183 16T180 -75T173 -147ZM272 395Q272 353 245 326T175 298Q137 298 111 322T84 385Q84 427 111 454T181 482Q219 482 245 458T272 395Z"  />
<glyph unicode="&#xA2;" horiz-adv-x="520" d="M406 173Q412 171 419 167T429 160Q437 152 437 142T417 110Q375 64 327 31T225 -13L211 -16Q208 -16 205 -20L169 -95Q166 -98 160 -98T140 -93Q123 -88 118 -84T113 -74L138 -21Q138 -16 137 -15Q77 -7 44 32T10 138Q10 173 20 213T50 293T100 370T169 437T257 483T364 500Q368 500 372 500T385 499Q387 500 390 503L424 574Q429 578 437 576T453 572Q470 567 475 563T480 553L451 495Q451 491 453 489Q493 476 493 440Q493 430 489 417T478 392T459 372T435 363Q426 363 418 367T401 379Q399 378 399 378T396 377L263 100Q261 97 264 94H271Q292 94 311 101T348 119T379 145T406 173ZM194 175Q194 160 196 147T202 126Q205 125 209 126L345 408Q345 412 343 414Q335 418 327 420T309 423Q290 423 275 409T247 371T224 320T208 264T198 212T194 175Z"  />
<glyph unicode="&#xA3;" horiz-adv-x="520" d="M535 677Q535 665 527 650T506 623T478 602T451 593Q429 593 419 608T400 641T381 675T349 690Q329 690 319 671T304 618T297 541T292 448Q293 445 299 441H417Q422 438 422 427Q422 414 419 398T408 380H293Q286 378 285 373Q278 307 242 258T139 167V165Q145 167 154 167T170 167Q195 167 222 157T276 135T326 112T366 102Q377 102 384 108T392 126Q392 137 383 147T361 168T340 191T330 219Q330 232 339 243T361 264T388 278T415 283Q431 283 442 276T460 257T470 231T474 202Q474 163 459 124T418 54T355 2T277 -18Q245 -18 215 -5T157 24T107 53T69 67H63Q57 54 48 41T28 16T3 -3T-27 -10Q-46 -10 -57 2T-68 32Q-68 53 -58 70T-33 100T1 124T37 141Q63 183 78 242T98 373Q97 377 92 380H13Q8 383 8 394Q8 407 11 423T22 441H99Q104 443 105 448Q110 500 127 555T179 655T266 729T394 758Q418 758 443 753T488 738T522 713T535 677Z"  />
<glyph unicode="&#xA4;" horiz-adv-x="500" d="M399 22L327 93Q283 66 230 66Q176 66 132 94L59 21L-3 87L68 158Q40 202 40 257Q40 284 47 308T67 355L-3 425L60 492L132 420Q154 433 179 440T230 447Q256 447 281 440T328 420L401 493L463 427L392 357Q421 313 421 257Q421 201 392 157L462 88L399 22ZM330 257Q330 299 301 327T230 356Q188 356 160 328T131 257Q131 215 159 186T230 157Q251 157 269 164T300 185T322 217T330 257Z"  />
<glyph unicode="&#xA5;" horiz-adv-x="520" d="M348 -3Q331 -3 310 -3T268 -2T225 -1T188 0Q171 0 149 0T103 -1T56 -2T15 -3Q14 2 14 6T14 15Q14 35 30 36L61 40Q70 41 77 44T91 58T103 86T115 136L118 151Q117 155 112 158H-6Q-11 161 -11 171Q-11 183 -9 198T1 215H129Q134 217 136 222L143 255Q147 272 145 282T139 305Q138 309 133 312H29Q24 315 24 325Q24 337 26 352T36 369H110Q114 371 115 376L80 483Q70 513 63 530T50 557T39 571T26 579L16 583Q9 586 7 589T4 600Q4 609 9 621Q44 620 84 620T158 619Q191 619 233 619T310 621Q311 616 311 613T311 604Q311 593 307 589T295 583L278 578Q269 575 264 571T258 558T259 531T270 483L301 359H303L378 488Q403 531 409 551T393 578L374 583Q361 587 361 600Q361 605 363 610T367 621Q384 621 396 621T420 620T442 620T471 619Q487 619 498 619T520 620T541 620T571 621Q572 616 572 613T572 604Q572 593 568 589T556 583L544 579Q537 576 530 572T514 558T492 530T460 482L392 376Q393 373 398 370H489Q493 367 493 356Q493 344 491 329T480 312H354Q347 310 346 305Q338 294 335 286T328 260L320 222Q321 221 323 220T327 216H454Q458 213 458 202Q458 190 456 175T445 158H311Q305 154 303 151L299 136Q291 106 289 88T288 59T297 45T313 40L341 36Q349 35 351 31T353 19Q353 9 348 -3Z"  />
<glyph unicode="&#xA6;" horiz-adv-x="250" d="M47 0V282H141V0H47ZM47 397V678H141V397H47Z"  />
<glyph unicode="&#xA7;" horiz-adv-x="477" d="M401 83Q401 21 374 -32T302 -124T200 -185T85 -208Q69 -208 45 -205T-1 -195T-40 -174T-56 -139Q-56 -127 -52 -113T-39 -87T-20 -66T5 -58Q24 -58 40 -69T71 -95T103 -121T141 -133Q169 -133 185 -114T201 -68Q201 -41 188 -12T155 48T113 113T70 184T37 261T24 345Q24 405 49 458T116 551T213 614T327 637Q342 637 363 634T405 624T440 603T454 570Q454 559 451 545T440 519T423 499T399 491Q382 491 367 502T337 526T306 551T271 562Q243 562 229 543T215 497Q215 469 229 440T263 378T308 312T352 241T387 165T401 83ZM321 61Q321 100 309 134T278 200T238 263T198 326T168 393T155 469Q155 478 155 487T157 505H155Q129 479 115 442T100 368Q100 329 112 295T142 228T182 165T222 102T253 36T265 -37Q265 -57 262 -76H264Q291 -50 306 -13T321 61Z"  />
<glyph unicode="&#xA8;" horiz-adv-x="500" d="M426 654Q426 636 420 620T403 592T377 572T343 564Q309 564 290 586T271 641Q271 659 277 675T293 703T319 723T353 731Q387 731 406 709T426 654ZM229 654Q229 636 223 620T206 592T180 572T146 564Q112 564 93 586T74 641Q74 659 80 675T96 703T122 723T156 731Q190 731 209 709T229 654Z"  />
<glyph unicode="&#xA9;" horiz-adv-x="765" d="M741 339Q741 261 715 196T643 83T531 9T387 -18Q310 -18 244 9T128 83T52 196T24 340Q24 418 50 483T122 596T234 670T378 697Q455 697 521 670T636 596T713 483T741 339ZM676 339Q676 403 654 458T592 555T498 620T378 644Q312 644 259 621T168 557T110 460T89 340Q89 276 111 221T172 124T267 59T387 35Q453 35 506 58T597 123T655 219T676 339ZM519 269Q521 275 525 276T537 276Q541 275 544 275T551 274Q548 245 545 220T538 167Q538 167 532 163Q504 153 470 148T401 143Q354 143 314 157T243 197T196 259T178 341Q178 390 196 426T244 487T315 524T400 536Q432 536 466 532T532 516Q534 515 535 514T537 512Q539 485 541 459T545 403Q542 402 538 401T529 399Q515 399 514 409Q505 451 484 468T426 486Q396 486 376 476T343 447T324 404T318 351Q318 310 328 280T354 231T392 202T438 193Q474 193 491 212T519 269Z"  />
<glyph unicode="&#xAA;" horiz-adv-x="453" d="M338 137Q338 131 337 121T332 100T325 81T315 71H25Q19 75 19 97Q19 104 20 114T25 135T32 153T42 163H332Q338 158 338 137ZM425 333Q432 331 440 326T448 312Q448 304 434 288Q419 273 403 258T368 231T328 212T284 204Q250 204 239 219T228 254Q228 269 233 285T243 315H242Q228 297 211 278T174 242T132 215T88 204Q53 204 37 224T20 276Q20 325 44 375T107 467T192 534T286 561Q300 561 316 558T344 543H345Q346 545 346 547T348 551L350 555Q354 564 361 567T383 570Q402 570 422 570T460 568Q455 557 448 540T435 505L368 323Q366 318 364 309T361 294Q361 290 361 287T367 283Q381 283 425 333ZM279 450Q284 465 284 474Q284 496 262 496Q241 496 223 476T192 428T172 375T164 336Q164 314 180 314Q188 314 201 326T227 355T253 393T271 429L279 450Z"  />
<glyph unicode="&#xAB;" horiz-adv-x="500" d="M397 67Q393 57 383 52T365 48Q348 64 325 89T276 143T228 200T188 249Q186 252 189 259Q211 280 241 306T302 359T364 410T418 450Q427 451 437 444T448 426Q440 409 427 387T399 342T369 295T341 254Q340 251 340 249T339 244Q345 227 353 205T369 158T384 110T397 67ZM198 67Q194 57 184 52T166 48Q149 64 126 89T77 143T29 200T-11 249Q-13 252 -10 259Q12 280 42 306T103 359T165 410T219 450Q228 451 238 444T249 426Q241 409 228 387T200 342T170 295T142 254Q141 251 141 249T140 244Q146 227 154 205T170 158T185 110T198 67Z"  />
<glyph unicode="&#xAC;" horiz-adv-x="500" d="M369 0V195H-13V288H457V0H369Z"  />
<glyph unicode="&#xAD;" horiz-adv-x="260" d="M229 287Q229 279 228 265T223 237T214 211T202 197H-4Q-11 201 -11 228Q-11 235 -10 249T-5 278T4 304T16 318H222Q229 314 229 287Z"  />
<glyph unicode="&#xAE;" horiz-adv-x="765" d="M741 339Q741 261 715 196T643 83T531 9T387 -18Q310 -18 244 9T128 83T52 196T24 340Q24 418 50 483T122 596T234 670T378 697Q455 697 521 670T636 596T713 483T741 339ZM676 339Q676 403 654 458T592 555T498 620T378 644Q312 644 259 621T168 557T110 460T89 340Q89 276 111 221T172 124T267 59T387 35Q453 35 506 58T597 123T655 219T676 339ZM616 151Q611 151 601 151T579 152T555 153T532 154Q515 154 494 154T450 152Q440 164 430 182T410 222T390 267T371 311Q370 312 370 313T367 315H341Q339 314 339 313T339 310V252Q339 217 341 204T357 188L383 184Q394 182 394 166Q394 164 394 160T392 151Q362 152 333 152T274 153Q245 153 218 153T161 151Q160 156 160 160T159 166Q159 182 170 184L194 188Q208 190 210 203T212 252V428Q212 463 210 476T194 492L170 496Q159 498 159 514Q159 516 159 520T161 529Q191 528 210 528T259 527Q275 527 300 527T352 528T399 529T430 530Q493 530 527 505T562 430Q562 395 543 373T496 339Q494 336 496 333Q506 310 521 284T550 235Q568 206 579 197T596 186L607 184Q618 181 618 166Q618 161 616 151ZM430 421Q430 459 413 472T377 485Q372 485 361 485T345 482Q343 478 341 466T339 427V361Q340 359 340 358T341 356H373Q396 356 413 371T430 421Z"  />
<glyph unicode="&#xAF;" horiz-adv-x="500" d="M380 669Q380 663 379 651T374 627T367 604T357 593H126Q120 597 120 619Q120 626 121 638T126 662T133 683T143 695H374Q380 690 380 669Z"  />
<glyph unicode="&#xB0;" horiz-adv-x="356" d="M330 508Q330 472 319 439T287 381T236 340T168 325Q140 325 119 335T83 363T61 404T53 455Q53 491 63 523T94 581T145 622T213 637Q270 637 300 600T330 508ZM267 499Q267 514 264 529T254 557T234 577T204 585Q181 585 165 573T138 543T122 504T117 463Q117 448 120 433T129 406T147 385T177 377Q200 377 217 388T245 418T261 457T267 499Z"  />
<glyph unicode="&#xB1;" horiz-adv-x="500" d="M-10 1V94H460V1H-10ZM269 260V130H182V260H-10V352H181V483H268V352H460V260H269Z"  />
<glyph unicode="&#xB2;" horiz-adv-x="352" d="M370 759Q370 718 350 684T299 621T234 567T170 520V518H283Q313 518 324 524T345 546Q348 551 352 553T365 556Q369 556 373 556T383 554Q380 544 376 528T367 495T359 463T353 439Q352 437 350 436T345 432Q308 437 267 435T188 433Q171 433 151 433T111 433T76 432T53 432Q52 435 52 443T51 460T53 478T55 490Q82 508 111 531T166 584T207 647T224 722Q224 755 210 770T176 785Q159 785 146 778T122 760Q117 763 116 764T111 769Q102 778 117 797Q143 828 178 846T256 864Q275 864 295 858T331 839T359 807T370 759Z"  />
<glyph unicode="&#xB3;" horiz-adv-x="352" d="M370 571Q370 534 353 501T304 442T228 401T131 386Q77 386 50 403T22 444Q22 452 26 461T36 479T51 492T68 497Q79 497 87 487T103 466T123 444T151 434Q173 434 188 447T212 480T225 520T229 556Q229 588 214 601T176 614Q166 614 157 612T137 609Q129 609 126 614T120 627Q119 630 119 634T119 642Q144 650 166 659T204 680T229 707T239 742Q239 767 225 777T196 787Q177 787 163 781T134 765Q129 769 124 775T119 786Q119 795 129 804Q158 830 192 847T269 864Q291 864 311 858T346 841T370 814T379 775Q379 749 366 731T333 700T290 678T248 663V661Q271 666 293 662T332 647T359 616T370 571Z"  />
<glyph unicode="&#xB4;" horiz-adv-x="500" d="M364 705Q364 691 355 679T337 659Q294 617 248 580T158 509Q150 509 143 514T136 527Q146 545 161 572T190 626T217 674T233 702Q247 726 259 743T295 760Q304 760 316 755T338 743T356 725T364 705Z"  />
<glyph unicode="&#xB5;" horiz-adv-x="676" d="M616 157Q621 155 624 153T632 148Q640 142 641 136T641 124T635 112T625 100Q574 40 518 11T408 -18Q384 -18 369 -11T344 6T331 30T327 55Q327 65 329 76T334 98T340 118T345 132L357 166H356Q339 142 314 113T265 60Q230 25 192 4T111 -18Q106 -18 103 -18T94 -17Q89 -17 84 -22Q81 -46 85 -66T96 -106T109 -145T115 -185Q115 -228 88 -253T15 -279Q-25 -279 -42 -259T-60 -209Q-60 -183 -53 -157T-38 -110Q-33 -96 -22 -66T2 1T28 73T51 136L109 295Q115 312 122 332T130 363Q130 379 119 379Q107 379 86 363T35 310Q31 312 26 316T16 323Q9 330 10 339T26 366Q43 387 66 407T117 444T175 471T238 482Q272 482 299 466T326 412Q326 386 315 355T294 298L266 219Q261 206 254 188T247 158Q247 152 250 148T260 143Q274 143 295 165T353 238Q373 266 389 297T416 360L436 416Q443 436 448 453T455 480Q478 482 501 481T541 477Q565 474 582 470T610 458T621 435T614 397L537 179Q529 157 521 135T512 101Q512 85 528 85Q540 85 563 102T616 157Z"  />
<glyph unicode="&#xB6;" horiz-adv-x="692" d="M458 47Q446 -5 430 -60T385 -162T314 -239T205 -269Q179 -269 156 -260T116 -235T88 -196T77 -147Q77 -118 86 -93T111 -49T152 -20T206 -9Q240 -9 266 -30T293 -87Q293 -118 274 -139T223 -161Q213 -161 208 -157T201 -147T198 -134T197 -119Q208 -120 220 -116T233 -95Q233 -81 222 -75T198 -69Q169 -69 157 -89T144 -136Q144 -167 162 -186T212 -206Q253 -206 279 -187T322 -135T351 -62T372 21L395 120Q389 119 376 118T348 117T318 116T294 116Q243 116 197 131T117 177T62 251T41 352Q41 419 65 479T136 586T249 658T398 685Q422 685 449 684T507 682T567 679T626 678H722Q728 675 728 662Q728 655 727 646T724 629T719 615T711 608H624Q614 608 607 605T593 591T580 562T566 513L458 47ZM510 612Q502 612 491 612T467 613T442 613T423 614L327 200Q339 200 366 201T415 204L510 612Z"  />
<glyph unicode="&#xB7;" horiz-adv-x="260" d="M212 284Q212 261 204 241T182 204T148 179T104 170Q62 170 36 197T10 266Q10 289 18 309T40 345T74 370T118 379Q160 379 186 353T212 284Z"  />
<glyph unicode="&#xB8;" horiz-adv-x="500" d="M343 -164Q343 -190 330 -211T296 -247T250 -270T202 -278Q170 -278 156 -270T142 -245Q142 -232 149 -218T170 -204Q177 -204 184 -208T197 -217T211 -226T227 -230Q238 -230 244 -224T250 -209Q250 -195 239 -175T217 -135Q207 -117 206 -103T217 -71Q226 -57 241 -43T274 -16T308 9T339 30L358 7Q350 1 338 -10T316 -32Q306 -45 307 -54T315 -78Q323 -97 333 -118T343 -164Z"  />
<glyph unicode="&#xB9;" horiz-adv-x="330" d="M331 431Q318 431 302 431T268 432T235 432T207 433Q195 433 177 433T138 432T98 432T64 431Q63 436 63 439T64 447Q64 464 78 466L115 468Q120 468 124 470T133 478T141 498T151 533L203 750Q205 759 201 762T182 761L115 739Q108 745 103 759Q98 775 109 780L250 830Q261 834 275 840T303 851T332 860T358 864Q364 864 366 864T373 861Q367 842 360 816T350 776L290 532Q285 510 284 498T283 479T289 470T298 468L324 466Q331 465 333 461T336 450Q336 443 331 431Z"  />
<glyph unicode="&#xBA;" horiz-adv-x="401" d="M306 137Q306 131 305 121T300 100T293 81T283 71H4Q-2 75 -2 97Q-2 104 -1 114T4 135T11 153T21 163H300Q306 158 306 137ZM398 421Q398 377 381 338T335 269T266 222T184 204Q151 204 121 212T69 237T33 280T20 344Q20 387 37 426T83 496T151 543T234 561Q267 561 296 553T348 528T384 485T398 421ZM269 475Q269 488 265 499T247 510Q228 510 210 482T179 417T157 344T149 290Q149 277 153 266T171 255Q190 255 208 283T239 348T261 421T269 475Z"  />
<glyph unicode="&#xBB;" horiz-adv-x="500" d="M230 48Q221 47 211 54T200 72Q208 88 221 110T249 156T279 203T307 244Q308 247 308 249T309 254Q303 270 295 293T278 340T262 389T251 431Q255 441 265 446T283 450Q299 434 322 409T371 355T420 298T460 249Q462 246 459 239Q437 218 407 192T345 139T283 88T230 48ZM31 48Q22 47 12 54T1 72Q9 88 22 110T50 156T80 203T108 244Q109 247 109 249T110 254Q104 270 96 293T79 340T63 389T52 431Q56 441 66 446T84 450Q100 434 123 409T172 355T221 298T261 249Q263 246 260 239Q238 218 208 192T146 139T84 88T31 48Z"  />
<glyph unicode="&#xBC;" horiz-adv-x="844" d="M198 -30Q187 -25 173 -13T152 8L680 649Q691 645 705 633T727 612L198 -30ZM280 204Q267 204 251 204T217 205T184 205T156 206Q144 206 126 206T87 205T47 205T13 204Q12 209 12 212T13 220Q13 237 27 239L64 241Q69 241 73 243T82 251T90 271T100 306L152 523Q154 532 150 535T131 534L64 512Q57 518 52 532Q47 548 58 553L199 603Q210 607 224 613T252 624T281 633T307 637Q313 637 315 637T322 634Q316 615 309 589T299 549L239 305Q234 283 233 271T232 252T238 243T247 241L273 239Q280 238 282 234T285 223Q285 216 280 204ZM698 -35Q696 -37 688 -38T669 -41T647 -42T628 -43Q620 -43 609 -43T587 -41T568 -38T559 -34L585 76Q585 78 582 81H501Q481 81 463 80T428 78Q428 85 429 95T433 114T439 132T444 145Q451 151 471 171T515 218L630 346Q653 372 668 390T696 423Q700 424 716 424T750 425T784 425T805 423Q799 402 795 383T785 341L744 157Q744 154 747 153H784Q787 149 787 137T784 116Q782 105 778 96T770 81H728Q727 80 725 77L698 -35ZM600 153Q603 153 603 156L634 278H631L523 155V153H600Z"  />
<glyph unicode="&#xBD;" horiz-adv-x="903" d="M820 326Q820 285 800 251T749 188T684 134T620 87V85H733Q763 85 774 91T795 113Q798 118 802 120T815 123Q819 123 823 123T833 121Q830 111 826 95T817 62T809 30T803 6Q802 4 800 3T795 -1Q758 4 717 2T638 0Q621 0 601 0T561 0T526 -1T503 -1Q502 2 502 10T501 27T503 45T505 57Q532 75 561 98T616 151T657 214T674 289Q674 322 660 337T626 352Q609 352 596 345T572 327Q567 330 566 331T561 336Q552 345 567 364Q593 395 628 413T706 431Q725 431 745 425T781 406T809 374T820 326ZM198 -30Q187 -25 173 -13T152 8L680 649Q691 645 705 633T727 612L198 -30ZM280 204Q267 204 251 204T217 205T184 205T156 206Q144 206 126 206T87 205T47 205T13 204Q12 209 12 212T13 220Q13 237 27 239L64 241Q69 241 73 243T82 251T90 271T100 306L152 523Q154 532 150 535T131 534L64 512Q57 518 52 532Q47 548 58 553L199 603Q210 607 224 613T252 624T281 633T307 637Q313 637 315 637T322 634Q316 615 309 589T299 549L239 305Q234 283 233 271T232 252T238 243T247 241L273 239Q280 238 282 234T285 223Q285 216 280 204Z"  />
<glyph unicode="&#xBE;" horiz-adv-x="854" d="M208 -30Q197 -25 183 -13T162 8L690 649Q701 645 715 633T737 612L208 -30ZM319 344Q319 307 302 274T253 215T177 174T80 159Q26 159 -1 176T-29 217Q-29 225 -25 234T-15 252T0 265T17 270Q28 270 36 260T52 239T72 217T100 207Q122 207 137 220T161 253T174 293T178 329Q178 361 163 374T125 387Q115 387 106 385T86 382Q78 382 75 387T69 400Q68 403 68 407T68 415Q93 423 115 432T153 453T178 480T188 515Q188 540 174 550T145 560Q126 560 112 554T83 538Q78 542 73 548T68 559Q68 568 78 577Q107 603 141 620T218 637Q240 637 260 631T295 614T319 587T328 548Q328 522 315 504T282 473T239 451T197 436V434Q220 439 242 435T281 420T308 389T319 344ZM708 -35Q706 -37 698 -38T679 -41T657 -42T638 -43Q630 -43 619 -43T597 -41T578 -38T569 -34L595 76Q595 78 592 81H511Q491 81 473 80T438 78Q438 85 439 95T443 114T449 132T454 145Q461 151 481 171T525 218L640 346Q663 372 678 390T706 423Q710 424 726 424T760 425T794 425T815 423Q809 402 805 383T795 341L754 157Q754 154 757 153H794Q797 149 797 137T794 116Q792 105 788 96T780 81H738Q737 80 735 77L708 -35ZM610 153Q613 153 613 156L644 278H641L533 155V153H610Z"  />
<glyph unicode="&#xBF;" horiz-adv-x="423" d="M293 85Q293 44 278 18T239 -24T188 -51T137 -69T98 -88T82 -116Q82 -148 117 -148Q132 -148 143 -143T165 -133T187 -122T212 -117Q225 -117 234 -124T250 -143T259 -167T262 -191Q262 -199 260 -206T250 -220T229 -231T194 -235Q153 -235 113 -221T40 -181T-12 -118T-32 -33Q-32 10 -17 37T23 80T74 106T125 124T164 143T180 171Q180 186 170 194T144 203Q129 203 119 201T95 198Q62 198 62 234Q62 255 71 270T103 285Q133 285 166 269T228 226T274 162T293 85ZM328 395Q328 353 301 326T231 298Q193 298 167 322T140 385Q140 427 167 454T237 482Q275 482 301 458T328 395Z"  />
<glyph unicode="&#xC0;" horiz-adv-x="739" d="M676 -3Q638 -3 593 -2T511 0Q493 0 472 0T429 -1T384 -2T343 -3Q342 2 342 6T342 16Q342 27 346 31T359 38L390 43Q400 44 406 48T415 63T417 93T412 145L402 221Q400 226 395 227H204Q199 225 195 221L170 175Q159 155 150 133T137 92T138 59T161 42L186 38Q194 36 196 32T199 20Q199 9 194 -3Q156 -3 128 -2T65 0Q47 0 34 0T7 -1T-21 -2T-55 -3Q-56 2 -56 6T-56 16Q-56 27 -52 31T-39 38L-22 42Q-14 44 -7 49T10 66T31 97T60 146L371 684Q372 686 383 687T410 689T446 690T481 690T509 688T521 684L607 145Q612 112 617 93T628 64T641 49T657 42L668 38Q676 35 678 32T681 20Q681 9 676 -3ZM386 289Q390 292 393 296L363 526H361L236 296Q236 292 241 289H386ZM471 729Q472 721 468 714T457 705Q414 716 369 732T288 763Q269 771 259 781T248 809Q248 820 253 833T266 857T285 875T308 883Q322 883 332 876T354 858Q379 834 410 799T471 729Z"  />
<glyph unicode="&#xC1;" horiz-adv-x="739" d="M676 -3Q638 -3 593 -2T511 0Q493 0 472 0T429 -1T384 -2T343 -3Q342 2 342 6T342 16Q342 27 346 31T359 38L390 43Q400 44 406 48T415 63T417 93T412 145L402 221Q400 226 395 227H204Q199 225 195 221L170 175Q159 155 150 133T137 92T138 59T161 42L186 38Q194 36 196 32T199 20Q199 9 194 -3Q156 -3 128 -2T65 0Q47 0 34 0T7 -1T-21 -2T-55 -3Q-56 2 -56 6T-56 16Q-56 27 -52 31T-39 38L-22 42Q-14 44 -7 49T10 66T31 97T60 146L371 684Q372 686 383 687T410 689T446 690T481 690T509 688T521 684L607 145Q612 112 617 93T628 64T641 49T657 42L668 38Q676 35 678 32T681 20Q681 9 676 -3ZM386 289Q390 292 393 296L363 526H361L236 296Q236 292 241 289H386ZM663 815Q663 797 648 787T619 771Q571 751 523 735T423 705Q407 709 409 730Q441 761 474 791T542 849Q554 859 570 871T604 884Q615 884 625 878T644 861T658 838T663 815Z"  />
<glyph unicode="&#xC2;" horiz-adv-x="739" d="M676 -3Q638 -3 593 -2T511 0Q493 0 472 0T429 -1T384 -2T343 -3Q342 2 342 6T342 16Q342 27 346 31T359 38L390 43Q400 44 406 48T415 63T417 93T412 145L402 221Q400 226 395 227H204Q199 225 195 221L170 175Q159 155 150 133T137 92T138 59T161 42L186 38Q194 36 196 32T199 20Q199 9 194 -3Q156 -3 128 -2T65 0Q47 0 34 0T7 -1T-21 -2T-55 -3Q-56 2 -56 6T-56 16Q-56 27 -52 31T-39 38L-22 42Q-14 44 -7 49T10 66T31 97T60 146L371 684Q372 686 383 687T410 689T446 690T481 690T509 688T521 684L607 145Q612 112 617 93T628 64T641 49T657 42L668 38Q676 35 678 32T681 20Q681 9 676 -3ZM386 289Q390 292 393 296L363 526H361L236 296Q236 292 241 289H386ZM628 729Q629 721 625 714T614 705Q595 712 574 721T533 740T493 760T459 778Q456 780 453 780T447 778Q430 769 410 759T367 739T324 720T284 705Q268 709 270 730Q302 761 334 791T402 849Q414 859 430 871T464 884Q478 884 488 877T510 858Q535 834 567 799T628 729Z"  />
<glyph unicode="&#xC3;" horiz-adv-x="739" d="M676 -3Q638 -3 593 -2T511 0Q493 0 472 0T429 -1T384 -2T343 -3Q342 2 342 6T342 16Q342 27 346 31T359 38L390 43Q400 44 406 48T415 63T417 93T412 145L402 221Q400 226 395 227H204Q199 225 195 221L170 175Q159 155 150 133T137 92T138 59T161 42L186 38Q194 36 196 32T199 20Q199 9 194 -3Q156 -3 128 -2T65 0Q47 0 34 0T7 -1T-21 -2T-55 -3Q-56 2 -56 6T-56 16Q-56 27 -52 31T-39 38L-22 42Q-14 44 -7 49T10 66T31 97T60 146L371 684Q372 686 383 687T410 689T446 690T481 690T509 688T521 684L607 145Q612 112 617 93T628 64T641 49T657 42L668 38Q676 35 678 32T681 20Q681 9 676 -3ZM386 289Q390 292 393 296L363 526H361L236 296Q236 292 241 289H386ZM624 845Q624 821 614 799T587 760T547 733T501 722Q476 722 452 732T406 754T369 776T343 786Q325 786 325 768Q325 759 329 752T334 737Q334 725 321 720T297 714Q282 714 278 725T273 749Q273 773 283 795T310 834T350 861T396 872Q421 872 445 862T491 840T528 818T554 808Q572 808 572 826Q572 835 568 842T563 857Q563 869 576 874T600 880Q615 880 619 869T624 845Z"  />
<glyph unicode="&#xC4;" horiz-adv-x="739" d="M676 -3Q638 -3 593 -2T511 0Q493 0 472 0T429 -1T384 -2T343 -3Q342 2 342 6T342 16Q342 27 346 31T359 38L390 43Q400 44 406 48T415 63T417 93T412 145L402 221Q400 226 395 227H204Q199 225 195 221L170 175Q159 155 150 133T137 92T138 59T161 42L186 38Q194 36 196 32T199 20Q199 9 194 -3Q156 -3 128 -2T65 0Q47 0 34 0T7 -1T-21 -2T-55 -3Q-56 2 -56 6T-56 16Q-56 27 -52 31T-39 38L-22 42Q-14 44 -7 49T10 66T31 97T60 146L371 684Q372 686 383 687T410 689T446 690T481 690T509 688T521 684L607 145Q612 112 617 93T628 64T641 49T657 42L668 38Q676 35 678 32T681 20Q681 9 676 -3ZM386 289Q390 292 393 296L363 526H361L236 296Q236 292 241 289H386ZM625 802Q625 784 619 768T602 740T576 720T542 712Q508 712 489 734T470 789Q470 807 476 823T492 851T518 871T552 879Q586 879 605 857T625 802ZM428 802Q428 784 422 768T405 740T379 720T345 712Q311 712 292 734T273 789Q273 807 279 823T295 851T321 871T355 879Q389 879 408 857T428 802Z"  />
<glyph unicode="&#xC5;" horiz-adv-x="739" d="M676 -3Q638 -3 593 -2T511 0Q493 0 472 0T429 -1T384 -2T343 -3Q342 2 342 6T342 16Q342 27 346 31T359 38L390 43Q400 44 406 48T415 63T417 93T412 145L402 221Q400 226 395 227H204Q199 225 195 221L170 175Q159 155 150 133T137 92T138 59T161 42L186 38Q194 36 196 32T199 20Q199 9 194 -3Q156 -3 128 -2T65 0Q47 0 34 0T7 -1T-21 -2T-55 -3Q-56 2 -56 6T-56 16Q-56 27 -52 31T-39 38L-22 42Q-14 44 -7 49T10 66T31 97T60 146L371 684Q372 686 383 687T410 689T446 690T481 690T509 688T521 684L607 145Q612 112 617 93T628 64T641 49T657 42L668 38Q676 35 678 32T681 20Q681 9 676 -3ZM386 289Q390 292 393 296L363 526H361L236 296Q236 292 241 289H386ZM569 843Q569 814 559 790T530 749T488 723T435 713Q390 713 360 738T329 809Q329 838 339 862T368 903T411 930T464 940Q509 940 539 914T569 843ZM492 848Q492 856 491 865T486 883T476 897T459 903Q444 903 434 892T418 865T410 833T407 804Q407 796 408 787T413 769T423 756T440 750Q455 750 465 761T481 787T489 819T492 848Z"  />
<glyph unicode="&#xC6;" horiz-adv-x="1011" d="M944 179Q939 165 932 140T918 87T905 37T897 5Q893 -1 889 -2Q882 0 846 0T746 0H505Q487 0 463 0T414 -1T364 -2T320 -3Q319 2 319 6T319 16Q319 27 323 31T336 38L369 43Q379 44 386 48T400 62T413 92T427 145L458 278Q458 282 454 286H287Q284 285 282 285T277 282L175 147Q137 96 134 71T157 43L197 38Q205 37 207 33T210 20Q210 9 205 -3Q167 -2 135 -1T67 0Q49 0 35 0T7 -1T-21 -2T-55 -3Q-56 2 -56 6T-56 16Q-56 27 -52 31T-39 38L-32 40Q-18 44 3 68T68 146L377 528Q399 555 406 574T412 606T401 626T380 635L350 640Q342 642 340 646T337 658Q337 669 342 681Q379 680 407 679T471 678H835Q896 678 928 678T969 680Q975 676 976 672Q974 663 971 640T965 590T960 538T956 497Q951 496 945 496T934 496Q913 496 912 515L907 555Q906 565 903 575T890 593T861 607T808 613H739Q734 604 728 583T711 520L674 364Q674 360 678 356H727Q755 356 772 358T800 364T815 374T823 391L832 419Q834 427 839 429T853 431Q859 431 866 430T877 427Q874 418 871 404T864 375T857 347T852 326Q850 318 847 305T841 277T836 247T831 220Q826 218 819 218T806 218Q789 218 791 233L792 252Q792 259 791 266T781 279T757 287T712 291H663Q659 288 656 284L633 184Q625 148 622 125T621 89T634 70T662 65H738Q767 65 788 68T824 80T852 104T877 143L896 179Q905 195 924 188Q929 186 934 184T944 179ZM468 344Q472 347 475 351L538 620H536L330 350Q332 345 334 344H468Z"  />
<glyph unicode="&#xC7;" horiz-adv-x="696" d="M629 193Q622 172 615 147T600 97T586 49T574 6Q572 5 568 5T562 5Q548 5 543 11T529 18Q522 18 515 15T493 7Q463 -2 434 -7T376 -16Q372 -20 369 -23T362 -32Q352 -45 353 -54T361 -78Q369 -97 379 -118T389 -164Q389 -190 376 -211T342 -247T296 -270T248 -278Q216 -278 202 -270T188 -245Q188 -232 195 -218T216 -204Q223 -204 230 -208T243 -217T257 -226T273 -230Q284 -230 290 -224T296 -209Q296 -195 285 -175T263 -135Q253 -117 252 -103T263 -71Q271 -57 285 -44T317 -18Q252 -16 198 5T105 65T45 157T23 276Q23 358 51 434T133 568T264 661T441 696Q480 696 508 692T569 675Q576 672 586 668T605 660T620 654T629 651Q634 651 637 653T643 658T649 663T661 666Q663 666 667 666T673 665Q670 647 666 621T659 567T652 512T646 467Q641 466 635 466T624 466Q605 466 602 485L596 525Q592 551 580 570T550 601T511 620T469 626Q426 626 392 608T331 559T287 489T257 410T240 329T234 258Q234 215 241 178T267 112T315 68T390 51Q456 51 497 78T566 162L581 193Q589 211 612 202Q617 200 620 198T629 193Z"  />
<glyph unicode="&#xC8;" horiz-adv-x="640" d="M573 179Q568 165 561 140T547 87T534 37T526 5Q522 -1 518 -2Q511 0 475 0T375 0H134Q116 0 92 0T43 -1T-7 -2T-51 -3Q-52 2 -52 6T-52 16Q-52 27 -48 31T-35 38L-2 43Q8 44 15 48T29 62T42 92T56 145L146 533Q154 566 156 585T157 615T148 629T131 635L102 640Q94 642 92 646T89 658Q89 669 94 681Q113 681 135 681T181 680T225 679T265 678H464Q525 678 557 678T598 680Q604 676 605 672Q603 663 600 640T594 590T589 538T585 497Q580 496 574 496T562 496Q541 496 540 515L535 555Q534 565 531 575T518 593T489 607T436 613H368Q363 604 357 583T340 520L309 389Q309 385 313 381H362Q390 381 407 383T435 389T450 399T458 416L466 438Q469 446 474 448T487 450Q493 450 500 449T511 446Q508 437 505 423T498 394T491 366T486 345Q484 337 481 324T475 296T470 266T465 239Q460 237 453 237T440 237Q423 237 425 252L427 277Q428 284 427 291T417 304T393 312T347 316H298Q294 313 291 309L262 184Q254 148 251 125T250 89T263 70T291 65H367Q396 65 417 68T453 80T481 104T506 143L525 179Q534 195 553 188Q558 186 563 184T573 179ZM435 729Q436 721 432 714T421 705Q378 716 333 732T252 763Q233 771 223 781T212 809Q212 820 217 833T230 857T249 875T272 883Q286 883 296 876T318 858Q343 834 374 799T435 729Z"  />
<glyph unicode="&#xC9;" horiz-adv-x="640" d="M573 179Q568 165 561 140T547 87T534 37T526 5Q522 -1 518 -2Q511 0 475 0T375 0H134Q116 0 92 0T43 -1T-7 -2T-51 -3Q-52 2 -52 6T-52 16Q-52 27 -48 31T-35 38L-2 43Q8 44 15 48T29 62T42 92T56 145L146 533Q154 566 156 585T157 615T148 629T131 635L102 640Q94 642 92 646T89 658Q89 669 94 681Q113 681 135 681T181 680T225 679T265 678H464Q525 678 557 678T598 680Q604 676 605 672Q603 663 600 640T594 590T589 538T585 497Q580 496 574 496T562 496Q541 496 540 515L535 555Q534 565 531 575T518 593T489 607T436 613H368Q363 604 357 583T340 520L309 389Q309 385 313 381H362Q390 381 407 383T435 389T450 399T458 416L466 438Q469 446 474 448T487 450Q493 450 500 449T511 446Q508 437 505 423T498 394T491 366T486 345Q484 337 481 324T475 296T470 266T465 239Q460 237 453 237T440 237Q423 237 425 252L427 277Q428 284 427 291T417 304T393 312T347 316H298Q294 313 291 309L262 184Q254 148 251 125T250 89T263 70T291 65H367Q396 65 417 68T453 80T481 104T506 143L525 179Q534 195 553 188Q558 186 563 184T573 179ZM607 815Q607 797 592 787T563 771Q515 751 467 735T367 705Q351 709 353 730Q385 761 418 791T486 849Q498 859 514 871T548 884Q559 884 569 878T588 861T602 838T607 815Z"  />
<glyph unicode="&#xCA;" horiz-adv-x="640" d="M573 179Q568 165 561 140T547 87T534 37T526 5Q522 -1 518 -2Q511 0 475 0T375 0H134Q116 0 92 0T43 -1T-7 -2T-51 -3Q-52 2 -52 6T-52 16Q-52 27 -48 31T-35 38L-2 43Q8 44 15 48T29 62T42 92T56 145L146 533Q154 566 156 585T157 615T148 629T131 635L102 640Q94 642 92 646T89 658Q89 669 94 681Q113 681 135 681T181 680T225 679T265 678H464Q525 678 557 678T598 680Q604 676 605 672Q603 663 600 640T594 590T589 538T585 497Q580 496 574 496T562 496Q541 496 540 515L535 555Q534 565 531 575T518 593T489 607T436 613H368Q363 604 357 583T340 520L309 389Q309 385 313 381H362Q390 381 407 383T435 389T450 399T458 416L466 438Q469 446 474 448T487 450Q493 450 500 449T511 446Q508 437 505 423T498 394T491 366T486 345Q484 337 481 324T475 296T470 266T465 239Q460 237 453 237T440 237Q423 237 425 252L427 277Q428 284 427 291T417 304T393 312T347 316H298Q294 313 291 309L262 184Q254 148 251 125T250 89T263 70T291 65H367Q396 65 417 68T453 80T481 104T506 143L525 179Q534 195 553 188Q558 186 563 184T573 179ZM562 729Q563 721 559 714T548 705Q529 712 508 721T467 740T427 760T393 778Q390 780 387 780T381 778Q364 769 344 759T301 739T258 720T218 705Q202 709 204 730Q236 761 268 791T336 849Q348 859 364 871T398 884Q412 884 422 877T444 858Q469 834 501 799T562 729Z"  />
<glyph unicode="&#xCB;" horiz-adv-x="640" d="M573 179Q568 165 561 140T547 87T534 37T526 5Q522 -1 518 -2Q511 0 475 0T375 0H134Q116 0 92 0T43 -1T-7 -2T-51 -3Q-52 2 -52 6T-52 16Q-52 27 -48 31T-35 38L-2 43Q8 44 15 48T29 62T42 92T56 145L146 533Q154 566 156 585T157 615T148 629T131 635L102 640Q94 642 92 646T89 658Q89 669 94 681Q113 681 135 681T181 680T225 679T265 678H464Q525 678 557 678T598 680Q604 676 605 672Q603 663 600 640T594 590T589 538T585 497Q580 496 574 496T562 496Q541 496 540 515L535 555Q534 565 531 575T518 593T489 607T436 613H368Q363 604 357 583T340 520L309 389Q309 385 313 381H362Q390 381 407 383T435 389T450 399T458 416L466 438Q469 446 474 448T487 450Q493 450 500 449T511 446Q508 437 505 423T498 394T491 366T486 345Q484 337 481 324T475 296T470 266T465 239Q460 237 453 237T440 237Q423 237 425 252L427 277Q428 284 427 291T417 304T393 312T347 316H298Q294 313 291 309L262 184Q254 148 251 125T250 89T263 70T291 65H367Q396 65 417 68T453 80T481 104T506 143L525 179Q534 195 553 188Q558 186 563 184T573 179ZM559 802Q559 784 553 768T536 740T510 720T476 712Q442 712 423 734T404 789Q404 807 410 823T426 851T452 871T486 879Q520 879 539 857T559 802ZM362 802Q362 784 356 768T339 740T313 720T279 712Q245 712 226 734T207 789Q207 807 213 823T229 851T255 871T289 879Q323 879 342 857T362 802Z"  />
<glyph unicode="&#xCC;" horiz-adv-x="399" d="M305 -3Q286 -3 264 -3T218 -2T174 -1T134 0Q116 0 92 0T43 -1T-7 -2T-51 -3Q-52 2 -52 6T-52 16Q-52 27 -48 31T-35 38L-2 43Q8 44 15 48T29 62T42 92T56 145L146 533Q154 566 156 585T157 615T148 629T131 635L102 640Q94 642 92 646T89 658Q89 669 94 681Q113 681 135 681T181 680T225 679T265 678Q283 678 307 678T356 679T406 680T450 681Q451 676 451 672T451 662Q451 651 447 647T434 640L401 635Q391 633 384 630T371 616T358 586T343 533L253 145Q245 112 243 93T243 63T251 49T268 43L297 38Q305 36 307 32T310 20Q310 9 305 -3ZM329 729Q330 721 326 714T315 705Q272 716 227 732T146 763Q127 771 117 781T106 809Q106 820 111 833T124 857T143 875T166 883Q180 883 190 876T212 858Q237 834 268 799T329 729Z"  />
<glyph unicode="&#xCD;" horiz-adv-x="399" d="M305 -3Q286 -3 264 -3T218 -2T174 -1T134 0Q116 0 92 0T43 -1T-7 -2T-51 -3Q-52 2 -52 6T-52 16Q-52 27 -48 31T-35 38L-2 43Q8 44 15 48T29 62T42 92T56 145L146 533Q154 566 156 585T157 615T148 629T131 635L102 640Q94 642 92 646T89 658Q89 669 94 681Q113 681 135 681T181 680T225 679T265 678Q283 678 307 678T356 679T406 680T450 681Q451 676 451 672T451 662Q451 651 447 647T434 640L401 635Q391 633 384 630T371 616T358 586T343 533L253 145Q245 112 243 93T243 63T251 49T268 43L297 38Q305 36 307 32T310 20Q310 9 305 -3ZM511 815Q511 797 496 787T467 771Q419 751 371 735T271 705Q255 709 257 730Q289 761 322 791T390 849Q402 859 418 871T452 884Q463 884 473 878T492 861T506 838T511 815Z"  />
<glyph unicode="&#xCE;" horiz-adv-x="399" d="M305 -3Q286 -3 264 -3T218 -2T174 -1T134 0Q116 0 92 0T43 -1T-7 -2T-51 -3Q-52 2 -52 6T-52 16Q-52 27 -48 31T-35 38L-2 43Q8 44 15 48T29 62T42 92T56 145L146 533Q154 566 156 585T157 615T148 629T131 635L102 640Q94 642 92 646T89 658Q89 669 94 681Q113 681 135 681T181 680T225 679T265 678Q283 678 307 678T356 679T406 680T450 681Q451 676 451 672T451 662Q451 651 447 647T434 640L401 635Q391 633 384 630T371 616T358 586T343 533L253 145Q245 112 243 93T243 63T251 49T268 43L297 38Q305 36 307 32T310 20Q310 9 305 -3ZM464 729Q465 721 461 714T450 705Q431 712 410 721T369 740T329 760T295 778Q292 780 289 780T283 778Q266 769 246 759T203 739T160 720T120 705Q104 709 106 730Q138 761 170 791T238 849Q250 859 266 871T300 884Q314 884 324 877T346 858Q371 834 403 799T464 729Z"  />
<glyph unicode="&#xCF;" horiz-adv-x="399" d="M305 -3Q286 -3 264 -3T218 -2T174 -1T134 0Q116 0 92 0T43 -1T-7 -2T-51 -3Q-52 2 -52 6T-52 16Q-52 27 -48 31T-35 38L-2 43Q8 44 15 48T29 62T42 92T56 145L146 533Q154 566 156 585T157 615T148 629T131 635L102 640Q94 642 92 646T89 658Q89 669 94 681Q113 681 135 681T181 680T225 679T265 678Q283 678 307 678T356 679T406 680T450 681Q451 676 451 672T451 662Q451 651 447 647T434 640L401 635Q391 633 384 630T371 616T358 586T343 533L253 145Q245 112 243 93T243 63T251 49T268 43L297 38Q305 36 307 32T310 20Q310 9 305 -3ZM468 802Q468 784 462 768T445 740T419 720T385 712Q351 712 332 734T313 789Q313 807 319 823T335 851T361 871T395 879Q429 879 448 857T468 802ZM271 802Q271 784 265 768T248 740T222 720T188 712Q154 712 135 734T116 789Q116 807 122 823T138 851T164 871T198 879Q232 879 251 857T271 802Z"  />
<glyph unicode="&#xD0;" horiz-adv-x="793" d="M770 393Q770 360 763 324T742 251T705 178T651 111Q599 59 520 30T351 0H129Q111 0 88 0T40 -1T-8 -2T-51 -3Q-52 2 -52 6T-52 16Q-52 27 -48 31T-35 38L-2 43Q8 44 15 48T29 62T42 92T56 145L95 313Q93 318 92 318H29Q31 333 34 352T43 386H105Q110 388 113 392L146 533Q153 566 156 585T157 614T148 629T131 635L102 640Q94 642 92 646T89 658Q89 669 94 681Q113 681 134 681T177 680T219 679T258 678Q276 678 302 679T358 681T416 684T466 685Q530 685 585 666T682 610T746 519T770 393ZM554 408Q554 444 548 481T526 549T483 600T412 620Q401 620 388 618T366 614Q361 603 355 584T344 541L309 391Q311 386 312 386H454Q452 371 449 352T441 318H300Q295 316 292 312L258 166Q251 136 248 117T247 87T258 71T282 67H305Q368 67 413 98T491 180Q523 230 538 290T554 408Z"  />
<glyph unicode="&#xD1;" horiz-adv-x="765" d="M669 -3Q654 -2 629 -1T588 0Q571 0 549 0T505 0T465 -1T440 -3Q435 -2 431 2Q423 23 411 49T381 115L222 467H220L173 246Q160 187 156 148T153 86T163 54T185 43L233 38Q241 37 243 33T246 20Q246 9 241 -3Q203 -2 163 -1T87 0Q69 0 55 0T26 -1T-4 -2T-37 -3Q-38 2 -38 6T-38 16Q-38 27 -34 31T-21 38L12 43Q21 44 28 51T43 76T60 128T81 216L157 562Q159 570 157 576Q149 593 141 603T125 620T108 629T88 635L67 640Q59 642 57 646T54 658Q54 669 59 681Q66 681 81 681T114 680T147 679T171 678Q177 678 200 678T251 678T302 679T334 681Q339 680 343 676Q350 656 362 627T390 563L550 208H552L600 432Q613 492 617 530T620 592T610 624T588 635L540 640Q532 641 530 645T527 658Q527 669 532 681Q570 680 607 679T679 678Q714 678 743 679T810 681Q811 676 811 672T811 662Q811 651 807 647T794 640L761 635Q752 633 745 627T730 602T713 550T692 462L612 99Q610 94 612 88Q626 59 637 50T654 39L661 38Q669 36 671 32T674 20Q674 9 669 -3ZM660 845Q660 821 650 799T623 760T583 733T537 722Q512 722 488 732T442 754T405 776T379 786Q361 786 361 768Q361 759 365 752T370 737Q370 725 357 720T333 714Q318 714 314 725T309 749Q309 773 319 795T346 834T386 861T432 872Q457 872 481 862T527 840T564 818T590 808Q608 808 608 826Q608 835 604 842T599 857Q599 869 612 874T636 880Q651 880 655 869T660 845Z"  />
<glyph unicode="&#xD2;" horiz-adv-x="786" d="M763 392Q763 302 731 227T643 97T510 12T347 -18Q281 -18 222 3T119 63T49 159T23 286Q23 376 55 451T143 581T276 666T439 696Q505 696 564 675T667 615T737 519T763 392ZM555 434Q555 463 551 498T534 563T498 614T436 635Q398 635 368 614T315 559T276 483T250 397T236 313T231 244Q231 215 235 180T252 115T288 64T350 43Q388 43 418 64T471 119T510 195T536 281T550 365T555 434ZM475 729Q476 721 472 714T461 705Q418 716 373 732T292 763Q273 771 263 781T252 809Q252 820 257 833T270 857T289 875T312 883Q326 883 336 876T358 858Q383 834 414 799T475 729Z"  />
<glyph unicode="&#xD3;" horiz-adv-x="786" d="M763 392Q763 302 731 227T643 97T510 12T347 -18Q281 -18 222 3T119 63T49 159T23 286Q23 376 55 451T143 581T276 666T439 696Q505 696 564 675T667 615T737 519T763 392ZM555 434Q555 463 551 498T534 563T498 614T436 635Q398 635 368 614T315 559T276 483T250 397T236 313T231 244Q231 215 235 180T252 115T288 64T350 43Q388 43 418 64T471 119T510 195T536 281T550 365T555 434ZM654 815Q654 797 639 787T610 771Q562 751 514 735T414 705Q398 709 400 730Q432 761 465 791T533 849Q545 859 561 871T595 884Q606 884 616 878T635 861T649 838T654 815Z"  />
<glyph unicode="&#xD4;" horiz-adv-x="786" d="M763 392Q763 302 731 227T643 97T510 12T347 -18Q281 -18 222 3T119 63T49 159T23 286Q23 376 55 451T143 581T276 666T439 696Q505 696 564 675T667 615T737 519T763 392ZM555 434Q555 463 551 498T534 563T498 614T436 635Q398 635 368 614T315 559T276 483T250 397T236 313T231 244Q231 215 235 180T252 115T288 64T350 43Q388 43 418 64T471 119T510 195T536 281T550 365T555 434ZM642 729Q643 721 639 714T628 705Q609 712 588 721T547 740T507 760T473 778Q470 780 467 780T461 778Q444 769 424 759T381 739T338 720T298 705Q282 709 284 730Q316 761 348 791T416 849Q428 859 444 871T478 884Q492 884 502 877T524 858Q549 834 581 799T642 729Z"  />
<glyph unicode="&#xD5;" horiz-adv-x="786" d="M763 392Q763 302 731 227T643 97T510 12T347 -18Q281 -18 222 3T119 63T49 159T23 286Q23 376 55 451T143 581T276 666T439 696Q505 696 564 675T667 615T737 519T763 392ZM555 434Q555 463 551 498T534 563T498 614T436 635Q398 635 368 614T315 559T276 483T250 397T236 313T231 244Q231 215 235 180T252 115T288 64T350 43Q388 43 418 64T471 119T510 195T536 281T550 365T555 434ZM644 845Q644 821 634 799T607 760T567 733T521 722Q496 722 472 732T426 754T389 776T363 786Q345 786 345 768Q345 759 349 752T354 737Q354 725 341 720T317 714Q302 714 298 725T293 749Q293 773 303 795T330 834T370 861T416 872Q441 872 465 862T511 840T548 818T574 808Q592 808 592 826Q592 835 588 842T583 857Q583 869 596 874T620 880Q635 880 639 869T644 845Z"  />
<glyph unicode="&#xD6;" horiz-adv-x="786" d="M763 392Q763 302 731 227T643 97T510 12T347 -18Q281 -18 222 3T119 63T49 159T23 286Q23 376 55 451T143 581T276 666T439 696Q505 696 564 675T667 615T737 519T763 392ZM555 434Q555 463 551 498T534 563T498 614T436 635Q398 635 368 614T315 559T276 483T250 397T236 313T231 244Q231 215 235 180T252 115T288 64T350 43Q388 43 418 64T471 119T510 195T536 281T550 365T555 434ZM639 802Q639 784 633 768T616 740T590 720T556 712Q522 712 503 734T484 789Q484 807 490 823T506 851T532 871T566 879Q600 879 619 857T639 802ZM442 802Q442 784 436 768T419 740T393 720T359 712Q325 712 306 734T287 789Q287 807 293 823T309 851T335 871T369 879Q403 879 422 857T442 802Z"  />
<glyph unicode="&#xD7;" horiz-adv-x="500" d="M397 5L227 174L57 4L-5 70L165 239L-5 408L58 475L228 306L399 476L461 410L290 240L460 71L397 5Z"  />
<glyph unicode="&#xD8;" horiz-adv-x="786" d="M763 392Q763 302 731 227T643 97T510 12T347 -18Q289 -18 237 -2T142 44Q140 45 139 45T136 45L57 -32Q53 -30 47 -24T35 -11T24 3T17 13L90 85Q92 91 91 92Q59 130 41 178T23 286Q23 376 55 451T143 581T276 666T439 696Q499 696 552 679T650 629Q653 628 657 629L732 704Q736 702 742 696T754 683T765 669T772 659L701 588Q700 586 700 585T699 581Q728 545 745 497T763 392ZM554 442Q551 444 549 442L244 153Q242 148 243 146Q251 104 276 74T351 43Q387 43 416 63T468 115T507 189T533 272T549 353T554 422V442ZM231 258Q231 250 231 243T232 228Q233 227 236 227L543 519Q546 522 545 525Q542 546 534 565T512 600T479 625T435 635Q398 635 369 615T317 562T278 488T251 405T236 324T231 258Z"  />
<glyph unicode="&#xD9;" horiz-adv-x="701" d="M297 -18Q244 -18 199 -5T120 33T67 92T48 171Q48 194 52 217T61 264L125 533Q133 566 135 585T136 614T127 629T110 635L81 640Q73 642 71 646T68 658Q68 669 73 681Q92 681 114 681T160 680T204 679T244 678Q262 678 286 678T335 679T385 680T429 681Q430 676 430 672T430 662Q430 651 426 647T413 640L380 635Q370 633 363 630T350 616T337 586T322 533L253 238Q245 201 245 170Q245 151 250 132T267 98T298 73T345 63Q382 63 408 77T451 115T480 167T498 227L541 414Q555 477 561 518T567 585T557 622T531 635L495 640Q487 641 485 645T482 658Q482 669 487 681Q506 681 521 681T552 680T587 679T632 678Q667 678 696 679T764 681Q765 676 765 672T765 662Q765 651 761 647T748 640L715 635Q705 633 698 626T684 601T668 550T646 462L586 207Q561 100 492 41T297 -18ZM485 729Q486 721 482 714T471 705Q428 716 383 732T302 763Q283 771 273 781T262 809Q262 820 267 833T280 857T299 875T322 883Q336 883 346 876T368 858Q393 834 424 799T485 729Z"  />
<glyph unicode="&#xDA;" horiz-adv-x="701" d="M297 -18Q244 -18 199 -5T120 33T67 92T48 171Q48 194 52 217T61 264L125 533Q133 566 135 585T136 614T127 629T110 635L81 640Q73 642 71 646T68 658Q68 669 73 681Q92 681 114 681T160 680T204 679T244 678Q262 678 286 678T335 679T385 680T429 681Q430 676 430 672T430 662Q430 651 426 647T413 640L380 635Q370 633 363 630T350 616T337 586T322 533L253 238Q245 201 245 170Q245 151 250 132T267 98T298 73T345 63Q382 63 408 77T451 115T480 167T498 227L541 414Q555 477 561 518T567 585T557 622T531 635L495 640Q487 641 485 645T482 658Q482 669 487 681Q506 681 521 681T552 680T587 679T632 678Q667 678 696 679T764 681Q765 676 765 672T765 662Q765 651 761 647T748 640L715 635Q705 633 698 626T684 601T668 550T646 462L586 207Q561 100 492 41T297 -18ZM697 815Q697 797 682 787T653 771Q605 751 557 735T457 705Q441 709 443 730Q475 761 508 791T576 849Q588 859 604 871T638 884Q649 884 659 878T678 861T692 838T697 815Z"  />
<glyph unicode="&#xDB;" horiz-adv-x="701" d="M297 -18Q244 -18 199 -5T120 33T67 92T48 171Q48 194 52 217T61 264L125 533Q133 566 135 585T136 614T127 629T110 635L81 640Q73 642 71 646T68 658Q68 669 73 681Q92 681 114 681T160 680T204 679T244 678Q262 678 286 678T335 679T385 680T429 681Q430 676 430 672T430 662Q430 651 426 647T413 640L380 635Q370 633 363 630T350 616T337 586T322 533L253 238Q245 201 245 170Q245 151 250 132T267 98T298 73T345 63Q382 63 408 77T451 115T480 167T498 227L541 414Q555 477 561 518T567 585T557 622T531 635L495 640Q487 641 485 645T482 658Q482 669 487 681Q506 681 521 681T552 680T587 679T632 678Q667 678 696 679T764 681Q765 676 765 672T765 662Q765 651 761 647T748 640L715 635Q705 633 698 626T684 601T668 550T646 462L586 207Q561 100 492 41T297 -18ZM642 729Q643 721 639 714T628 705Q609 712 588 721T547 740T507 760T473 778Q470 780 467 780T461 778Q444 769 424 759T381 739T338 720T298 705Q282 709 284 730Q316 761 348 791T416 849Q428 859 444 871T478 884Q492 884 502 877T524 858Q549 834 581 799T642 729Z"  />
<glyph unicode="&#xDC;" horiz-adv-x="701" d="M297 -18Q244 -18 199 -5T120 33T67 92T48 171Q48 194 52 217T61 264L125 533Q133 566 135 585T136 614T127 629T110 635L81 640Q73 642 71 646T68 658Q68 669 73 681Q92 681 114 681T160 680T204 679T244 678Q262 678 286 678T335 679T385 680T429 681Q430 676 430 672T430 662Q430 651 426 647T413 640L380 635Q370 633 363 630T350 616T337 586T322 533L253 238Q245 201 245 170Q245 151 250 132T267 98T298 73T345 63Q382 63 408 77T451 115T480 167T498 227L541 414Q555 477 561 518T567 585T557 622T531 635L495 640Q487 641 485 645T482 658Q482 669 487 681Q506 681 521 681T552 680T587 679T632 678Q667 678 696 679T764 681Q765 676 765 672T765 662Q765 651 761 647T748 640L715 635Q705 633 698 626T684 601T668 550T646 462L586 207Q561 100 492 41T297 -18ZM639 802Q639 784 633 768T616 740T590 720T556 712Q522 712 503 734T484 789Q484 807 490 823T506 851T532 871T566 879Q600 879 619 857T639 802ZM442 802Q442 784 436 768T419 740T393 720T359 712Q325 712 306 734T287 789Q287 807 293 823T309 851T335 871T369 879Q403 879 422 857T442 802Z"  />
<glyph unicode="&#xDD;" horiz-adv-x="661" d="M447 -3Q428 -3 406 -3T360 -2T316 -1T276 0Q258 0 234 0T185 -1T135 -2T91 -3Q90 2 90 6T90 16Q90 27 94 31T107 38L140 43Q150 44 157 48T170 62T183 92T198 145L228 272Q232 289 230 302T223 328L150 533Q139 564 130 583T113 613T98 628T83 636L73 640Q65 643 63 646T60 658Q60 669 65 681Q84 681 106 681T151 680T195 679T235 678Q253 678 274 678T317 679T362 680T403 681Q404 676 404 672T404 662Q404 651 400 647T387 640L358 635Q349 633 344 629T337 614T340 584T355 533L401 389H403L492 526Q511 556 519 575T528 607T523 626T506 635L486 640Q472 645 472 658Q472 663 474 669T478 681Q515 680 543 679T606 678Q624 678 638 678T666 679T694 680T728 681Q729 676 729 672T729 662Q729 651 725 647T712 640L697 636Q689 634 680 629T658 612T629 582T591 532L452 339Q442 325 437 311T426 278L395 145Q387 112 385 93T385 64T393 49T410 43L439 38Q447 36 449 32T452 20Q452 9 447 -3ZM667 815Q667 797 652 787T623 771Q575 751 527 735T427 705Q411 709 413 730Q445 761 478 791T546 849Q558 859 574 871T608 884Q619 884 629 878T648 861T662 838T667 815Z"  />
<glyph unicode="&#xDE;" horiz-adv-x="654" d="M325 -3Q306 -3 281 -3T229 -2T177 -1T134 0Q116 0 92 0T43 -1T-7 -2T-51 -3Q-52 2 -52 6T-52 16Q-52 27 -48 31T-35 38L-2 43Q8 44 15 48T29 62T42 92T56 145L146 533Q154 566 156 585T157 615T148 629T131 635L102 640Q94 642 92 646T89 658Q89 669 94 681Q113 681 135 681T181 680T225 679T265 678Q283 678 307 678T356 679T406 680T450 681Q451 676 451 672T451 662Q451 651 447 647T434 640L401 635Q380 632 373 626T361 604Q363 600 366 597Q381 599 398 599T433 600Q475 600 514 590T583 557T631 502T649 423Q649 364 625 319T561 243T467 197T355 181Q318 181 308 188T297 207Q297 215 300 226T309 243Q314 242 319 242T329 241Q363 241 384 263T418 316T436 380T441 434Q441 482 425 511T370 541Q365 541 359 541T350 540Q346 537 343 533L253 145Q245 113 244 94T245 64T255 49T272 44L317 38Q325 37 327 33T330 20Q330 9 325 -3Z"  />
<glyph unicode="&#xDF;" horiz-adv-x="651" d="M591 160Q591 125 574 93T526 36T449 -3T347 -18Q329 -18 307 -15T266 -3T235 18T222 51Q222 61 225 74T233 98T246 116T264 124Q276 124 289 113T317 88T350 63T388 51Q411 51 422 62T433 85Q433 106 412 134T366 195T320 266T299 342Q299 386 316 414T358 462T412 496T467 526T509 562T526 615Q526 644 505 667T442 691Q415 691 395 682T360 657T335 620T318 576Q281 452 251 321T180 67Q158 1 128 -61T58 -171T-33 -248T-147 -278Q-159 -278 -179 -275T-219 -265T-253 -246T-268 -216Q-268 -204 -262 -189T-246 -160T-224 -137T-199 -127Q-185 -127 -174 -138T-151 -162T-126 -186T-94 -197Q-78 -197 -65 -182T-39 -138T-17 -69T6 21Q33 135 57 246T108 471Q123 534 151 584T240 682Q283 716 342 737T471 759Q503 759 539 753T607 731T659 689T680 623Q680 589 664 568T624 531T572 506T520 484T480 457T464 417Q464 390 484 362T527 301T571 234T591 160Z"  />
<glyph unicode="&#xE0;" horiz-adv-x="600" d="M534 157Q542 155 551 148T561 131Q561 124 558 118T543 100Q522 78 499 57T450 19T396 -8T334 -18Q311 -18 297 -13T274 2T263 24T260 49Q260 72 268 98T286 153H285Q266 126 241 96T187 41T126 -1T60 -18Q14 -18 -9 9T-32 79Q-32 148 2 219T89 349T208 445T338 482Q359 482 382 477T419 454H420L426 465Q435 482 443 488T473 495Q499 495 526 495T575 493Q570 481 560 457T542 408L449 148Q447 141 443 127T439 105Q439 98 441 92T451 85Q474 85 534 157ZM335 337Q339 348 339 362Q339 398 304 398Q283 398 265 384T230 348T202 298T180 245T167 198T162 165Q162 151 168 141T188 130Q201 130 220 147T259 190T296 245T321 297L335 337ZM389 524Q387 516 380 512T364 509Q330 543 297 581T231 660Q224 669 219 679T213 701Q213 712 220 722T239 741T263 755T287 760Q307 760 316 747T334 712Q366 623 389 524Z"  />
<glyph unicode="&#xE1;" horiz-adv-x="600" d="M534 157Q542 155 551 148T561 131Q561 124 558 118T543 100Q522 78 499 57T450 19T396 -8T334 -18Q311 -18 297 -13T274 2T263 24T260 49Q260 72 268 98T286 153H285Q266 126 241 96T187 41T126 -1T60 -18Q14 -18 -9 9T-32 79Q-32 148 2 219T89 349T208 445T338 482Q359 482 382 477T419 454H420L426 465Q435 482 443 488T473 495Q499 495 526 495T575 493Q570 481 560 457T542 408L449 148Q447 141 443 127T439 105Q439 98 441 92T451 85Q474 85 534 157ZM335 337Q339 348 339 362Q339 398 304 398Q283 398 265 384T230 348T202 298T180 245T167 198T162 165Q162 151 168 141T188 130Q201 130 220 147T259 190T296 245T321 297L335 337ZM563 705Q563 691 554 679T536 659Q493 617 447 580T357 509Q349 509 342 514T335 527Q345 545 360 572T389 626T416 674T432 702Q446 726 458 743T494 760Q503 760 515 755T537 743T555 725T563 705Z"  />
<glyph unicode="&#xE2;" horiz-adv-x="600" d="M534 157Q542 155 551 148T561 131Q561 124 558 118T543 100Q522 78 499 57T450 19T396 -8T334 -18Q311 -18 297 -13T274 2T263 24T260 49Q260 72 268 98T286 153H285Q266 126 241 96T187 41T126 -1T60 -18Q14 -18 -9 9T-32 79Q-32 148 2 219T89 349T208 445T338 482Q359 482 382 477T419 454H420L426 465Q435 482 443 488T473 495Q499 495 526 495T575 493Q570 481 560 457T542 408L449 148Q447 141 443 127T439 105Q439 98 441 92T451 85Q474 85 534 157ZM335 337Q339 348 339 362Q339 398 304 398Q283 398 265 384T230 348T202 298T180 245T167 198T162 165Q162 151 168 141T188 130Q201 130 220 147T259 190T296 245T321 297L335 337ZM563 525Q561 517 554 513T538 509Q518 535 494 566T449 625Q444 627 439 625Q409 599 371 566T301 509Q293 509 287 514T279 527Q303 572 330 616T386 703Q399 723 415 740T457 758Q478 758 491 745T516 699Q529 661 540 615T563 525Z"  />
<glyph unicode="&#xE3;" horiz-adv-x="600" d="M534 157Q542 155 551 148T561 131Q561 124 558 118T543 100Q522 78 499 57T450 19T396 -8T334 -18Q311 -18 297 -13T274 2T263 24T260 49Q260 72 268 98T286 153H285Q266 126 241 96T187 41T126 -1T60 -18Q14 -18 -9 9T-32 79Q-32 148 2 219T89 349T208 445T338 482Q359 482 382 477T419 454H420L426 465Q435 482 443 488T473 495Q499 495 526 495T575 493Q570 481 560 457T542 408L449 148Q447 141 443 127T439 105Q439 98 441 92T451 85Q474 85 534 157ZM335 337Q339 348 339 362Q339 398 304 398Q283 398 265 384T230 348T202 298T180 245T167 198T162 165Q162 151 168 141T188 130Q201 130 220 147T259 190T296 245T321 297L335 337ZM597 692Q597 668 587 646T560 607T520 580T474 569Q449 569 425 579T379 601T342 623T316 633Q298 633 298 615Q298 606 302 599T307 584Q307 572 294 567T270 561Q255 561 251 572T246 596Q246 620 256 642T283 681T323 708T369 719Q394 719 418 709T464 687T501 665T527 655Q545 655 545 673Q545 682 541 689T536 704Q536 716 549 721T573 727Q588 727 592 716T597 692Z"  />
<glyph unicode="&#xE4;" horiz-adv-x="600" d="M534 157Q542 155 551 148T561 131Q561 124 558 118T543 100Q522 78 499 57T450 19T396 -8T334 -18Q311 -18 297 -13T274 2T263 24T260 49Q260 72 268 98T286 153H285Q266 126 241 96T187 41T126 -1T60 -18Q14 -18 -9 9T-32 79Q-32 148 2 219T89 349T208 445T338 482Q359 482 382 477T419 454H420L426 465Q435 482 443 488T473 495Q499 495 526 495T575 493Q570 481 560 457T542 408L449 148Q447 141 443 127T439 105Q439 98 441 92T451 85Q474 85 534 157ZM335 337Q339 348 339 362Q339 398 304 398Q283 398 265 384T230 348T202 298T180 245T167 198T162 165Q162 151 168 141T188 130Q201 130 220 147T259 190T296 245T321 297L335 337ZM597 654Q597 636 591 620T574 592T548 572T514 564Q480 564 461 586T442 641Q442 659 448 675T464 703T490 723T524 731Q558 731 577 709T597 654ZM400 654Q400 636 394 620T377 592T351 572T317 564Q283 564 264 586T245 641Q245 659 251 675T267 703T293 723T327 731Q361 731 380 709T400 654Z"  />
<glyph unicode="&#xE5;" horiz-adv-x="600" d="M534 157Q542 155 551 148T561 131Q561 124 558 118T543 100Q522 78 499 57T450 19T396 -8T334 -18Q311 -18 297 -13T274 2T263 24T260 49Q260 72 268 98T286 153H285Q266 126 241 96T187 41T126 -1T60 -18Q14 -18 -9 9T-32 79Q-32 148 2 219T89 349T208 445T338 482Q359 482 382 477T419 454H420L426 465Q435 482 443 488T473 495Q499 495 526 495T575 493Q570 481 560 457T542 408L449 148Q447 141 443 127T439 105Q439 98 441 92T451 85Q474 85 534 157ZM335 337Q339 348 339 362Q339 398 304 398Q283 398 265 384T230 348T202 298T180 245T167 198T162 165Q162 151 168 141T188 130Q201 130 220 147T259 190T296 245T321 297L335 337ZM541 652Q541 623 531 599T502 558T460 532T407 522Q362 522 332 547T301 618Q301 647 311 671T340 712T383 739T436 749Q481 749 511 723T541 652ZM464 657Q464 665 463 674T458 692T448 706T431 712Q416 712 406 701T390 674T382 642T379 613Q379 605 380 596T385 578T395 565T412 559Q427 559 437 570T453 596T461 628T464 657Z"  />
<glyph unicode="&#xE6;" horiz-adv-x="758" d="M747 382Q747 334 719 301T648 246T559 216T472 207Q470 205 468 204T463 200Q459 186 456 168T453 141Q453 114 466 101T508 88Q556 88 596 110T668 165Q674 163 680 159T690 152Q698 144 698 134T679 104Q621 47 553 15T418 -18Q346 -18 313 21T294 133Q295 138 296 143T299 153Q295 155 290 153Q271 126 246 96T192 41T131 -1T65 -18Q19 -18 -4 9T-27 79Q-27 148 7 219T94 349T213 445T343 482Q364 482 387 477T424 454H425L431 465Q440 482 448 488T478 495Q486 495 496 495T515 493Q511 485 507 474T496 446Q498 444 502 444Q518 457 545 469T615 482Q642 482 666 476T708 458T736 427T747 382ZM598 395Q598 409 592 418T575 428Q558 428 543 409T515 363T493 309T480 265Q482 259 484 258Q506 259 526 269T563 298T588 340T598 395ZM344 362Q344 398 309 398Q288 398 270 384T235 348T207 298T185 245T172 198T167 165Q167 151 173 141T193 130Q206 130 225 147T264 190T301 245T326 297L340 337Q344 348 344 362Z"  />
<glyph unicode="&#xE7;" horiz-adv-x="430" d="M355 166Q361 164 367 160T377 153Q385 145 385 136T366 105Q350 86 329 66T283 28Q268 17 251 5T219 -21Q204 -36 202 -47T209 -78Q217 -97 227 -118T237 -164Q237 -190 224 -211T190 -247T144 -270T96 -278Q64 -278 50 -270T36 -245Q36 -232 43 -218T64 -204Q71 -204 78 -208T91 -217T105 -226T121 -230Q132 -230 138 -224T144 -209Q144 -195 133 -175T111 -135Q101 -117 101 -103T111 -71Q122 -54 137 -41T168 -15V-14Q153 -18 136 -18Q67 -18 28 22T-11 132Q-11 165 -1 204T28 281T75 356T142 420T226 465T329 482Q342 482 361 479T397 470T427 451T439 421Q439 412 435 400T422 376T404 358T383 350Q370 350 359 359T337 379T311 399T278 408Q261 408 246 394T219 358T198 308T182 254T173 204T169 168Q169 126 188 108T230 90Q249 90 266 97T299 115T329 139T355 166Z"  />
<glyph unicode="&#xE8;" horiz-adv-x="461" d="M371 165Q377 163 383 159T393 152Q401 144 401 134T382 104Q328 47 266 15T135 -18Q69 -18 29 19T-11 132Q-11 167 -2 206T27 285T74 359T138 422T219 466T317 482Q344 482 368 476T410 458T439 427T450 382Q450 334 422 301T351 246T262 216T175 207Q174 206 173 204T169 200Q166 180 166 168Q166 133 183 112T237 90Q272 90 306 111T371 165ZM301 395Q301 409 295 418T278 428Q261 428 247 412T221 371T200 318T183 265Q185 259 187 258Q209 259 229 269T266 298T291 340T301 395ZM333 524Q331 516 324 512T308 509Q274 543 241 581T175 660Q168 669 163 679T157 701Q157 712 164 722T183 741T207 755T231 760Q251 760 260 747T278 712Q310 623 333 524Z"  />
<glyph unicode="&#xE9;" horiz-adv-x="461" d="M371 165Q377 163 383 159T393 152Q401 144 401 134T382 104Q328 47 266 15T135 -18Q69 -18 29 19T-11 132Q-11 167 -2 206T27 285T74 359T138 422T219 466T317 482Q344 482 368 476T410 458T439 427T450 382Q450 334 422 301T351 246T262 216T175 207Q174 206 173 204T169 200Q166 180 166 168Q166 133 183 112T237 90Q272 90 306 111T371 165ZM301 395Q301 409 295 418T278 428Q261 428 247 412T221 371T200 318T183 265Q185 259 187 258Q209 259 229 269T266 298T291 340T301 395ZM497 705Q497 691 488 679T470 659Q427 617 381 580T291 509Q283 509 276 514T269 527Q279 545 294 572T323 626T350 674T366 702Q380 726 392 743T428 760Q437 760 449 755T471 743T489 725T497 705Z"  />
<glyph unicode="&#xEA;" horiz-adv-x="461" d="M371 165Q377 163 383 159T393 152Q401 144 401 134T382 104Q328 47 266 15T135 -18Q69 -18 29 19T-11 132Q-11 167 -2 206T27 285T74 359T138 422T219 466T317 482Q344 482 368 476T410 458T439 427T450 382Q450 334 422 301T351 246T262 216T175 207Q174 206 173 204T169 200Q166 180 166 168Q166 133 183 112T237 90Q272 90 306 111T371 165ZM301 395Q301 409 295 418T278 428Q261 428 247 412T221 371T200 318T183 265Q185 259 187 258Q209 259 229 269T266 298T291 340T301 395ZM465 525Q463 517 456 513T440 509Q420 535 396 566T351 625Q346 627 341 625Q311 599 273 566T203 509Q195 509 189 514T181 527Q205 572 232 616T288 703Q301 723 317 740T359 758Q380 758 393 745T418 699Q431 661 442 615T465 525Z"  />
<glyph unicode="&#xEB;" horiz-adv-x="461" d="M371 165Q377 163 383 159T393 152Q401 144 401 134T382 104Q328 47 266 15T135 -18Q69 -18 29 19T-11 132Q-11 167 -2 206T27 285T74 359T138 422T219 466T317 482Q344 482 368 476T410 458T439 427T450 382Q450 334 422 301T351 246T262 216T175 207Q174 206 173 204T169 200Q166 180 166 168Q166 133 183 112T237 90Q272 90 306 111T371 165ZM301 395Q301 409 295 418T278 428Q261 428 247 412T221 371T200 318T183 265Q185 259 187 258Q209 259 229 269T266 298T291 340T301 395ZM499 654Q499 636 493 620T476 592T450 572T416 564Q382 564 363 586T344 641Q344 659 350 675T366 703T392 723T426 731Q460 731 479 709T499 654ZM302 654Q302 636 296 620T279 592T253 572T219 564Q185 564 166 586T147 641Q147 659 153 675T169 703T195 723T229 731Q263 731 282 709T302 654Z"  />
<glyph unicode="&#xEC;" horiz-adv-x="349" d="M297 157Q305 155 314 148T324 131Q324 124 321 118T306 100Q285 78 262 57T213 19T159 -8T97 -18Q63 -18 36 -2T9 52Q9 78 20 109T41 166L89 285Q98 307 105 329T113 363Q113 379 100 379Q84 379 63 358T24 310Q16 312 6 319T-4 335Q-4 342 0 348T14 367Q33 390 56 411T105 447T161 472T222 482Q237 482 253 479T282 468T303 447T311 415Q311 393 304 373T289 332L222 169Q215 152 208 132T201 101Q201 85 214 85Q237 85 297 157ZM251 524Q249 516 242 512T226 509Q192 543 159 581T93 660Q86 669 81 679T75 701Q75 712 82 722T101 741T125 755T149 760Q169 760 178 747T196 712Q228 623 251 524Z"  />
<glyph unicode="&#xED;" horiz-adv-x="349" d="M297 157Q305 155 314 148T324 131Q324 124 321 118T306 100Q285 78 262 57T213 19T159 -8T97 -18Q63 -18 36 -2T9 52Q9 78 20 109T41 166L89 285Q98 307 105 329T113 363Q113 379 100 379Q84 379 63 358T24 310Q16 312 6 319T-4 335Q-4 342 0 348T14 367Q33 390 56 411T105 447T161 472T222 482Q237 482 253 479T282 468T303 447T311 415Q311 393 304 373T289 332L222 169Q215 152 208 132T201 101Q201 85 214 85Q237 85 297 157ZM435 705Q435 691 426 679T408 659Q365 617 319 580T229 509Q221 509 214 514T207 527Q217 545 232 572T261 626T288 674T304 702Q318 726 330 743T366 760Q375 760 387 755T409 743T427 725T435 705Z"  />
<glyph unicode="&#xEE;" horiz-adv-x="349" d="M297 157Q305 155 314 148T324 131Q324 124 321 118T306 100Q285 78 262 57T213 19T159 -8T97 -18Q63 -18 36 -2T9 52Q9 78 20 109T41 166L89 285Q98 307 105 329T113 363Q113 379 100 379Q84 379 63 358T24 310Q16 312 6 319T-4 335Q-4 342 0 348T14 367Q33 390 56 411T105 447T161 472T222 482Q237 482 253 479T282 468T303 447T311 415Q311 393 304 373T289 332L222 169Q215 152 208 132T201 101Q201 85 214 85Q237 85 297 157ZM392 525Q390 517 383 513T367 509Q347 535 323 566T278 625Q273 627 268 625Q238 599 200 566T130 509Q122 509 116 514T108 527Q132 572 159 616T215 703Q228 723 244 740T286 758Q307 758 320 745T345 699Q358 661 369 615T392 525Z"  />
<glyph unicode="&#xEF;" horiz-adv-x="349" d="M297 157Q305 155 314 148T324 131Q324 124 321 118T306 100Q285 78 262 57T213 19T159 -8T97 -18Q63 -18 36 -2T9 52Q9 78 20 109T41 166L89 285Q98 307 105 329T113 363Q113 379 100 379Q84 379 63 358T24 310Q16 312 6 319T-4 335Q-4 342 0 348T14 367Q33 390 56 411T105 447T161 472T222 482Q237 482 253 479T282 468T303 447T311 415Q311 393 304 373T289 332L222 169Q215 152 208 132T201 101Q201 85 214 85Q237 85 297 157ZM426 654Q426 636 420 620T403 592T377 572T343 564Q309 564 290 586T271 641Q271 659 277 675T293 703T319 723T353 731Q387 731 406 709T426 654ZM229 654Q229 636 223 620T206 592T180 572T146 564Q112 564 93 586T74 641Q74 659 80 675T96 703T122 723T156 731Q190 731 209 709T229 654Z"  />
<glyph unicode="&#xF0;" horiz-adv-x="556" d="M541 385Q541 319 522 248T463 118T365 20T225 -18Q179 -18 138 -7T66 27T17 87T-1 176Q-1 231 20 282T79 374T166 439T272 464Q301 464 324 456T362 436H365Q368 471 362 511T342 579Q341 581 339 581T335 582L183 523Q181 526 178 533T171 550T165 567T161 579L301 633Q302 635 303 637T303 642Q286 665 260 686T197 721Q202 736 208 747T230 758Q243 758 258 754Q301 745 337 727T412 680Q414 679 416 678T421 678L555 726Q557 723 560 716T566 700T571 684T575 672L469 632Q467 630 466 624Q508 570 524 508T541 385ZM347 349Q347 367 341 385T312 403Q293 403 275 384T242 335T213 269T191 200T177 139T172 100Q172 82 178 64T207 46Q226 46 244 65T277 115T306 181T328 251T342 311T347 349Z"  />
<glyph unicode="&#xF1;" horiz-adv-x="661" d="M598 157Q606 155 615 148T625 131Q625 124 622 118T607 100Q586 78 563 57T514 19T460 -8T398 -18Q364 -18 337 -2T310 52Q310 78 320 109T342 166L377 250Q382 263 390 282T398 315Q398 334 381 334Q372 334 363 329T344 316T327 300T313 286Q277 248 254 200T215 104L196 48Q190 31 185 22T171 7T145 0T99 -2Q73 -2 51 -2T-2 1L98 285Q106 307 114 329T122 363Q122 379 109 379Q93 379 72 358T33 310Q25 312 15 319T5 335Q5 342 9 348T23 367Q41 388 63 408T110 445T162 472T217 482Q251 482 274 465T297 409Q297 399 295 388T290 366T284 346T280 332L271 304H272Q299 344 363 404Q401 440 440 461T528 482Q561 482 586 466T612 414Q612 389 600 359T579 305L523 169Q516 152 509 132T502 101Q502 85 515 85Q538 85 598 157ZM605 692Q605 668 595 646T568 607T528 580T482 569Q457 569 433 579T387 601T350 623T324 633Q306 633 306 615Q306 606 310 599T315 584Q315 572 302 567T278 561Q263 561 259 572T254 596Q254 620 264 642T291 681T331 708T377 719Q402 719 426 709T472 687T509 665T535 655Q553 655 553 673Q553 682 549 689T544 704Q544 716 557 721T581 727Q596 727 600 716T605 692Z"  />
<glyph unicode="&#xF2;" horiz-adv-x="550" d="M519 288Q519 227 496 172T432 74T337 7T223 -18Q177 -18 136 -7T64 27T15 87T-3 176Q-3 237 20 292T84 390T179 457T293 482Q339 482 380 471T452 437T501 377T519 288ZM346 364Q346 382 340 400T311 418Q292 418 274 399T241 350T212 283T190 211T175 146T170 100Q170 82 176 64T205 46Q224 46 242 65T275 114T304 181T326 253T341 318T346 364ZM356 524Q354 516 347 512T331 509Q297 543 264 581T198 660Q191 669 186 679T180 701Q180 712 187 722T206 741T230 755T254 760Q274 760 283 747T301 712Q333 623 356 524Z"  />
<glyph unicode="&#xF3;" horiz-adv-x="550" d="M519 288Q519 227 496 172T432 74T337 7T223 -18Q177 -18 136 -7T64 27T15 87T-3 176Q-3 237 20 292T84 390T179 457T293 482Q339 482 380 471T452 437T501 377T519 288ZM346 364Q346 382 340 400T311 418Q292 418 274 399T241 350T212 283T190 211T175 146T170 100Q170 82 176 64T205 46Q224 46 242 65T275 114T304 181T326 253T341 318T346 364ZM526 705Q526 691 517 679T499 659Q456 617 410 580T320 509Q312 509 305 514T298 527Q308 545 323 572T352 626T379 674T395 702Q409 726 421 743T457 760Q466 760 478 755T500 743T518 725T526 705Z"  />
<glyph unicode="&#xF4;" horiz-adv-x="550" d="M519 288Q519 227 496 172T432 74T337 7T223 -18Q177 -18 136 -7T64 27T15 87T-3 176Q-3 237 20 292T84 390T179 457T293 482Q339 482 380 471T452 437T501 377T519 288ZM346 364Q346 382 340 400T311 418Q292 418 274 399T241 350T212 283T190 211T175 146T170 100Q170 82 176 64T205 46Q224 46 242 65T275 114T304 181T326 253T341 318T346 364ZM490 525Q488 517 481 513T465 509Q445 535 421 566T376 625Q371 627 366 625Q336 599 298 566T228 509Q220 509 214 514T206 527Q230 572 257 616T313 703Q326 723 342 740T384 758Q405 758 418 745T443 699Q456 661 467 615T490 525Z"  />
<glyph unicode="&#xF5;" horiz-adv-x="550" d="M519 288Q519 227 496 172T432 74T337 7T223 -18Q177 -18 136 -7T64 27T15 87T-3 176Q-3 237 20 292T84 390T179 457T293 482Q339 482 380 471T452 437T501 377T519 288ZM346 364Q346 382 340 400T311 418Q292 418 274 399T241 350T212 283T190 211T175 146T170 100Q170 82 176 64T205 46Q224 46 242 65T275 114T304 181T326 253T341 318T346 364ZM524 692Q524 668 514 646T487 607T447 580T401 569Q376 569 352 579T306 601T269 623T243 633Q225 633 225 615Q225 606 229 599T234 584Q234 572 221 567T197 561Q182 561 178 572T173 596Q173 620 183 642T210 681T250 708T296 719Q321 719 345 709T391 687T428 665T454 655Q472 655 472 673Q472 682 468 689T463 704Q463 716 476 721T500 727Q515 727 519 716T524 692Z"  />
<glyph unicode="&#xF6;" horiz-adv-x="550" d="M519 288Q519 227 496 172T432 74T337 7T223 -18Q177 -18 136 -7T64 27T15 87T-3 176Q-3 237 20 292T84 390T179 457T293 482Q339 482 380 471T452 437T501 377T519 288ZM346 364Q346 382 340 400T311 418Q292 418 274 399T241 350T212 283T190 211T175 146T170 100Q170 82 176 64T205 46Q224 46 242 65T275 114T304 181T326 253T341 318T346 364ZM524 654Q524 636 518 620T501 592T475 572T441 564Q407 564 388 586T369 641Q369 659 375 675T391 703T417 723T451 731Q485 731 504 709T524 654ZM327 654Q327 636 321 620T304 592T278 572T244 564Q210 564 191 586T172 641Q172 659 178 675T194 703T220 723T254 731Q288 731 307 709T327 654Z"  />
<glyph unicode="&#xF7;" horiz-adv-x="500" d="M288 61Q288 36 272 18T225 0Q195 0 178 16T161 61Q161 89 178 105T224 121Q253 121 270 105T288 61ZM-10 195V288H460V195H-10ZM289 421Q289 393 272 377T226 361Q197 361 180 377T162 421Q162 446 178 464T225 482Q255 482 272 466T289 421Z"  />
<glyph unicode="&#xF8;" horiz-adv-x="550" d="M225 -18Q180 -18 141 -8T71 23Q71 23 63 21L7 -32Q4 -30 -1 -25T-11 -14T-20 -3T-26 6L29 57Q30 59 31 60T31 64Q17 84 8 112T-1 176Q-1 237 22 292T86 390T181 457T295 482Q337 482 374 474T442 446Q445 445 449 446L505 499Q512 494 523 481T538 461L487 413Q486 411 485 410T485 406Q501 385 511 356T521 288Q521 227 498 172T434 74T339 7T225 -18ZM207 46Q226 46 244 66T279 118T308 188T331 262Q331 266 327 265L176 126Q174 120 174 119Q173 112 173 108T172 98Q172 90 173 81T178 64T188 51T207 46ZM313 418Q294 418 276 399T242 350T213 283T191 211Q193 210 193 210T196 210L343 347L345 349Q345 349 347 354Q347 357 347 360T348 365Q348 373 347 382T342 400T332 413T313 418Z"  />
<glyph unicode="&#xF9;" horiz-adv-x="637" d="M579 157Q587 155 596 148T606 131Q606 124 603 118T588 100Q568 79 545 58T497 20T443 -7T384 -18Q351 -18 330 -1T308 55Q308 65 310 76T315 98T320 118T325 132L334 160H333Q315 134 293 109T249 61Q214 26 175 4T87 -18Q54 -18 29 -2T3 50Q3 61 6 75T15 105T25 134T36 159L88 285Q97 307 105 329T113 363Q113 379 100 379Q84 379 63 358T24 310Q16 312 6 319T-4 335Q-4 342 0 348T14 367Q33 390 56 411T105 447T161 472T222 482Q236 482 251 478T278 466T297 445T305 412Q305 386 295 355T273 298L238 214Q233 201 225 182T217 149Q217 130 230 130Q246 130 273 157T329 230Q350 262 365 296T390 360L409 416Q416 436 421 453T428 480Q454 482 478 481T515 477Q538 473 555 469T581 456T591 434T584 397L507 179Q499 157 491 135T483 101Q483 85 496 85Q519 85 579 157ZM380 524Q378 516 371 512T355 509Q321 543 288 581T222 660Q215 669 210 679T204 701Q204 712 211 722T230 741T254 755T278 760Q298 760 307 747T325 712Q357 623 380 524Z"  />
<glyph unicode="&#xFA;" horiz-adv-x="637" d="M579 157Q587 155 596 148T606 131Q606 124 603 118T588 100Q568 79 545 58T497 20T443 -7T384 -18Q351 -18 330 -1T308 55Q308 65 310 76T315 98T320 118T325 132L334 160H333Q315 134 293 109T249 61Q214 26 175 4T87 -18Q54 -18 29 -2T3 50Q3 61 6 75T15 105T25 134T36 159L88 285Q97 307 105 329T113 363Q113 379 100 379Q84 379 63 358T24 310Q16 312 6 319T-4 335Q-4 342 0 348T14 367Q33 390 56 411T105 447T161 472T222 482Q236 482 251 478T278 466T297 445T305 412Q305 386 295 355T273 298L238 214Q233 201 225 182T217 149Q217 130 230 130Q246 130 273 157T329 230Q350 262 365 296T390 360L409 416Q416 436 421 453T428 480Q454 482 478 481T515 477Q538 473 555 469T581 456T591 434T584 397L507 179Q499 157 491 135T483 101Q483 85 496 85Q519 85 579 157ZM576 705Q576 691 567 679T549 659Q506 617 460 580T370 509Q362 509 355 514T348 527Q358 545 373 572T402 626T429 674T445 702Q459 726 471 743T507 760Q516 760 528 755T550 743T568 725T576 705Z"  />
<glyph unicode="&#xFB;" horiz-adv-x="637" d="M579 157Q587 155 596 148T606 131Q606 124 603 118T588 100Q568 79 545 58T497 20T443 -7T384 -18Q351 -18 330 -1T308 55Q308 65 310 76T315 98T320 118T325 132L334 160H333Q315 134 293 109T249 61Q214 26 175 4T87 -18Q54 -18 29 -2T3 50Q3 61 6 75T15 105T25 134T36 159L88 285Q97 307 105 329T113 363Q113 379 100 379Q84 379 63 358T24 310Q16 312 6 319T-4 335Q-4 342 0 348T14 367Q33 390 56 411T105 447T161 472T222 482Q236 482 251 478T278 466T297 445T305 412Q305 386 295 355T273 298L238 214Q233 201 225 182T217 149Q217 130 230 130Q246 130 273 157T329 230Q350 262 365 296T390 360L409 416Q416 436 421 453T428 480Q454 482 478 481T515 477Q538 473 555 469T581 456T591 434T584 397L507 179Q499 157 491 135T483 101Q483 85 496 85Q519 85 579 157ZM554 525Q552 517 545 513T529 509Q509 535 485 566T440 625Q435 627 430 625Q400 599 362 566T292 509Q284 509 278 514T270 527Q294 572 321 616T377 703Q390 723 406 740T448 758Q469 758 482 745T507 699Q520 661 531 615T554 525Z"  />
<glyph unicode="&#xFC;" horiz-adv-x="637" d="M579 157Q587 155 596 148T606 131Q606 124 603 118T588 100Q568 79 545 58T497 20T443 -7T384 -18Q351 -18 330 -1T308 55Q308 65 310 76T315 98T320 118T325 132L334 160H333Q315 134 293 109T249 61Q214 26 175 4T87 -18Q54 -18 29 -2T3 50Q3 61 6 75T15 105T25 134T36 159L88 285Q97 307 105 329T113 363Q113 379 100 379Q84 379 63 358T24 310Q16 312 6 319T-4 335Q-4 342 0 348T14 367Q33 390 56 411T105 447T161 472T222 482Q236 482 251 478T278 466T297 445T305 412Q305 386 295 355T273 298L238 214Q233 201 225 182T217 149Q217 130 230 130Q246 130 273 157T329 230Q350 262 365 296T390 360L409 416Q416 436 421 453T428 480Q454 482 478 481T515 477Q538 473 555 469T581 456T591 434T584 397L507 179Q499 157 491 135T483 101Q483 85 496 85Q519 85 579 157ZM588 654Q588 636 582 620T565 592T539 572T505 564Q471 564 452 586T433 641Q433 659 439 675T455 703T481 723T515 731Q549 731 568 709T588 654ZM391 654Q391 636 385 620T368 592T342 572T308 564Q274 564 255 586T236 641Q236 659 242 675T258 703T284 723T318 731Q352 731 371 709T391 654Z"  />
<glyph unicode="&#xFD;" horiz-adv-x="522" d="M512 418Q512 354 495 290T450 166T388 51T319 -49Q283 -96 244 -137T163 -210T74 -260T-21 -279Q-59 -279 -80 -266T-102 -214Q-102 -202 -100 -190T-92 -167T-78 -150T-56 -143Q-42 -143 -28 -149T2 -163T35 -177T72 -184Q111 -184 136 -159Q150 -145 157 -127T166 -88T169 -46T169 -7Q169 25 168 63T163 140T154 215T139 281T116 327T86 344Q69 344 60 331T45 299T37 263T34 237Q30 236 25 236T15 236Q1 236 -4 244T-6 279Q-1 318 9 354T38 419T85 465T154 482Q203 482 237 454T292 372T321 240T326 63H328Q361 115 384 177T408 325Q408 344 405 359T398 386T391 410T388 436Q388 453 403 467T453 482Q489 482 500 462T512 418ZM545 705Q545 691 536 679T518 659Q475 617 429 580T339 509Q331 509 324 514T317 527Q327 545 342 572T371 626T398 674T414 702Q428 726 440 743T476 760Q485 760 497 755T519 743T537 725T545 705Z"  />
<glyph unicode="&#xFE;" horiz-adv-x="593" d="M576 352Q576 311 565 268T532 184T482 107T417 42T340 -2T256 -18Q240 -18 224 -16T190 -11Q187 -12 183 -18L155 -120Q146 -151 142 -171T138 -203T145 -220T165 -226L219 -231Q231 -232 226 -252Q224 -259 223 -262T220 -271Q201 -271 178 -271T131 -270T85 -269T44 -268Q26 -268 2 -268T-48 -269T-98 -270T-142 -271Q-141 -266 -141 -262T-139 -252Q-137 -241 -133 -237T-120 -231L-88 -226Q-75 -224 -67 -221T-51 -207T-37 -177T-21 -123L103 346Q103 348 99 352Q91 350 79 346T55 337T30 327T10 317Q5 322 -1 334T-8 354Q-8 362 -4 367T14 380Q37 392 68 404T120 424Q122 426 124 429T128 434L165 570Q176 610 178 627T165 650L142 659Q134 662 134 667T135 681Q137 686 138 690T141 699Q170 702 203 708T269 722Q316 732 342 740T391 749Q395 749 398 748T403 746Q398 734 391 715T377 675T364 634T353 600L319 478Q321 474 323 472Q337 475 368 478T428 482Q456 482 483 475T530 453T563 413T576 352ZM387 322Q387 355 371 377T321 400Q315 400 311 400T299 397Q296 396 292 390L218 114Q216 108 215 100T214 84Q214 69 224 61T248 52Q274 52 299 84T343 160T375 249T387 322Z"  />
<glyph unicode="&#xFF;" horiz-adv-x="522" d="M512 418Q512 354 495 290T450 166T388 51T319 -49Q283 -96 244 -137T163 -210T74 -260T-21 -279Q-59 -279 -80 -266T-102 -214Q-102 -202 -100 -190T-92 -167T-78 -150T-56 -143Q-42 -143 -28 -149T2 -163T35 -177T72 -184Q111 -184 136 -159Q150 -145 157 -127T166 -88T169 -46T169 -7Q169 25 168 63T163 140T154 215T139 281T116 327T86 344Q69 344 60 331T45 299T37 263T34 237Q30 236 25 236T15 236Q1 236 -4 244T-6 279Q-1 318 9 354T38 419T85 465T154 482Q203 482 237 454T292 372T321 240T326 63H328Q361 115 384 177T408 325Q408 344 405 359T398 386T391 410T388 436Q388 453 403 467T453 482Q489 482 500 462T512 418ZM505 654Q505 636 499 620T482 592T456 572T422 564Q388 564 369 586T350 641Q350 659 356 675T372 703T398 723T432 731Q466 731 485 709T505 654ZM308 654Q308 636 302 620T285 592T259 572T225 564Q191 564 172 586T153 641Q153 659 159 675T175 703T201 723T235 731Q269 731 288 709T308 654Z"  />
<glyph unicode="&#x131;" horiz-adv-x="349" d="M295 157Q303 155 312 148T322 131Q322 124 319 118T304 100Q283 78 260 57T211 19T157 -8T95 -18Q61 -18 34 -2T7 52Q7 78 18 109T39 166L87 285Q96 307 103 329T111 363Q111 379 98 379Q82 379 61 358T22 310Q14 312 4 319T-6 335Q-6 342 -2 348T12 367Q31 390 54 411T103 447T159 472T220 482Q235 482 251 479T280 468T301 447T309 415Q309 393 302 373T287 332L220 169Q213 152 206 132T199 101Q199 85 212 85Q235 85 295 157Z"  />
<glyph unicode="&#x152;" horiz-adv-x="1033" d="M966 179Q961 165 954 140T940 87T927 37T919 5Q915 -1 911 -2Q904 0 868 0T768 0H527Q509 0 484 -1T430 -3T375 -6T326 -7Q262 -7 207 12T111 68T47 159T23 285Q23 322 30 360T51 436T87 508T137 572Q197 633 269 659T426 685Q453 685 484 684T545 682T604 679T654 678H857Q918 678 950 678T991 680Q997 676 998 672Q996 663 993 640T987 590T982 538T978 497Q973 496 967 496T956 496Q935 496 934 515L929 555Q928 565 925 575T912 593T883 607T830 613H761Q756 604 750 583T733 520L702 389Q702 385 706 381H755Q783 381 800 383T828 389T843 399T851 416L859 438Q862 446 867 448T880 450Q886 450 893 449T904 446Q901 437 898 423T891 394T884 366T879 345Q877 337 874 324T868 296T863 266T858 239Q853 237 846 237T833 237Q816 237 818 252L820 277Q821 284 820 291T810 304T786 312T740 316H691Q687 313 684 309L655 184Q647 148 644 125T643 89T656 70T684 65H760Q789 65 810 68T846 80T874 104T899 143L918 179Q927 195 946 188Q951 186 956 184T966 179ZM535 512Q537 520 539 531T541 554Q541 589 520 600T470 611Q410 611 366 578T294 494T252 383T238 270Q238 235 245 198T267 130T308 78T369 58Q389 58 403 66T426 88T442 121T453 161L535 512Z"  />
<glyph unicode="&#x153;" horiz-adv-x="800" d="M789 382Q789 334 761 301T690 246T601 216T514 207Q509 204 508 200Q505 180 505 168Q505 133 522 112T576 90Q611 90 645 111T710 165Q716 163 722 159T732 152Q740 144 740 134T721 104Q698 80 670 58T611 19T547 -8T478 -18Q447 -18 417 -6T366 38Q364 39 363 39T360 39Q327 12 287 -2T204 -17Q160 -17 123 -5T57 32T13 93T-3 176Q-3 237 20 292T84 390T179 457T293 482Q344 482 391 466T467 413Q472 411 473 412Q509 442 555 462T656 482Q683 482 707 476T749 458T778 427T789 382ZM640 395Q640 409 634 418T617 428Q600 428 586 412T560 371T539 318T522 265Q522 259 526 258Q548 259 568 269T605 298T630 340T640 395ZM346 364Q346 382 340 400T311 418Q292 418 274 399T241 350T212 283T190 211T175 146T170 100Q170 82 176 64T205 46Q224 46 242 65T275 114T304 181T326 253T341 318T346 364Z"  />
<glyph unicode="&#x160;" horiz-adv-x="514" d="M460 218Q460 162 436 119T371 45T281 -2T180 -18Q149 -18 121 -14T63 -1Q40 5 32 6T20 8Q14 8 11 6T4 1T-4 -4T-17 -6Q-19 -6 -22 -6T-28 -5Q-24 19 -20 48T-12 106T-5 165T0 218Q5 219 11 219T22 219Q33 219 37 214T44 200L49 166Q57 109 92 81T182 52Q224 52 251 73T278 133Q278 155 270 174T247 211T213 246T171 281Q152 297 135 315T104 356T82 405T74 464Q74 510 92 552T144 626T225 677T331 696Q363 696 386 692T435 680Q461 672 470 669T483 666Q489 666 492 668T498 673T507 678T520 680Q522 680 525 680T531 679Q527 658 523 632T516 579T511 527T507 483Q502 482 496 482T485 482Q474 482 470 487T463 501L457 539Q450 584 417 607T341 630Q317 630 300 623T273 604T257 578T252 550Q252 526 262 506T287 469T321 436T356 406Q378 386 397 366T430 324T452 275T460 218ZM532 859Q500 828 468 798T400 740Q388 730 372 718T338 705Q324 705 314 712T292 731Q267 755 235 790T174 860Q173 868 177 875T188 884Q207 876 228 867T269 848T309 829T343 811Q346 809 349 809T355 811Q371 820 392 830T435 850T478 869T518 884Q534 880 532 859Z"  />
<glyph unicode="&#x161;" horiz-adv-x="371" d="M317 163Q317 128 301 95T254 37T179 -3T77 -18Q56 -18 34 -14T-7 -2T-37 19T-49 51Q-49 62 -46 75T-37 99T-24 118T-7 126Q6 126 19 115T47 89T79 63T117 51Q138 51 150 60T162 85Q162 106 141 129T95 178T49 236T28 304Q28 334 42 365T86 423T160 465T264 482Q286 482 306 479T341 469T365 452T374 428Q374 417 370 404T359 379T342 359T321 351Q309 351 298 360T274 382T250 403T222 413Q203 413 195 402T186 381Q186 357 206 335T251 287T296 231T317 163ZM392 740Q368 695 341 651T285 564Q272 544 256 527T214 509Q193 509 180 522T155 568Q142 606 131 652T108 742Q110 750 117 754T133 758Q153 732 177 701T222 642Q227 639 232 642Q262 668 300 701T370 758Q378 758 384 753T392 740Z"  />
<glyph unicode="&#x178;" horiz-adv-x="661" d="M447 -3Q428 -3 406 -3T360 -2T316 -1T276 0Q258 0 234 0T185 -1T135 -2T91 -3Q90 2 90 6T90 16Q90 27 94 31T107 38L140 43Q150 44 157 48T170 62T183 92T198 145L228 272Q232 289 230 302T223 328L150 533Q139 564 130 583T113 613T98 628T83 636L73 640Q65 643 63 646T60 658Q60 669 65 681Q84 681 106 681T151 680T195 679T235 678Q253 678 274 678T317 679T362 680T403 681Q404 676 404 672T404 662Q404 651 400 647T387 640L358 635Q349 633 344 629T337 614T340 584T355 533L401 389H403L492 526Q511 556 519 575T528 607T523 626T506 635L486 640Q472 645 472 658Q472 663 474 669T478 681Q515 680 543 679T606 678Q624 678 638 678T666 679T694 680T728 681Q729 676 729 672T729 662Q729 651 725 647T712 640L697 636Q689 634 680 629T658 612T629 582T591 532L452 339Q442 325 437 311T426 278L395 145Q387 112 385 93T385 64T393 49T410 43L439 38Q447 36 449 32T452 20Q452 9 447 -3ZM606 802Q606 784 600 768T583 740T557 720T523 712Q489 712 470 734T451 789Q451 807 457 823T473 851T499 871T533 879Q567 879 586 857T606 802ZM409 802Q409 784 403 768T386 740T360 720T326 712Q292 712 273 734T254 789Q254 807 260 823T276 851T302 871T336 879Q370 879 389 857T409 802Z"  />
<glyph unicode="&#x17D;" horiz-adv-x="681" d="M636 190Q631 176 623 149T608 93T594 39T585 5Q581 -1 577 -2Q537 -1 501 -1T431 0T361 0T288 0Q248 0 205 0T120 0T39 -1T-32 -3Q-34 5 -34 15T-32 35Q-14 53 8 82T59 150L401 611V613H255Q226 613 208 609T178 597T159 578T146 552L127 508Q123 500 119 495T103 492Q98 493 92 493T80 496Q84 515 90 543T101 599T111 655T118 700Q120 700 124 700T131 701Q139 701 143 699T151 693T157 687T165 682Q175 679 200 679T268 678H404Q443 678 477 678T542 678T604 678T666 681Q668 673 668 663T666 643Q652 629 627 597T575 528L233 67V65H426Q455 65 476 68T512 80T540 104T565 143L588 190Q597 206 616 199Q621 197 626 195T636 190ZM579 859Q547 828 515 798T447 740Q435 730 419 718T385 705Q371 705 361 712T339 731Q314 755 282 790T221 860Q220 868 224 875T235 884Q254 876 275 867T316 848T356 829T390 811Q393 809 396 809T402 811Q418 820 439 830T482 850T525 869T565 884Q581 880 579 859Z"  />
<glyph unicode="&#x17E;" horiz-adv-x="503" d="M479 123Q479 96 464 63T422 0T359 -50T279 -70Q240 -70 206 -49T143 -2T88 45T41 67Q28 67 21 61T14 46Q14 40 15 33T16 20Q16 9 6 1T-21 -8Q-31 -8 -38 0T-46 27Q-46 45 -38 61T-18 91T10 118T39 141L261 312L260 314Q243 318 222 322T179 329T140 335T110 337Q93 337 86 331T79 317Q79 306 87 299T96 277Q96 263 81 254T47 244Q27 244 21 260T15 293Q15 325 29 358T68 419T123 464T187 482Q213 482 243 476T312 458Q352 446 376 440T413 434Q429 434 437 441T446 461Q446 469 450 475T466 482Q480 482 491 472T502 451Q502 431 481 408T420 354L169 162V160Q185 157 197 153T220 143T241 130T264 113Q275 105 288 94T317 74T347 57T376 50Q390 50 401 58T412 82Q412 90 409 97T401 112T394 126T390 143Q390 160 403 167T430 174Q454 174 466 161T479 123ZM471 740Q447 695 420 651T364 564Q351 544 335 527T293 509Q272 509 259 522T234 568Q221 606 210 652T187 742Q189 750 196 754T212 758Q232 732 256 701T301 642Q306 639 311 642Q341 668 379 701T449 758Q457 758 463 753T471 740Z"  />
<glyph unicode="&#x192;" horiz-adv-x="520" d="M575 552Q575 540 567 525T546 498T518 477T491 468Q471 468 459 481T435 511T410 542T377 556Q356 556 343 537T323 487T311 418T302 340Q303 336 308 333H430Q432 331 434 328T437 319Q437 306 434 290T423 272H305Q302 271 297 264Q283 108 247 13T158 -131Q116 -169 69 -188T-28 -208Q-46 -208 -63 -206T-93 -198T-115 -181T-123 -151Q-123 -142 -120 -130T-111 -106T-97 -88T-76 -80Q-63 -80 -54 -88T-35 -106T-15 -124T10 -132Q32 -132 46 -114T72 -50T93 72T113 264Q111 269 107 272H28Q23 275 23 286Q23 299 26 315T37 333H111Q118 334 120 341Q128 401 152 454T217 548T313 613T437 637Q460 637 484 631T529 614T562 587T575 552Z"  />
<glyph unicode="&#x2C6;" horiz-adv-x="500" d="M392 525Q390 517 383 513T367 509Q347 535 323 566T278 625Q273 627 268 625Q238 599 200 566T130 509Q122 509 116 514T108 527Q132 572 159 616T215 703Q228 723 244 740T286 758Q307 758 320 745T345 699Q358 661 369 615T392 525Z"  />
<glyph unicode="&#x2C7;" horiz-adv-x="500" d="M392 740Q368 695 341 651T285 564Q272 544 256 527T214 509Q193 509 180 522T155 568Q142 606 131 652T108 742Q110 750 117 754T133 758Q153 732 177 701T222 642Q227 639 232 642Q262 668 300 701T370 758Q378 758 384 753T392 740Z"  />
<glyph unicode="&#x2DA;" horiz-adv-x="500" d="M370 652Q370 623 360 599T331 558T289 532T236 522Q191 522 161 547T130 618Q130 647 140 671T169 712T212 739T265 749Q310 749 340 723T370 652ZM293 657Q293 665 292 674T287 692T277 706T260 712Q245 712 235 701T219 674T211 642T208 613Q208 605 209 596T214 578T224 565T241 559Q256 559 266 570T282 596T290 628T293 657Z"  />
<glyph unicode="&#x2DC;" horiz-adv-x="500" d="M426 692Q426 668 416 646T389 607T349 580T303 569Q278 569 254 579T208 601T171 623T145 633Q127 633 127 615Q127 606 131 599T136 584Q136 572 123 567T99 561Q84 561 80 572T75 596Q75 620 85 642T112 681T152 708T198 719Q223 719 247 709T293 687T330 665T356 655Q374 655 374 673Q374 682 370 689T365 704Q365 716 378 721T402 727Q417 727 421 716T426 692Z"  />
<glyph unicode="&#x2013;" horiz-adv-x="500" d="M474 283Q474 277 473 264T469 238T462 215T451 203H-1Q-8 207 -8 231Q-8 238 -7 250T-2 276T5 299T16 311H468Q474 306 474 283Z"  />
<glyph unicode="&#x2014;" horiz-adv-x="1000" d="M975 283Q975 277 974 264T970 238T963 215T952 203H0Q-7 207 -7 231Q-7 238 -6 250T-1 276T6 299T17 311H969Q975 306 975 283Z"  />
<glyph unicode="&#x2018;" horiz-adv-x="260" d="M257 420Q257 399 249 383T228 355T198 338T161 332Q132 332 110 342T73 369T49 408T41 457Q41 499 55 537T95 607T155 662T229 699Q239 702 245 701T255 689Q257 682 257 676T257 666Q234 660 211 647T169 615T139 575T127 531Q127 506 141 495T172 484Q177 484 185 484T199 485Q225 485 241 467T257 420Z"  />
<glyph unicode="&#x2019;" horiz-adv-x="260" d="M284 574Q284 532 270 494T230 424T170 369T96 332Q86 329 80 330T70 342Q68 349 68 355T68 365Q91 371 114 384T156 416T186 455T198 500Q198 525 184 536T153 547Q148 547 140 547T126 546Q100 546 84 564T68 611Q68 632 76 648T97 676T127 693T164 699Q192 699 214 689T252 662T276 622T284 574Z"  />
<glyph unicode="&#x201A;" horiz-adv-x="260" d="M198 68Q198 26 184 -12T144 -82T84 -137T10 -174Q0 -177 -6 -176T-16 -164Q-18 -157 -18 -151T-18 -141Q5 -135 28 -122T70 -90T100 -51T112 -6Q112 19 98 30T67 41Q62 41 54 41T40 40Q14 40 -2 58T-18 105Q-18 126 -10 142T11 170T41 187T78 193Q106 193 128 183T166 156T190 116T198 68Z"  />
<glyph unicode="&#x201C;" horiz-adv-x="494" d="M491 420Q491 399 483 383T462 355T432 338T395 332Q366 332 344 342T307 369T283 408T275 457Q275 499 289 537T329 607T389 662T463 699Q473 702 479 701T489 689Q491 682 491 676T491 666Q468 660 445 647T403 615T373 575T361 531Q361 506 375 495T406 484Q411 484 419 484T433 485Q459 485 475 467T491 420ZM257 420Q257 399 249 383T228 355T198 338T161 332Q132 332 110 342T73 369T49 408T41 457Q41 499 55 537T95 607T155 662T229 699Q239 702 245 701T255 689Q257 682 257 676T257 666Q234 660 211 647T169 615T139 575T127 531Q127 506 141 495T172 484Q177 484 185 484T199 485Q225 485 241 467T257 420Z"  />
<glyph unicode="&#x201D;" horiz-adv-x="494" d="M518 574Q518 532 504 494T464 424T404 369T330 332Q320 329 314 330T304 342Q302 349 302 355T302 365Q325 371 348 384T390 416T420 455T432 500Q432 525 418 536T387 547Q382 547 374 547T360 546Q334 546 318 564T302 611Q302 632 310 648T331 676T361 693T398 699Q426 699 448 689T486 662T510 622T518 574ZM284 574Q284 532 270 494T230 424T170 369T96 332Q86 329 80 330T70 342Q68 349 68 355T68 365Q91 371 114 384T156 416T186 455T198 500Q198 525 184 536T153 547Q148 547 140 547T126 546Q100 546 84 564T68 611Q68 632 76 648T97 676T127 693T164 699Q192 699 214 689T252 662T276 622T284 574Z"  />
<glyph unicode="&#x201E;" horiz-adv-x="530" d="M432 68Q432 26 418 -12T378 -82T318 -137T244 -174Q234 -177 228 -176T218 -164Q216 -157 216 -151T216 -141Q239 -135 262 -122T304 -90T334 -51T346 -6Q346 19 332 30T301 41Q296 41 288 41T274 40Q248 40 232 58T216 105Q216 126 224 142T245 170T275 187T312 193Q340 193 362 183T400 156T424 116T432 68ZM198 68Q198 26 184 -12T144 -82T84 -137T10 -174Q0 -177 -6 -176T-16 -164Q-18 -157 -18 -151T-18 -141Q5 -135 28 -122T70 -90T100 -51T112 -6Q112 19 98 30T67 41Q62 41 54 41T40 40Q14 40 -2 58T-18 105Q-18 126 -10 142T11 170T41 187T78 193Q106 193 128 183T166 156T190 116T198 68Z"  />
<glyph unicode="&#x2020;" horiz-adv-x="500" d="M500 493Q500 486 500 476T498 455T494 437T487 427L312 444Q307 443 303 437L199 -117Q196 -120 187 -122T169 -125T151 -126T140 -127Q138 -127 130 -127T112 -125T96 -122T87 -117L239 437Q239 441 234 444L57 427Q54 436 54 445Q54 452 54 462T56 483T60 502T67 512L246 495Q251 496 255 502L279 712Q282 715 290 717T309 720T327 721T338 722Q340 722 348 722T366 720T382 717T391 712L319 502Q319 498 324 495L497 512Q500 503 500 493Z"  />
<glyph unicode="&#x2021;" horiz-adv-x="500" d="M491 481Q491 474 491 464T489 443T485 425T478 415L303 432Q298 431 294 425L236 166Q236 162 241 159L418 176Q421 167 421 158Q421 151 421 141T419 120T415 101T408 91L229 108Q224 107 220 101L197 -119Q194 -122 185 -124T166 -127T147 -128T136 -129Q134 -129 126 -129T110 -127T94 -123T85 -117L160 103Q160 107 155 110L-18 93Q-21 102 -21 112Q-21 119 -21 129T-19 150T-15 168T-8 178L167 161Q172 162 176 168L234 427Q234 431 229 434L52 417Q49 426 49 435Q49 442 49 452T51 473T55 492T62 502L241 485Q246 486 250 492L273 712Q276 715 285 717T304 719T322 720T334 720Q336 720 343 720T360 718T376 715T385 710L310 490Q310 486 315 483L488 500Q491 491 491 481Z"  />
<glyph unicode="&#x2022;" horiz-adv-x="500" d="M434 357Q434 312 419 272T375 201T309 152T224 134Q183 134 149 148T91 187T54 246T40 322Q40 367 55 407T99 477T165 525T251 543Q291 543 325 530T383 491T420 432T434 357Z"  />
<glyph unicode="&#x2026;" horiz-adv-x="1000" d="M950 96Q950 73 942 53T920 16T886 -9T842 -18Q800 -18 774 9T748 78Q748 101 756 121T778 157T812 182T856 191Q898 191 924 165T950 96ZM570 96Q570 73 562 53T540 16T506 -9T462 -18Q420 -18 394 9T368 78Q368 101 376 121T398 157T432 182T476 191Q518 191 544 165T570 96ZM190 96Q190 73 182 53T160 16T126 -9T82 -18Q40 -18 14 9T-12 78Q-12 101 -4 121T18 157T52 182T96 191Q138 191 164 165T190 96Z"  />
<glyph unicode="&#x2030;" horiz-adv-x="1102" d="M1106 257Q1106 212 1093 164T1054 75T987 8T894 -18Q858 -18 832 -4T789 35T764 89T756 150Q756 195 769 243T808 332T874 399T967 425Q1003 425 1029 411T1073 372T1098 318T1106 257ZM980 337Q980 341 980 348T978 362T973 373T963 378Q947 378 935 352T914 292T900 226T893 182Q888 151 884 120T882 58Q882 50 884 40T898 29Q914 29 926 55T947 114T961 180T968 224Q973 252 976 280T980 337ZM749 257Q749 212 736 164T697 75T630 8T537 -18Q501 -18 475 -4T432 35T407 89T399 150Q399 195 412 243T451 332T517 399T610 425Q646 425 672 411T716 372T741 318T749 257ZM623 337Q623 341 623 348T621 362T616 373T606 378Q590 378 578 352T557 292T543 226T536 182Q531 151 527 120T525 58Q525 50 527 40T541 29Q557 29 569 55T590 114T604 180T611 224Q616 252 619 280T623 337ZM131 -30Q120 -25 106 -13T85 8L613 649Q624 645 638 633T660 612L131 -30ZM345 469Q345 424 332 376T293 287T227 220T134 194Q98 194 72 208T29 247T4 301T-4 362Q-4 407 9 455T48 544T114 611T207 637Q243 637 269 623T312 584T337 530T345 469ZM219 561Q219 569 217 579T204 590Q188 590 176 564T155 505T141 439T133 395Q128 367 125 339T121 282Q121 277 121 271T123 257T128 246T138 241Q154 241 166 267T187 327T201 393T208 437Q213 468 217 499T219 561Z"  />
<glyph unicode="&#x2039;" horiz-adv-x="301" d="M199 67Q195 57 185 52T167 48Q150 64 127 89T78 143T30 200T-10 249Q-12 252 -9 259Q13 280 43 306T104 359T166 410T220 450Q229 451 239 444T250 426Q242 409 229 387T201 342T171 295T143 254Q142 251 142 249T141 244Q147 227 155 205T171 158T186 110T199 67Z"  />
<glyph unicode="&#x203A;" horiz-adv-x="301" d="M31 48Q22 47 12 54T1 72Q9 88 22 110T50 156T80 203T108 244Q109 247 109 249T110 254Q104 270 96 293T79 340T63 389T52 431Q56 441 66 446T84 450Q100 434 123 409T172 355T221 298T261 249Q263 246 260 239Q238 218 208 192T146 139T84 88T31 48Z"  />
<glyph unicode="&#x20AC;" horiz-adv-x="520" d="M475 165Q461 128 446 83T419 1Q417 0 409 0Q397 0 394 6T383 12Q378 12 367 8T340 -3T300 -13T248 -18Q198 -18 159 -1T94 48T53 120T37 210Q35 216 31 219H-15Q-19 221 -19 224T-20 233Q-20 248 -18 259T-7 276H32Q38 278 40 283Q42 303 46 324T56 366Q55 370 50 373H18Q12 377 12 387Q12 402 15 413T26 430H73Q77 433 79 438Q98 481 125 517T187 580T263 622T351 637Q382 637 406 632T448 621T476 610T491 605Q496 605 498 607T503 612T508 617T519 619Q521 619 525 619T531 618Q527 602 523 579T514 531T506 482T500 442Q495 441 490 441T480 441Q469 441 465 446T460 459L458 480Q453 531 432 552T381 573Q355 573 336 557T303 520T280 475T266 437Q267 432 272 431H429Q436 427 436 417Q436 402 433 390T422 373H253Q247 369 245 366Q239 345 236 324T229 284Q231 282 232 280T235 277H396Q403 273 403 263Q403 248 400 236T389 219H229Q225 218 221 212Q219 177 221 147T232 94T258 60T303 47Q338 47 366 72T416 137L431 165Q435 172 441 175T458 174Q463 172 466 170T475 165Z"  />
<glyph unicode="&#x2122;" horiz-adv-x="1064" d="M1042 270Q1014 271 983 271T924 272Q897 272 867 272T808 270Q806 280 806 284Q806 298 816 299L840 303Q852 305 854 318T857 363L856 539H855L756 271Q751 270 737 270T706 269T675 269T656 271L559 539H558L557 418Q557 387 558 366T563 332T574 312T592 303L615 299Q625 298 625 284Q625 279 623 269Q601 269 576 270T529 272Q506 272 483 271T437 270Q435 280 435 284Q435 298 445 299L470 303Q487 306 491 330T497 417L501 587Q502 611 497 629T476 649L455 651Q445 652 445 667Q445 670 447 680Q476 678 505 678T557 678Q583 678 604 678T648 680Q651 680 654 677Q658 663 665 639T680 593L748 394H749L816 593Q824 616 830 639T840 677Q843 680 847 680Q870 679 888 679T933 678Q954 678 984 678T1040 680Q1042 670 1042 668Q1042 655 1033 654L1015 652Q1001 650 996 634T991 595L994 363Q995 331 996 318T1010 303L1034 299Q1044 298 1044 284Q1044 280 1042 270ZM339 270Q311 271 279 271T220 272Q193 272 163 272T104 270Q102 280 102 284Q102 299 112 300L137 304Q149 306 151 318T153 363V573Q153 601 151 613T147 629H131Q110 629 97 627T77 620T65 605T56 581L51 563Q49 556 46 555T35 553Q31 553 27 553T18 554Q19 564 20 583T22 624T25 664T27 692Q29 693 31 693T38 694Q42 694 45 693T50 689Q54 677 60 677Q67 677 84 677T131 676H313Q342 676 359 676T384 677Q389 677 394 689Q395 692 398 693T406 694Q411 694 413 694T417 692Q418 683 419 664T421 624T424 584T426 554Q422 553 418 553T409 553Q401 553 398 554T393 563L388 581Q384 595 380 604T368 619T347 627T313 629H297Q295 625 293 613T291 573V363Q291 331 293 319T307 304L331 300Q341 299 341 284Q341 280 339 270Z"  />
<glyph unicode="&#xE300;" horiz-adv-x="500" d="M322 729Q323 721 319 714T308 705Q265 716 220 732T139 763Q120 771 110 781T99 809Q99 820 104 833T117 857T136 875T159 883Q173 883 183 876T205 858Q230 834 261 799T322 729Z"  />
<glyph unicode="&#xE301;" horiz-adv-x="500" d="M378 815Q378 797 363 787T334 771Q286 751 238 735T138 705Q122 709 124 730Q156 761 189 791T257 849Q269 859 285 871T319 884Q330 884 340 878T359 861T373 838T378 815Z"  />
<glyph unicode="&#xE302;" horiz-adv-x="500" d="M429 729Q430 721 426 714T415 705Q396 712 375 721T334 740T294 760T260 778Q257 780 254 780T248 778Q231 769 211 759T168 739T125 720T85 705Q69 709 71 730Q103 761 135 791T203 849Q215 859 231 871T265 884Q279 884 289 877T311 858Q336 834 368 799T429 729Z"  />
<glyph unicode="&#xE303;" horiz-adv-x="500" d="M429 859Q397 828 365 798T297 740Q285 730 269 718T235 705Q221 705 211 712T189 731Q164 755 132 790T71 860Q70 868 74 875T85 884Q104 876 125 867T166 848T206 829T240 811Q243 809 246 809T252 811Q268 820 289 830T332 850T375 869T415 884Q431 880 429 859Z"  />
<glyph unicode="&#xE304;" horiz-adv-x="500" d="M425 845Q425 821 415 799T388 760T348 733T302 722Q277 722 253 732T207 754T170 776T144 786Q126 786 126 768Q126 759 130 752T135 737Q135 725 122 720T98 714Q83 714 79 725T74 749Q74 773 84 795T111 834T151 861T197 872Q222 872 246 862T292 840T329 818T355 808Q373 808 373 826Q373 835 369 842T364 857Q364 869 377 874T401 880Q416 880 420 869T425 845Z"  />
<glyph unicode="&#xE305;" horiz-adv-x="500" d="M426 802Q426 784 420 768T403 740T377 720T343 712Q309 712 290 734T271 789Q271 807 277 823T293 851T319 871T353 879Q387 879 406 857T426 802ZM229 802Q229 784 223 768T206 740T180 720T146 712Q112 712 93 734T74 789Q74 807 80 823T96 851T122 871T156 879Q190 879 209 857T229 802Z"  />
<glyph unicode="&#xE308;" horiz-adv-x="500" d="M370 843Q370 814 360 790T331 749T289 723T236 713Q191 713 161 738T130 809Q130 838 140 862T169 903T212 930T265 940Q310 940 340 914T370 843ZM293 848Q293 856 292 865T287 883T277 897T260 903Q245 903 235 892T219 865T211 833T208 804Q208 796 209 787T214 769T224 756T241 750Q256 750 266 761T282 787T290 819T293 848Z"  />

</font>
</defs>
</svg>
