<?xml  version="1.0" encoding="UTF-8"?>
<!DOCTYPE svg PUBLIC "-//W3C//DTD SVG 1.0//EN" "http://www.w3.org/TR/2001/REC-SVG-20010904/DTD/svg10.dtd" >
<svg xmlns="http://www.w3.org/2000/svg" >
<metadata>
<version>1.0</version>
<id><![CDATA[Sabon Next W01 X Bd It SC]]></id>
<vendor>Monotype Imaging Inc.</vendor>
<credits>
<name>Fonts.com WebFonts</name>
<URL>http://webfonts.fonts.com</URL>
<role>Home of the Web fonts</role>
</credits>
<license>
<URL>http://webfonts.fonts.com/Legal</URL>
</license>
<copyright><![CDATA[Copyright © 2002 - 2005 Linotype GmbH, www.linotype.com. All rights reserved. This font software may not be reproduced, modified, disclosed or transferred without the express written approval of Linotype GmbH. Sabon is a trademark of Heidelberger Druckmaschinen AG which may be registered in certain jurisdictions, exclusively licensed through Linotype GmbH. This typeface is original artwork of Jean Franois Porchez. The design may be protected in certain jurisdictions.]]></copyright>
<trademark><![CDATA[Sabon is a trademark of Heidelberger Druckmaschinen AG which may be registered in certain jurisdictions, exclusively licensed through Linotype GmbH.]]></trademark>
<licensee>
<name></name>
</licensee>
</metadata>
<defs >
<font horiz-adv-x="551" id="1fb5d7d9-ba50-4b25-ad33-5d80ef0c7353">
<font-face font-family="" panose-1="2 0 8 3 8 0 0 9 0 3" ascent="917" descent="-279" units-per-em="1000" alphabetic="0">
</font-face>
<missing-glyph horiz-adv-x="0" />

<glyph unicode="&#xA;" />
<glyph unicode="&#xD;" horiz-adv-x="0" />
<glyph unicode=" " horiz-adv-x="250" />
<glyph unicode="!" horiz-adv-x="245" d="M143 64Q143 31 121 9T66 -13Q35 -13 14 6T-7 56Q-7 89 15 111T71 134Q102 134 122 115T143 64ZM224 440Q224 418 218 398T197 345Q189 327 179 304T155 254T129 202T103 155Q95 153 79 153Q64 153 56 155Q54 189 53 228T51 306T51 378T56 434Q62 470 88 483T146 496Q178 496 201 484T224 440Z"  />
<glyph unicode="&quot;" horiz-adv-x="440" d="M265 647Q265 627 257 606T242 565L175 390Q167 368 161 356T141 343Q128 343 123 354T118 392V591Q118 614 121 634T134 668T160 691T201 699Q212 699 223 696T244 687T259 671T265 647ZM455 647Q455 627 447 606T432 565L366 390Q358 368 352 356T331 343Q318 343 314 354T309 392L308 591Q308 614 311 634T324 668T350 691T391 699Q402 699 413 696T434 687T449 671T455 647Z"  />
<glyph unicode="#" horiz-adv-x="450" d="M282 368Q280 373 278 374H193Q187 370 186 368L155 259Q157 253 159 252H244Q250 256 251 259L282 368H282ZM459 452Q458 443 456 431T451 407T442 387T431 374H344Q339 371 338 368L307 259Q309 253 311 252H386Q391 247 392 237T392 220Q391 211 389 199T384 176T375 155T364 143H278Q273 140 272 136L230 -7Q225 -9 214 -9Q206 -9 195 -7T178 0L217 136Q215 142 213 143H126Q121 140 120 136L78 -7Q73 -9 62 -9Q54 -9 43 -7T26 0L65 136Q63 142 61 143H-18Q-23 148 -24 158T-24 175Q-23 184 -21 196T-16 219T-7 240T4 252H92Q98 256 99 259L130 368Q128 373 126 374H50Q45 379 44 389T44 406Q45 415 47 427T52 451T61 471T72 484H158Q163 487 164 491L201 626Q205 628 210 628Q216 628 221 628Q229 628 241 626T258 619L222 491Q224 485 226 484H309Q315 488 316 491L354 626Q359 628 370 628Q378 628 392 626T411 619L374 491Q376 486 379 484H453Q458 479 459 469T459 452Z"  />
<glyph unicode="$" horiz-adv-x="515" d="M289 440Q289 442 287 443Q261 442 246 427T231 389Q231 371 239 360T262 338Q265 340 266 341L289 440H289ZM286 87Q286 105 277 118T253 142Q250 141 250 140L226 36Q226 34 228 33Q254 36 270 49T286 87ZM455 480Q452 465 450 447T445 409T441 371T438 339Q434 338 428 338Q423 338 420 338Q407 338 405 351L401 379Q398 402 383 416T347 437Q343 435 342 433L312 300Q312 297 313 296Q330 283 346 269T376 238T398 200T406 154Q406 121 393 91T356 38T297 0T218 -17Q215 -18 214 -21L197 -100Q194 -105 189 -106T169 -108Q143 -108 142 -100L161 -20Q161 -16 159 -15Q145 -13 132 -12T107 -6Q91 -1 84 0T74 2Q66 2 63 -3T49 -9H42Q45 7 48 28T53 71T58 114T61 153Q65 154 70 154Q76 154 79 154Q92 154 94 141L97 115Q101 83 121 64T170 37Q174 39 175 41L207 178Q207 181 205 183Q188 196 172 210T144 241T123 278T115 324Q115 360 128 390T166 443T223 479T297 492Q300 493 301 496L320 580Q323 585 328 586T348 588Q374 588 375 580L355 492Q355 489 358 488Q366 486 373 484T388 480Q405 475 412 473T424 470Q432 470 434 475T447 480H455H455Z"  />
<glyph unicode="%" horiz-adv-x="657" d="M188 417Q188 425 185 438T170 451Q158 451 149 435T133 396T122 353T115 321Q110 298 107 274T103 229Q103 224 103 217T106 204T112 192T123 187Q135 187 143 203T158 241T169 284T176 316Q181 342 185 368T188 417ZM540 252Q540 256 540 262T537 274T531 284T521 288Q509 288 501 272T486 233T475 190T468 159Q463 135 459 111T455 65Q455 60 455 53T458 40T463 28T474 23Q486 23 495 39T510 78T521 122T528 154Q533 179 537 204T540 252ZM284 362Q284 329 275 292T246 223T195 170T119 149Q88 149 67 160T32 189T14 230T8 276Q8 309 17 347T47 416T98 469T174 490Q205 490 226 479T260 449T278 408T284 362ZM138 -23Q128 -19 116 -8T98 11L505 498Q515 494 527 483T546 464L138 -23ZM635 198Q635 165 626 128T597 59T546 6T470 -15Q439 -15 418 -4T383 26T365 67T359 113Q359 146 368 183T398 252T449 305T525 326Q556 326 577 315T611 285T629 244T635 198Z"  />
<glyph unicode="&amp;" horiz-adv-x="648" d="M187 327Q188 330 187 333Q166 346 142 346Q125 346 113 340T93 323T82 299T78 273Q78 259 80 247T88 220Q89 219 91 220L187 327H187ZM645 388Q645 360 637 333T612 283T573 248T522 234Q505 234 490 240Q488 240 487 239T486 238Q485 233 485 229T483 219Q473 169 449 127T390 53T310 4T212 -14Q168 -14 130 0T64 40T19 102T2 184Q2 230 17 273T59 349T121 403T196 423Q210 423 226 420T255 409Q257 408 260 409L267 417Q293 447 298 479T304 540Q304 560 317 576T358 592Q385 592 396 578T408 544Q408 513 382 483T320 411L113 180V175Q137 143 174 125T254 107Q291 107 323 118T380 150T422 199T447 259Q448 263 446 266Q434 276 423 286T402 306T382 320T363 326Q351 326 345 319T338 301Q338 287 345 281T362 270T379 258T387 237Q387 221 375 210T346 198Q318 198 304 220T289 269Q289 296 298 322T325 370T365 405T416 419Q444 419 466 405T507 375T541 344T571 330Q583 330 590 338T597 358Q597 370 591 378T576 394T561 410T554 430Q554 447 568 458T598 470Q612 470 621 462T635 442T643 416T645 388Z"  />
<glyph unicode="&apos;" horiz-adv-x="250" d="M265 647Q265 627 257 606T242 565L175 390Q167 368 161 356T141 343Q128 343 123 354T118 392V591Q118 614 121 634T134 668T160 691T201 699Q212 699 223 696T244 687T259 671T265 647Z"  />
<glyph unicode="(" horiz-adv-x="338" d="M323 682Q223 580 175 451T126 181Q126 96 140 23T195 -122Q193 -124 189 -127T179 -134Q148 -160 137 -139Q98 -66 77 18T55 185Q55 334 110 466T268 705Q277 714 287 710T311 694Q315 690 318 687T323 682Z"  />
<glyph unicode=")" horiz-adv-x="338" d="M256 381Q256 232 201 100T43 -139Q34 -148 24 -144T0 -128Q-4 -124 -7 -121T-12 -116Q88 -14 136 115T185 385Q185 470 171 542T116 687Q118 689 122 692T132 700Q163 726 174 705Q213 632 234 548T256 381Z"  />
<glyph unicode="*" horiz-adv-x="411" d="M220 483Q214 472 203 454T179 418T151 387T123 371Q107 370 89 384Q77 395 70 409T65 437Q67 453 85 464T126 484T172 496T207 504Q211 500 215 495T220 483ZM334 374Q334 363 328 355T312 341T293 332T274 328Q251 326 242 340T230 373Q228 396 229 426T236 482Q249 488 261 487Q268 478 280 464T305 434T325 402T334 374ZM227 538Q224 532 219 527T208 519Q197 522 181 526T147 537T114 549T90 562Q74 573 75 593Q76 602 81 614T96 636T115 653T135 660Q150 660 164 645T190 610T212 570T227 538ZM436 512Q436 494 429 475T400 453Q387 452 370 457T334 470T299 488T271 503Q271 510 271 516T276 528Q288 532 304 537T338 547T371 555T400 558Q423 558 429 544T436 512ZM360 655Q360 641 349 625T322 592T292 561T266 538Q260 539 254 541T243 549Q243 571 244 594T248 640Q249 650 251 660T257 679T269 694T290 700Q299 700 311 698T335 689T353 675T360 655Z"  />
<glyph unicode="+" horiz-adv-x="500" d="M268 199V0H195V199H-1V276H195V474H268V276H464V199H268Z"  />
<glyph unicode="&#x2c;" horiz-adv-x="257" d="M176 51Q176 11 163 -25T126 -91T70 -144T1 -180Q-9 -183 -14 -182T-22 -171Q-24 -166 -24 -160Q-24 -155 -24 -151Q-2 -145 20 -132T61 -101T90 -62T101 -16Q101 8 89 18T60 29Q55 29 48 29T35 28Q12 28 -2 45T-16 88Q-16 126 9 148T69 170Q118 170 147 136T176 51Z"  />
<glyph unicode="-" horiz-adv-x="257" d="M225 283Q225 276 224 264T220 240T213 217T202 205H-3Q-10 208 -10 230Q-10 237 -9 249T-4 273T3 296T14 308H219Q225 305 225 283Z"  />
<glyph unicode="." horiz-adv-x="257" d="M166 84Q166 43 140 14T71 -16Q34 -16 12 8T-11 69Q-11 110 15 139T84 168Q121 168 143 145T166 84Z"  />
<glyph unicode="/" horiz-adv-x="300" d="M1 -18Q-4 -17 -11 -14T-27 -8T-42 0T-53 8L305 714Q309 713 317 710T333 702T348 694T359 686L1 -18Z"  />
<glyph unicode="0" horiz-adv-x="515" d="M413 258Q413 290 402 314T370 356T322 382T263 391Q223 391 190 379T132 343T95 287T81 216Q81 184 92 160T124 118T171 92T230 83Q270 83 303 95T361 131T399 187T413 258ZM468 280Q468 224 452 171T403 75T324 8T214 -18Q168 -18 133 -2T74 44T38 111T25 194Q25 250 41 303T90 399T170 466T280 492Q326 492 361 476T420 430T456 363T468 280Z"  />
<glyph unicode="1" horiz-adv-x="515" d="M465 461Q465 442 450 441L399 436Q389 435 382 431T369 417T357 387T343 336L297 138Q289 106 287 87T286 58T294 43T311 38L358 33Q370 32 370 18Q370 13 369 7T365 -3Q348 -3 325 -3T279 -2T233 -1T194 0Q177 0 153 0T104 -1T54 -2T12 -3Q11 2 11 5Q11 8 11 13Q11 32 25 33L77 38Q87 39 94 43T107 57T119 87T133 138L179 336Q186 368 189 387T190 416T182 431T165 436L117 441Q106 442 106 456Q106 461 107 467T111 477Q128 477 151 477T197 476T243 475T282 474Q298 474 322 474T372 475T422 476T464 477Q465 472 465 469Q465 466 465 461Z"  />
<glyph unicode="2" horiz-adv-x="515" d="M455 155Q452 143 447 123T435 80T424 38T416 5Q415 3 409 -1Q403 0 376 0Q349 0 314 0Q280 0 245 0Q211 0 191 0Q167 0 136 0Q106 0 77 0Q49 0 26 0T-7 -2Q-8 0 -8 9Q-8 18 -7 28T-5 47T-3 61Q25 80 65 107T142 167T205 238T231 318Q231 351 212 374T156 397Q129 397 110 386T78 362Q81 360 77 363T67 373Q62 381 62 386T74 404Q89 421 107 437T147 465T195 484T252 492Q286 492 314 482T362 455T394 414T405 363Q405 326 387 293T336 228T255 166T148 106V105H322Q343 105 358 107T383 114T401 127T416 147Q420 154 423 156T437 158Q441 158 446 157T455 155Z"  />
<glyph unicode="3" horiz-adv-x="515" d="M410 369Q410 336 395 310T355 263T300 227T241 200V197Q272 202 301 196T354 172T392 129T406 70Q406 2 372 -50T284 -137T168 -190T47 -208Q9 -208 -12 -198T-34 -161Q-34 -146 -28 -134Q-25 -131 -18 -129Q19 -145 64 -145Q103 -145 135 -130T190 -88T226 -28T239 42Q239 82 218 111T156 140Q145 140 133 137T111 130Q100 127 94 129T82 142Q79 148 77 156Q104 168 133 184T188 222T229 269T246 326Q246 359 226 379T172 400Q147 400 127 391T91 367Q87 370 82 375T76 386Q75 391 79 397T88 409Q123 447 168 469T268 492Q295 492 321 484T366 460T398 422T410 369Z"  />
<glyph unicode="4" horiz-adv-x="515" d="M271 300L72 77V75H214Q218 78 221 82L273 300H271ZM478 487Q470 458 464 430T450 370L384 82Q384 79 388 75H456Q460 73 458 62T453 37Q449 21 446 6T435 -13H368Q364 -16 361 -20L322 -184Q320 -187 311 -188T290 -190T264 -191Q251 -191 241 -191Q231 -191 217 -191Q204 -191 192 -190T171 -188T161 -184L197 -20Q197 -17 193 -13H60Q31 -13 7 -13T-46 -16Q-46 -9 -44 1T-40 21T-35 41T-28 56Q-23 61 -12 71T14 97T46 130T81 169L260 370Q293 408 318 436T361 487Q366 488 383 488T420 489Q440 489 457 489T478 487Z"  />
<glyph unicode="5" horiz-adv-x="515" d="M474 459Q474 451 472 436T465 404T454 375T441 358H218Q213 356 210 352L193 318Q192 315 193 314T195 310Q228 288 260 261T316 203T356 134T372 55Q372 -6 345 -54T274 -137T176 -189T66 -208Q10 -208 -9 -195T-26 -155Q-25 -150 -24 -144T-20 -133Q-14 -128 -9 -127Q34 -144 79 -144Q113 -144 140 -133T186 -103T215 -57T225 1Q225 31 214 58T183 109T137 156T80 196Q78 204 79 208L208 474H468Q474 469 474 459Z"  />
<glyph unicode="6" horiz-adv-x="515" d="M543 623Q456 612 388 569T272 460T200 313T175 140Q175 89 188 62T234 34Q256 34 271 53T295 99T309 157T313 208Q313 225 311 243T302 276T283 300T251 310Q237 310 224 304Q221 307 219 313T217 324Q217 334 227 342Q250 361 277 372T335 384Q368 384 394 371T437 335T464 284T473 224Q473 170 454 126T402 49T325 0T228 -18Q129 -18 71 37T13 195Q13 287 53 369T160 514T315 615T499 660Q517 661 525 659T538 646Q540 642 541 635T543 623Z"  />
<glyph unicode="7" horiz-adv-x="515" d="M498 416Q486 402 464 366T416 287L130 -190Q122 -191 110 -187T87 -175T66 -161T53 -148L376 346V349H178Q153 349 137 346T110 337T91 322T76 299Q72 292 69 289T55 287Q50 287 45 288T37 291Q40 303 45 327T57 379T68 431T77 469Q78 472 84 476Q89 475 113 475T169 474Q201 474 233 474Q266 474 287 474Q312 474 345 474T409 475T465 476T501 477Q502 475 502 466Q502 458 502 448T500 429T498 416Z"  />
<glyph unicode="8" horiz-adv-x="515" d="M277 123Q277 144 271 161T253 195T229 225T202 254Q199 256 198 256T193 254Q164 228 146 193T127 118Q127 102 131 87T145 60T168 41T200 33Q219 33 233 41T257 61T272 90T277 123ZM380 511Q380 540 363 563T313 587Q278 587 259 563T239 508Q239 490 246 473T264 441T289 411T316 384Q320 383 325 384Q349 410 364 443T380 511ZM492 503Q492 471 481 447T452 404T409 371T359 345V344Q399 304 425 265T451 172Q451 131 434 97T385 37T306 -3T203 -18Q166 -18 132 -10T71 16T29 59T13 119Q13 153 25 180T57 228T105 265T162 295V296Q142 317 126 335T99 373T81 414T75 463Q75 499 91 530T137 586T211 623T310 637Q344 637 376 629T434 603T476 561T492 503Z"  />
<glyph unicode="9" horiz-adv-x="515" d="M479 279Q479 185 440 99T335 -54T181 -164T-3 -212Q-21 -213 -29 -211T-42 -197Q-46 -187 -46 -175Q41 -164 109 -119T223 -4T293 152T317 334Q317 385 304 412T258 440Q235 440 220 421T195 375T183 320T179 272Q179 257 181 239T190 206T209 180T241 169Q249 169 255 170T268 175Q271 172 272 167T274 156Q274 145 265 138Q242 119 215 107T157 95Q124 95 98 108T55 144T28 195T19 256Q19 308 37 351T88 426T166 474T264 492Q362 492 420 437T479 279Z"  />
<glyph unicode=":" horiz-adv-x="257" d="M167 84Q167 43 141 14T72 -16Q35 -16 12 8T-11 69Q-11 110 15 139T84 168Q121 168 144 145T167 84ZM234 373Q234 332 208 302T139 272Q102 272 80 296T57 357Q57 398 83 427T152 456Q189 456 211 433T234 373Z"  />
<glyph unicode=";" horiz-adv-x="257" d="M177 51Q177 11 164 -25T127 -91T72 -144T3 -180Q-7 -183 -13 -182T-21 -171Q-23 -166 -23 -160Q-23 -155 -23 -151Q-1 -145 21 -132T62 -101T91 -62T103 -16Q103 8 91 18T62 29Q57 29 50 29T37 28Q14 28 0 45T-15 88Q-15 126 10 148T70 170Q119 170 148 136T177 51ZM237 373Q237 332 211 302T142 272Q105 272 82 296T59 357Q59 398 85 427T154 456Q191 456 214 433T237 373Z"  />
<glyph unicode="&lt;" horiz-adv-x="500" d="M7 200V276L472 478V390L103 238L472 86V-2L7 200Z"  />
<glyph unicode="=" horiz-adv-x="500" d="M-1 71V149H464V71H-1ZM-1 320V397H464V320H-1Z"  />
<glyph unicode="&gt;" horiz-adv-x="500" d="M-4 -2V86L365 238L-4 390V478L461 277V200L-4 -2Z"  />
<glyph unicode="?" horiz-adv-x="300" d="M158 64Q158 31 136 9T81 -13Q50 -13 29 6T8 56Q8 89 30 111T86 134Q117 134 137 115T158 64ZM279 353Q279 322 268 303T239 272T201 254T164 241T135 228T123 208Q123 199 130 194T148 188Q159 188 166 191T183 194Q207 194 207 164Q207 148 200 138T177 127Q156 127 132 138T88 169T54 214T41 269Q41 298 51 316T78 347T112 367T147 380T173 392T184 410Q184 417 179 422T163 428Q152 428 144 424T127 414T111 404T92 399Q74 399 66 418T57 462Q57 467 58 473T65 484T80 492T105 496Q137 496 168 486T224 458T264 413T279 353Z"  />
<glyph unicode="@" horiz-adv-x="595" d="M337 298Q337 320 317 320Q298 320 283 302T257 261T240 215T234 182Q234 174 237 168T249 162Q256 162 267 172T291 197T312 229T327 260L335 284Q337 288 337 291Q337 295 337 298ZM570 295Q570 253 555 213T511 141T440 90T344 71Q321 71 306 79T291 111Q291 125 295 139T306 171H305Q293 155 279 138T247 105T210 81T167 71Q139 71 126 87T112 129Q112 170 132 213T185 291T257 349T335 372Q350 372 364 369T387 355H388L391 362Q396 373 401 376T419 380Q435 380 453 380T484 378Q481 370 475 356T464 327L402 154Q400 149 398 141T396 128Q396 119 410 119Q428 119 448 132T484 168T511 220T522 283Q522 329 508 361T469 413T410 442T337 452Q272 452 225 427T145 360T98 267T82 165Q82 118 99 85T146 29T214 -3T295 -13Q332 -13 369 -4T438 24Q443 18 447 10T452 -6Q452 -14 444 -19T430 -26Q394 -42 355 -48T276 -55Q220 -55 172 -42T87 0T29 73T8 177Q8 245 34 302T106 402T211 468T337 492Q383 492 425 480T499 444T550 382T570 295Z"  />
<glyph unicode="A" horiz-adv-x="714" d="M363 538H361L226 296Q226 292 231 289H388Q392 292 395 296L363 538ZM656 18Q656 13 655 7T651 -3Q616 -2 576 -1T502 0Q469 0 426 -1T348 -3Q347 2 347 5Q347 8 347 13Q347 30 362 33L394 38Q404 40 410 44T419 60T421 90T415 142L404 227Q403 231 397 233H196Q192 232 187 227L152 164Q139 141 130 120T119 81T121 52T144 37L171 33Q182 31 182 18Q182 13 181 7T177 -3Q142 -2 115 -1T55 0Q38 0 25 0T-1 -1T-27 -2T-58 -3Q-59 2 -59 5Q-59 8 -59 13Q-59 30 -44 33L-25 37Q-16 39 -8 45T10 64T30 95T59 143L376 685Q379 688 397 689T436 690Q458 690 476 689T496 685L580 142Q585 109 590 90T600 59T613 44T629 37L644 33Q651 31 653 29T656 18Z"  />
<glyph unicode="B" horiz-adv-x="670" d="M429 225Q429 253 420 273T397 306T363 325T324 331H274Q270 329 268 325L228 158Q220 125 217 104T215 71T226 55T249 51H276Q314 51 343 65T391 104T419 159T429 225ZM456 541Q456 589 435 611T379 633Q368 633 359 631T342 627Q334 609 329 589T318 545L281 387Q281 386 282 383T285 379H324Q380 379 417 423Q435 445 445 477T456 541ZM630 541Q630 504 615 475T574 423T518 386T454 364V362Q485 358 512 347T561 318T594 273T606 214Q606 176 590 141T547 77Q502 31 441 16T315 0H119Q102 0 81 0T38 -1T-7 -2T-46 -3Q-47 2 -47 5Q-47 8 -47 13Q-47 30 -32 33L2 38Q12 39 19 43T32 57T44 87T58 138L151 540Q158 572 161 591T162 620T154 634T137 640L107 645Q100 647 98 649T95 660Q95 665 96 671T100 681Q135 680 176 679T250 678Q298 678 346 681T443 685Q477 685 511 678T571 653T613 608T630 541Z"  />
<glyph unicode="C" horiz-adv-x="689" d="M664 665Q661 647 657 622T650 571T643 519T638 475Q634 474 628 474Q623 474 619 474Q602 474 600 490L595 531Q591 559 577 578T544 610T502 629T457 635Q411 635 375 617T310 569T261 501T228 420T208 337T202 260Q202 215 211 175T241 106T295 59T376 42Q444 42 489 70T562 156L578 189Q585 204 603 198Q608 196 611 194T620 190Q614 171 607 147T592 97T578 48T567 7Q565 6 561 6Q558 6 556 6Q550 6 546 8T539 12T533 17T524 19Q516 19 506 15T481 6Q443 -5 406 -11T331 -18Q264 -18 208 2T111 61T47 154T24 275Q24 357 52 433T133 567T262 661T437 696Q474 696 502 691T562 675Q569 672 579 668T598 661T614 654T623 651Q628 651 630 653T636 658T642 663T653 666Q655 666 658 666T664 665Z"  />
<glyph unicode="D" horiz-adv-x="772" d="M566 403Q566 448 556 489T524 560T470 609T395 628Q381 628 366 626T341 622Q335 610 330 590T318 545L229 162Q222 130 219 110T218 79T229 63T254 58H291Q357 58 406 86T493 166Q528 216 547 278T566 403ZM748 393Q748 360 741 324T719 251T682 178T628 111Q577 60 500 30T331 0H115Q98 0 78 0T35 -1T-8 -2T-46 -3Q-47 2 -47 5Q-47 8 -47 13Q-47 30 -32 33L2 38Q12 39 19 43T32 57T44 87T58 138L151 540Q158 572 161 591T162 620T154 634T137 640L107 645Q100 647 98 649T95 660Q95 665 96 671T100 681Q135 680 173 679T244 678Q262 678 287 679T340 681T395 684T444 685Q508 685 563 666T660 610T724 519T748 393Z"  />
<glyph unicode="E" horiz-adv-x="619" d="M581 672Q579 663 577 642T572 597T567 550T563 512Q558 511 553 511Q548 511 543 511Q526 511 524 527L520 565Q518 577 514 587T499 605T468 617T415 622H342Q337 613 331 592T314 529L280 385Q280 381 284 377H347Q375 377 392 379T419 385T434 395T443 412L451 436Q453 443 457 444T469 446Q474 446 481 446T490 443Q487 433 484 420T477 392T471 366T466 345Q462 328 456 299T446 244Q442 242 436 242T424 243Q410 243 411 256L414 282Q415 289 414 296T404 309T380 317T334 321H271Q267 318 264 314L232 176Q224 140 221 117T220 81T233 62T261 57H346Q378 57 400 60T439 71T467 94T490 130L510 168Q513 174 518 177T532 177Q537 175 542 173T551 169Q546 155 540 132T527 83T515 37T507 5Q504 0 499 -2Q492 0 455 0Q419 0 356 0H119Q102 0 81 0T38 -1T-7 -2T-46 -3Q-47 2 -47 5Q-47 8 -47 13Q-47 30 -32 33L2 38Q12 39 19 43T32 57T44 87T58 138L151 540Q158 572 161 591T162 620T154 634T137 640L107 645Q100 647 98 649T95 660Q95 665 96 671T100 681Q135 680 178 679T254 678H440Q501 678 533 678Q565 678 574 680Q580 676 581 672Z"  />
<glyph unicode="F" horiz-adv-x="560" d="M580 672Q578 663 576 642T571 597T566 549T562 511Q557 510 552 510Q547 510 542 510Q525 510 523 526L518 565Q516 577 512 587T497 605T466 617T413 622H342Q337 613 331 592T314 529L280 385Q280 381 284 377H345Q373 377 390 379T417 385T432 395T441 412L450 436Q452 443 456 444T468 446Q473 446 480 446T489 443Q486 433 483 420T476 392T470 366T465 345Q463 337 460 324T454 295T449 264T444 236Q440 234 433 234Q427 234 422 234Q408 234 409 247L413 282Q414 289 413 296T403 309T379 317T333 321H271Q267 318 264 314L224 138Q217 106 215 88T215 59T225 44T242 39L288 33Q299 32 299 18Q299 13 298 7T294 -3Q277 -3 254 -3T206 -2T159 -1T120 0Q103 0 82 0T38 -1T-7 -2T-46 -3Q-47 2 -47 5Q-47 8 -47 13Q-47 30 -32 33L2 38Q12 39 19 43T32 57T44 87T58 138L151 540Q158 572 161 591T162 620T154 634T137 640L107 645Q100 647 98 649T95 660Q95 665 96 671T100 681Q135 680 178 679T254 678H438Q499 678 531 678Q564 678 573 680Q579 676 580 672Z"  />
<glyph unicode="G" horiz-adv-x="747" d="M715 268Q715 251 700 248L669 243Q659 241 652 237T639 223T627 193T614 143L608 115Q599 76 599 59Q599 42 602 34Q600 32 599 29T595 23Q572 13 544 6T484 -7T420 -15T358 -18Q285 -18 224 2T119 59T49 151T24 273Q24 356 51 432T132 567T264 661T446 696Q514 696 583 676Q604 670 626 661T655 651Q660 651 663 653T669 658T675 663T687 666Q689 666 692 666T698 665Q694 644 691 620T684 570T677 520T672 476Q667 475 661 475Q656 475 651 475Q634 475 632 491L627 530Q623 559 606 579T566 612T518 630T470 636Q397 636 346 600T263 507T217 384T202 257Q202 215 211 176T241 105T293 56T369 37Q385 37 400 41T428 54Q432 62 436 77T444 110L452 143Q459 174 460 193T459 223T449 238T432 243L387 248Q376 249 376 263Q376 268 377 274T380 284Q397 284 420 284T468 283T515 282T555 281Q571 281 591 281T633 282T676 283T714 284Q715 279 715 276Q715 273 715 268Z"  />
<glyph unicode="H" horiz-adv-x="805" d="M852 665Q852 648 837 645L804 640Q794 638 787 634T774 620T762 590T748 540L654 138Q646 106 644 87T643 58T651 43T668 38L699 33Q710 31 710 18Q710 13 709 7T705 -3Q670 -2 627 -1T550 0Q533 0 512 0T469 -1T424 -2T385 -3Q384 2 384 5Q384 8 384 13Q384 30 398 33L432 38Q442 39 449 43T462 57T474 87T488 138L530 316Q530 318 526 322H271Q267 320 265 316L224 138Q216 106 214 87T213 58T221 43T238 38L268 33Q279 31 279 18Q279 13 278 7T274 -3Q239 -2 196 -1T119 0Q102 0 81 0T38 -1T-7 -2T-46 -3Q-47 2 -47 5Q-47 8 -47 13Q-47 30 -32 33L2 38Q12 39 19 43T32 57T44 87T58 138L151 540Q158 572 161 591T162 620T154 634T137 640L107 645Q100 647 98 649T95 660Q95 665 96 671T100 681Q135 680 178 679T255 678Q271 678 292 678T336 679T381 680T420 681Q421 676 421 673Q421 670 421 665Q421 648 407 645L373 640Q363 638 356 634T343 620T331 590T317 540L282 390Q282 388 286 384H541Q545 386 547 390L582 540Q589 572 591 591T592 620T584 634T567 640L537 645Q526 647 526 660Q526 665 527 671T531 681Q566 680 609 679T686 678Q702 678 723 678T767 679T812 680T851 681Q852 676 852 673Q852 670 852 665Z"  />
<glyph unicode="I" horiz-adv-x="374" d="M421 665Q421 648 407 645L373 640Q363 638 356 634T343 620T331 590T317 540L224 138Q216 106 214 87T213 58T221 43T238 38L268 33Q279 31 279 18Q279 13 278 7T274 -3Q239 -2 196 -1T119 0Q102 0 81 0T38 -1T-7 -2T-46 -3Q-47 2 -47 5Q-47 8 -47 13Q-47 30 -32 33L2 38Q12 39 19 43T32 57T44 87T58 138L151 540Q158 572 161 591T162 620T154 634T137 640L107 645Q100 647 98 649T95 660Q95 665 96 671T100 681Q135 680 178 679T255 678Q271 678 292 678T336 679T381 680T420 681Q421 676 421 673Q421 670 421 665Z"  />
<glyph unicode="J" horiz-adv-x="371" d="M422 665Q422 648 407 645L373 640Q363 638 356 634T343 620T331 590T317 540L228 153Q206 60 172 -13T93 -136T-3 -212T-110 -238Q-142 -238 -163 -232T-197 -217T-215 -198T-221 -180Q-221 -169 -216 -156T-202 -131T-182 -111T-159 -103Q-145 -103 -135 -113T-116 -137T-95 -160T-67 -171Q-50 -171 -36 -157T-9 -111T17 -31T47 88L151 540Q158 572 160 591T161 620T153 634T136 640L100 645Q88 646 88 660Q88 665 89 671T93 681Q110 681 131 681T175 680T218 679T256 678Q272 678 293 678T337 679T382 680T421 681Q422 676 422 673Q422 670 422 665Z"  />
<glyph unicode="K" horiz-adv-x="755" d="M752 665Q752 655 749 651T737 645L719 641Q708 638 698 633T674 616T641 587T592 540L429 379Q428 376 428 374T428 368Q440 352 454 329T484 280T516 225T547 173Q562 147 575 124T601 83T627 53T657 37L674 33Q685 31 685 18Q685 13 684 7T681 -3Q675 -2 656 -2T612 -1Q589 -1 566 -1Q544 -1 533 -1Q504 -1 485 5T451 24T425 56T400 100Q380 139 364 170T326 243Q312 269 304 284T287 310Q285 312 284 312Q283 312 281 313H270Q265 311 264 308L224 138Q216 106 214 87T213 58T221 43T238 38L268 33Q279 31 279 18Q279 13 278 7T274 -3Q239 -2 196 -1T119 0Q102 0 81 0T38 -1T-7 -2T-46 -3Q-47 2 -47 5Q-47 8 -47 13Q-47 30 -32 33L2 38Q12 39 19 43T32 57T44 87T58 138L151 540Q158 572 161 591T162 620T154 634T137 640L107 645Q100 647 98 649T95 660Q95 665 96 671T100 681Q135 680 178 679T255 678Q271 678 292 678T336 679T381 680T420 681Q421 676 421 673Q421 670 421 665Q421 648 407 645L373 640Q363 638 356 635T343 621T331 591T317 540L278 372Q278 367 282 363Q292 363 301 363T320 368T341 382T369 408L497 541Q526 571 538 589T553 618T549 633T534 640L514 645Q507 647 505 649T502 660Q502 665 503 671T507 681Q542 680 569 679T629 678Q662 678 689 679T751 681Q752 676 752 673Q752 670 752 665Z"  />
<glyph unicode="L" horiz-adv-x="595" d="M532 180Q527 166 521 141T507 89T495 39T487 5Q484 0 479 -2Q472 0 435 0Q398 0 335 0H118Q101 0 80 0T37 -1T-7 -2T-46 -3Q-47 2 -47 5Q-47 8 -47 13Q-47 30 -32 33L2 38Q12 39 19 43T32 57T44 87T58 138L151 540Q158 572 161 591T162 620T154 634T137 640L107 645Q100 647 98 649T95 660Q95 665 96 671T100 681Q135 680 178 679T255 678Q271 678 294 678T341 679T389 680T430 681Q431 676 431 673Q431 670 431 665Q431 648 417 645L376 639Q366 637 359 634T344 620T331 591T317 541L232 176Q224 140 221 117T220 81T233 62T261 57H324Q356 57 379 60T418 71T446 94T468 130L490 180Q496 194 513 188Q518 186 523 184T532 180Z"  />
<glyph unicode="M" horiz-adv-x="903" d="M921 665Q921 648 906 645L874 640Q865 638 858 635T845 621T833 591T824 541L769 138Q764 106 763 87T764 58T773 43T789 38L823 33Q834 32 834 18Q834 13 833 7T829 -3Q812 -3 791 -3T747 -2T704 -1T666 0Q633 0 593 -1T518 -3Q517 2 517 5Q517 8 517 13Q517 30 531 33L563 38Q572 39 578 43T590 57T598 87T607 138L651 462H649L397 -10Q394 -11 381 -11T351 -12Q335 -12 321 -12T305 -10L206 453H204L150 208Q138 155 134 123T132 73T141 48T161 38L189 33Q196 31 198 29T201 18Q201 13 200 7T196 -3Q179 -3 166 -3T140 -2T115 -1T86 0Q53 0 27 -1T-35 -3Q-36 2 -36 5Q-36 8 -36 13Q-36 30 -21 33L12 38Q21 39 28 46T43 71T60 122T81 210L158 544Q162 560 163 575T160 604T144 626T113 640L89 645Q82 647 80 649T77 660Q77 665 78 671T82 681Q89 681 103 681T133 680T163 679T185 678Q191 678 210 678Q230 678 252 678T295 679T324 681Q328 679 332 676Q334 660 339 630T351 563Q372 454 389 370Q396 333 403 299T415 237Q421 205 427 177H429L631 562Q651 600 663 629T683 676Q689 680 693 681Q699 680 713 680T744 679T776 678Q791 678 799 678Q828 678 858 679T920 681Q921 676 921 673Q921 670 921 665Z"  />
<glyph unicode="N" horiz-adv-x="759" d="M799 665Q799 648 785 645L751 640Q742 638 735 632T720 607T703 556T682 468L600 98Q598 93 601 87Q615 58 626 47T645 34L652 33Q663 31 663 18Q663 13 662 7T658 -3Q643 -2 622 -1T586 0Q572 0 554 0Q537 0 520 0T488 -1T465 -3Q459 -1 456 2Q448 22 435 49T402 115L217 486H215L160 235Q147 176 143 139T140 79T151 48T174 38L218 33Q230 32 230 18Q230 13 229 7T225 -3Q190 -2 154 -1T84 0Q51 0 26 -1T-34 -3Q-35 2 -35 5Q-35 8 -35 13Q-35 30 -21 33L13 38Q22 39 29 46T44 71T61 122T82 210L160 563Q162 571 159 577Q141 611 125 622T86 640L65 645Q54 647 54 660Q54 665 55 671T59 681Q66 681 80 681T110 680T139 679T161 678Q167 678 186 678Q206 678 228 678T271 679T299 681Q305 679 308 676Q316 656 329 627T359 563L546 190H548L604 443Q617 502 621 539T624 599T612 629T590 640L546 645Q535 646 535 660Q535 665 536 671T539 681Q574 680 608 679T675 678Q708 678 735 679T798 681Q799 676 799 673Q799 670 799 665Z"  />
<glyph unicode="O" horiz-adv-x="767" d="M567 429Q567 463 561 501T539 570T496 622T426 643Q385 643 353 623T295 570T252 494T223 409T206 323T200 249Q200 214 206 177T227 108T270 56T341 35Q382 35 414 55T472 108T515 184T544 269T561 355T567 429ZM743 396Q743 307 712 232T626 101T496 14T334 -18Q269 -18 213 3T114 64T48 159T24 282Q24 371 55 446T141 577T271 664T433 696Q497 696 553 675T652 614T718 519T743 396Z"  />
<glyph unicode="P" horiz-adv-x="619" d="M627 514Q627 455 604 409T542 331T452 282T344 265Q315 265 304 270T294 289Q294 296 297 305T304 319Q309 318 315 318T326 317Q362 317 386 338T425 390T446 456T453 521Q453 573 433 603T372 633Q363 633 356 631T342 627Q335 609 329 589T318 545L224 138Q216 106 215 88T215 59T225 44T242 39L288 33Q299 32 299 18Q299 13 298 7T294 -3Q277 -3 254 -3T206 -2T159 -1T120 0Q103 0 82 0T38 -1T-7 -2T-46 -3Q-47 2 -47 5Q-47 8 -47 13Q-47 30 -32 33L2 38Q12 39 19 43T32 57T44 87T58 138L151 540Q158 572 161 591T162 620T154 634T137 640L107 645Q100 647 98 649T95 660Q95 665 96 671T100 681Q135 680 169 679T249 678Q291 678 331 681T424 685Q464 685 501 675T566 643T610 590T627 514Z"  />
<glyph unicode="Q" horiz-adv-x="767" d="M571 429Q571 463 565 501T543 570T500 622T430 643Q389 643 357 623T299 570T256 495T227 409T210 324T204 250Q204 215 210 178T231 109T274 58T344 37Q385 37 418 57T476 110T519 185T548 270T565 355T571 429ZM1205 -88Q1205 -121 1185 -154T1127 -215T1040 -259T930 -276Q873 -276 819 -269T704 -249T575 -219T419 -181Q323 -159 258 -147T145 -132T56 -136T-32 -158Q-37 -153 -40 -142T-43 -122Q-18 -114 8 -105T58 -88L273 -12V-10Q220 0 176 25T99 88T48 175T29 283Q29 371 60 447T145 578T275 664T437 696Q501 696 557 675T656 614T722 519T746 396Q746 300 711 221T612 86Q583 60 552 42T486 10T416 -14T343 -34L238 -62L239 -64Q282 -66 320 -69T402 -77T499 -91T626 -111Q675 -119 736 -129T856 -149T966 -164T1043 -171Q1078 -171 1102 -163T1127 -125Q1127 -116 1124 -110T1117 -97T1110 -86T1106 -72Q1106 -58 1123 -47T1160 -36Q1178 -36 1191 -46T1205 -88Z"  />
<glyph unicode="R" horiz-adv-x="738" d="M455 535Q455 562 448 580T431 610T407 627T381 633Q372 633 361 631T342 627Q334 609 329 589T318 545L277 372Q277 371 278 368T281 363H318Q347 363 371 375T414 411Q434 436 444 468T455 535ZM677 18Q677 13 676 7T672 -3Q666 -2 647 -2Q628 -2 605 -2Q582 -2 560 -2Q539 -2 528 -2Q498 -1 478 5T445 25T421 57T398 102Q378 143 363 178T327 254Q317 273 310 286T297 311Q294 314 291 315H270Q265 313 264 310L224 138Q216 106 214 87T213 58T221 43T238 38L268 33Q279 31 279 18Q279 13 278 7T274 -3Q239 -2 196 -1T119 0Q102 0 81 0T38 -1T-7 -2T-46 -3Q-47 2 -47 5Q-47 8 -47 13Q-47 30 -32 33L2 38Q12 39 19 43T32 57T44 87T58 138L151 540Q158 572 161 591T162 620T154 634T137 640L107 645Q100 647 98 649T95 660Q95 665 96 671T100 681Q135 680 175 679T249 678Q297 678 344 681T440 685Q474 685 508 677T569 652T612 606T629 537Q629 496 614 464T574 409T518 371T454 349Q453 346 452 346T451 342Q474 306 499 260T549 168Q578 114 600 79T653 36L665 33Q672 31 674 29T677 18Z"  />
<glyph unicode="S" horiz-adv-x="512" d="M516 679Q512 658 509 634T502 584T497 535T492 491Q487 490 482 490Q478 490 473 490Q456 490 454 506L449 544Q442 589 408 614T331 640Q306 640 289 632T260 611T243 582T237 549Q237 525 246 505T269 468T300 436T333 405Q355 384 376 363T412 319T437 268T447 209Q447 157 425 115T366 44T282 -2T186 -18Q156 -18 129 -14T72 0Q50 7 42 9T28 11Q22 11 19 9T13 3T5 -3T-8 -6Q-10 -6 -13 -6T-18 -5Q-14 18 -10 46T-3 103T4 160T9 213Q14 214 18 214Q23 214 28 214Q45 214 47 197L52 161Q60 103 95 72T188 41Q234 41 263 66T293 136Q293 159 285 178T263 216T231 251T192 287Q172 305 153 324T119 367T95 417T85 477Q85 522 102 561T151 631T227 678T324 696Q353 696 375 692T423 680Q446 673 457 669T473 665Q478 665 481 667T487 672T494 677T506 680Q508 680 511 680T516 679Z"  />
<glyph unicode="T" horiz-adv-x="651" d="M693 696Q690 682 686 656T677 601T669 543T664 499Q659 498 654 498Q649 498 644 498Q627 498 625 514L622 560Q621 572 617 582T602 601T571 613T517 618H476Q471 609 464 587T448 525L359 138Q351 106 349 87T348 58T356 43T373 38L403 33Q414 31 414 18Q414 13 413 7T410 -3Q393 -3 373 -3T331 -2T290 -1T254 0Q237 0 216 0T173 -1T128 -2T89 -3Q88 2 88 5Q88 8 88 13Q88 30 103 33L137 38Q147 39 154 43T167 57T179 87T193 138L283 525Q292 565 295 586T298 618H233Q203 618 184 614T152 603T133 584T120 558L101 513Q98 505 94 502T81 499Q76 500 71 500T60 502Q64 521 69 547T80 600T89 652T96 696Q98 696 101 696T107 697Q115 697 119 695T125 689T130 683T139 678Q149 675 175 675T244 674H543Q585 674 612 674T649 678Q655 679 657 682T663 689T670 694T682 697Q684 697 687 697T693 696Z"  />
<glyph unicode="U" horiz-adv-x="693" d="M752 665Q752 648 737 645L704 640Q695 638 688 632T673 607T657 555T635 466L575 207Q550 100 482 41T293 -18Q241 -18 197 -5T121 33T70 91T52 166Q52 190 56 215T66 264L131 540Q138 571 141 590T142 619T134 634T117 640L87 645Q80 647 78 649T75 660Q75 665 76 671T80 681Q115 680 158 679T235 678Q251 678 272 678T316 679T361 680T400 681Q401 676 401 673Q401 670 401 665Q401 648 387 645L353 640Q343 638 336 635T323 621T311 591T297 540L225 234Q217 200 217 167Q217 144 224 124T245 87T282 62T333 53Q372 53 400 67T447 106T479 161T499 225L546 428Q560 490 566 530T572 593T562 627T537 640L500 645Q489 646 489 660Q489 665 490 671T493 681Q510 681 525 681T555 680T588 679T628 678Q661 678 688 679T751 681Q752 676 752 673Q752 670 752 665Z"  />
<glyph unicode="V" horiz-adv-x="691" d="M747 665Q747 648 732 645L713 641Q704 639 696 633T678 615T658 584T630 535L335 -6Q332 -9 315 -10T276 -11Q255 -11 237 -10T217 -6L124 536Q118 569 114 588T104 618T92 633T76 641L63 645Q56 647 54 649T51 660Q51 665 52 671T56 681Q91 680 130 679T203 678Q236 678 277 679T354 681Q355 676 355 672Q355 669 355 664Q355 654 352 651T341 645L308 640Q297 638 291 634T283 619T281 588T288 536L348 154H350L534 512Q544 531 553 552T565 592T564 624T541 641L515 645Q504 647 504 660Q504 665 505 671T509 681Q544 680 573 679T635 678Q651 678 664 678T689 679T715 680T746 681Q747 676 747 673Q747 670 747 665Z"  />
<glyph unicode="W" horiz-adv-x="1004" d="M1059 665Q1059 648 1045 645L1026 641Q1017 639 1009 633T991 615T970 584T942 535L648 -6Q645 -9 629 -10T594 -11Q576 -11 560 -10T542 -6L489 247H488L339 -6Q336 -9 320 -10T285 -11Q267 -11 251 -10T233 -6L124 536Q117 569 112 588T102 618T91 633T76 641L62 645Q55 647 53 649T50 660Q50 665 51 671T55 681Q90 680 129 679T201 678Q234 678 269 679T339 681Q340 676 340 672Q340 669 340 664Q340 654 337 651T326 645L304 640Q295 638 290 634T282 618T280 588T288 536L358 152H360L470 333Q471 337 471 343L431 536Q424 569 419 589T408 620T396 636T382 642L369 645Q358 647 358 660Q358 665 359 671T363 681Q398 680 429 679T493 678Q526 678 552 679T613 681Q614 676 614 672Q614 669 614 664Q614 654 611 651T599 645L586 641Q578 639 574 634T568 618T568 588T576 536L589 459H591L631 533Q647 563 655 582T664 614T661 632T648 641L637 645Q630 647 628 649T626 660Q626 665 627 671T631 681Q661 679 682 679T728 678Q753 678 775 679T818 681Q819 676 819 673Q819 670 819 665Q819 648 804 645L794 643Q782 640 773 634T755 615T733 583T705 535L614 380Q612 373 613 369L658 151H660L859 533Q875 563 880 583T886 617T879 635T865 643L854 645Q843 647 843 660Q843 665 844 671T847 681Q874 681 899 680T949 678Q975 678 1003 679T1058 681Q1059 676 1059 673Q1059 670 1059 665Z"  />
<glyph unicode="X" horiz-adv-x="675" d="M702 665Q702 655 699 651T688 645L671 641Q662 638 654 633T633 615T605 584T563 534L419 356Q417 350 419 345L506 142Q519 111 529 92T547 61T562 44T578 37L593 33Q600 31 602 29T604 18Q604 13 603 7T599 -3Q564 -2 522 -1T446 0Q413 0 371 -1T293 -3Q292 2 292 5Q292 9 292 14Q292 24 295 27T307 33L335 38Q345 40 350 44T356 60T352 91T333 142L278 275H276L172 136Q140 93 135 68T156 38L181 33Q188 31 191 29T194 18Q194 13 192 7T188 -3Q153 -2 127 -1T68 0Q51 0 38 0T12 -1T-15 -2T-46 -3Q-47 2 -47 5Q-47 8 -47 13Q-47 23 -44 27T-32 33L-16 37Q-6 40 3 46T25 64T53 95T93 144L246 332Q247 335 247 338T246 343L163 536Q149 567 140 586T122 617T107 634T92 641L77 645Q70 647 68 649T65 660Q65 665 66 671T70 681Q105 680 148 679T224 678Q257 678 299 679T376 681Q377 676 377 672Q377 669 377 664Q377 654 374 651T363 645L335 640Q325 638 320 633T313 617T317 587T336 536L387 413H389L485 542Q551 629 500 640L475 645Q468 647 466 649T463 660Q463 665 464 671T468 681Q503 680 531 679T592 678Q608 678 621 678T646 679T671 680T701 681Q702 676 702 673Q702 670 702 665Z"  />
<glyph unicode="Y" horiz-adv-x="637" d="M705 665Q705 655 702 651T690 645L672 641Q663 639 654 634T633 617T604 585T564 534L423 341Q413 327 408 313T398 282L365 138Q357 106 355 87T354 58T362 43T379 38L409 33Q420 31 420 18Q420 13 419 7T416 -3Q381 -2 338 -1T261 0Q244 0 223 0T180 -1T135 -2T96 -3Q95 2 95 5Q95 8 95 13Q95 30 109 33L143 38Q153 39 160 43T173 57T185 87T199 138L232 277Q236 294 234 307T227 333L152 536Q140 568 131 587T113 618T98 634T82 641L68 645Q61 647 59 649T57 660Q57 665 58 671T61 681Q96 680 138 679T213 678Q246 678 288 679T365 681Q366 676 366 672Q366 669 366 664Q366 654 363 651T352 645L325 640Q315 638 310 634T305 618T309 588T325 536L378 383H380L480 533Q499 561 508 580T518 612T513 630T495 640L474 645Q467 647 465 649T462 660Q462 665 464 671T468 681Q503 680 529 679T589 678Q605 678 619 678T646 679T673 680T704 681Q705 676 705 673Q705 670 705 665Z"  />
<glyph unicode="Z" horiz-adv-x="666" d="M651 681Q653 674 653 665Q653 656 650 648Q643 641 633 629T611 601T585 568T558 532L200 59V57H400Q432 57 455 60T496 72T526 96T551 136L573 183Q580 196 596 191Q601 189 606 188T615 184Q610 170 603 144T589 91T575 39T566 5Q563 0 558 -2Q525 -1 488 -1T412 0Q374 0 337 0Q301 0 268 0Q188 0 109 0T-26 -3Q-28 4 -28 13Q-28 22 -26 30Q-10 47 14 78T66 146L424 619V621H270Q238 621 217 617T183 606T162 587T147 560L127 515Q124 508 120 505T107 502Q102 503 97 503T86 506Q90 524 96 550T108 603T119 656T126 699Q128 699 131 699T137 700Q145 700 149 698T155 692T160 686T169 682Q179 679 206 679T276 678H415Q481 678 539 678T651 681Z"  />
<glyph unicode="[" horiz-adv-x="338" d="M368 673Q368 659 364 655T348 650H283Q265 650 254 648T235 636T221 605T206 547L86 15Q78 -22 75 -42T74 -73T88 -85T119 -88H175Q191 -88 191 -109Q191 -116 190 -124T186 -137Q172 -137 158 -137T129 -136H34Q22 -136 10 -136T-15 -137L175 699Q187 699 199 699T224 698H315Q329 698 340 698T366 699Q367 694 367 688T368 673Z"  />
<glyph unicode="\" horiz-adv-x="300" d="M241 -6Q237 -8 229 -10T211 -13T194 -15T181 -16L52 703Q56 705 64 707T82 711T99 714T112 715L241 -6H241Z"  />
<glyph unicode="]" horiz-adv-x="338" d="M127 -137Q115 -137 103 -137T78 -136H-12Q-26 -136 -37 -136T-63 -137Q-64 -132 -64 -126T-65 -111Q-65 -97 -61 -93T-45 -88H20Q38 -88 49 -86T68 -74T82 -43T97 15L217 547Q225 584 228 604T229 635T214 647T183 650H128Q112 650 112 671Q112 678 113 686T117 699Q131 699 145 699T174 698H268Q280 698 292 698T317 699L127 -137Z"  />
<glyph unicode="^" horiz-adv-x="500" d="M367 201L225 540L84 201H1L190 634H262L450 201H367Z"  />
<glyph unicode="_" horiz-adv-x="500" d="M-51 -241V-162H449V-241H-51Z"  />
<glyph unicode="`" horiz-adv-x="500" d="M328 518Q326 511 319 508T305 506Q276 540 246 581T190 657Q183 666 178 678T172 701Q172 711 178 720T193 736T213 747T234 751Q254 751 262 737T278 701Q291 661 304 612T328 518Z"  />
<glyph unicode="a" horiz-adv-x="585" d="M270 373H268L177 211Q177 207 180 206H289Q292 208 294 211L270 373ZM524 17Q524 12 523 7T519 -3Q486 -2 447 -1T376 0Q344 0 313 -1T247 -3Q246 2 246 4Q246 7 246 12Q246 30 261 32L291 36Q299 37 304 40T310 54T311 82T305 132L302 152Q301 154 297 156H151Q146 154 144 152L137 140Q108 91 109 66T132 36L151 32Q158 30 159 27T161 17Q161 12 160 7T156 -3Q132 -2 101 -1T49 0Q26 0 -1 -1T-49 -3Q-50 2 -50 4Q-50 7 -50 12Q-50 29 -35 32L-16 36Q-7 38 0 43T17 60T38 92T69 142L271 486Q272 487 281 488T305 490Q319 490 334 490T364 491T387 489T398 486L458 132Q463 101 467 83T477 55T487 42T500 36L514 32Q521 30 522 27T524 17Z"  />
<glyph unicode="b" horiz-adv-x="567" d="M332 160Q332 195 313 211T268 227H230Q229 226 227 226T225 224L199 114Q188 68 190 55T212 41H236Q260 41 278 51T308 79T326 117T332 160ZM351 378Q351 402 340 419T301 436Q293 436 286 436T276 433Q266 405 260 376L235 271L239 267H269Q286 267 299 273T326 297Q337 313 344 335T351 378ZM512 378Q512 352 501 332T472 296T432 270T388 254V253Q409 250 428 243T463 222T486 191T495 150Q495 124 483 99T453 54Q421 21 379 11T291 0H103Q87 0 67 0T27 -1T-14 -2T-51 -3Q-52 2 -52 4Q-52 7 -52 12Q-52 30 -37 32L-5 36Q4 37 11 41T24 55T36 83T49 132L98 342Q105 372 107 390T108 419T100 432T84 438L55 442Q48 443 47 446T45 457Q45 462 46 467T50 477Q83 476 124 475T198 474Q216 474 239 475T287 476T335 478T378 479Q402 479 426 474T469 457T500 426T512 378Z"  />
<glyph unicode="c" horiz-adv-x="539" d="M499 470Q497 458 494 438T489 396T484 354T480 320Q476 319 470 319Q464 319 461 319Q447 319 445 332L441 371Q439 387 430 399T406 421T375 434T342 439Q295 439 264 411T212 343T184 259T175 180Q175 150 180 124T198 77T232 46T286 34Q329 34 364 50T419 110L434 142Q440 154 457 148Q461 146 464 145T471 142Q466 127 461 108T449 69T438 31T429 -1Q427 -2 425 -2T420 -1Q410 -1 407 3T397 8Q392 8 387 6T371 0Q342 -8 308 -13T245 -18Q192 -18 149 -3T75 40T28 106T11 193Q11 251 30 305T89 401T186 467T322 492Q342 492 366 489T419 477Q437 472 451 466T468 460Q475 460 477 465T490 471Q492 471 494 471T499 470Z"  />
<glyph unicode="d" horiz-adv-x="625" d="M417 285Q417 309 413 334T397 381T367 416T317 430Q305 430 293 429T274 426Q270 418 267 405T259 375L201 119Q191 77 194 64T218 50H244Q286 50 318 70T373 126Q395 161 406 202T417 285ZM588 275Q588 229 568 176T504 78Q467 42 413 21T295 0H103Q87 0 67 0T27 -1T-14 -2T-51 -3Q-52 2 -52 4Q-52 7 -52 12Q-52 30 -37 32L-5 36Q4 37 11 41T24 55T36 83T49 132L98 342Q105 372 107 390T108 419T100 432T84 438L55 442Q48 443 47 446T45 457Q45 462 46 467T50 477Q83 476 115 475T180 474Q192 474 218 475T275 476T332 478T375 479Q420 479 458 466T526 427T571 363T588 275Z"  />
<glyph unicode="e" horiz-adv-x="493" d="M455 470Q454 464 452 447T448 411T444 373T441 344Q437 343 432 343T422 344Q409 344 407 357L404 385Q403 392 401 399T392 412T372 422T334 426H276Q273 420 268 405T256 360L236 273Q236 269 238 267H283Q302 267 314 268T334 273T344 280T350 292L355 307Q358 316 370 316Q375 316 381 315T390 313Q388 307 385 297T380 277T375 257T372 241Q370 229 365 206T358 166Q355 165 348 165Q342 165 337 165Q327 165 327 175L328 193Q328 198 327 203T321 211T304 217T272 220H228Q225 218 223 215L204 135Q192 85 195 67T224 48H287Q308 48 322 50T347 59T366 76T384 103L398 128Q404 139 417 134Q420 132 425 131T434 128Q431 118 426 100T416 63T406 26T400 3Q399 0 395 -1Q390 0 365 0Q340 0 295 0H103Q87 0 67 0T27 -1T-14 -2T-51 -3Q-52 2 -52 4Q-52 7 -52 12Q-52 30 -37 32L-5 36Q4 37 11 41T24 55T36 83T49 132L98 342Q105 372 107 390T108 419T100 432T84 438L55 442Q48 443 47 446T45 457Q45 462 46 467T50 477Q83 476 124 475T198 474H357Q400 474 422 474Q445 474 451 475Q454 474 455 470Z"  />
<glyph unicode="f" horiz-adv-x="464" d="M454 470Q453 464 451 447T447 411T443 373T440 344Q436 343 431 343T421 344Q407 344 405 357L402 385Q401 392 399 399T390 413T370 422T332 426H276Q273 420 268 405T256 361L236 274Q236 271 239 268H281Q300 268 312 269T332 274T342 281T348 293L353 308Q355 316 368 316Q373 316 379 316T388 314Q386 307 384 297T379 277T374 257T371 242Q370 236 368 226T363 203T358 180T354 160Q351 159 345 159T334 158Q321 158 323 169L326 193Q327 198 326 203T319 212T302 218T270 221H228Q225 219 223 216L203 132Q196 102 195 84T196 55T206 41T225 36L259 32Q266 31 267 28T269 17Q269 12 268 7T264 -3Q247 -3 227 -3T185 -2T143 -1T106 0Q90 0 70 0T28 -1T-13 -2T-51 -3Q-52 2 -52 4Q-52 7 -52 12Q-52 30 -37 32L-5 36Q4 37 11 41T24 55T36 83T49 132L98 342Q105 372 107 390T108 419T100 432T84 438L55 442Q48 443 47 446T45 457Q45 462 46 467T50 477Q83 476 124 475T198 474H355Q398 474 420 474T449 476Q453 474 454 470Z"  />
<glyph unicode="g" horiz-adv-x="586" d="M549 184Q549 167 534 164L515 160Q507 158 501 156T491 147T482 127T472 93L468 75Q462 48 462 35T463 17Q462 15 461 13T458 9Q426 -4 380 -11T269 -18Q210 -18 162 -4T81 37T29 102T11 189Q11 247 30 302T88 399T187 466T331 492Q387 492 440 479Q460 474 477 467T499 460Q507 460 509 465T524 471Q526 471 528 471T533 470Q530 455 527 435T520 394T513 352T508 319Q504 318 499 318T489 319Q473 319 473 332L474 371Q474 383 465 395T440 417T402 433T355 439Q304 439 270 413T214 347T184 261T175 176Q175 150 180 124T198 77T230 43T277 30Q297 30 309 35Q311 40 315 51T321 76L324 92Q331 128 326 143T301 160L267 164Q260 165 259 168T257 179Q257 184 258 189T262 199Q295 198 336 197T409 196Q441 196 477 197T548 199Q549 194 549 191Q549 189 549 184Z"  />
<glyph unicode="h" horiz-adv-x="682" d="M692 462Q692 443 677 442L645 438Q636 437 629 433T616 419T604 391T591 342L542 132Q535 102 533 84T532 55T540 41T556 36L585 32Q592 31 593 28T595 17Q595 12 594 7T590 -3Q557 -2 516 -1T442 0Q426 0 406 0T366 -1T325 -2T288 -3Q287 2 287 4Q287 7 287 12Q287 30 302 32L334 36Q343 37 350 41T363 55T375 83T388 132L408 219Q408 220 405 223H229Q225 221 224 219L203 132Q195 102 193 84T193 55T201 41T217 36L246 32Q253 31 254 28T256 17Q256 12 255 7T251 -3Q218 -2 177 -1T103 0Q87 0 67 0T27 -1T-14 -2T-51 -3Q-52 2 -52 4Q-52 7 -52 12Q-52 30 -37 32L-5 36Q4 37 11 41T24 55T36 83T49 132L98 342Q105 372 107 390T108 419T100 432T84 438L55 442Q48 443 47 446T45 457Q45 462 46 467T50 477Q83 476 124 475T198 474Q214 474 234 474T274 475T315 476T352 477Q353 472 353 469Q353 467 353 462Q353 443 338 442L306 438Q297 437 290 433T277 419T265 391T252 342L238 283Q238 282 241 279H418Q421 280 422 283L437 342Q445 372 447 390T448 419T439 432T423 438L394 442Q387 443 386 446T384 457Q384 462 385 467T389 477Q422 476 463 475T537 474Q553 474 573 474T613 475T654 476T691 477Q692 472 692 469Q692 467 692 462Z"  />
<glyph unicode="i" horiz-adv-x="347" d="M355 462Q355 443 340 442L308 438Q299 437 292 433T279 419T267 391T254 342L205 132Q198 102 196 84T195 55T203 41T219 36L248 32Q255 31 256 28T258 17Q258 12 257 7T253 -3Q220 -2 179 -1T105 0Q89 0 69 0T29 -1T-12 -2T-49 -3Q-50 2 -50 4Q-50 7 -50 12Q-50 30 -35 32L-3 36Q6 37 13 41T26 55T38 83T51 132L100 342Q107 372 109 390T110 419T102 432T86 438L57 442Q50 443 49 446T47 457Q47 462 48 467T52 477Q85 476 126 475T200 474Q216 474 236 474T276 475T317 476T354 477Q355 472 355 469Q355 467 355 462Z"  />
<glyph unicode="j" horiz-adv-x="317" d="M344 462Q344 443 329 442L297 438Q288 437 281 433T268 419T256 391T243 342L172 38Q155 -36 128 -89T66 -176T-10 -227T-97 -244Q-125 -244 -143 -240T-171 -228T-186 -214T-190 -201Q-190 -192 -186 -180T-175 -158T-159 -140T-141 -133Q-131 -133 -123 -141T-106 -159T-90 -177T-69 -186Q-58 -186 -49 -177T-31 -146T-13 -91T8 -5L89 342Q96 372 98 390T99 419T91 432T75 438L46 442Q39 443 38 446T36 457Q36 462 37 467T41 477Q74 476 115 475T189 474Q205 474 225 474T265 475T306 476T343 477Q344 472 344 469Q344 467 344 462Z"  />
<glyph unicode="k" horiz-adv-x="611" d="M588 462Q588 445 573 442L553 438Q544 436 536 431T515 415T480 384T425 332L368 278Q367 275 367 270Q373 261 382 245T403 209T425 169T446 129Q465 93 484 66T524 35L541 32Q548 30 549 27T551 17Q551 6 546 -2Q542 -2 522 -2T476 -1Q451 -1 428 -1Q405 -1 396 -1Q357 -1 339 18T305 73Q299 87 294 98T284 119T274 141T262 168Q254 185 249 195T238 214Q236 216 236 215Q236 215 234 216H226Q225 215 224 215T222 213L203 132Q196 102 194 84T193 55T201 41T217 36L246 32Q253 31 254 28T256 17Q256 12 255 7T251 -3Q218 -2 177 -1T103 0Q87 0 67 0T27 -1T-14 -2T-51 -3Q-52 2 -52 4Q-52 7 -52 12Q-52 30 -37 32L-5 36Q4 37 11 41T24 55T36 83T49 132L98 342Q105 372 107 390T108 419T100 432T84 438L55 442Q48 443 47 446T45 457Q45 462 46 467T50 477Q83 476 124 475T198 474Q214 474 234 474T274 475T315 476T352 477Q353 472 353 469Q353 467 353 462Q353 443 338 442L306 438Q297 437 290 433T276 419T265 391T252 342L234 262Q234 259 237 256Q250 257 262 260T298 287L364 352Q387 375 398 390T413 416T412 432T401 439L389 442Q382 444 381 447T379 457Q379 462 380 467T384 477Q408 476 433 475T480 474Q491 474 505 474T534 475T563 476T587 477Q588 472 588 469Q588 467 588 462Z"  />
<glyph unicode="l" horiz-adv-x="489" d="M426 148Q422 137 417 117T406 75T396 33T389 4Q387 0 383 -1Q378 0 351 0Q324 0 279 0H103Q87 0 67 0T27 -1T-14 -2T-51 -3Q-52 2 -52 4Q-52 7 -52 12Q-52 30 -37 32L-5 36Q4 37 11 41T24 55T36 83T49 132L98 342Q105 372 107 390T108 419T100 432T84 438L55 442Q48 443 47 446T45 457Q45 462 46 467T50 477Q83 476 124 475T198 474Q214 474 235 474T279 475T323 476T362 477Q363 472 363 469Q363 467 363 462Q363 443 348 442L312 438Q302 437 294 433T279 419T266 391T252 342L204 135Q192 84 194 66T223 48H272Q292 48 306 50T332 59T352 76T369 104L389 146Q395 157 409 154Q414 153 418 152T426 148Z"  />
<glyph unicode="m" horiz-adv-x="729" d="M727 462Q727 443 712 442L684 438Q675 437 668 434T654 420T642 392T633 342L604 132Q600 101 599 83T601 55T610 42T628 36L646 32Q653 30 654 27T656 17Q656 12 655 7T651 -3Q618 -2 582 -1T514 0Q482 0 444 -1T372 -3Q371 2 371 4Q371 7 371 12Q371 29 386 32L410 36Q419 37 425 41T437 55T445 83T454 132L479 304H477L311 -7Q309 -8 294 -8T261 -9Q243 -9 228 -9T211 -7L148 289H146L126 197Q116 152 111 122T106 74T113 48T134 36L152 32Q159 30 160 27T162 17Q162 12 161 7T157 -3Q140 -3 130 -3T111 -2T92 -1T66 0Q50 0 37 0T12 -1T-13 -2T-43 -3Q-44 2 -44 4Q-44 7 -44 12Q-44 29 -29 32L-5 37Q5 39 13 45T28 67T43 108T61 178L99 343Q105 370 105 387T102 415T90 431T71 438L47 442Q40 443 39 446T37 457Q37 462 38 467T42 477Q75 476 100 475T157 474Q161 474 176 474Q192 474 209 474Q227 474 243 474T265 475Q269 473 270 472Q272 460 274 439T282 391L330 141H331L464 391Q478 417 486 439T500 473Q504 475 507 476Q511 476 524 476T551 475T579 474Q592 474 597 474Q629 474 660 475T726 477Q727 472 727 469Q727 467 727 462Z"  />
<glyph unicode="n" horiz-adv-x="590" d="M602 462Q602 445 587 442L564 438Q541 434 530 402T501 296L448 70Q446 67 448 62Q458 42 466 38T479 33L487 32Q498 31 498 17Q498 12 497 7T493 -3Q488 -3 478 -3T457 -2T436 -1T421 0Q409 0 392 0Q375 0 358 0T328 -1T308 -2Q306 -1 305 -1T302 1Q296 15 288 34T266 82L153 325H152L123 196Q113 151 109 121T108 73T120 47T146 36L175 32Q182 31 183 28T185 17Q185 12 184 7T180 -3Q147 -2 123 -1T67 0Q35 0 11 -1T-47 -3Q-48 2 -48 4Q-48 7 -48 12Q-48 29 -33 32L-10 36Q13 40 24 72T53 178L104 393Q105 399 104 403Q94 422 87 428T62 438L46 441Q39 443 38 446T36 456Q36 461 37 467T41 477Q46 477 56 477T77 476T98 475T113 474Q117 474 136 474T178 475T221 476T247 477Q251 475 253 473Q258 459 267 439T287 393L400 148H402L431 278Q441 323 445 353T446 401T434 427T408 438L379 442Q372 443 371 446T369 457Q369 462 370 467T374 477Q407 476 431 475T487 474Q519 474 543 475T601 477Q602 472 602 469Q602 467 602 462Z"  />
<glyph unicode="o" horiz-adv-x="612" d="M413 303Q413 324 410 348T398 395T371 431T323 446Q279 446 250 415T204 339T180 249T173 171Q173 150 176 126T188 79T215 43T263 28Q307 28 336 59T382 135T406 225T413 303ZM575 274Q575 210 553 157T489 64T389 4T260 -18Q205 -18 159 -3T80 41T29 110T11 200Q11 264 33 317T97 410T196 470T326 492Q381 492 427 477T506 433T557 364T575 274Z"  />
<glyph unicode="p" horiz-adv-x="521" d="M514 353Q514 309 498 275T452 218T381 182T292 169Q257 169 249 175T240 189Q240 194 243 202T249 215Q252 214 258 214Q265 214 273 214Q297 214 312 230T337 269T349 318T353 361Q353 393 342 414T302 435Q295 435 289 434T277 431Q272 417 267 402T259 373L203 132Q196 102 195 84T196 55T206 41T225 36L259 32Q266 31 267 28T269 17Q269 12 268 7T264 -3Q247 -3 227 -3T185 -2T143 -1T106 0Q90 0 70 0T28 -1T-13 -2T-51 -3Q-52 2 -52 4Q-52 7 -52 12Q-52 30 -37 32L-5 36Q4 37 11 41T24 55T36 83T49 132L98 342Q105 372 107 390T108 419T100 432T84 438L55 442Q48 443 47 446T45 457Q45 462 46 467T50 477Q83 476 121 475T192 474Q224 474 270 476T361 479Q391 479 418 472T467 449T501 409T514 353Z"  />
<glyph unicode="q" horiz-adv-x="612" d="M413 303Q413 324 410 348T398 395T371 431T323 446Q279 446 250 415T204 339T180 249T173 171Q173 150 176 126T188 79T215 43T263 28Q307 28 336 59T382 135T406 225T413 303ZM1064 -78Q1064 -116 1040 -146T979 -198T894 -231T800 -243Q754 -243 704 -234T602 -212T498 -184T396 -154Q340 -139 288 -126T183 -107T77 -105T-33 -127Q-44 -113 -44 -95Q-28 -90 -8 -84T27 -72L191 -13V-11Q109 6 60 61T11 200Q11 264 33 317T97 410T196 470T326 492Q381 492 427 477T506 433T557 364T575 274Q575 211 555 161T496 73Q430 8 322 -16L210 -41L211 -43Q278 -45 356 -56T540 -89Q581 -98 630 -108T731 -128T832 -143T926 -150Q957 -150 975 -140T993 -110Q993 -94 984 -85T975 -62Q975 -54 980 -48T993 -38T1009 -32T1024 -30Q1047 -30 1055 -44T1064 -78Z"  />
<glyph unicode="r" horiz-adv-x="608" d="M353 374Q353 436 303 436Q295 436 288 435T276 432Q271 418 267 403T259 373L231 259L234 252H268Q288 252 302 261T328 286Q341 303 347 327T353 374ZM547 17Q547 6 542 -2Q538 -2 517 -2Q497 -2 472 -2Q447 -2 424 -2T392 -1Q371 0 358 5T335 21T318 46T304 80Q298 95 294 106T285 128T276 150T265 177Q260 188 257 195T250 209Q249 210 245 212H225Q224 211 223 211T221 209L203 132Q196 102 194 84T193 55T201 41T217 36L246 32Q253 31 254 28T256 17Q256 12 255 7T251 -3Q218 -2 177 -1T103 0Q87 0 67 0T27 -1T-14 -2T-51 -3Q-52 2 -52 4Q-52 7 -52 12Q-52 30 -37 32L-5 36Q4 37 11 41T24 55T36 83T49 132L98 342Q105 372 107 390T108 419T100 432T84 438L55 442Q48 443 47 446T45 457Q45 462 46 467T50 477Q83 476 124 475T198 474Q236 474 285 476T376 479Q400 479 425 474T470 457T502 424T515 374Q515 346 505 324T477 285T439 258T396 243Q395 241 395 241T394 238Q408 215 422 186T450 127Q470 85 485 62T520 35L537 32Q544 30 545 27T547 17Z"  />
<glyph unicode="s" horiz-adv-x="436" d="M416 480Q413 465 411 447T406 409T402 371T399 340Q395 339 391 339Q387 339 383 339Q375 339 372 343T368 353L363 380Q360 396 351 408T328 427T300 438T270 442Q249 442 236 437T216 423T206 405T203 388Q203 359 221 339T266 299Q283 285 301 271T333 240T357 200T366 150Q366 115 351 84T308 31T240 -5T151 -18Q127 -18 103 -15T55 -6Q39 -1 33 0T24 1Q16 1 13 -4T-2 -9H-10Q-7 8 -4 28T2 71T7 113T10 151Q14 152 18 152T26 151Q34 151 37 148T41 138L45 114Q53 69 81 52T151 35Q188 35 205 51T222 90Q222 106 215 120T197 146T172 169T142 193Q127 205 113 218T88 248T70 283T63 327Q63 363 77 393T118 445T182 479T263 492Q288 492 308 490T348 481Q367 476 373 474T382 471Q390 471 393 476T408 481Q410 481 412 481T416 480Z"  />
<glyph unicode="t" horiz-adv-x="523" d="M522 490Q520 481 517 459T510 412T503 363T499 329Q495 328 489 328Q484 328 480 328Q464 328 464 341L463 385Q463 392 461 399T452 413T431 422T393 426H363Q360 420 355 404T342 358L289 132Q282 102 280 84T279 55T287 41T303 36L332 32Q339 31 340 28T342 17Q342 12 341 7T337 -3Q304 -2 263 -1T189 0Q173 0 153 0T113 -1T72 -2T35 -3Q34 2 34 4Q34 7 34 12Q34 30 49 32L81 36Q90 37 97 41T110 55T122 83T135 132L187 358Q194 387 196 402T199 426H154Q133 426 121 423T100 415T86 401T77 383L62 350Q60 345 57 342T45 339Q41 340 35 340T25 342Q28 356 32 376T41 417T48 457T53 490H62Q74 490 78 485T90 477Q97 475 115 475T163 474H412Q442 474 460 474T485 477Q493 480 496 485T512 490H522H522Z"  />
<glyph unicode="u" horiz-adv-x="563" d="M590 462Q590 445 575 442L552 438Q541 436 533 428T519 404T505 361T489 296L454 147Q445 111 430 82T389 31T327 -1T240 -13Q190 -13 154 -3T93 26T56 68T44 121Q44 138 46 154T53 187L90 342Q97 372 99 390T100 419T92 432T76 438L47 442Q40 443 39 446T37 457Q37 462 38 467T42 477Q75 476 116 475T190 474Q206 474 225 474T265 475T304 476T341 477Q342 472 342 469Q342 467 342 462Q342 443 327 442L298 438Q289 437 282 433T269 419T257 391T244 342L204 169Q198 145 198 121Q198 107 201 94T214 70T237 52T274 45Q326 45 350 76T388 161L415 278Q425 322 429 351T433 399T425 425T404 437L379 442Q372 444 371 447T369 457Q369 462 370 467T374 477Q390 477 402 477T425 476T447 475T475 474Q507 474 531 475T589 477Q590 472 590 469Q590 467 590 462Z"  />
<glyph unicode="v" horiz-adv-x="556" d="M581 462Q581 445 566 442L550 438Q541 436 534 431T517 414T497 383T468 332L280 -12Q278 -14 259 -15T217 -17Q195 -17 176 -16T156 -12L96 342Q91 373 87 391T79 418T69 432T54 438L37 442Q30 444 29 447T27 457Q27 462 28 467T32 477Q65 476 105 475T178 474Q210 474 241 475T307 477Q308 472 308 469Q308 467 308 462Q308 443 293 442L263 438Q255 437 250 434T244 420T243 392T249 342L282 110H284L397 334Q423 385 423 409T402 438L383 442Q376 444 375 447T373 457Q373 462 374 467T378 477Q402 476 433 475T485 474Q508 474 534 475T580 477Q581 472 581 469Q581 467 581 462Z"  />
<glyph unicode="w" horiz-adv-x="800" d="M825 462Q825 446 810 442L795 438Q786 436 779 431T764 414T744 383T715 332L527 -12Q525 -14 508 -15T471 -17Q451 -17 434 -16T415 -12L381 154H380L282 -12Q280 -14 263 -15T226 -17Q206 -17 189 -16T170 -12L95 342Q89 373 85 391T77 418T68 432T53 438L37 442Q30 444 29 447T27 457Q27 462 28 467T32 477Q65 476 92 475T151 474Q183 474 214 475T279 477Q280 472 280 469Q280 467 280 462Q280 446 267 442L256 438Q249 435 245 432T239 418T239 391T247 342L290 108H292L363 225Q364 227 364 228T363 232L341 342Q335 373 331 391T322 418T314 432T304 438L294 442Q288 444 287 447T285 457Q285 462 286 467T290 477Q306 477 317 477T339 476T361 475T388 474Q404 474 417 474T442 475T467 476T497 477Q498 472 498 469Q498 467 498 462Q498 446 484 442L478 440Q472 438 469 434T464 422T465 397T472 355L478 319H479L498 354Q522 399 525 417T519 439L511 442Q505 444 504 447T502 457Q502 462 503 467T507 477Q531 476 542 475T575 474Q598 474 612 475T646 477Q647 472 647 469Q647 467 647 462Q647 446 634 442L625 439Q617 436 610 431T595 413T576 382T546 332L501 257Q500 255 500 253Q500 251 500 249L528 110H530L646 334Q672 384 678 408T671 438L661 442Q655 444 654 447T653 457Q653 462 653 467T656 477Q680 476 699 475T739 474Q762 474 783 475T824 477Q825 472 825 469Q825 467 825 462Z"  />
<glyph unicode="x" horiz-adv-x="530" d="M541 462Q541 445 526 442L510 438Q501 436 492 429T471 410T443 378T405 332L335 248Q333 244 335 240L379 132Q391 103 399 86T415 58T428 43T443 36L458 32Q465 30 466 27T468 17Q468 12 467 7T463 -3Q430 -2 394 -1T326 0Q294 0 260 -1T191 -3Q190 2 190 4Q190 7 190 12Q190 29 205 32L226 36Q235 37 239 41T244 56Q244 66 239 84T221 131L199 186H198L164 141Q141 111 130 92T115 62T117 45T133 36L148 32Q155 30 156 27T158 17Q158 12 157 7T153 -3Q129 -2 101 -1T51 0Q28 0 0 -1T-49 -3Q-50 2 -50 4Q-50 7 -50 12Q-50 29 -35 32L-11 36Q6 39 27 63T94 142L169 233Q170 236 170 241L129 342Q117 371 109 389T94 417T81 431T66 438L47 442Q40 444 39 447T37 457Q37 462 38 467T42 477Q75 476 112 475T182 474Q214 474 248 475T317 477Q318 472 318 469Q318 467 318 462Q318 445 303 442L282 438Q273 436 269 432T264 418T270 389T287 342L305 295H307L336 333Q359 363 370 382T385 412T383 429T367 438L352 442Q345 444 344 447T342 457Q342 462 343 467T347 477Q371 476 399 475T449 474Q472 474 496 475T540 477Q541 472 541 469Q541 467 541 462Z"  />
<glyph unicode="y" horiz-adv-x="517" d="M545 462Q545 445 530 442L513 438Q496 434 473 412T409 332L334 227Q327 217 323 209T316 186L304 132Q297 102 295 84T294 55T302 41T318 36L347 32Q354 31 355 28T357 17Q357 12 356 7T352 -3Q319 -2 278 -1T204 0Q188 0 168 0T128 -1T87 -2T50 -3Q49 2 49 4Q49 7 49 12Q49 30 64 32L96 36Q105 37 112 41T126 55T137 83T150 132L162 186Q165 199 164 207T159 225L116 342Q105 371 97 389T83 417T69 432T54 438L37 442Q30 444 29 447T27 457Q27 462 28 467T32 477Q65 476 101 475T169 474Q201 474 235 475T304 477Q305 472 305 469Q305 467 305 462Q305 445 290 442L269 438Q260 436 256 433T252 419T258 391T274 343L299 269H301L343 333Q362 362 372 381T386 412T385 429T371 438L356 442Q349 444 348 447T346 457Q346 462 347 467T351 477Q375 476 403 475T452 474Q475 474 499 475T544 477Q545 472 545 469Q545 467 545 462Z"  />
<glyph unicode="z" horiz-adv-x="525" d="M496 476Q497 471 497 463T496 449Q486 439 469 416T431 367L186 48V46H324Q345 46 360 48T387 57T406 74T423 102L442 145Q444 151 449 152T462 151Q466 150 471 149T479 145Q476 135 470 115T458 72T447 30T440 4Q438 0 434 -1Q377 0 328 0Q279 0 225 0Q197 0 164 0Q132 0 99 0Q67 0 37 0T-16 -2Q-17 3 -17 11T-16 25Q-3 38 13 59T49 107L294 426V428H189Q148 428 134 417T112 385L95 343Q93 337 90 335T78 332Q74 332 69 333T59 335Q62 349 66 370T75 413T83 456T89 490H101Q113 490 115 485T125 477Q132 475 148 475T195 474H310Q366 474 408 474Q450 474 496 476Z"  />
<glyph unicode="{" horiz-adv-x="338" d="M356 683Q356 677 355 670T351 657Q280 658 251 632T217 560Q215 534 214 502T212 446Q211 414 206 387T187 338T152 301T94 276V274Q120 261 136 239T153 183Q153 156 143 127T119 70T96 14T85 -40Q85 -68 109 -86T178 -101Q178 -105 178 -112T179 -124Q179 -133 176 -141T159 -151Q132 -152 107 -145T63 -123T33 -87T21 -40Q21 -12 32 17T56 75T81 130T92 177Q92 218 65 236T-1 258Q-2 264 0 278T5 298Q54 301 83 314T126 349T144 398T148 458Q148 479 148 506T151 560Q153 599 168 627T209 672T267 698T336 707Q346 707 351 703T356 683Z"  />
<glyph unicode="|" horiz-adv-x="250" d="M12 -270Q1 -272 -18 -272Q-38 -272 -49 -270L182 730Q188 731 196 731T213 732Q222 732 230 732T243 730L12 -270Z"  />
<glyph unicode="}" horiz-adv-x="338" d="M326 298Q327 292 325 278T320 258Q270 255 242 242T199 207T181 158T177 98Q177 77 177 50T174 -4Q172 -43 157 -71T116 -116T58 -142T-11 -151Q-21 -151 -26 -147T-32 -127Q-32 -121 -31 -114T-27 -101Q44 -102 74 -76T108 -4Q110 22 111 54T113 110Q114 142 119 169T138 218T173 255T231 280V282Q205 295 188 317T171 373Q171 400 182 428T205 485T229 542T240 596Q240 624 216 642T147 657Q147 661 147 668T146 680Q146 689 149 697T166 707Q193 708 218 701T262 679T292 643T304 596Q304 567 293 538T268 481T243 426T232 379Q232 338 260 320T326 298Z"  />
<glyph unicode="~" horiz-adv-x="500" d="M463 220Q440 194 410 178T343 162Q314 162 286 172T229 196T174 219T119 230Q78 230 51 211T-2 162V248Q21 274 52 289T119 305Q148 305 176 295T232 271T287 248T342 237Q383 237 410 256T463 305V220H463Z"  />
<glyph unicode="&#xA0;" horiz-adv-x="250" />
<glyph unicode="&#xA1;" horiz-adv-x="245" d="M142 49Q136 13 110 0T52 -13Q20 -13 -3 -1T-26 43Q-26 65 -20 85T1 138Q8 156 19 179T43 229T69 281T95 328Q103 330 118 330Q134 330 142 328Q144 293 145 254T147 177T147 105T142 49ZM205 427Q205 394 183 372T127 349Q96 349 76 368T55 419Q55 452 77 474T132 496Q163 496 184 477T205 427Z"  />
<glyph unicode="&#xA2;" horiz-adv-x="515" d="M339 433Q339 434 336 435Q301 427 276 398T234 331T210 252T202 179Q202 141 211 108T247 55Q250 57 251 58L339 433H339ZM495 470Q493 457 490 438T485 397T480 357T476 324Q473 323 467 323Q461 323 458 323Q445 323 443 336L439 365Q436 387 425 402T396 426Q392 424 391 422L303 40Q303 36 307 34Q344 35 375 56T420 113L430 137Q432 143 437 144T450 143Q459 141 466 138Q461 124 456 105T445 67T434 29T426 -1Q424 -2 420 -2T414 -1Q405 -1 402 3T391 8Q386 8 379 5T362 -1Q345 -7 329 -10T294 -15Q290 -17 289 -19L270 -100Q267 -105 262 -106T242 -108Q216 -108 215 -100L233 -21Q233 -18 230 -16Q186 -12 151 4T91 48T53 111T40 191Q40 248 58 302T113 398T201 466T322 492Q329 492 335 492Q341 492 348 491Q352 493 353 495L373 580Q376 585 381 586T401 588Q427 588 428 580L406 485Q406 480 409 479Q420 476 434 471Q443 467 451 464T462 460Q470 460 471 465T483 470H495H495Z"  />
<glyph unicode="&#xA3;" horiz-adv-x="515" d="M530 684Q530 673 523 661T506 639T483 621T459 614Q440 614 431 627T413 657T395 686T364 699Q341 699 328 678T306 621T295 539T287 444Q288 441 294 437H424Q429 434 429 424Q429 413 426 399T416 382H288Q286 381 284 380T280 375Q272 308 238 253T143 152V151Q149 153 159 153T177 154Q202 154 229 143T281 117T330 92T372 80Q386 80 395 88T404 111Q404 123 396 132T377 151T359 171T350 196Q350 207 357 217T376 234T399 246T422 251Q436 251 446 245T463 228T473 204T476 177Q476 141 462 107T423 44T365 -1T295 -18Q264 -18 235 -4T179 27T130 58T90 72Q88 72 87 72T83 71Q76 57 67 43T46 17T21 -2T-9 -10Q-26 -10 -35 1T-45 28Q-45 48 -35 64T-9 93T25 115T60 131Q87 180 102 242T123 375Q122 378 116 382H34Q29 385 29 395Q29 406 32 420T42 437H123Q127 438 129 444Q135 498 153 554T203 655T285 729T406 758Q427 758 449 754T489 740T518 717T530 684Z"  />
<glyph unicode="&#xA4;" horiz-adv-x="500" d="M349 249Q349 273 340 294T315 330T278 355T232 364Q208 364 187 355T151 331T126 294T117 249Q117 225 126 204T150 167T187 142T232 132Q256 132 277 141T314 166T339 203T349 249ZM405 21L336 89Q291 58 232 58Q174 58 128 90L58 20L6 75L75 143Q60 166 51 193T42 249Q42 278 50 304T74 353L6 421L59 476L128 407Q151 422 177 430T232 439Q261 439 287 431T337 407L407 477L458 422L390 355Q423 308 423 249Q423 190 390 143L458 76L405 21Z"  />
<glyph unicode="&#xA5;" horiz-adv-x="515" d="M519 461Q519 444 504 441L488 437Q481 435 475 432T462 419T444 396T417 358L375 297Q375 294 379 290H466Q471 288 472 284T470 266Q464 239 454 235H337Q332 233 329 229Q325 224 323 216T319 201L311 165Q311 159 314 158H434Q439 156 440 152T439 134Q436 120 433 113T424 103H302Q298 102 294 96Q286 64 292 53T316 38L340 33Q351 31 351 18Q351 13 350 7T346 -3Q311 -2 274 -1T203 0Q170 0 128 -1T51 -3Q50 2 50 5Q50 8 50 13Q50 30 64 33L91 38Q108 41 117 52T134 96Q134 100 129 103H13Q8 105 7 109T9 127Q15 154 25 158H144Q147 159 151 165L159 198Q161 207 161 214T158 228Q158 231 152 235H43Q38 237 38 241Q38 246 41 259Q44 273 47 280T56 290H128Q130 291 134 297L111 359Q102 383 96 397T85 420T75 432T64 437L51 441Q40 443 40 456Q40 461 41 467T45 477Q78 476 107 475T169 474Q201 474 233 475T300 477Q301 472 301 469Q301 466 301 461Q301 451 298 447T286 441L274 437Q267 435 263 432T259 420Q259 412 262 398T272 359L295 277H296L351 362Q365 383 371 397T379 419T377 431T367 437L353 441Q346 443 344 445T341 456Q341 461 342 467T346 477Q378 476 399 475T436 474Q452 474 468 475T518 477Q519 472 519 469Q519 466 519 461Z"  />
<glyph unicode="&#xA6;" horiz-adv-x="250" d="M61 0V280H139V0H61ZM61 399V678H139V399H61Z"  />
<glyph unicode="&#xA7;" horiz-adv-x="466" d="M314 55Q314 93 302 128T272 196T232 261T192 327T161 395T149 470Q149 493 155 517H153Q125 491 109 452T93 374Q93 316 118 266T175 168T231 69T257 -38Q257 -51 255 -63T250 -88H252Q281 -62 297 -23T314 55ZM435 575Q435 565 432 553T422 531T407 514T385 507Q369 507 356 517T329 540T301 563T267 574Q235 574 219 550T202 496Q202 467 215 437T249 373T292 306T336 234T369 158T383 76Q383 17 357 -34T289 -124T192 -185T81 -208Q66 -208 44 -205T2 -195T-34 -176T-49 -144Q-49 -134 -45 -122T-34 -99T-17 -81T6 -74Q24 -74 38 -85T66 -109T95 -133T131 -144Q164 -144 182 -121T201 -67Q201 -38 188 -8T156 54T115 121T73 192T41 269T28 353Q28 410 52 461T116 552T208 614T317 637Q331 637 351 634T390 624T422 605T435 575Z"  />
<glyph unicode="&#xA8;" horiz-adv-x="500" d="M225 653Q225 622 205 599T152 575Q123 575 107 594T90 642Q90 673 109 696T161 720Q190 720 207 701T225 653ZM410 653Q410 622 390 599T338 575Q309 575 292 594T275 642Q275 673 295 696T347 720Q376 720 393 701T410 653Z"  />
<glyph unicode="&#xA9;" horiz-adv-x="765" d="M553 269Q550 243 546 216T540 165Q539 163 535 161Q507 150 473 145T403 139Q356 139 315 153T244 194T195 258T177 341Q177 390 195 427T244 490T315 527T401 540Q433 540 468 535T534 519Q538 517 539 515Q541 491 543 464T547 411Q544 410 540 409T532 407Q525 407 523 409T519 416Q509 461 485 478T422 495Q390 495 367 484T330 454T308 409T301 353Q301 311 311 280T340 227T382 195T435 184Q475 184 494 204T524 264Q526 273 540 271Q544 270 547 270Q550 270 553 269ZM681 339Q681 404 658 460T595 559T499 625T378 649Q312 649 258 625T165 560T105 462T84 340Q84 275 107 219T170 120T266 54T387 30Q453 30 507 54T600 119T660 217T681 339ZM739 339Q739 262 713 197T641 84T530 9T387 -18Q310 -18 245 9T130 84T54 197T26 340Q26 417 52 482T124 595T235 670T378 697Q454 697 520 670T634 594T711 481T739 339Z"  />
<glyph unicode="&#xAA;" horiz-adv-x="424" d="M275 475Q275 498 251 498Q228 498 208 477T172 426T149 369T140 325Q140 314 144 307T157 299Q167 299 181 312T211 344T240 385T260 425L270 450Q275 463 275 475ZM428 563Q423 552 417 535T404 500L338 321Q335 313 333 303T330 287Q330 282 331 279T337 275Q345 275 361 288T396 325Q401 323 408 319T415 307Q416 302 413 298T403 286Q390 272 375 258T342 231T306 212T265 204Q236 204 226 217T215 249Q215 265 221 284T234 321H233Q219 303 202 283T164 245T123 216T79 204Q47 204 32 223T16 271Q16 317 39 367T100 460T183 529T275 556Q289 556 304 552T328 537H329Q330 540 332 544T334 548Q339 558 345 561T366 565Q381 565 397 565T428 563Z"  />
<glyph unicode="&#xAB;" horiz-adv-x="473" d="M234 420Q225 405 212 384T183 340T152 295T123 256Q122 253 122 250Q122 248 121 246Q127 231 136 209T154 164T171 117T186 75Q183 66 174 61T157 57Q141 72 119 96T73 148T27 203T-10 251Q-12 255 -9 261Q12 281 40 306T99 356T158 403T208 441Q216 443 225 436T234 420ZM421 420Q412 405 399 384T370 340T339 295T310 256Q309 253 309 250Q309 248 308 246Q314 231 323 209T341 164T358 117T373 75Q370 66 361 61T344 57Q328 72 306 96T260 148T214 203T177 251Q175 255 178 261Q199 281 227 306T286 356T345 403T395 441Q403 443 412 436T421 420Z"  />
<glyph unicode="&#xAC;" horiz-adv-x="500" d="M384 -8V199H-8V276H458V-8H384Z"  />
<glyph unicode="&#xAE;" horiz-adv-x="765" d="M434 423Q434 463 415 478T372 493Q366 493 356 493T340 490Q338 486 336 474T334 435V359Q335 357 335 356T336 354H371Q397 354 415 370T434 423ZM615 161Q615 155 613 147Q603 148 579 149T537 150Q519 150 501 150Q483 150 463 148Q440 174 417 221T372 313Q371 314 371 315T368 317H336Q334 316 334 315T334 312V247Q334 210 336 197T353 181L378 177Q388 176 388 161Q388 155 386 147Q358 148 332 148T278 149Q251 149 226 149T172 147Q170 155 170 161Q170 176 180 177L204 181Q218 183 220 196T223 247V432Q223 469 221 483T204 499L180 503Q170 504 170 518Q170 525 172 533Q200 532 218 532T264 531Q279 531 301 531T347 532T389 533T418 534Q481 534 516 508T551 432Q551 397 531 374T482 339Q481 336 482 334Q493 311 509 284T542 231Q562 202 574 192T595 179L606 177Q615 176 615 161ZM681 339Q681 404 658 460T595 559T499 625T378 649Q312 649 258 625T165 560T105 462T84 340Q84 275 107 219T170 120T266 54T387 30Q453 30 507 54T600 119T660 217T681 339ZM739 339Q739 262 713 197T641 84T530 9T387 -18Q310 -18 245 9T130 84T54 197T26 340Q26 417 52 482T124 595T235 670T378 697Q454 697 520 670T634 594T711 481T739 339Z"  />
<glyph unicode="&#xAF;" horiz-adv-x="500" d="M375 667Q375 661 374 651T371 629T364 610T355 600H131Q125 604 125 622Q125 628 126 638T130 660T136 679T145 689H369Q375 685 375 667Z"  />
<glyph unicode="&#xB0;" horiz-adv-x="341" d="M260 505Q260 520 257 535T247 562T227 582T197 590Q174 590 158 578T131 548T116 509T111 468Q111 453 114 438T123 411T141 390T171 382Q194 382 211 394T239 424T255 463T260 505ZM316 513Q316 479 306 447T276 390T228 350T163 335Q136 335 116 345T82 372T61 412T54 460Q54 494 64 525T93 582T141 622T206 637Q233 637 253 627T288 600T309 561T316 513Z"  />
<glyph unicode="&#xB1;" horiz-adv-x="500" d="M-3 1V78H462V1H-3ZM266 257V116H193V257H-3V333H193V475H265V333H462V257H266Z"  />
<glyph unicode="&#xB2;" horiz-adv-x="341" d="M317 316Q314 307 311 293T303 263T295 233T289 211Q288 208 282 204Q251 209 210 207T134 205Q117 205 97 205Q77 205 57 205Q38 205 22 205T-1 204Q-2 207 -2 213Q-2 220 -2 227Q-2 235 -1 242T1 252Q30 275 62 301T120 359T164 425T181 500Q181 535 165 551T128 568Q109 568 95 559T67 538Q63 540 62 541T57 546Q49 554 63 571Q86 600 119 618T196 637Q215 637 235 631T270 611T296 579T306 533Q306 493 285 458T233 392T167 334T104 284V282H223Q252 282 263 287T284 309Q287 314 290 316T301 318Q304 318 308 318T317 316Z"  />
<glyph unicode="&#xB3;" horiz-adv-x="341" d="M312 551Q312 527 300 509T268 477T228 455T187 439V437Q209 441 230 437T267 421T293 391T303 347Q303 310 286 277T237 218T164 178T73 163Q25 163 -2 180T-30 218Q-30 233 -17 249T13 265Q23 265 30 256T46 236T66 215T96 206Q119 206 135 219T162 251T177 291T182 330Q182 363 167 378T124 393Q112 393 102 391T82 388Q70 388 67 403Q66 406 66 410Q66 414 66 417Q90 425 113 434T153 456T181 484T192 521Q192 547 177 558T145 569Q125 569 109 562T80 544Q76 547 71 552T66 561Q64 570 75 579Q101 604 134 620T207 637Q228 637 247 632T280 615T303 588T312 551Z"  />
<glyph unicode="&#xB4;" horiz-adv-x="500" d="M362 705Q362 692 353 681T336 661Q293 619 248 580T158 506Q151 505 145 509T138 522Q150 541 165 567T197 618T226 665T247 698Q260 718 271 734T304 751Q312 751 322 747T341 737T356 722T362 705Z"  />
<glyph unicode="&#xB5;" horiz-adv-x="631" d="M581 137Q594 128 589 118T575 97Q532 46 480 14T379 -18Q359 -18 346 -12T324 3T313 23T309 47Q309 67 316 92T331 135L348 181H347Q329 155 302 123T248 64Q210 25 173 4T96 -18Q87 -18 77 -15Q72 -17 68 -21Q62 -50 64 -73T72 -117T83 -157T88 -197Q87 -234 64 -256T3 -279Q-30 -279 -46 -261T-62 -217Q-62 -196 -56 -174T-44 -134Q-37 -113 -26 -80T-1 -8T26 68T51 138L108 294Q115 311 122 332T129 364Q129 381 118 381Q104 381 82 362T36 311Q33 313 28 316T20 322Q14 328 15 336T28 359Q44 379 65 399T112 436T164 463T219 474Q249 474 271 459T294 411Q294 386 283 353T260 291L227 198Q222 183 215 165T208 135Q208 128 211 123T222 118Q236 118 256 137T309 199Q338 236 362 275T401 357L420 411Q427 429 432 445T439 472Q458 474 476 472T510 468Q530 465 544 462T566 450T574 429T568 394L488 169Q480 148 473 126T465 92Q465 75 480 75Q494 75 517 94T567 145Q570 143 574 141T581 137Z"  />
<glyph unicode="&#xB6;" horiz-adv-x="667" d="M707 664Q707 652 704 635T692 616H608Q598 616 591 612T577 598T564 569T551 520L448 70Q429 -12 403 -76T343 -186T266 -254T172 -278Q144 -278 125 -273T93 -259T76 -240T70 -220Q70 -209 75 -196T89 -170T109 -150T132 -142Q144 -142 155 -151T176 -173T198 -194T225 -204Q272 -204 303 -128T360 89L369 138Q356 137 336 136T297 134Q247 134 203 149T125 193T73 264T53 363Q53 428 77 486T145 589T254 659T398 685Q420 685 448 684T505 682T565 679T623 678H702Q707 675 707 664Z"  />
<glyph unicode="&#xB7;" horiz-adv-x="250" d="M191 270Q191 229 165 200T96 170Q59 170 36 194T13 255Q13 296 39 325T108 354Q145 354 168 331T191 270Z"  />
<glyph unicode="&#xB8;" horiz-adv-x="500" d="M353 5Q344 -2 330 -13T306 -36Q296 -49 296 -58T303 -83Q310 -100 318 -120T327 -162Q327 -186 315 -205T283 -239T240 -262T195 -270Q144 -270 144 -241Q144 -230 150 -218T169 -205Q182 -205 193 -215T220 -226Q231 -226 238 -219T245 -202Q245 -188 235 -169T216 -131Q208 -115 208 -102T218 -72Q227 -59 242 -45T274 -18T307 6T337 26L353 5H353Z"  />
<glyph unicode="&#xB9;" horiz-adv-x="338" d="M302 635Q299 626 296 614T290 590T283 567T279 550L219 301Q214 280 213 267T212 248T217 239T227 236L254 234Q264 233 264 221Q264 211 259 203Q234 204 201 204T145 205Q134 205 117 205Q100 205 82 205T47 204T16 203Q15 208 15 218Q15 233 28 234L64 236Q70 236 74 238T83 247T91 267T100 301L154 530Q156 540 153 543T136 542L69 519Q65 521 63 526T59 537Q57 543 57 548T64 555L191 603Q215 612 242 624T289 637Q294 637 295 637Q297 637 302 635Z"  />
<glyph unicode="&#xBA;" horiz-adv-x="380" d="M264 471Q264 486 259 499T236 513Q222 513 209 500T184 466T163 419T146 368T135 322T131 288Q131 273 136 260T159 247Q173 247 186 260T211 294T232 340T249 391T260 437T264 471ZM374 423Q374 382 358 343T314 272T249 223T169 204Q138 204 111 212T64 236T32 277T20 336Q20 377 36 416T80 487T145 537T225 556Q256 556 283 548T330 524T362 482T374 423Z"  />
<glyph unicode="&#xBB;" horiz-adv-x="473" d="M246 247Q248 243 245 238Q224 218 196 193T137 143T79 95T29 57Q21 55 12 62T3 79Q12 94 25 115T54 159T85 204T114 243Q115 246 115 248Q115 250 116 252Q110 267 101 289T83 335T66 382T51 424Q54 433 62 438T79 441Q95 426 117 402T163 350T209 295T246 247ZM434 247Q436 243 433 238Q412 218 383 193T324 143T266 95T216 57Q208 55 199 62T190 79Q199 94 212 115T241 159T272 204T301 243Q302 246 302 248Q302 250 303 252Q297 267 288 289T270 335T253 382T238 424Q241 433 250 438T267 441Q283 426 305 402T351 350T397 295T434 247Z"  />
<glyph unicode="&#xBC;" horiz-adv-x="812" d="M618 293L494 153V151H583L587 155L620 293H618ZM302 635Q299 626 296 614T290 590T283 567T279 550L219 301Q214 280 213 267T212 248T217 239T227 236L254 234Q264 233 264 221Q264 211 259 203Q234 204 201 204T145 205Q134 205 117 205Q100 205 82 205T47 204T16 203Q15 208 15 218Q15 233 28 234L64 236Q70 236 74 238T83 247T91 267T100 301L154 530Q156 540 153 543T136 542L69 519Q65 521 63 526T59 537Q57 543 57 548T64 555L191 603Q215 612 242 624T289 637Q294 637 295 637Q297 637 302 635ZM169 -28Q159 -24 147 -13T129 6L665 647Q675 643 687 633T706 614L169 -28ZM769 427Q763 407 759 388T749 346L706 155Q706 154 707 153T709 151H751Q756 148 754 138T750 122Q748 116 746 103T738 87H693Q689 87 689 83L662 -31Q660 -33 654 -34T638 -37T619 -38T602 -39Q595 -39 586 -39T567 -37T552 -34T544 -30L570 82Q570 84 567 87H480Q460 87 445 87T407 84Q408 95 412 113T420 139Q428 146 448 167T493 214L613 348Q636 373 652 392T681 427Q685 428 697 428T724 429Q739 429 752 429T769 427Z"  />
<glyph unicode="&#xBD;" horiz-adv-x="874" d="M302 635Q299 626 296 614T290 590T283 567T279 550L219 301Q214 280 213 267T212 248T217 239T227 236L254 234Q264 233 264 221Q264 211 259 203Q234 204 201 204T145 205Q134 205 117 205Q100 205 82 205T47 204T16 203Q15 208 15 218Q15 233 28 234L64 236Q70 236 74 238T83 247T91 267T100 301L154 530Q156 540 153 543T136 542L69 519Q65 521 63 526T59 537Q57 543 57 548T64 555L191 603Q215 612 242 624T289 637Q294 637 295 637Q297 637 302 635ZM169 -28Q159 -24 147 -13T129 6L665 647Q675 643 687 633T706 614L169 -28ZM800 110Q797 101 794 87T786 57T778 28T772 6Q771 3 765 -1Q734 4 693 2T617 0Q600 0 580 0Q560 0 540 0Q521 0 505 0T482 -1Q481 2 481 8Q481 15 481 22Q481 30 482 37T484 47Q513 70 545 96T603 154T647 220T664 295Q664 330 648 346T611 362Q592 362 578 354T550 333Q546 335 545 336T540 341Q532 349 546 366Q569 395 602 413T679 432Q698 432 718 426T753 406T779 373T789 327Q789 287 768 252T716 186T650 129T587 79V77H706Q735 77 746 82T767 104Q770 109 773 111T784 113Q787 113 791 112T800 110Z"  />
<glyph unicode="&#xBE;" horiz-adv-x="831" d="M636 293L512 153V151H601L605 155L639 293H636ZM312 551Q312 527 300 509T268 477T228 455T187 439V437Q209 441 230 437T267 421T293 391T303 347Q303 310 286 277T237 218T164 178T73 163Q25 163 -2 180T-30 218Q-30 233 -17 249T13 265Q23 265 30 256T46 236T66 215T96 206Q119 206 135 219T162 251T177 291T182 330Q182 363 167 378T124 393Q112 393 102 391T82 388Q70 388 67 403Q66 406 66 410Q66 414 66 417Q90 425 113 434T153 456T181 484T192 521Q192 547 177 558T145 569Q125 569 109 562T80 544Q76 547 71 552T66 561Q64 570 75 579Q101 604 134 620T207 637Q228 637 247 632T280 615T303 588T312 551ZM187 -28Q177 -24 165 -13T147 6L684 647Q694 643 706 633T724 614L187 -28ZM787 427Q781 407 777 388T767 346L724 155Q724 154 725 153T727 151H769Q774 148 772 138T768 122Q766 116 764 103T756 87H711Q707 87 707 83L680 -31Q678 -33 672 -34T656 -37T637 -38T620 -39Q613 -39 604 -39T585 -37T570 -34T562 -30L588 82Q588 84 585 87H498Q478 87 463 87T425 84Q426 95 430 113T438 139Q446 146 466 167T511 214L631 348Q654 373 671 392T700 427Q704 428 716 428T743 429Q757 429 770 429T787 427Z"  />
<glyph unicode="&#xBF;" horiz-adv-x="300" d="M215 214Q215 185 205 167T178 136T144 116T109 103T83 90T72 73Q72 66 77 61T93 55Q103 55 112 59T129 69T145 79T164 84Q182 84 190 65T199 21Q199 16 198 10T191 -1T176 -9T151 -13Q119 -13 88 -3T32 25T-8 70T-23 130Q-23 161 -12 180T17 211T55 229T92 242T121 255T133 275Q133 284 126 289T108 295Q97 295 90 292T73 289Q49 289 49 319Q49 335 56 345T79 356Q100 356 124 345T168 314T202 269T215 214ZM248 427Q248 394 226 372T170 349Q139 349 119 368T98 419Q98 452 120 474T175 496Q206 496 227 477T248 427Z"  />
<glyph unicode="&#xC0;" horiz-adv-x="714" d="M355 538H353L218 296Q218 292 223 289H380Q384 292 387 296L355 538ZM652 18Q652 13 651 7T647 -3Q612 -2 570 -1T494 0Q461 0 419 -1T341 -3Q340 2 340 5Q340 8 340 13Q340 30 354 33L387 38Q397 40 403 44T412 60T414 90T408 142L396 227Q395 231 389 233H189Q185 232 180 227L132 143Q116 114 110 95T104 64T113 46T133 38L163 33Q174 31 174 18Q174 13 173 7T170 -3Q135 -2 108 -1T48 0Q31 0 19 0T-5 -1T-30 -2T-61 -3Q-62 2 -62 5Q-62 8 -62 13Q-62 23 -59 27T-47 33L-31 37Q-22 40 -15 46T2 64T22 95T51 143L368 685Q371 688 389 689T428 690Q450 690 468 689T488 685L572 142Q577 109 582 90T592 59T604 44T621 37L640 33Q647 31 649 29T652 18ZM454 726Q455 719 451 713T440 705Q401 719 359 739T285 774Q269 782 259 792T246 817Q245 826 248 837T259 857T275 873T294 881Q308 883 318 875T342 854Q365 831 396 795T454 726Z"  />
<glyph unicode="&#xC1;" horiz-adv-x="714" d="M355 538H353L218 296Q218 292 223 289H380Q384 292 387 296L355 538ZM652 18Q652 13 651 7T647 -3Q612 -2 570 -1T494 0Q461 0 419 -1T341 -3Q340 2 340 5Q340 8 340 13Q340 30 354 33L387 38Q397 40 403 44T412 60T414 90T408 142L396 227Q395 231 389 233H189Q185 232 180 227L132 143Q116 114 110 95T104 64T113 46T133 38L163 33Q174 31 174 18Q174 13 173 7T170 -3Q135 -2 108 -1T48 0Q31 0 19 0T-5 -1T-30 -2T-61 -3Q-62 2 -62 5Q-62 8 -62 13Q-62 23 -59 27T-47 33L-31 37Q-22 40 -15 46T2 64T22 95T51 143L368 685Q371 688 389 689T428 690Q450 690 468 689T488 685L572 142Q577 109 582 90T592 59T604 44T621 37L640 33Q647 31 649 29T652 18ZM644 825Q643 808 631 800T605 784Q557 760 513 742T419 705Q413 707 409 713T406 727Q440 760 471 788T537 848Q548 858 563 870T595 882Q604 882 613 877T629 863T640 844T644 825Z"  />
<glyph unicode="&#xC2;" horiz-adv-x="714" d="M355 538H353L218 296Q218 292 223 289H380Q384 292 387 296L355 538ZM652 18Q652 13 651 7T647 -3Q612 -2 570 -1T494 0Q461 0 419 -1T341 -3Q340 2 340 5Q340 8 340 13Q340 30 354 33L387 38Q397 40 403 44T412 60T414 90T408 142L396 227Q395 231 389 233H189Q185 232 180 227L132 143Q116 114 110 95T104 64T113 46T133 38L163 33Q174 31 174 18Q174 13 173 7T170 -3Q135 -2 108 -1T48 0Q31 0 19 0T-5 -1T-30 -2T-61 -3Q-62 2 -62 5Q-62 8 -62 13Q-62 23 -59 27T-47 33L-31 37Q-22 40 -15 46T2 64T22 95T51 143L368 685Q371 688 389 689T428 690Q450 690 468 689T488 685L572 142Q577 109 582 90T592 59T604 44T621 37L640 33Q647 31 649 29T652 18ZM598 726Q599 719 595 713T584 705Q566 714 547 724T508 745T470 766T439 784Q436 786 433 786T427 784Q393 764 351 743T272 705Q266 707 262 713T258 727Q291 759 321 787T387 847Q401 859 414 870T443 882Q455 882 464 874T485 853Q496 841 510 826T540 795T570 760T598 726Z"  />
<glyph unicode="&#xC3;" horiz-adv-x="714" d="M363 538H361L226 296Q226 292 231 289H388Q392 292 395 296L363 538ZM651 18Q651 13 650 7T646 -3Q611 -2 573 -1T502 0Q469 0 426 -1T348 -3Q347 2 347 5Q347 8 347 13Q347 30 362 33L394 38Q404 39 410 43T419 59T420 90T415 142L404 227Q403 231 397 233H196Q192 232 187 227L152 164Q139 141 130 120T119 81T121 52T144 37L171 33Q182 32 182 18Q182 13 181 7T177 -3Q142 -2 114 -1T52 0Q35 0 22 0T-3 -1T-29 -2T-61 -3Q-62 2 -62 5Q-62 8 -62 13Q-62 30 -47 33L-28 37Q-19 39 -10 45T8 63T30 95T59 143L376 685Q379 688 397 689T436 690Q458 690 476 689T496 685L580 142Q585 109 590 90T601 59T613 44T627 37L639 33Q646 31 648 29T651 18ZM608 837Q608 815 599 795T573 759T537 734T494 724Q469 724 445 734T401 756T364 779T336 789Q316 789 316 769Q316 761 320 754T325 739Q325 728 313 722T291 716Q277 716 273 726T268 748Q268 770 277 790T303 826T340 851T383 861Q408 861 431 851T475 828T512 806T540 795Q549 795 555 801T561 816Q561 824 556 831T551 846Q551 857 563 862T585 868Q599 868 603 858T608 837Z"  />
<glyph unicode="&#xC4;" horiz-adv-x="714" d="M363 538H361L226 296Q226 292 231 289H388Q392 292 395 296L363 538ZM651 18Q651 13 650 7T646 -3Q611 -2 573 -1T502 0Q469 0 426 -1T348 -3Q347 2 347 5Q347 8 347 13Q347 30 362 33L394 38Q404 39 410 43T419 59T420 90T415 142L404 227Q403 231 397 233H196Q192 232 187 227L152 164Q139 141 130 120T119 81T121 52T144 37L171 33Q182 32 182 18Q182 13 181 7T177 -3Q142 -2 114 -1T52 0Q35 0 22 0T-3 -1T-29 -2T-61 -3Q-62 2 -62 5Q-62 8 -62 13Q-62 30 -47 33L-28 37Q-19 39 -10 45T8 63T30 95T59 143L376 685Q379 688 397 689T436 690Q458 690 476 689T496 685L580 142Q585 109 590 90T601 59T613 44T627 37L639 33Q646 31 648 29T651 18ZM418 801Q418 770 398 747T345 723Q316 723 300 742T283 790Q283 821 302 844T354 868Q383 868 400 849T418 801ZM603 801Q603 770 583 747T531 723Q502 723 485 742T468 790Q468 821 488 844T540 868Q569 868 586 849T603 801Z"  />
<glyph unicode="&#xC5;" horiz-adv-x="714" d="M363 538H361L226 296Q226 292 231 289H388Q392 292 395 296L363 538ZM651 18Q651 13 650 7T646 -3Q611 -2 573 -1T502 0Q469 0 426 -1T348 -3Q347 2 347 5Q347 8 347 13Q347 30 362 33L394 38Q404 39 410 43T419 59T420 90T415 142L404 227Q403 231 397 233H196Q192 232 187 227L152 164Q139 141 130 120T119 81T121 52T144 37L171 33Q182 32 182 18Q182 13 181 7T177 -3Q142 -2 114 -1T52 0Q35 0 22 0T-3 -1T-29 -2T-61 -3Q-62 2 -62 5Q-62 8 -62 13Q-62 30 -47 33L-28 37Q-19 39 -10 45T8 63T30 95T59 143L376 685Q379 688 397 689T436 690Q458 690 476 689T496 685L580 142Q585 109 590 90T601 59T613 44T627 37L639 33Q646 31 648 29T651 18ZM494 852Q494 869 487 887T460 905Q444 905 434 894T417 866T407 832T404 802Q404 785 411 768T439 750Q455 750 465 761T482 789T491 822T494 852ZM562 845Q562 818 553 795T526 754T485 728T434 718Q393 718 365 742T336 808Q336 835 345 859T372 900T413 927T464 937Q505 937 533 912T562 845Z"  />
<glyph unicode="&#xC6;" horiz-adv-x="969" d="M519 628L310 352Q311 350 311 349T314 345H450Q454 348 457 352L522 628H519ZM931 672Q929 663 927 642T922 597T917 550T913 512Q908 511 903 511Q898 511 893 511Q877 511 875 527L870 565Q868 577 864 587T849 605T818 617T765 622H692Q687 613 681 592T664 529L624 362Q624 358 628 354H691Q719 354 736 356T764 362T779 372T787 389L796 416Q800 427 814 427Q819 427 826 426T835 423Q832 413 829 400T822 373T816 347T811 326Q807 309 801 280T791 225Q787 223 780 223Q774 223 769 223Q756 223 756 236L758 258Q758 265 757 272T747 285T723 293T678 297H615Q611 294 608 290L582 176Q574 140 571 117T570 81T583 62T611 57H696Q728 57 750 60T789 71T817 94T840 130L860 168Q863 174 868 177T882 177Q887 175 892 173T901 169Q896 155 890 132T877 83T865 37T857 5Q854 0 849 -2Q842 0 805 0Q768 0 705 0H469Q452 0 431 0T388 -1T343 -2T304 -3Q303 2 303 5Q303 8 303 13Q303 30 317 33L351 38Q361 39 368 43T381 57T393 87T407 138L442 286Q442 290 438 294H272Q265 292 262 289L152 143Q114 91 110 67T134 38L171 33Q182 32 182 18Q182 13 181 7T177 -3Q142 -2 113 -1T50 0Q33 0 20 0T-6 -1T-33 -2T-64 -3Q-65 2 -65 5Q-65 8 -65 13Q-65 23 -62 27T-50 33L-39 36Q-31 38 -23 45T-3 64T24 96T61 142L370 533Q391 560 400 579T408 611T399 631T378 640L347 645Q340 647 338 649T335 660Q335 665 336 671T340 681Q375 680 401 679T461 678H789Q850 678 882 678Q915 678 924 680Q930 676 931 672Z"  />
<glyph unicode="&#xC7;" horiz-adv-x="689" d="M664 665Q661 647 657 622T650 571T643 519T638 475Q633 474 628 474H619Q602 474 600 490L595 531Q591 559 577 578T544 610T501 629T457 635Q411 635 375 617T310 569T261 501T228 420T208 337T202 260Q202 215 211 175T241 106T295 59T376 42Q444 42 489 70T562 156L578 189Q585 204 603 198Q608 196 611 194T620 190Q614 171 607 147T592 97T578 48T567 7Q565 6 561 6H556Q550 6 546 8T539 12T533 17T524 19Q516 19 506 15T481 6Q443 -5 406 -11Q388 -14 370 -16Q359 -26 351 -36Q341 -49 341 -58T348 -83Q355 -100 363 -120T372 -162Q372 -186 360 -205T328 -239T285 -262T240 -270Q189 -270 189 -241Q189 -230 195 -218T214 -205Q227 -205 238 -215T265 -226Q276 -226 283 -219T290 -202Q290 -188 280 -169T261 -131Q253 -115 253 -102T263 -72Q272 -59 287 -45T319 -18Q259 -16 207 2Q151 23 111 61T47 154T24 275Q24 357 52 433T133 567T262 661T437 696Q474 696 502 691T562 675Q569 672 579 668T598 661T614 654T623 651Q628 651 630 653T636 658T642 663T653 666Q655 666 658 666T664 665Z"  />
<glyph unicode="&#xC8;" horiz-adv-x="619" d="M581 672Q579 663 577 642T572 597T567 550T563 512Q558 511 553 511Q548 511 543 511Q526 511 524 527L519 565Q517 577 514 587T499 605T468 617T415 622H342Q337 613 331 592T314 529L280 385Q280 381 284 377H346Q374 377 391 379T418 385T433 396T442 412L451 436Q453 443 457 444T469 446Q474 446 480 446T490 443Q487 433 484 420T477 392T471 366T466 345Q462 328 456 299T446 244Q442 242 436 242T424 243Q410 243 411 256L414 282Q415 289 414 296T404 309T380 317T334 321H271Q267 318 264 314L232 176Q224 140 221 117T220 81T233 62T261 57H346Q378 57 400 60T439 71T467 94T490 130L510 168Q516 182 532 177Q537 175 542 173T551 169Q546 155 540 132T527 83T515 37T507 5Q504 0 499 -2Q492 0 455 0Q419 0 356 0H119Q102 0 81 0T38 -1T-7 -2T-46 -3Q-47 2 -47 5Q-47 8 -47 13Q-47 30 -32 33L1 38Q11 39 18 43T31 57T43 87T57 138L151 540Q158 572 161 591T162 620T154 634T137 640L106 645Q95 647 95 660Q95 665 96 671T100 681Q135 680 178 679T254 678H440Q501 678 533 678Q565 678 574 680Q580 676 581 672ZM419 726Q420 719 416 713T405 705Q366 719 324 739T250 774Q234 782 224 792T211 817Q210 826 213 837T223 857T239 873T258 881Q272 883 283 875T307 854Q330 831 361 795T419 726Z"  />
<glyph unicode="&#xC9;" horiz-adv-x="619" d="M581 672Q579 663 577 642T572 597T567 550T563 512Q558 511 560 511Q563 511 558 511Q549 511 546 515T539 527L519 565Q514 575 510 585T495 604T467 617T415 622H342Q337 613 331 592T314 529L280 385Q280 381 284 377H346Q374 377 391 379T418 385T433 396T442 412L451 436Q453 443 457 444T469 446Q474 446 480 446T490 443Q487 433 484 420T477 392T471 366T466 345Q462 328 456 299T446 244Q442 242 436 242T424 243Q410 243 411 256L414 282Q415 289 414 296T404 309T380 317T334 321H271Q267 318 264 314L232 176Q224 140 221 117T220 81T233 62T261 57H346Q378 57 400 60T439 71T467 94T490 130L510 168Q516 182 532 177Q537 175 542 173T551 169Q546 155 540 132T527 83T515 37T507 5Q504 0 499 -2Q492 0 455 0Q419 0 356 0H119Q102 0 81 0T38 -1T-7 -2T-46 -3Q-47 2 -47 5Q-47 8 -47 13Q-47 30 -32 33L1 38Q11 39 18 43T31 57T43 87T57 138L151 540Q158 572 161 591T162 620T154 634T137 640L106 645Q95 647 95 660Q95 665 96 671T100 681Q135 680 178 679T254 678H440Q501 678 533 678Q565 678 574 680Q580 676 581 672ZM590 825Q589 808 577 800T551 784Q503 760 459 742T365 705Q359 707 355 713T352 727Q386 760 417 788T483 848Q494 858 509 870T541 882Q550 882 559 877T575 863T586 844T590 825Z"  />
<glyph unicode="&#xCA;" horiz-adv-x="619" d="M581 672Q579 663 577 642T572 597T567 550T563 512Q558 511 553 511Q548 511 543 511Q526 511 524 527L519 565Q517 577 514 587T499 605T468 617T415 622H342Q337 613 331 592T314 529L280 385Q280 381 284 377H346Q374 377 391 379T418 385T433 396T442 412L451 436Q453 443 457 444T469 446Q474 446 480 446T490 443Q487 433 484 420T477 392T471 366T466 345Q462 328 456 299T446 244Q442 242 436 242T424 243Q410 243 411 256L414 282Q415 289 414 296T404 309T380 317T334 321H271Q267 318 264 314L232 176Q224 140 221 117T220 81T233 62T261 57H346Q378 57 400 60T439 71T467 94T490 130L510 168Q516 182 532 177Q537 175 542 173T551 169Q546 155 540 132T527 83T515 37T507 5Q504 0 499 -2Q492 0 455 0Q419 0 356 0H119Q102 0 81 0T38 -1T-7 -2T-46 -3Q-47 2 -47 5Q-47 8 -47 13Q-47 30 -32 33L1 38Q11 39 18 43T31 57T43 87T57 138L151 540Q158 572 161 591T162 620T154 634T137 640L106 645Q95 647 95 660Q95 665 96 671T100 681Q135 680 178 679T254 678H440Q501 678 533 678Q565 678 574 680Q580 676 581 672ZM548 726Q549 719 545 713T534 705Q516 714 497 724T458 745T421 766T390 784Q387 786 384 786T378 784Q344 764 302 743T222 705Q216 707 212 713T209 727Q242 759 272 787T337 847Q351 859 364 870T393 882Q405 882 414 874T436 853Q447 841 461 826T490 795T520 760T548 726Z"  />
<glyph unicode="&#xCB;" horiz-adv-x="619" d="M581 672Q579 663 577 642T572 597T567 550T563 512Q558 511 553 511Q548 511 543 511Q526 511 524 527L520 565Q518 577 515 587T500 605T469 617T415 622H342Q337 613 331 592T314 529L280 385Q280 381 284 377H347Q375 377 392 379T419 385T434 395T443 412L451 436Q453 443 457 444T469 446Q474 446 480 446T490 443Q487 433 484 420T477 392T471 366T466 345Q462 328 456 299T446 244Q442 242 436 242T424 243Q410 243 411 256L414 282Q415 289 414 296T404 309T380 317T334 321H271Q267 318 264 314L232 176Q224 140 221 117T220 81T233 62T261 57H346Q378 57 400 60T439 71T467 94T490 130L510 168Q517 183 532 177Q537 175 542 173T551 169Q546 155 540 132T527 83T515 37T507 5Q504 0 499 -2Q492 0 455 0Q419 0 356 0H119Q102 0 81 0T38 -1T-7 -2T-46 -3Q-47 2 -47 5Q-47 8 -47 13Q-47 30 -32 33L2 38Q12 39 19 43T32 57T44 87T58 138L151 540Q158 572 161 591T162 620T154 634T137 640L107 645Q100 647 98 649T95 660Q95 665 96 671T100 681Q135 680 178 679T254 678H440Q501 678 533 678Q565 678 574 680Q580 676 581 672ZM349 801Q349 770 329 747T276 723Q247 723 231 742T214 790Q214 821 233 844T285 868Q314 868 331 849T349 801ZM534 801Q534 770 514 747T462 723Q433 723 416 742T399 790Q399 821 419 844T471 868Q500 868 517 849T534 801Z"  />
<glyph unicode="&#xCC;" horiz-adv-x="374" d="M422 665Q422 648 407 645L373 640Q363 638 356 634T343 620T331 590T317 540L224 138Q216 106 214 87T213 58T221 43T238 38L268 33Q275 31 277 29T280 18Q280 13 279 7T275 -3Q240 -2 197 -1T120 0Q103 0 82 0T39 -1T-5 -2T-45 -3Q-46 2 -46 5Q-46 8 -46 13Q-46 30 -32 33L2 38Q12 39 19 43T32 57T44 87T58 138L151 540Q158 572 161 591T162 620T154 634T137 640L107 645Q96 647 96 660Q96 665 97 671T100 681Q117 681 137 681T179 680T219 679T256 678Q272 678 293 678T337 679T381 680T421 681Q422 676 422 673Q422 670 422 665ZM306 726Q307 719 303 713T292 705Q253 719 211 739T137 774Q121 782 111 792T98 817Q97 826 100 837T110 857T126 873T145 881Q159 883 170 875T194 854Q217 831 248 795T306 726Z"  />
<glyph unicode="&#xCD;" horiz-adv-x="374" d="M422 665Q422 648 407 645L373 640Q363 638 356 634T343 620T331 590T317 540L224 138Q216 106 214 87T213 58T221 43T238 38L268 33Q275 31 277 29T280 18Q280 13 279 7T275 -3Q240 -2 197 -1T120 0Q103 0 82 0T39 -1T-5 -2T-45 -3Q-46 2 -46 5Q-46 8 -46 13Q-46 30 -32 33L2 38Q12 39 19 43T32 57T44 87T58 138L151 540Q158 572 161 591T162 620T154 634T137 640L107 645Q96 647 96 660Q96 665 97 671T100 681Q117 681 137 681T179 680T219 679T256 678Q272 678 293 678T337 679T381 680T421 681Q422 676 422 673Q422 670 422 665ZM486 825Q485 808 473 800T447 784Q399 760 355 742T261 705Q255 707 251 713T248 727Q282 760 313 788T379 848Q390 858 405 870T437 882Q446 882 455 877T471 863T482 844T486 825Z"  />
<glyph unicode="&#xCE;" horiz-adv-x="374" d="M422 665Q422 648 407 645L373 640Q363 638 356 634T343 620T331 590T317 540L224 138Q216 106 214 87T213 58T221 43T238 38L268 33Q275 31 277 29T280 18Q280 13 279 7T275 -3Q240 -2 197 -1T120 0Q103 0 82 0T39 -1T-5 -2T-45 -3Q-46 2 -46 5Q-46 8 -46 13Q-46 30 -32 33L2 38Q12 39 19 43T32 57T44 87T58 138L151 540Q158 572 161 591T162 620T154 634T137 640L107 645Q96 647 96 660Q96 665 97 671T100 681Q117 681 137 681T179 680T219 679T256 678Q272 678 293 678T337 679T381 680T421 681Q422 676 422 673Q422 670 422 665ZM436 726Q437 719 433 713T422 705Q404 714 385 724T346 745T308 766T277 784Q271 787 266 784Q232 764 190 743T110 705Q104 707 100 713T96 727Q129 759 159 787T225 847Q239 859 252 870T281 882Q293 882 302 874T324 853Q335 841 349 826T378 795T408 760T436 726Z"  />
<glyph unicode="&#xCF;" horiz-adv-x="374" d="M421 665Q421 648 407 645L373 640Q363 638 356 634T343 620T331 590T317 540L224 138Q216 106 214 87T213 58T221 43T238 38L268 33Q279 31 279 18Q279 13 278 7T274 -3Q239 -2 196 -1T119 0Q102 0 81 0T38 -1T-6 -2T-46 -3Q-47 2 -47 5Q-47 8 -47 13Q-47 30 -32 33L2 38Q12 39 19 43T32 57T44 87T58 138L151 540Q158 572 161 591T162 620T154 634T137 640L107 645Q100 647 98 649T95 660Q95 665 96 671T100 681Q135 680 178 679T255 678Q271 678 292 678T336 679T380 680T420 681Q421 676 421 673Q421 670 421 665ZM266 834Q266 803 246 780T193 756Q164 756 148 775T131 823Q131 854 150 877T202 901Q231 901 248 882T266 834ZM451 834Q451 803 431 780T379 756Q350 756 333 775T316 823Q316 854 336 877T388 901Q417 901 434 882T451 834Z"  />
<glyph unicode="&#xD0;" horiz-adv-x="776" d="M567 403Q567 448 557 489T525 560T471 609T396 628Q382 628 366 626T341 622Q335 610 330 590T318 545L281 387Q283 383 285 382H439Q438 368 435 351T428 322H273Q269 321 266 316L230 162Q222 130 220 110T219 79T230 63T255 58H292Q358 58 407 86T493 166Q528 216 547 278T567 403ZM748 393Q748 360 741 324T719 251T682 178T628 111Q577 60 500 30T332 0H116Q99 0 79 0T36 -1T-7 -2T-45 -3Q-46 2 -46 5Q-46 8 -46 13Q-46 30 -32 33L2 38Q12 39 19 43T32 57T44 87T58 138L100 316Q99 318 99 319Q99 321 97 322H30Q31 336 34 352T42 382H108Q113 384 116 388L151 540Q158 571 161 590T162 619T154 634T137 640L107 645Q96 647 96 660Q96 665 97 671T100 681Q135 680 173 679T245 678Q263 678 288 679T341 681T396 684T444 685Q508 685 563 666T660 610T724 519T748 393Z"  />
<glyph unicode="&#xD1;" horiz-adv-x="759" d="M799 665Q799 648 785 645L751 640Q742 638 735 632T720 607T703 556T682 468L600 98Q598 93 601 87Q615 58 626 47T645 34L652 33Q663 31 663 18Q663 13 662 7T658 -3Q643 -2 622 -1T586 0Q572 0 554 0Q537 0 520 0T488 -1T465 -3Q459 -1 456 2Q448 22 435 49T402 115L217 486H215L160 235Q147 176 143 139T140 79T151 48T174 38L218 33Q230 32 230 18Q230 13 229 7T225 -3Q190 -2 154 -1T84 0Q51 0 26 -1T-34 -3Q-35 2 -35 5Q-35 8 -35 13Q-35 30 -21 33L13 38Q22 39 29 46T44 71T61 122T82 210L160 563Q161 566 161 570Q161 575 159 577Q141 611 125 622T86 640L65 645Q54 647 54 660Q54 665 55 671T59 681Q66 681 80 681T110 680T139 679T161 678Q167 678 186 678Q206 678 228 678T271 679T299 681Q305 679 308 676Q316 656 329 627T359 563L546 190H548L604 443Q617 502 621 539T624 599T612 629T590 640L546 645Q535 646 535 660Q535 665 536 671T539 681Q574 680 608 679T675 678Q708 678 735 679T798 681Q799 676 799 673Q799 670 799 665ZM634 854Q634 832 625 812T599 776T563 751T520 741Q495 741 471 751T427 773T390 796T362 806Q342 806 342 786Q342 778 346 771T351 756Q351 745 339 739T317 733Q303 733 299 743T294 765Q294 787 303 807T329 843T366 868T409 878Q434 878 457 868T501 845T538 823T566 812Q575 812 581 818T587 833Q587 841 582 848T577 863Q577 874 589 879T611 885Q625 885 629 875T634 854Z"  />
<glyph unicode="&#xD2;" horiz-adv-x="767" d="M565 422Q565 458 559 497T537 568T493 622T422 643Q382 643 350 624T294 572T252 499T223 415T207 331T202 257Q202 221 208 182T230 110T273 56T344 35Q384 35 416 54T472 106T514 179T543 263T560 347T565 422ZM742 396Q742 307 711 232T625 101T495 14T333 -18Q268 -18 212 3T114 64T48 159T24 282Q24 371 55 446T141 577T271 664T433 696Q498 696 554 675T652 614T718 519T742 396ZM463 726Q464 719 460 713T449 705Q410 719 368 739T294 774Q278 782 268 792T255 817Q254 826 257 837T267 857T283 873T302 881Q316 883 327 875T351 854Q374 831 405 795T463 726Z"  />
<glyph unicode="&#xD3;" horiz-adv-x="767" d="M565 422Q565 458 559 497T537 568T493 622T422 643Q382 643 350 624T294 572T252 499T223 415T207 331T202 257Q202 221 208 182T230 110T273 56T344 35Q384 35 416 54T472 106T514 179T543 263T560 347T565 422ZM742 396Q742 307 711 232T625 101T495 14T333 -18Q268 -18 212 3T114 64T48 159T24 282Q24 371 55 446T141 577T271 664T433 696Q498 696 554 675T652 614T718 519T742 396ZM633 825Q632 808 620 800T594 784Q546 760 502 742T408 705Q402 707 398 713T394 727Q428 760 459 788T525 848Q536 858 551 870T584 882Q593 882 602 877T618 863T629 844T633 825Z"  />
<glyph unicode="&#xD4;" horiz-adv-x="767" d="M565 422Q565 458 559 497T537 568T493 622T422 643Q382 643 350 624T294 572T252 499T223 415T207 331T202 257Q202 221 208 182T230 110T273 56T344 35Q384 35 416 54T472 106T514 179T543 263T560 347T565 422ZM742 396Q742 307 711 232T625 101T495 14T333 -18Q268 -18 212 3T114 64T48 159T24 282Q24 371 55 446T141 577T271 664T433 696Q498 696 554 675T652 614T718 519T742 396ZM595 726Q596 719 592 713T582 705Q564 714 545 724T506 745T468 766T437 784Q434 786 431 786T425 784Q391 764 349 743T269 705Q263 707 259 713T256 727Q289 759 319 787T385 847Q399 859 412 870T440 882Q452 882 461 874T483 853Q494 841 508 826T537 795T567 760T595 726Z"  />
<glyph unicode="&#xD5;" horiz-adv-x="767" d="M567 429Q567 463 561 501T539 570T496 622T426 643Q385 643 353 623T295 570T252 494T223 409T206 323T200 249Q200 214 206 177T227 108T270 56T341 35Q382 35 414 55T472 108T515 184T544 269T561 355T567 429ZM743 396Q743 307 712 232T626 101T496 14T334 -18Q269 -18 213 3T114 64T48 159T24 282Q24 371 55 446T141 577T271 664T433 696Q498 696 554 675T653 614T719 519T743 396ZM631 837Q631 815 622 795T596 759T560 734T517 724Q492 724 468 734T424 756T387 779T359 789Q339 789 339 769Q339 761 343 754T348 739Q348 728 336 722T314 716Q300 716 296 726T291 748Q291 770 300 790T326 826T363 851T406 861Q431 861 454 851T498 828T535 806T563 795Q572 795 578 801T584 816Q584 824 579 831T574 846Q574 857 586 862T608 868Q622 868 626 858T631 837Z"  />
<glyph unicode="&#xD6;" horiz-adv-x="767" d="M567 429Q567 463 561 501T539 570T496 622T426 643Q385 643 353 623T295 570T252 494T223 409T206 323T200 249Q200 214 206 177T227 108T270 56T341 35Q382 35 414 55T472 108T515 184T544 269T561 355T567 429ZM743 396Q743 307 712 232T626 101T496 14T334 -18Q269 -18 213 3T114 64T48 159T24 282Q24 371 55 446T141 577T271 664T433 696Q498 696 554 675T653 614T719 519T743 396ZM429 801Q429 770 409 747T356 723Q327 723 311 742T294 790Q294 821 313 844T365 868Q394 868 411 849T429 801ZM614 801Q614 770 594 747T542 723Q513 723 496 742T479 790Q479 821 499 844T551 868Q580 868 597 849T614 801Z"  />
<glyph unicode="&#xD7;" horiz-adv-x="500" d="M402 9L229 182L55 8L3 63L177 235L3 408L56 464L229 291L404 464L455 410L281 236L455 63L402 9Z"  />
<glyph unicode="&#xD8;" horiz-adv-x="767" d="M570 420Q570 432 569 444T564 468Q563 472 559 468L224 141Q222 137 223 134Q236 92 264 64T345 35Q384 35 416 54T474 106T517 179T547 263T564 347T570 420ZM551 534Q553 538 552 540Q547 560 537 578T511 611T476 634T429 643Q389 643 357 624T300 572T257 498T227 415T210 332T204 260Q204 246 206 232T210 205Q212 204 212 203Q212 203 214 204L551 534H551ZM685 591Q684 588 684 584Q713 547 729 500T746 396Q746 307 715 232T629 101T499 14T337 -18Q280 -18 230 -2T139 46Q137 47 136 47T132 48L54 -30Q50 -29 45 -24T34 -13T24 0T18 11L92 85Q93 89 92 92Q62 130 45 177T28 282Q28 371 59 446T145 577T275 664T437 696Q496 696 547 678T640 628Q643 627 647 628L722 704Q726 703 731 698T742 687T752 674T758 664L685 591Z"  />
<glyph unicode="&#xD9;" horiz-adv-x="693" d="M752 665Q752 648 737 645L704 640Q694 638 687 632T673 607T657 555T635 466L575 207Q550 100 482 41T293 -18Q241 -18 197 -5T121 33T70 91T52 166Q52 190 56 215T66 264L131 540Q138 572 141 591T142 620T134 634T117 640L87 645Q80 647 78 649T75 660Q75 665 76 671T80 681Q115 680 158 679T235 678Q251 678 272 678T316 679T360 680T400 681Q401 676 401 673Q401 670 401 665Q401 648 387 645L353 640Q343 638 336 634T323 620T311 590T297 540L225 234Q217 200 217 167Q217 144 224 124T245 87T282 62T333 53Q372 53 400 67T447 106T479 161T499 225L546 428Q560 490 566 530T572 593T562 627T537 640L500 645Q489 646 489 660Q489 665 490 671T493 681Q510 681 525 681T555 680T588 679T628 678Q661 678 688 679T751 681Q752 676 752 673Q752 670 752 665ZM469 726Q470 719 466 713T456 705Q417 719 375 739T301 774Q285 782 274 792T261 817Q260 826 263 837T274 857T290 873T309 881Q323 883 333 875T357 854Q380 831 411 795T469 726Z"  />
<glyph unicode="&#xDA;" horiz-adv-x="693" d="M752 665Q752 648 737 645L704 640Q694 638 687 632T673 607T657 555T635 466L575 207Q550 100 482 41T293 -18Q241 -18 197 -5T121 33T70 91T52 166Q52 190 56 215T66 264L131 540Q138 572 141 591T142 620T134 634T117 640L87 645Q80 647 78 649T75 660Q75 665 76 671T80 681Q115 680 158 679T235 678Q251 678 272 678T316 679T360 680T400 681Q401 676 401 673Q401 670 401 665Q401 648 387 645L353 640Q343 638 336 634T323 620T311 590T297 540L225 234Q217 200 217 167Q217 144 224 124T245 87T282 62T333 53Q372 53 400 67T447 106T479 161T499 225L546 428Q560 490 566 530T572 593T562 627T537 640L500 645Q489 646 489 660Q489 665 490 671T493 681Q510 681 525 681T555 680T588 679T628 678Q661 678 688 679T751 681Q752 676 752 673Q752 670 752 665ZM672 825Q671 808 659 800T633 784Q585 760 541 742T447 705Q441 707 437 713T434 727Q468 760 498 788T564 848Q575 858 590 870T623 882Q632 882 641 877T657 863T668 844T672 825Z"  />
<glyph unicode="&#xDB;" horiz-adv-x="693" d="M752 665Q752 648 737 645L704 640Q694 638 687 632T673 607T657 555T635 466L575 207Q550 100 482 41T293 -18Q241 -18 197 -5T121 33T70 91T52 166Q52 190 56 215T66 264L131 540Q138 572 141 591T142 620T134 634T117 640L87 645Q80 647 78 649T75 660Q75 665 76 671T80 681Q115 680 158 679T235 678Q251 678 272 678T316 679T360 680T400 681Q401 676 401 673Q401 670 401 665Q401 648 387 645L353 640Q343 638 336 634T323 620T311 590T297 540L225 234Q217 200 217 167Q217 144 224 124T245 87T282 62T333 53Q372 53 400 67T447 106T479 161T499 225L546 428Q560 490 566 530T572 593T562 627T537 640L500 645Q489 646 489 660Q489 665 490 671T493 681Q510 681 525 681T555 680T588 679T628 678Q661 678 688 679T751 681Q752 676 752 673Q752 670 752 665ZM613 726Q614 719 610 713T600 705Q582 714 563 724T524 745T486 766T455 784Q452 786 449 786T443 784Q409 764 367 743T287 705Q281 707 277 713T274 727Q307 759 337 787T403 847Q417 859 430 870T458 882Q470 882 479 874T501 853Q512 841 526 826T555 795T585 760T613 726Z"  />
<glyph unicode="&#xDC;" horiz-adv-x="693" d="M752 665Q752 648 737 645L704 640Q694 638 687 632T673 607T657 555T635 466L575 207Q550 100 482 41T293 -18Q241 -18 197 -5T121 33T70 91T52 166Q52 190 56 215T66 264L131 540Q138 572 141 591T142 620T134 634T117 640L87 645Q80 647 78 649T75 660Q75 665 76 671T80 681Q115 680 158 679T235 678Q251 678 272 678T316 679T360 680T400 681Q401 676 401 673Q401 670 401 665Q401 648 387 645L353 640Q343 638 336 634T323 620T311 590T297 540L225 234Q217 200 217 167Q217 144 224 124T245 87T282 62T333 53Q372 53 400 67T447 106T479 161T499 225L546 428Q560 490 566 530T572 593T562 627T537 640L500 645Q489 646 489 660Q489 665 490 671T493 681Q510 681 525 681T555 680T588 679T628 678Q661 678 688 679T751 681Q752 676 752 673Q752 670 752 665ZM445 801Q445 770 425 747T372 723Q343 723 327 742T310 790Q310 821 329 844T381 868Q410 868 427 849T445 801ZM630 801Q630 770 610 747T558 723Q529 723 512 742T495 790Q495 821 515 844T567 868Q596 868 613 849T630 801Z"  />
<glyph unicode="&#xDD;" horiz-adv-x="637" d="M705 665Q705 655 702 651T690 645L674 641Q665 639 656 634T635 617T606 585T566 534L424 341Q414 327 409 313T400 282L366 138Q358 106 356 87T355 58T363 43T380 38L410 33Q417 31 419 29T422 18Q422 13 421 7T417 -3Q382 -2 339 -1T262 0Q245 0 224 0T181 -1T136 -2T97 -3Q96 2 96 5Q96 8 96 13Q96 30 111 33L145 38Q155 39 162 43T175 57T187 87T201 138L234 277Q238 294 236 307T229 333L154 536Q142 568 133 587T115 618T99 634T83 641L68 645Q61 647 59 649T57 660Q57 665 58 671T61 681Q96 680 138 679T214 678Q247 678 289 679T367 681Q368 676 368 672Q368 669 368 664Q368 654 365 651T353 645L326 640Q316 638 311 634T306 618Q306 607 311 588T327 536L379 384H381L488 542Q518 587 524 611T504 640L477 645Q470 647 468 649T465 660Q465 665 467 671T471 681Q506 680 531 679T590 678Q606 678 619 678T646 679T673 680T704 681Q705 676 705 673Q705 670 705 665ZM636 825Q635 808 623 800T597 784Q549 760 505 742T411 705Q405 707 401 713T397 727Q431 760 461 788T528 848Q539 858 554 870T587 882Q596 882 605 877T621 863T632 844T636 825Z"  />
<glyph unicode="&#xDE;" horiz-adv-x="619" d="M607 429Q607 371 584 327T522 253T432 208T324 193Q295 193 284 198T274 216Q274 223 277 232T284 247Q289 246 295 246T306 245Q342 245 366 265T405 314T426 377T433 436Q433 488 413 518T352 548Q344 548 337 548T324 546Q320 543 317 539L224 138Q216 106 215 88T215 59T225 44T242 39L288 33Q299 32 299 18Q299 13 298 7T294 -3Q277 -3 254 -3T206 -2T159 -1T120 0Q103 0 82 0T38 -1T-7 -2T-46 -3Q-47 2 -47 5Q-47 8 -47 13Q-47 30 -32 33L2 38Q12 39 19 43T32 57T44 87T58 138L151 540Q158 572 161 591T162 620T154 634T137 640L107 645Q100 647 98 649T95 660Q95 665 96 671T100 681Q135 680 177 679T253 678Q269 678 290 678T334 679T379 680T418 681Q419 676 419 673Q419 670 419 665Q419 648 405 645L372 640Q352 637 345 630T332 604Q333 601 337 597Q352 599 369 599T404 600Q444 600 481 590T546 558T590 505T607 429Z"  />
<glyph unicode="&#xDF;" horiz-adv-x="872" d="M416 480Q413 465 411 447T406 409T402 371T399 340Q395 339 391 339Q387 339 383 339Q375 339 372 343T368 353L363 380Q360 396 351 408T328 427T300 438T270 442Q249 442 236 437T216 423T206 405T203 388Q203 359 221 339T266 299Q283 285 301 271T333 240T357 200T366 150Q366 115 351 84T308 31T240 -5T151 -18Q127 -18 103 -15T55 -6Q39 -1 33 0T24 1Q16 1 13 -4T-2 -9H-10Q-7 8 -4 28T2 71T7 113T10 151Q14 152 18 152T26 151Q34 151 37 148T41 138L45 114Q53 69 81 52T151 35Q188 35 205 51T222 90Q222 106 215 120T197 146T172 169T142 193Q127 205 113 218T88 248T70 283T63 327Q63 363 77 393T118 445T182 479T263 492Q288 492 308 490T348 481Q367 476 373 474T382 471Q390 471 393 476T408 481Q410 481 412 481T416 480ZM852 480Q849 465 847 447T842 409T838 371T835 340Q831 339 827 339Q823 339 819 339Q811 339 808 343T804 353L799 380Q796 396 787 408T764 427T736 438T706 442Q685 442 672 437T652 423T642 405T639 388Q639 359 657 339T702 299Q719 285 737 271T769 240T793 200T802 150Q802 115 787 84T744 31T676 -5T587 -18Q563 -18 539 -15T491 -6Q475 -1 469 0T460 1Q452 1 449 -4T434 -9H426Q429 8 432 28T438 71T443 113T446 151Q450 152 454 152T462 151Q470 151 473 148T477 138L481 114Q489 69 517 52T587 35Q624 35 641 51T658 90Q658 106 651 120T633 146T608 169T578 193Q563 205 549 218T524 248T506 283T499 327Q499 363 513 393T554 445T618 479T699 492Q724 492 744 490T784 481Q803 476 809 474T818 471Q826 471 829 476T844 481Q846 481 848 481T852 480Z"  />
<glyph unicode="&#xE0;" horiz-adv-x="585" d="M270 373H268L177 211Q177 207 180 206H289Q292 208 294 211L270 373ZM524 17Q524 12 523 7T519 -3Q486 -2 447 -1T376 0Q344 0 313 -1T247 -3Q246 2 246 4Q246 7 246 12Q246 30 261 32L291 36Q299 37 304 40T310 54T311 82T305 132L302 152Q301 154 297 156H151Q146 154 144 152L137 140Q108 91 109 66T132 36L151 32Q158 30 159 27T161 17Q161 12 160 7T156 -3Q132 -2 101 -1T49 0Q26 0 -1 -1T-49 -3Q-50 2 -50 4Q-50 7 -50 12Q-50 29 -35 32L-16 36Q-7 38 0 43T17 60T38 92T69 142L271 486Q272 487 281 488T305 490Q319 490 334 490T364 491T387 489T398 486L458 132Q463 101 467 83T477 55T487 42T500 36L514 32Q521 30 522 27T524 17ZM357 518Q355 511 348 508T334 506Q305 540 275 581T219 657Q212 666 207 678T201 701Q201 711 207 720T222 736T242 747T263 751Q283 751 291 737T307 701Q320 661 333 612T357 518Z"  />
<glyph unicode="&#xE1;" horiz-adv-x="585" d="M270 373H268L177 211Q177 207 180 206H289Q292 208 294 211L270 373ZM524 17Q524 12 523 7T519 -3Q486 -2 447 -1T376 0Q344 0 313 -1T247 -3Q246 2 246 4Q246 7 246 12Q246 30 261 32L291 36Q299 37 304 40T310 54T311 82T305 132L302 152Q301 154 297 156H151Q146 154 144 152L137 140Q108 91 109 66T132 36L151 32Q158 30 159 27T161 17Q161 12 160 7T156 -3Q132 -2 101 -1T49 0Q26 0 -1 -1T-49 -3Q-50 2 -50 4Q-50 7 -50 12Q-50 29 -35 32L-16 36Q-7 38 0 43T17 60T38 92T69 142L271 486Q272 487 281 488T305 490Q319 490 334 490T364 491T387 489T398 486L458 132Q463 101 467 83T477 55T487 42T500 36L514 32Q521 30 522 27T524 17ZM537 705Q537 692 528 681T511 661Q468 619 423 580T333 506Q326 505 320 509T313 522Q325 541 340 567T372 618T401 665T422 698Q435 718 446 734T479 751Q487 751 497 747T516 737T531 722T537 705Z"  />
<glyph unicode="&#xE2;" horiz-adv-x="585" d="M270 373H268L177 211Q177 207 180 206H289Q292 208 294 211L270 373ZM524 17Q524 12 523 7T519 -3Q486 -2 447 -1T376 0Q344 0 313 -1T247 -3Q246 2 246 4Q246 7 246 12Q246 30 261 32L291 36Q299 37 304 40T310 54T311 82T305 132L302 152Q301 154 297 156H151Q146 154 144 152L137 140Q108 91 109 66T132 36L151 32Q158 30 159 27T161 17Q161 12 160 7T156 -3Q132 -2 101 -1T49 0Q26 0 -1 -1T-49 -3Q-50 2 -50 4Q-50 7 -50 12Q-50 29 -35 32L-16 36Q-7 38 0 43T17 60T38 92T69 142L271 486Q272 487 281 488T305 490Q319 490 334 490T364 491T387 489T398 486L458 132Q463 101 467 83T477 55T487 42T500 36L514 32Q521 30 522 27T524 17ZM472 519Q470 512 463 509T449 506Q430 533 407 568T367 630Q362 632 357 630Q325 601 288 567T216 506Q209 505 203 510T196 522Q223 567 252 611T312 699Q326 719 339 734T376 750Q395 750 406 736T427 691Q439 652 450 607T472 519Z"  />
<glyph unicode="&#xE3;" horiz-adv-x="585" d="M270 373H268L177 211Q177 207 180 206H289Q292 208 294 211L270 373ZM524 17Q524 12 523 7T519 -3Q486 -2 447 -1T376 0Q344 0 313 -1T247 -3Q246 2 246 4Q246 7 246 12Q246 30 261 32L291 36Q299 37 304 40T310 54T311 82T305 132L302 152Q301 154 297 156H151Q146 154 144 152L137 140Q108 91 109 66T132 36L151 32Q158 30 159 27T161 17Q161 12 160 7T156 -3Q132 -2 101 -1T49 0Q26 0 -1 -1T-49 -3Q-50 2 -50 4Q-50 7 -50 12Q-50 29 -35 32L-16 36Q-7 38 0 43T17 60T38 92T69 142L271 486Q272 487 281 488T305 490Q319 490 334 490T364 491T387 489T398 486L458 132Q463 101 467 83T477 55T487 42T500 36L514 32Q521 30 522 27T524 17ZM509 688Q509 666 500 646T474 610T438 585T395 575Q370 575 346 585T302 607T265 630T237 640Q217 640 217 620Q217 612 221 605T226 590Q226 579 214 573T192 567Q178 567 174 577T169 599Q169 621 178 641T204 677T241 702T284 712Q309 712 332 702T376 679T413 657T441 646Q450 646 456 652T462 667Q462 675 457 682T452 697Q452 708 464 713T486 719Q500 719 504 709T509 688Z"  />
<glyph unicode="&#xE4;" horiz-adv-x="585" d="M270 373H268L177 211Q177 207 180 206H289Q292 208 294 211L270 373ZM524 17Q524 12 523 7T519 -3Q486 -2 447 -1T376 0Q344 0 313 -1T247 -3Q246 2 246 4Q246 7 246 12Q246 30 261 32L291 36Q299 37 304 40T310 54T311 82T305 132L302 152Q301 154 297 156H151Q146 154 144 152L137 140Q108 91 109 66T132 36L151 32Q158 30 159 27T161 17Q161 12 160 7T156 -3Q132 -2 101 -1T49 0Q26 0 -1 -1T-49 -3Q-50 2 -50 4Q-50 7 -50 12Q-50 29 -35 32L-16 36Q-7 38 0 43T17 60T38 92T69 142L271 486Q272 487 281 488T305 490Q319 490 334 490T364 491T387 489T398 486L458 132Q463 101 467 83T477 55T487 42T500 36L514 32Q521 30 522 27T524 17ZM321 653Q321 622 301 599T248 575Q219 575 203 594T186 642Q186 673 205 696T257 720Q286 720 303 701T321 653ZM506 653Q506 622 486 599T434 575Q405 575 388 594T371 642Q371 673 391 696T443 720Q472 720 489 701T506 653Z"  />
<glyph unicode="&#xE5;" horiz-adv-x="585" d="M270 373H268L177 211Q177 207 180 206H289Q292 208 294 211L270 373ZM524 17Q524 12 523 7T519 -3Q486 -2 447 -1T376 0Q344 0 313 -1T247 -3Q246 2 246 4Q246 7 246 12Q246 30 261 32L291 36Q299 37 304 40T310 54T311 82T305 132L302 152Q301 154 297 156H151Q146 154 144 152L137 140Q108 91 109 66T132 36L151 32Q158 30 159 27T161 17Q161 12 160 7T156 -3Q132 -2 101 -1T49 0Q26 0 -1 -1T-49 -3Q-50 2 -50 4Q-50 7 -50 12Q-50 29 -35 32L-16 36Q-7 38 0 43T17 60T38 92T69 142L271 486Q272 487 281 488T305 490Q319 490 334 490T364 491T387 489T398 486L458 132Q463 101 467 83T477 55T487 42T500 36L514 32Q521 30 522 27T524 17ZM394 657Q394 674 387 692T360 710Q344 710 334 699T317 671T307 637T304 607Q304 590 311 573T339 555Q355 555 365 566T382 594T391 627T394 657ZM462 650Q462 623 453 600T426 559T385 533T334 523Q293 523 265 547T236 613Q236 640 245 664T272 705T313 732T364 742Q405 742 433 717T462 650Z"  />
<glyph unicode="&#xE6;" horiz-adv-x="748" d="M373 433L233 251Q235 247 236 246H327Q330 248 332 251L374 433H373ZM710 470Q709 464 707 447T703 411T699 373T696 344Q692 343 687 343T677 344Q664 344 662 357L659 385Q658 392 656 399T647 412T627 422T589 426H531Q528 420 523 405T511 360L488 259Q488 255 490 253H535Q554 253 566 254T586 259T596 266T602 278L608 296Q611 305 623 305Q628 305 634 304T643 302Q641 296 638 286T633 264T628 243T624 227Q622 215 617 192T610 152Q607 151 600 151Q594 151 589 151Q579 151 579 161L580 179Q580 184 579 189T573 197T556 203T524 206H479Q476 204 474 201L459 135Q448 85 450 67T479 48H542Q563 48 577 50T602 59T621 76T639 103L653 128Q659 139 672 134Q675 132 680 131T689 128Q686 118 681 100T671 63T661 26T655 3Q654 0 650 -1Q645 0 620 0Q595 0 550 0H358Q342 0 322 0T282 -1T241 -2T204 -3Q203 2 203 4Q203 7 203 12Q203 30 218 32L250 36Q259 37 266 41T280 55T291 83T304 132L318 195Q318 198 315 201H201Q196 201 193 198L149 140Q111 89 103 66T124 36L143 32Q150 30 151 27T153 17Q153 12 152 7T148 -3Q124 -2 96 -1T46 0Q23 0 -3 -1T-49 -3Q-50 2 -50 4Q-50 7 -50 12Q-50 21 -47 25T-35 32L-24 35Q-18 37 -11 42T6 59T32 90T72 141L247 361Q278 399 275 416T249 438L230 442Q223 444 222 447T220 457Q220 462 221 467T225 477Q249 476 282 475T336 474H612Q655 474 677 474Q700 474 706 475Q709 474 710 470Z"  />
<glyph unicode="&#xE7;" horiz-adv-x="539" d="M499 470Q497 458 494 438T489 396T484 354T480 320Q476 319 470 319H461Q447 319 445 332L441 371Q439 387 430 399T406 421T375 434T342 439Q295 439 264 411T212 343T184 259T175 180Q175 150 180 124T198 77T232 46T286 34Q329 34 364 50T419 110L434 142Q440 154 457 148Q461 146 464 145T471 142Q466 127 461 108T449 69T438 31T429 -1Q427 -2 425 -2T420 -1Q410 -1 407 3T397 8Q392 8 387 6T371 0Q342 -8 308 -13Q302 -14 297 -14Q285 -25 276 -36Q266 -49 266 -58T273 -83Q280 -100 288 -120T297 -162Q297 -186 285 -205T253 -239T210 -262T165 -270Q114 -270 114 -241Q114 -230 120 -218T139 -205Q152 -205 163 -215T190 -226Q201 -226 208 -219T215 -202Q215 -188 205 -169T186 -131Q178 -115 178 -102T188 -72Q197 -59 212 -45T244 -18Q191 -18 149 -3Q106 12 75 40T28 106T11 193Q11 251 30 305T89 401T186 467T322 492Q342 492 366 489T419 477Q437 472 451 466T468 460Q475 460 477 465T490 471Q492 471 494 471T499 470Z"  />
<glyph unicode="&#xE8;" horiz-adv-x="493" d="M455 470Q454 464 452 447T448 411T444 373T441 344Q437 343 432 343T422 344Q409 344 407 357L404 385Q403 392 401 399T392 412T372 422T334 426H276Q273 420 268 405T256 360L236 273Q236 269 238 267H283Q302 267 314 268T334 273T344 280T350 292L355 307Q358 316 370 316Q375 316 381 315T390 313Q388 307 385 297T380 277T375 257T372 241Q370 229 365 206T358 166Q355 165 348 165Q342 165 337 165Q327 165 327 175L328 193Q328 198 327 203T321 211T304 217T272 220H228Q225 218 223 215L204 135Q192 85 195 67T224 48H287Q308 48 322 50T347 59T366 76T384 103L398 128Q404 139 417 134Q420 132 425 131T434 128Q431 118 426 100T416 63T406 26T400 3Q399 0 395 -1Q390 0 365 0Q340 0 295 0H103Q87 0 67 0T27 -1T-14 -2T-51 -3Q-52 2 -52 4Q-52 7 -52 12Q-52 30 -37 32L-5 36Q4 37 11 41T24 55T36 83T49 132L98 342Q105 372 107 390T108 419T100 432T84 438L55 442Q48 443 47 446T45 457Q45 462 46 467T50 477Q83 476 124 475T198 474H357Q400 474 422 474Q445 474 451 475Q454 474 455 470ZM302 518Q300 511 293 508T279 506Q250 540 220 581T164 657Q157 666 152 678T146 701Q146 711 152 720T167 736T187 747T208 751Q228 751 236 737T252 701Q265 661 278 612T302 518Z"  />
<glyph unicode="&#xE9;" horiz-adv-x="493" d="M455 470Q454 464 452 447T448 411T444 373T441 344Q437 343 432 343T422 344Q409 344 407 357L404 385Q403 392 401 399T392 412T372 422T334 426H276Q273 420 268 405T256 360L236 273Q236 269 238 267H283Q302 267 314 268T334 273T344 280T350 292L355 307Q358 316 370 316Q375 316 381 315T390 313Q388 307 385 297T380 277T375 257T372 241Q370 229 365 206T358 166Q355 165 348 165Q342 165 337 165Q327 165 327 175L328 193Q328 198 327 203T321 211T304 217T272 220H228Q225 218 223 215L204 135Q192 85 195 67T224 48H287Q308 48 322 50T347 59T366 76T384 103L398 128Q404 139 417 134Q420 132 425 131T434 128Q431 118 426 100T416 63T406 26T400 3Q399 0 395 -1Q390 0 365 0Q340 0 295 0H103Q87 0 67 0T27 -1T-14 -2T-51 -3Q-52 2 -52 4Q-52 7 -52 12Q-52 30 -37 32L-5 36Q4 37 11 41T24 55T36 83T49 132L98 342Q105 372 107 390T108 419T100 432T84 438L55 442Q48 443 47 446T45 457Q45 462 46 467T50 477Q83 476 124 475T198 474H357Q400 474 422 474Q445 474 451 475Q454 474 455 470ZM463 705Q463 692 454 681T437 661Q394 619 349 580T259 506Q252 505 246 509T239 522Q251 541 266 567T298 618T327 665T348 698Q361 718 372 734T405 751Q413 751 423 747T442 737T457 722T463 705Z"  />
<glyph unicode="&#xEA;" horiz-adv-x="493" d="M455 470Q454 464 452 447T448 411T444 373T441 344Q437 343 432 343T422 344Q409 344 407 357L404 385Q403 392 401 399T392 412T372 422T334 426H276Q273 420 268 405T256 360L236 273Q236 269 238 267H283Q302 267 314 268T334 273T344 280T350 292L355 307Q358 316 370 316Q375 316 381 315T390 313Q388 307 385 297T380 277T375 257T372 241Q370 229 365 206T358 166Q355 165 348 165Q342 165 337 165Q327 165 327 175L328 193Q328 198 327 203T321 211T304 217T272 220H228Q225 218 223 215L204 135Q192 85 195 67T224 48H287Q308 48 322 50T347 59T366 76T384 103L398 128Q404 139 417 134Q420 132 425 131T434 128Q431 118 426 100T416 63T406 26T400 3Q399 0 395 -1Q390 0 365 0Q340 0 295 0H103Q87 0 67 0T27 -1T-14 -2T-51 -3Q-52 2 -52 4Q-52 7 -52 12Q-52 30 -37 32L-5 36Q4 37 11 41T24 55T36 83T49 132L98 342Q105 372 107 390T108 419T100 432T84 438L55 442Q48 443 47 446T45 457Q45 462 46 467T50 477Q83 476 124 475T198 474H357Q400 474 422 474Q445 474 451 475Q454 474 455 470ZM404 519Q402 512 395 509T381 506Q362 533 339 568T299 630Q294 632 289 630Q257 601 220 567T148 506Q141 505 135 510T128 522Q155 567 184 611T244 699Q258 719 271 734T308 750Q327 750 338 736T359 691Q371 652 382 607T404 519Z"  />
<glyph unicode="&#xEB;" horiz-adv-x="493" d="M455 470Q454 464 452 447T448 411T444 373T441 344Q437 343 432 343T422 344Q409 344 407 357L404 385Q403 392 401 399T392 412T372 422T334 426H276Q273 420 268 405T256 360L236 273Q236 269 238 267H283Q302 267 314 268T334 273T344 280T350 292L355 307Q358 316 370 316Q375 316 381 315T390 313Q388 307 385 297T380 277T375 257T372 241Q370 229 365 206T358 166Q355 165 348 165Q342 165 337 165Q327 165 327 175L328 193Q328 198 327 203T321 211T304 217T272 220H228Q225 218 223 215L204 135Q192 85 195 67T224 48H287Q308 48 322 50T347 59T366 76T384 103L398 128Q404 139 417 134Q420 132 425 131T434 128Q431 118 426 100T416 63T406 26T400 3Q399 0 395 -1Q390 0 365 0Q340 0 295 0H103Q87 0 67 0T27 -1T-14 -2T-51 -3Q-52 2 -52 4Q-52 7 -52 12Q-52 30 -37 32L-5 36Q4 37 11 41T24 55T36 83T49 132L98 342Q105 372 107 390T108 419T100 432T84 438L55 442Q48 443 47 446T45 457Q45 462 46 467T50 477Q83 476 124 475T198 474H357Q400 474 422 474Q445 474 451 475Q454 474 455 470ZM260 653Q260 622 240 599T187 575Q158 575 142 594T125 642Q125 673 144 696T196 720Q225 720 242 701T260 653ZM445 653Q445 622 425 599T373 575Q344 575 327 594T310 642Q310 673 330 696T382 720Q411 720 428 701T445 653Z"  />
<glyph unicode="&#xEC;" horiz-adv-x="347" d="M355 462Q355 443 340 442L308 438Q299 437 292 433T279 419T267 391T254 342L205 132Q198 102 196 84T195 55T203 41T219 36L248 32Q255 31 256 28T258 17Q258 12 257 7T253 -3Q220 -2 179 -1T105 0Q89 0 69 0T29 -1T-12 -2T-49 -3Q-50 2 -50 4Q-50 7 -50 12Q-50 30 -35 32L-3 36Q6 37 13 41T26 55T38 83T51 132L100 342Q107 372 109 390T110 419T102 432T86 438L57 442Q50 443 49 446T47 457Q47 462 48 467T52 477Q85 476 126 475T200 474Q216 474 236 474T276 475T317 476T354 477Q355 472 355 469Q355 467 355 462ZM224 518Q222 511 215 508T201 506Q172 540 142 581T86 657Q79 666 74 678T68 701Q68 711 74 720T89 736T109 747T130 751Q150 751 158 737T174 701Q187 661 200 612T224 518Z"  />
<glyph unicode="&#xED;" horiz-adv-x="347" d="M355 462Q355 443 340 442L308 438Q299 437 292 433T279 419T267 391T254 342L205 132Q198 102 196 84T195 55T203 41T219 36L248 32Q255 31 256 28T258 17Q258 12 257 7T253 -3Q220 -2 179 -1T105 0Q89 0 69 0T29 -1T-12 -2T-49 -3Q-50 2 -50 4Q-50 7 -50 12Q-50 30 -35 32L-3 36Q6 37 13 41T26 55T38 83T51 132L100 342Q107 372 109 390T110 419T102 432T86 438L57 442Q50 443 49 446T47 457Q47 462 48 467T52 477Q85 476 126 475T200 474Q216 474 236 474T276 475T317 476T354 477Q355 472 355 469Q355 467 355 462ZM412 705Q412 692 403 681T386 661Q343 619 298 580T208 506Q201 505 195 509T188 522Q200 541 215 567T247 618T276 665T297 698Q310 718 321 734T354 751Q362 751 372 747T391 737T406 722T412 705Z"  />
<glyph unicode="&#xEE;" horiz-adv-x="347" d="M355 462Q355 443 340 442L308 438Q299 437 292 433T279 419T267 391T254 342L205 132Q198 102 196 84T195 55T203 41T219 36L248 32Q255 31 256 28T258 17Q258 12 257 7T253 -3Q220 -2 179 -1T105 0Q89 0 69 0T29 -1T-12 -2T-49 -3Q-50 2 -50 4Q-50 7 -50 12Q-50 30 -35 32L-3 36Q6 37 13 41T26 55T38 83T51 132L100 342Q107 372 109 390T110 419T102 432T86 438L57 442Q50 443 49 446T47 457Q47 462 48 467T52 477Q85 476 126 475T200 474Q216 474 236 474T276 475T317 476T354 477Q355 472 355 469Q355 467 355 462ZM348 519Q346 512 339 509T325 506Q306 533 283 568T243 630Q238 632 233 630Q201 601 164 567T92 506Q85 505 79 510T72 522Q99 567 128 611T188 699Q202 719 215 734T252 750Q271 750 282 736T303 691Q315 652 326 607T348 519Z"  />
<glyph unicode="&#xEF;" horiz-adv-x="347" d="M355 462Q355 443 340 442L308 438Q299 437 292 433T279 419T267 391T254 342L205 132Q198 102 196 84T195 55T203 41T219 36L248 32Q255 31 256 28T258 17Q258 12 257 7T253 -3Q220 -2 179 -1T105 0Q89 0 69 0T29 -1T-12 -2T-49 -3Q-50 2 -50 4Q-50 7 -50 12Q-50 30 -35 32L-3 36Q6 37 13 41T26 55T38 83T51 132L100 342Q107 372 109 390T110 419T102 432T86 438L57 442Q50 443 49 446T47 457Q47 462 48 467T52 477Q85 476 126 475T200 474Q216 474 236 474T276 475T317 476T354 477Q355 472 355 469Q355 467 355 462ZM204 653Q204 622 184 599T131 575Q102 575 86 594T69 642Q69 673 88 696T140 720Q169 720 186 701T204 653ZM389 653Q389 622 369 599T317 575Q288 575 271 594T254 642Q254 673 274 696T326 720Q355 720 372 701T389 653Z"  />
<glyph unicode="&#xF0;" horiz-adv-x="609" d="M414 285Q414 309 410 334T394 381T364 416T314 430Q302 430 290 429T271 426Q267 418 264 405T256 375L234 278Q234 277 237 274H337Q336 263 334 250T328 226H226Q224 225 224 224T221 221L198 119Q188 77 191 64T215 50H241Q283 50 315 70T370 126Q392 161 403 202T414 285ZM585 275Q585 229 565 176T501 78Q464 42 410 21T292 0H100Q84 0 64 0T24 -1T-17 -2T-54 -3Q-55 2 -55 4Q-55 7 -55 12Q-55 30 -40 32L-8 36Q1 37 8 41T21 55T33 83T46 132L67 222Q67 224 65 226H21Q22 237 24 250T31 274H75Q77 275 80 278L95 342Q102 372 104 390T105 419T97 432T81 438L52 442Q45 443 44 446T42 457Q42 462 43 467T47 477Q80 476 112 475T177 474Q189 474 215 475T272 476T329 478T372 479Q417 479 455 466T523 427T568 363T585 275Z"  />
<glyph unicode="&#xF1;" horiz-adv-x="590" d="M602 462Q602 445 587 442L564 438Q541 434 530 402T501 296L448 70Q446 67 448 62Q458 42 466 38T479 33L487 32Q498 31 498 17Q498 12 497 7T493 -3Q488 -3 478 -3T457 -2T436 -1T421 0Q409 0 392 0Q375 0 358 0T328 -1T308 -2Q306 -1 305 -1T302 1Q296 15 288 34T266 82L153 325H152L123 196Q113 151 109 121T108 73T120 47T146 36L175 32Q182 31 183 28T185 17Q185 12 184 7T180 -3Q147 -2 123 -1T67 0Q35 0 11 -1T-47 -3Q-48 2 -48 4Q-48 7 -48 12Q-48 29 -33 32L-10 36Q13 40 24 72T53 178L104 393Q105 399 104 403Q94 422 87 428T62 438L46 441Q39 443 38 446T36 456Q36 461 37 467T41 477Q46 477 56 477T77 476T98 475T113 474Q117 474 136 474T178 475T221 476T247 477Q251 475 253 473Q258 459 267 439T287 393L400 148H402L431 278Q441 323 445 353T446 401T434 427T408 438L379 442Q372 443 371 446T369 457Q369 462 370 467T374 477Q407 476 431 475T487 474Q519 474 543 475T601 477Q602 472 602 469Q602 467 602 462ZM515 688Q515 666 506 646T480 610T444 585T401 575Q376 575 352 585T308 607T271 630T243 640Q223 640 223 620Q223 612 227 605T232 590Q232 579 220 573T198 567Q184 567 180 577T175 599Q175 621 184 641T210 677T247 702T290 712Q315 712 338 702T382 679T419 657T447 646Q456 646 462 652T468 667Q468 675 463 682T458 697Q458 708 470 713T492 719Q506 719 510 709T515 688Z"  />
<glyph unicode="&#xF2;" horiz-adv-x="612" d="M413 303Q413 324 410 348T398 395T371 431T323 446Q279 446 250 415T204 339T180 249T173 171Q173 150 176 126T188 79T215 43T263 28Q307 28 336 59T382 135T406 225T413 303ZM575 274Q575 210 553 157T489 64T389 4T260 -18Q205 -18 159 -3T80 41T29 110T11 200Q11 264 33 317T97 410T196 470T326 492Q381 492 427 477T506 433T557 364T575 274ZM343 518Q341 511 334 508T320 506Q291 540 261 581T205 657Q198 666 193 678T187 701Q187 711 193 720T208 736T228 747T249 751Q269 751 277 737T293 701Q306 661 319 612T343 518Z"  />
<glyph unicode="&#xF3;" horiz-adv-x="612" d="M413 303Q413 324 410 348T398 395T371 431T323 446Q279 446 250 415T204 339T180 249T173 171Q173 150 176 126T188 79T215 43T263 28Q307 28 336 59T382 135T406 225T413 303ZM575 274Q575 210 553 157T489 64T389 4T260 -18Q205 -18 159 -3T80 41T29 110T11 200Q11 264 33 317T97 410T196 470T326 492Q381 492 427 477T506 433T557 364T575 274ZM527 705Q527 692 518 681T501 661Q458 619 413 580T323 506Q316 505 310 509T303 522Q315 541 330 567T362 618T391 665T412 698Q425 718 436 734T469 751Q477 751 487 747T506 737T521 722T527 705Z"  />
<glyph unicode="&#xF4;" horiz-adv-x="612" d="M413 303Q413 324 410 348T398 395T371 431T323 446Q279 446 250 415T204 339T180 249T173 171Q173 150 176 126T188 79T215 43T263 28Q307 28 336 59T382 135T406 225T413 303ZM575 274Q575 210 553 157T489 64T389 4T260 -18Q205 -18 159 -3T80 41T29 110T11 200Q11 264 33 317T97 410T196 470T326 492Q381 492 427 477T506 433T557 364T575 274ZM470 519Q468 512 461 509T447 506Q428 533 405 568T365 630Q360 632 355 630Q323 601 286 567T214 506Q207 505 201 510T194 522Q221 567 250 611T310 699Q324 719 337 734T374 750Q393 750 404 736T425 691Q437 652 448 607T470 519Z"  />
<glyph unicode="&#xF5;" horiz-adv-x="612" d="M413 303Q413 324 410 348T398 395T371 431T323 446Q279 446 250 415T204 339T180 249T173 171Q173 150 176 126T188 79T215 43T263 28Q307 28 336 59T382 135T406 225T413 303ZM575 274Q575 210 553 157T489 64T389 4T260 -18Q205 -18 159 -3T80 41T29 110T11 200Q11 264 33 317T97 410T196 470T326 492Q381 492 427 477T506 433T557 364T575 274ZM520 688Q520 666 511 646T485 610T449 585T406 575Q381 575 357 585T313 607T276 630T248 640Q228 640 228 620Q228 612 232 605T237 590Q237 579 225 573T203 567Q189 567 185 577T180 599Q180 621 189 641T215 677T252 702T295 712Q320 712 343 702T387 679T424 657T452 646Q461 646 467 652T473 667Q473 675 468 682T463 697Q463 708 475 713T497 719Q511 719 515 709T520 688Z"  />
<glyph unicode="&#xF6;" horiz-adv-x="612" d="M413 303Q413 324 410 348T398 395T371 431T323 446Q279 446 250 415T204 339T180 249T173 171Q173 150 176 126T188 79T215 43T263 28Q307 28 336 59T382 135T406 225T413 303ZM575 274Q575 210 553 157T489 64T389 4T260 -18Q205 -18 159 -3T80 41T29 110T11 200Q11 264 33 317T97 410T196 470T326 492Q381 492 427 477T506 433T557 364T575 274ZM336 653Q336 622 316 599T263 575Q234 575 218 594T201 642Q201 673 220 696T272 720Q301 720 318 701T336 653ZM521 653Q521 622 501 599T449 575Q420 575 403 594T386 642Q386 673 406 696T458 720Q487 720 504 701T521 653Z"  />
<glyph unicode="&#xF7;" horiz-adv-x="500" d="M284 56Q284 34 270 19T230 3Q204 3 190 17T175 56Q175 80 189 93T229 107Q254 107 269 93T284 56ZM-2 199V276H463V199H-2ZM285 419Q285 395 271 381T231 366Q206 366 191 381T176 419Q176 441 190 456T230 471Q256 471 270 457T285 419Z"  />
<glyph unicode="&#xF8;" horiz-adv-x="612" d="M406 317Q404 317 404 317Q404 318 402 317L176 102Q175 101 175 97Q183 69 202 49T256 28Q300 28 329 59T375 135T399 225T406 303V317ZM398 375Q390 404 372 425T316 446Q272 446 243 415T197 339T173 249T166 171V156Q168 156 168 155T169 155L396 370Q398 372 398 375ZM568 274Q568 210 546 157T482 64T382 4T253 -18Q163 -18 100 22Q96 22 94 21L44 -28Q38 -24 29 -13T16 4L59 48Q61 51 60 53Q33 81 19 118T4 200Q4 264 26 317T90 410T189 470T319 492Q365 492 404 482T474 451Q476 451 477 451T480 451L528 500Q534 496 544 485T558 468L514 424Q513 422 513 421T514 418Q540 390 554 354T568 274Z"  />
<glyph unicode="&#xF9;" horiz-adv-x="563" d="M590 462Q590 445 575 442L552 438Q541 436 533 428T519 404T505 361T489 296L454 147Q445 111 430 82T389 31T327 -1T240 -13Q190 -13 154 -3T93 26T56 68T44 121Q44 138 46 154T53 187L90 342Q97 372 99 390T100 419T92 432T76 438L47 442Q40 443 39 446T37 457Q37 462 38 467T42 477Q75 476 116 475T190 474Q206 474 225 474T265 475T304 476T341 477Q342 472 342 469Q342 467 342 462Q342 443 327 442L298 438Q289 437 282 433T269 419T257 391T244 342L204 169Q198 145 198 121Q198 107 201 94T214 70T237 52T274 45Q326 45 350 76T388 161L415 278Q425 322 429 351T433 399T425 425T404 437L379 442Q372 444 371 447T369 457Q369 462 370 467T374 477Q390 477 402 477T425 476T447 475T475 474Q507 474 531 475T589 477Q590 472 590 469Q590 467 590 462ZM364 518Q362 511 355 508T341 506Q312 540 282 581T226 657Q219 666 214 678T208 701Q208 711 214 720T229 736T249 747T270 751Q290 751 298 737T314 701Q327 661 340 612T364 518Z"  />
<glyph unicode="&#xFA;" horiz-adv-x="563" d="M590 462Q590 445 575 442L552 438Q541 436 533 428T519 404T505 361T489 296L454 147Q445 111 430 82T389 31T327 -1T240 -13Q190 -13 154 -3T93 26T56 68T44 121Q44 138 46 154T53 187L90 342Q97 372 99 390T100 419T92 432T76 438L47 442Q40 443 39 446T37 457Q37 462 38 467T42 477Q75 476 116 475T190 474Q206 474 225 474T265 475T304 476T341 477Q342 472 342 469Q342 467 342 462Q342 443 327 442L298 438Q289 437 282 433T269 419T257 391T244 342L204 169Q198 145 198 121Q198 107 201 94T214 70T237 52T274 45Q326 45 350 76T388 161L415 278Q425 322 429 351T433 399T425 425T404 437L379 442Q372 444 371 447T369 457Q369 462 370 467T374 477Q390 477 402 477T425 476T447 475T475 474Q507 474 531 475T589 477Q590 472 590 469Q590 467 590 462ZM568 705Q568 692 559 681T542 661Q499 619 454 580T364 506Q357 505 351 509T344 522Q356 541 371 567T403 618T432 665T453 698Q466 718 477 734T510 751Q518 751 528 747T547 737T562 722T568 705Z"  />
<glyph unicode="&#xFB;" horiz-adv-x="563" d="M590 462Q590 445 575 442L552 438Q541 436 533 428T519 404T505 361T489 296L454 147Q445 111 430 82T389 31T327 -1T240 -13Q190 -13 154 -3T93 26T56 68T44 121Q44 138 46 154T53 187L90 342Q97 372 99 390T100 419T92 432T76 438L47 442Q40 443 39 446T37 457Q37 462 38 467T42 477Q75 476 116 475T190 474Q206 474 225 474T265 475T304 476T341 477Q342 472 342 469Q342 467 342 462Q342 443 327 442L298 438Q289 437 282 433T269 419T257 391T244 342L204 169Q198 145 198 121Q198 107 201 94T214 70T237 52T274 45Q326 45 350 76T388 161L415 278Q425 322 429 351T433 399T425 425T404 437L379 442Q372 444 371 447T369 457Q369 462 370 467T374 477Q390 477 402 477T425 476T447 475T475 474Q507 474 531 475T589 477Q590 472 590 469Q590 467 590 462ZM489 519Q487 512 480 509T466 506Q447 533 424 568T384 630Q379 632 374 630Q342 601 305 567T233 506Q226 505 220 510T213 522Q240 567 269 611T329 699Q343 719 356 734T393 750Q412 750 423 736T444 691Q456 652 467 607T489 519Z"  />
<glyph unicode="&#xFC;" horiz-adv-x="563" d="M590 462Q590 445 575 442L552 438Q541 436 533 428T519 404T505 361T489 296L454 147Q445 111 430 82T389 31T327 -1T240 -13Q190 -13 154 -3T93 26T56 68T44 121Q44 138 46 154T53 187L90 342Q97 372 99 390T100 419T92 432T76 438L47 442Q40 443 39 446T37 457Q37 462 38 467T42 477Q75 476 116 475T190 474Q206 474 225 474T265 475T304 476T341 477Q342 472 342 469Q342 467 342 462Q342 443 327 442L298 438Q289 437 282 433T269 419T257 391T244 342L204 169Q198 145 198 121Q198 107 201 94T214 70T237 52T274 45Q326 45 350 76T388 161L415 278Q425 322 429 351T433 399T425 425T404 437L379 442Q372 444 371 447T369 457Q369 462 370 467T374 477Q390 477 402 477T425 476T447 475T475 474Q507 474 531 475T589 477Q590 472 590 469Q590 467 590 462ZM347 653Q347 622 327 599T274 575Q245 575 229 594T212 642Q212 673 231 696T283 720Q312 720 329 701T347 653ZM532 653Q532 622 512 599T460 575Q431 575 414 594T397 642Q397 673 417 696T469 720Q498 720 515 701T532 653Z"  />
<glyph unicode="&#xFD;" horiz-adv-x="517" d="M545 462Q545 445 530 442L513 438Q496 434 473 412T409 332L334 227Q327 217 323 209T316 186L304 132Q297 102 295 84T294 55T302 41T318 36L347 32Q354 31 355 28T357 17Q357 12 356 7T352 -3Q319 -2 278 -1T204 0Q188 0 168 0T128 -1T87 -2T50 -3Q49 2 49 4Q49 7 49 12Q49 30 64 32L96 36Q105 37 112 41T126 55T137 83T150 132L162 186Q165 199 164 207T159 225L116 342Q105 371 97 389T83 417T69 432T54 438L37 442Q30 444 29 447T27 457Q27 462 28 467T32 477Q65 476 101 475T169 474Q201 474 235 475T304 477Q305 472 305 469Q305 467 305 462Q305 445 290 442L269 438Q260 436 256 433T252 419T258 391T274 343L299 269H301L343 333Q362 362 372 381T386 412T385 429T371 438L356 442Q349 444 348 447T346 457Q346 462 347 467T351 477Q375 476 403 475T452 474Q475 474 499 475T544 477Q545 472 545 469Q545 467 545 462ZM537 705Q537 692 528 681T511 661Q468 619 423 580T333 506Q326 505 320 509T313 522Q325 541 340 567T372 618T401 665T422 698Q435 718 446 734T479 751Q487 751 497 747T516 737T531 722T537 705Z"  />
<glyph unicode="&#xFE;" horiz-adv-x="521" d="M502 300Q502 259 486 227T440 173T369 140T280 128Q245 128 237 134T228 148Q228 153 231 161T237 174Q240 173 246 173Q253 173 261 173Q283 173 298 187T323 222T337 266T341 308Q341 340 330 361T290 382Q285 382 277 381T265 380Q262 378 260 375L203 132Q196 102 195 84T196 55T206 41T225 36L259 32Q266 31 267 28T269 17Q269 12 268 7T264 -3Q247 -3 227 -3T185 -2T143 -1T106 0Q90 0 70 0T28 -1T-13 -2T-51 -3Q-52 2 -52 4Q-52 7 -52 12Q-52 30 -37 32L-5 36Q4 37 11 41T24 55T36 83T49 132L98 342Q105 372 107 390T108 419T100 432T84 438L55 442Q48 443 47 446T45 457Q45 462 46 467T50 477Q83 476 124 475T198 474Q214 474 234 474T274 475T315 476T352 477Q353 472 353 469Q353 467 353 462Q353 443 338 442L306 438Q288 436 281 435T272 429Q273 427 276 424Q287 425 306 425T349 426Q379 426 406 419T455 396T489 356T502 300Z"  />
<glyph unicode="&#xFF;" horiz-adv-x="517" d="M545 462Q545 445 530 442L513 438Q496 434 473 412T409 332L334 227Q327 217 323 209T316 186L304 132Q297 102 295 84T294 55T302 41T318 36L347 32Q354 31 355 28T357 17Q357 12 356 7T352 -3Q319 -2 278 -1T204 0Q188 0 168 0T128 -1T87 -2T50 -3Q49 2 49 4Q49 7 49 12Q49 30 64 32L96 36Q105 37 112 41T126 55T137 83T150 132L162 186Q165 199 164 207T159 225L116 342Q105 371 97 389T83 417T69 432T54 438L37 442Q30 444 29 447T27 457Q27 462 28 467T32 477Q65 476 101 475T169 474Q201 474 235 475T304 477Q305 472 305 469Q305 467 305 462Q305 445 290 442L269 438Q260 436 256 433T252 419T258 391T274 343L299 269H301L343 333Q362 362 372 381T386 412T385 429T371 438L356 442Q349 444 348 447T346 457Q346 462 347 467T351 477Q375 476 403 475T452 474Q475 474 499 475T544 477Q545 472 545 469Q545 467 545 462ZM311 653Q311 622 291 599T238 575Q209 575 193 594T176 642Q176 673 195 696T247 720Q276 720 293 701T311 653ZM496 653Q496 622 476 599T424 575Q395 575 378 594T361 642Q361 673 381 696T433 720Q462 720 479 701T496 653Z"  />
<glyph unicode="&#x152;" horiz-adv-x="1012" d="M545 562Q545 581 538 593T520 611T493 620T463 622Q398 622 350 590T269 507T221 394T205 273Q205 233 214 194T242 122T291 70T363 50Q385 50 400 57T425 78T441 110T453 150L540 524Q545 542 545 562ZM973 672Q971 663 969 642T964 597T959 550T955 512Q950 511 945 511Q941 511 936 511Q919 511 917 527L913 565Q911 577 907 587T892 605T861 617T808 622H735Q730 613 724 592T707 529L673 385Q673 381 677 377H739Q767 377 784 379T811 385T826 395T835 412L844 436Q846 443 850 444T862 446Q867 446 874 446T883 443Q880 433 877 420T870 392T863 366T858 345Q854 328 849 299T839 244Q835 242 829 242T817 243Q803 243 804 256L806 282Q807 289 806 296T796 309T772 317T726 321H663Q659 318 656 314L624 176Q616 140 613 117T612 81T625 62T653 57H738Q770 57 792 60T831 71T860 94T883 130L902 168Q909 182 925 177Q930 175 935 173T944 169Q939 155 933 132T919 83T907 37T899 5Q896 0 891 -2Q884 0 847 0Q811 0 748 0H515Q497 0 473 -1T424 -3T373 -6T327 -7Q262 -7 207 12T111 68T47 159T24 284Q24 360 52 437T138 572Q198 633 270 659T427 685Q454 685 485 684T547 682T606 679T656 678H832Q893 678 925 678Q957 678 966 680Q972 676 973 672Z"  />
<glyph unicode="&#x153;" horiz-adv-x="791" d="M405 392Q405 415 391 423T356 431Q311 431 279 407T225 347T193 269T182 189Q182 165 187 140T203 93T233 57T279 43Q302 43 318 58T342 110L400 359Q402 364 403 373T405 392ZM753 470Q752 464 750 447T746 411T742 373T739 344Q735 343 730 343T720 344Q707 344 705 357L702 385Q701 392 699 399T690 412T670 422T632 426H574Q571 420 566 405T554 360L534 273Q534 269 536 267H581Q600 267 612 268T632 273T642 280T648 292L653 307Q656 316 668 316Q673 316 679 315T688 313Q686 307 683 297T678 277T673 257T670 241Q668 229 663 206T656 166Q653 165 646 165Q640 165 635 165Q625 165 625 175L626 193Q626 198 625 203T619 211T602 217T570 220H526Q523 218 521 215L502 135Q490 85 493 67T522 48H585Q606 48 620 50T645 59T664 76T682 103L696 128Q702 139 715 134Q718 132 723 131T732 128Q729 118 724 100T714 63T704 26T698 3Q697 0 693 -1Q688 0 663 0Q638 0 593 0H361Q349 0 331 -1T294 -2T255 -4T221 -5Q177 -5 139 8T72 48T27 113T11 201Q11 253 31 306T90 400Q132 442 182 460T291 479Q310 479 331 478T374 477T414 475T449 474H655Q698 474 720 474Q743 474 749 475Q752 474 753 470Z"  />
<glyph unicode="&#x160;" horiz-adv-x="512" d="M516 679Q512 658 509 634T502 584T497 535T492 491Q487 490 482 490Q478 490 473 490Q456 490 454 506L449 544Q442 589 408 614T331 640Q306 640 289 632T260 611T243 582T237 549Q237 525 246 505T269 468T300 436T333 405Q355 384 376 363T412 319T437 268T447 209Q447 157 425 115T366 44T282 -2T186 -18Q156 -18 129 -14T72 0Q50 7 42 9T28 11Q22 11 19 9T13 3T5 -3T-8 -6Q-10 -6 -13 -6T-18 -5Q-14 18 -10 46T-3 103T4 160T9 213Q14 214 18 214Q23 214 28 214Q45 214 47 197L52 161Q60 103 95 72T188 41Q234 41 263 66T293 136Q293 159 285 178T263 216T231 251T192 287Q172 305 153 324T119 367T95 417T85 477Q85 522 102 561T151 631T227 678T324 696Q353 696 375 692T423 680Q446 673 457 669T473 665Q478 665 481 667T487 672T494 677T506 680Q508 680 511 680T516 679ZM517 860Q484 827 454 799T389 740Q375 728 362 717T333 705Q321 705 312 712T290 733Q279 745 265 760T236 792T206 826T178 861Q177 868 181 874T192 882Q210 873 229 863T268 841T305 820T337 802Q340 800 343 800T348 802Q382 822 424 843T504 882Q510 880 514 874T517 860Z"  />
<glyph unicode="&#x161;" horiz-adv-x="436" d="M416 480Q413 465 411 447T406 409T402 371T399 340Q395 339 391 339Q387 339 383 339Q375 339 372 343T368 353L363 380Q360 396 351 408T328 427T300 438T270 442Q249 442 236 437T216 423T206 405T203 388Q203 359 221 339T266 299Q283 285 301 271T333 240T357 200T366 150Q366 115 351 84T308 31T240 -5T151 -18Q127 -18 103 -15T55 -6Q39 -1 33 0T24 1Q16 1 13 -4T-2 -9H-10Q-7 8 -4 28T2 71T7 113T10 151Q14 152 18 152T26 151Q34 151 37 148T41 138L45 114Q53 69 81 52T151 35Q188 35 205 51T222 90Q222 106 215 120T197 146T172 169T142 193Q127 205 113 218T88 248T70 283T63 327Q63 363 77 393T118 445T182 479T263 492Q288 492 308 490T348 481Q367 476 373 474T382 471Q390 471 393 476T408 481Q410 481 412 481T416 480ZM448 734Q421 689 392 644T332 556Q318 536 305 521T268 506Q249 506 238 519T217 564Q205 603 194 648T172 737Q174 744 181 747T195 750Q214 723 237 688T277 625Q282 622 287 625Q319 654 356 688T428 750Q435 751 441 746T448 734Z"  />
<glyph unicode="&#x178;" horiz-adv-x="637" d="M705 665Q705 655 702 651T690 645L672 641Q663 639 654 634T632 617T604 585T564 534L423 341Q413 327 408 313T398 282L365 138Q357 106 355 87T354 58T362 43T379 38L409 33Q420 31 420 18Q420 13 419 7T416 -3Q381 -2 338 -1T261 0Q244 0 223 0T180 -1T136 -2T96 -3Q95 2 95 5Q95 8 95 13Q95 30 109 33L143 38Q153 39 160 43T173 57T185 87T199 138L232 277Q236 294 234 307T227 333L152 536Q140 568 131 587T113 618T98 634T82 641L68 645Q61 647 59 649T57 660Q57 665 58 671T61 681Q96 680 138 679T213 678Q246 678 288 679T365 681Q366 676 366 672Q366 669 366 664Q366 654 363 651T352 645L325 640Q315 638 310 634T305 618T309 588T325 536L378 383H380L480 533Q499 561 508 580T517 612T512 630T495 640L474 645Q467 647 465 649T462 660Q462 665 464 671T468 681Q503 680 529 679T589 678Q605 678 618 678T645 679T672 680T704 681Q705 676 705 673Q705 670 705 665ZM408 801Q408 770 388 747T335 723Q306 723 290 742T273 790Q273 821 292 844T344 868Q373 868 390 849T408 801ZM593 801Q593 770 573 747T521 723Q492 723 475 742T458 790Q458 821 478 844T530 868Q559 868 576 849T593 801Z"  />
<glyph unicode="&#x17D;" horiz-adv-x="666" d="M626 184Q621 170 614 144T600 91T586 39T577 5Q574 0 569 -2Q536 -1 497 -1T418 0Q378 0 339 0Q301 0 268 0Q188 0 109 0T-26 -3Q-28 4 -28 13Q-28 22 -26 30Q-10 47 14 78T66 146L422 619V621H262Q230 621 209 617T175 606T153 587T138 560L119 515Q116 508 112 505T99 502Q94 503 89 503T78 506Q82 524 88 550T99 603T110 656T117 699Q119 699 123 699T129 700Q137 700 141 698T147 692T152 686T161 682Q171 679 198 679T267 678H412Q478 678 536 678T648 681Q650 674 650 665Q650 656 647 648Q640 641 630 629T608 601T582 568T555 532L200 59V57H410Q442 57 465 60T506 72T536 96T561 136L584 183Q591 196 607 191Q612 189 617 188T626 184ZM557 860Q524 827 494 799T428 740Q414 728 401 717T373 705Q361 705 352 712T330 733Q319 745 305 760T276 792T246 826T218 861Q217 868 221 874T231 882Q249 873 268 863T307 841T344 820T376 802Q379 800 382 800T388 802Q422 822 464 843T544 882Q550 880 554 874T557 860Z"  />
<glyph unicode="&#x17E;" horiz-adv-x="525" d="M496 476Q497 471 497 463T496 449Q486 439 469 416T431 367L186 48V46H324Q345 46 360 48T387 57T406 74T423 102L442 145Q444 151 449 152T462 151Q466 150 471 149T479 145Q476 135 470 115T458 72T447 30T440 4Q438 0 434 -1Q377 0 328 0Q279 0 225 0Q197 0 164 0Q132 0 99 0Q67 0 37 0T-16 -2Q-17 3 -17 11T-16 25Q-3 38 13 59T49 107L294 426V428H189Q148 428 134 417T112 385L95 343Q93 337 90 335T78 332Q74 332 69 333T59 335Q62 349 66 370T75 413T83 456T89 490H101Q113 490 115 485T125 477Q132 475 148 475T195 474H310Q366 474 408 474Q450 474 496 476ZM458 734Q431 689 402 644T342 556Q328 536 315 521T278 506Q259 506 248 519T227 564Q215 603 204 648T182 737Q184 744 191 747T205 750Q224 723 247 688T287 625Q292 622 297 625Q329 654 366 688T438 750Q445 751 451 746T458 734Z"  />
<glyph unicode="&#x192;" horiz-adv-x="515" d="M582 561Q582 550 575 538T557 515T534 497T510 490Q492 490 481 502T460 529T438 556T407 569Q383 569 368 548T343 494T328 420T317 338Q318 334 323 331H451Q457 327 457 318Q457 307 454 293T444 276H320Q318 275 315 274T312 269Q297 130 265 31T176 -129Q140 -167 95 -187T2 -208Q-33 -208 -58 -198T-84 -157Q-84 -149 -82 -138T-74 -117T-61 -100T-42 -93Q-30 -93 -21 -100T-2 -116T18 -132T43 -140Q68 -140 85 -114T115 -37T137 91T156 269Q155 273 150 276H63Q58 279 58 289Q58 300 61 314T71 331H155Q161 333 163 339Q172 398 195 452T255 547T343 612T460 637Q480 637 501 632T541 617T570 593T582 561Z"  />
<glyph unicode="&#x2C6;" horiz-adv-x="500" d="M388 519Q386 512 379 509T365 506Q346 533 323 568T283 630Q278 632 273 630Q241 601 204 567T132 506Q125 505 119 510T112 522Q139 567 168 611T228 699Q242 719 255 734T292 750Q311 750 322 736T343 691Q355 652 366 607T388 519Z"  />
<glyph unicode="&#x2DC;" horiz-adv-x="500" d="M418 688Q418 666 409 646T383 610T347 585T304 575Q279 575 255 585T211 607T174 630T146 640Q126 640 126 620Q126 612 130 605T135 590Q135 579 123 573T101 567Q87 567 83 577T78 599Q78 621 87 641T113 677T150 702T193 712Q218 712 241 702T285 679T322 657T350 646Q359 646 365 652T371 667Q371 675 366 682T361 697Q361 708 373 713T395 719Q409 719 413 709T418 688Z"  />
<glyph unicode="&#x3BC;" horiz-adv-x="631" d="M581 137Q594 128 589 118T575 97Q532 46 480 14T379 -18Q359 -18 346 -12T324 3T313 23T309 47Q309 67 316 92T331 135L348 181H347Q329 155 302 123T248 64Q210 25 173 4T96 -18Q87 -18 77 -15Q72 -17 68 -21Q62 -50 64 -73T72 -117T83 -157T88 -197Q87 -234 64 -256T3 -279Q-30 -279 -46 -261T-62 -217Q-62 -196 -56 -174T-44 -134Q-37 -113 -26 -80T-1 -8T26 68T51 138L108 294Q115 311 122 332T129 364Q129 381 118 381Q104 381 82 362T36 311Q33 313 28 316T20 322Q14 328 15 336T28 359Q44 379 65 399T112 436T164 463T219 474Q249 474 271 459T294 411Q294 386 283 353T260 291L227 198Q222 183 215 165T208 135Q208 128 211 123T222 118Q236 118 256 137T309 199Q338 236 362 275T401 357L420 411Q427 429 432 445T439 472Q458 474 476 472T510 468Q530 465 544 462T566 450T574 429T568 394L488 169Q480 148 473 126T465 92Q465 75 480 75Q494 75 517 94T567 145Q570 143 574 141T581 137Z"  />
<glyph unicode="&#x2013;" horiz-adv-x="500" d="M473 279Q473 273 472 262T468 241T461 221T452 211H-3Q-10 214 -10 233Q-10 239 -9 249T-5 271T2 290T11 301H467Q473 298 473 279Z"  />
<glyph unicode="&#x2014;" horiz-adv-x="1000" d="M974 279Q974 273 973 262T969 241T962 221T953 211H-2Q-8 214 -8 233Q-8 239 -7 249T-3 271T4 290T13 301H968Q974 298 974 279Z"  />
<glyph unicode="&#x2018;" horiz-adv-x="257" d="M255 671Q233 665 211 653T170 624T141 586T130 543Q130 520 142 510T171 499Q176 499 182 499T195 500Q218 500 232 483T247 442Q247 404 222 384T162 364Q113 364 84 397T55 478Q55 517 68 552T105 615T161 665T230 699Q240 702 245 701T253 690Q255 685 255 680Q255 675 255 671Z"  />
<glyph unicode="&#x2019;" horiz-adv-x="257" d="M276 585Q276 546 263 511T226 448T171 398T102 364Q92 361 86 362T78 372Q76 377 76 382Q76 388 76 392Q98 398 120 410T161 439T190 476T202 520Q202 543 190 553T161 564Q156 564 149 564T136 563Q113 563 99 579T84 620Q84 658 109 678T169 699Q218 699 247 666T276 585Z"  />
<glyph unicode="&#x201A;" horiz-adv-x="257" d="M176 56Q176 17 163 -18T126 -82T71 -132T2 -166Q-8 -169 -14 -168T-22 -157Q-24 -152 -24 -147Q-24 -142 -24 -138Q-2 -132 20 -120T61 -91T90 -54T101 -10Q101 13 90 24T61 35Q56 35 49 35T36 34Q13 34 -1 50T-16 91Q-16 129 9 149T69 170Q118 170 147 137T176 56Z"  />
<glyph unicode="&#x201C;" horiz-adv-x="474" d="M258 671Q236 665 214 653T173 624T144 586T132 543Q132 520 144 510T173 499Q178 499 185 499T198 500Q221 500 235 483T250 442Q250 404 225 384T165 364Q116 364 87 397T58 478Q58 517 71 552T108 615T163 665T232 699Q242 702 248 701T256 690Q258 685 258 680Q258 675 258 671ZM475 671Q453 665 431 653T390 624T361 586T349 543Q349 520 361 510T390 499Q395 499 402 499T415 500Q438 500 452 483T467 442Q467 404 442 384T381 364Q332 364 304 397T275 478Q275 517 288 552T325 615T380 665T449 699Q459 702 465 701T473 690Q475 685 475 680Q475 675 475 671Z"  />
<glyph unicode="&#x201D;" horiz-adv-x="474" d="M275 585Q275 546 262 511T225 448T170 398T101 364Q91 361 85 362T77 372Q75 377 75 382T76 392Q98 398 120 410T161 439T190 476T201 520Q201 543 189 553T160 564Q155 564 148 564T135 563Q112 563 98 579T83 620Q83 658 108 678T169 699Q218 699 246 666T275 585ZM492 585Q492 546 479 511T442 448T387 398T318 364Q308 361 302 362T294 372Q292 377 292 382Q292 388 292 392Q314 398 336 410T377 439T406 476T418 520Q418 543 406 553T377 564Q372 564 365 564T352 563Q329 563 315 579T300 620Q300 658 325 678T385 699Q434 699 463 666T492 585Z"  />
<glyph unicode="&#x201E;" horiz-adv-x="500" d="M174 56Q174 17 161 -18T124 -82T69 -132T0 -166Q-10 -169 -16 -168T-24 -157Q-26 -152 -26 -147Q-26 -142 -26 -138Q-4 -132 18 -120T59 -91T88 -54T100 -10Q100 13 88 24T59 35Q54 35 47 35T34 34Q11 34 -3 50T-18 91Q-18 129 7 149T67 170Q116 170 145 137T174 56ZM391 56Q391 17 378 -18T341 -82T286 -132T217 -166Q207 -169 201 -168T193 -157Q191 -152 191 -147Q191 -142 191 -138Q213 -132 235 -120T276 -91T305 -54T317 -10Q317 13 305 24T276 35Q271 35 264 35T251 34Q228 34 214 50T199 91Q199 129 224 149T284 170Q333 170 362 137T391 56Z"  />
<glyph unicode="&#x2020;" horiz-adv-x="500" d="M501 490Q501 484 501 475T499 457T495 441T488 432L311 447Q305 445 302 440L194 -118Q191 -121 184 -123T168 -126T152 -127Q145 -127 142 -127Q139 -127 132 -127Q125 -127 117 -126T103 -123T95 -118L245 440Q245 444 240 447L60 432Q57 439 57 448Q57 454 57 463T59 482T63 498T70 507L250 492Q256 494 259 499L287 713Q290 716 297 718T313 721T328 722Q336 722 339 722Q342 722 349 722Q356 722 364 721T378 718T386 713L316 499Q316 495 321 492L498 507Q501 499 501 490Z"  />
<glyph unicode="&#x2021;" horiz-adv-x="500" d="M494 479Q494 473 494 464T492 446T488 430T481 421L303 436Q297 434 294 429L234 164Q234 160 239 157L419 171Q422 163 422 155Q422 149 422 140T420 122T416 106T409 97L229 111Q223 109 220 104L192 -119Q189 -122 182 -124T166 -127T149 -128Q142 -128 139 -128Q136 -128 129 -128T115 -126T101 -123T93 -118L166 106Q166 110 161 113L-16 98Q-19 105 -19 115Q-19 121 -19 130T-17 148T-13 164T-6 173L171 158Q177 160 180 165L240 430Q240 434 235 437L55 422Q52 429 52 438Q52 444 52 453T54 472T58 488T65 497L246 482Q250 483 254 489L282 713Q285 716 292 718T309 720T325 721Q333 721 336 721Q339 721 345 721T359 719T373 716T381 711L308 488Q308 485 314 481L491 495Q494 487 494 479Z"  />
<glyph unicode="&#x2022;" horiz-adv-x="500" d="M425 356Q425 313 411 275T370 208T307 162T228 145Q189 145 158 158T104 195T69 251T56 323Q56 366 71 404T112 470T174 515T254 532Q293 532 324 519T378 483T413 427T425 356Z"  />
<glyph unicode="&#x2026;" horiz-adv-x="1000" d="M176 84Q176 43 150 14T81 -16Q44 -16 21 8T-2 69Q-2 110 24 139T93 168Q130 168 153 145T176 84ZM548 84Q548 43 522 14T453 -16Q416 -16 393 8T370 69Q370 110 396 139T465 168Q502 168 525 145T548 84ZM920 84Q920 43 894 14T825 -16Q788 -16 765 8T742 69Q742 110 768 139T837 168Q874 168 897 145T920 84Z"  />
<glyph unicode="&#x2030;" horiz-adv-x="919" d="M188 417Q188 425 185 438T170 451Q158 451 149 435T133 396T122 353T115 321Q110 298 107 274T103 229Q103 224 103 217T106 204T112 192T123 187Q135 187 143 203T158 241T169 284T176 316Q181 342 185 368T188 417ZM517 252Q517 256 517 262T514 274T508 284T498 288Q486 288 478 272T463 233T452 190T445 159Q440 135 436 111T432 65Q432 60 432 53T435 40T440 28T451 23Q463 23 472 39T487 78T498 122T505 154Q510 179 514 204T517 252ZM801 252Q801 256 801 262T798 274T792 284T782 288Q770 288 762 272T747 233T736 190T729 159Q724 135 720 111T716 65Q716 60 716 53T719 40T724 28T735 23Q747 23 756 39T771 78T782 122T789 154Q794 179 798 204T801 252ZM284 362Q284 329 275 292T246 223T195 170T119 149Q88 149 67 160T32 189T14 230T8 276Q8 309 17 347T47 416T98 469T174 490Q205 490 226 479T260 449T278 408T284 362ZM126 -23Q116 -19 104 -8T86 11L494 498Q504 494 516 483T535 464L126 -23ZM613 198Q613 165 604 128T574 59T523 6T447 -15Q416 -15 395 -4T361 26T343 67T337 113Q337 146 346 183T375 252T426 305T502 326Q533 326 554 315T589 285T607 244T613 198ZM896 198Q896 165 887 128T858 59T807 6T731 -15Q700 -15 679 -4T645 26T627 67T621 113Q621 146 630 183T659 252T710 305T786 326Q817 326 838 315T872 285T890 244T896 198Z"  />
<glyph unicode="&#x2039;" horiz-adv-x="286" d="M234 420Q225 405 212 384T183 340T153 295T124 256Q123 253 123 250Q123 248 122 246Q128 231 137 209T155 164T172 117T187 75Q184 66 175 61T158 57Q142 72 120 96T74 148T28 203T-9 251Q-11 255 -8 261Q13 281 41 306T100 356T158 403T208 441Q216 443 225 436T234 420Z"  />
<glyph unicode="&#x203A;" horiz-adv-x="286" d="M246 247Q248 243 245 238Q224 218 196 193T137 143T79 95T29 57Q21 55 12 62T3 79Q12 94 25 115T54 159T85 204T114 243Q115 246 115 248Q115 250 116 252Q110 267 101 289T83 335T66 382T51 424Q54 433 62 438T79 441Q95 426 117 402T163 350T209 295T246 247Z"  />
<glyph unicode="&#x20AC;" horiz-adv-x="515" d="M520 470Q518 457 516 442T511 410T507 378T504 349Q501 348 495 348Q490 348 487 348Q474 348 472 361L470 379Q468 394 460 405T440 423T414 435T384 439Q364 439 347 431T315 410T291 378T274 341Q274 337 277 334H430Q435 332 436 328T434 310Q428 283 418 279H259Q255 278 252 273Q248 256 246 241T241 210Q241 204 245 202H398Q403 200 404 196T403 179Q400 165 397 158T388 148H249Q246 147 242 141Q247 96 270 66T336 35Q375 35 403 55T443 102L448 115Q452 125 469 122Q476 121 484 117Q475 89 466 57T450 -1Q448 -2 445 -2T439 -1Q430 -1 427 3T416 8Q411 8 404 5T387 -1Q362 -9 340 -13T286 -18Q248 -18 215 -7T154 24T108 74T82 140Q82 145 77 148H22Q17 150 17 154T19 171Q25 198 35 202H71Q73 203 74 205T77 210Q79 242 86 272Q86 276 81 279H53Q48 281 48 285T50 303Q53 317 56 324T65 334H104Q108 335 111 340Q144 406 205 449T351 492Q373 492 395 489T444 477Q455 473 468 467T487 460Q495 460 496 465T508 470H520H520Z"  />
<glyph unicode="&#x2122;" horiz-adv-x="1041" d="M430 563Q427 562 422 562Q418 562 414 562Q407 562 405 563T400 571L395 589Q391 603 387 611T374 625T353 632T317 634H299Q297 630 295 618T293 577V363Q293 328 295 316T310 301L334 297Q343 296 343 283Q343 276 341 270Q315 271 286 271T231 272Q205 272 178 272T124 270Q122 276 122 283Q122 296 131 297L156 301Q169 303 171 315T173 363V577Q173 606 171 618T167 634H149Q127 634 114 632T92 625T79 612T70 589L65 571Q63 565 61 564T51 562Q47 562 42 562Q38 562 35 563Q36 573 37 591T39 628T42 665T43 692Q45 693 47 693T53 694Q63 694 64 689Q67 678 74 678Q81 678 99 677T147 676H319Q348 676 366 677T392 678Q399 678 402 689Q403 694 412 694Q417 694 423 692Q423 683 424 666T426 629T428 591T430 563ZM1029 283Q1029 276 1027 270Q1001 271 973 271T919 272Q893 272 865 272T811 270Q809 276 809 283Q809 295 818 296L842 300Q855 302 857 315T859 363L857 551H856L748 270Q744 269 732 269T706 268Q693 268 681 268T665 270L556 551H555L554 414Q553 352 560 328T588 300L611 296Q619 295 619 283Q619 279 619 275Q619 271 618 269Q597 269 573 270T528 272Q506 272 485 271T442 270Q440 276 440 283Q440 295 449 296L473 300Q489 303 493 327T500 413L504 588Q505 614 499 631T478 651L458 653Q449 654 449 668Q449 674 451 680Q477 678 501 678Q526 678 547 678Q570 678 590 678T630 680Q632 679 633 679T637 677Q641 663 648 641T663 596Q668 581 679 551T704 488T728 426T743 383H744L820 596Q828 619 835 641T845 677Q847 678 848 678T852 680Q872 679 889 679T929 678Q948 678 974 678Q1001 678 1023 680Q1025 674 1025 668Q1025 657 1017 656L999 654Q985 652 980 637T975 594L979 363Q980 329 981 316T996 300L1020 296Q1029 295 1029 283Z"  />

</font>
</defs>
</svg>
