<?xml  version="1.0" encoding="UTF-8"?>
<!DOCTYPE svg PUBLIC "-//W3C//DTD SVG 1.0//EN" "http://www.w3.org/TR/2001/REC-SVG-20010904/DTD/svg10.dtd" >
<svg xmlns="http://www.w3.org/2000/svg" >
<metadata>
<version>1.0</version>
<id><![CDATA[Sabon Next W01 Bd It SC]]></id>
<vendor>Monotype Imaging Inc.</vendor>
<credits>
<name>Fonts.com WebFonts</name>
<URL>http://webfonts.fonts.com</URL>
<role>Home of the Web fonts</role>
</credits>
<license>
<URL>http://webfonts.fonts.com/Legal</URL>
</license>
<copyright><![CDATA[Copyright © 2002 - 2005 Linotype GmbH, www.linotype.com. All rights reserved. This font software may not be reproduced, modified, disclosed or transferred without the express written approval of Linotype GmbH. Sabon is a trademark of Heidelberger Druckmaschinen AG which may be registered in certain jurisdictions, exclusively licensed through Linotype GmbH. This typeface is original artwork of Jean Franois Porchez. The design may be protected in certain jurisdictions.]]></copyright>
<trademark><![CDATA[Sabon is a trademark of Heidelberger Druckmaschinen AG which may be registered in certain jurisdictions, exclusively licensed through Linotype GmbH.]]></trademark>
<licensee>
<name></name>
</licensee>
</metadata>
<defs >
<font horiz-adv-x="533" id="395ac279-5f63-4d1e-899d-d4a520a20f7c">
<font-face font-family="" panose-1="2 0 8 3 8 0 0 9 0 3" ascent="917" descent="-279" units-per-em="1000" alphabetic="0">
</font-face>
<missing-glyph horiz-adv-x="0" />

<glyph unicode="&#xA;" />
<glyph unicode="&#xD;" horiz-adv-x="0" />
<glyph unicode=" " horiz-adv-x="250" />
<glyph unicode="!" horiz-adv-x="230" d="M121 54Q121 26 103 8T56 -11Q30 -11 12 5T-6 47Q-6 75 13 94T60 113Q86 113 103 97T121 54ZM202 435Q202 418 197 401T181 358Q173 337 162 311T139 256T114 199T89 147Q82 145 70 145Q58 145 51 147Q51 181 51 220Q51 260 52 298T56 370T63 429Q68 460 88 471T138 483Q165 483 183 472T202 435Z"  />
<glyph unicode="&quot;" horiz-adv-x="426" d="M254 653Q254 636 247 616T233 579L168 403Q161 385 156 374T139 363Q119 363 121 404L128 596Q129 616 132 634T142 667T163 690T199 699Q219 699 236 688T254 653ZM429 653Q429 636 422 616T409 579L344 403Q337 385 332 374T315 363Q295 363 297 404L304 596Q305 616 308 634T318 667T339 690T375 699Q395 699 412 688T429 653Z"  />
<glyph unicode="#" horiz-adv-x="450" d="M284 375Q282 380 280 381H195Q193 379 191 378T187 375L153 252Q155 246 157 245H241Q243 247 245 248T249 252L284 375H284ZM452 444Q451 436 450 427T446 408T439 391T429 381H339Q333 377 332 375L298 252Q300 246 302 245H381Q386 242 386 233Q386 225 386 219Q385 211 384 202T380 183T373 166T363 156H274Q269 153 268 149L222 -7Q218 -9 208 -9Q201 -9 192 -7T177 0L220 149Q218 155 216 156H129Q124 153 123 149L78 -7Q74 -9 64 -9Q57 -9 48 -7T33 0L75 149Q73 155 71 156H-11Q-16 159 -16 168T-17 183Q-16 190 -15 200T-10 219T-3 235T7 245H97Q103 249 104 252L139 375Q137 380 135 381H55Q50 384 50 393T49 408Q50 415 51 425T56 444T63 460T73 470H161Q166 473 167 477L209 626Q212 628 217 628Q222 628 226 628Q233 628 243 626T258 619L218 477Q220 471 222 470H306Q311 473 312 477L354 626Q357 628 361 628Q365 628 369 628Q376 628 387 626T403 619L363 477Q365 471 367 470H446Q451 467 451 459T452 444Z"  />
<glyph unicode="$" horiz-adv-x="500" d="M284 87Q284 110 274 124T246 153Q243 152 243 151L215 28Q215 26 217 25Q249 28 266 44T284 87ZM277 440Q277 442 275 443Q245 442 228 425T210 382Q210 360 220 347T247 320Q249 321 250 323L277 440H277ZM435 473Q430 444 425 405T418 338Q415 337 411 337T403 338Q390 338 389 349L385 378Q382 402 367 416T329 438Q325 436 324 434L291 288Q291 285 292 284Q309 271 326 257T357 225T379 188T388 143Q388 114 377 87T344 37T288 0T208 -17Q205 -18 204 -21L187 -100Q182 -108 162 -108Q139 -108 138 -100L157 -20Q157 -16 155 -15Q141 -13 128 -12T102 -6Q87 -1 80 1T69 3Q61 3 58 -3T44 -9H38Q41 7 43 27T48 68T53 110T56 148Q59 149 64 149T72 148Q84 148 85 137L88 109Q92 76 112 56T164 28Q166 29 169 32L205 185Q205 188 203 190Q186 203 170 217T140 248T118 285T110 329Q110 359 121 387T155 436T209 471T284 484Q287 485 288 488L306 571Q309 576 314 577T331 578Q342 578 348 577T355 571L335 485Q335 482 338 481Q346 479 354 477T370 473Q386 469 393 466T406 463Q413 463 415 468T427 473H435H435Z"  />
<glyph unicode="%" horiz-adv-x="630" d="M184 403Q184 409 184 417T181 432T173 445T160 450Q148 450 139 436T123 403T110 364T102 333Q95 307 92 279T88 231Q88 225 88 216T92 199T100 184T114 178Q126 178 134 192T150 225T161 263T169 294Q177 322 180 351T184 403ZM522 239Q522 245 521 253T518 270T510 283T496 289Q484 289 476 275T460 242T449 204T441 173Q433 146 429 118T425 68Q425 62 425 54T428 37T436 22T450 16Q462 16 471 30T487 63T499 102T507 134Q514 161 518 189T522 239ZM267 358Q267 326 258 289T231 221T182 168T110 147Q81 147 62 158T30 187T13 227T7 271Q7 303 16 340T44 409T93 462T165 483Q194 483 213 472T245 443T262 403T267 358ZM118 -23Q109 -19 99 -10T83 7L492 490Q501 486 511 477T527 460L118 -23ZM603 196Q603 164 594 127T567 58T518 5T446 -16Q417 -16 398 -5T366 24T349 64T343 109Q343 141 352 178T379 246T428 299T500 320Q529 320 548 309T580 280T597 240T603 196Z"  />
<glyph unicode="&amp;" horiz-adv-x="649" d="M193 330Q194 333 193 336Q173 350 148 350Q128 350 114 342T91 320T78 291T73 259Q73 245 75 234T82 210Q83 209 85 210L193 330H193ZM643 379Q643 354 635 330T613 285T578 253T531 240Q519 240 509 245T487 256Q485 256 484 255T483 254Q482 249 482 244Q482 240 481 235Q474 184 452 139T394 60T313 5T213 -15Q169 -15 131 -1T66 39T22 101T6 183Q6 227 21 269T63 345T124 398T200 418Q214 418 228 415T255 405Q257 404 260 405L282 430Q307 458 311 489T315 546Q315 563 326 577T363 592Q387 592 397 579T407 548Q407 519 384 490T329 426L103 174Q102 172 102 168Q125 132 162 110T246 88Q288 88 323 103T384 143T427 201T450 273Q450 275 450 276T449 280Q427 297 409 314T372 332Q357 332 348 322T338 298Q338 284 345 278T362 266T379 255T387 236Q387 222 376 211T350 200Q324 200 310 222T296 268Q296 293 305 318T330 363T369 396T418 409Q445 409 467 395T508 365T543 334T573 320Q585 320 593 328T601 348Q601 359 595 367T582 382T568 396T562 414Q562 429 575 439T602 449Q614 449 622 443T634 426T641 403T643 379Z"  />
<glyph unicode="&apos;" horiz-adv-x="250" d="M254 653Q254 636 247 616T233 579L168 403Q161 385 156 374T139 363Q119 363 121 404L128 596Q129 616 132 634T142 667T163 690T199 699Q219 699 236 688T254 653Z"  />
<glyph unicode="(" horiz-adv-x="338" d="M320 685Q219 582 169 453T119 180Q119 96 135 21T191 -125Q189 -127 185 -130T175 -137Q151 -157 141 -141Q102 -67 81 17T59 185Q59 335 114 467T273 705Q280 712 288 709T307 697Q311 693 314 690T320 685Z"  />
<glyph unicode=")" horiz-adv-x="338" d="M253 380Q253 230 198 98T39 -140Q32 -147 24 -144T5 -132Q1 -128 -2 -125T-8 -120Q93 -17 143 112T193 385Q193 469 177 544T121 690Q123 692 127 695T137 702Q161 722 171 706Q210 632 231 548T253 380Z"  />
<glyph unicode="*" horiz-adv-x="411" d="M222 495Q216 485 206 470T185 440T161 413T136 397Q120 392 104 403Q92 411 86 425T81 453Q84 467 100 477T137 494T178 506T210 514Q214 511 217 506T222 495ZM327 396Q328 380 314 370T286 356Q268 351 257 359T240 382Q237 392 236 406T235 435T237 466T241 492Q252 499 263 497Q270 489 280 476T301 449T318 421T327 396ZM227 550Q222 538 211 533Q201 536 186 541T156 551T126 563T104 576Q89 588 90 605Q91 613 96 623T108 641T125 655T143 661Q156 661 169 647T193 615T213 579T227 550ZM425 530Q427 515 422 497T398 474Q386 471 370 475T335 487T301 502T275 516Q274 522 274 528T279 539Q290 543 305 547T336 556T367 562T393 565Q410 565 416 555T425 530ZM352 662Q352 650 343 634T319 603T291 573T268 551Q263 552 257 554T247 562Q248 582 250 607T256 653Q259 668 265 682T291 699Q299 700 309 698T329 691T345 679T352 662Z"  />
<glyph unicode="+" horiz-adv-x="500" d="M265 202V0H205V202H5V265H205V466H265V265H466V202H265Z"  />
<glyph unicode="&#x2c;" horiz-adv-x="250" d="M152 41Q152 4 140 -29T106 -90T54 -138T-10 -171Q-20 -174 -24 -173T-31 -163Q-33 -158 -33 -154Q-33 -150 -33 -147Q-11 -141 10 -129T49 -100T77 -62T88 -17Q88 5 78 15T51 25Q46 25 40 25T28 24Q8 24 -5 39T-18 76Q-18 109 4 128T57 148Q99 148 125 119T152 41Z"  />
<glyph unicode="-" horiz-adv-x="250" d="M219 279Q219 273 218 263T214 242T208 223T199 212H-6Q-12 216 -12 232Q-12 238 -11 248T-7 269T-1 288T8 298H213Q219 294 219 279Z"  />
<glyph unicode="." horiz-adv-x="250" d="M144 74Q144 56 138 40T121 12T94 -7T61 -14Q29 -14 9 7T-11 60Q-11 95 12 121T72 147Q104 147 124 127T144 74Z"  />
<glyph unicode="/" horiz-adv-x="300" d="M-3 -18Q-7 -17 -14 -15T-28 -9T-41 -2T-51 5L310 714Q314 713 320 710T334 704T347 697T357 690L-3 -18Z"  />
<glyph unicode="0" horiz-adv-x="500" d="M400 259Q400 322 359 359T252 396Q209 396 175 381T117 341T81 281T68 208Q68 145 108 108T215 71Q258 71 292 85T350 125T387 185T400 259ZM447 278Q447 224 432 171T385 76T308 8T201 -18Q157 -18 124 -2T67 43T32 108T20 189Q20 243 36 295T83 390T160 458T267 484Q311 484 344 468T401 424T435 359T447 278Z"  />
<glyph unicode="1" horiz-adv-x="500" d="M439 456Q439 448 437 444T427 438L377 433Q368 432 361 428T348 414T336 384T323 335L275 131Q268 100 266 82T265 53T273 39T289 34L335 29Q341 28 342 25T344 16Q344 5 340 -3Q324 -3 304 -3T264 -2T224 -1T188 0Q172 0 151 0T108 -1T65 -2T27 -3Q27 1 27 4T26 11Q26 19 28 23T38 28L87 34Q96 35 103 39T117 53T129 82T142 131L189 335Q196 366 198 384T200 413T192 428T176 433L130 438Q120 439 120 451Q120 456 121 461T125 469Q141 469 161 469T201 468T241 467T277 466Q293 466 314 466T357 467T400 468T438 469Q438 465 438 463T439 456Z"  />
<glyph unicode="2" horiz-adv-x="500" d="M442 139Q439 128 434 111T424 74T414 36T406 5Q403 1 399 -2Q393 -1 367 -1T309 0Q277 0 244 0Q212 0 193 0Q169 0 139 0Q109 0 80 0T28 -1T-5 -3Q-6 -1 -6 5Q-6 12 -6 19T-4 34T-2 45Q28 68 71 98T154 163T222 239T250 323Q250 357 229 380T168 403Q137 403 116 391T81 364Q82 363 78 365T70 373Q65 380 65 385T76 401Q89 416 105 430T143 457T190 476T248 484Q279 484 305 475T351 450T381 410T392 360Q392 320 371 285T314 217T232 154T137 95V93H317Q338 93 352 95T377 101T395 114T409 133Q412 138 414 140T425 142Q429 142 434 142T442 139Z"  />
<glyph unicode="3" horiz-adv-x="500" d="M393 367Q393 336 380 311T344 265T293 228T234 197V195Q264 199 292 192T341 168T376 126T389 70Q389 27 374 -10T333 -78T273 -133T201 -174T124 -199T47 -208Q16 -208 -7 -200T-30 -166Q-30 -160 -28 -152T-23 -139Q-19 -135 -12 -133Q5 -141 25 -146T71 -152Q111 -152 144 -135T202 -91T239 -29T253 42Q253 87 229 115T162 143Q149 143 137 140T113 133Q93 125 86 141Q83 147 81 155Q111 168 142 185T200 223T243 271T260 329Q260 364 239 385T183 406Q154 406 132 395T93 368Q90 370 86 374T80 382Q75 390 89 405Q121 441 164 462T258 484Q284 484 308 477T351 454T381 417T393 367Z"  />
<glyph unicode="4" horiz-adv-x="500" d="M286 317L64 71V69H224Q228 72 231 76L287 317H286ZM458 490Q450 461 444 433T430 372L362 76Q362 73 366 69H439Q442 67 441 60T438 41Q436 27 433 11T421 -9H348Q344 -12 341 -16L301 -184Q297 -189 277 -190T236 -191Q216 -191 195 -190T171 -184L210 -16Q210 -13 206 -9H63Q34 -9 10 -9T-43 -12Q-43 -7 -42 1T-39 17T-35 32T-30 43Q-24 48 -13 59T14 87T46 121T81 159L269 368Q303 405 329 436T373 490Q377 491 389 491T416 492Q430 492 442 492T458 490Z"  />
<glyph unicode="5" horiz-adv-x="500" d="M445 454Q445 447 443 434T437 407T428 382T417 367H203Q198 365 195 361L173 316Q172 313 173 311T175 307Q207 284 237 257T290 199T328 131T343 54Q343 -3 318 -51T253 -134T160 -188T55 -208Q8 -208 -11 -197T-28 -162Q-28 -157 -26 -150T-22 -138Q-19 -134 -11 -132Q29 -152 71 -152Q107 -152 135 -140T182 -107T212 -56T223 6Q223 37 212 66T182 122T136 171T80 213Q78 221 79 225L196 466H440Q445 462 445 454Z"  />
<glyph unicode="6" horiz-adv-x="500" d="M515 630Q431 614 364 569T249 457T176 310T150 143Q150 88 167 57T224 25Q248 25 265 42T295 86T313 143T319 201Q319 220 316 240T304 275T281 301T244 311Q232 311 223 309T205 301Q202 304 200 309T198 320Q200 330 209 336Q232 353 257 363T311 373Q344 373 370 361T414 326T441 276T451 215Q451 164 433 122T383 48T308 0T217 -18Q125 -18 71 36T17 186Q17 276 55 357T156 501T303 606T477 659Q490 661 496 659T507 651Q510 647 512 641T515 630Z"  />
<glyph unicode="7" horiz-adv-x="500" d="M481 423Q470 408 448 373T399 292L115 -190Q108 -190 98 -187T78 -178T60 -166T49 -155L375 357V359H169Q142 359 125 357T96 349T78 334T64 312Q61 307 58 304T46 302Q37 303 30 305Q33 316 37 337T47 381T57 426T65 461Q66 464 72 468Q77 467 100 467T154 466Q185 466 216 466Q248 466 269 466Q294 466 327 466T390 467T446 468T481 469Q482 467 482 460Q482 454 482 447Q482 440 482 433Q482 426 481 423Z"  />
<glyph unicode="8" horiz-adv-x="500" d="M289 125Q289 147 282 167T263 204T237 236T207 267Q202 268 198 267Q163 241 140 203T117 119Q117 81 138 53T201 24Q222 24 238 32T266 55T283 88T289 125ZM376 513Q376 548 356 571T298 595Q259 595 237 569T214 507Q214 487 222 469T242 434T270 402T299 373Q303 371 308 373Q339 399 357 435T376 513ZM471 506Q471 473 460 448T429 404T386 369T335 341V340Q375 302 402 263T429 170Q429 128 412 94T364 35T291 -4T199 -18Q164 -18 132 -9T76 17T36 61T21 120Q21 156 34 183T68 231T116 269T174 300V301Q154 321 138 339T109 377T90 419T83 468Q83 504 98 535T142 588T211 624T299 637Q331 637 362 629T417 604T456 563T471 506Z"  />
<glyph unicode="9" horiz-adv-x="500" d="M452 280Q452 189 415 105T314 -45T167 -155T-6 -210Q-19 -212 -25 -210T-36 -201Q-39 -197 -41 -191T-44 -180Q40 -164 107 -117T221 -2T293 151T319 324Q319 379 301 410T245 442Q219 442 201 425T171 382T155 327T150 276Q150 258 153 239T165 203T188 177T225 166Q237 166 245 168T263 176Q266 173 268 168T270 157Q268 146 260 141Q237 124 212 114T158 104Q125 104 99 116T55 150T28 201T18 262Q18 310 35 351T84 421T158 467T251 484Q296 484 333 470T397 430T437 366T452 280Z"  />
<glyph unicode=":" horiz-adv-x="250" d="M145 74Q145 56 139 40T122 12T95 -7T62 -14Q30 -14 10 7T-10 60Q-10 95 13 121T73 147Q105 147 125 127T145 74ZM212 359Q212 324 189 298T129 272Q97 272 77 293T57 346Q57 381 80 407T140 433Q172 433 192 412T212 359Z"  />
<glyph unicode=";" horiz-adv-x="250" d="M154 41Q154 4 142 -29T108 -90T57 -138T-7 -171Q-25 -177 -29 -163Q-31 -158 -31 -154T-30 -147Q-8 -141 13 -129T52 -100T80 -62T91 -17Q91 5 81 15T54 25Q49 25 43 25T31 24Q11 24 -2 39T-15 76Q-15 109 7 128T60 148Q102 148 128 119T154 41ZM216 359Q216 324 193 298T133 272Q101 272 81 293T61 346Q61 381 84 407T144 433Q176 433 196 412T216 359Z"  />
<glyph unicode="&lt;" horiz-adv-x="500" d="M13 203V265L474 468V398L88 234L474 70V0L13 203Z"  />
<glyph unicode="=" horiz-adv-x="500" d="M5 77V140H466V77H5ZM5 323V386H466V323H5Z"  />
<glyph unicode="&gt;" horiz-adv-x="500" d="M1 0V70L387 234L1 398V468L462 265V203L1 0Z"  />
<glyph unicode="?" horiz-adv-x="279" d="M143 54Q143 26 125 8T78 -11Q52 -11 34 5T16 47Q16 75 35 94T82 113Q108 113 125 97T143 54ZM263 352Q263 322 251 303T222 273T183 254T145 241T115 226T103 203Q103 192 111 185T132 177Q144 177 151 180T168 183Q189 183 189 156Q189 141 182 132T161 122Q141 122 119 133T79 162T49 204T37 254Q37 283 48 301T76 330T112 349T148 362T176 377T187 400Q187 410 180 417T160 424Q150 424 142 420T125 412T109 403T92 399Q76 399 69 415T62 451Q62 462 72 472T109 482Q138 482 165 473T215 447T250 406T263 352Z"  />
<glyph unicode="@" horiz-adv-x="580" d="M335 303Q335 325 313 325Q292 325 275 306T244 262T224 211T216 173Q216 164 220 158T233 151Q242 151 255 162T281 190T306 226T323 260L332 286Q335 293 335 303ZM549 295Q549 254 535 214T493 143T425 92T333 73Q313 73 299 81T285 110Q285 124 290 141T303 177H302Q291 161 276 143T244 110T206 84T165 73Q139 73 127 89T114 128Q114 167 133 209T184 287T254 346T331 370Q345 370 358 367T378 353H379L382 360Q387 371 392 374T409 378Q421 378 436 378Q451 378 461 377Q458 369 452 355T441 326L382 160Q380 152 377 142T374 126Q374 115 389 115Q411 115 432 130T470 169T497 223T507 286Q507 329 493 360T455 411T397 440T325 450Q263 450 217 425T139 358T92 267T76 165Q76 118 92 85T137 30T204 -2T284 -12Q319 -12 355 -4T422 23Q427 18 430 12T434 -2Q434 -9 427 -13T415 -20Q380 -36 342 -42T266 -49Q213 -49 167 -36T86 5T31 75T10 174Q10 239 35 295T103 394T203 460T325 484Q369 484 409 473T481 438T530 379T549 295Z"  />
<glyph unicode="A" horiz-adv-x="690" d="M363 548H361L216 296Q216 292 221 289H390Q394 292 397 296L363 548ZM632 16Q632 5 628 -3Q596 -2 561 -1T493 0Q461 0 423 -1T353 -3Q353 1 353 4T352 11Q352 25 365 28L398 34Q409 36 415 40T424 56T424 88T418 140L405 232Q404 236 398 238H189Q185 237 180 232L135 154Q120 129 112 108T102 72T106 46T128 33L156 29Q166 28 166 16Q166 5 162 -3Q130 -2 104 -1T46 0Q30 0 18 0T-7 -1T-31 -2T-60 -3Q-60 1 -60 4T-61 11Q-61 25 -49 28L-28 33Q-18 35 -10 41T8 61T28 93T57 140L380 685Q383 687 397 688T427 689Q443 689 456 688T472 685L554 140Q559 107 563 87T574 56T587 40T603 33L622 29Q632 26 632 16Z"  />
<glyph unicode="B" horiz-adv-x="640" d="M424 222Q424 252 415 273T389 308T351 328T308 335H249Q247 333 245 332T242 329L202 155Q194 120 191 99T190 65T201 49T226 45H258Q299 45 330 59T382 98T413 155T424 222ZM452 540Q452 589 428 614T362 639Q334 639 318 633Q311 616 306 595T294 549L255 386Q255 384 256 381T259 377H305Q336 377 361 387T408 421Q428 444 440 475T452 540ZM594 541Q594 504 579 475T538 423T482 386T418 364V362Q449 359 476 348T525 318T558 273T570 214Q570 177 555 141T511 76Q490 54 464 40T407 16T345 4T280 0H105Q90 0 71 0T33 -1T-6 -2T-41 -3Q-41 1 -41 4T-42 11Q-42 19 -40 22T-30 28L5 34Q14 35 21 39T34 53T46 82T59 131L155 547Q162 578 164 596T166 625T158 638T142 644L111 649Q101 650 101 662Q101 673 105 681Q137 680 171 679T237 678Q281 678 324 681T412 685Q447 685 479 677T537 652T578 607T594 541Z"  />
<glyph unicode="C" horiz-adv-x="682" d="M655 665Q652 646 649 623T642 575T636 526T631 483Q627 482 622 482Q618 482 614 482Q600 482 598 495L593 536Q590 565 575 585T538 619T493 638T446 644Q374 644 323 606T238 511T189 387T173 262Q173 214 183 172T217 100T276 51T363 33Q432 33 481 63T559 151L576 186Q579 191 583 193T595 194Q599 192 603 191T611 187Q605 170 598 146T584 96T571 47T561 8Q559 7 556 7Q553 7 551 7Q540 7 536 13T520 20Q511 20 497 14T470 4Q436 -7 401 -12T330 -18Q264 -18 208 2T112 61T49 153T26 274Q26 356 53 432T133 566T262 660T434 696Q469 696 497 691T555 676Q562 674 572 670T591 661T607 653T618 650Q623 650 625 652T630 658T636 663T646 666Q648 666 650 666T655 665Z"  />
<glyph unicode="D" horiz-adv-x="753" d="M578 398Q578 452 563 495T522 570T459 619T379 636Q362 636 345 635T318 630Q305 603 293 549L202 158Q194 125 191 104T191 71T203 54T229 49H279Q414 49 495 153Q534 203 556 267T578 398ZM727 393Q727 360 720 324T698 251T660 178T606 111Q555 60 481 30T313 0H102Q71 0 31 -1T-41 -3Q-41 1 -41 4T-42 11Q-42 19 -40 22T-30 28L5 34Q14 35 21 39T34 53T46 82T59 131L155 547Q162 578 164 596T166 625T158 638T142 644L111 649Q101 650 101 662Q101 673 105 681Q137 680 168 679T231 678Q249 678 273 679T323 681T376 684T423 685Q487 685 542 666T639 610T703 519T727 393Z"  />
<glyph unicode="E" horiz-adv-x="600" d="M559 672Q557 663 555 644T551 604T546 561T543 525Q539 524 534 524Q530 524 526 524Q512 524 510 537L505 575Q503 588 498 598T481 616T449 626T395 630H319Q314 621 308 601T291 538L254 382Q254 378 258 374H332Q360 374 377 376T404 382T419 393T428 409L438 434Q442 443 453 443Q458 443 463 442T471 440Q465 420 459 391T448 346Q444 329 439 302T429 249Q426 248 420 248Q415 248 410 248Q399 248 399 259L402 287Q403 294 402 301T392 314T368 322T322 326H247Q243 323 240 319L205 168Q197 132 194 109T193 73T206 55T234 50H326Q361 50 385 53T426 63T454 84T476 118L496 159Q501 170 513 166Q517 164 522 163T531 160Q527 147 521 125T509 80T498 36T490 5Q487 0 482 -2Q475 0 438 0Q401 0 338 0H105Q90 0 71 0T33 -1T-6 -2T-41 -3Q-41 1 -41 4T-42 11Q-42 19 -40 22T-30 28L5 34Q14 35 21 39T34 53T46 82T59 131L155 547Q162 578 164 596T166 625T158 638T142 644L111 649Q101 650 101 662Q101 673 105 681Q137 680 175 679T245 678H417Q478 678 510 678Q543 678 552 680Q558 676 559 672Z"  />
<glyph unicode="F" horiz-adv-x="543" d="M558 672Q556 663 554 644T550 604T545 561T542 525Q538 524 533 524Q529 524 525 524Q511 524 509 537L505 575Q503 588 498 598T481 616T448 626T394 630H319Q314 621 308 601T291 538L254 382Q254 378 258 374H332Q360 374 377 376T404 382T419 393T428 409L437 434Q441 443 453 443Q458 443 463 442T471 440Q465 420 459 391T448 346Q444 329 439 299T428 243Q420 241 408 241Q396 241 398 252L401 287Q402 294 401 301T391 314T367 322T321 326H247Q243 323 240 319L196 131Q189 100 187 82T187 53T197 39T214 34L261 29Q271 28 271 16Q271 11 270 6T266 -3Q250 -3 229 -3T186 -2T143 -1T106 0Q90 0 71 0T33 -1T-6 -2T-41 -3Q-41 1 -41 4T-42 11Q-42 19 -40 22T-30 28L5 34Q14 35 21 39T34 53T46 82T59 131L155 547Q162 578 164 596T166 625T158 638T142 644L111 649Q101 650 101 662Q101 673 105 681Q137 680 175 679T245 678H416Q477 678 509 678Q542 678 551 680Q557 676 558 672Z"  />
<glyph unicode="G" horiz-adv-x="738" d="M702 268Q702 254 690 251L657 245Q648 243 641 239T627 225T616 196T603 147L597 118Q588 79 588 62T590 37Q588 35 587 32T583 26Q560 16 533 8T474 -6T412 -15T350 -18Q279 -18 220 2T117 59T50 151T26 274Q26 358 53 434T134 568T263 661T438 696Q504 696 567 678Q591 671 615 661T646 650Q656 650 660 658T677 666Q679 666 681 666T685 665Q678 624 672 574T660 484Q656 483 651 483Q646 483 642 483Q629 483 627 496L622 535Q618 565 600 586T558 620T505 639T453 645Q379 645 327 609T240 517T189 394T173 262Q173 216 184 174T218 100T276 48T361 29Q384 29 405 36T444 55Q448 63 452 78T460 111L468 147Q475 178 476 196T476 225T466 240T449 245L404 250Q398 251 397 254T395 263Q395 274 399 282Q415 282 436 282T479 281T521 280T558 279Q590 279 629 280T701 282Q701 278 701 275T702 268Z"  />
<glyph unicode="H" horiz-adv-x="785" d="M827 667Q827 659 825 656T815 650L780 644Q771 642 764 639T751 625T739 596T726 547L630 131Q623 100 621 82T619 53T627 39T643 34L674 29Q684 28 684 16Q684 11 683 6T679 -3Q647 -2 609 -1T539 0Q523 0 504 0T466 -1T427 -2T392 -3Q392 1 392 4T391 11Q391 19 393 22T403 28L438 34Q447 35 454 39T467 53T479 82T492 131L537 320Q537 322 533 326H246Q242 324 240 320L196 131Q189 100 187 82T186 53T194 39T210 34L241 29Q251 28 251 16Q251 11 250 6T246 -3Q214 -2 176 -1T105 0Q89 0 71 0T33 -1T-6 -2T-41 -3Q-41 1 -41 4T-42 11Q-42 19 -40 22T-30 28L5 34Q14 35 21 39T34 53T46 82T59 131L155 547Q162 578 164 596T166 625T158 638T142 644L111 649Q101 650 101 662Q101 673 105 681Q137 680 175 679T246 678Q262 678 281 678T319 679T358 680T393 681Q393 677 393 674T394 667Q394 653 381 650L347 644Q338 642 331 639T318 625T306 596T293 547L255 386Q255 384 259 380H545Q549 382 551 386L589 547Q596 578 598 596T599 625T591 638T575 644L544 649Q534 650 534 662Q534 667 535 672T539 681Q571 680 609 679T679 678Q695 678 714 678T752 679T791 680T826 681Q826 677 826 674T827 667Z"  />
<glyph unicode="I" horiz-adv-x="352" d="M394 667Q394 653 381 650L347 644Q338 642 331 639T318 625T306 596T293 547L196 131Q189 100 187 82T186 53T194 39T210 34L241 29Q251 28 251 16Q251 11 250 6T246 -3Q214 -2 176 -1T105 0Q89 0 71 0T33 -1T-6 -2T-41 -3Q-41 1 -41 4T-42 11Q-42 19 -40 22T-30 28L5 34Q14 35 21 39T34 53T46 82T59 131L155 547Q162 578 164 596T166 625T158 638T142 644L111 649Q101 650 101 662Q101 673 105 681Q137 680 175 679T246 678Q262 678 281 678T319 679T358 680T393 681Q393 677 393 674T394 667Z"  />
<glyph unicode="J" horiz-adv-x="348" d="M395 667Q395 659 393 656T383 650L348 644Q339 642 332 639T319 625T307 596T294 547L201 146Q181 62 150 -9T78 -131T-12 -211T-117 -240Q-168 -240 -192 -222T-216 -185Q-216 -175 -212 -164T-200 -142T-182 -126T-162 -119Q-149 -119 -140 -128T-121 -150T-100 -171T-73 -181Q-55 -181 -40 -167T-11 -121T18 -41T48 77L156 547Q163 578 165 596T166 625T158 638T142 644L107 649Q97 650 97 662Q97 667 98 672T102 681Q134 680 174 679T247 678Q263 678 282 678T320 679T359 680T394 681Q394 677 394 674T395 667Z"  />
<glyph unicode="K" horiz-adv-x="721" d="M715 667Q715 653 703 650L683 645Q672 642 662 637T638 620T605 591T556 543L382 372Q382 369 382 366T382 361Q396 343 411 320T443 270T477 215T510 162Q544 108 568 75T624 33L642 28Q647 26 649 24T652 16Q652 5 648 -3Q642 -3 626 -3T592 -2T555 -1Q537 -1 528 -1Q498 -1 479 5T445 23T420 53T394 95Q371 134 351 170T308 246Q293 272 283 287T265 313Q263 315 262 315T258 317H245Q243 315 242 315T239 312L196 131Q189 100 187 82T186 53T194 39T210 34L241 29Q251 28 251 16Q251 11 250 6T246 -3Q214 -2 176 -1T105 0Q89 0 71 0T33 -1T-6 -2T-41 -3Q-41 1 -41 4T-42 11Q-42 19 -40 22T-30 28L5 34Q14 35 21 39T34 53T46 82T59 131L155 547Q162 578 164 596T166 625T158 638T142 644L111 649Q101 650 101 662Q101 673 105 681Q137 680 175 679T246 678Q262 678 281 678T319 679T358 680T393 681Q393 677 393 674T394 667Q394 653 381 650L347 644Q338 642 331 639T318 625T306 596T293 547L251 369Q251 365 255 361Q265 361 273 361T291 366T313 380T341 406L478 548Q506 576 518 594T533 622T529 638T514 645L493 650Q488 652 486 654T483 662Q483 667 484 672T488 681Q520 680 546 679T603 678Q634 678 658 679T714 681Q714 677 714 674T715 667Z"  />
<glyph unicode="L" horiz-adv-x="579" d="M512 172Q508 159 502 135T489 86T477 38T469 5Q466 0 461 -2Q454 0 417 0Q380 0 317 0H104Q72 0 32 -1T-41 -3Q-41 1 -41 4T-42 11Q-42 19 -40 22T-30 28L5 34Q14 35 21 39T34 53T46 82T59 131L155 547Q162 578 164 596T166 625T158 638T142 644L111 649Q101 650 101 662Q101 673 105 681Q137 680 175 679T246 678Q262 678 282 678T324 679T366 680T403 681Q403 677 403 674T404 667Q404 651 391 650L350 644Q340 642 333 639T319 626T306 598T293 549L205 168Q197 132 194 109T193 73T206 55T234 50H304Q339 50 363 53T404 63T432 84T453 118L477 171Q482 182 495 178Q499 176 504 175T512 172Z"  />
<glyph unicode="M" horiz-adv-x="890" d="M902 667Q902 653 890 650L856 644Q847 642 841 639T828 625T818 597T809 549L753 131Q749 100 748 82T748 53T757 39T773 34L807 29Q817 28 817 16Q817 11 816 6T812 -3Q796 -3 776 -3T736 -2T697 -1T661 0Q629 0 596 -1T531 -3Q531 1 531 4T530 11Q530 25 542 28L575 34Q584 35 590 39T601 53T610 81T618 131L667 496H665L388 -10Q385 -11 375 -11T352 -12Q340 -12 330 -12T318 -10L206 485H204L140 201Q128 149 124 118T122 68T131 43T150 34L180 29Q190 28 190 16Q190 5 186 -3Q170 -3 158 -3T135 -2T112 -1T84 0Q52 0 25 -1T-34 -3Q-34 1 -34 4T-35 11Q-35 19 -33 22T-23 28L12 34Q21 35 28 42T43 67T59 118T81 205L161 551Q170 589 161 613T118 644L91 649Q81 650 81 662Q81 667 82 672T86 681Q93 681 106 681T134 680T161 679T182 678Q188 678 204 678Q220 678 238 678T273 679T298 681Q302 679 306 676Q308 660 314 629T328 563Q353 448 372 358L416 154H418L640 562Q660 599 672 628T693 676Q699 680 703 681Q709 680 721 680T748 679T774 678Q787 678 795 678Q819 678 848 678T901 681Q901 677 901 674T902 667Z"  />
<glyph unicode="N" horiz-adv-x="754" d="M789 667Q789 653 776 650L742 644Q733 642 726 636T711 611T694 560T673 473L589 96Q589 94 589 91T590 86Q605 56 616 45T637 30L643 28Q648 26 650 24T653 16Q653 5 649 -3Q634 -2 617 -1T585 0Q562 0 534 0T489 -3Q483 -1 480 2Q472 22 457 50T422 115L212 503H210L149 225Q136 166 132 130T130 73T142 44T164 34L204 29Q214 28 214 16Q214 5 210 -3Q178 -2 145 -1T81 0Q50 0 25 -1T-32 -3Q-32 1 -32 4T-33 11Q-33 25 -20 28L14 34Q23 35 30 42T45 67T62 118T83 205L163 565Q165 573 162 578Q142 613 126 626T84 645L63 650Q57 652 56 654T54 662Q54 673 58 681Q65 681 78 681T105 680T131 679T152 678Q158 678 173 678Q189 678 207 678T241 679T266 681Q272 679 275 676Q283 657 297 627T331 563L543 173H545L607 453Q620 511 624 547T626 605T614 634T592 644L551 649Q545 650 544 653T542 662Q542 673 546 681Q578 680 609 679T672 678Q703 678 729 679T788 681Q788 677 788 674T789 667Z"  />
<glyph unicode="O" horiz-adv-x="750" d="M577 425Q577 464 570 504T544 577T494 630T417 651Q374 651 339 632T277 580T230 506T197 420T178 332T172 254Q172 215 179 175T205 101T254 48T332 27Q375 27 410 46T472 98T519 173T552 259T571 346T577 425ZM724 400Q724 313 694 237T611 104T484 15T322 -18Q259 -18 205 4T111 66T49 160T26 279Q26 366 56 442T139 575T266 663T428 696Q491 696 545 674T639 613T701 519T724 400Z"  />
<glyph unicode="P" horiz-adv-x="587" d="M589 520Q589 463 567 419T508 343T420 296T315 280Q293 280 282 284T272 301Q273 307 276 314T282 327Q287 326 293 326T305 325Q342 325 368 344T412 392T438 456T446 524Q446 581 421 610T355 639Q343 639 335 637T318 633Q311 617 306 596T294 549L196 131Q189 100 187 82T187 53T197 39T214 34L261 29Q271 28 271 16Q271 11 270 6T266 -3Q250 -3 229 -3T186 -2T143 -1T106 0Q90 0 71 0T33 -1T-6 -2T-41 -3Q-41 1 -41 4T-42 11Q-42 19 -40 22T-30 28L5 34Q14 35 21 39T34 53T46 82T59 131L155 547Q162 578 164 596T166 625T158 638T142 644L111 649Q101 650 101 662Q101 673 105 681Q137 680 167 679T235 678Q275 678 313 681T398 685Q437 685 471 675T532 645T573 593T589 520Z"  />
<glyph unicode="Q" horiz-adv-x="749" d="M581 425Q581 464 574 504T548 577T498 630T420 651Q377 651 342 632T280 580T232 506T199 421T180 334T173 256Q173 217 180 177T206 105T256 52T334 31Q377 31 412 50T474 102T522 175T555 260T574 347T581 425ZM1182 -97Q1182 -132 1161 -164T1105 -220T1022 -259T923 -274Q866 -274 809 -266T691 -245T564 -216T423 -182Q319 -158 251 -144T132 -126T44 -125T-36 -142Q-41 -137 -44 -128T-45 -111Q-22 -104 5 -96T57 -80L267 -12V-10Q215 -1 171 24T96 87T47 174T29 280Q29 367 58 443T141 575T268 663T430 696Q493 696 547 674T640 613T702 519T725 400Q725 301 688 219T583 79Q526 31 461 9T329 -31L200 -65V-67Q239 -69 276 -73T355 -83T446 -97T561 -117Q611 -126 677 -138T808 -161T931 -179T1021 -187Q1061 -187 1087 -177T1113 -133Q1113 -116 1104 -106T1094 -81Q1094 -67 1109 -57T1142 -47Q1159 -47 1170 -57T1182 -97Z"  />
<glyph unicode="R" horiz-adv-x="706" d="M447 535Q447 562 440 582T420 614T393 633T361 639Q350 639 339 638T318 633Q311 616 306 595T294 549L251 371Q251 369 252 366T255 362H296Q361 362 402 409Q423 434 435 467T447 535ZM646 16Q646 11 645 6T641 -3Q635 -3 620 -3T585 -2Q567 -2 550 -2T523 -1Q492 0 473 6T440 25T416 56T393 100Q372 141 355 177T315 256Q295 295 281 315Q279 317 278 318T275 320H245Q243 318 242 317T239 314L196 131Q189 100 187 82T186 53T194 39T210 34L241 29Q251 28 251 16Q251 11 250 6T246 -3Q214 -2 176 -1T105 0Q89 0 71 0T33 -1T-6 -2T-41 -3Q-41 1 -41 4T-42 11Q-42 19 -40 22T-30 28L5 34Q14 35 21 39T34 53T46 82T59 131L155 547Q162 578 164 596T166 625T158 638T142 644L111 649Q101 650 101 662Q101 673 105 681Q137 680 170 679T235 678Q279 678 321 681T408 685Q442 685 475 677T533 651T574 605T590 538Q590 497 575 465T535 410T478 371T412 348Q411 345 410 344T410 340Q436 300 462 253T515 157Q531 129 543 108T567 70T591 45T620 32L636 29Q646 26 646 16Z"  />
<glyph unicode="S" horiz-adv-x="511" d="M502 679Q494 638 488 588T478 498Q474 497 470 497Q466 497 462 497Q448 497 446 510L441 548Q435 595 401 622T321 649Q296 649 278 640T247 617T228 585T222 547Q222 523 230 503T250 467T279 435T312 404Q335 383 357 361T396 315T425 262T436 201Q436 151 416 111T361 42T283 -2T191 -18Q134 -18 80 1Q58 9 51 11T36 13Q31 13 28 10T20 4T12 -3T0 -6Q-2 -6 -4 -6T-9 -5Q-1 41 6 99T18 208Q22 209 26 209Q30 209 34 209Q48 209 50 195L55 157Q62 97 99 64T194 31Q244 31 275 61T307 139Q307 163 300 183T279 222T248 257T211 293Q191 312 171 333T134 377T107 427T96 488Q96 531 112 569T157 635T227 679T317 696Q344 696 366 693T413 681Q433 675 444 670T463 664Q468 664 471 666T476 672T483 677T493 680Q495 680 497 680T502 679Z"  />
<glyph unicode="T" horiz-adv-x="624" d="M672 697Q669 682 665 658T657 607T650 554T644 511Q640 510 635 510Q631 510 627 510Q611 510 611 523L608 569Q607 582 602 593T585 611T551 622T497 626H450Q445 617 439 595T423 534L330 131Q323 100 321 82T319 53T327 39T343 34L374 29Q384 28 384 16Q384 5 380 -3Q348 -2 309 -1T238 0Q222 0 204 0T166 -1T127 -2T92 -3Q92 1 92 4T91 11Q91 25 104 28L138 34Q147 35 154 39T167 53T179 82T192 131L286 534Q295 572 298 593T301 626H229Q197 626 177 623T145 612T126 593T112 567L93 522Q91 516 88 513T77 510Q73 510 68 511T58 513Q62 533 67 557T76 605T85 653T92 697Q94 697 97 697T102 698Q109 698 112 696T118 690T123 683T132 678Q141 676 169 675T239 674H522Q563 674 592 675T630 678Q636 679 638 682T644 689T650 695T662 698Q664 698 667 698T672 697Z"  />
<glyph unicode="U" horiz-adv-x="686" d="M740 667Q740 653 727 650L695 644Q685 642 678 636T664 611T648 559T626 470L564 207Q539 100 473 41T289 -18Q238 -18 196 -5T122 32T74 89T56 161Q56 187 60 213T70 264L136 547Q143 578 145 596T147 625T139 638T123 644L92 649Q82 650 82 662Q82 667 83 672T87 681Q119 680 156 679T226 678Q242 678 261 678T299 679T338 680T374 681Q374 677 374 674T375 667Q375 659 373 656T363 650L328 644Q319 642 312 639T299 625T287 596T274 547L200 230Q192 198 192 164Q192 110 226 77T321 44Q362 44 392 58T443 97T478 154T500 223L550 441Q564 502 570 540T575 601T565 633T542 644L505 649Q495 650 495 662Q495 673 499 681Q531 680 558 679T624 678Q656 678 681 679T739 681Q739 677 739 674T740 667Z"  />
<glyph unicode="V" horiz-adv-x="663" d="M724 667Q724 653 711 650L690 645Q680 643 671 637T653 618T632 586T605 538L309 -6Q306 -8 293 -9T263 -10Q248 -10 235 -9T220 -6L126 538Q120 570 115 590T105 621T93 638T77 645L60 649Q50 651 50 662Q50 673 54 681Q86 680 121 679T188 678Q220 678 256 679T325 681Q325 677 325 674T326 667Q326 650 314 649L280 644Q269 642 263 638T254 622T254 590T261 538L325 143H327L524 520Q533 538 542 558T554 597T553 628T530 645L504 649Q494 650 494 662Q494 673 498 681Q530 680 557 679T616 678Q647 678 669 679T723 681Q723 677 723 674T724 667Z"  />
<glyph unicode="W" horiz-adv-x="964" d="M1023 667Q1023 653 1010 650L989 645Q979 643 970 637T952 618T931 586T904 538L609 -6Q606 -8 594 -9T568 -10Q554 -10 542 -9T528 -6L470 265H468L311 -6Q308 -8 296 -9T270 -10Q256 -10 244 -9T230 -6L124 538Q118 570 113 590T103 621T91 638T76 645L58 649Q48 651 48 662Q48 673 52 681Q84 680 118 679T185 678Q217 678 249 679T314 681Q314 677 314 674T315 667Q315 652 303 649L276 644Q266 642 260 638T252 622T251 590T259 538L332 142H334L452 341Q453 345 453 351L414 538Q407 571 402 591T391 622T379 639T364 646L347 649Q337 651 337 662Q337 673 341 681Q373 680 400 679T460 678Q491 678 515 679T572 681Q572 677 572 674T573 667Q573 652 560 649L545 645Q536 643 531 638T525 622T526 590T535 538L551 455H552L596 534Q624 585 629 612T612 645L597 649Q587 651 587 662Q587 673 591 681Q620 679 640 679T687 678Q713 678 733 679T776 681Q776 677 776 674T777 667Q777 653 764 650L749 646Q737 643 728 636T710 617T689 585T661 538L573 387Q571 380 572 376L623 138H624L831 534Q857 585 858 613T836 646L820 649Q810 650 810 662Q810 673 814 681Q842 680 866 679T916 678Q943 678 968 679T1022 681Q1022 677 1022 674T1023 667Z"  />
<glyph unicode="X" horiz-adv-x="658" d="M678 667Q678 653 666 650L646 645Q637 643 628 638T606 620T577 588T535 536L393 359Q391 353 393 348L486 140Q500 109 510 89T528 57T544 40T561 33L579 29Q589 26 589 16Q589 5 585 -3Q553 -2 517 -1T448 0Q416 0 379 -1T310 -3Q310 1 310 4T309 11Q309 26 321 29L349 34Q359 36 364 41T370 57Q370 68 364 88T343 140L281 284H279L167 133Q135 89 129 65T150 34L174 29Q185 26 185 16Q185 11 184 6T180 -3Q148 -2 123 -1T66 0Q50 0 38 0T13 -1T-13 -2T-42 -3Q-42 1 -42 4T-43 11Q-43 25 -30 28L-11 33Q-1 36 8 42T30 60T59 92T100 142L253 332V342L166 538Q152 570 142 590T123 621T108 638T91 645L73 649Q63 651 63 662Q63 673 67 681Q99 680 135 679T204 678Q236 678 273 679T342 681Q342 677 342 674T343 667Q343 652 331 649L304 644Q294 642 289 637T283 621Q283 610 289 590T309 538L365 407H367L470 545Q502 589 508 613T486 644L462 649Q452 651 452 662Q452 667 453 672T457 681Q489 680 515 679T573 678Q604 678 624 679T677 681Q677 677 677 674T678 667Z"  />
<glyph unicode="Y" horiz-adv-x="614" d="M682 667Q682 653 670 650L649 645Q640 643 631 638T609 621T581 589T540 536L396 342Q386 328 382 315T373 286L337 131Q330 100 328 82T326 53T334 39T350 34L381 29Q391 28 391 16Q391 5 387 -3Q355 -2 317 -1T247 0Q231 0 212 0T174 -1T135 -2T100 -3Q100 1 100 4T99 11Q99 25 112 28L146 34Q155 35 162 39T176 53T188 82T201 131L236 282Q240 299 238 312T231 338L155 538Q143 571 133 591T115 622T98 638T82 645L64 649Q54 651 54 662Q54 673 58 681Q90 680 125 679T192 678Q224 678 261 679T331 681Q331 677 331 674T332 667Q332 652 319 649L294 644Q284 642 279 638T274 621Q274 610 280 591T298 538L356 377H358L470 539Q506 592 508 615T485 644L464 649Q453 652 453 662Q453 667 454 672T458 681Q490 680 515 679T573 678Q604 678 626 679T681 681Q681 677 681 674T682 667Z"  />
<glyph unicode="Z" horiz-adv-x="653" d="M636 681Q639 668 634 653Q628 646 618 634T595 605T569 571T542 536L169 51V50H375Q410 50 435 53T479 66T511 90T537 130L560 176Q565 188 578 184Q582 182 587 181T596 178Q592 165 585 141T571 90T557 40T548 5Q545 0 540 -2Q513 -1 475 -1T395 0Q355 0 316 0Q278 0 250 0Q170 0 99 0T-21 -3Q-22 2 -22 10T-21 25Q-14 32 -4 44T19 72T45 106T73 142L446 626V628H285Q250 628 227 625T188 614T164 595T147 567L127 522Q125 517 122 514T111 511Q107 512 102 512T92 515Q96 531 102 556T115 607T126 658T133 698Q135 698 137 698T142 699Q156 699 159 692T173 681Q182 679 211 679T283 678H425Q478 678 534 678T636 681Z"  />
<glyph unicode="[" horiz-adv-x="338" d="M365 677Q365 658 349 658H279Q259 658 248 656T229 644T215 613T201 555L76 7Q68 -30 65 -50T66 -81T82 -93T116 -96H176Q189 -96 189 -114Q189 -127 185 -137Q171 -137 157 -137T129 -136H36Q24 -136 12 -136T-13 -137L177 699Q189 699 201 699T226 698H312Q326 698 337 698T363 699Q365 689 365 677Z"  />
<glyph unicode="\" horiz-adv-x="300" d="M238 -7Q230 -11 213 -13T186 -16L54 705Q62 709 79 712T106 715L238 -7H238Z"  />
<glyph unicode="]" horiz-adv-x="338" d="M127 -137Q115 -137 103 -137T78 -136H-8Q-22 -136 -34 -136T-60 -137Q-62 -127 -62 -115Q-62 -96 -46 -96H24Q43 -96 55 -94T75 -82T89 -51T103 7L227 555Q235 592 238 612T237 643T221 655T187 658H128Q115 658 115 676Q115 689 119 699Q133 699 147 699T175 698H268Q280 698 292 698T317 699L127 -137Z"  />
<glyph unicode="^" horiz-adv-x="500" d="M379 205L229 557L79 205H11L200 631H259L447 205H379Z"  />
<glyph unicode="_" horiz-adv-x="500" d="M-62 -224V-158H438V-224H-62Z"  />
<glyph unicode="`" horiz-adv-x="500" d="M319 513Q317 507 311 504T298 503Q273 537 246 579T199 654Q193 664 187 676T181 700Q181 717 198 730T232 743Q251 743 259 728T274 691Q279 673 285 651T297 606T308 558T319 513Z"  />
<glyph unicode="a" horiz-adv-x="544" d="M259 374H258L162 206Q162 202 165 201H279Q282 203 284 206L259 374ZM487 15Q487 4 482 -3Q453 -2 420 -1T358 0Q329 0 300 -1T240 -3Q239 2 239 10Q239 26 252 27L281 32Q289 33 294 37T300 50T301 78T295 125L291 154Q290 156 286 158H139Q134 156 132 154L118 130Q89 81 90 59T112 32L133 27Q139 25 140 23T142 15Q142 4 137 -3Q114 -2 88 -1T41 0Q19 0 -6 -1T-51 -3Q-52 2 -52 10Q-52 24 -40 27L-20 32Q-12 34 -5 39T11 55T31 85T60 132L264 477Q265 479 280 480T314 481Q332 481 347 480T364 477L421 125Q426 95 430 78T439 52T449 38T463 32L478 27Q484 25 485 23T487 15Z"  />
<glyph unicode="b" horiz-adv-x="530" d="M324 155Q324 193 303 209T253 226H206Q205 225 203 225Q202 225 201 223L175 110Q164 64 166 50T189 36H220Q246 36 265 46T298 73T317 111T324 155ZM343 372Q343 399 329 416T286 434Q277 434 267 434T252 431Q247 419 244 404T236 373L210 266Q210 265 212 264T214 261H253Q271 261 286 267T316 291Q329 307 336 328T343 372ZM475 372Q475 346 464 326T436 291T397 265T353 250V249Q396 244 427 219T458 147Q458 121 447 97T417 53Q387 21 345 11T258 0H92Q62 0 25 -1T-43 -3Q-44 2 -44 10Q-44 26 -32 27L0 32Q9 33 15 37T27 51T38 78T51 125L102 341Q109 370 111 388T112 415T104 429T89 434L60 439Q51 440 51 451Q51 462 56 469Q87 468 121 467T186 466Q202 466 223 467T265 468T308 470T346 471Q370 471 393 466T434 449T464 418T475 372Z"  />
<glyph unicode="c" horiz-adv-x="518" d="M478 463Q476 450 474 432T469 394T464 355T461 323Q458 322 453 322Q448 322 445 322Q431 322 430 334L427 370Q425 387 415 400T390 422T358 435T325 440Q277 440 243 414T188 347T157 262T147 178Q147 147 153 120T173 71T211 38T268 26Q312 26 348 43T404 103L417 134Q421 145 437 140Q440 138 443 138T450 135Q445 122 440 104T429 66T419 29T411 -1Q409 -2 407 -2T402 -1Q394 -1 391 3T381 8Q376 8 369 5T351 -1Q325 -9 294 -13T237 -18Q184 -18 143 -3T72 40T28 106T12 189Q12 246 31 299T87 394T181 459T311 484Q331 484 353 481T403 470Q419 465 432 459T450 453Q457 453 458 458T470 464Q472 464 474 464T478 463Z"  />
<glyph unicode="d" horiz-adv-x="598" d="M417 277Q417 307 410 334T388 383T351 416T299 429Q286 429 272 428T251 425Q247 417 243 403T235 372L176 114Q166 70 168 56T193 42H230Q274 42 308 61T367 115Q391 149 404 191T417 277ZM558 270Q558 225 538 173T474 77Q439 42 387 21T271 0H92Q62 0 26 -1T-43 -3Q-44 2 -44 10Q-44 26 -32 27L0 32Q9 33 15 37T27 51T38 78T51 125L102 341Q109 370 111 387T112 415T105 428T89 434L60 439Q54 440 53 442T51 451Q51 462 56 469Q87 468 116 467T176 466Q188 466 211 467T259 468T309 470T348 471Q392 471 430 458T496 420T541 357T558 270Z"  />
<glyph unicode="e" horiz-adv-x="471" d="M430 462Q429 456 427 441T423 408T420 373T417 346Q414 345 409 345T401 346Q388 346 387 358L384 386Q383 394 381 401T371 413T349 422T312 426H252Q249 420 245 405T233 361L211 266Q211 262 213 260H266Q304 260 315 265T332 285L339 302Q341 309 351 309Q355 309 361 309T369 307Q367 300 364 291T359 271T354 252T351 237Q349 225 344 204T337 166Q334 165 329 165Q324 165 319 165Q311 165 311 173L312 193Q312 198 311 203T305 211T288 217T257 220H204Q201 218 199 215L178 126Q167 76 170 59T198 41H266Q288 41 303 43T330 52T349 69T365 94L379 120Q385 130 396 126Q399 124 403 123T411 120Q408 111 403 94T394 59T385 26T379 3Q378 0 374 -1Q369 0 344 0Q319 0 275 0H92Q62 0 26 -1T-43 -3Q-44 2 -44 10Q-44 26 -32 27L0 32Q9 33 15 37T27 51T38 78T51 125L102 341Q109 370 111 387T112 415T105 428T89 434L60 439Q54 440 53 442T51 451Q51 462 56 469Q87 468 122 467T187 466H333Q375 466 397 466Q420 466 426 467Q429 466 430 462Z"  />
<glyph unicode="f" horiz-adv-x="442" d="M429 462Q428 456 426 441T423 408T420 373T417 346Q414 345 409 345T401 346Q387 346 386 358L383 386Q382 394 380 401T370 414T348 423T311 426H252Q249 420 245 405T233 361L211 266Q211 263 213 261H265Q303 261 314 266T331 286L337 302Q339 309 350 309Q354 309 359 309T367 307Q365 300 363 291T358 272T353 253T350 238Q349 232 347 223T343 202T338 180T334 160Q331 159 326 159Q322 159 317 159Q306 159 308 168L310 193Q311 198 310 203T304 212T287 218T255 221H204Q201 219 199 216L178 125Q171 95 170 78T171 51T180 37T198 32L232 27Q238 26 239 24T241 15Q241 4 236 -3Q205 -2 165 -1T94 0Q64 0 27 -1T-43 -3Q-44 2 -44 10Q-44 26 -32 27L0 32Q9 33 15 37T27 51T38 78T51 125L102 341Q109 370 111 387T112 415T105 428T89 434L60 439Q54 440 53 442T51 451Q51 462 56 469Q87 468 122 467T187 466H332Q374 466 396 466T424 468Q428 466 429 462Z"  />
<glyph unicode="g" horiz-adv-x="564" d="M523 182Q523 168 510 165L488 160Q480 158 475 156T465 146T456 127T448 95L444 75Q438 48 438 36T439 18Q438 16 437 14T434 10Q403 -3 358 -10T255 -18Q140 -18 76 37T12 187Q12 245 30 299T87 394T182 459T317 484Q343 484 367 482T417 472Q437 467 455 460T477 453Q485 453 486 458T499 464Q501 464 503 464T507 463Q504 449 501 430T495 392T489 353T485 321Q482 320 477 320T468 321Q454 321 454 333V369Q454 384 444 397T418 419T379 434T334 440Q283 440 248 415T190 351T157 266T147 176Q147 147 153 120T174 71T211 36T263 23Q276 23 289 26T310 34Q317 47 322 74L326 95Q333 131 328 144T305 160L270 164Q264 165 263 168T261 177Q261 188 266 195Q297 194 332 193T398 192Q428 192 459 193T522 195Q523 190 523 182Z"  />
<glyph unicode="h" horiz-adv-x="650" d="M653 456Q653 440 641 439L609 434Q600 432 594 429T581 415T570 388T557 341L507 125Q500 96 498 78T497 51T504 37T520 32L549 27Q555 26 556 24T558 15Q558 4 553 -3Q522 -2 487 -1T421 0Q391 0 354 -1T286 -3Q285 2 285 10Q285 26 297 27L328 32Q337 33 343 37T356 50T367 78T380 125L402 218Q402 219 399 222H205Q201 220 200 218L178 125Q171 96 169 78T167 51T175 37T191 32L220 27Q226 26 227 24T229 15Q229 4 224 -3Q193 -2 158 -1T92 0Q62 0 26 -1T-43 -3Q-44 2 -44 10Q-44 26 -32 27L0 32Q9 33 15 37T27 51T38 78T51 125L102 341Q109 370 111 387T112 415T105 428T89 434L60 439Q54 440 53 442T51 451Q51 462 56 469Q87 468 122 467T188 466Q218 466 255 467T323 469Q324 464 324 456Q324 440 312 439L280 434Q271 432 265 429T252 415T241 388T228 341L212 274Q212 273 215 270H410Q413 271 414 274L431 341Q438 370 440 387T441 415T433 428T417 434L389 439Q383 440 382 442T380 451Q380 462 385 469Q416 468 451 467T517 466Q547 466 583 467T652 469Q653 464 653 456Z"  />
<glyph unicode="i" horiz-adv-x="325" d="M326 456Q326 440 314 439L282 434Q273 432 267 429T254 415T243 388T230 341L180 125Q173 96 171 78T170 51T177 37T193 32L222 27Q228 26 229 24T231 15Q231 4 226 -3Q195 -2 160 -1T94 0Q64 0 28 -1T-41 -3Q-42 2 -42 10Q-42 26 -30 27L2 32Q11 33 17 37T29 51T40 78T53 125L104 341Q111 370 113 387T114 415T107 428T91 434L62 439Q56 440 55 442T53 451Q53 462 58 469Q89 468 124 467T190 466Q220 466 257 467T325 469Q326 464 326 456Z"  />
<glyph unicode="j" horiz-adv-x="295" d="M314 456Q314 440 302 439L270 434Q261 432 255 429T242 415T231 388T218 341L146 29Q116 -102 52 -173T-100 -244Q-145 -244 -163 -230T-182 -204Q-182 -196 -179 -186T-169 -167T-155 -152T-139 -146Q-129 -146 -122 -153T-107 -170T-91 -186T-71 -194Q-59 -194 -50 -185T-31 -154T-13 -100T8 -17L92 341Q99 370 101 387T102 415T95 428T79 434L50 439Q44 440 43 442T41 451Q41 462 46 469Q77 468 112 467T178 466Q208 466 245 467T313 469Q314 464 314 456Z"  />
<glyph unicode="k" horiz-adv-x="574" d="M548 456Q548 442 536 439L515 434Q506 432 497 427T475 410T442 381T393 334L323 266Q322 264 322 263T323 259Q331 248 341 232T362 197T384 158T406 119Q427 81 444 59T484 31L501 28Q507 27 508 24T510 15Q510 10 509 6T506 -2Q502 -2 486 -2T449 -1Q429 -1 410 -1Q391 -1 384 -1Q364 -1 351 3T327 16T310 38T293 68Q279 95 268 116T243 167Q225 201 216 213Q214 215 214 214Q214 214 212 215H203Q202 214 201 214T199 212L178 125Q171 96 169 78T168 51T175 37T191 32L220 27Q226 26 227 24T229 15Q229 4 224 -3Q193 -2 158 -1T92 0Q62 0 26 -1T-43 -3Q-44 2 -44 10Q-44 26 -32 27L0 32Q9 33 15 37T27 51T38 78T51 125L102 341Q109 370 111 387T112 415T105 428T89 434L60 439Q54 440 53 442T51 451Q51 462 56 469Q87 468 122 467T188 466Q218 466 255 467T323 469Q324 464 324 456Q324 440 312 439L280 434Q271 432 265 429T252 415T241 388T228 341L209 256Q209 253 212 250Q218 250 224 250T236 254T251 263T271 280L338 347Q380 389 388 409T379 435L364 439Q358 441 357 443T355 451Q355 462 360 469Q383 468 406 467T449 466Q471 466 499 467T547 469Q548 464 548 456Z"  />
<glyph unicode="l" horiz-adv-x="465" d="M402 137Q399 127 394 109T383 70T374 31T367 4Q365 0 362 -1Q357 0 331 0Q305 0 260 0H91Q61 0 25 -1T-43 -3Q-44 2 -44 10Q-44 26 -32 27L0 32Q9 33 15 37T27 51T38 78T51 125L102 341Q109 370 111 387T112 415T105 428T89 434L60 439Q54 440 53 442T51 451Q51 462 56 469Q87 468 122 467T188 466Q203 466 221 466T259 467T298 468T333 469Q334 464 334 456Q334 440 321 439L285 434Q275 433 268 429T254 416T241 388T228 341L179 127Q168 77 170 59T197 41H251Q294 41 315 52T351 95L370 135Q374 145 388 142Q395 141 402 137Z"  />
<glyph unicode="m" horiz-adv-x="699" d="M690 456Q690 442 678 439L650 434Q642 432 635 429T623 417T614 392T605 349L575 125Q571 95 570 78T571 51T580 38T596 32L617 27Q623 25 624 23T626 15Q626 10 625 5T622 -3Q591 -2 559 -1T497 0Q467 0 435 -1T372 -3Q371 2 371 10Q371 24 384 27L409 32Q418 34 424 37T435 50T443 77T451 125L479 321H477L297 -7Q295 -8 283 -8T257 -9Q244 -9 232 -9T219 -7L148 308H146L119 185Q109 141 104 113T99 67T106 43T125 32L145 27Q151 25 152 23T154 15Q154 4 149 -3Q135 -3 125 -3T106 -2T88 -1T64 0Q36 0 15 -1T-35 -3Q-36 2 -36 10Q-36 24 -24 27L0 32Q10 34 17 40T32 60T46 101T63 169L105 350Q111 374 111 390Q111 406 107 415T94 428T76 435L54 439Q48 440 47 442T45 451Q45 462 50 469Q77 468 100 467T150 466Q154 466 166 466Q179 466 193 466T221 467T240 468Q244 466 245 465Q247 454 250 432T259 385L315 122H316L460 385Q474 411 482 432T496 465Q500 467 503 468Q507 468 518 468T541 467T564 466Q575 466 580 466Q606 466 634 467T689 469Q690 464 690 456Z"  />
<glyph unicode="n" horiz-adv-x="575" d="M580 456Q580 442 567 439L544 434Q533 432 525 424T511 401T498 360T483 297L429 68Q428 66 430 60Q440 40 448 35T461 29L468 27Q478 26 478 15Q478 4 473 -3Q463 -2 442 -1T409 0Q399 0 386 0Q374 0 362 0T339 -1T322 -2Q320 -1 319 -1T316 1Q310 15 301 34T278 80L149 332H148L115 184Q105 141 102 113T100 68T112 43T137 32L165 27Q171 26 172 24T174 15Q174 4 169 -3Q138 -2 117 -1T65 0Q35 0 14 -1T-39 -3Q-40 2 -40 10Q-40 24 -28 27L-4 32Q7 34 15 42T29 65T42 106T57 169L108 387Q110 392 108 397Q97 417 89 424T62 435L45 438Q39 440 38 442T36 451Q36 462 41 469Q52 468 74 467T108 466Q112 466 127 466T161 467T196 468T218 469Q222 467 224 465Q229 451 238 431T260 386L389 132H390L424 282Q434 325 437 353T439 398T428 423T403 434L375 439Q369 440 368 442T366 451Q366 456 367 461T370 469Q401 468 423 467T475 466Q490 466 502 466T526 467T550 468T579 469Q580 464 580 456Z"  />
<glyph unicode="o" horiz-adv-x="580" d="M407 295Q407 320 403 346T387 395T356 431T305 445Q260 445 230 415T181 343T154 253T146 171Q146 146 150 120T165 71T196 35T247 21Q277 21 300 35T342 71T372 123T392 183T403 243T407 295ZM540 273Q540 210 519 157T458 64T363 4T241 -18Q190 -18 148 -3T75 40T29 107T12 194Q12 257 33 310T94 402T189 462T311 484Q362 484 404 469T477 426T523 360T540 273Z"  />
<glyph unicode="p" horiz-adv-x="491" d="M476 352Q476 309 460 277T415 222T348 189T266 178Q237 178 228 182T219 195Q219 200 222 206T227 217Q232 216 238 216Q245 216 253 216Q278 216 295 230T323 266T339 311T344 357Q344 392 330 412T286 433Q278 433 268 432T253 429Q248 417 244 402T235 371L178 125Q171 95 170 78T171 51T180 37T198 32L232 27Q238 26 239 24T241 15Q241 4 236 -3Q205 -2 165 -1T94 0Q64 0 27 -1T-43 -3Q-44 2 -44 10Q-44 26 -32 27L0 32Q9 33 15 37T27 51T38 78T51 125L102 341Q109 370 111 387T112 415T105 428T89 434L60 439Q54 440 53 442T51 451Q51 462 56 469Q87 468 119 467T182 466Q211 466 253 468T335 471Q363 471 388 464T433 442T464 405T476 352Z"  />
<glyph unicode="q" horiz-adv-x="580" d="M407 295Q407 320 403 346T387 395T356 431T305 445Q260 445 230 415T181 343T154 253T146 171Q146 146 150 120T165 71T196 35T247 21Q277 21 300 35T342 71T372 123T392 183T403 243T407 295ZM1006 -90Q1006 -126 984 -154T928 -202T852 -232T770 -243Q726 -243 679 -235T583 -215T485 -189T389 -161Q338 -147 285 -133T177 -109T70 -100T-33 -117Q-42 -105 -42 -89Q-26 -84 -7 -79T28 -68L183 -14V-13Q104 4 58 59T12 194Q12 257 33 310T94 402T189 462T311 484Q362 484 404 469T477 426T523 360T540 273Q540 207 518 154T455 63Q421 31 378 11T286 -20L174 -47L175 -49Q242 -53 318 -66T492 -102Q532 -111 581 -122T682 -144T782 -160T872 -167Q902 -167 923 -157T944 -122Q944 -114 942 -109T936 -98T931 -88T928 -76Q928 -61 944 -54T972 -46Q992 -46 999 -59T1006 -90Z"  />
<glyph unicode="r" horiz-adv-x="568" d="M342 367Q342 399 328 416T284 434Q275 434 266 433T252 430Q247 417 243 402T235 371L207 254L210 248H248Q288 248 315 281Q329 298 335 321T342 367ZM508 15Q508 10 507 6T504 -2Q500 -2 483 -2Q466 -2 446 -2Q426 -2 407 -2T381 -1Q360 0 347 5T325 20T310 44T295 76Q282 105 274 125T252 176Q247 187 243 195T235 210Q234 211 230 213H202Q201 212 200 212T198 210L178 125Q171 96 169 78T168 51T175 37T191 32L220 27Q226 26 227 24T229 15Q229 4 224 -3Q193 -2 158 -1T92 0Q62 0 26 -1T-43 -3Q-44 2 -44 10Q-44 26 -32 27L0 32Q9 33 15 37T27 51T38 78T51 125L102 341Q109 370 111 387T112 415T105 428T89 434L60 439Q54 440 53 442T51 451Q51 462 56 469Q87 468 121 467T186 466Q220 466 263 468T343 471Q367 471 390 466T433 448T463 417T475 369Q475 341 465 319T437 281T399 253T355 238Q354 235 354 233Q369 207 384 178T414 118Q434 77 449 56T483 31L500 28Q506 27 507 24T508 15Z"  />
<glyph unicode="s" horiz-adv-x="416" d="M390 473Q387 458 385 441T380 405T376 370T373 339Q370 338 366 338Q362 338 359 338Q351 338 349 341T346 351L341 379Q338 395 330 407T309 427T281 439T252 443Q230 443 216 437T194 422T183 402T180 382Q180 353 198 332T245 287Q262 273 279 259T311 227T334 189T343 141Q343 109 330 80T292 30T229 -5T144 -18Q97 -18 55 -6Q40 -1 34 0T24 2Q16 2 13 -3T-2 -9H-9Q-6 7 -3 27T3 68T8 109T11 146Q14 147 18 147T25 146Q38 146 39 135L42 109Q48 65 76 46T145 26Q167 26 182 32T206 47T219 67T223 89Q223 123 200 146T147 195Q132 208 117 221T90 251T71 287T64 331Q64 362 76 389T112 438T169 471T247 484Q292 484 326 474Q343 469 349 466T360 463Q368 463 370 468T383 474Q385 474 386 474T390 473Z"  />
<glyph unicode="t" horiz-adv-x="482" d="M494 481Q492 472 489 452T482 410T476 366T472 333Q469 332 464 332Q460 332 457 332Q442 332 442 343L441 383Q441 392 438 399T428 412T406 421T369 425H336Q333 419 328 403T316 359L261 125Q254 96 252 78T251 51T258 37T274 32L303 27Q309 26 310 24T312 15Q312 4 307 -3Q276 -2 241 -1T175 0Q145 0 108 -1T40 -3Q39 2 39 10Q39 26 51 27L82 32Q91 33 97 37T110 50T121 78T134 125L188 359Q194 387 196 402T199 425H147Q126 425 114 422T93 413T79 399T70 380L56 349Q54 344 51 342T40 340Q37 341 32 341T23 343Q26 356 30 374T38 412T45 450T50 481H58Q69 481 72 476T83 468Q90 466 108 466T156 465H386Q415 465 434 465T460 468Q467 470 470 475T484 481H494H494Z"  />
<glyph unicode="u" horiz-adv-x="540" d="M562 456Q562 442 549 439L527 434Q516 432 509 425T495 402T482 361T466 297L430 144Q413 72 367 30T225 -13Q133 -13 88 24T42 115Q42 132 44 149T51 183L89 341Q96 370 98 387T99 415T91 428T75 434L47 439Q41 440 40 442T38 451Q38 462 43 469Q74 468 109 467T175 466Q205 466 241 467T308 469Q309 464 309 456Q309 440 297 439L267 434Q258 432 252 429T239 415T228 388T215 341L174 163Q172 152 170 140T168 116Q168 84 187 61T253 37Q308 37 334 69T374 156L403 282Q413 324 417 352T421 397T412 423T391 434L366 439Q360 440 359 442T357 451Q357 456 358 461T361 469Q376 469 387 469T409 468T431 467T457 466Q487 466 508 467T561 469Q562 464 562 456Z"  />
<glyph unicode="v" horiz-adv-x="518" d="M546 456Q546 442 534 439L516 434Q508 432 501 427T485 410T465 381T438 334L250 -10Q248 -12 234 -13T201 -14Q184 -14 170 -13T154 -10L93 341Q88 371 85 388T77 414T67 428T52 434L35 439Q29 441 28 443T26 451Q26 456 27 461T30 469Q59 468 93 467T156 466Q185 466 214 467T274 469Q275 464 275 456Q275 440 263 439L233 434Q225 432 220 429T214 416T213 389T219 341L255 101H257L377 336Q403 386 403 407Q403 429 383 434L363 439Q357 441 356 443T354 451Q354 456 355 461T358 469Q381 468 408 467T455 466Q477 466 501 467T545 469Q546 464 546 456Z"  />
<glyph unicode="w" horiz-adv-x="745" d="M773 456Q773 442 761 439L743 434Q734 432 727 427T712 411T694 382T667 334L479 -10Q477 -12 464 -13T435 -14Q420 -14 407 -13T392 -10L355 166H354L252 -10Q250 -12 237 -13T208 -14Q192 -14 179 -13T164 -10L93 341Q87 371 83 388T75 414T66 427T51 434L35 439Q29 441 28 443T26 451Q26 456 27 461T30 469Q59 468 84 467T138 466Q168 466 194 467T252 469Q253 464 253 456Q253 443 242 439L226 434Q219 432 215 428T209 415T210 388T217 341L262 100H264L339 227Q340 229 340 234L318 341Q312 371 308 388T299 414T290 428T279 434L267 439Q259 441 259 451Q259 462 264 469Q279 469 289 469T308 468T328 467T353 466Q368 466 379 466T401 467T424 468T451 469Q452 464 452 456Q452 443 440 439L432 436Q426 434 423 430T418 417T419 393T426 350L433 312H434L455 349Q480 394 483 412T475 435L464 439Q456 441 456 451Q456 462 461 469Q483 468 494 467T526 466Q548 466 562 467T597 469Q598 464 598 456Q598 443 586 439L574 435Q566 432 560 427T545 411T526 381T498 334L453 258Q452 256 452 254Q452 252 452 250L484 100H485L608 336Q634 385 637 407T627 435L614 439Q609 441 608 443T607 451Q607 456 607 461T610 469Q633 468 651 467T689 466Q711 466 731 467T772 469Q773 464 773 456Z"  />
<glyph unicode="x" horiz-adv-x="501" d="M505 456Q505 442 492 439L474 434Q466 432 457 426T437 407T411 377T375 334L302 246Q300 242 302 238L350 125Q362 97 370 80T386 53T400 39T415 32L430 27Q436 25 437 23T439 15Q439 4 434 -3Q405 -2 375 -1T315 0Q285 0 255 -1T194 -3Q193 2 193 10Q193 24 206 27L227 32Q236 34 240 38T244 52T238 79T220 124L193 189H192L149 131Q128 103 117 85T103 56T104 40T119 32L136 27Q142 25 143 23T145 15Q145 4 140 -3Q117 -2 92 -1T47 0Q25 0 0 -1T-45 -3Q-46 2 -46 10Q-46 24 -33 27L-10 32Q6 36 27 58T89 132L167 229Q168 232 168 236L123 341Q111 369 103 386T88 413T75 427T59 434L41 439Q35 441 34 443T32 451Q32 462 37 469Q66 468 98 467T159 466Q188 466 218 467T279 469Q280 464 280 456Q280 442 268 439L247 434Q238 432 234 428T230 413T236 386T253 341L276 285H278L316 335Q337 363 348 381T362 410T361 426T346 434L329 439Q323 441 322 443T320 451Q320 456 321 461T324 469Q347 468 372 467T417 466Q439 466 461 467T504 469Q505 464 505 456Z"  />
<glyph unicode="y" horiz-adv-x="482" d="M511 456Q511 442 498 439L480 434Q472 432 463 426T442 409T416 379T382 334L304 227Q297 217 294 209T287 188L272 125Q265 96 263 78T262 51T270 37T286 32L314 27Q320 26 321 24T323 15Q323 4 318 -3Q287 -2 252 -1T186 0Q156 0 120 -1T51 -3Q50 2 50 10Q50 26 63 27L94 32Q103 33 110 37T123 51T134 78T146 125L160 187Q163 200 162 208T157 226L114 341Q103 369 95 386T80 413T66 427T50 434L33 439Q27 441 26 443T25 451Q25 456 26 461T29 469Q58 468 89 467T149 466Q179 466 208 467T269 469Q270 464 270 456Q270 442 258 439L237 434Q228 432 225 428T222 414T228 387T244 342L272 261H274L324 335Q342 362 352 380T366 409T365 426T352 434L335 439Q329 441 328 443T326 451Q326 462 331 469Q354 468 378 467T423 466Q445 466 467 467T510 469Q511 464 511 456Z"  />
<glyph unicode="z" horiz-adv-x="500" d="M469 468Q470 463 470 456Q470 450 468 445Q458 435 441 412T404 365L154 42V40H296Q318 40 334 42T362 51T382 67T397 93L415 134Q417 140 421 141T433 140Q441 138 447 135Q444 126 439 107T428 67T417 29T411 4Q409 0 406 -1Q368 0 316 0Q265 0 202 0Q174 0 144 0Q114 0 85 0Q57 0 31 0T-14 -2Q-15 3 -15 9T-14 21Q-3 32 13 54T50 102L300 425V426H185Q144 426 130 414T108 381L93 344Q91 338 88 337T77 335Q74 335 69 336T61 338Q64 351 68 370T77 409T85 449T90 481H100Q111 481 113 476T123 469Q130 467 147 467T194 466H305Q351 466 391 466Q431 466 469 468Z"  />
<glyph unicode="{" horiz-adv-x="338" d="M359 687Q359 682 358 676T354 666Q284 667 251 641T212 560Q210 534 209 502T207 446Q206 414 201 387T182 339T147 301T89 276V274Q115 260 131 238T148 183Q148 156 138 128T114 71T91 14T80 -40Q80 -74 107 -93T180 -110Q180 -114 180 -119T181 -129Q181 -137 177 -144T162 -151Q136 -152 111 -145T67 -123T36 -87T24 -40Q24 -12 35 17T59 75T84 130T96 179Q96 219 69 239T3 261Q3 267 4 278T8 295Q57 298 85 311T128 346T147 395T151 455Q151 478 151 506T154 560Q156 599 171 627T212 672T270 698T339 707Q348 707 353 704T359 687Z"  />
<glyph unicode="|" horiz-adv-x="250" d="M9 -270Q-2 -272 -18 -272Q-34 -272 -45 -270L186 730Q197 732 212 732Q228 732 239 730L9 -270Z"  />
<glyph unicode="}" horiz-adv-x="338" d="M315 295Q315 289 314 278T310 261Q261 258 233 245T190 210T171 161T167 101Q167 78 167 50T164 -4Q162 -43 147 -71T106 -116T48 -142T-21 -151Q-30 -151 -35 -148T-41 -131Q-41 -126 -40 -120T-36 -110Q34 -111 67 -85T106 -4Q108 22 109 54T111 110Q112 142 117 169T136 217T171 255T229 280V282Q203 296 187 318T170 373Q170 400 180 428T204 485T227 542T238 596Q238 630 211 649T138 666Q138 670 138 675T137 685Q137 693 141 700T156 707Q182 708 207 701T251 679T282 643T294 596Q294 568 283 539T258 481T233 426T222 377Q222 337 249 317T315 295Z"  />
<glyph unicode="~" horiz-adv-x="500" d="M465 224Q442 198 412 182T346 166Q317 166 289 176T233 200T178 223T123 234Q82 234 55 215T4 167V238Q26 263 57 279T123 295Q152 295 180 285T236 262T291 239T345 228Q386 228 413 247T465 294V224H465Z"  />
<glyph unicode="&#xA0;" horiz-adv-x="250" />
<glyph unicode="&#xA1;" horiz-adv-x="230" d="M133 324Q133 290 133 251Q133 212 132 174T128 101T121 43Q116 12 96 1T46 -11Q19 -11 0 -1T-19 36Q-19 53 -14 70T2 113Q10 134 21 160T44 215T69 272T94 324Q101 326 113 326Q126 326 133 324ZM189 425Q189 397 170 378T123 358Q97 358 80 375T62 418Q62 446 80 464T127 483Q153 483 171 467T189 425Z"  />
<glyph unicode="&#xA2;" horiz-adv-x="500" d="M313 434Q312 437 311 437Q273 431 245 404T198 338T170 257T161 178Q161 135 174 99T219 43Q221 44 223 46L313 434H313ZM469 463Q467 450 465 432T460 395T455 357T452 325Q449 324 444 324T436 325Q423 325 422 336L419 366Q416 391 401 406T365 430Q361 428 360 426L269 31Q269 28 273 26Q312 26 347 46T398 105L408 131Q410 137 414 138T426 137Q430 136 433 135T440 132Q436 120 431 102T420 64T410 28T402 -1Q400 -2 397 -2T392 -1Q384 -1 381 3T370 8Q364 8 356 5T338 -2Q299 -15 261 -16Q258 -17 257 -20L238 -100Q233 -108 213 -108Q191 -108 190 -100L208 -20Q208 -16 206 -15Q164 -10 131 7T75 51T40 113T28 188Q28 244 46 297T98 391T184 458T301 484Q306 484 311 484T321 484Q325 486 326 488L345 571Q348 576 353 577T370 578Q381 578 386 577T393 571L372 480Q372 476 375 475Q383 473 390 471T406 466Q416 462 426 458T440 453Q447 453 448 458T459 463H469H469Z"  />
<glyph unicode="&#xA3;" horiz-adv-x="500" d="M507 691Q507 682 501 672T486 653T467 639T447 633Q430 633 422 644T406 670T388 696T359 708Q332 708 316 685T289 623T274 537T263 440Q264 437 270 433H411Q416 430 416 422Q416 413 414 401T404 385H264Q262 384 260 383T257 378Q247 309 215 248T128 139V137Q134 139 144 140T164 142Q189 142 215 129T266 101T314 73T358 60Q375 60 385 71T396 98Q396 110 389 119T373 136T357 153T349 174Q349 183 355 192T370 207T389 218T409 222Q433 222 446 200T459 154Q459 121 446 90T409 35T355 -3T292 -18Q262 -18 234 -4T181 29T133 61T91 76Q86 76 83 75Q75 61 65 47T44 19T19 -2T-10 -10Q-24 -10 -33 0T-42 24Q-42 43 -31 58T-4 86T30 107T63 122Q92 179 107 244T127 378Q126 381 120 385H35Q30 387 30 396Q30 405 32 417T42 433H126Q130 434 132 440Q140 496 157 552T206 655T285 729T399 758Q417 758 436 754T470 742T496 721T507 691Z"  />
<glyph unicode="&#xA4;" horiz-adv-x="500" d="M367 241Q367 268 357 292T328 334T286 362T235 372Q208 372 184 362T142 334T114 292T103 241Q103 214 113 190T142 148T184 120T235 109Q262 109 286 119T328 148T356 190T367 241ZM411 20L345 86Q322 69 295 60T235 50Q203 50 175 60T124 87L57 20L15 64L81 130Q64 153 55 181T45 241Q45 272 54 300T81 351L15 417L58 461L124 395Q147 412 175 421T235 431Q266 431 294 422T345 395L412 462L454 418L388 352Q405 329 415 301T426 241Q426 209 416 181T388 129L454 65L411 20Z"  />
<glyph unicode="&#xA5;" horiz-adv-x="500" d="M495 456Q495 442 483 439L466 434Q459 432 453 428T438 414T418 389T391 351L349 291Q349 288 353 284H444Q448 282 449 278T448 265Q446 254 443 246T434 235H314Q309 233 306 229Q301 223 298 214T293 197L285 162Q285 158 288 155H413Q417 153 418 149T418 136Q416 125 413 117T404 106H277Q274 105 270 99Q262 61 267 49T289 33L314 28Q320 26 322 25T324 16Q324 11 323 6T319 -3Q287 -2 254 -1T190 0Q159 0 124 -1T56 -3Q55 2 55 11Q55 25 67 28L95 33Q112 36 121 48T139 99Q139 103 134 106H16Q12 108 11 112T11 125Q13 136 16 144T25 155H148Q151 156 155 162L163 195Q167 213 161 228Q161 231 155 235H45Q39 238 42 254Q44 265 47 273T56 284H133Q135 285 135 287T138 291L115 352Q105 377 99 392T87 416T77 428T64 434L51 438Q46 440 44 442T41 451Q41 462 46 469Q75 468 100 467T153 466Q183 466 211 467T271 469Q272 464 272 456Q272 448 270 445T260 439L245 434Q237 432 234 428T230 415T235 391T247 352L274 266H275L334 354Q349 376 356 390T366 414T365 427T354 434L338 438Q332 440 330 442T327 451Q327 462 332 469Q359 468 379 467T417 466Q434 466 449 467T494 469Q495 464 495 456Z"  />
<glyph unicode="&#xA6;" horiz-adv-x="250" d="M74 0V278H137V0H74ZM74 400V678H137V400H74Z"  />
<glyph unicode="&#xA7;" horiz-adv-x="456" d="M308 50Q308 107 283 158T226 260T170 361T144 470Q144 499 153 528H152Q122 501 104 460T86 380Q86 341 98 306T128 237T167 170T207 103T237 34T249 -39Q249 -54 247 -69T239 -99H240Q271 -72 289 -31T308 50ZM418 579Q418 561 406 541T372 521Q357 521 346 531T322 552T297 574T264 584Q246 584 232 576T209 556T195 527T190 495Q190 450 217 401T278 299T338 189T366 70Q366 14 342 -36T277 -125T184 -185T77 -208Q63 -208 43 -206T4 -196T-28 -178T-42 -149Q-42 -140 -39 -130T-29 -110T-13 -95T7 -89Q23 -89 35 -99T60 -121T87 -144T122 -154Q160 -154 180 -127T200 -66Q200 -35 188 -4T156 61T116 129T75 201T44 278T31 361Q31 415 54 465T115 553T203 614T308 637Q321 637 340 635T376 626T405 608T418 579Z"  />
<glyph unicode="&#xA8;" horiz-adv-x="500" d="M221 652Q221 625 204 605T158 585Q132 585 118 601T104 643Q104 670 121 690T166 710Q192 710 206 694T221 652ZM396 652Q396 625 379 605T333 585Q307 585 293 601T279 643Q279 670 296 690T341 710Q367 710 381 694T396 652Z"  />
<glyph unicode="&#xA9;" horiz-adv-x="765" d="M554 264Q551 241 548 213T542 163Q540 160 537 158Q510 147 475 142T405 136Q358 136 317 150T244 191T194 255T176 340Q176 389 194 427T244 491T316 530T402 543Q434 543 469 538T535 521Q539 519 540 517Q541 495 544 468T549 418Q547 417 543 416T535 415Q525 415 523 422Q512 469 485 486T418 504Q384 504 359 493T318 461T293 414T285 354Q285 269 326 222T432 175Q475 175 496 196T528 260Q531 268 542 266Q548 266 554 264ZM685 339Q685 404 662 461T597 561T499 628T378 653Q312 653 257 629T163 562T102 463T80 340Q80 275 103 218T168 118T265 51T387 26Q453 26 508 50T602 117T663 217T685 339ZM737 339Q737 263 711 198T639 85T528 10T387 -18Q312 -18 247 9T133 85T56 199T28 340Q28 416 54 481T126 594T237 669T378 696Q453 696 518 669T632 593T709 480T737 339Z"  />
<glyph unicode="&#xAA;" horiz-adv-x="398" d="M266 476Q266 501 241 501Q216 501 194 479T154 425T127 363T117 314Q117 303 121 295T136 286Q147 286 163 300T197 335T228 379T251 422L261 450Q266 463 266 476ZM399 558Q394 548 388 531T375 496L311 320Q307 310 305 299T302 280Q302 275 303 272T310 268Q320 268 336 282T369 317Q374 315 378 312T384 303Q386 297 375 284Q363 271 349 257T319 231T284 211T247 203Q221 203 213 215T204 245Q204 262 211 285T226 326H225Q212 309 194 288T156 247T113 216T70 203Q40 203 27 222T13 267Q13 310 36 360T95 452T176 523T265 551Q279 551 292 547T314 532H315Q316 534 317 538T319 542Q324 553 330 556T350 560Q362 560 375 560T399 558Z"  />
<glyph unicode="&#xAB;" horiz-adv-x="448" d="M219 414Q210 399 196 379T166 337T134 294T105 257Q104 254 104 248Q111 234 120 213T139 169T158 123T175 82Q173 74 165 69T149 66Q134 81 113 105T69 155T27 207T-8 253Q-8 258 -7 262Q14 282 40 305T95 352T150 397T197 433Q205 435 212 429T219 414ZM395 414Q386 399 372 379T342 337T310 294T281 257Q280 254 280 248Q287 234 296 213T315 169T334 123T351 82Q349 74 341 69T325 66Q310 81 289 105T245 155T203 207T168 253Q168 258 169 262Q190 282 216 305T271 352T326 397T373 433Q381 435 388 429T395 414Z"  />
<glyph unicode="&#xAC;" horiz-adv-x="500" d="M398 -16V203H-3V265H458V-16H398Z"  />
<glyph unicode="&#xAE;" horiz-adv-x="765" d="M438 426Q438 467 417 484T367 501Q361 501 352 501T336 498Q334 494 332 482T330 442V357Q331 355 331 355T332 353H368Q398 353 418 371T438 426ZM612 157Q612 147 611 144Q602 145 580 146T541 147Q522 147 506 147Q491 147 474 145Q462 158 449 177T423 220T398 267T373 315Q371 317 371 317Q371 318 369 319H332Q330 318 330 317T330 314V243Q330 204 332 190T349 174L374 170Q383 169 383 157Q383 152 381 144Q355 145 331 145T281 146Q256 146 233 146T183 144Q181 152 181 157Q181 169 189 170L213 174Q227 176 229 190T232 243V436Q232 475 230 489T213 505L189 509Q181 510 181 522Q181 528 183 536Q209 535 226 535T269 534Q283 534 302 534T342 535T379 536T406 537Q468 537 504 512T540 435Q540 400 519 376T468 340Q466 337 468 334Q479 311 497 283T535 228Q555 199 568 187T593 172L604 171Q612 170 612 157ZM685 339Q685 404 662 461T597 561T499 628T378 653Q312 653 257 629T163 562T102 463T80 340Q80 275 103 218T168 118T265 51T387 26Q453 26 508 50T602 117T663 217T685 339ZM737 339Q737 263 711 198T639 85T528 10T387 -18Q312 -18 247 9T133 85T56 199T28 340Q28 416 54 481T126 594T237 669T378 696Q453 696 518 669T632 593T709 480T737 339Z"  />
<glyph unicode="&#xAF;" horiz-adv-x="500" d="M371 666Q371 661 370 652T367 633T361 616T353 607H135Q129 611 129 624Q129 629 130 638T134 657T139 674T147 683H365Q371 679 371 666Z"  />
<glyph unicode="&#xB0;" horiz-adv-x="328" d="M253 510Q253 525 250 540T240 567T221 587T191 595Q168 595 152 583T125 553T110 513T105 472Q105 457 108 442T117 415T136 395T166 387Q189 387 205 399T232 429T248 468T253 510ZM303 518Q303 486 294 455T266 400T220 360T158 345Q132 345 113 354T81 380T62 418T55 464Q55 496 64 527T92 582T137 622T199 637Q225 637 244 628T277 602T296 564T303 518Z"  />
<glyph unicode="&#xB1;" horiz-adv-x="500" d="M3 0V63H464V0H3ZM263 254V104H204V254H3V316H203V467H263V316H464V254H263Z"  />
<glyph unicode="&#xB2;" horiz-adv-x="332" d="M303 306Q301 298 298 285T291 258T284 231T278 210Q277 208 275 207T271 204Q259 205 242 205T205 206Q186 206 167 206T131 205Q115 205 94 205Q74 205 54 205Q35 205 19 205Q3 205 -4 204Q-5 206 -5 211Q-5 217 -5 223T-4 234T-2 242Q30 269 63 298T125 360T170 429T188 505Q188 541 171 559T130 577Q110 577 94 567T64 543Q61 545 59 546T55 550Q50 555 51 559T60 572Q80 598 111 618T187 638Q207 638 226 631T261 611T285 578T295 533Q295 494 273 458T219 390T152 329T89 276V274H215Q243 274 255 279T275 300Q277 304 280 306T289 308Q293 308 303 306Z"  />
<glyph unicode="&#xB3;" horiz-adv-x="332" d="M296 553Q296 530 285 512T255 481T217 458T178 441V440Q200 443 220 438T255 422T279 392T288 350Q288 312 271 279T223 221T152 181T66 166Q22 166 -4 182T-30 218Q-30 231 -18 245T9 260Q18 260 25 251T41 232T61 213T92 204Q116 204 133 217T162 249T179 290T185 331Q185 398 123 398Q109 398 98 396T79 393Q67 393 65 406V418Q89 426 112 436T154 459T184 488T196 527Q196 553 180 565T144 578Q122 578 106 570T77 550Q74 552 70 556T65 563Q62 570 73 580Q97 604 127 620T196 637Q235 637 265 616T296 553Z"  />
<glyph unicode="&#xB4;" horiz-adv-x="500" d="M360 704Q360 692 352 682T335 663Q292 621 248 581T158 503Q152 502 147 506T140 517Q153 538 169 562T202 611T233 658T259 695Q271 712 282 727T313 743Q320 743 328 740T343 731T355 719T360 704Z"  />
<glyph unicode="&#xB5;" horiz-adv-x="589" d="M534 127Q544 119 541 111T529 94Q511 73 490 53T446 17T398 -8T352 -18Q318 -18 306 0T293 40Q293 59 300 85T318 137L339 196H338Q319 168 290 133T232 68Q190 24 155 3T83 -18Q77 -18 72 -17T62 -13Q56 -15 53 -19Q44 -53 45 -79T50 -126T60 -167T64 -207Q62 -238 43 -258T-9 -278Q-36 -278 -50 -264T-64 -225Q-64 -208 -60 -190T-50 -156Q-42 -130 -30 -94T-5 -17T23 64T51 140L107 293Q114 312 121 333T129 365Q129 382 116 382Q100 382 79 360T38 313Q30 317 24 321Q19 326 20 332T31 352Q46 371 65 391T106 428T152 455T201 466Q228 466 246 452T265 409Q265 385 253 352T229 285L192 179Q186 162 180 143T173 113Q173 95 187 95Q202 95 220 112T268 164Q306 209 337 257T387 355L406 406Q412 423 417 438T424 464Q438 465 453 464T481 460Q515 455 527 443T526 391L443 160Q435 139 429 117T422 83Q422 66 436 66Q452 66 476 87T522 135Q526 133 534 127Z"  />
<glyph unicode="&#xB6;" horiz-adv-x="644" d="M687 665Q687 654 684 641T674 624H593Q582 624 575 620T561 604T549 574T536 526L434 84Q416 7 391 -59T331 -174T254 -250T157 -278Q112 -278 88 -261T63 -223Q63 -213 67 -202T80 -180T97 -162T118 -155Q130 -155 140 -164T161 -183T183 -202T209 -211Q239 -211 262 -184T304 -112T336 -12T361 101L371 154Q356 153 336 152T297 150Q249 150 206 164T130 207T79 276T60 372Q60 435 83 492T149 592T255 660T395 685Q417 685 444 684T502 682T562 679T619 678H682Q687 675 687 665Z"  />
<glyph unicode="&#xB7;" horiz-adv-x="250" d="M180 275Q180 240 157 214T97 188Q65 188 45 209T24 262Q24 297 47 323T107 349Q139 349 159 328T180 275Z"  />
<glyph unicode="&#xB8;" horiz-adv-x="500" d="M349 4Q339 -4 324 -15T297 -40Q286 -52 286 -62Q286 -72 292 -88Q298 -105 305 -122T313 -159Q313 -181 301 -200T271 -233T230 -255T188 -263Q147 -263 147 -238Q147 -228 152 -218T168 -207Q180 -207 190 -215T214 -223Q226 -223 233 -215T241 -196Q241 -181 233 -163T216 -128Q210 -114 210 -101T220 -73Q229 -60 243 -47T274 -20T307 4T335 23L349 4H349Z"  />
<glyph unicode="&#xB9;" horiz-adv-x="325" d="M283 635Q280 627 277 615T271 591T265 567T261 550L200 297Q195 276 194 264T193 244T199 235T209 232L236 230Q241 230 242 227T244 218Q244 211 240 203Q217 204 188 204T136 205Q125 205 110 205Q95 205 79 205T46 204T18 203V215Q18 229 28 230L64 232Q70 232 74 234T83 244T91 263T100 297L156 537Q160 558 140 550L74 526Q71 528 70 532T66 542Q63 553 70 557L183 603Q208 613 232 625T273 638Q277 638 278 638T283 635Z"  />
<glyph unicode="&#xBA;" horiz-adv-x="360" d="M259 467Q259 484 252 499T225 515Q210 515 196 502T169 467T146 421T129 370T118 322T114 287Q114 270 120 255T147 239Q162 239 176 252T203 287T226 333T243 384T255 432T259 467ZM352 426Q352 387 337 347T296 275T233 223T156 203Q97 203 59 234T20 328Q20 367 35 407T76 479T139 531T216 551Q245 551 270 543T313 520T341 481T352 426Z"  />
<glyph unicode="&#xBB;" horiz-adv-x="448" d="M233 246Q233 241 232 237Q211 217 184 194T129 147T74 102T27 66Q19 64 12 71T5 86Q14 101 28 121T58 162T90 205T119 242Q121 248 121 251Q114 265 105 286T86 330T67 376T50 417Q52 425 60 430T75 433Q90 418 111 394T155 344T198 292T233 246ZM409 246Q409 241 408 237Q387 217 360 194T305 147T250 102T203 66Q195 64 188 71T181 86Q190 101 204 121T235 162T267 205T296 242Q297 245 297 251Q290 265 281 286T262 330T243 376T226 417Q228 425 236 430T251 433Q266 418 287 394T331 344T374 292T409 246Z"  />
<glyph unicode="&#xBC;" horiz-adv-x="783" d="M606 307L467 151V150H568Q570 151 571 153L608 307H606ZM283 635Q280 627 277 615T271 591T265 567T261 550L200 297Q195 276 194 264T193 244T199 235T209 232L236 230Q241 230 242 227T244 218Q244 211 240 203Q217 204 188 204T136 205Q125 205 110 205Q95 205 79 205T46 204T18 203V215Q18 229 28 230L64 232Q70 232 74 234T83 244T91 263T100 297L156 537Q160 558 140 550L74 526Q71 528 70 532T66 542Q63 553 70 557L183 603Q208 613 232 625T273 638Q277 638 278 638T283 635ZM143 -27Q135 -23 124 -14T108 3L652 646Q660 643 671 634T687 616L143 -27ZM736 431Q730 411 726 392T716 350L671 154Q671 153 674 150H720Q723 148 722 140T720 127Q719 121 717 108T708 92H660L656 88L628 -28Q625 -32 609 -33T578 -35Q564 -35 547 -33T529 -27L556 87Q556 89 553 92H460Q440 92 424 91T387 89Q387 98 391 113T398 134Q406 141 427 163T472 211L598 350Q621 375 638 395T668 431Q671 432 681 432T702 433Q713 433 723 433T736 431Z"  />
<glyph unicode="&#xBD;" horiz-adv-x="848" d="M283 635Q280 627 277 615T271 591T265 567T261 550L200 297Q195 276 194 264T193 244T199 235T209 232L236 230Q241 230 242 227T244 218Q244 211 240 203Q217 204 188 204T136 205Q125 205 110 205Q95 205 79 205T46 204T18 203V215Q18 229 28 230L64 232Q70 232 74 234T83 244T91 263T100 297L156 537Q160 558 140 550L74 526Q71 528 70 532T66 542Q63 553 70 557L183 603Q208 613 232 625T273 638Q277 638 278 638T283 635ZM143 -27Q135 -23 124 -14T108 3L652 646Q660 643 671 634T687 616L143 -27ZM769 101Q767 93 764 80T757 53T750 26T744 5Q743 3 741 2T737 -1Q725 0 708 0T671 1Q652 1 633 1T597 0Q581 0 560 0Q540 0 520 0Q501 0 485 0Q469 0 462 -1Q461 1 461 6Q461 12 461 18T462 29T464 37Q496 64 529 93T591 155T636 224T654 300Q654 336 637 354T596 372Q576 372 560 362T530 338Q527 340 525 341T521 345Q514 352 526 367Q546 393 577 413T653 433Q673 433 692 426T727 406T751 373T761 328Q761 289 739 253T686 184T619 123T556 71V69H681Q709 69 721 74T741 95Q743 99 746 101T755 103Q759 103 769 101Z"  />
<glyph unicode="&#xBE;" horiz-adv-x="809" d="M632 307L492 151V150H593Q596 152 597 153L634 307H632ZM296 553Q296 530 285 512T255 481T217 458T178 441V440Q200 443 220 438T255 422T279 392T288 350Q288 312 271 279T223 221T152 181T66 166Q22 166 -4 182T-30 218Q-30 231 -18 245T9 260Q18 260 25 251T41 232T61 213T92 204Q116 204 133 217T162 249T179 290T185 331Q185 398 123 398Q109 398 98 396T79 393Q67 393 65 406V418Q89 426 112 436T154 459T184 488T196 527Q196 553 180 565T144 578Q122 578 106 570T77 550Q74 552 70 556T65 563Q62 570 73 580Q97 604 127 620T196 637Q235 637 265 616T296 553ZM168 -27Q160 -23 150 -14T134 3L678 646Q686 643 697 634T713 616L168 -27ZM761 431Q755 411 751 392T741 350L697 154Q697 153 700 150H745Q748 148 748 140T746 127Q745 121 743 108T734 92H685L681 88L654 -28Q651 -32 635 -33T604 -35Q590 -35 573 -33T555 -27L582 87Q582 89 579 92H486Q466 92 450 91T413 89Q413 98 416 113T423 134Q431 141 452 163T498 211L623 350Q646 375 664 395T694 431Q697 432 706 432T727 433Q739 433 748 433T761 431Z"  />
<glyph unicode="&#xBF;" horiz-adv-x="279" d="M204 218Q204 189 193 171T165 142T129 123T93 110T65 95T54 72Q54 62 61 55T81 47Q91 47 99 51T116 59T132 68T149 72Q165 72 172 56T180 20Q180 9 170 -1T133 -11Q104 -11 76 -2T27 24T-8 65T-22 119Q-22 149 -10 168T19 198T58 217T96 230T126 245T138 268Q138 279 130 286T109 294Q97 294 91 291T74 288Q52 288 52 315Q52 330 59 339T80 349Q100 349 122 338T162 309T192 267T204 218ZM225 424Q225 396 206 377T159 358Q133 358 116 374T98 417Q98 445 116 463T163 482Q189 482 207 466T225 424Z"  />
<glyph unicode="&#xC0;" horiz-adv-x="690" d="M360 548H358L213 296Q213 292 218 289H387Q391 292 394 296L360 548ZM632 16Q632 11 631 6T627 -3Q595 -2 559 -1T490 0Q458 0 421 -1T351 -3Q351 1 351 4T350 11Q350 25 362 28L395 34Q406 36 412 40T421 56T421 88T415 140L402 232Q401 236 395 238H187Q183 237 178 232L124 140Q107 111 100 92T94 60T102 42T123 34L153 29Q163 28 163 16Q163 5 159 -3Q127 -2 101 -1T43 0Q27 0 15 0T-8 -1T-31 -2T-60 -3Q-60 1 -60 4T-61 11Q-61 25 -49 28L-30 33Q-20 36 -12 42T6 61T26 93T55 140L377 685Q380 687 394 688T424 689Q440 689 453 688T469 685L552 140Q557 107 561 87T571 56T584 40T600 33L622 29Q632 28 632 16ZM444 723Q444 716 440 711T430 705Q412 714 393 724T355 744T319 765T288 783Q274 791 263 801T250 825Q247 841 258 858T286 880Q301 883 312 874T337 850Q347 839 360 824T388 792T417 757T444 723Z"  />
<glyph unicode="&#xC1;" horiz-adv-x="690" d="M360 548H358L213 296Q213 292 218 289H387Q391 292 394 296L360 548ZM632 16Q632 11 631 6T627 -3Q595 -2 559 -1T490 0Q458 0 421 -1T351 -3Q351 1 351 4T350 11Q350 25 362 28L395 34Q406 36 412 40T421 56T421 88T415 140L402 232Q401 236 395 238H187Q183 237 178 232L124 140Q107 111 100 92T94 60T102 42T123 34L153 29Q163 28 163 16Q163 5 159 -3Q127 -2 101 -1T43 0Q27 0 15 0T-8 -1T-31 -2T-60 -3Q-60 1 -60 4T-61 11Q-61 25 -49 28L-30 33Q-20 36 -12 42T6 61T26 93T55 140L377 685Q380 687 394 688T424 689Q440 689 453 688T469 685L552 140Q557 107 561 87T571 56T584 40T600 33L622 29Q632 28 632 16ZM629 834Q628 820 617 811T594 795Q570 781 549 770T507 748T464 727T418 705Q412 706 409 711T405 724Q423 742 438 757T468 786T499 815T533 847Q544 857 558 869T589 880Q605 879 617 865T629 834Z"  />
<glyph unicode="&#xC2;" horiz-adv-x="690" d="M360 548H358L213 296Q213 292 218 289H387Q391 292 394 296L360 548ZM632 16Q632 11 631 6T627 -3Q595 -2 559 -1T490 0Q458 0 421 -1T351 -3Q351 1 351 4T350 11Q350 25 362 28L395 34Q406 36 412 40T421 56T421 88T415 140L402 232Q401 236 395 238H187Q183 237 178 232L124 140Q107 111 100 92T94 60T102 42T123 34L153 29Q163 28 163 16Q163 5 159 -3Q127 -2 101 -1T43 0Q27 0 15 0T-8 -1T-31 -2T-60 -3Q-60 1 -60 4T-61 11Q-61 25 -49 28L-30 33Q-20 36 -12 42T6 61T26 93T55 140L377 685Q380 687 394 688T424 689Q440 689 453 688T469 685L552 140Q557 107 561 87T571 56T584 40T600 33L622 29Q632 28 632 16ZM585 723Q585 707 572 705Q555 714 537 725T500 749T466 771T437 790Q434 792 431 792T425 790Q390 767 353 746T276 705Q270 706 267 711T263 724Q297 758 325 785T389 845Q404 859 415 869T439 879Q450 879 457 871T478 849Q488 838 501 823T529 791T558 756T585 723Z"  />
<glyph unicode="&#xC3;" horiz-adv-x="690" d="M598 829Q598 809 589 790T565 757T531 734T492 725Q466 725 443 735T400 758T364 781T335 792Q325 792 319 787T312 770Q312 762 317 755T322 740Q322 729 311 723T290 717Q278 717 274 727T269 747Q269 767 278 785T302 818T336 841T375 850Q401 850 424 840T467 817T503 794T532 783Q542 783 548 789T555 806Q555 814 550 820T545 835Q545 846 556 851T577 857Q589 857 593 848T598 829ZM363 549H361L216 296Q216 292 221 289H390Q394 292 397 296L363 549ZM632 16Q632 11 631 6T627 -3Q595 -2 560 -1T493 0Q461 0 423 -1T353 -3Q353 1 353 4T352 11Q352 25 365 28L398 33Q409 35 415 40T424 56T424 88T418 140L405 233Q404 237 398 239H189Q185 238 180 233L134 154Q105 103 101 71T128 33L156 28Q166 27 166 16Q166 11 165 6T161 -3Q129 -2 104 -1T46 0Q30 0 18 0T-7 -1T-31 -2T-60 -3Q-60 1 -60 4T-61 11Q-61 19 -59 22T-49 28L-28 33Q-18 35 -10 41T8 61T29 93T58 140L380 685Q383 687 397 688T427 689Q443 689 456 688T472 685L554 140Q559 107 563 87T574 56T587 40T603 33L622 28Q628 26 630 24T632 16Z"  />
<glyph unicode="&#xC4;" horiz-adv-x="690" d="M392 800Q392 773 375 753T329 733Q303 733 289 749T275 791Q275 818 292 838T337 858Q363 858 377 842T392 800ZM567 800Q567 773 550 753T504 733Q478 733 464 749T450 791Q450 818 467 838T512 858Q538 858 552 842T567 800ZM363 549H361L216 296Q216 292 221 289H390Q394 292 397 296L363 549ZM632 16Q632 11 631 6T627 -3Q595 -2 560 -1T493 0Q461 0 423 -1T353 -3Q353 1 353 4T352 11Q352 25 365 28L398 33Q409 35 415 40T424 56T424 88T418 140L405 233Q404 237 398 239H189Q185 238 180 233L134 154Q105 103 101 71T128 33L156 28Q166 27 166 16Q166 11 165 6T161 -3Q129 -2 104 -1T46 0Q30 0 18 0T-7 -1T-31 -2T-60 -3Q-60 1 -60 4T-61 11Q-61 19 -59 22T-49 28L-28 33Q-18 35 -10 41T8 61T29 93T58 140L380 685Q383 687 397 688T427 689Q443 689 456 688T472 685L554 140Q559 107 563 87T574 56T587 40T603 33L622 28Q628 26 630 24T632 16Z"  />
<glyph unicode="&#xC5;" horiz-adv-x="690" d="M486 856Q486 873 478 890T450 907Q433 907 422 895T404 867T394 832T391 800Q391 783 398 767T426 750Q442 750 453 761T472 789T483 824T486 856ZM544 848Q544 822 535 800T510 760T472 733T423 723Q384 723 358 745T332 808Q332 834 341 857T366 897T405 924T454 934Q493 934 518 911T544 848ZM363 549H361L216 296Q216 292 221 289H390Q394 292 397 296L363 549ZM632 16Q632 11 631 6T627 -3Q595 -2 560 -1T493 0Q461 0 423 -1T353 -3Q353 1 353 4T352 11Q352 25 365 28L398 33Q409 35 415 40T424 56T424 88T418 140L405 233Q404 237 398 239H189Q185 238 180 233L134 154Q105 103 101 71T128 33L156 28Q166 27 166 16Q166 11 165 6T161 -3Q129 -2 104 -1T46 0Q30 0 18 0T-7 -1T-31 -2T-60 -3Q-60 1 -60 4T-61 11Q-61 19 -59 22T-49 28L-28 33Q-18 35 -10 41T8 61T29 93T58 140L380 685Q383 687 397 688T427 689Q443 689 456 688T472 685L554 140Q559 107 563 87T574 56T587 40T603 33L622 28Q628 26 630 24T632 16Z"  />
<glyph unicode="&#xC6;" horiz-adv-x="930" d="M503 636L292 353Q292 350 296 346H433Q439 350 441 353L507 636H503ZM889 672Q887 663 885 644T881 604T876 561T873 525Q869 524 864 524Q860 524 856 524Q842 524 840 537L836 575Q834 588 829 598T812 616T779 626T725 630H649Q644 621 638 601T621 538L578 359Q578 355 582 351H657Q685 351 702 353T730 359T745 370T753 386L763 414Q765 420 768 421T778 423Q783 423 788 422T796 420Q793 410 790 397T783 371T778 345T773 325Q769 308 764 281T754 229Q751 228 745 228Q740 228 735 228Q724 228 724 239L726 264Q727 271 726 278T716 291T692 299T646 303H571Q567 300 564 296L534 168Q526 132 523 109T522 73T535 55T563 50H656Q691 50 715 53T756 63T784 84T806 118L826 159Q831 170 843 166Q847 164 852 163T861 160Q857 147 851 125T839 80T828 36T820 5Q817 0 812 -2Q805 0 768 0Q731 0 668 0H435Q420 0 401 0T363 -1T324 -2T289 -3Q289 1 289 4T288 11Q288 19 290 22T300 28L335 34Q344 35 351 39T364 53T376 82T389 131L426 293Q426 297 422 301H257Q255 299 253 299T248 296L131 139Q92 86 88 62T112 33L147 29Q153 28 154 25T156 16Q156 5 152 -3Q120 -2 93 -1T34 0Q19 0 7 0T-18 -1T-43 -2T-72 -3Q-72 1 -72 4T-73 11Q-73 19 -71 22T-61 28L-46 32Q-37 34 -29 40T-9 59T17 91T54 138L363 538Q384 565 393 584T403 616T396 635T375 644L344 649Q334 650 334 662Q334 673 338 681Q370 680 395 679T452 678H747Q808 678 840 678Q873 678 882 680Q888 676 889 672Z"  />
<glyph unicode="&#xC7;" horiz-adv-x="682" d="M655 665Q652 646 649 623T642 575T636 526T631 483Q627 482 622 482H614Q600 482 598 495L594 537Q591 566 576 586T539 619T492 638T445 644Q373 644 322 606T237 511T188 387T172 262Q172 214 183 172T217 100T276 51T363 33Q432 33 481 63T558 150L576 186Q579 191 583 193T595 194Q599 192 603 191T611 187Q605 170 598 146T584 97T571 47T561 8Q559 7 556 7H551Q540 7 536 13T519 20Q510 20 496 15T469 5Q435 -6 400 -12Q383 -15 365 -16Q351 -28 341 -40Q330 -52 330 -62Q330 -72 336 -88Q342 -105 349 -122T357 -159Q357 -181 345 -200T315 -233T274 -255T232 -263Q191 -263 191 -238Q191 -228 196 -218T212 -207Q224 -207 234 -215T258 -223Q270 -223 277 -215T285 -196Q285 -181 277 -163T260 -128Q254 -114 254 -101T264 -73Q273 -60 287 -47T318 -20Q319 -19 321 -18Q260 -16 208 2Q152 23 112 61T48 153T25 274Q25 356 53 432T133 566T262 660T434 696Q469 696 497 691T555 675Q562 673 572 669T591 661T607 654T618 651Q623 651 625 653L630 658Q633 661 636 663T646 666Q648 666 650 666T655 665Z"  />
<glyph unicode="&#xC8;" horiz-adv-x="600" d="M559 672Q557 663 555 644T551 604T546 561T543 525Q539 524 534 524Q530 524 526 524Q512 524 510 537L505 575Q503 588 498 598T481 616T449 626T395 630H319Q314 621 308 601T291 538L254 382Q254 378 258 374H332Q360 374 377 376T404 382T419 393T428 409L438 434Q442 443 453 443Q458 443 463 442T471 440Q465 420 459 391T448 346Q444 329 439 302T429 249Q426 248 420 248Q415 248 410 248Q399 248 399 259L402 287Q403 294 402 301T392 314T368 322T322 326H247Q243 323 240 319L205 168Q197 132 194 109T193 73T206 55T234 50H326Q361 50 385 53T426 63T454 84T476 118L496 159Q501 170 513 166Q517 164 522 163T531 160Q527 147 521 125T509 80T498 36T490 5Q487 0 482 -2Q475 0 438 0Q401 0 338 0H105Q90 0 71 0T33 -1T-6 -2T-41 -3Q-41 1 -41 4T-42 11Q-42 19 -40 22T-30 28L5 34Q14 35 21 39T34 53T46 82T59 131L155 547Q162 578 164 596T166 625T158 638T142 644L111 649Q101 650 101 662Q101 673 105 681Q137 680 175 679T245 678H417Q478 678 510 678Q543 678 552 680Q558 676 559 672ZM403 723Q403 716 399 711T389 705Q371 714 352 724T314 744T278 765T247 783Q233 791 222 801T208 825Q205 841 216 858T244 880Q259 883 270 874T296 850Q306 839 319 824T347 792T376 757T403 723Z"  />
<glyph unicode="&#xC9;" horiz-adv-x="600" d="M559 672Q557 663 555 644T551 604T546 561T543 525Q539 524 539 524Q539 524 535 524Q527 524 524 527T519 537L505 575Q500 587 495 597T479 615T448 626T395 630H319Q314 621 308 601T291 538L254 382Q254 378 258 374H332Q360 374 377 376T404 382T419 393T428 409L438 434Q442 443 453 443Q458 443 463 442T471 440Q465 420 459 391T448 346Q444 329 439 302T429 249Q426 248 420 248Q415 248 410 248Q399 248 399 259L402 287Q403 294 402 301T392 314T368 322T322 326H247Q243 323 240 319L204 168Q195 132 192 109T191 73T204 55T233 50H326Q361 50 385 53T426 63T454 84T476 118L496 159Q501 170 513 166Q517 164 522 163T531 160Q527 147 521 125T509 80T498 36T490 5Q487 0 482 -2Q475 0 438 0Q401 0 338 0H105Q90 0 71 0T33 -1T-6 -2T-41 -3Q-41 1 -41 4T-42 11Q-42 19 -40 22T-30 28L5 34Q14 35 21 39T34 53T46 82T59 131L155 547Q162 578 164 596T166 625T158 638T142 644L111 649Q101 650 101 662Q101 673 105 681Q137 680 175 679T245 678H417Q478 678 510 678Q543 678 552 680Q558 676 559 672ZM572 834Q571 820 560 811T537 795Q513 781 492 770T450 748T407 727T361 705Q355 706 352 711T348 724Q366 742 381 757T412 786T443 815T477 847Q488 857 502 869T532 880Q548 879 560 865T572 834Z"  />
<glyph unicode="&#xCA;" horiz-adv-x="600" d="M559 672Q557 663 555 644T551 604T546 561T543 525Q539 524 534 524Q530 524 526 524Q512 524 510 537L505 575Q503 588 498 598T481 616T449 626T395 630H319Q314 621 308 601T291 538L254 382Q254 378 258 374H332Q360 374 377 376T404 382T419 393T428 409L438 434Q442 443 453 443Q458 443 463 442T471 440Q465 420 459 391T448 346Q444 329 439 302T429 249Q426 248 420 248Q415 248 410 248Q399 248 399 259L402 287Q403 294 402 301T392 314T368 322T322 326H247Q243 323 240 319L205 168Q197 132 194 109T193 73T206 55T234 50H326Q361 50 385 53T426 63T454 84T476 118L496 159Q501 170 513 166Q517 164 522 163T531 160Q527 147 521 125T509 80T498 36T490 5Q487 0 482 -2Q475 0 438 0Q401 0 338 0H105Q90 0 71 0T33 -1T-6 -2T-41 -3Q-41 1 -41 4T-42 11Q-42 19 -40 22T-30 28L5 34Q14 35 21 39T34 53T46 82T59 131L155 547Q162 578 164 596T166 625T158 638T142 644L111 649Q101 650 101 662Q101 673 105 681Q137 680 175 679T245 678H417Q478 678 510 678Q543 678 552 680Q558 676 559 672ZM526 723Q526 707 513 705Q496 714 478 725T441 749T407 771T378 790Q375 792 372 792T366 790Q331 767 294 746T217 705Q211 706 208 711T204 724Q238 758 266 785T330 845Q345 859 356 869T380 879Q391 879 399 871T420 849Q430 838 443 823T470 791T499 756T526 723Z"  />
<glyph unicode="&#xCB;" horiz-adv-x="600" d="M337 800Q337 773 320 753T274 733Q248 733 234 749T220 791Q220 818 237 838T282 858Q308 858 322 842T337 800ZM512 800Q512 773 495 753T449 733Q423 733 409 749T395 791Q395 818 412 838T457 858Q483 858 497 842T512 800ZM558 672Q556 663 554 645T550 604T545 561T542 526Q538 525 533 525Q529 525 525 525Q511 525 509 538L505 575Q503 588 498 598T481 616T449 626T395 630H318Q313 621 307 601T290 538L253 382Q253 378 257 374H332Q360 374 377 376T405 382T420 392T428 409L437 434Q439 439 443 440T453 442Q458 442 463 442T471 440Q468 430 465 417T458 391T452 365T447 345Q443 328 438 301T428 249Q425 248 419 248Q414 248 409 248Q398 248 398 259L401 287Q402 294 401 301T391 314T367 322T321 326H246Q242 323 239 319L204 168Q196 132 193 109T192 73T205 55T233 50H326Q361 50 385 53T425 63T453 84T475 117L496 158Q501 170 513 166Q517 165 522 164T531 160Q527 147 521 125T508 80T497 36T489 5Q486 0 481 -2Q474 0 437 0Q401 0 338 0H105Q90 0 71 0T33 -1T-6 -2T-41 -3Q-41 1 -41 4T-42 11Q-42 19 -40 22T-30 28L5 33Q14 34 21 38T34 53T46 82T59 131L156 547Q163 578 165 596T166 625T158 639T142 645L111 650Q101 651 101 662Q101 667 102 672T106 681Q138 680 175 679T244 678H417Q478 678 510 678Q542 678 551 680Q557 676 558 672Z"  />
<glyph unicode="&#xCC;" horiz-adv-x="352" d="M395 667Q395 659 393 656T383 650L348 644Q339 642 332 639T319 625T307 596T294 547L197 131Q190 100 188 82T187 53T195 39T211 34L242 29Q252 28 252 16Q252 11 251 6T247 -3Q215 -2 177 -1T106 0Q90 0 72 0T34 -1T-5 -2T-40 -3Q-40 1 -40 4T-41 11Q-41 19 -39 22T-29 28L6 34Q15 35 22 39T35 53T47 82T60 131L156 547Q163 578 165 596T167 625T159 638T143 644L112 649Q102 650 102 662Q102 673 106 681Q138 680 176 679T247 678Q263 678 282 678T320 679T359 680T394 681Q394 677 394 674T395 667ZM286 723Q286 707 273 705Q255 714 236 724T197 744T161 765T130 783Q116 791 105 801T92 825Q89 841 100 858T128 880Q143 883 154 874T179 850Q189 839 202 824T230 792T259 757T286 723Z"  />
<glyph unicode="&#xCD;" horiz-adv-x="352" d="M395 667Q395 659 393 656T383 650L348 644Q339 642 332 639T319 625T307 596T294 547L197 131Q190 100 188 82T187 53T195 39T211 34L242 29Q252 28 252 16Q252 11 251 6T247 -3Q215 -2 177 -1T106 0Q90 0 72 0T34 -1T-5 -2T-40 -3Q-40 1 -40 4T-41 11Q-41 19 -39 22T-29 28L6 34Q15 35 22 39T35 53T47 82T60 131L156 547Q163 578 165 596T167 625T159 638T143 644L112 649Q102 650 102 662Q102 673 106 681Q138 680 176 679T247 678Q263 678 282 678T320 679T359 680T394 681Q394 677 394 674T395 667ZM465 834Q464 820 453 811T431 795Q407 781 386 770T343 748T300 727T254 705Q248 706 245 711T241 724Q259 742 274 757T305 786T336 815T370 847Q381 857 395 869T426 880Q442 879 454 865T465 834Z"  />
<glyph unicode="&#xCE;" horiz-adv-x="352" d="M395 667Q395 659 393 656T383 650L348 644Q339 642 332 639T319 625T307 596T294 547L197 131Q190 100 188 82T187 53T195 39T211 34L242 29Q252 28 252 16Q252 11 251 6T247 -3Q215 -2 177 -1T106 0Q90 0 72 0T34 -1T-5 -2T-40 -3Q-40 1 -40 4T-41 11Q-41 19 -39 22T-29 28L6 34Q15 35 22 39T35 53T47 82T60 131L156 547Q163 578 165 596T167 625T159 638T143 644L112 649Q102 650 102 662Q102 673 106 681Q138 680 176 679T247 678Q263 678 282 678T320 679T359 680T394 681Q394 677 394 674T395 667ZM418 723Q418 707 405 705Q388 714 370 725T333 749T298 771T269 790Q263 793 258 790Q223 767 186 746T109 705Q103 706 100 711T96 724Q130 758 158 785T222 845Q237 859 248 869T272 879Q283 879 291 871T312 849Q322 838 335 823T362 791T391 756T418 723Z"  />
<glyph unicode="&#xCF;" horiz-adv-x="351" d="M247 822Q247 795 230 775T184 755Q158 755 144 771T130 813Q130 840 147 860T192 880Q218 880 232 864T247 822ZM422 822Q422 795 405 775T359 755Q333 755 319 771T305 813Q305 840 322 860T367 880Q393 880 407 864T422 822ZM393 667Q393 659 391 656T381 650L346 645Q337 643 330 639T317 625T305 596T292 547L196 131Q189 100 187 82T185 53T193 38T209 33L240 28Q250 27 250 16Q250 11 249 6T245 -3Q213 -2 175 -1T105 0Q89 0 71 0T33 -1T-6 -2T-41 -3Q-41 1 -41 4T-42 11Q-42 19 -40 22T-30 28L5 33Q14 34 21 38T34 53T46 82T59 131L156 547Q163 578 165 596T166 625T158 639T142 645L111 650Q101 651 101 662Q101 667 102 672T106 681Q138 680 176 679T246 678Q262 678 280 678T318 679T357 680T392 681Q392 677 392 674T393 667Z"  />
<glyph unicode="&#xD0;" horiz-adv-x="756" d="M579 398Q579 452 564 495T523 570T460 619T380 636Q363 636 346 635T319 630Q306 603 294 549L255 384Q255 382 259 378H425Q424 367 422 352T416 326H249Q247 324 245 323T241 320L203 158Q195 125 192 104T192 71T204 54T230 49H280Q415 49 496 153Q535 203 557 267T579 398ZM728 393Q728 360 721 324T699 251T661 178T607 111Q556 60 482 30T314 0H104Q73 0 33 -1T-40 -3Q-40 1 -40 4T-41 11Q-41 19 -39 22T-29 28L6 34Q15 35 22 39T35 53T47 82T60 131L104 319Q104 323 101 326H32Q33 337 35 351T41 378H111Q113 380 115 381T119 384L156 547Q163 578 165 596T167 625T159 638T143 644L112 649Q102 650 102 662Q102 673 106 681Q138 680 170 679T233 678Q251 678 275 679T325 681T377 684T424 685Q488 685 543 666T640 610T704 519T728 393Z"  />
<glyph unicode="&#xD1;" horiz-adv-x="753" d="M612 840Q612 820 603 801T579 768T545 745T506 736Q480 736 457 746T414 769T378 792T349 803Q339 803 333 798T326 781Q326 773 331 766T336 751Q336 740 325 734T304 728Q292 728 288 738T283 758Q283 778 292 796T316 829T350 852T389 861Q415 861 438 851T481 828T517 805T546 794Q556 794 562 800T569 817Q569 825 564 831T559 846Q559 857 570 862T591 868Q603 868 607 859T612 840ZM788 667Q788 659 786 656T776 650L742 645Q733 643 726 637T711 612T694 561T673 473L588 97Q588 95 588 91Q588 88 590 86Q605 56 616 44T637 30L643 28Q648 26 650 24T653 16Q653 11 652 6T648 -3Q633 -2 617 -1T585 0Q562 0 534 0T489 -3Q483 -1 480 2Q472 22 457 50T422 115L212 504H210L148 225Q135 166 131 130T130 72T142 43T164 33L204 28Q214 27 214 16Q214 5 210 -3Q178 -2 145 -1T81 0Q50 0 25 -1T-32 -3Q-32 1 -32 4T-33 11Q-33 19 -31 22T-21 28L14 33Q23 34 30 41T45 66T62 117T83 205L163 564Q165 572 161 578Q141 613 125 626T84 645L63 650Q57 652 56 654T54 662Q54 667 55 672T59 681Q66 681 79 681T105 680T131 679T152 678Q158 678 173 678Q189 678 206 678T240 679T265 681Q271 679 274 676Q282 657 296 627T330 563L543 172H545L608 453Q621 511 625 548T626 606T614 635T592 645L552 650Q542 651 542 662Q542 673 546 681Q578 680 609 679T671 678Q702 678 728 679T787 681Q787 677 787 674T788 667Z"  />
<glyph unicode="&#xD2;" horiz-adv-x="750" d="M576 420Q576 460 569 501T543 575T493 630T415 651Q372 651 338 632T276 581T230 508T198 424T179 337T173 259Q173 219 180 178T206 103T256 48T334 27Q377 27 411 46T473 97T519 170T551 255T570 341T576 420ZM724 400Q724 313 694 237T611 104T484 15T322 -18Q259 -18 205 4T111 66T49 160T26 279Q26 366 56 442T139 575T266 663T428 696Q491 696 545 674T639 613T701 519T724 400ZM455 723Q455 707 442 705Q424 714 405 724T367 744T331 765T300 783Q286 791 275 801T261 825Q258 841 269 858T297 880Q312 883 323 874T348 850Q358 839 371 824T399 792T428 757T455 723Z"  />
<glyph unicode="&#xD3;" horiz-adv-x="750" d="M576 420Q576 460 569 501T543 575T493 630T415 651Q372 651 338 632T276 581T230 508T198 424T179 337T173 259Q173 219 180 178T206 103T256 48T334 27Q377 27 411 46T473 97T519 170T551 255T570 341T576 420ZM724 400Q724 313 694 237T611 104T484 15T322 -18Q259 -18 205 4T111 66T49 160T26 279Q26 366 56 442T139 575T266 663T428 696Q491 696 545 674T639 613T701 519T724 400ZM614 834Q613 820 602 811T579 795Q555 781 534 770T492 748T449 727T403 705Q397 706 394 711T390 724Q408 742 423 757T453 786T484 815T518 847Q529 857 543 869T574 880Q590 879 602 865T614 834Z"  />
<glyph unicode="&#xD4;" horiz-adv-x="750" d="M576 420Q576 460 569 501T543 575T493 630T415 651Q372 651 338 632T276 581T230 508T198 424T179 337T173 259Q173 219 180 178T206 103T256 48T334 27Q377 27 411 46T473 97T519 170T551 255T570 341T576 420ZM724 400Q724 313 694 237T611 104T484 15T322 -18Q259 -18 205 4T111 66T49 160T26 279Q26 366 56 442T139 575T266 663T428 696Q491 696 545 674T639 613T701 519T724 400ZM581 723Q581 707 568 705Q551 714 533 725T496 749T462 771T433 790Q430 792 427 792T421 790Q386 767 349 746T272 705Q266 706 263 711T259 724Q293 758 321 785T385 845Q400 859 411 869T435 879Q446 879 454 871T475 849Q485 838 498 823T525 791T554 756T581 723Z"  />
<glyph unicode="&#xD5;" horiz-adv-x="749" d="M616 829Q616 809 607 790T583 757T549 734T510 725Q484 725 461 735T418 758T382 781T353 792Q343 792 337 787T330 770Q330 762 335 755T340 740Q340 729 329 723T308 717Q296 717 292 727T287 747Q287 767 296 785T320 818T354 841T393 850Q419 850 442 840T485 817T521 794T550 783Q560 783 566 789T573 806Q573 814 568 820T563 835Q563 846 574 851T595 857Q607 857 611 848T616 829ZM578 424Q578 463 571 503T545 577T495 630T417 651Q374 651 339 632T277 580T229 506T196 420T177 332T171 254Q171 215 178 175T204 101T254 48T332 27Q375 27 410 46T472 98T520 172T553 258T572 346T578 424ZM724 400Q724 313 694 237T611 104T483 15T321 -18Q258 -18 204 4T110 65T48 159T25 278Q25 365 55 441T138 574T265 663T427 696Q490 696 544 674T639 613T701 519T724 400Z"  />
<glyph unicode="&#xD6;" horiz-adv-x="749" d="M417 800Q417 773 400 753T354 733Q328 733 314 749T300 791Q300 818 317 838T362 858Q388 858 402 842T417 800ZM592 800Q592 773 575 753T529 733Q503 733 489 749T475 791Q475 818 492 838T537 858Q563 858 577 842T592 800ZM578 424Q578 463 571 503T545 577T495 630T417 651Q374 651 339 632T277 580T229 506T196 420T177 332T171 254Q171 215 178 175T204 101T254 48T332 27Q375 27 410 46T472 98T520 172T553 258T572 346T578 424ZM724 400Q724 313 694 237T611 104T483 15T321 -18Q258 -18 204 4T110 65T48 159T25 278Q25 365 55 441T138 574T265 663T427 696Q490 696 544 674T639 613T701 519T724 400Z"  />
<glyph unicode="&#xD7;" horiz-adv-x="500" d="M407 12L230 189L53 12L11 56L188 232L11 409L54 453L231 277L408 454L450 409L273 233L450 56L407 12Z"  />
<glyph unicode="&#xD8;" horiz-adv-x="750" d="M579 419Q579 438 577 456T569 491Q567 495 564 492L201 129Q200 125 201 122Q217 81 249 54T335 27Q378 27 412 46T474 97T521 170T553 254T572 341T579 419ZM553 548Q555 554 554 555Q539 594 506 622T419 651Q376 651 342 632T280 581T233 508T200 424T181 338T175 261Q175 220 184 184Q186 184 187 183T190 183L553 548H553ZM666 593Q666 591 666 590T665 587Q694 550 710 503T726 400Q726 313 696 237T613 104T486 15T324 -18Q267 -18 218 -1T131 49Q128 51 124 51L46 -27Q43 -27 38 -23T27 -14T19 -2T14 8L89 84Q89 86 89 87T89 91Q60 129 44 176T28 279Q28 366 58 442T141 575T268 663T430 696Q487 696 536 678T625 628Q627 628 628 627T632 627L708 704Q711 704 716 700T727 690T735 678T740 668L666 593Z"  />
<glyph unicode="&#xD9;" horiz-adv-x="686" d="M740 667Q740 653 727 650L695 644Q686 642 679 636T665 611T648 559T626 470L564 207Q539 100 473 41T289 -18Q238 -18 196 -5T122 32T74 89T56 161Q56 187 60 213T70 264L136 547Q143 578 145 596T147 625T139 638T123 644L92 649Q82 650 82 662Q82 667 83 672T87 681Q119 680 156 679T226 678Q242 678 261 678T299 679T338 680T374 681Q374 677 374 674T375 667Q375 659 373 656T363 650L328 644Q319 642 312 639T299 625T287 596T274 547L200 230Q192 198 192 164Q192 110 226 77T321 44Q362 44 392 58T443 97T478 154T500 223L550 441Q564 502 570 540T575 601T565 633T542 644L505 649Q495 650 495 662Q495 673 499 681Q531 680 558 679T624 678Q656 678 681 679T739 681Q739 677 739 674T740 667ZM459 723Q459 716 455 711T445 705Q427 714 408 724T370 744T334 765T303 783Q289 791 278 801T264 825Q261 841 272 858T300 880Q315 883 326 874T352 850Q362 839 375 824T403 792T432 757T459 723Z"  />
<glyph unicode="&#xDA;" horiz-adv-x="686" d="M740 667Q740 653 727 650L695 644Q686 642 679 636T665 611T648 559T626 470L564 207Q539 100 473 41T289 -18Q238 -18 196 -5T122 32T74 89T56 161Q56 187 60 213T70 264L136 547Q143 578 145 596T147 625T139 638T123 644L92 649Q82 650 82 662Q82 667 83 672T87 681Q119 680 156 679T226 678Q242 678 261 678T299 679T338 680T374 681Q374 677 374 674T375 667Q375 659 373 656T363 650L328 644Q319 642 312 639T299 625T287 596T274 547L200 230Q192 198 192 164Q192 110 226 77T321 44Q362 44 392 58T443 97T478 154T500 223L550 441Q564 502 570 540T575 601T565 633T542 644L505 649Q495 650 495 662Q495 673 499 681Q531 680 558 679T624 678Q656 678 681 679T739 681Q739 677 739 674T740 667ZM647 834Q646 820 635 811T612 795Q588 781 567 770T525 748T482 727T436 705Q430 706 427 711T423 724Q441 742 456 757T487 786T518 815T552 847Q563 857 577 869T607 880Q623 879 635 865T647 834Z"  />
<glyph unicode="&#xDB;" horiz-adv-x="686" d="M740 667Q740 653 727 650L695 644Q686 642 679 636T665 611T648 559T626 470L564 207Q539 100 473 41T289 -18Q238 -18 196 -5T122 32T74 89T56 161Q56 187 60 213T70 264L136 547Q143 578 145 596T147 625T139 638T123 644L92 649Q82 650 82 662Q82 667 83 672T87 681Q119 680 156 679T226 678Q242 678 261 678T299 679T338 680T374 681Q374 677 374 674T375 667Q375 659 373 656T363 650L328 644Q319 642 312 639T299 625T287 596T274 547L200 230Q192 198 192 164Q192 110 226 77T321 44Q362 44 392 58T443 97T478 154T500 223L550 441Q564 502 570 540T575 601T565 633T542 644L505 649Q495 650 495 662Q495 673 499 681Q531 680 558 679T624 678Q656 678 681 679T739 681Q739 677 739 674T740 667ZM597 723Q597 707 584 705Q567 714 549 725T512 749T477 771T448 790Q442 793 437 790Q402 767 365 746T288 705Q282 706 279 711T275 724Q309 758 337 785T401 845Q416 859 427 869T450 879Q461 879 469 871T490 849Q500 838 513 823T541 791T570 756T597 723Z"  />
<glyph unicode="&#xDC;" horiz-adv-x="686" d="M431 800Q431 773 414 753T368 733Q342 733 328 749T314 791Q314 818 331 838T376 858Q402 858 416 842T431 800ZM606 800Q606 773 589 753T543 733Q517 733 503 749T489 791Q489 818 506 838T551 858Q577 858 591 842T606 800ZM739 667Q739 659 737 656T727 650L694 645Q684 643 677 637T663 612T647 559T625 470L564 207Q539 100 473 41T289 -18Q238 -18 196 -5T122 32T74 89T56 161Q56 187 60 213T71 264L137 547Q144 578 146 596T147 625T139 639T123 645L92 650Q82 651 82 662Q82 667 83 672T87 681Q119 680 156 679T226 678Q242 678 261 678T299 679T338 680T373 681Q373 677 373 674T374 667Q374 659 372 656T362 650L327 645Q318 643 311 639T298 625T286 596T273 547L199 230Q191 198 191 164Q191 110 225 77T321 44Q362 44 392 58T443 97T477 154T500 223L551 441Q565 502 571 541T576 602T566 634T543 645L505 650Q495 651 495 662Q495 673 499 681Q531 680 558 679T624 678Q656 678 681 679T738 681Q738 677 738 674T739 667Z"  />
<glyph unicode="&#xDD;" horiz-adv-x="614" d="M682 667Q682 653 670 650L650 645Q641 643 632 638T610 621T581 589T540 536L397 342Q387 328 383 315T374 286L338 131Q331 100 329 82T327 53T335 39T351 34L382 29Q392 28 392 16Q392 5 388 -3Q356 -2 318 -1T248 0Q232 0 213 0T175 -1T136 -2T101 -3Q101 1 101 4T100 11Q100 25 113 28L147 34Q156 35 163 39T177 53T189 82T202 131L237 282Q241 299 239 312T232 338L156 538Q144 571 134 591T116 622T99 638T82 645L64 649Q54 651 54 662Q54 673 58 681Q90 680 125 679T193 678Q225 678 262 679T332 681Q332 677 332 674T333 667Q333 652 320 649L295 644Q285 642 280 638T275 621Q275 610 281 591T299 538L357 378H359L474 545Q506 590 512 614T491 644L466 649Q455 652 455 662Q455 667 456 672T460 681Q492 680 517 679T574 678Q605 678 627 679T681 681Q681 677 681 674T682 667ZM601 834Q600 820 589 811T567 795Q543 781 522 770T479 748T436 727T390 705Q384 706 381 711T377 724Q395 742 410 757T441 786T472 815T506 847Q517 857 531 869T561 880Q577 879 589 865T601 834Z"  />
<glyph unicode="&#xDE;" horiz-adv-x="587" d="M569 435Q569 379 547 336T488 263T400 218T295 203Q273 203 262 207T252 224Q253 230 256 237T262 250Q267 249 273 249T285 248Q322 248 348 266T392 313T418 375T426 439Q426 496 401 525T335 554Q312 554 299 551Q295 548 292 544L196 131Q189 100 187 82T187 53T197 39T214 34L261 29Q271 28 271 16Q271 11 270 6T266 -3Q250 -3 229 -3T186 -2T143 -1T106 0Q90 0 71 0T33 -1T-6 -2T-41 -3Q-41 1 -41 4T-42 11Q-42 19 -40 22T-30 28L5 34Q14 35 21 39T34 53T46 82T59 131L155 547Q162 578 164 596T166 625T158 638T142 644L111 649Q101 650 101 662Q101 673 105 681Q137 680 174 679T242 678Q258 678 277 678T315 679T354 680T389 681Q389 677 389 674T390 667Q390 659 388 655T378 650L344 645Q324 642 317 633T304 604Q304 602 309 597Q324 599 342 599T378 600Q417 600 451 590T512 560T553 508T569 435Z"  />
<glyph unicode="&#xDF;" horiz-adv-x="832" d="M806 473Q803 458 801 441T796 405T792 370T789 339Q786 338 782 338Q778 338 775 338Q767 338 765 341T762 351L757 379Q754 395 746 407T725 427T697 439T668 443Q646 443 632 437T610 422T599 402T596 382Q596 353 614 332T661 287Q678 273 695 259T727 227T750 189T759 141Q759 109 746 80T708 30T645 -5T560 -18Q513 -18 471 -6Q456 -1 450 0T440 2Q432 2 429 -3T414 -9H407Q410 7 413 27T419 68T424 109T427 146Q430 147 434 147T441 146Q454 146 455 135L458 109Q464 65 492 46T561 26Q583 26 598 32T622 47T635 67T639 89Q639 123 616 146T563 195Q548 208 533 221T506 251T487 287T480 331Q480 362 492 389T528 438T585 471T663 484Q708 484 742 474Q759 469 765 466T776 463Q784 463 786 468T799 474Q801 474 802 474T806 473ZM390 473Q387 458 385 441T380 405T376 370T373 339Q370 338 366 338Q362 338 359 338Q351 338 349 341T346 351L341 379Q338 395 330 407T309 427T281 439T252 443Q230 443 216 437T194 422T183 402T180 382Q180 353 198 332T245 287Q262 273 279 259T311 227T334 189T343 141Q343 109 330 80T292 30T229 -5T144 -18Q97 -18 55 -6Q40 -1 34 0T24 2Q16 2 13 -3T-2 -9H-9Q-6 7 -3 27T3 68T8 109T11 146Q14 147 18 147T25 146Q38 146 39 135L42 109Q48 65 76 46T145 26Q167 26 182 32T206 47T219 67T223 89Q223 123 200 146T147 195Q132 208 117 221T90 251T71 287T64 331Q64 362 76 389T112 438T169 471T247 484Q292 484 326 474Q343 469 349 466T360 463Q368 463 370 468T383 474Q385 474 386 474T390 473Z"  />
<glyph unicode="&#xE0;" horiz-adv-x="544" d="M259 374H258L162 206Q162 202 165 201H279Q282 203 284 206L259 374ZM487 15Q487 4 482 -3Q453 -2 420 -1T358 0Q329 0 300 -1T240 -3Q239 2 239 10Q239 26 252 27L281 32Q289 33 294 37T300 50T301 78T295 125L291 154Q290 156 286 158H139Q134 156 132 154L118 130Q89 81 90 59T112 32L133 27Q139 25 140 23T142 15Q142 4 137 -3Q114 -2 88 -1T41 0Q19 0 -6 -1T-51 -3Q-52 2 -52 10Q-52 24 -40 27L-20 32Q-12 34 -5 39T11 55T31 85T60 132L264 477Q265 479 280 480T314 481Q332 481 347 480T364 477L421 125Q426 95 430 78T439 52T449 38T463 32L478 27Q484 25 485 23T487 15ZM332 513Q330 507 324 504T311 503Q286 537 259 579T212 654Q206 664 200 676T194 700Q194 717 211 730T245 743Q264 743 272 728T287 691Q292 673 298 651T310 606T321 558T332 513Z"  />
<glyph unicode="&#xE1;" horiz-adv-x="544" d="M259 374H258L162 206Q162 202 165 201H279Q282 203 284 206L259 374ZM487 15Q487 4 482 -3Q453 -2 420 -1T358 0Q329 0 300 -1T240 -3Q239 2 239 10Q239 26 252 27L281 32Q289 33 294 37T300 50T301 78T295 125L291 154Q290 156 286 158H139Q134 156 132 154L118 130Q89 81 90 59T112 32L133 27Q139 25 140 23T142 15Q142 4 137 -3Q114 -2 88 -1T41 0Q19 0 -6 -1T-51 -3Q-52 2 -52 10Q-52 24 -40 27L-20 32Q-12 34 -5 39T11 55T31 85T60 132L264 477Q265 479 280 480T314 481Q332 481 347 480T364 477L421 125Q426 95 430 78T439 52T449 38T463 32L478 27Q484 25 485 23T487 15ZM519 704Q519 692 511 682T494 663Q451 621 407 581T317 503Q311 502 306 506T299 517Q312 538 328 562T361 611T392 658T418 695Q430 712 441 727T472 743Q479 743 487 740T502 731T514 719T519 704Z"  />
<glyph unicode="&#xE2;" horiz-adv-x="544" d="M259 374H258L162 206Q162 202 165 201H279Q282 203 284 206L259 374ZM487 15Q487 4 482 -3Q453 -2 420 -1T358 0Q329 0 300 -1T240 -3Q239 2 239 10Q239 26 252 27L281 32Q289 33 294 37T300 50T301 78T295 125L291 154Q290 156 286 158H139Q134 156 132 154L118 130Q89 81 90 59T112 32L133 27Q139 25 140 23T142 15Q142 4 137 -3Q114 -2 88 -1T41 0Q19 0 -6 -1T-51 -3Q-52 2 -52 10Q-52 24 -40 27L-20 32Q-12 34 -5 39T11 55T31 85T60 132L264 477Q265 479 280 480T314 481Q332 481 347 480T364 477L421 125Q426 95 430 78T439 52T449 38T463 32L478 27Q484 25 485 23T487 15ZM449 513Q447 507 441 504T428 503Q419 517 409 534T389 570T369 604T352 635Q349 637 342 635Q309 603 272 568T199 503Q193 502 188 506T181 517Q210 563 241 607T305 696Q320 716 331 729T363 742Q380 742 389 728T407 684Q418 643 428 599T449 513Z"  />
<glyph unicode="&#xE3;" horiz-adv-x="544" d="M259 374H258L162 206Q162 202 165 201H279Q282 203 284 206L259 374ZM487 15Q487 4 482 -3Q453 -2 420 -1T358 0Q329 0 300 -1T240 -3Q239 2 239 10Q239 26 252 27L281 32Q289 33 294 37T300 50T301 78T295 125L291 154Q290 156 286 158H139Q134 156 132 154L118 130Q89 81 90 59T112 32L133 27Q139 25 140 23T142 15Q142 4 137 -3Q114 -2 88 -1T41 0Q19 0 -6 -1T-51 -3Q-52 2 -52 10Q-52 24 -40 27L-20 32Q-12 34 -5 39T11 55T31 85T60 132L264 477Q265 479 280 480T314 481Q332 481 347 480T364 477L421 125Q426 95 430 78T439 52T449 38T463 32L478 27Q484 25 485 23T487 15ZM491 684Q491 664 482 645T458 612T424 589T385 580Q359 580 336 590T293 613T257 636T228 647Q218 647 212 642T205 625Q205 617 210 610T215 595Q215 584 204 578T183 572Q171 572 167 582T162 602Q162 622 171 640T195 673T229 696T268 705Q294 705 317 695T360 672T396 649T425 638Q435 638 441 644T448 661Q448 669 443 675T438 690Q438 701 449 706T470 712Q482 712 486 703T491 684Z"  />
<glyph unicode="&#xE4;" horiz-adv-x="544" d="M259 374H258L162 206Q162 202 165 201H279Q282 203 284 206L259 374ZM487 15Q487 4 482 -3Q453 -2 420 -1T358 0Q329 0 300 -1T240 -3Q239 2 239 10Q239 26 252 27L281 32Q289 33 294 37T300 50T301 78T295 125L291 154Q290 156 286 158H139Q134 156 132 154L118 130Q89 81 90 59T112 32L133 27Q139 25 140 23T142 15Q142 4 137 -3Q114 -2 88 -1T41 0Q19 0 -6 -1T-51 -3Q-52 2 -52 10Q-52 24 -40 27L-20 32Q-12 34 -5 39T11 55T31 85T60 132L264 477Q265 479 280 480T314 481Q332 481 347 480T364 477L421 125Q426 95 430 78T439 52T449 38T463 32L478 27Q484 25 485 23T487 15ZM305 652Q305 625 288 605T242 585Q216 585 202 601T188 643Q188 670 205 690T250 710Q276 710 290 694T305 652ZM480 652Q480 625 463 605T417 585Q391 585 377 601T363 643Q363 670 380 690T425 710Q451 710 465 694T480 652Z"  />
<glyph unicode="&#xE5;" horiz-adv-x="544" d="M259 374H258L162 206Q162 202 165 201H279Q282 203 284 206L259 374ZM487 15Q487 4 482 -3Q453 -2 420 -1T358 0Q329 0 300 -1T240 -3Q239 2 239 10Q239 26 252 27L281 32Q289 33 294 37T300 50T301 78T295 125L291 154Q290 156 286 158H139Q134 156 132 154L118 130Q89 81 90 59T112 32L133 27Q139 25 140 23T142 15Q142 4 137 -3Q114 -2 88 -1T41 0Q19 0 -6 -1T-51 -3Q-52 2 -52 10Q-52 24 -40 27L-20 32Q-12 34 -5 39T11 55T31 85T60 132L264 477Q265 479 280 480T314 481Q332 481 347 480T364 477L421 125Q426 95 430 78T439 52T449 38T463 32L478 27Q484 25 485 23T487 15ZM384 657Q384 674 376 691T348 708Q331 708 320 696T302 668T292 633T289 601Q289 584 296 568T324 551Q340 551 351 562T370 590T381 625T384 657ZM442 649Q442 623 433 601T408 561T370 534T321 524Q282 524 256 546T230 609Q230 635 239 658T264 698T303 725T352 735Q391 735 416 712T442 649Z"  />
<glyph unicode="&#xE6;" horiz-adv-x="707" d="M357 431L216 246Q218 242 219 241H311Q314 243 316 246L359 431H357ZM666 462Q665 456 663 441T659 408T656 373T653 346Q650 345 645 345T637 346Q624 346 623 358L620 386Q619 394 617 401T607 413T585 422T548 426H488Q485 420 481 405T469 361L444 252Q444 248 446 246H499Q537 246 548 252T565 272L572 290Q575 298 584 298Q588 298 594 297T602 295Q600 288 597 278T592 258T587 238T584 223Q582 211 577 190T570 152Q567 151 562 151Q557 151 552 151Q543 151 543 160L544 179Q544 184 543 189T537 197T520 203T489 206H436Q433 204 431 201L414 126Q403 76 406 59T434 41H501Q523 41 538 43T565 52T584 69T601 94L615 120Q621 130 632 126Q635 124 639 123T647 120Q644 111 639 94T630 59T621 26T615 3Q614 0 610 -1Q605 0 580 0Q555 0 511 0H328Q298 0 261 -1T192 -3Q191 2 191 10Q191 26 204 27L235 32Q244 33 251 37T264 51T275 78T287 125L303 196Q303 199 300 202H188Q184 202 181 199L129 130Q92 80 86 59T105 32L126 27Q132 25 133 23T135 15Q135 4 130 -3Q107 -2 82 -1T37 0Q15 0 -8 -1T-51 -3Q-52 2 -52 10Q-52 23 -40 27L-26 31Q-19 33 -12 38T4 55T28 85T65 132L238 354Q254 375 261 389T269 413T264 427T248 434L227 439Q221 441 220 443T218 451Q218 462 223 469Q246 468 274 467T322 466H569Q611 466 633 466Q656 466 662 467Q665 466 666 462Z"  />
<glyph unicode="&#xE7;" horiz-adv-x="518" d="M478 463Q476 450 474 432T469 394T464 355T461 323Q458 322 453 322Q448 322 445 322Q431 322 430 334L427 370Q425 387 415 400T390 422T358 435T325 440Q277 440 243 414T188 347T157 262T147 178Q147 147 153 120T173 71T211 38T268 26Q312 26 348 43T404 103L417 134Q421 145 437 140Q440 138 443 138T450 135Q445 122 440 104T429 66T419 29T411 -1Q409 -2 407 -2T402 -1Q394 -1 391 3T381 8Q376 8 369 5T351 -1Q325 -9 294 -13T237 -18Q184 -18 143 -3T72 40T28 106T12 189Q12 246 31 299T87 394T181 459T311 484Q331 484 353 481T403 470Q419 465 432 459T450 453Q457 453 458 458T470 464Q472 464 474 464T478 463ZM308 4Q298 -4 283 -15T256 -40Q245 -52 245 -62Q245 -72 251 -88Q257 -105 264 -122T272 -159Q272 -181 260 -200T230 -233T189 -255T147 -263Q106 -263 106 -238Q106 -228 111 -218T127 -207Q139 -207 149 -215T173 -223Q185 -223 192 -215T200 -196Q200 -181 192 -163T175 -128Q169 -114 169 -101T179 -73Q188 -60 202 -47T233 -20T266 4T294 23L308 4H308Z"  />
<glyph unicode="&#xE8;" horiz-adv-x="471" d="M430 462Q429 456 427 441T423 408T420 373T417 346Q414 345 409 345T401 346Q388 346 387 358L384 386Q383 394 381 401T371 413T349 422T312 426H252Q249 420 245 405T233 361L211 266Q211 262 213 260H266Q304 260 315 265T332 285L339 302Q341 309 351 309Q355 309 361 309T369 307Q367 300 364 291T359 271T354 252T351 237Q349 225 344 204T337 166Q334 165 329 165Q324 165 319 165Q311 165 311 173L312 193Q312 198 311 203T305 211T288 217T257 220H204Q201 218 199 215L178 126Q167 76 170 59T198 41H266Q288 41 303 43T330 52T349 69T365 94L379 120Q385 130 396 126Q399 124 403 123T411 120Q408 111 403 94T394 59T385 26T379 3Q378 0 374 -1Q369 0 344 0Q319 0 275 0H92Q62 0 26 -1T-43 -3Q-44 2 -44 10Q-44 26 -32 27L0 32Q9 33 15 37T27 51T38 78T51 125L102 341Q109 370 111 387T112 415T105 428T89 434L60 439Q54 440 53 442T51 451Q51 462 56 469Q87 468 122 467T187 466H333Q375 466 397 466Q420 466 426 467Q429 466 430 462ZM291 513Q289 507 283 504T270 503Q245 537 218 579T171 654Q165 664 159 676T153 700Q153 717 170 730T204 743Q223 743 231 728T246 691Q251 673 257 651T269 606T280 558T291 513Z"  />
<glyph unicode="&#xE9;" horiz-adv-x="471" d="M430 462Q429 456 427 441T423 408T420 373T417 346Q414 345 409 345T401 346Q388 346 387 358L384 386Q383 394 381 401T371 413T349 422T312 426H252Q249 420 245 405T233 361L211 266Q211 262 213 260H266Q304 260 315 265T332 285L339 302Q341 309 351 309Q355 309 361 309T369 307Q367 300 364 291T359 271T354 252T351 237Q349 225 344 204T337 166Q334 165 329 165Q324 165 319 165Q311 165 311 173L312 193Q312 198 311 203T305 211T288 217T257 220H204Q201 218 199 215L178 126Q167 76 170 59T198 41H266Q288 41 303 43T330 52T349 69T365 94L379 120Q385 130 396 126Q399 124 403 123T411 120Q408 111 403 94T394 59T385 26T379 3Q378 0 374 -1Q369 0 344 0Q319 0 275 0H92Q62 0 26 -1T-43 -3Q-44 2 -44 10Q-44 26 -32 27L0 32Q9 33 15 37T27 51T38 78T51 125L102 341Q109 370 111 387T112 415T105 428T89 434L60 439Q54 440 53 442T51 451Q51 462 56 469Q87 468 122 467T187 466H333Q375 466 397 466Q420 466 426 467Q429 466 430 462ZM454 704Q454 692 446 682T429 663Q386 621 342 581T252 503Q246 502 241 506T234 517Q247 538 263 562T296 611T327 658T353 695Q365 712 376 727T407 743Q414 743 422 740T437 731T449 719T454 704Z"  />
<glyph unicode="&#xEA;" horiz-adv-x="471" d="M430 462Q429 456 427 441T423 408T420 373T417 346Q414 345 409 345T401 346Q388 346 387 358L384 386Q383 394 381 401T371 413T349 422T312 426H252Q249 420 245 405T233 361L211 266Q211 262 213 260H266Q304 260 315 265T332 285L339 302Q341 309 351 309Q355 309 361 309T369 307Q367 300 364 291T359 271T354 252T351 237Q349 225 344 204T337 166Q334 165 329 165Q324 165 319 165Q311 165 311 173L312 193Q312 198 311 203T305 211T288 217T257 220H204Q201 218 199 215L178 126Q167 76 170 59T198 41H266Q288 41 303 43T330 52T349 69T365 94L379 120Q385 130 396 126Q399 124 403 123T411 120Q408 111 403 94T394 59T385 26T379 3Q378 0 374 -1Q369 0 344 0Q319 0 275 0H92Q62 0 26 -1T-43 -3Q-44 2 -44 10Q-44 26 -32 27L0 32Q9 33 15 37T27 51T38 78T51 125L102 341Q109 370 111 387T112 415T105 428T89 434L60 439Q54 440 53 442T51 451Q51 462 56 469Q87 468 122 467T187 466H333Q375 466 397 466Q420 466 426 467Q429 466 430 462ZM395 513Q393 507 387 504T374 503Q365 517 355 534T335 570T315 604T298 635Q295 637 288 635Q255 603 218 568T145 503Q139 502 134 506T127 517Q156 563 187 607T251 696Q266 716 277 729T309 742Q326 742 335 728T353 684Q364 643 374 599T395 513Z"  />
<glyph unicode="&#xEB;" horiz-adv-x="471" d="M430 462Q429 456 427 441T423 408T420 373T417 346Q414 345 409 345T401 346Q388 346 387 358L384 386Q383 394 381 401T371 413T349 422T312 426H252Q249 420 245 405T233 361L211 266Q211 262 213 260H266Q304 260 315 265T332 285L339 302Q341 309 351 309Q355 309 361 309T369 307Q367 300 364 291T359 271T354 252T351 237Q349 225 344 204T337 166Q334 165 329 165Q324 165 319 165Q311 165 311 173L312 193Q312 198 311 203T305 211T288 217T257 220H204Q201 218 199 215L178 126Q167 76 170 59T198 41H266Q288 41 303 43T330 52T349 69T365 94L379 120Q385 130 396 126Q399 124 403 123T411 120Q408 111 403 94T394 59T385 26T379 3Q378 0 374 -1Q369 0 344 0Q319 0 275 0H92Q62 0 26 -1T-43 -3Q-44 2 -44 10Q-44 26 -32 27L0 32Q9 33 15 37T27 51T38 78T51 125L102 341Q109 370 111 387T112 415T105 428T89 434L60 439Q54 440 53 442T51 451Q51 462 56 469Q87 468 122 467T187 466H333Q375 466 397 466Q420 466 426 467Q429 466 430 462ZM252 652Q252 625 235 605T189 585Q163 585 149 601T135 643Q135 670 152 690T197 710Q223 710 237 694T252 652ZM427 652Q427 625 410 605T364 585Q338 585 324 601T310 643Q310 670 327 690T372 710Q398 710 412 694T427 652Z"  />
<glyph unicode="&#xEC;" horiz-adv-x="325" d="M326 456Q326 440 314 439L282 434Q273 432 267 429T254 415T243 388T230 341L180 125Q173 96 171 78T170 51T177 37T193 32L222 27Q228 26 229 24T231 15Q231 4 226 -3Q195 -2 160 -1T94 0Q64 0 28 -1T-41 -3Q-42 2 -42 10Q-42 26 -30 27L2 32Q11 33 17 37T29 51T40 78T53 125L104 341Q111 370 113 387T114 415T107 428T91 434L62 439Q56 440 55 442T53 451Q53 462 58 469Q89 468 124 467T190 466Q220 466 257 467T325 469Q326 464 326 456ZM215 513Q213 507 207 504T194 503Q169 537 142 579T95 654Q89 664 83 676T77 700Q77 717 94 730T128 743Q147 743 155 728T170 691Q175 673 181 651T193 606T204 558T215 513Z"  />
<glyph unicode="&#xED;" horiz-adv-x="325" d="M326 456Q326 440 314 439L282 434Q273 432 267 429T254 415T243 388T230 341L180 125Q173 96 171 78T170 51T177 37T193 32L222 27Q228 26 229 24T231 15Q231 4 226 -3Q195 -2 160 -1T94 0Q64 0 28 -1T-41 -3Q-42 2 -42 10Q-42 26 -30 27L2 32Q11 33 17 37T29 51T40 78T53 125L104 341Q111 370 113 387T114 415T107 428T91 434L62 439Q56 440 55 442T53 451Q53 462 58 469Q89 468 124 467T190 466Q220 466 257 467T325 469Q326 464 326 456ZM396 704Q396 692 388 682T371 663Q328 621 284 581T194 503Q188 502 183 506T176 517Q189 538 205 562T238 611T269 658T295 695Q307 712 318 727T349 743Q356 743 364 740T379 731T391 719T396 704Z"  />
<glyph unicode="&#xEE;" horiz-adv-x="325" d="M326 456Q326 440 314 439L282 434Q273 432 267 429T254 415T243 388T230 341L180 125Q173 96 171 78T170 51T177 37T193 32L222 27Q228 26 229 24T231 15Q231 4 226 -3Q195 -2 160 -1T94 0Q64 0 28 -1T-41 -3Q-42 2 -42 10Q-42 26 -30 27L2 32Q11 33 17 37T29 51T40 78T53 125L104 341Q111 370 113 387T114 415T107 428T91 434L62 439Q56 440 55 442T53 451Q53 462 58 469Q89 468 124 467T190 466Q220 466 257 467T325 469Q326 464 326 456ZM332 513Q330 507 324 504T311 503Q302 517 292 534T272 570T252 604T235 635Q232 637 225 635Q192 603 155 568T82 503Q76 502 71 506T64 517Q93 563 124 607T188 696Q203 716 214 729T246 742Q263 742 272 728T290 684Q301 643 311 599T332 513Z"  />
<glyph unicode="&#xEF;" horiz-adv-x="325" d="M326 456Q326 440 314 439L282 434Q273 432 267 429T254 415T243 388T230 341L180 125Q173 96 171 78T170 51T177 37T193 32L222 27Q228 26 229 24T231 15Q231 4 226 -3Q195 -2 160 -1T94 0Q64 0 28 -1T-41 -3Q-42 2 -42 10Q-42 26 -30 27L2 32Q11 33 17 37T29 51T40 78T53 125L104 341Q111 370 113 387T114 415T107 428T91 434L62 439Q56 440 55 442T53 451Q53 462 58 469Q89 468 124 467T190 466Q220 466 257 467T325 469Q326 464 326 456ZM195 652Q195 625 178 605T132 585Q106 585 92 601T78 643Q78 670 95 690T140 710Q166 710 180 694T195 652ZM370 652Q370 625 353 605T307 585Q281 585 267 601T253 643Q253 670 270 690T315 710Q341 710 355 694T370 652Z"  />
<glyph unicode="&#xF0;" horiz-adv-x="587" d="M415 277Q415 307 408 334T386 383T349 416T297 429Q284 429 270 428T249 425Q245 417 241 403T233 372L210 270Q210 269 213 266H319Q318 257 317 245T312 224H203Q201 223 201 222T198 219L174 114Q164 70 167 56T192 42H228Q272 42 306 61T365 115Q389 149 402 191T415 277ZM556 270Q556 225 536 173T472 77Q437 42 385 21T269 0H90Q60 0 23 -1T-45 -3Q-46 2 -46 10Q-46 26 -34 27L-2 32Q7 33 13 37T26 51T37 78T50 125L72 220Q72 222 70 224H24Q25 233 27 245T32 266H78Q80 267 83 270L100 341Q107 370 109 387T110 415T103 428T87 434L58 439Q52 440 51 442T49 451Q49 462 54 469Q85 468 114 467T174 466Q186 466 209 467T257 468T307 470T346 471Q390 471 428 458T494 420T539 357T556 270Z"  />
<glyph unicode="&#xF1;" horiz-adv-x="575" d="M580 456Q580 442 567 439L544 434Q533 432 525 424T511 401T498 360T483 297L429 68Q428 66 430 60Q440 40 448 35T461 29L468 27Q478 26 478 15Q478 4 473 -3Q463 -2 442 -1T409 0Q399 0 386 0Q374 0 362 0T339 -1T322 -2Q320 -1 319 -1T316 1Q310 15 301 34T278 80L149 332H148L115 184Q105 141 102 113T100 68T112 43T137 32L165 27Q171 26 172 24T174 15Q174 4 169 -3Q138 -2 117 -1T65 0Q35 0 14 -1T-39 -3Q-40 2 -40 10Q-40 24 -28 27L-4 32Q7 34 15 42T29 65T42 106T57 169L108 387Q110 392 108 397Q97 417 89 424T62 435L45 438Q39 440 38 442T36 451Q36 462 41 469Q52 468 74 467T108 466Q112 466 127 466T161 467T196 468T218 469Q222 467 224 465Q229 451 238 431T260 386L389 132H390L424 282Q434 325 437 353T439 398T428 423T403 434L375 439Q369 440 368 442T366 451Q366 456 367 461T370 469Q401 468 423 467T475 466Q490 466 502 466T526 467T550 468T579 469Q580 464 580 456ZM504 684Q504 664 495 645T471 612T437 589T398 580Q372 580 349 590T306 613T270 636T241 647Q231 647 225 642T218 625Q218 617 223 610T228 595Q228 584 217 578T196 572Q184 572 180 582T175 602Q175 622 184 640T208 673T242 696T281 705Q307 705 330 695T373 672T409 649T438 638Q448 638 454 644T461 661Q461 669 456 675T451 690Q451 701 462 706T483 712Q495 712 499 703T504 684Z"  />
<glyph unicode="&#xF2;" horiz-adv-x="580" d="M407 295Q407 320 403 346T387 395T356 431T305 445Q260 445 230 415T181 343T154 253T146 171Q146 146 150 120T165 71T196 35T247 21Q277 21 300 35T342 71T372 123T392 183T403 243T407 295ZM540 273Q540 210 519 157T458 64T363 4T241 -18Q190 -18 148 -3T75 40T29 107T12 194Q12 257 33 310T94 402T189 462T311 484Q362 484 404 469T477 426T523 360T540 273ZM321 513Q319 507 313 504T300 503Q275 537 248 579T201 654Q195 664 189 676T183 700Q183 717 200 730T234 743Q253 743 261 728T276 691Q281 673 287 651T299 606T310 558T321 513Z"  />
<glyph unicode="&#xF3;" horiz-adv-x="580" d="M407 295Q407 320 403 346T387 395T356 431T305 445Q260 445 230 415T181 343T154 253T146 171Q146 146 150 120T165 71T196 35T247 21Q277 21 300 35T342 71T372 123T392 183T403 243T407 295ZM540 273Q540 210 519 157T458 64T363 4T241 -18Q190 -18 148 -3T75 40T29 107T12 194Q12 257 33 310T94 402T189 462T311 484Q362 484 404 469T477 426T523 360T540 273ZM510 704Q510 692 502 682T485 663Q442 621 398 581T308 503Q302 502 297 506T290 517Q303 538 319 562T352 611T383 658T409 695Q421 712 432 727T463 743Q470 743 478 740T493 731T505 719T510 704Z"  />
<glyph unicode="&#xF4;" horiz-adv-x="580" d="M407 295Q407 320 403 346T387 395T356 431T305 445Q260 445 230 415T181 343T154 253T146 171Q146 146 150 120T165 71T196 35T247 21Q277 21 300 35T342 71T372 123T392 183T403 243T407 295ZM540 273Q540 210 519 157T458 64T363 4T241 -18Q190 -18 148 -3T75 40T29 107T12 194Q12 257 33 310T94 402T189 462T311 484Q362 484 404 469T477 426T523 360T540 273ZM451 513Q449 507 443 504T430 503Q421 517 411 534T391 570T371 604T354 635Q351 637 344 635Q311 603 274 568T201 503Q195 502 190 506T183 517Q212 563 243 607T307 696Q322 716 333 729T365 742Q382 742 391 728T409 684Q420 643 430 599T451 513Z"  />
<glyph unicode="&#xF5;" horiz-adv-x="580" d="M407 295Q407 320 403 346T387 395T356 431T305 445Q260 445 230 415T181 343T154 253T146 171Q146 146 150 120T165 71T196 35T247 21Q277 21 300 35T342 71T372 123T392 183T403 243T407 295ZM540 273Q540 210 519 157T458 64T363 4T241 -18Q190 -18 148 -3T75 40T29 107T12 194Q12 257 33 310T94 402T189 462T311 484Q362 484 404 469T477 426T523 360T540 273ZM502 684Q502 664 493 645T469 612T435 589T396 580Q370 580 347 590T304 613T268 636T239 647Q229 647 223 642T216 625Q216 617 221 610T226 595Q226 584 215 578T194 572Q182 572 178 582T173 602Q173 622 182 640T206 673T240 696T279 705Q305 705 328 695T371 672T407 649T436 638Q446 638 452 644T459 661Q459 669 454 675T449 690Q449 701 460 706T481 712Q493 712 497 703T502 684Z"  />
<glyph unicode="&#xF6;" horiz-adv-x="580" d="M407 295Q407 320 403 346T387 395T356 431T305 445Q260 445 230 415T181 343T154 253T146 171Q146 146 150 120T165 71T196 35T247 21Q277 21 300 35T342 71T372 123T392 183T403 243T407 295ZM540 273Q540 210 519 157T458 64T363 4T241 -18Q190 -18 148 -3T75 40T29 107T12 194Q12 257 33 310T94 402T189 462T311 484Q362 484 404 469T477 426T523 360T540 273ZM314 652Q314 625 297 605T251 585Q225 585 211 601T197 643Q197 670 214 690T259 710Q285 710 299 694T314 652ZM489 652Q489 625 472 605T426 585Q400 585 386 601T372 643Q372 670 389 690T434 710Q460 710 474 694T489 652Z"  />
<glyph unicode="&#xF7;" horiz-adv-x="500" d="M281 51Q281 32 269 19T235 5Q213 5 201 18T189 51Q189 71 201 83T234 95Q255 95 268 83T281 51ZM5 202V265H465V202H5ZM281 416Q281 396 269 384T235 371Q214 371 202 383T189 416Q189 435 201 448T235 461Q257 461 269 449T281 416Z"  />
<glyph unicode="&#xF8;" horiz-adv-x="580" d="M403 295Q403 312 400 327Q398 327 398 328T396 328L156 93Q155 92 155 88Q165 60 186 41T243 21Q273 21 296 35T338 71T368 123T388 183T399 243T403 295ZM391 378Q381 406 360 425T302 445Q257 445 227 415T177 343T150 253T142 171Q142 153 145 138Q148 138 148 138L389 373Q392 376 391 378ZM488 416Q487 414 487 413T488 411Q511 384 524 350T537 273Q537 210 516 157T455 64T360 4T238 -18Q152 -18 93 24Q91 24 90 24T87 24L38 -24Q33 -22 25 -12T14 4L58 49Q59 51 58 54Q9 109 9 194Q9 257 30 310T91 402T185 462T307 484Q351 484 387 473T453 441Q455 441 456 441T459 441L507 490Q512 488 521 477T533 461L488 416Z"  />
<glyph unicode="&#xF9;" horiz-adv-x="540" d="M562 456Q562 442 549 439L527 434Q516 432 509 425T495 402T482 361T466 297L430 144Q413 72 367 30T225 -13Q133 -13 88 24T42 115Q42 132 44 149T51 183L89 341Q96 370 98 387T99 415T91 428T75 434L47 439Q41 440 40 442T38 451Q38 462 43 469Q74 468 109 467T175 466Q205 466 241 467T308 469Q309 464 309 456Q309 440 297 439L267 434Q258 432 252 429T239 415T228 388T215 341L174 163Q172 152 170 140T168 116Q168 84 187 61T253 37Q308 37 334 69T374 156L403 282Q413 324 417 352T421 397T412 423T391 434L366 439Q360 440 359 442T357 451Q357 456 358 461T361 469Q376 469 387 469T409 468T431 467T457 466Q487 466 508 467T561 469Q562 464 562 456ZM344 513Q342 507 336 504T323 503Q298 537 271 579T224 654Q218 664 212 676T206 700Q206 717 223 730T257 743Q276 743 284 728T299 691Q304 673 310 651T322 606T333 558T344 513Z"  />
<glyph unicode="&#xFA;" horiz-adv-x="540" d="M562 456Q562 442 549 439L527 434Q516 432 509 425T495 402T482 361T466 297L430 144Q413 72 367 30T225 -13Q133 -13 88 24T42 115Q42 132 44 149T51 183L89 341Q96 370 98 387T99 415T91 428T75 434L47 439Q41 440 40 442T38 451Q38 462 43 469Q74 468 109 467T175 466Q205 466 241 467T308 469Q309 464 309 456Q309 440 297 439L267 434Q258 432 252 429T239 415T228 388T215 341L174 163Q172 152 170 140T168 116Q168 84 187 61T253 37Q308 37 334 69T374 156L403 282Q413 324 417 352T421 397T412 423T391 434L366 439Q360 440 359 442T357 451Q357 456 358 461T361 469Q376 469 387 469T409 468T431 467T457 466Q487 466 508 467T561 469Q562 464 562 456ZM544 704Q544 692 536 682T519 663Q476 621 432 581T342 503Q336 502 331 506T324 517Q337 538 353 562T386 611T417 658T443 695Q455 712 466 727T497 743Q504 743 512 740T527 731T539 719T544 704Z"  />
<glyph unicode="&#xFB;" horiz-adv-x="540" d="M562 456Q562 442 549 439L527 434Q516 432 509 425T495 402T482 361T466 297L430 144Q413 72 367 30T225 -13Q133 -13 88 24T42 115Q42 132 44 149T51 183L89 341Q96 370 98 387T99 415T91 428T75 434L47 439Q41 440 40 442T38 451Q38 462 43 469Q74 468 109 467T175 466Q205 466 241 467T308 469Q309 464 309 456Q309 440 297 439L267 434Q258 432 252 429T239 415T228 388T215 341L174 163Q172 152 170 140T168 116Q168 84 187 61T253 37Q308 37 334 69T374 156L403 282Q413 324 417 352T421 397T412 423T391 434L366 439Q360 440 359 442T357 451Q357 456 358 461T361 469Q376 469 387 469T409 468T431 467T457 466Q487 466 508 467T561 469Q562 464 562 456ZM466 513Q464 507 458 504T445 503Q436 517 426 534T406 570T386 604T369 635Q366 637 359 635Q326 603 289 568T216 503Q210 502 205 506T198 517Q227 563 258 607T322 696Q337 716 348 729T380 742Q397 742 406 728T424 684Q435 643 445 599T466 513Z"  />
<glyph unicode="&#xFC;" horiz-adv-x="540" d="M562 456Q562 442 549 439L527 434Q516 432 509 425T495 402T482 361T466 297L430 144Q413 72 367 30T225 -13Q133 -13 88 24T42 115Q42 132 44 149T51 183L89 341Q96 370 98 387T99 415T91 428T75 434L47 439Q41 440 40 442T38 451Q38 462 43 469Q74 468 109 467T175 466Q205 466 241 467T308 469Q309 464 309 456Q309 440 297 439L267 434Q258 432 252 429T239 415T228 388T215 341L174 163Q172 152 170 140T168 116Q168 84 187 61T253 37Q308 37 334 69T374 156L403 282Q413 324 417 352T421 397T412 423T391 434L366 439Q360 440 359 442T357 451Q357 456 358 461T361 469Q376 469 387 469T409 468T431 467T457 466Q487 466 508 467T561 469Q562 464 562 456ZM325 652Q325 625 308 605T262 585Q236 585 222 601T208 643Q208 670 225 690T270 710Q296 710 310 694T325 652ZM500 652Q500 625 483 605T437 585Q411 585 397 601T383 643Q383 670 400 690T445 710Q471 710 485 694T500 652Z"  />
<glyph unicode="&#xFD;" horiz-adv-x="482" d="M511 456Q511 442 498 439L480 434Q472 432 463 426T442 409T416 379T382 334L304 227Q297 217 294 209T287 188L272 125Q265 96 263 78T262 51T270 37T286 32L314 27Q320 26 321 24T323 15Q323 4 318 -3Q287 -2 252 -1T186 0Q156 0 120 -1T51 -3Q50 2 50 10Q50 26 63 27L94 32Q103 33 110 37T123 51T134 78T146 125L160 187Q163 200 162 208T157 226L114 341Q103 369 95 386T80 413T66 427T50 434L33 439Q27 441 26 443T25 451Q25 456 26 461T29 469Q58 468 89 467T149 466Q179 466 208 467T269 469Q270 464 270 456Q270 442 258 439L237 434Q228 432 225 428T222 414T228 387T244 342L272 261H274L324 335Q342 362 352 380T366 409T365 426T352 434L335 439Q329 441 328 443T326 451Q326 462 331 469Q354 468 378 467T423 466Q445 466 467 467T510 469Q511 464 511 456ZM509 704Q509 692 501 682T484 663Q441 621 397 581T307 503Q301 502 296 506T289 517Q302 538 318 562T351 611T382 658T408 695Q420 712 431 727T462 743Q469 743 477 740T492 731T504 719T509 704Z"  />
<glyph unicode="&#xFE;" horiz-adv-x="491" d="M464 298Q464 257 448 226T403 174T336 143T254 132Q225 132 216 136T207 149Q207 154 209 160T214 171Q219 170 226 170Q233 170 241 170Q265 170 282 183T310 215T327 258T332 303Q332 338 318 358T274 379Q266 379 256 379T240 377Q238 376 236 372L178 125Q171 95 170 78T171 51T180 37T198 32L232 27Q238 26 239 24T241 15Q241 4 236 -3Q205 -2 165 -1T94 0Q64 0 27 -1T-43 -3Q-44 2 -44 10Q-44 26 -32 27L0 32Q9 33 15 37T27 51T38 78T51 125L102 341Q109 370 111 387T112 415T105 428T89 434L60 439Q54 440 53 442T51 451Q51 462 56 469Q87 468 122 467T188 466Q218 466 255 467T323 469Q324 464 324 456Q324 440 312 439L279 434Q262 432 256 430T246 420Q247 418 250 415Q261 416 281 416T322 417Q350 417 376 410T421 388T452 351T464 298Z"  />
<glyph unicode="&#xFF;" horiz-adv-x="482" d="M511 456Q511 442 498 439L480 434Q472 432 463 426T442 409T416 379T382 334L304 227Q297 217 294 209T287 188L272 125Q265 96 263 78T262 51T270 37T286 32L314 27Q320 26 321 24T323 15Q323 4 318 -3Q287 -2 252 -1T186 0Q156 0 120 -1T51 -3Q50 2 50 10Q50 26 63 27L94 32Q103 33 110 37T123 51T134 78T146 125L160 187Q163 200 162 208T157 226L114 341Q103 369 95 386T80 413T66 427T50 434L33 439Q27 441 26 443T25 451Q25 456 26 461T29 469Q58 468 89 467T149 466Q179 466 208 467T269 469Q270 464 270 456Q270 442 258 439L237 434Q228 432 225 428T222 414T228 387T244 342L272 261H274L324 335Q342 362 352 380T366 409T365 426T352 434L335 439Q329 441 328 443T326 451Q326 462 331 469Q354 468 378 467T423 466Q445 466 467 467T510 469Q511 464 511 456ZM287 652Q287 625 270 605T224 585Q198 585 184 601T170 643Q170 670 187 690T232 710Q258 710 272 694T287 652ZM462 652Q462 625 445 605T399 585Q373 585 359 601T345 643Q345 670 362 690T407 710Q433 710 447 694T462 652Z"  />
<glyph unicode="&#x152;" horiz-adv-x="992" d="M549 570Q549 591 541 603T519 621T489 630T456 632Q386 632 334 601T246 518T193 404T175 276Q175 231 185 189T218 114T275 62T357 42Q381 42 396 48T422 68T440 99T452 140L544 534Q546 542 547 551T549 570ZM950 672Q948 663 946 644T942 604T937 561T934 525Q930 524 926 524Q922 524 918 524Q904 524 902 537L897 575Q895 588 890 598T873 616T841 626T787 630H710Q705 621 699 601T682 538L645 382Q645 378 649 374H724Q752 374 769 376T796 382T811 393T820 409L829 434Q833 443 845 443Q850 443 855 442T863 440Q857 420 850 391T839 346Q835 329 831 302T821 249Q818 248 812 248Q806 248 801 248Q790 248 790 259L793 287Q794 294 793 301T783 314T759 322T713 326H638Q634 323 631 319L596 168Q588 132 585 109T584 73T597 55T625 50H718Q753 50 777 53T817 63T845 84T867 118L887 159Q892 170 905 166Q909 164 914 163T923 160Q919 147 913 125T900 80T889 36T881 5Q878 0 873 -2Q866 0 829 0Q793 0 730 0H504Q486 0 464 -1T418 -3T371 -6T328 -7Q263 -7 208 12T113 69T49 160T26 283Q26 361 54 437T140 572Q200 633 272 659T429 685Q456 685 487 684T550 682T609 679T659 678H809Q870 678 902 678Q934 678 943 680Q949 676 950 672Z"  />
<glyph unicode="&#x153;" horiz-adv-x="761" d="M400 390Q400 415 380 422T337 430Q290 430 256 407T198 349T164 271T152 188Q152 161 158 134T177 85T212 50T264 36Q293 36 310 51T336 102L396 360Q398 365 399 373T400 390ZM719 462Q718 456 716 441T712 408T709 373T706 346Q703 345 699 345T691 346Q678 346 677 358L673 386Q672 394 670 401T660 413T638 422T601 426H541Q538 420 534 405T522 361L500 266Q500 262 502 260H555Q593 260 605 265T622 285L628 302Q630 309 640 309Q644 309 650 309T658 307Q656 300 653 291T648 271T643 252T640 237Q638 225 634 204T627 166Q624 165 618 165Q613 165 608 165Q600 165 600 173L601 193Q601 198 600 203T594 211T577 217T546 220H493Q490 218 488 215L468 126Q457 76 459 59T487 41H555Q577 41 592 43T619 52T638 69T655 94L668 120Q674 130 686 126Q689 124 693 123T700 120Q697 111 692 94T683 59T674 26T668 3Q667 0 663 -1Q658 0 633 0Q609 0 565 0H355Q343 0 326 -1T289 -2T252 -4T219 -5Q175 -5 137 8T72 47T28 110T12 196Q12 249 32 301T90 393Q131 435 180 453T288 471Q306 471 328 470T371 469T413 467T448 466H622Q664 466 686 466Q709 466 715 467Q718 466 719 462Z"  />
<glyph unicode="&#x160;" horiz-adv-x="511" d="M502 679Q494 638 488 588T478 498Q474 497 470 497Q466 497 462 497Q448 497 446 510L441 548Q435 595 401 622T321 649Q296 649 278 640T247 617T228 585T222 547Q222 523 230 503T250 467T279 435T312 404Q335 383 357 361T396 315T425 262T436 201Q436 151 416 111T361 42T283 -2T191 -18Q134 -18 80 1Q58 9 51 11T36 13Q31 13 28 10T20 4T12 -3T0 -6Q-2 -6 -4 -6T-9 -5Q-1 41 6 99T18 208Q22 209 26 209Q30 209 34 209Q48 209 50 195L55 157Q62 97 99 64T194 31Q244 31 275 61T307 139Q307 163 300 183T279 222T248 257T211 293Q191 312 171 333T134 377T107 427T96 488Q96 531 112 569T157 635T227 679T317 696Q344 696 366 693T413 681Q433 675 444 670T463 664Q468 664 471 666T476 672T483 677T493 680Q495 680 497 680T502 679ZM504 861Q487 844 472 829T441 800T411 770T378 739Q363 725 352 715T328 705Q317 705 309 713T288 736Q278 747 265 762T237 794T209 829T182 862Q182 877 195 879Q211 870 230 859T267 835T302 813T331 794Q334 792 337 792T342 794Q377 817 414 838T491 879Q504 877 504 861Z"  />
<glyph unicode="&#x161;" horiz-adv-x="416" d="M390 473Q387 458 385 441T380 405T376 370T373 339Q370 338 366 338Q362 338 359 338Q351 338 349 341T346 351L341 379Q338 395 330 407T309 427T281 439T252 443Q230 443 216 437T194 422T183 402T180 382Q180 353 198 332T245 287Q262 273 279 259T311 227T334 189T343 141Q343 109 330 80T292 30T229 -5T144 -18Q97 -18 55 -6Q40 -1 34 0T24 2Q16 2 13 -3T-2 -9H-9Q-6 7 -3 27T3 68T8 109T11 146Q14 147 18 147T25 146Q38 146 39 135L42 109Q48 65 76 46T145 26Q167 26 182 32T206 47T219 67T223 89Q223 123 200 146T147 195Q132 208 117 221T90 251T71 287T64 331Q64 362 76 389T112 438T169 471T247 484Q292 484 326 474Q343 469 349 466T360 463Q368 463 370 468T383 474Q385 474 386 474T390 473ZM432 728Q403 682 372 638T308 549Q293 529 282 516T250 503Q233 503 224 517T206 561Q195 601 185 645T164 732Q166 738 172 741T185 742Q194 728 204 711T224 675T243 640T261 610Q264 608 271 610Q304 642 341 677T414 742Q420 743 425 739T432 728Z"  />
<glyph unicode="&#x178;" horiz-adv-x="614" d="M387 800Q387 773 370 753T324 733Q298 733 284 749T270 791Q270 818 287 838T332 858Q358 858 372 842T387 800ZM562 800Q562 773 545 753T499 733Q473 733 459 749T445 791Q445 818 462 838T507 858Q533 858 547 842T562 800ZM682 667Q682 653 669 650L649 645Q640 643 631 638T609 621T580 589T539 536L395 342Q385 329 381 316T372 286L336 131Q329 100 327 82T326 53T334 38T350 33L381 28Q387 27 388 25T390 16Q390 5 386 -3Q354 -2 317 -1T247 0Q231 0 213 0T175 -1T136 -2T101 -3Q101 1 101 4T100 11Q100 19 101 22T111 28L146 33Q155 34 162 38T175 53T187 82T200 131L236 282Q240 299 238 312T231 338L154 538Q142 571 132 591T114 622T98 638T82 645L63 650Q57 652 56 654T54 662Q54 673 58 681Q90 680 125 679T192 678Q224 678 261 679T330 681Q330 677 330 674T331 666Q331 658 329 655T319 650L293 645Q283 643 278 639T273 622Q273 611 279 591T297 538L356 377H358L469 539Q505 592 508 615T485 645L463 650Q453 652 453 662Q453 667 454 672T458 681Q490 680 515 679T573 678Q604 678 626 679T681 681Q681 677 681 674T682 667Z"  />
<glyph unicode="&#x17D;" horiz-adv-x="653" d="M617 178Q613 165 606 141T592 90T578 40T569 5Q566 0 561 -2Q534 -1 492 -1T405 0Q361 0 319 0Q278 0 250 0Q170 0 99 0T-21 -3Q-22 2 -22 10T-21 25Q-14 32 -4 44T19 72T45 106T73 142L441 626V628H269Q234 628 211 625T172 614T148 595T131 567L111 522Q109 517 106 514T95 511Q91 512 86 512T76 515Q80 531 86 556T99 607T110 658T117 698Q119 698 122 698T127 699Q141 699 144 692T158 681Q167 679 196 679T267 678H420Q473 678 529 678T631 681Q634 668 629 653Q623 646 613 634T590 605T564 571T537 536L169 51V50H396Q431 50 456 53T500 66T532 90T558 130L581 176Q586 188 599 184Q603 182 608 181T617 178ZM537 861Q520 844 505 829T474 800T444 770T411 739Q396 725 385 715T361 705Q350 705 342 713T321 736Q311 747 298 762T270 794T242 829T215 862Q215 877 228 879Q244 870 263 859T300 835T334 813T363 794Q366 792 369 792T375 794Q410 817 447 838T524 879Q537 877 537 861Z"  />
<glyph unicode="&#x17E;" horiz-adv-x="500" d="M469 468Q470 463 470 456Q470 450 468 445Q458 435 441 412T404 365L154 42V40H296Q318 40 334 42T362 51T382 67T397 93L415 134Q417 140 421 141T433 140Q441 138 447 135Q444 126 439 107T428 67T417 29T411 4Q409 0 406 -1Q368 0 316 0Q265 0 202 0Q174 0 144 0Q114 0 85 0Q57 0 31 0T-14 -2Q-15 3 -15 9T-14 21Q-3 32 13 54T50 102L300 425V426H185Q144 426 130 414T108 381L93 344Q91 338 88 337T77 335Q74 335 69 336T61 338Q64 351 68 370T77 409T85 449T90 481H100Q111 481 113 476T123 469Q130 467 147 467T194 466H305Q351 466 391 466Q431 466 469 468ZM451 728Q422 682 391 638T327 549Q312 529 301 516T269 503Q252 503 243 517T225 561Q214 601 204 645T183 732Q185 738 191 741T204 742Q213 728 223 711T243 675T262 640T280 610Q283 608 290 610Q323 642 360 677T433 742Q439 743 444 739T451 728Z"  />
<glyph unicode="&#x192;" horiz-adv-x="500" d="M543 569Q543 560 537 550T522 531T503 517T483 511Q467 511 458 522T439 546T419 570T388 581Q361 581 344 559T315 502T298 423T286 336Q287 332 292 329H424Q430 326 430 317Q430 308 428 296T418 280H288Q286 279 284 278T281 273Q273 212 263 155T236 47T199 -48T148 -127Q116 -165 75 -186T-15 -208Q-48 -208 -70 -198T-94 -162Q-94 -155 -92 -145T-86 -126T-74 -111T-57 -105Q-46 -105 -37 -111T-18 -126T3 -140T29 -147Q59 -147 78 -114T110 -24T132 109T150 273Q149 277 144 280H49Q44 282 44 292Q44 301 46 313T56 329H149Q155 331 157 336Q166 394 187 448T243 545T325 612T435 637Q452 637 471 633T506 620T532 598T543 569Z"  />
<glyph unicode="&#x2C6;" horiz-adv-x="500" d="M384 513Q382 507 376 504T363 503Q354 517 344 534T324 570T304 604T287 635Q284 637 277 635Q244 603 207 568T134 503Q128 502 123 506T116 517Q145 563 176 607T240 696Q255 716 266 729T298 742Q315 742 324 728T342 684Q353 643 363 599T384 513Z"  />
<glyph unicode="&#x2DC;" horiz-adv-x="500" d="M413 684Q413 664 404 645T380 612T346 589T307 580Q281 580 258 590T215 613T179 636T150 647Q140 647 134 642T127 625Q127 617 132 610T137 595Q137 584 126 578T105 572Q93 572 89 582T84 602Q84 622 93 640T117 673T151 696T190 705Q216 705 239 695T282 672T318 649T347 638Q357 638 363 644T370 661Q370 669 365 675T360 690Q360 701 371 706T392 712Q404 712 408 703T413 684Z"  />
<glyph unicode="&#x3BC;" horiz-adv-x="589" d="M534 127Q544 119 541 111T529 94Q511 73 490 53T446 17T398 -8T352 -18Q318 -18 306 0T293 40Q293 59 300 85T318 137L339 196H338Q319 168 290 133T232 68Q190 24 155 3T83 -18Q77 -18 72 -17T62 -13Q56 -15 53 -19Q44 -53 45 -79T50 -126T60 -167T64 -207Q62 -238 43 -258T-9 -278Q-36 -278 -50 -264T-64 -225Q-64 -208 -60 -190T-50 -156Q-42 -130 -30 -94T-5 -17T23 64T51 140L107 293Q114 312 121 333T129 365Q129 382 116 382Q100 382 79 360T38 313Q30 317 24 321Q19 326 20 332T31 352Q46 371 65 391T106 428T152 455T201 466Q228 466 246 452T265 409Q265 385 253 352T229 285L192 179Q186 162 180 143T173 113Q173 95 187 95Q202 95 220 112T268 164Q306 209 337 257T387 355L406 406Q412 423 417 438T424 464Q438 465 453 464T481 460Q515 455 527 443T526 391L443 160Q435 139 429 117T422 83Q422 66 436 66Q452 66 476 87T522 135Q526 133 534 127Z"  />
<glyph unicode="&#x2013;" horiz-adv-x="500" d="M471 275Q471 270 470 261T467 243T461 227T453 218H-6Q-12 222 -12 236Q-12 241 -11 250T-7 268T-2 284T7 292H466Q471 289 471 275Z"  />
<glyph unicode="&#x2014;" horiz-adv-x="1000" d="M972 275Q972 270 971 261T968 243T962 227T954 218H-4Q-10 222 -10 236Q-10 241 -9 250T-5 268T0 284T9 292H967Q972 289 972 275Z"  />
<glyph unicode="&#x2018;" horiz-adv-x="255" d="M253 675Q232 669 211 658T172 631T143 595T132 553Q132 531 142 522T169 512Q174 512 180 512T192 513Q212 513 225 499T238 463Q238 430 216 412T163 393Q121 393 95 422T69 497Q69 533 81 565T115 623T166 668T230 699Q248 705 252 692Q254 687 254 683T253 675Z"  />
<glyph unicode="&#x2019;" horiz-adv-x="255" d="M269 595Q269 559 257 527T223 469T171 424T107 393Q90 387 86 400Q84 405 84 409Q84 413 84 416Q105 422 126 433T165 460T194 496T205 538Q205 560 195 570T168 580Q163 580 157 580T145 579Q125 579 112 593T99 629Q99 662 121 680T174 699Q216 699 242 670T269 595Z"  />
<glyph unicode="&#x201A;" horiz-adv-x="255" d="M155 44Q155 8 143 -24T109 -82T58 -127T-6 -158Q-24 -164 -28 -151Q-30 -146 -30 -142T-29 -135Q-8 -129 13 -118T52 -91T81 -55T92 -13Q92 9 82 19T55 29Q50 29 44 29T32 28Q12 28 -1 42T-14 77Q-14 110 8 129T61 148Q103 148 129 119T155 44Z"  />
<glyph unicode="&#x201C;" horiz-adv-x="456" d="M259 675Q238 669 217 658T177 631T148 595T137 553Q137 531 148 522T175 512Q180 512 186 512T197 513Q217 513 230 499T243 463Q243 430 221 412T168 393Q126 393 100 422T74 497Q74 533 86 565T120 623T171 668T235 699Q253 705 257 692Q259 687 259 682Q259 678 259 675ZM459 675Q438 669 417 658T378 631T349 595T338 553Q338 531 348 522T375 512Q380 512 386 512T398 513Q418 513 431 499T444 463Q444 430 422 412T369 393Q327 393 301 422T274 497Q274 533 286 565T320 623T371 668T436 699Q454 705 458 692Q460 687 460 683T459 675Z"  />
<glyph unicode="&#x201D;" horiz-adv-x="456" d="M267 595Q267 559 255 527T221 469T170 424T106 393Q88 387 84 400Q82 405 82 409T83 416Q104 422 125 433T164 460T193 496T204 538Q204 560 194 570T167 580Q162 580 156 580T144 579Q124 579 111 593T98 629Q98 662 120 680T173 699Q215 699 241 670T267 595ZM468 595Q468 559 456 527T422 469T371 424T307 393Q289 387 285 400Q283 405 283 409Q283 413 283 416Q304 422 325 433T364 460T393 496T404 538Q404 560 394 570T367 580Q362 580 356 580T344 579Q324 579 311 593T298 629Q298 662 320 680T374 699Q416 699 442 670T468 595Z"  />
<glyph unicode="&#x201E;" horiz-adv-x="473" d="M152 44Q152 8 140 -24T106 -82T55 -127T-9 -158Q-27 -164 -31 -151Q-33 -146 -33 -142Q-33 -138 -33 -135Q-12 -129 9 -118T49 -91T78 -55T89 -13Q89 9 78 19T51 29Q46 29 40 29T29 28Q9 28 -4 42T-17 77Q-17 110 5 129T58 148Q100 148 126 119T152 44ZM353 44Q353 8 341 -24T307 -82T255 -127T191 -158Q174 -164 170 -151Q168 -146 168 -142Q168 -138 168 -135Q189 -129 210 -118T249 -91T278 -55T289 -13Q289 9 279 19T252 29Q247 29 241 29T229 28Q209 28 196 42T183 77Q183 110 205 129T258 148Q300 148 326 119T353 44Z"  />
<glyph unicode="&#x2020;" horiz-adv-x="500" d="M502 488Q502 483 502 475T500 459T496 445T489 437L309 450Q307 448 305 447T300 443L190 -118Q187 -121 181 -123T168 -126T153 -127Q147 -127 144 -127Q141 -127 135 -127T122 -126T109 -123T102 -118L250 443Q250 447 245 450L62 437Q59 443 59 451Q59 456 59 464T61 480T65 494T72 502L254 490Q260 494 262 497L294 713Q297 716 303 718T316 721T330 722Q337 722 340 722Q343 722 349 722Q356 722 362 721T375 718T382 713L313 497Q315 492 318 490L499 502Q502 498 502 488Z"  />
<glyph unicode="&#x2021;" horiz-adv-x="500" d="M496 477Q496 472 496 464T494 448T490 434T483 426L304 439Q302 437 300 436T295 432L232 161Q232 157 237 154L420 167Q423 161 423 153Q423 148 423 140T421 124T417 110T410 102L228 114Q222 110 220 107L188 -119Q185 -122 179 -124T165 -127T150 -128Q144 -128 141 -128Q138 -128 132 -128T119 -126T107 -123T100 -118L171 108Q169 113 166 115L-15 103Q-18 107 -18 117Q-18 122 -18 130T-16 146T-12 160T-5 168L175 155Q177 157 179 158T184 162L246 433Q246 437 241 440L58 427Q55 433 55 441Q55 446 55 454T57 470T61 484T68 492L250 480Q256 484 258 487L290 713Q293 716 299 718T313 720T327 721Q334 721 337 721Q340 721 346 721Q352 721 359 720T371 717T378 712L307 486Q309 481 312 479L493 491Q496 487 496 477Z"  />
<glyph unicode="&#x2022;" horiz-adv-x="500" d="M417 355Q417 314 404 278T365 215T306 172T232 156Q196 156 166 168T115 203T82 256T70 324Q70 365 84 401T122 463T181 505T256 521Q292 521 322 509T373 475T405 423T417 355Z"  />
<glyph unicode="&#x2026;" horiz-adv-x="1000" d="M163 74Q163 56 157 40T140 12T113 -7T80 -14Q48 -14 28 7T8 60Q8 95 31 121T91 147Q123 147 143 127T163 74ZM527 74Q527 56 521 40T504 12T477 -7T444 -14Q412 -14 392 7T372 60Q372 95 395 121T455 147Q487 147 507 127T527 74ZM892 74Q892 56 886 40T869 12T842 -7T809 -14Q777 -14 757 7T737 60Q737 95 760 121T820 147Q852 147 872 127T892 74Z"  />
<glyph unicode="&#x2030;" horiz-adv-x="875" d="M184 403Q184 409 184 417T181 432T173 445T160 450Q148 450 139 436T123 403T110 364T102 333Q95 307 92 279T88 231Q88 225 88 216T92 199T100 184T114 178Q126 178 135 192T150 225T161 263T169 294Q177 322 180 351T184 403ZM496 239Q496 245 496 253T493 270T485 283T471 289Q459 289 451 275T435 242T424 204T416 173Q408 146 404 118T400 68Q400 62 400 54T403 37T411 22T425 16Q437 16 446 30T462 63T474 102T482 134Q489 161 492 189T496 239ZM766 239Q766 245 766 253T763 270T755 283T741 289Q729 289 720 275T705 242T693 204T685 173Q677 146 673 118T669 68Q669 62 669 54T672 37T680 22T694 16Q706 16 715 30T731 63T744 102T752 134Q759 161 762 189T766 239ZM267 358Q267 326 258 289T231 221T182 168T110 147Q81 147 62 158T30 187T13 227T7 271Q7 303 16 340T44 409T93 462T165 483Q194 483 213 472T245 443T262 403T267 358ZM105 -23Q96 -19 86 -10T70 7L480 490Q489 486 499 477T515 460L105 -23ZM578 196Q578 164 569 127T541 58T492 5T420 -16Q391 -16 372 -5T340 24T323 64T318 109Q318 141 327 178T354 246T403 299T475 320Q504 320 523 309T555 280T572 240T578 196ZM847 196Q847 164 838 127T811 58T762 5T690 -16Q661 -16 642 -5T610 24T593 64T587 109Q587 141 596 178T624 246T673 299T745 320Q774 320 793 309T825 280T842 240T847 196Z"  />
<glyph unicode="&#x2039;" horiz-adv-x="272" d="M220 414Q211 399 197 379T167 337T135 294T106 257Q104 251 104 248Q111 234 120 213T139 169T158 123T175 82Q173 74 165 69T150 66Q135 81 114 105T70 155T27 207T-8 253Q-8 258 -7 262Q14 282 41 305T96 352T151 397T198 433Q206 435 213 429T220 414Z"  />
<glyph unicode="&#x203A;" horiz-adv-x="272" d="M233 246Q233 241 232 237Q211 217 184 194T129 147T74 102T27 66Q19 64 12 71T5 86Q14 101 28 121T58 162T90 205T119 242Q121 248 121 251Q114 265 105 286T86 330T67 376T50 417Q52 425 60 430T75 433Q90 418 111 394T155 344T198 292T233 246Z"  />
<glyph unicode="&#x20AC;" horiz-adv-x="500" d="M486 463Q481 437 478 405T471 346Q468 345 463 345Q459 345 456 345Q444 345 443 357L441 375Q437 408 409 424T349 440Q327 440 308 431T273 408T245 374T226 333Q226 329 229 326H395Q399 324 400 320T400 307Q398 296 395 288T386 277H212Q208 276 205 271Q200 254 198 238T194 205Q194 203 195 201T198 197H364Q368 195 369 192T369 179Q367 168 365 160T356 149H201Q199 148 198 146T195 141Q200 90 227 59T300 27Q339 27 370 47T413 98L419 113Q423 123 438 120Q442 119 445 118T451 116Q443 91 434 57T419 -1Q417 -2 414 -2T409 -1Q401 -1 398 3T387 8Q381 8 373 5T356 -2Q333 -10 311 -14T262 -18Q225 -18 192 -7T133 24T88 74T63 141Q63 146 58 149H4Q0 151 -1 154T0 167Q2 178 5 186T14 197H53Q55 198 56 200T59 205Q60 222 62 238T69 270Q69 274 64 277H34Q30 279 29 283T30 296Q32 307 35 315T44 326H84Q88 327 91 332Q123 398 182 441T324 484Q346 484 367 481T414 470Q425 466 438 460T457 453Q464 453 465 458T476 463H486H486Z"  />
<glyph unicode="&#x2122;" horiz-adv-x="1019" d="M433 571Q430 570 426 570Q422 570 418 570Q409 570 407 578L402 596Q398 609 394 617T381 630T358 636T321 638H301Q299 634 297 622T295 581V363Q295 326 297 313T313 298L337 294Q344 293 344 282Q344 272 343 269Q318 270 292 270T242 271Q219 271 194 271T143 269Q141 275 141 282Q141 293 148 294L173 298Q186 300 188 313T191 363V581Q191 611 189 622T185 638H165Q142 638 128 637T105 631T92 618T83 596L78 578Q76 570 65 570Q61 570 57 570Q53 570 50 571Q51 580 52 597T54 632T57 666T58 692Q60 693 68 693Q71 693 74 692T78 689Q81 678 87 678Q94 677 113 677T162 676H324Q353 676 373 676T400 678Q406 678 409 689Q410 693 418 693Q426 693 428 692Q428 683 428 667T430 633T431 598T433 571ZM1015 282Q1015 275 1013 269Q988 270 963 270T914 271Q891 271 865 271T814 269Q812 275 812 282Q812 293 820 294L844 298Q857 300 860 313T862 363L858 563H857L741 269Q738 268 728 268T707 267Q697 267 687 267T674 269L554 561H553L551 411Q551 380 552 359T556 325T566 306T584 298L607 294Q614 293 614 282Q614 272 613 269Q592 270 571 270T528 271Q508 271 488 271T447 269Q445 275 445 282Q445 293 453 294L475 298Q483 299 488 305T496 324T500 358T502 410L507 588Q508 617 502 634T480 654L460 656Q453 656 453 668Q453 674 455 680Q478 679 498 679T538 678Q557 678 576 678T614 680Q616 679 617 679T621 677Q626 664 632 643T647 599Q651 588 664 555T693 485T722 415T738 372H739L824 599Q832 621 839 642T850 677Q852 678 853 678T857 680Q875 679 890 679T925 678Q942 678 965 678T1008 680Q1010 674 1010 669Q1010 657 1003 657L985 655Q959 652 960 593L965 363Q966 327 968 314T984 298L1007 294Q1015 293 1015 282Z"  />

</font>
</defs>
</svg>
