<?xml  version="1.0" encoding="UTF-8"?>
<!DOCTYPE svg PUBLIC "-//W3C//DTD SVG 1.0//EN" "http://www.w3.org/TR/2001/REC-SVG-20010904/DTD/svg10.dtd" >
<svg xmlns="http://www.w3.org/2000/svg" >
<metadata>
<version>1.0</version>
<id><![CDATA[Sabon Next W01 Bold Italic]]></id>
<vendor>Monotype Imaging Inc.</vendor>
<credits>
<name>Fonts.com WebFonts</name>
<URL>http://webfonts.fonts.com</URL>
<role>Home of the Web fonts</role>
</credits>
<license>
<URL>http://webfonts.fonts.com/Legal</URL>
</license>
<copyright><![CDATA[Copyright © 2002, 2006 Linotype GmbH, www.linotype.com. All rights reserved. This font software may not be reproduced, modified, disclosed or transferred without the express written approval of Linotype GmbH. Sabon is a trademark of Linotype GmbH and may be registered in certain jurisdictions. This typeface is original artwork of Jean Franois Porchez. The design may be protected in certain jurisdictions.]]></copyright>
<trademark><![CDATA[Sabon is a trademark of Linotype GmbH and may be registered in certain jurisdictions.]]></trademark>
<licensee>
<name></name>
</licensee>
</metadata>
<defs >
<font horiz-adv-x="523" id="a6e62662-816c-495c-8db5-d14230e7ac23">
<font-face font-family="" panose-1="2 10 5 3 7 0 0 9 0 4" ascent="917" descent="-279" units-per-em="1000" alphabetic="0">
</font-face>
<missing-glyph horiz-adv-x="0" />

<glyph unicode="&#xA;" />
<glyph unicode="&#xD;" horiz-adv-x="0" />
<glyph unicode=" " horiz-adv-x="250" />
<glyph unicode="!" horiz-adv-x="316" d="M178 59Q178 27 158 7T105 -14Q76 -14 56 4T36 52Q36 84 57 104T110 125Q139 125 158 107T178 59ZM300 634Q300 614 294 593T278 545Q264 503 248 457T215 365T182 279T152 204Q144 202 131 202T110 204Q113 262 117 321T125 434T136 537T149 622Q161 691 231 691Q260 691 280 679T300 634Z"  />
<glyph unicode="&quot;" horiz-adv-x="426" d="M254 653Q254 636 247 616T233 579L168 403Q162 384 157 374T139 363Q128 363 125 373T121 404L128 596Q128 616 131 634T142 667T163 690T200 699Q220 699 237 688T254 653ZM429 653Q429 636 423 616T409 579L344 403Q337 384 333 374T315 363Q304 363 301 373T297 404L304 596Q304 616 306 634T317 667T338 690T375 699Q395 699 412 688T429 653Z"  />
<glyph unicode="#" horiz-adv-x="450" d="M222 -7Q216 -9 208 -9Q201 -9 192 -7T177 0L220 149Q218 153 216 156H129Q124 153 123 149L78 -7Q72 -9 63 -9Q56 -9 47 -7T33 0L75 149Q73 153 71 156H-11Q-16 160 -16 168T-17 183Q-16 190 -15 200T-10 219T-3 235T6 245H97Q103 249 104 252L139 375Q138 378 135 381H55Q50 385 50 393T49 407Q51 423 56 443T73 471H161Q166 474 167 478L209 626Q213 628 217 628T226 628Q233 628 243 626T258 619L218 478Q219 474 222 471H306Q311 474 312 478L354 626Q359 628 369 628Q376 628 387 626T403 619L362 478Q363 473 367 471H446Q451 467 451 459T452 444Q451 436 450 427T446 408T439 392T429 381H339Q334 378 332 375L297 252Q298 248 301 245H381Q386 242 386 234T386 219Q385 211 384 202T380 183T373 167T363 156H274Q269 153 268 149L222 -7ZM242 245Q244 247 246 248T249 252L284 375Q283 378 280 381H195Q192 379 190 378T187 375L153 252Q154 248 157 245H242Z"  />
<glyph unicode="$" horiz-adv-x="500" d="M416 181Q416 138 400 103T355 41T290 0T209 -17H198Q195 -18 192 -21L175 -100Q170 -108 150 -108Q126 -108 126 -100L144 -20Q144 -14 142 -14Q130 -12 119 -10T95 -4Q72 3 64 7T47 11Q42 11 39 8T32 2T24 -4T12 -7Q11 -7 9 -7T5 -6Q13 37 19 90T30 190Q33 191 36 191T45 190Q53 190 55 187T59 178L64 142Q75 53 153 33Q157 36 158 38L210 262Q209 265 207 269Q186 288 167 307T133 347T110 393T101 448Q101 489 116 524T157 584T219 623T296 637H309Q312 639 314 642L331 719Q336 727 356 727Q379 727 380 719L359 635Q360 633 363 630Q371 628 377 626T391 622Q414 615 422 612T438 608Q447 608 451 615T467 622Q469 622 471 622T475 621Q467 584 462 540T453 458Q449 457 445 457T437 457Q429 457 427 460T423 469L418 503Q413 535 396 555T353 585Q349 585 347 580L301 374Q301 369 302 368Q323 349 343 330T380 288T406 239T416 181ZM304 124Q304 154 291 176T253 225Q251 223 251 223T248 222L205 34Q206 32 206 31T208 29Q210 29 211 29T215 30Q253 32 278 57T304 124ZM212 503Q212 474 222 453T257 409Q259 411 259 411T261 414L301 588Q301 592 298 593Q296 594 290 594Q270 593 256 585T231 563T217 535T212 503Z"  />
<glyph unicode="%" horiz-adv-x="761" d="M748 263Q748 220 736 171T700 80T638 10T549 -18Q515 -18 491 -3T452 35T430 88T423 146Q423 189 435 238T471 329T533 399T622 427Q656 427 680 412T719 374T741 321T748 263ZM654 314Q654 323 653 336T648 362T637 384T617 393Q602 393 589 375T567 333T550 282T539 241Q528 201 523 159T518 87Q518 79 519 67T523 44T534 25T555 17Q571 17 584 35T607 78T624 129T635 172Q645 209 649 248T654 314ZM124 -27Q115 -22 105 -13T89 4L633 646Q642 643 652 634T668 616L124 -27ZM334 473Q334 430 322 381T286 290T223 221T134 193Q100 193 76 208T37 246T15 299T8 357Q8 400 20 449T57 540T119 609T208 637Q242 637 266 622T305 584T327 531T334 473ZM238 532Q238 541 237 553T233 576T222 595T202 603Q186 603 173 585T150 542T133 491T122 448Q112 411 107 372T102 305Q102 296 103 283T108 257T119 236T140 227Q155 227 167 245T189 287T206 337T217 378Q228 419 234 461T238 532Z"  />
<glyph unicode="&amp;" horiz-adv-x="829" d="M834 478Q834 450 825 422T799 371T758 334T704 319Q684 319 667 328T633 349Q631 350 631 350T628 348Q628 342 628 336T627 324Q621 258 594 197T522 88T417 11T287 -18Q232 -18 185 0T102 52T47 132T27 236Q27 290 46 343T98 437T177 505T274 531Q291 531 307 528T340 516Q343 515 347 516L393 568Q409 585 417 603T428 638T431 673T430 706Q430 726 442 742T483 758Q511 758 522 743T533 707Q533 690 526 673T506 638T479 603T447 567L133 219Q132 217 132 216T133 210Q159 160 207 128T320 96Q380 96 428 118T511 179T567 266T594 369Q592 376 591 377Q567 397 545 415T500 433Q477 433 462 418T447 380Q447 361 456 353T478 338T499 325T509 302Q509 285 496 273T465 260Q449 260 437 268T417 288T404 315T400 344Q400 375 411 405T443 460T491 499T551 514Q583 514 611 497T664 458T710 419T749 401Q765 401 775 411T786 436Q786 449 779 458T764 476T749 492T742 511Q742 528 756 540T787 552Q800 552 809 545T824 528T831 504T834 478ZM211 454Q183 454 163 442T129 409T110 365T103 318Q103 286 111 259Q114 257 116 259L268 428Q268 430 268 432T267 436Q243 454 211 454Z"  />
<glyph unicode="&apos;" horiz-adv-x="250" d="M254 653Q254 636 247 616T233 579L168 403Q162 384 157 374T139 363Q128 363 125 373T121 404L128 596Q128 616 131 634T142 667T163 690T200 699Q220 699 237 688T254 653Z"  />
<glyph unicode="(" horiz-adv-x="338" d="M191 -125Q189 -127 185 -130T175 -137Q149 -158 141 -141Q101 -66 80 18T59 185Q59 335 114 467T273 705Q286 718 307 697L320 685Q219 581 169 452T119 180Q119 96 134 21T191 -125Z"  />
<glyph unicode=")" horiz-adv-x="338" d="M253 380Q253 230 198 98T39 -140Q26 -153 5 -132L-8 -120Q93 -16 143 113T193 385Q193 469 177 543T121 689Q126 694 137 702Q163 723 171 706Q212 631 232 547T253 380Z"  />
<glyph unicode="*" horiz-adv-x="411" d="M352 662Q352 650 343 634T320 603T292 573T268 551Q254 553 247 562Q248 582 249 607T256 653Q259 669 265 683T291 699Q299 700 309 698T329 690T345 678T352 662ZM425 530Q427 514 422 496T398 474Q386 471 369 475T335 487T301 502T275 516Q274 523 274 528T279 539Q290 543 305 547T336 556T367 562T393 565Q411 565 417 555T425 530ZM227 550Q221 537 210 532Q200 535 186 540T156 551T126 563T104 576Q88 587 90 605Q91 613 96 622T108 640T125 655T143 661Q156 660 169 647T193 615T213 579T227 550ZM327 396Q327 379 314 369T286 356Q268 351 256 358T240 382Q237 391 236 405T235 435T237 466T241 493Q253 498 263 498Q270 490 280 477T301 450T318 421T327 396ZM221 495Q215 485 206 470T185 439T161 412T136 396Q120 392 104 403Q92 411 85 425T81 452Q84 467 100 477T136 494T177 506T209 514Q220 505 221 495Z"  />
<glyph unicode="+" horiz-adv-x="500" d="M265 202V0H205V202H5V265H205V466H265V265H465V202H265Z"  />
<glyph unicode="&#x2c;" horiz-adv-x="250" d="M153 41Q153 3 141 -30T107 -90T56 -138T-9 -171Q-26 -178 -30 -163Q-32 -159 -32 -155T-32 -147Q-10 -141 11 -129T50 -100T78 -62T89 -17Q89 5 79 15T52 25Q47 25 41 25T29 24Q8 24 -4 38T-17 76Q-17 109 5 128T58 148Q100 148 126 119T153 41Z"  />
<glyph unicode="-" horiz-adv-x="250" d="M219 272Q219 266 218 256T214 235T208 216T199 205H-6Q-12 208 -12 225Q-12 231 -11 241T-7 262T-1 281T8 292H213Q219 287 219 272Z"  />
<glyph unicode="." horiz-adv-x="250" d="M145 73Q145 38 122 12T62 -14Q30 -14 10 7T-10 60Q-10 96 13 121T73 147Q105 147 125 127T145 73Z"  />
<glyph unicode="/" horiz-adv-x="300" d="M-3 -18Q-12 -16 -28 -9T-51 5L310 714Q314 713 321 710T335 704T348 697T357 690L-3 -18Z"  />
<glyph unicode="0" horiz-adv-x="500" d="M481 397Q481 356 473 309T450 216T410 128T354 53T282 1T193 -18Q144 -18 110 4T54 60T23 138T13 223Q13 264 20 311T44 404T83 492T139 566T212 618T302 637Q351 637 385 615T440 559T471 482T481 397ZM354 467Q354 482 353 503T345 545T327 580T292 594Q264 594 244 572T208 515Q191 481 178 431T156 328T143 228T138 152Q138 137 139 116T147 74T165 40T200 25Q227 25 247 46T282 100Q299 134 312 185T335 289T349 390T354 467Z"  />
<glyph unicode="1" horiz-adv-x="500" d="M347 -3Q331 -3 312 -3T274 -2T235 -1T200 0Q184 0 163 0T118 -1T73 -2T34 -3Q34 1 34 4T33 11Q33 27 46 28L99 34Q109 35 116 39T129 53T141 82T154 131L238 492Q246 529 212 516L117 480Q112 484 107 499Q104 514 113 518L271 586Q324 609 352 623T397 637Q405 637 408 634Q405 622 400 605T391 570T382 536T376 509L287 131Q280 101 278 83T277 54T285 39T301 34L342 29Q352 28 352 16Q352 5 347 -3Z"  />
<glyph unicode="2" horiz-adv-x="500" d="M431 485Q431 430 400 377T322 275T221 181T121 96V93H312Q333 93 347 95T371 101T389 114T403 133Q407 138 409 140T419 142Q430 142 436 139Q433 127 428 110T418 73T408 36T400 5Q397 2 393 -1Q387 0 362 0T306 1T243 1T192 0Q168 0 138 0T79 0T27 -1T-6 -2Q-8 3 -7 20T-3 46Q45 88 96 132T191 226T262 330T290 446Q290 502 263 529T199 556Q167 556 143 541T98 503Q95 505 93 506T87 512Q82 518 83 523T93 541Q108 559 126 576T167 607T217 629T277 637Q307 637 335 627T384 598T418 550T431 485Z"  />
<glyph unicode="3" horiz-adv-x="500" d="M420 214Q420 159 394 110T324 25T222 -33T99 -55Q37 -55 0 -33T-37 18Q-37 27 -32 37T-20 56T-3 70T16 76Q29 76 39 64T62 36T93 9T139 -4Q175 -4 202 15T247 62T274 123T283 185Q283 292 186 292Q163 292 147 288T119 283Q106 283 103 298Q103 302 103 306T103 313Q137 326 171 340T234 374T280 419T298 479Q298 518 273 538T218 558Q183 558 159 546T117 517Q114 519 110 523T103 531Q101 536 102 541T112 554Q147 589 190 613T287 637Q315 637 341 629T387 606T420 568T432 516Q432 483 416 457T374 410T320 374T264 349V347Q296 351 324 344T374 319T407 275T420 214Z"  />
<glyph unicode="4" horiz-adv-x="500" d="M320 -41Q316 -46 295 -47T255 -48Q245 -48 234 -48T214 -47T198 -45T190 -41L230 133Q230 136 226 140H84Q55 140 31 140T-22 137Q-21 148 -18 165T-9 191Q-4 196 7 207T34 235T66 269T101 308L290 517Q323 554 349 585T393 638Q397 639 409 639T436 640T463 640T479 638Q471 609 465 581T450 520L382 224Q382 221 386 217H459Q463 215 462 208T459 190Q456 176 453 160T441 140H369Q365 137 362 133L320 -41ZM244 217Q248 220 251 224L308 465H306L84 219V217H244Z"  />
<glyph unicode="5" horiz-adv-x="500" d="M399 194Q399 144 376 99T313 20T220 -34T106 -55Q85 -55 62 -51T18 -37T-15 -14T-28 18Q-28 27 -23 37T-11 56T6 70T25 76Q38 76 49 64T74 36T107 9T158 -4Q180 -4 202 5T243 33T272 78T283 137Q283 174 269 205T231 261T180 308T122 348Q120 357 121 360L232 619H489Q495 614 495 606Q495 599 493 586T487 559T478 534T466 519H246Q241 517 238 513L213 451Q212 448 212 447T214 442Q248 419 281 394T341 338T383 273T399 194Z"  />
<glyph unicode="6" horiz-adv-x="500" d="M458 215Q458 164 440 122T390 48T316 0T224 -18Q179 -18 142 -4T78 36T38 100T23 186Q23 276 61 356T163 500T310 605T484 659Q496 660 503 659T514 651Q519 649 520 642T522 630Q438 614 371 569T256 457T182 310T156 143Q156 87 174 56T231 25Q254 25 272 42T302 86T320 143T326 201Q326 220 323 239T310 275T287 301T250 311Q238 311 229 309T212 301Q209 304 207 309T205 320Q206 328 216 336Q239 353 264 363T318 373Q351 373 377 361T421 326T448 276T458 215Z"  />
<glyph unicode="7" horiz-adv-x="500" d="M148 -46Q140 -46 130 -43T110 -34T93 -22T82 -10L414 510V512H207Q180 512 163 510T135 501T116 486T102 464Q98 458 95 456T84 454Q79 455 75 456T68 458Q71 469 75 489T85 533T95 579T103 614Q104 617 110 621Q115 620 138 620T192 619T254 619T307 619Q332 619 364 619T428 620T484 621T519 622Q521 617 521 600T519 575Q507 560 485 525T437 445L148 -46Z"  />
<glyph unicode="8" horiz-adv-x="500" d="M429 170Q429 128 412 94T364 35T291 -4T200 -18Q165 -18 133 -9T76 17T36 61T21 120Q21 156 33 183T67 232T116 270T174 300V301Q154 321 138 339T109 377T90 419T83 468Q83 504 98 534T142 588T211 624T299 637Q330 637 361 629T416 604T456 563T471 506Q471 473 460 448T429 404T386 369T335 341V340Q375 302 402 263T429 170ZM289 125Q289 147 282 166T263 203T237 236T207 267Q205 269 198 267Q163 241 140 203T117 119Q117 101 122 84T138 53T164 32T201 24Q222 24 238 32T266 55T283 88T289 125ZM377 512Q377 547 357 571T298 595Q258 595 236 569T214 508Q214 487 222 469T242 434T270 402T300 373Q304 372 308 373Q339 399 358 435T377 512Z"  />
<glyph unicode="9" horiz-adv-x="500" d="M469 433Q469 341 432 258T331 108T185 -1T12 -57Q-1 -58 -8 -57T-19 -49Q-24 -46 -25 -40T-27 -28Q57 -12 124 35T238 151T310 303T336 476Q336 532 318 563T262 594Q236 594 218 577T188 534T172 480T167 429Q167 410 170 391T182 355T205 329T242 318Q255 318 263 320T280 328Q289 320 288 310Q285 300 277 294Q254 277 229 267T175 256Q142 256 116 268T72 303T45 354T35 415Q35 463 52 504T101 574T175 620T269 637Q314 637 351 623T414 583T455 519T469 433Z"  />
<glyph unicode=":" horiz-adv-x="250" d="M146 73Q146 38 123 12T63 -14Q31 -14 11 7T-9 60Q-9 96 14 121T74 147Q106 147 126 127T146 73ZM213 360Q213 324 190 298T130 272Q98 272 78 293T58 346Q58 381 81 406T141 432Q173 432 193 412T213 360Z"  />
<glyph unicode=";" horiz-adv-x="250" d="M155 41Q155 3 143 -30T110 -90T59 -138T-6 -171Q-16 -175 -20 -173T-28 -163Q-30 -159 -30 -155T-29 -147Q-7 -141 14 -129T53 -100T81 -62T92 -17Q92 5 82 15T55 25Q50 25 44 25T32 24Q11 24 -1 38T-14 76Q-14 109 8 128T61 148Q103 148 129 119T155 41ZM217 360Q217 324 194 298T134 272Q102 272 82 293T62 346Q62 381 85 406T145 432Q177 432 197 412T217 360Z"  />
<glyph unicode="&lt;" horiz-adv-x="500" d="M13 203V265L473 468V398L88 234L473 70V0L13 203Z"  />
<glyph unicode="=" horiz-adv-x="500" d="M5 77V140H465V77H5ZM5 323V385H465V323H5Z"  />
<glyph unicode="&gt;" horiz-adv-x="500" d="M8 0V70L394 234L8 398V468L468 265V203L8 0Z"  />
<glyph unicode="?" horiz-adv-x="380" d="M200 59Q200 27 179 7T126 -14Q97 -14 78 4T58 52Q58 84 78 104T131 125Q160 125 180 107T200 59ZM376 518Q376 475 359 448T315 405T258 378T201 358T157 333T139 294Q139 273 153 259T186 244Q206 244 215 247T241 251Q255 251 261 242T268 218Q268 198 260 187T231 175Q202 175 173 190T121 230T82 287T67 352Q67 396 84 421T128 462T184 487T241 506T284 532T302 576Q302 598 288 612T250 626Q235 626 223 622T201 612T180 603T158 598Q148 598 141 603T129 617T122 634T119 653Q119 673 137 682T186 692Q222 692 256 680T316 644T359 589T376 518Z"  />
<glyph unicode="@" horiz-adv-x="792" d="M759 346Q759 287 739 230T680 128T586 56T460 28Q433 28 416 38T398 77Q398 99 408 128T429 186H428Q412 163 390 136T342 84T287 44T230 28Q194 28 178 50T162 103Q162 138 175 177T210 256T262 331T326 394T397 437T470 454Q490 454 506 449T530 430H531L536 440Q544 456 550 460T573 465Q587 465 602 465T629 463Q624 453 617 433T601 392L518 160Q513 146 509 128T504 99Q504 83 526 83Q564 83 597 106T655 166T694 248T708 338Q708 398 688 441T632 513T549 554T448 568Q361 568 296 532T186 437T119 305T96 159Q96 93 119 45T182 -35T275 -82T390 -97Q440 -97 489 -86T583 -48Q588 -54 592 -62T596 -78Q596 -87 589 -91T575 -99Q527 -123 473 -132T364 -142Q292 -142 228 -123T116 -65T40 32T12 168Q12 259 46 339T139 480T277 576T449 611Q510 611 566 595T665 545T733 463T759 346ZM476 366Q476 399 443 399Q411 399 382 371T331 303T296 224T283 160Q283 146 288 134T308 122Q323 122 345 140T389 184T430 241T458 296L471 336Q476 351 476 366Z"  />
<glyph unicode="A" horiz-adv-x="690" d="M628 -3Q595 -3 560 -2T493 0Q461 0 424 -1T353 -3Q353 1 353 4T352 11Q352 25 365 28L398 34Q410 35 416 40T424 56T424 88T418 140L405 232Q403 237 398 238H189Q184 236 180 232L135 154Q106 104 102 71T128 33L157 29Q166 26 166 16Q166 4 162 -3Q129 -3 104 -2T46 0Q30 0 18 0T-6 -1T-31 -2T-60 -3Q-60 1 -60 4T-61 11Q-61 19 -59 22T-49 28L-28 33Q-18 36 -10 42T8 61T29 93T58 140L380 685Q383 687 397 688T427 689T456 688T472 685L555 140Q559 107 564 88T575 57T587 41T603 33L622 29Q628 27 630 25T632 16Q632 4 628 -3ZM390 289Q394 292 397 296L363 549H361L216 296Q216 292 221 289H390Z"  />
<glyph unicode="B" horiz-adv-x="639" d="M570 214Q570 177 555 141T511 76Q490 54 464 40T407 16T345 4T280 0H105Q89 0 71 0T33 -1T-6 -2T-41 -3Q-42 2 -42 11Q-42 19 -40 23T-30 28L5 34Q14 35 21 39T34 54T46 82T59 131L155 547Q162 578 165 596T166 625T158 638T142 644L111 649Q101 651 101 662Q101 674 105 681Q138 681 171 680T237 678Q281 678 324 681T412 685Q446 685 479 677T537 652T578 608T594 541Q594 504 579 475T538 423T482 386T418 364V362Q449 359 476 348T525 317T558 273T570 214ZM424 222Q424 252 415 273T389 308T352 328T308 335H249Q244 332 243 329L202 156Q194 121 191 100T190 66T201 50T226 45H258Q299 45 330 59T382 98T413 155T424 222ZM452 541Q452 590 428 614T362 639Q349 639 338 637T318 633Q310 616 305 596T293 549L255 386Q255 380 259 378H305Q336 378 361 388T408 422Q428 444 440 476T452 541Z"  />
<glyph unicode="C" horiz-adv-x="682" d="M611 187Q606 170 599 146T584 97T571 47T561 8Q558 7 551 7Q540 7 536 13T520 20Q510 20 497 15T470 5Q399 -18 330 -18Q264 -18 208 2T112 61T48 153T25 274Q25 356 53 432T133 566T262 660T434 696Q469 696 496 691T555 675Q562 673 571 669T590 661T607 654T618 651Q623 651 625 653T630 658T636 663T646 666Q648 666 650 666T655 665Q652 646 649 623T642 575T636 526T631 483Q627 482 623 482T614 482Q601 482 598 495L594 536Q590 565 575 585T538 619T493 638T446 644Q398 644 359 627T290 580T238 511T201 430T180 344T173 262Q173 214 183 172T217 100T276 51T363 33Q503 33 559 151L576 186Q581 199 595 194Q600 192 603 191T611 187Z"  />
<glyph unicode="D" horiz-adv-x="754" d="M728 393Q728 360 721 324T699 251T661 178T607 111Q556 59 482 30T314 0H104Q72 0 32 -1T-40 -3Q-41 2 -41 11Q-41 19 -39 23T-29 28L6 34Q15 35 22 39T36 54T47 82T60 131L156 547Q163 578 166 596T167 625T159 638T143 644L112 649Q102 651 102 662Q102 674 106 681Q138 681 169 680T233 678Q251 678 275 679T325 681T377 684T424 685Q488 685 543 666T640 610T704 519T728 393ZM579 398Q579 452 564 496T523 571T461 619T381 636Q363 636 346 634T318 630Q313 617 307 596T294 549L204 158Q196 125 193 104T192 71T204 54T230 49H280Q414 49 495 153Q535 204 557 268T579 398Z"  />
<glyph unicode="E" horiz-adv-x="600" d="M531 160Q526 147 520 125T508 80T497 36T490 5Q486 -1 482 -2Q475 0 438 0T338 0H105Q89 0 71 0T33 -1T-6 -2T-41 -3Q-42 2 -42 11Q-42 19 -40 22T-30 28L5 34Q14 35 21 39T34 54T46 82T59 131L155 547Q162 578 165 596T166 625T158 638T142 644L111 649Q101 651 101 662Q101 674 105 681Q138 681 175 680T244 678H417Q478 678 510 678T552 680Q558 676 559 672Q557 663 555 645T550 604T546 561T543 525Q539 524 534 524T526 524Q512 524 510 538L506 575Q504 588 499 598T482 616T449 626T395 630H318Q313 621 307 601T290 538L254 382Q254 378 258 374H333Q361 374 378 376T405 382T420 393T429 409L438 434Q442 443 453 443Q458 443 463 443T471 440Q468 430 465 417T458 391T453 365T448 345Q444 329 439 302T429 249Q426 247 421 247T410 248Q399 248 399 259L402 287Q403 294 402 301T392 314T368 322T322 326H246Q244 325 243 323T239 319L205 168Q197 132 194 109T193 73T206 55T234 50H326Q361 50 385 53T426 63T454 84T476 118L496 158Q502 169 513 166Q518 164 522 163T531 160Z"  />
<glyph unicode="F" horiz-adv-x="543" d="M266 -3Q249 -3 228 -3T186 -2T144 -1T107 0Q75 0 33 -1T-41 -3Q-42 2 -42 11Q-42 19 -40 22T-30 28L5 34Q14 35 21 39T34 54T46 82T59 131L155 547Q162 578 165 596T166 625T158 638T142 644L111 649Q101 651 101 662Q101 674 105 681Q138 681 175 680T244 678H416Q477 678 509 678T551 680Q557 676 558 672Q556 663 554 644T549 603T545 560T542 524Q538 523 534 523T525 523Q511 523 509 537L505 575Q503 588 498 598T481 616T448 626T394 630H318Q313 621 307 601T290 538L254 382Q254 378 258 374H332Q360 374 377 376T404 382T419 393T428 409L437 434Q441 443 453 443Q458 443 463 443T471 440Q468 430 465 417T458 391T453 365T448 345Q443 328 438 298T428 243Q424 241 419 241T409 241Q397 241 398 252L401 287Q402 294 401 301T391 314T367 322T321 326H246Q244 325 243 323T239 319L197 131Q189 101 188 83T188 54T197 39T214 34L261 29Q271 28 271 16Q271 5 266 -3Z"  />
<glyph unicode="G" horiz-adv-x="738" d="M701 282Q702 277 702 268Q702 252 689 251L657 245Q648 243 641 239T627 225T615 196T603 147L597 118Q588 79 588 62T590 37Q588 35 587 32T583 26Q537 6 474 -6T350 -18Q279 -18 220 2T117 59T49 151T25 274Q25 358 52 434T133 568T263 661T438 696Q505 696 568 677Q580 674 592 670T615 661T634 654T646 651Q651 651 654 653T660 658T666 663T676 666Q678 666 680 666T685 665Q678 623 672 574T660 484Q655 483 651 483T642 483Q634 483 632 487T627 496L622 535Q618 565 600 586T557 620T504 639T453 645Q379 645 327 609T240 517T189 394T173 262Q173 215 184 173T218 99T276 48T361 29Q409 29 444 55Q448 63 452 78T460 111L468 147Q475 178 476 196T476 225T466 240T449 245L404 250Q395 251 395 263Q395 275 399 282Q415 282 436 282T479 281T521 280T558 279Q590 279 629 280T701 282Z"  />
<glyph unicode="H" horiz-adv-x="785" d="M679 -3Q647 -3 609 -2T539 0Q507 0 466 -1T392 -3Q392 1 392 4T391 11Q391 19 393 22T403 28L438 34Q448 35 455 39T468 53T479 82T492 131L537 320Q537 322 533 326H246Q241 324 240 320L197 131Q189 101 187 83T186 54T194 40T210 34L241 29Q251 26 251 16Q251 5 246 -3Q213 -3 175 -2T105 0Q89 0 71 0T33 -1T-6 -2T-41 -3Q-42 2 -42 11Q-42 19 -40 22T-30 28L5 34Q14 35 21 39T34 54T46 82T59 131L155 547Q162 578 165 596T166 625T158 638T142 644L111 649Q101 651 101 662Q101 674 105 681Q138 681 176 680T246 678Q278 678 319 679T393 681Q393 677 393 674T394 667Q394 659 392 656T382 650L347 644Q338 642 331 639T318 625T306 597T293 547L255 386Q255 384 259 380H545Q549 381 551 386L589 547Q596 578 598 596T599 625T591 638T575 644L544 649Q534 651 534 662Q534 673 539 681Q571 681 609 680T679 678Q711 678 752 679T826 681Q827 676 827 667Q827 653 814 650L780 644Q771 642 764 639T751 625T739 597T726 547L629 131Q622 101 620 83T619 54T627 39T643 34L674 29Q684 26 684 16Q684 5 679 -3Z"  />
<glyph unicode="I" horiz-adv-x="351" d="M246 -3Q213 -3 175 -2T105 0Q89 0 71 0T33 -1T-6 -2T-41 -3Q-42 2 -42 11Q-42 19 -40 22T-30 28L5 34Q14 35 21 39T34 54T46 82T59 131L155 547Q162 578 165 596T166 625T158 638T142 644L111 649Q101 651 101 662Q101 674 105 681Q138 681 176 680T246 678Q278 678 319 679T393 681Q393 677 393 674T394 667Q394 659 392 656T382 650L347 644Q338 642 331 639T318 625T306 597T293 547L197 131Q189 101 187 83T186 54T194 39T210 34L241 29Q251 26 251 16Q251 5 246 -3Z"  />
<glyph unicode="J" horiz-adv-x="347" d="M201 146Q181 62 150 -8T78 -130T-12 -211T-117 -240Q-169 -240 -192 -222T-216 -185Q-216 -176 -212 -165T-199 -143T-182 -126T-161 -119Q-148 -119 -139 -128T-120 -150T-100 -171T-73 -181Q-38 -181 -11 -121T48 77L156 547Q163 578 165 596T166 624T158 638T142 644L107 649Q97 650 97 662Q97 673 102 681Q118 681 137 681T175 680T212 679T247 678Q279 678 320 679T394 681Q395 676 395 667Q395 653 382 650L348 644Q339 642 332 639T319 625T307 597T293 547L201 146Z"  />
<glyph unicode="K" horiz-adv-x="721" d="M648 -3Q642 -3 626 -3T591 -2T555 -1T528 -1Q498 -1 479 4T445 22T420 52T394 95Q371 134 351 170T308 246Q293 272 283 287T265 313Q263 315 262 315T258 317H245Q243 315 242 315T239 312L197 131Q189 101 187 83T186 54T194 40T210 34L241 29Q251 26 251 16Q251 5 246 -3Q213 -3 175 -2T105 0Q89 0 71 0T33 -1T-6 -2T-41 -3Q-42 2 -42 11Q-42 19 -40 22T-30 28L5 34Q14 35 21 39T34 54T46 82T59 131L155 547Q162 578 165 596T166 625T158 638T142 644L111 649Q101 651 101 662Q101 674 105 681Q138 681 176 680T246 678Q278 678 319 679T393 681Q393 677 393 674T394 667Q394 659 392 656T382 650L347 644Q338 642 331 639T318 625T306 597T293 547L252 369Q252 365 256 361Q265 361 273 361T291 366T313 380T341 406L478 548Q505 576 517 594T532 622T529 638T514 645L493 650Q488 652 486 654T483 662Q483 673 488 681Q520 680 546 679T603 678Q634 678 658 679T714 681Q714 677 714 674T715 667Q715 659 713 656T703 650L682 645Q671 642 661 637T637 620T604 590T555 543L382 372Q382 368 382 366T382 361Q396 343 411 319T443 269T477 215T510 162Q527 135 540 113T567 75T593 48T624 33L642 28Q647 26 649 24T652 16Q652 4 648 -3Z"  />
<glyph unicode="L" horiz-adv-x="579" d="M512 172Q507 159 501 135T489 86T477 38T469 5Q465 -1 461 -2Q454 0 417 0T317 0H104Q72 0 32 -1T-41 -3Q-42 2 -42 11Q-42 19 -40 22T-30 28L5 34Q14 35 21 39T34 54T46 82T59 131L155 547Q162 578 165 596T166 625T158 638T142 644L111 649Q101 651 101 662Q101 674 105 681Q138 681 176 680T246 678Q262 678 282 678T324 679T366 680T403 681Q403 677 403 674T404 667Q404 653 392 650L350 644Q341 642 334 639T320 626T307 598T293 549L205 168Q197 132 194 109T193 73T206 55T234 50H304Q339 50 363 52T405 62T433 83T453 118L477 171Q483 182 495 178Q505 176 512 172Z"  />
<glyph unicode="M" horiz-adv-x="890" d="M812 -3Q795 -3 776 -3T736 -2T696 -1T661 0Q630 0 597 -1T531 -3Q530 2 530 11Q530 19 532 22T542 28L575 34Q584 35 590 39T601 53T610 82T618 131L667 496H665L388 -10Q385 -11 375 -11T352 -12T330 -12T318 -10L206 485H204L140 201Q128 150 124 118T122 68T131 43T150 34L180 29Q190 26 190 16Q190 4 186 -3Q169 -3 157 -3T134 -2T112 -1T84 0Q52 0 25 -1T-34 -3Q-35 2 -35 11Q-35 27 -22 28L12 34Q21 35 28 41T43 66T60 118T81 205L161 551Q170 589 161 612T118 644L91 649Q81 651 81 662Q81 673 86 681Q93 681 106 681T133 680T161 679T183 678Q189 678 205 678T239 678T273 679T298 681Q300 680 302 679T306 676Q308 660 314 630T328 563L416 154H418L640 562Q660 600 672 629T693 676Q697 679 703 681Q709 680 721 680T747 679T774 678T795 678Q819 678 847 678T901 681Q901 677 901 674T902 667Q902 651 890 650L856 644Q847 642 841 639T829 625T818 597T809 549L753 131Q748 101 747 83T748 54T757 39T773 34L807 29Q817 26 817 16Q817 5 812 -3Z"  />
<glyph unicode="N" horiz-adv-x="754" d="M648 -3Q633 -2 617 -1T585 0Q562 0 534 0T489 -3Q484 -2 480 2Q472 23 457 51T422 115L212 503H210L148 225Q135 167 131 131T130 73T141 44T164 34L204 29Q215 28 215 16Q215 5 210 -3Q178 -2 145 -1T81 0Q50 0 25 -1T-32 -3Q-32 1 -32 4T-33 11Q-33 19 -31 23T-21 28L14 34Q23 35 30 41T45 66T62 118T83 205L163 564Q164 571 161 578Q141 612 125 625T84 645L63 650Q58 652 56 653T54 662Q54 673 59 681Q66 681 79 681T105 680T131 679T152 678Q158 678 174 678T207 678T241 679T266 681Q271 680 275 676Q283 656 298 627T331 563L543 173H545L607 453Q620 511 624 548T626 605T614 634T592 644L551 649Q542 650 542 662Q542 674 546 681Q578 680 609 679T672 678Q703 678 729 679T787 681Q788 676 788 667Q788 659 786 655T776 650L742 644Q733 642 726 636T711 612T694 561T673 473L589 97Q587 91 590 86Q606 56 616 46T637 30L643 28Q649 26 651 25T653 16Q653 5 648 -3Z"  />
<glyph unicode="O" horiz-adv-x="750" d="M724 400Q724 313 694 237T611 104T483 15T322 -18Q258 -18 204 4T110 65T48 159T25 279Q25 366 55 442T138 575T266 663T428 696Q491 696 545 674T639 613T701 519T724 400ZM578 425Q578 464 571 504T544 576T494 630T417 651Q374 651 339 632T277 580T230 506T197 420T178 332T172 254Q172 215 179 175T205 102T254 48T332 27Q375 27 410 46T472 98T520 173T553 259T572 346T578 425Z"  />
<glyph unicode="P" horiz-adv-x="587" d="M266 -3Q249 -3 228 -3T186 -2T144 -1T107 0Q75 0 33 -1T-41 -3Q-42 2 -42 11Q-42 19 -40 22T-30 28L5 34Q14 35 21 39T34 54T46 82T59 131L155 547Q162 578 165 596T166 625T158 638T142 644L111 649Q101 651 101 662Q101 674 105 681Q138 680 167 679T235 678Q275 678 312 681T398 685Q437 685 471 675T532 645T573 594T589 520Q589 463 567 419T508 344T420 297T315 280Q293 280 282 284T272 301Q273 308 275 315T281 327Q287 326 293 326T305 325Q342 325 368 344T412 392T438 456T446 523Q446 581 421 610T355 639Q343 639 335 637T318 633Q311 616 305 596T293 549L197 131Q189 101 188 83T188 54T197 39T214 34L261 29Q271 28 271 16Q271 5 266 -3Z"  />
<glyph unicode="Q" horiz-adv-x="754" d="M725 400Q725 301 688 219T583 79Q533 37 470 12T327 -32L157 -70V-72Q184 -78 220 -87T297 -107T380 -127T460 -146T530 -159T582 -164Q592 -164 602 -162T621 -155T635 -142T641 -120Q641 -106 633 -96T624 -75Q624 -59 639 -52T668 -44Q687 -44 696 -57T706 -89Q706 -121 688 -149T638 -197T566 -230T480 -242Q435 -242 386 -233T285 -207L102 -148Q58 -134 20 -126T-39 -117Q-42 -110 -43 -101T-42 -84Q-19 -79 6 -74T58 -62L262 -11V-9Q211 1 168 26T94 90T46 176T29 280Q29 367 58 443T141 575T268 663T430 696Q494 696 548 674T641 613T703 519T725 400ZM581 425Q581 464 574 504T548 577T498 630T420 651Q377 651 342 632T279 580T232 506T199 420T180 334T174 256Q174 217 181 177T207 104T256 52T334 31Q378 31 413 50T475 102T523 175T556 260T575 347T581 425Z"  />
<glyph unicode="R" horiz-adv-x="706" d="M641 -3Q635 -3 620 -3T585 -2T549 -2T523 -2Q492 -1 473 5T440 25T416 56T393 100Q372 142 355 178T315 256Q304 276 297 290T281 315Q278 319 275 320H245Q240 317 239 314L197 131Q189 101 187 83T186 54T194 40T210 34L241 29Q251 26 251 16Q251 5 246 -3Q213 -3 175 -2T105 0Q89 0 71 0T33 -1T-6 -2T-41 -3Q-42 2 -42 11Q-42 19 -40 23T-30 28L5 34Q14 35 21 39T34 54T46 82T59 131L155 547Q162 578 165 596T166 625T158 638T142 644L111 649Q101 651 101 662Q101 674 105 681Q138 681 170 680T235 678Q279 678 321 681T408 685Q442 685 475 677T533 651T574 605T590 538Q590 497 575 465T534 409T477 370T412 348Q409 345 410 341Q437 300 462 253T515 157Q531 129 544 108T568 71T592 46T620 32L636 29Q646 26 646 16Q646 5 641 -3ZM447 535Q447 562 440 582T420 614T393 633T361 639Q351 639 339 637T318 633Q310 616 305 596T293 549L251 371Q251 366 255 362H295Q327 362 354 374T402 410Q423 435 435 468T447 535Z"  />
<glyph unicode="S" horiz-adv-x="511" d="M435 201Q435 152 415 112T361 43T283 -2T191 -18Q136 -18 80 1Q58 9 51 11T36 13Q31 13 27 10T20 4T12 -3T0 -6Q-2 -6 -4 -6T-9 -5Q-1 42 6 99T18 208Q22 209 26 209T34 209Q42 209 45 205T50 195L55 157Q62 97 99 64T194 31Q245 31 276 61T307 139Q307 163 300 183T279 222T248 258T211 293Q190 312 170 333T133 377T106 428T96 489Q96 532 112 569T157 635T227 679T317 696Q345 696 366 692T412 680Q433 673 444 669T463 664Q468 664 471 666T477 672T483 677T493 680Q495 680 497 680T502 679Q495 638 489 588T478 498Q474 497 470 497T462 497Q454 497 451 500T446 510L441 548Q435 596 401 622T321 649Q296 649 278 640T247 617T229 585T223 548Q223 524 230 505T251 468T279 435T312 404Q335 383 357 361T396 315T424 263T435 201Z"  />
<glyph unicode="T" horiz-adv-x="624" d="M380 -3Q347 -3 309 -2T238 0Q206 0 166 -1T92 -3Q92 1 92 4T91 11Q91 25 104 28L138 34Q148 35 155 39T168 54T180 82T193 131L286 534Q295 572 298 593T301 626H229Q197 626 178 623T145 612T125 594T112 567L93 523Q88 509 77 511Q73 511 68 511T58 513Q62 532 67 556T77 605T86 653T92 696Q94 696 97 696T102 697Q109 697 112 695T118 689T123 683T132 678Q142 675 170 675T239 674H522Q564 674 592 674T630 678Q636 679 638 682T644 689T650 694T662 697Q664 697 667 697T672 696Q668 682 664 658T656 607T649 554T644 511Q640 510 635 510T627 510Q611 510 611 523L608 569Q608 582 603 593T586 611T552 622T497 626H450Q445 617 439 595T423 534L330 131Q322 101 320 83T319 54T327 39T343 34L374 29Q384 26 384 16Q384 4 380 -3Z"  />
<glyph unicode="U" horiz-adv-x="686" d="M289 -18Q238 -18 196 -5T122 32T74 89T56 161Q56 186 60 212T70 264L136 547Q143 577 146 595T147 624T139 638T123 644L92 649Q82 651 82 662Q82 673 87 681Q119 681 157 680T226 678Q258 678 299 679T374 681Q374 677 374 674T375 667Q375 659 373 656T363 650L328 644Q319 642 312 639T299 625T287 597T274 547L200 230Q192 195 192 164Q192 110 226 77T321 44Q362 44 392 58T443 97T477 154T500 223L550 441Q564 502 570 540T575 601T565 633T542 644L505 649Q495 650 495 662Q495 674 499 681Q515 681 529 681T558 680T588 679T624 678Q655 678 680 679T739 681Q739 677 739 674T740 667Q740 653 727 650L694 644Q684 642 677 636T663 611T647 559T625 470L564 207Q539 100 473 41T289 -18Z"  />
<glyph unicode="V" horiz-adv-x="664" d="M309 -6Q306 -8 293 -9T264 -10T235 -9T220 -6L125 538Q119 570 115 589T105 620T93 637T77 645L60 649Q54 651 52 653T50 662Q50 674 54 681Q87 680 121 679T188 678Q220 678 256 679T325 681Q326 676 326 666Q326 652 314 649L280 644Q269 642 263 637T254 621T254 590T261 538L325 143H327L524 520Q533 538 542 558T554 597T552 628T529 645L503 649Q494 652 494 662Q494 674 498 681Q531 680 557 679T616 678Q632 678 644 678T669 679T693 680T723 681Q723 677 723 674T724 667Q724 653 711 650L690 645Q680 642 671 636T653 617T632 586T605 538L309 -6Z"  />
<glyph unicode="W" horiz-adv-x="964" d="M609 -6Q606 -8 594 -9T568 -10T542 -9T528 -6L470 265H468L311 -6Q308 -8 296 -9T270 -10T244 -9T230 -6L124 538Q118 570 113 590T103 621T92 637T76 645L58 649Q52 651 50 653T48 662Q48 674 52 681Q85 680 119 679T185 678Q217 678 249 679T314 681Q314 677 314 674T315 666Q315 652 303 649L276 644Q266 642 260 637T252 621T251 590T259 538L332 142H334L452 341Q453 344 453 351L414 538Q407 571 402 591T391 622T379 639T364 646L346 649Q337 652 337 662Q337 674 341 681Q374 680 401 679T460 678Q491 678 515 679T572 681Q572 677 572 674T573 666Q573 653 560 649L545 645Q536 643 531 638T525 622T527 590T536 538L551 455H553L596 534Q624 585 629 612T611 645L597 649Q591 651 589 653T587 662Q587 673 592 681Q621 679 641 679T687 678Q713 678 733 679T776 681Q776 677 776 674T777 667Q777 653 764 650L749 646Q738 643 729 637T710 617T689 585T661 538L573 387Q571 380 572 376L622 138H624L831 534Q857 585 858 613T836 646L820 649Q810 651 810 662Q810 674 814 681Q842 681 866 680T916 678Q943 678 968 679T1021 681Q1022 676 1022 667Q1022 659 1020 656T1010 650L989 645Q979 642 971 636T952 617T931 586T904 538L609 -6Z"  />
<glyph unicode="X" horiz-adv-x="658" d="M585 -3Q552 -3 516 -2T448 0Q416 0 379 -1T310 -3Q309 2 309 12Q309 20 311 23T321 29L349 34Q359 35 364 40T369 56T363 88T343 140L281 284H279L167 133Q134 89 128 65T150 34L174 29Q185 26 185 16Q185 5 180 -3Q147 -3 123 -2T66 0Q50 0 37 0T12 -1T-13 -2T-42 -3Q-42 1 -42 4T-43 11Q-43 25 -30 28L-11 33Q-1 36 8 42T30 60T59 92T100 142L253 332V342L166 538Q152 570 142 590T123 621T108 637T92 645L73 649Q67 651 65 653T63 662Q63 674 67 681Q100 681 136 680T204 678Q236 678 272 679T342 681Q343 676 343 666Q343 653 331 649L304 644Q295 642 290 638T284 622T289 590T309 538L365 407H367L470 545Q502 589 508 613T486 644L462 649Q452 652 452 662Q452 674 456 681Q490 680 515 679T573 678Q589 678 601 678T624 679T648 680T677 681Q678 676 678 667Q678 653 666 650L646 645Q637 642 628 637T606 619T578 587T536 536L394 359Q392 353 394 348L486 140Q500 108 510 89T528 58T544 41T561 33L580 29Q585 27 587 25T589 16Q589 4 585 -3Z"  />
<glyph unicode="Y" horiz-adv-x="614" d="M387 -3Q354 -3 317 -2T247 0Q215 0 174 -1T100 -3Q100 1 100 4T99 11Q99 25 111 28L146 34Q155 35 162 39T175 53T187 82T200 131L236 282Q240 299 238 312T231 338L154 538Q142 571 132 590T114 621T98 637T82 645L64 649Q58 651 56 653T54 662Q54 674 58 681Q90 681 125 680T192 678Q224 678 261 679T330 681Q331 676 331 666Q331 658 329 655T319 649L294 644Q285 642 280 638T275 622T280 591T298 538L356 377H358L469 539Q505 592 508 615T485 644L463 649Q453 652 453 662Q453 673 458 681Q490 680 516 679T573 678Q604 678 626 679T681 681Q681 677 681 674T682 667Q682 653 670 650L649 645Q639 642 630 637T608 620T580 588T539 536L396 342Q386 328 382 315T373 286L337 131Q330 101 328 83T326 54T334 40T350 34L381 29Q391 26 391 16Q391 4 387 -3Z"  />
<glyph unicode="Z" horiz-adv-x="653" d="M596 178Q591 165 584 140T570 89T557 39T548 5Q544 -1 540 -2Q512 -2 474 -2T395 -1T316 0T250 0Q169 0 98 0T-21 -3Q-23 3 -23 10T-21 25Q-7 40 18 72T73 142L446 626V628H284Q249 628 226 625T188 614T164 595T147 567L127 522Q122 510 111 511Q106 512 101 512T92 515Q96 531 102 556T115 607T126 658T133 698Q135 698 137 698T142 699Q149 699 153 697T159 692T165 686T173 682Q183 679 212 679T283 678H425Q477 678 534 678T637 681Q639 674 638 667T635 653Q628 646 618 633T595 604T569 571T542 536L169 51V50H375Q410 50 435 53T480 66T512 90T538 130L560 176Q566 187 578 184Q582 182 587 181T596 178Z"  />
<glyph unicode="[" horiz-adv-x="338" d="M185 -137Q171 -137 157 -137T129 -136H35Q23 -136 11 -136T-14 -137L176 699Q188 699 200 699T225 698H312Q326 698 338 698T364 699Q365 694 365 689T366 677Q366 658 349 658H279Q260 658 249 656T229 644T215 613T201 555L76 7Q68 -30 65 -50T66 -81T82 -93T116 -96H175Q189 -96 189 -114Q189 -119 188 -125T185 -137Z"  />
<glyph unicode="\" horiz-adv-x="300" d="M238 -7Q230 -11 213 -13T186 -16L53 704Q62 709 79 712T106 715L238 -7Z"  />
<glyph unicode="]" horiz-adv-x="338" d="M127 -137Q115 -137 103 -137T78 -136H-8Q-22 -136 -34 -136T-60 -137Q-61 -132 -61 -127T-62 -115Q-62 -96 -46 -96H24Q43 -96 55 -94T74 -82T88 -51T103 7L227 555Q235 592 238 612T237 643T221 655T187 658H128Q115 658 115 676Q115 681 116 687T119 699Q133 699 147 699T175 698H268Q280 698 292 698T317 699L127 -137Z"  />
<glyph unicode="^" horiz-adv-x="500" d="M380 205L230 557L81 205H13L202 631H261L449 205H380Z"  />
<glyph unicode="_" horiz-adv-x="500" d="M-71 -224V-158H429V-224H-71Z"  />
<glyph unicode="`" horiz-adv-x="500" d="M319 513Q314 499 298 503Q273 537 247 579T199 654Q194 665 188 677T181 701Q181 718 198 730T232 743Q252 743 259 728T274 691Q279 673 285 651T297 605T308 558T319 513Z"  />
<glyph unicode="a" horiz-adv-x="531" d="M464 134Q470 132 475 128T482 119Q486 111 471 94Q455 77 436 57T394 21T348 -7T298 -18Q265 -18 254 -2T242 38Q242 63 254 98T279 165H278Q260 140 235 109T179 49T117 2T55 -18Q14 -18 -4 7T-22 68Q-22 108 -8 153T32 242T91 327T164 398T244 447T327 466Q348 466 365 460T393 438H394L400 449Q410 467 417 473T443 479Q458 479 473 479T503 477Q498 465 488 441T470 392L381 144Q376 129 372 113T367 85Q367 77 370 72T381 66Q396 66 419 87T464 134ZM326 333Q328 341 330 349T332 366Q332 404 294 404Q270 404 247 389T204 349T166 294T137 233T118 176T111 131Q111 115 117 102T141 88Q158 88 182 108T232 159T278 225T310 288L326 333Z"  />
<glyph unicode="b" horiz-adv-x="524" d="M498 357Q498 296 469 230T392 108T283 18T158 -18Q94 -18 54 8T13 91Q13 111 17 137T29 184L160 601Q169 630 169 642T156 660L126 670Q120 672 119 675T120 685Q121 689 122 693T124 699Q147 702 173 708T225 722Q246 728 260 733T284 741T303 747T320 749Q323 749 325 748T330 746Q325 734 319 717T307 681T296 646T286 616L200 341H202Q219 361 241 383T290 423T344 454T401 466Q419 466 436 460T467 442T489 408T498 357ZM366 331Q366 357 358 373T329 390Q307 390 281 371T229 322T184 258T154 194L136 134Q133 125 131 110T128 84Q128 61 140 47T175 33Q200 33 223 49T268 90T308 148T338 214T358 277T366 331Z"  />
<glyph unicode="c" horiz-adv-x="386" d="M312 149Q322 145 328 139Q335 134 334 127T320 105Q299 80 275 58T225 19T171 -8T114 -18Q53 -18 23 19T-8 116Q-8 147 1 185T29 261T74 337T135 402T212 448T302 466Q315 466 329 464T357 456T378 443T387 421Q387 412 384 402T374 384T360 369T343 363Q332 363 324 370T305 385T283 401T253 408Q232 408 214 392T180 352T153 296T133 235T121 179T117 137Q117 99 133 80T178 61Q197 61 215 69T251 89T283 118T312 149Z"  />
<glyph unicode="d" horiz-adv-x="548" d="M490 134Q495 132 500 128T507 119Q509 114 507 109T496 94Q480 77 461 57T419 21T372 -7T323 -18Q289 -18 277 -2T265 38Q265 55 272 81T287 130H286Q269 107 246 81T197 33T142 -3T82 -18Q36 -18 14 17T-8 100Q-8 139 2 178T29 254T70 324T121 385Q161 425 205 445T302 466Q351 466 376 444Q377 444 381 446L429 601Q437 630 437 642T424 660L394 670Q385 674 388 685Q389 689 390 693T392 699Q415 702 441 708T493 722Q514 728 528 733T553 741T572 747T589 749Q595 749 598 746Q593 734 587 717T575 681T564 646T554 616L410 155Q404 135 398 115T392 83Q392 66 406 66Q421 66 444 87T490 134ZM340 318Q344 331 345 343T347 365Q347 391 334 403T297 416Q271 416 248 400T206 359T172 302T145 239T129 181T123 138Q123 127 124 116T130 95T141 79T161 73Q181 73 205 92T252 139T293 199T321 258L340 318Z"  />
<glyph unicode="e" horiz-adv-x="418" d="M328 148Q338 144 343 139Q350 132 350 125T336 104Q290 53 234 18T114 -18Q54 -18 23 18T-8 116Q-8 149 1 188T29 266T73 341T132 405T204 449T288 466Q310 466 329 461T364 446T387 419T396 380Q396 338 371 306T308 251T222 215T129 199Q128 198 127 196T123 192Q119 176 118 162T116 137Q116 105 131 83T183 61Q223 61 259 87T328 148ZM290 386Q290 403 283 415T259 428Q238 428 219 411T185 366T156 306T134 242Q136 236 138 235Q165 237 192 248T241 280T276 327T290 386Z"  />
<glyph unicode="f" horiz-adv-x="335" d="M535 699Q535 688 529 676T514 654T494 638T474 631Q462 631 450 640T425 661T398 681T366 691Q347 691 333 681T309 655T290 618T275 577Q265 547 257 517T241 455Q243 449 245 448H350Q355 445 355 437Q355 427 353 413T342 397H230Q229 396 228 394T224 390Q216 358 206 319T186 238T163 151T138 65Q118 -1 93 -63T31 -173T-52 -249T-160 -278Q-174 -278 -190 -276T-219 -267T-242 -252T-251 -230Q-251 -221 -247 -210T-236 -189T-220 -171T-201 -164Q-189 -164 -179 -172T-158 -189T-133 -207T-103 -215Q-79 -215 -62 -196T-32 -146T-7 -73T16 15Q28 65 40 116T63 217T84 310T103 389Q102 393 98 397H38Q33 399 33 409Q33 418 35 432T45 448H112Q114 449 118 455Q128 495 140 528T168 590T206 645T260 696Q297 724 338 741T425 758Q442 758 461 754T496 743T524 724T535 699Z"  />
<glyph unicode="g" horiz-adv-x="449" d="M407 -118Q407 -153 387 -182T331 -232T248 -266T149 -278Q103 -278 64 -269T-5 -243T-51 -205T-68 -159Q-68 -135 -55 -116T-22 -82T22 -55T69 -32L70 -29Q44 -16 29 -1T13 31Q13 44 20 59T40 90T68 120T102 147Q70 162 50 190T30 264Q30 306 47 343T92 407T158 451T236 467Q268 467 289 462T332 446Q341 443 352 441T377 439Q395 439 410 443T449 448Q475 448 475 417Q475 403 468 394T449 385Q435 385 421 393T389 401H378Q395 373 395 334Q395 292 378 255T333 189T267 145T189 129Q166 129 144 134Q136 136 133 134T126 127Q114 115 114 99Q114 76 148 60T260 17Q284 8 310 -2T357 -28T393 -65T407 -118ZM287 -164Q287 -137 265 -120T212 -90Q196 -82 168 -71T116 -50Q110 -48 104 -48T86 -56Q61 -72 45 -92T28 -143Q28 -164 40 -181T73 -209T120 -227T172 -233Q194 -233 214 -229T251 -216T277 -194T287 -164ZM283 371Q283 391 276 409T245 428Q221 428 202 405T169 348T149 281T142 226Q142 206 149 188T179 169Q203 169 222 192T255 249T276 316T283 371Z"  />
<glyph unicode="h" horiz-adv-x="531" d="M498 367Q498 331 487 287T458 200T415 117T365 49Q339 20 307 1T237 -18Q224 -18 214 -12T204 11Q204 18 205 26T210 42T219 55T233 60Q244 60 252 57T270 54Q285 54 293 64T310 95Q320 116 330 144T347 203T360 266T365 324Q365 341 360 354T339 368Q330 368 320 362T299 346T276 325T254 301Q171 209 139 94L127 46Q123 30 119 21T107 6T88 0T58 -2Q29 -2 -6 1L160 601Q168 630 168 642T156 660L126 670Q120 672 119 675T120 685Q121 689 122 693T124 699Q147 702 173 708T225 722Q246 728 260 733T283 741T301 747T318 749Q321 749 323 748T327 746Q322 734 316 717T304 682T293 646T284 616L189 274H190Q209 300 232 328T280 380Q295 395 311 410T346 438T383 458T422 466Q443 466 457 458T481 436T494 404T498 367Z"  />
<glyph unicode="i" horiz-adv-x="313" d="M244 134Q250 132 255 128T261 119Q265 111 250 94Q234 77 215 57T173 21T126 -7T76 -18Q49 -18 32 -3T14 40Q14 68 26 102T49 163L100 289Q107 306 114 327T121 360Q121 376 107 376Q99 376 90 370T72 355T53 334T37 312Q32 314 27 318T19 327Q17 332 19 337T29 352Q44 372 64 392T106 429T152 456T200 466Q226 466 243 453T261 411Q261 388 252 362T233 311L168 155Q161 136 154 116T147 83Q147 66 162 66Q178 66 200 87T244 134ZM343 667Q343 635 323 613T270 591Q241 591 224 609T206 656Q206 688 226 710T279 732Q308 732 325 714T343 667Z"  />
<glyph unicode="j" horiz-adv-x="298" d="M143 39Q124 -18 97 -74T34 -176T-49 -250T-153 -278Q-203 -278 -223 -263T-244 -231Q-244 -222 -240 -211T-229 -189T-213 -171T-194 -164Q-182 -164 -172 -172T-151 -189T-129 -206T-102 -214Q-82 -214 -67 -198T-38 -151T-10 -75T22 28Q30 56 41 92T62 165T83 235T99 289Q105 309 110 328T116 360Q116 376 102 376Q94 376 85 370T67 355T48 334T32 312Q27 314 22 318T15 327Q13 332 15 337T25 352Q41 372 60 392T102 429T148 456T196 466Q221 466 239 454T257 414Q257 405 254 392T247 365T239 337T230 311L143 39ZM338 667Q338 635 318 613T265 591Q237 591 220 609T202 656Q202 688 222 710T275 732Q304 732 321 714T338 667Z"  />
<glyph unicode="k" d="M491 56Q499 49 501 38Q502 32 497 28T481 17Q463 6 433 -4T374 -15Q345 -15 325 -6T289 19T261 58T235 110Q224 135 216 150T202 173T188 183T170 186Q166 184 164 180L127 46Q122 30 118 21T106 6T87 0T58 -2Q29 -2 -6 1L160 601Q168 630 168 642T156 660L126 670Q120 672 119 675T120 685Q121 689 122 693T124 699Q147 702 173 708T225 722Q246 728 260 733T283 741T301 747T318 749Q321 749 323 748T327 746Q322 734 316 717T304 682T293 646T284 616L210 347H212Q229 367 251 388T300 426T355 455T410 466Q446 466 463 446T480 395Q480 355 463 324T418 269T359 232T297 212Q296 210 296 208T295 204Q301 199 307 194T321 181T336 160T357 126Q376 91 395 66T445 40Q458 40 470 45T491 56ZM359 353Q359 370 353 379T330 389Q310 389 288 375T247 340Q222 316 204 288T178 229Q180 223 182 222Q210 221 241 229T298 253T342 294T359 353Z"  />
<glyph unicode="l" horiz-adv-x="304" d="M238 134Q243 132 249 128T255 119Q257 114 255 109T244 94Q228 77 209 57T167 21T121 -7T71 -18Q44 -18 26 -4T8 39Q8 60 17 91T36 153L177 601Q186 630 186 642T173 660L143 670Q137 672 136 675T137 685Q138 689 139 693T141 699Q164 702 190 708T242 722Q263 728 277 733T301 741T320 747T337 749Q340 749 342 748T347 746Q342 734 336 717T324 681T312 646T303 616L158 155Q152 135 146 115T140 83Q140 66 154 66Q169 66 193 87T238 134Z"  />
<glyph unicode="m" horiz-adv-x="849" d="M773 134Q778 132 784 128T790 119Q792 114 790 109T779 94Q763 77 744 57T702 21T655 -7T605 -18Q577 -18 560 -3T543 40Q543 69 555 102T578 163L623 271Q630 288 637 307T644 340Q644 359 623 359Q604 359 585 343T553 313Q508 266 474 211T420 99L402 46Q396 30 392 21T381 6T361 0T326 -2Q309 -2 294 -2T262 1L361 271Q367 287 374 307T382 340Q382 359 361 359Q352 359 343 355T325 343T308 328T293 313Q246 265 214 211T161 99L144 46Q138 30 134 21T122 6T102 0T68 -2Q51 -2 36 -2T4 1L105 289Q113 309 119 330T126 365Q126 382 113 382Q104 382 94 375T73 358T54 335T37 312Q32 314 27 318T20 327Q18 332 20 337T30 352Q45 371 64 391T104 428T147 455T192 466Q219 466 234 451T250 408Q250 388 243 363T226 311L208 261H209Q226 287 253 318T311 379Q346 414 385 440T467 466Q490 466 508 454T526 411Q526 391 518 367T497 313L484 282H485Q499 302 522 328T572 379Q607 413 646 439T731 466Q754 466 773 454T792 411Q792 388 781 359T757 298L697 155Q689 136 683 116T676 83Q676 66 691 66Q707 66 729 87T773 134Z"  />
<glyph unicode="n" horiz-adv-x="591" d="M516 134Q521 132 526 128T533 119Q537 111 522 94Q506 77 487 57T445 21T398 -7T348 -18Q320 -18 303 -3T286 40Q286 69 297 102T321 163L366 271Q373 288 380 307T387 340Q387 359 366 359Q347 359 328 343T295 313Q247 265 215 212T161 99L144 46Q138 30 134 21T122 6T102 0T68 -2Q51 -2 36 -2T4 1L105 289Q113 309 119 330T126 365Q126 382 113 382Q104 382 94 375T73 358T54 335T37 312Q32 314 27 318T20 327Q18 332 20 337T30 352Q45 371 64 391T104 428T147 455T192 466Q219 466 234 451T250 408Q250 388 243 363T226 311L208 261H209Q226 287 253 317T313 379Q348 414 388 440T474 466Q497 466 516 454T535 411Q535 388 524 359T500 298L440 155Q433 136 426 116T419 83Q419 66 434 66Q450 66 472 87T516 134Z"  />
<glyph unicode="o" horiz-adv-x="490" d="M450 296Q450 242 430 186T373 85T288 11T181 -18Q141 -18 108 -7T51 25T14 79T0 153Q0 207 20 262T77 363T163 437T269 466Q309 466 342 455T399 423T436 370T450 296ZM331 351Q331 364 329 377T322 400T306 417T280 424Q257 424 236 405T197 356T165 289T140 216T125 148T119 98Q119 85 121 72T128 48T144 31T170 24Q193 24 214 43T253 92T285 159T310 233T325 300T331 351Z"  />
<glyph unicode="p" horiz-adv-x="537" d="M506 343Q506 307 495 266T464 185T417 108T356 43T286 -1T208 -18Q176 -18 142 -9Q138 -10 136 -15L101 -143Q94 -169 91 -185T88 -211T94 -225T112 -230L165 -236Q173 -236 170 -250Q167 -262 164 -267Q152 -267 133 -267T94 -266T55 -265T23 -264Q10 -264 -8 -264T-47 -265T-85 -266T-116 -267Q-116 -263 -116 -260T-114 -251Q-112 -243 -110 -241T-101 -237L-71 -232Q-62 -231 -55 -228T-43 -215T-32 -190T-19 -145L116 361Q116 363 112 367Q90 360 64 350T20 331Q16 334 13 341T9 354Q8 361 11 365T26 376Q48 386 75 397T126 417Q128 419 130 421T134 427L162 533Q166 539 179 543T207 551T237 555T263 556Q268 556 275 555T286 549L262 460Q262 458 266 454Q289 459 314 462T369 466Q397 466 422 459T466 437T495 399T506 343ZM377 324Q377 364 358 386T298 409Q278 409 254 403Q252 402 246 396L166 99Q164 93 163 86T162 72Q162 52 174 42T206 31Q229 31 250 47T291 88T325 146T352 210T370 273T377 324Z"  />
<glyph unicode="q" horiz-adv-x="522" d="M367 -267Q355 -267 339 -267T304 -266T269 -265T238 -264Q225 -264 205 -264T162 -265T119 -266T86 -267Q86 -263 86 -260T88 -251Q90 -243 92 -241T101 -237L145 -230Q155 -229 162 -226T175 -214T186 -189T201 -145L280 121H279Q262 99 241 75T194 30T140 -4T82 -18Q36 -18 14 17T-8 100Q-8 139 2 178T29 254T70 324T121 385Q202 466 300 466Q328 466 351 460T390 442H391Q430 463 455 470T497 477Q507 477 512 474Q503 452 491 417T469 351L322 -143Q307 -194 307 -211T330 -232L368 -236Q378 -236 373 -250Q370 -260 367 -267ZM338 318Q346 345 346 365Q346 391 333 403T297 416Q271 416 248 400T206 359T172 302T145 239T129 181T123 138Q123 127 124 116T130 95T141 79T161 73Q181 73 205 92T253 139T294 199T320 258L338 318Z"  />
<glyph unicode="r" horiz-adv-x="398" d="M410 425Q410 413 407 398T397 368T382 345T362 335Q350 335 340 339T316 343Q293 343 276 326T244 286Q215 237 197 194T165 112L142 46Q136 30 132 21T121 6T101 0T67 -2Q50 -2 35 -2T1 1L58 161Q67 185 76 212T91 266T102 317T107 358Q107 367 104 373T93 379Q84 379 75 372T56 353T37 329T22 308Q17 310 12 313T4 323Q0 330 12 347Q27 367 45 388T83 426T124 455T168 466Q220 466 220 406Q220 389 216 369T206 326T192 280T176 236H179Q194 264 213 299T249 364Q277 413 305 440T372 467Q392 467 401 456T410 425Z"  />
<glyph unicode="s" horiz-adv-x="332" d="M264 147Q264 115 249 85T206 32T143 -4T64 -18Q45 -18 27 -15T-5 -4T-29 15T-38 42Q-38 49 -36 59T-30 79T-20 96T-5 103Q5 103 16 93T40 72T71 50T110 40Q135 40 148 54T162 86Q162 111 143 134T100 182T57 237T37 304Q37 331 50 359T89 411T151 450T235 466Q250 466 265 464T292 456T311 442T319 421Q319 413 316 403T308 384T295 368T278 361Q268 361 259 368T238 384T215 400T187 407Q162 407 151 393T140 364Q140 338 159 315T202 268T244 214T264 147Z"  />
<glyph unicode="t" horiz-adv-x="347" d="M266 159Q272 157 278 153T286 143Q288 138 285 132T277 117Q263 98 243 75T198 31T144 -4T84 -18Q53 -18 36 -2T18 42Q18 61 24 87T42 147L116 389Q116 393 112 397H53Q48 399 48 409Q48 418 50 432T61 448H129L136 455L171 571Q175 577 187 580T213 585T243 587T268 588Q276 588 283 587T295 580L258 455Q258 451 262 448H362Q367 445 367 437Q367 427 364 413T354 397H245L238 390L163 145Q158 130 154 113T149 85Q149 77 152 72T164 66Q175 66 189 76T218 101T245 132T266 159Z"  />
<glyph unicode="u" horiz-adv-x="576" d="M506 134Q511 132 517 128T523 119Q528 110 513 94Q498 77 479 58T437 21T390 -7T342 -18Q315 -18 300 -3T285 40Q285 60 293 85T310 137L330 193H329Q309 164 281 131T226 69Q184 24 148 3T73 -18Q50 -18 31 -5T12 38Q12 59 23 89T45 151L98 289Q106 309 114 331T122 365Q122 382 109 382Q100 382 90 375T69 358T50 335T34 312Q29 314 24 318T17 327Q14 332 16 337T26 352Q41 372 60 392T102 429T147 456T195 466Q220 466 238 452T256 410Q256 385 245 352T221 285L180 177Q173 160 167 141T160 109Q160 89 174 89Q191 89 212 108T258 160Q298 207 328 256T376 355L394 406Q400 423 405 438T412 464Q429 465 444 464T470 460Q486 457 497 453T514 442T520 422T513 391L430 160Q422 139 416 118T409 83Q409 66 423 66Q438 66 461 87T506 134Z"  />
<glyph unicode="v" horiz-adv-x="465" d="M448 404Q448 363 438 321T409 239T366 161T312 93Q293 72 270 53T220 17T165 -8T107 -18Q68 -18 48 5T28 66Q28 86 33 111T48 161L95 289Q103 309 111 331T119 365Q119 382 105 382Q96 382 86 375T65 358T46 335T30 312Q25 314 20 318T13 327Q11 332 13 337T23 352Q38 372 57 392T98 429T143 456T191 466Q216 466 234 452T253 410Q253 385 241 352T217 285L173 160Q168 146 163 129T158 95Q158 81 164 72T187 62Q211 62 236 83T285 136Q300 155 315 178T341 228T359 280T366 331Q366 362 358 383T349 424Q349 441 363 453T402 466Q429 466 438 447T448 404Z"  />
<glyph unicode="w" horiz-adv-x="724" d="M706 404Q706 363 696 322T667 240T625 162T571 93Q529 46 478 14T376 -18Q344 -18 325 3T305 62Q305 82 311 109T323 158H322Q305 131 280 100T225 43T166 -1T107 -18Q70 -18 50 6T29 66Q29 85 34 110T48 161L95 289Q103 310 111 331T119 365Q119 382 105 382Q96 382 86 375T65 358T46 335T30 312Q25 314 20 318T13 327Q11 332 13 337T23 352Q38 372 57 392T98 429T143 456T191 466Q216 466 234 452T253 410Q253 385 241 352T217 285L173 161Q168 147 163 130T158 95Q158 84 163 75T179 65Q197 65 222 89T272 147T317 213T345 262Q357 307 367 344T392 409T425 451T472 466Q493 466 508 454T523 412Q523 392 516 372T499 332T477 296T456 266Q452 253 447 237T437 203T428 168T422 137Q419 123 418 110T418 86T426 69T446 62Q470 62 495 83T544 136Q559 155 573 178T599 228T617 280T624 331Q624 362 616 383T608 424Q608 441 621 453T661 466Q687 466 696 447T706 404Z"  />
<glyph unicode="x" horiz-adv-x="478" d="M415 144Q425 140 424 133T418 111Q408 86 394 63T363 22T325 -7T280 -18Q245 -18 227 7T201 70L179 159H178Q154 122 132 90T89 33T49 -4T10 -18Q-15 -18 -24 -2T-33 39Q-33 55 -30 74T-22 112Q-17 128 -13 134T1 140Q7 139 13 135Q12 129 12 123T11 111Q11 97 17 88T37 79Q52 79 68 89T100 117T132 156T164 202Q166 208 166 212L143 305Q132 347 124 362T100 378Q91 378 83 371T66 353T51 328T38 300Q36 301 33 301T25 304Q17 308 16 314T22 337Q32 362 46 385T77 426T116 455T161 466Q196 466 214 442T242 379L263 297H264Q288 333 309 364T350 417T389 453T427 466Q450 466 459 451T469 412Q469 395 466 377T458 342Q454 327 451 320T437 315Q429 315 423 319Q424 326 424 331T425 343Q425 372 402 372Q388 372 373 363T342 337T310 299T278 253Q276 245 276 243L301 144Q311 104 318 87T341 70Q357 70 371 92T402 149L415 144Z"  />
<glyph unicode="y" horiz-adv-x="476" d="M462 406Q462 361 448 309T409 202T354 92T288 -14Q203 -143 124 -211T-37 -279Q-65 -279 -81 -269T-98 -231Q-98 -211 -90 -193T-60 -175Q-50 -175 -40 -179T-18 -187T5 -195T31 -199Q54 -199 74 -191T117 -157Q150 -124 156 -84T163 3Q163 56 160 119T146 237T119 328T74 365Q59 365 50 354T35 328T26 296T22 269H8Q-1 270 -4 276T-5 300Q-1 331 6 361T28 414T64 451T120 466Q153 466 177 446T219 391T247 313T263 220T270 124T270 33H272Q323 113 351 187T379 327Q379 358 371 379T363 424Q363 441 376 453T415 466Q442 466 452 448T462 406Z"  />
<glyph unicode="z" horiz-adv-x="458" d="M429 82Q429 57 416 31T381 -18T330 -54T268 -68Q234 -68 204 -47T146 -1T93 46T45 67Q15 67 15 44Q15 36 17 30T20 16Q20 5 12 -1T-10 -8Q-34 -8 -34 23Q-34 39 -26 55T-5 85T22 113T49 136L277 329L276 331Q259 335 238 341T195 353T153 362T118 366Q95 366 88 358T80 335Q80 328 84 321T89 304Q89 291 78 284T53 277Q38 277 33 289T27 314Q27 339 42 365T80 414T130 451T183 466Q205 466 230 459T285 440Q314 429 335 422T371 415Q387 415 395 423T404 446Q404 454 408 460T423 466Q434 466 442 459T451 440Q451 423 430 399T370 343L125 137V135Q157 129 179 116T230 79Q243 68 256 57T284 35T311 19T339 13Q358 13 368 23T378 47Q378 61 370 71T361 97Q361 111 371 117T392 124Q410 124 419 112T429 82Z"  />
<glyph unicode="{" horiz-adv-x="338" d="M180 -110Q180 -114 180 -119T181 -129Q181 -138 177 -144T162 -151Q136 -152 111 -145T67 -123T36 -87T24 -40Q24 -12 35 17T59 75T84 130T96 179Q96 220 69 239T3 261Q3 267 4 278T8 295Q57 298 86 311T129 346T147 395T151 455Q151 478 151 506T154 560Q157 599 172 627T213 672T270 698T339 707Q348 707 353 704T358 687Q358 674 354 666Q285 666 251 641T212 560Q210 534 209 502T207 446Q206 414 201 387T182 338T146 301T89 276V274Q115 261 131 239T148 183Q148 156 138 128T114 71T91 14T80 -40Q80 -74 107 -93T180 -110Z"  />
<glyph unicode="|" horiz-adv-x="250" d="M9 -270Q-3 -272 -18 -272T-45 -270L186 730Q198 732 213 732T239 730L9 -270Z"  />
<glyph unicode="}" horiz-adv-x="338" d="M164 -4Q161 -43 146 -71T105 -116T48 -142T-21 -151Q-31 -151 -36 -148T-41 -131Q-41 -126 -40 -121T-37 -110Q34 -110 67 -85T106 -4Q108 22 109 54T111 110Q112 142 117 169T136 218T172 255T229 280V282Q203 295 187 317T170 373Q170 400 180 428T204 485T227 542T238 596Q238 630 211 649T138 666Q138 670 138 675T137 685Q137 694 141 700T156 707Q182 707 207 700T251 679T282 644T294 596Q294 568 283 539T258 481T233 426T221 377Q221 336 248 317T315 295Q315 289 314 278T310 261Q260 258 232 245T189 210T171 160T167 101Q167 78 167 50T164 -4Z"  />
<glyph unicode="~" horiz-adv-x="500" d="M466 224Q443 198 413 182T347 166Q318 166 290 176T234 200T179 223T124 234Q83 234 57 215T6 167V238Q28 263 58 279T124 295Q153 295 181 285T237 261T292 238T347 227Q388 227 414 246T466 294V224Z"  />
<glyph unicode="&#xA0;" horiz-adv-x="250" />
<glyph unicode="&#xA1;" horiz-adv-x="316" d="M122 -170Q115 -205 96 -221T39 -238Q10 -238 -10 -226T-30 -181Q-30 -162 -24 -141T-7 -93Q6 -51 22 -5T56 87T89 173T119 248Q127 250 139 250T160 248Q157 191 154 132T146 18T135 -85T122 -170ZM234 401Q234 369 214 348T161 327Q132 327 112 345T92 393Q92 425 112 445T165 466Q194 466 214 448T234 401Z"  />
<glyph unicode="&#xA2;" horiz-adv-x="500" d="M387 156Q391 154 395 151T403 146Q410 139 409 132T395 110Q374 86 351 65T303 27T250 -1T195 -15L185 -17Q182 -17 179 -21L144 -95Q140 -100 136 -100T121 -95Q109 -90 105 -87T101 -78L130 -19Q130 -14 129 -13Q79 -3 55 32T30 119Q30 152 39 191T68 271T114 349T178 416T258 464T356 484H370Q373 485 375 488L415 570Q420 575 425 574T438 570Q451 565 454 562T458 554L423 484Q423 480 425 478Q443 473 453 464T464 438Q464 430 461 420T452 400T438 384T418 377Q409 377 401 381T384 393Q380 392 379 389L224 71Q223 67 225 65Q229 64 237 64Q258 64 279 72T319 94T356 123T387 156ZM159 144Q159 126 163 111T176 87Q179 86 182 89L338 412Q338 414 338 415T336 418Q324 423 308 423Q283 423 263 406T226 363T197 304T176 240T163 183T159 144Z"  />
<glyph unicode="&#xA3;" horiz-adv-x="500" d="M509 691Q509 681 504 671T489 653T470 639T450 633Q433 633 425 644T409 670T391 696T361 708Q334 708 318 685T291 624T276 538T266 440Q267 438 272 433H413Q418 430 418 422Q418 413 416 400T406 384H266Q260 382 259 377Q249 308 217 248T130 139V138Q136 140 146 141T167 142Q192 142 218 129T268 101T316 73T361 60Q378 60 388 71T398 98Q398 110 391 119T375 136T359 154T352 174Q352 183 358 191T372 207T391 218T411 222Q435 222 448 201T461 154Q461 122 448 91T411 36T358 -3T295 -18Q265 -18 237 -4T183 29T135 61T93 76Q87 76 85 75Q77 61 68 47T46 19T21 -2T-8 -10Q-22 -10 -31 -1T-40 24Q-40 42 -29 57T-2 85T32 106T65 122Q94 179 109 244T129 377Q128 381 122 384H37Q32 387 32 396Q32 406 34 418T44 433H128Q133 435 134 440Q142 496 159 552T208 655T287 729T401 758Q419 758 438 754T472 742T498 721T509 691Z"  />
<glyph unicode="&#xA4;" horiz-adv-x="500" d="M411 20L345 86Q322 69 294 60T234 50Q173 50 124 87L57 20L15 64L81 130Q64 153 54 181T44 241Q44 273 54 300T81 351L15 417L58 461L124 395Q147 412 175 421T234 431Q266 431 294 422T345 395L412 462L454 418L388 353Q425 304 425 241Q425 178 388 130L454 65L411 20ZM367 241Q367 268 357 292T328 334T286 362T234 372Q207 372 184 362T142 334T114 292T104 241Q104 214 114 190T142 148T183 120T234 109Q261 109 285 119T328 148T356 190T367 241Z"  />
<glyph unicode="&#xA5;" horiz-adv-x="500" d="M312 -3Q281 -3 246 -2T179 0Q149 0 110 -1T39 -3Q39 1 39 4T38 11Q38 26 50 27L84 32Q93 33 100 37T113 52T125 80T137 127L146 172Q145 175 141 179H4Q-1 181 -1 189Q-1 198 0 210T10 225H155Q160 227 162 232L167 259Q171 275 170 286T163 311Q162 315 157 318H35Q30 321 30 329Q30 338 32 350T41 365H137Q141 367 142 372L99 493Q88 524 80 543T64 573T51 588T37 596L21 601Q16 603 14 605T12 613Q12 623 16 631Q48 630 77 629T136 628Q166 628 199 629T264 631Q264 627 264 624T265 618Q265 610 263 607T253 601L231 596Q222 593 217 589T212 575T215 545T231 493L278 345H280L373 499Q401 545 406 567T386 596L365 601Q354 604 354 613Q354 618 356 622T360 631Q375 631 387 631T409 630T431 629T458 628Q473 628 484 628T505 629T527 630T554 631Q554 627 554 625T555 618Q555 604 543 601L527 596Q518 593 511 589T493 573T469 543T434 491L356 372Q358 368 360 366H469Q474 363 474 354Q474 345 472 333T463 318H326Q321 316 318 312Q310 300 305 290T296 262L290 232Q290 230 295 225H438Q442 222 442 214Q442 205 440 193T431 179H281Q276 176 275 172L264 127Q256 98 254 80T254 52T262 37T277 32L307 28Q314 27 315 24T317 15Q317 5 312 -3Z"  />
<glyph unicode="&#xA6;" horiz-adv-x="250" d="M78 0V278H141V0H78ZM78 400V678H141V400H78Z"  />
<glyph unicode="&#xA7;" horiz-adv-x="456" d="M366 70Q366 14 342 -36T277 -125T184 -185T77 -208Q63 -208 43 -206T4 -197T-28 -179T-42 -149Q-42 -140 -39 -130T-28 -110T-13 -95T7 -89Q23 -89 35 -99T60 -121T87 -144T122 -154Q141 -154 156 -147T181 -127T196 -99T201 -66Q201 -20 175 28T116 128T58 238T31 361Q31 415 54 465T115 553T203 614T308 637Q321 637 339 635T375 626T405 608T418 579Q418 561 406 541T372 521Q358 521 346 531T322 553T296 575T264 585Q246 585 232 577T209 557T195 528T190 495Q190 450 217 401T278 299T338 189T366 70ZM308 50Q308 107 283 158T226 260T170 361T144 470Q144 485 146 499T153 528H152Q122 502 104 461T86 380Q86 342 98 307T128 237T167 170T207 103T237 34T249 -39Q249 -54 247 -69T239 -99H240Q271 -71 289 -31T308 50Z"  />
<glyph unicode="&#xA8;" horiz-adv-x="500" d="M221 652Q221 626 204 606T158 585Q133 585 119 601T104 643Q104 669 121 689T166 710Q192 710 206 694T221 652ZM396 652Q396 626 379 606T333 585Q308 585 294 601T279 643Q279 669 296 689T341 710Q367 710 381 694T396 652Z"  />
<glyph unicode="&#xA9;" horiz-adv-x="765" d="M737 339Q737 263 711 198T639 85T528 10T387 -18Q311 -18 246 9T132 85T56 199T28 340Q28 416 54 481T126 594T237 669T378 697Q453 697 518 670T632 594T709 480T737 339ZM685 339Q685 404 662 461T597 561T499 628T378 653Q312 653 257 629T163 562T102 462T80 340Q80 275 103 218T168 118T265 51T387 26Q453 26 508 50T602 117T663 217T685 339ZM528 260Q530 266 542 266Q546 265 549 265T554 264Q550 241 547 212T542 163Q541 161 537 159Q510 148 475 142T405 136Q358 136 317 150T244 192T195 256T176 341Q176 390 194 428T244 491T316 530T402 543Q434 543 469 538T535 521Q537 520 538 519T540 517Q542 495 544 468T549 418Q546 417 542 416T535 415Q524 415 523 422Q512 469 484 486T418 504Q384 504 359 493T318 461T293 414T285 354Q285 270 326 223T432 175Q475 175 496 196T528 260Z"  />
<glyph unicode="&#xAA;" horiz-adv-x="398" d="M290 131Q290 126 289 118T286 102T280 88T271 80H19Q13 83 13 98Q13 104 14 112T17 127T22 141T30 149H284Q290 147 290 131ZM369 317Q374 315 378 312T384 303Q386 295 375 284Q363 272 349 258T319 232T284 212T247 204Q221 204 212 216T203 245Q203 262 211 285T226 326H225Q212 309 195 288T157 248T114 217T70 204Q40 204 27 222T13 267Q13 310 36 360T95 452T176 523T265 551Q280 551 293 547T314 532H315Q316 534 316 535T317 538L319 542Q324 553 330 556T350 560Q362 560 375 560T399 558Q394 548 388 531T375 496L311 320Q307 309 305 299T302 280Q302 268 310 268Q320 268 336 282T369 317ZM261 450Q266 463 266 476Q266 500 241 500Q216 500 194 478T154 425T127 363T117 314Q117 302 121 294T136 286Q147 286 163 300T196 335T227 379T250 422L261 450Z"  />
<glyph unicode="&#xAB;" horiz-adv-x="448" d="M351 82Q348 73 340 69T325 66Q310 81 289 105T245 155T202 207T167 253Q167 258 168 262Q189 282 216 305T271 352T326 397T373 433Q381 435 388 429T396 414Q387 399 373 379T342 337T310 294T281 257Q280 254 280 248Q286 233 295 212T315 168T334 123T351 82ZM175 82Q171 73 164 69T149 66Q134 81 113 105T69 155T26 207T-9 253Q-9 258 -8 262Q13 282 40 305T95 352T150 397T197 433Q205 435 212 429T220 414Q210 399 196 379T166 337T134 294T105 257Q104 254 104 248Q110 233 119 212T139 168T158 123T175 82Z"  />
<glyph unicode="&#xAC;" horiz-adv-x="500" d="M398 -16V203H-3V265H458V-16H398Z"  />
<glyph unicode="&#xAD;" horiz-adv-x="250" d="M219 272Q219 266 218 256T214 235T208 216T199 205H-6Q-12 208 -12 225Q-12 231 -11 241T-7 262T-1 281T8 292H213Q219 287 219 272Z"  />
<glyph unicode="&#xAE;" horiz-adv-x="765" d="M737 339Q737 263 711 198T639 85T528 10T387 -18Q311 -18 246 9T132 85T56 199T28 340Q28 416 54 481T126 594T237 669T378 697Q453 697 518 670T632 594T709 480T737 339ZM685 339Q685 404 662 461T597 561T499 628T378 653Q312 653 257 629T163 562T102 462T80 340Q80 275 103 218T168 118T265 51T387 26Q453 26 508 50T602 117T663 217T685 339ZM611 144Q602 144 579 145T541 147Q522 147 507 147T475 145Q463 158 450 177T423 219T398 267T373 315Q371 316 371 317T369 319H332Q330 318 330 317T330 314V243Q330 204 332 190T349 174L374 170Q383 168 383 157Q383 152 381 144Q355 145 331 145T281 146Q255 146 232 146T183 144Q181 154 181 157Q181 168 189 170L213 174Q227 176 230 190T233 243V436Q233 475 230 489T213 505L189 509Q181 511 181 522Q181 525 181 528T183 536Q209 535 226 535T269 534Q283 534 303 534T342 535T379 536T406 537Q469 537 504 511T540 434Q540 399 519 376T469 339Q467 336 469 334Q480 311 498 283T535 228Q556 199 569 187T594 172L605 171Q612 170 612 157Q612 147 611 144ZM438 425Q438 467 417 484T367 501Q361 501 352 501T336 498Q334 494 332 482T330 442V357Q331 355 331 355T332 353H369Q398 353 418 370T438 425Z"  />
<glyph unicode="&#xAF;" horiz-adv-x="500" d="M371 666Q371 661 370 652T366 633T361 616T353 607H135Q129 608 129 624Q129 630 130 639T134 657T139 673T147 683H365Q371 680 371 666Z"  />
<glyph unicode="&#xB0;" horiz-adv-x="328" d="M303 518Q303 486 294 455T266 400T220 360T158 345Q132 345 113 354T81 380T62 418T55 464Q55 496 64 527T92 582T137 622T199 637Q225 637 244 628T277 602T296 564T303 518ZM253 510Q253 525 250 540T240 567T221 587T191 595Q168 595 152 583T125 553T110 513T105 472Q105 457 108 442T118 415T136 395T166 387Q189 387 205 399T232 429T248 468T253 510Z"  />
<glyph unicode="&#xB1;" horiz-adv-x="500" d="M5 1V63H465V1H5ZM265 254V104H205V254H5V316H205V467H264V316H465V254H265Z"  />
<glyph unicode="&#xB2;" horiz-adv-x="331" d="M349 761Q349 722 327 686T274 617T207 556T144 504V502H269Q298 502 309 507T329 528Q333 536 343 536Q346 536 350 535T358 533Q355 525 352 513T344 486T337 460T332 439Q331 437 326 432Q313 434 296 434T259 435T221 434T186 433Q170 433 150 433T110 433T74 433T51 432Q50 434 50 439T50 451T51 462T53 470Q84 497 118 526T179 588T225 657T243 733Q243 770 226 787T185 805Q164 805 148 795T118 771Q114 773 113 774T109 778Q102 785 115 800Q135 826 166 846T242 866Q263 866 282 859T316 839T340 806T349 761Z"  />
<glyph unicode="&#xB3;" horiz-adv-x="331" d="M348 578Q348 540 330 507T282 448T212 409T126 394Q81 394 56 410T30 446Q30 460 42 474T68 488Q77 488 84 479T101 460T122 441T152 432Q175 432 192 445T221 477T239 518T245 558Q245 626 183 626Q169 626 158 624T139 621Q128 621 125 634V646Q149 655 172 664T214 687T244 716T256 755Q256 781 240 793T204 806Q182 806 166 798T136 778Q132 781 129 784T125 791Q122 797 133 808Q158 833 188 849T256 865Q296 865 326 844T356 781Q356 757 345 740T315 709T277 686T238 669V668Q260 671 280 666T315 650T339 620T348 578Z"  />
<glyph unicode="&#xB4;" horiz-adv-x="500" d="M360 705Q360 692 352 682T335 663Q292 620 248 581T158 503Q151 502 146 505T140 517Q182 577 210 623T259 695Q270 712 281 727T313 743Q319 743 327 740T343 731T355 719T360 705Z"  />
<glyph unicode="&#xB5;" horiz-adv-x="589" d="M522 134Q527 132 533 128T539 119Q544 110 529 94Q514 77 494 58T452 21T404 -7T352 -18Q318 -18 306 1T293 40Q293 60 301 85T318 137L339 195H338Q319 168 290 133T232 68Q190 24 155 3T83 -18Q77 -18 72 -17T62 -13Q56 -17 53 -20Q44 -53 45 -79T50 -126T59 -167T63 -208Q62 -239 43 -259T-9 -279Q-36 -279 -50 -264T-64 -225Q-64 -208 -60 -190T-50 -156Q-42 -130 -30 -94T-4 -17T24 64T51 140L107 293Q114 312 121 333T129 365Q129 382 117 382Q100 382 79 360T37 312Q32 317 24 321Q18 326 19 332T30 352Q45 371 64 391T106 428T153 455T201 466Q228 466 246 452T265 410Q265 385 253 352T229 285L191 179Q185 162 179 143T172 113Q172 95 187 95Q203 95 221 111T268 163Q307 209 338 256T387 355L406 406Q412 423 417 438T424 464Q438 466 453 464T481 460Q516 454 527 442T525 391L443 160Q435 139 428 118T421 83Q421 66 436 66Q453 66 477 87T522 134Z"  />
<glyph unicode="&#xB6;" horiz-adv-x="644" d="M418 22Q408 -22 393 -71T353 -161T290 -229T196 -256Q149 -256 116 -227T83 -149Q83 -97 113 -62T197 -27Q226 -27 248 -45T270 -94Q270 -123 253 -140T211 -158Q197 -158 194 -148T191 -127Q202 -126 212 -121T223 -100Q223 -86 214 -80T190 -73Q160 -73 147 -93T134 -140Q134 -171 151 -189T201 -208Q239 -208 264 -189T307 -139T334 -72T354 0L389 154Q371 152 341 151T290 150Q241 150 198 165T122 208T71 278T52 373Q52 440 77 497T146 596T252 661T388 685Q409 685 437 684T495 682T556 679T614 678H681Q686 675 686 665Q686 654 684 641T674 624H593Q582 624 575 620T561 605T549 575T536 526L418 22ZM500 628Q493 628 482 628T459 629T435 629T417 630L319 210Q334 210 359 211T404 213L500 628Z"  />
<glyph unicode="&#xB7;" horiz-adv-x="250" d="M182 263Q182 245 176 229T159 201T133 182T99 175Q67 175 48 196T28 249Q28 285 51 310T111 336Q143 336 162 316T182 263Z"  />
<glyph unicode="&#xB8;" horiz-adv-x="500" d="M313 -160Q313 -182 301 -201T271 -233T230 -255T188 -263Q168 -263 157 -258T146 -238Q146 -228 151 -217T168 -206Q179 -206 190 -214T214 -223Q227 -223 234 -215T241 -196Q241 -180 233 -163T216 -128Q210 -114 209 -101T219 -73Q228 -60 243 -46T274 -20T307 4T335 23L349 4Q339 -3 324 -15T297 -40Q286 -52 286 -62T292 -88Q298 -105 305 -122T313 -160Z"  />
<glyph unicode="&#xB9;" horiz-adv-x="315" d="M300 431Q277 431 247 432T195 433Q184 433 169 433T138 432T106 432T78 431Q77 436 77 443Q77 457 87 458L123 460Q129 460 133 462T142 472T150 491T159 525L215 765Q221 786 199 778L134 754Q128 759 125 770Q122 782 130 784L242 831Q267 842 291 854T332 866Q337 866 342 863Q340 855 337 843T331 819T325 795T321 778L259 525Q254 504 253 492T252 472T258 463T268 460L295 458Q304 457 304 446Q304 438 300 431Z"  />
<glyph unicode="&#xBA;" horiz-adv-x="360" d="M267 131Q267 126 266 118T263 102T257 88T249 80H2Q-4 83 -4 98Q-4 104 -3 112T0 127T5 141T13 149H261Q267 147 267 131ZM352 425Q352 386 337 347T296 276T233 224T156 204Q97 204 59 235T20 328Q20 367 35 407T77 479T139 531T216 551Q275 551 313 520T352 425ZM259 467Q259 484 252 499T225 515Q210 515 196 502T169 467T146 421T129 370T118 322T114 287Q114 270 120 255T147 239Q163 239 177 252T204 287T226 333T244 384T255 432T259 467Z"  />
<glyph unicode="&#xBB;" horiz-adv-x="448" d="M27 66Q19 64 12 70T5 86Q15 100 29 120T59 162T90 205T119 242Q120 244 120 246T121 251Q114 265 105 286T85 331T66 377T50 417Q53 426 60 430T75 433Q90 418 111 394T155 344T198 291T233 246Q233 240 232 237Q212 217 185 194T130 147T74 102T27 66ZM203 66Q195 64 188 70T181 86Q191 100 205 120T235 162T267 205T296 242Q297 245 297 251Q290 265 281 286T261 331T242 377T226 417Q229 426 237 430T252 433Q267 418 288 394T331 344T374 291T409 246Q409 240 408 237Q388 217 361 194T306 147T250 102T203 66Z"  />
<glyph unicode="&#xBC;" horiz-adv-x="783" d="M143 -27Q134 -22 124 -13T108 4L652 646Q661 643 671 634T687 616L143 -27ZM240 203Q217 204 188 204T135 205Q124 205 109 205T78 205T46 204T18 203Q18 207 18 209T17 216Q17 228 28 230L64 232Q70 232 74 234T83 244T91 263T100 297L156 537Q161 558 140 550L74 526Q67 531 66 542Q63 553 70 557L183 603Q207 614 231 625T273 637Q279 637 283 635Q281 627 278 615T271 591T265 567T261 550L200 297Q195 276 194 264T193 244T198 235T208 232L236 230Q244 229 244 219Q244 210 240 203ZM628 -28Q625 -31 609 -33T578 -35Q564 -35 548 -34T530 -27L556 87Q556 89 553 92H460Q440 92 423 91T387 89Q387 99 390 113T398 134Q405 141 427 163T472 211L598 350Q621 376 638 396T668 431Q671 432 681 432T702 433T723 433T736 431Q730 411 726 392T716 350L671 154Q671 153 674 150H720Q722 147 722 140T720 127Q719 119 716 108T708 92H660Q658 91 658 90T656 88L628 -28ZM568 150Q571 151 572 154L608 307H606L467 151V150H568Z"  />
<glyph unicode="&#xBD;" horiz-adv-x="848" d="M761 328Q761 289 739 253T686 184T619 123T556 71V69H681Q710 69 721 74T741 95Q745 103 755 103Q758 103 761 102T769 100Q766 92 763 80T756 53T749 27T744 6Q743 3 737 -1Q725 1 708 1T671 2T633 1T597 0Q581 0 561 0T521 0T485 0T462 -1Q461 1 461 6T461 18T462 29T464 37Q496 64 529 93T591 155T636 224T654 300Q654 337 637 354T597 372Q576 372 560 362T530 338Q526 340 525 341T521 345Q513 351 526 367Q546 393 577 413T654 433Q674 433 693 426T728 406T752 373T761 328ZM143 -27Q134 -22 124 -13T108 4L652 646Q661 643 671 634T687 616L143 -27ZM240 203Q217 204 188 204T135 205Q124 205 109 205T78 205T46 204T18 203Q18 207 18 209T17 216Q17 228 28 230L64 232Q70 232 74 234T83 244T91 263T100 297L156 537Q161 558 140 550L74 526Q67 531 66 542Q63 553 70 557L183 603Q207 614 231 625T273 637Q279 637 283 635Q281 627 278 615T271 591T265 567T261 550L200 297Q195 276 194 264T193 244T198 235T208 232L236 230Q244 229 244 219Q244 210 240 203Z"  />
<glyph unicode="&#xBE;" horiz-adv-x="809" d="M168 -27Q160 -22 150 -13T134 4L678 646Q686 643 696 634T712 616L168 -27ZM288 350Q288 312 270 279T222 220T152 181T66 166Q21 166 -4 181T-30 218Q-30 231 -18 245T9 260Q18 260 25 252T41 233T62 214T92 205Q116 205 133 217T162 249T179 290T185 331Q185 398 123 398Q109 398 99 396T79 393Q68 393 65 406V418Q89 426 112 436T154 458T184 488T196 527Q196 553 181 565T145 578Q123 578 107 570T77 550Q73 553 70 556T65 563Q63 570 73 580Q98 605 128 621T196 637Q216 637 234 632T266 616T288 590T297 553Q297 529 285 512T256 481T217 458T178 441V440Q200 443 220 438T255 422T279 392T288 350ZM654 -28Q651 -31 635 -33T604 -35Q590 -35 574 -34T555 -27L582 87Q582 89 579 92H486Q466 92 449 91T413 89Q413 99 416 113T423 134Q431 141 452 163T498 211L623 350Q646 376 664 396T694 431Q697 432 706 432T727 433T748 433T761 431Q755 411 751 392T741 350L697 154Q697 153 700 150H745Q747 147 747 140T746 127Q745 119 742 108T734 92H686Q684 91 681 88L654 -28ZM593 150Q596 151 597 154L634 307H632L492 151V150H593Z"  />
<glyph unicode="&#xBF;" horiz-adv-x="380" d="M262 101Q262 58 245 32T201 -9T145 -34T89 -54T46 -80T28 -123Q28 -146 42 -159T80 -173Q95 -173 106 -169T128 -159T149 -150T171 -145Q181 -145 188 -150T201 -164T208 -181T210 -200Q210 -220 192 -229T143 -239Q107 -239 73 -227T13 -191T-30 -135T-47 -64Q-47 -21 -30 5T14 48T71 75T128 95T172 120T190 159Q190 180 176 194T143 208Q123 208 114 205T89 201Q74 201 68 210T61 235Q61 255 70 266T99 278Q127 278 156 263T208 223T247 166T262 101ZM272 401Q272 369 251 348T198 327Q169 327 150 345T130 393Q130 425 150 445T203 466Q232 466 252 448T272 401Z"  />
<glyph unicode="&#xC0;" horiz-adv-x="690" d="M628 -3Q595 -3 560 -2T493 0Q461 0 424 -1T353 -3Q353 1 353 4T352 11Q352 25 365 28L398 34Q410 35 416 40T424 56T424 88T418 140L405 232Q403 237 398 238H189Q184 236 180 232L135 154Q106 104 102 71T128 33L157 29Q166 26 166 16Q166 4 162 -3Q129 -3 104 -2T46 0Q30 0 18 0T-6 -1T-31 -2T-60 -3Q-60 1 -60 4T-61 11Q-61 19 -59 22T-49 28L-28 33Q-18 36 -10 42T8 61T29 93T58 140L380 685Q383 687 397 688T427 689T456 688T472 685L555 140Q559 107 564 88T575 57T587 41T603 33L622 29Q628 27 630 25T632 16Q632 4 628 -3ZM390 289Q394 292 397 296L363 549H361L216 296Q216 292 221 289H390ZM446 723Q447 716 443 711T433 705Q415 714 396 724T358 745T322 766T291 784Q277 792 266 801T252 825Q249 842 260 859T288 880Q304 884 315 874T339 850Q349 839 362 824T390 792T418 757T446 723Z"  />
<glyph unicode="&#xC1;" horiz-adv-x="690" d="M628 -3Q595 -3 560 -2T493 0Q461 0 424 -1T353 -3Q353 1 353 4T352 11Q352 25 365 28L398 34Q410 35 416 40T424 56T424 88T418 140L405 232Q403 237 398 238H189Q184 236 180 232L135 154Q106 104 102 71T128 33L157 29Q166 26 166 16Q166 4 162 -3Q129 -3 104 -2T46 0Q30 0 18 0T-6 -1T-31 -2T-60 -3Q-60 1 -60 4T-61 11Q-61 19 -59 22T-49 28L-28 33Q-18 36 -10 42T8 61T29 93T58 140L380 685Q383 687 397 688T427 689T456 688T472 685L555 140Q559 107 564 88T575 57T587 41T603 33L622 29Q628 27 630 25T632 16Q632 4 628 -3ZM390 289Q394 292 397 296L363 549H361L216 296Q216 292 221 289H390ZM627 834Q625 819 614 811T592 796Q569 782 548 770T505 748T462 727T416 705Q401 706 403 724Q421 742 436 757T466 786T496 815T531 847Q541 857 556 869T587 880Q603 879 615 864T627 834Z"  />
<glyph unicode="&#xC2;" horiz-adv-x="690" d="M628 -3Q595 -3 560 -2T493 0Q461 0 424 -1T353 -3Q353 1 353 4T352 11Q352 25 365 28L398 34Q410 35 416 40T424 56T424 88T418 140L405 232Q403 237 398 238H189Q184 236 180 232L135 154Q106 104 102 71T128 33L157 29Q166 26 166 16Q166 4 162 -3Q129 -3 104 -2T46 0Q30 0 18 0T-6 -1T-31 -2T-60 -3Q-60 1 -60 4T-61 11Q-61 19 -59 22T-49 28L-28 33Q-18 36 -10 42T8 61T29 93T58 140L380 685Q383 687 397 688T427 689T456 688T472 685L555 140Q559 107 564 88T575 57T587 41T603 33L622 29Q628 27 630 25T632 16Q632 4 628 -3ZM390 289Q394 292 397 296L363 549H361L216 296Q216 292 221 289H390ZM591 723Q592 716 588 711T578 705Q561 714 543 725T506 748T471 771T442 790Q437 794 431 790Q396 767 359 746T282 705Q267 706 269 724Q287 741 302 756T331 785T361 813T395 845Q410 859 421 869T445 880Q456 880 464 872T484 849Q505 826 535 790T591 723Z"  />
<glyph unicode="&#xC3;" horiz-adv-x="690" d="M628 -3Q595 -3 560 -2T493 0Q461 0 424 -1T353 -3Q353 1 353 4T352 11Q352 25 365 28L398 34Q410 35 416 40T424 56T424 88T418 140L405 232Q403 237 398 238H189Q184 236 180 232L135 154Q106 104 102 71T128 33L157 29Q166 26 166 16Q166 4 162 -3Q129 -3 104 -2T46 0Q30 0 18 0T-6 -1T-31 -2T-60 -3Q-60 1 -60 4T-61 11Q-61 19 -59 22T-49 28L-28 33Q-18 36 -10 42T8 61T29 93T58 140L380 685Q383 687 397 688T427 689T456 688T472 685L555 140Q559 107 564 88T575 57T587 41T603 33L622 29Q628 27 630 25T632 16Q632 4 628 -3ZM390 289Q394 292 397 296L363 549H361L216 296Q216 292 221 289H390ZM595 828Q595 808 586 790T562 757T528 733T489 724Q463 724 440 734T397 758T361 781T332 792Q309 792 309 770Q309 761 313 754T318 739Q318 728 308 723T287 717Q275 717 271 726T266 747Q266 767 275 785T299 818T333 840T372 849Q398 849 421 839T464 816T500 794T529 783Q552 783 552 805Q552 814 548 820T543 834Q543 845 554 851T574 857Q587 857 591 848T595 828Z"  />
<glyph unicode="&#xC4;" horiz-adv-x="690" d="M628 -3Q595 -3 560 -2T493 0Q461 0 424 -1T353 -3Q353 1 353 4T352 11Q352 25 365 28L398 34Q410 35 416 40T424 56T424 88T418 140L405 232Q403 237 398 238H189Q184 236 180 232L135 154Q106 104 102 71T128 33L157 29Q166 26 166 16Q166 4 162 -3Q129 -3 104 -2T46 0Q30 0 18 0T-6 -1T-31 -2T-60 -3Q-60 1 -60 4T-61 11Q-61 19 -59 22T-49 28L-28 33Q-18 36 -10 42T8 61T29 93T58 140L380 685Q383 687 397 688T427 689T456 688T472 685L555 140Q559 107 564 88T575 57T587 41T603 33L622 29Q628 27 630 25T632 16Q632 4 628 -3ZM390 289Q394 292 397 296L363 549H361L216 296Q216 292 221 289H390ZM402 800Q402 774 385 754T339 733Q314 733 300 749T285 791Q285 817 302 837T347 858Q373 858 387 842T402 800ZM577 800Q577 774 560 754T514 733Q489 733 475 749T460 791Q460 817 477 837T522 858Q548 858 562 842T577 800Z"  />
<glyph unicode="&#xC5;" horiz-adv-x="690" d="M628 -3Q595 -3 560 -2T493 0Q461 0 424 -1T353 -3Q353 1 353 4T352 11Q352 25 365 28L398 34Q410 35 416 40T424 56T424 88T418 140L405 232Q403 237 398 238H189Q184 236 180 232L135 154Q106 104 102 71T128 33L157 29Q166 26 166 16Q166 4 162 -3Q129 -3 104 -2T46 0Q30 0 18 0T-6 -1T-31 -2T-60 -3Q-60 1 -60 4T-61 11Q-61 19 -59 22T-49 28L-28 33Q-18 36 -10 42T8 61T29 93T58 140L380 685Q383 687 397 688T427 689T456 688T472 685L555 140Q559 107 564 88T575 57T587 41T603 33L622 29Q628 27 630 25T632 16Q632 4 628 -3ZM390 289Q394 292 397 296L363 549H361L216 296Q216 292 221 289H390ZM540 839Q540 813 531 790T506 750T466 723T416 713Q374 713 348 735T322 799Q322 825 331 847T356 887T396 914T446 924Q488 924 514 902T540 839ZM476 846Q476 863 470 880T443 897Q427 897 416 885T399 857T389 822T386 790Q386 773 393 757T420 740Q436 740 446 752T463 780T473 815T476 846Z"  />
<glyph unicode="&#xC6;" horiz-adv-x="930" d="M861 160Q857 147 851 125T839 80T828 36T820 5Q816 -1 812 -2Q805 0 768 0T668 0H435Q419 0 401 0T363 -1T324 -2T289 -3Q288 2 288 11Q288 19 290 23T300 28L335 34Q344 35 351 39T364 54T376 82T389 131L427 293Q427 297 423 301H258Q251 299 248 296L131 139Q93 86 88 62T112 33L147 29Q156 28 156 16Q156 4 152 -3Q120 -2 93 -1T34 0Q19 0 6 0T-19 -1T-43 -2T-72 -3Q-73 2 -73 11Q-73 19 -71 22T-61 28L-46 32Q-37 34 -29 40T-9 59T17 91T54 138L363 538Q384 565 393 584T403 616T397 635T376 644L344 649Q334 651 334 662Q334 674 338 681Q370 680 395 679T452 678H747Q808 678 840 678T882 680Q888 676 889 672Q887 663 885 645T880 604T876 561T873 525Q869 524 865 524T856 524Q842 524 840 538L836 575Q834 588 829 598T812 616T779 626T725 630H648Q643 621 637 601T620 538L578 360Q578 356 582 352H657Q685 352 702 354T729 360T744 370T753 387L763 414Q766 423 778 423Q783 423 788 423T796 420Q793 410 790 397T783 371T778 345T773 326Q769 309 764 282T754 229Q750 227 745 227T735 228Q723 228 724 239L726 264Q727 271 726 278T716 291T692 299T646 303H571Q568 302 564 296L534 168Q526 132 523 109T522 73T535 55T563 50H657Q691 50 715 53T755 63T784 84T806 118L826 158Q830 170 843 166Q848 164 852 163T861 160ZM433 346Q439 350 441 353L507 636H503L291 353Q293 347 295 346H433Z"  />
<glyph unicode="&#xC7;" horiz-adv-x="682" d="M611 187Q606 170 599 146T584 97T571 47T561 8Q558 7 551 7Q540 7 536 13T520 20Q510 20 497 15T470 5Q444 -3 419 -8T367 -16Q360 -22 354 -28T341 -40Q331 -52 331 -62T336 -88Q343 -105 350 -122T358 -160Q358 -182 346 -201T316 -233T275 -255T233 -263Q212 -263 202 -258T191 -238Q191 -228 196 -217T212 -206Q224 -206 235 -214T258 -223Q272 -223 278 -215T285 -196Q285 -180 277 -163T261 -128Q254 -114 254 -101T264 -73Q274 -59 289 -45T321 -18Q256 -17 202 4T109 64T47 155T25 274Q25 356 53 432T133 566T262 660T434 696Q469 696 496 691T555 675Q562 673 571 669T590 661T607 654T618 651Q623 651 625 653T630 658T636 663T646 666Q648 666 650 666T655 665Q652 646 649 623T642 575T636 526T631 483Q627 482 623 482T614 482Q601 482 598 495L594 536Q590 565 575 585T538 619T493 638T446 644Q398 644 359 627T290 580T238 511T201 430T180 344T173 262Q173 214 183 172T217 100T276 51T363 33Q503 33 559 151L576 186Q581 199 595 194Q600 192 603 191T611 187Z"  />
<glyph unicode="&#xC8;" horiz-adv-x="600" d="M531 160Q526 147 520 125T508 80T497 36T490 5Q486 -1 482 -2Q475 0 438 0T338 0H105Q89 0 71 0T33 -1T-6 -2T-41 -3Q-42 2 -42 11Q-42 19 -40 22T-30 28L5 34Q14 35 21 39T34 54T46 82T59 131L155 547Q162 578 165 596T166 625T158 638T142 644L111 649Q101 651 101 662Q101 674 105 681Q138 681 175 680T244 678H417Q478 678 510 678T552 680Q558 676 559 672Q557 663 555 645T550 604T546 561T543 525Q539 524 534 524T526 524Q512 524 510 538L506 575Q504 588 499 598T482 616T449 626T395 630H318Q313 621 307 601T290 538L254 382Q254 378 258 374H333Q361 374 378 376T405 382T420 393T429 409L438 434Q442 443 453 443Q458 443 463 443T471 440Q468 430 465 417T458 391T453 365T448 345Q444 329 439 302T429 249Q426 247 421 247T410 248Q399 248 399 259L402 287Q403 294 402 301T392 314T368 322T322 326H246Q244 325 243 323T239 319L205 168Q197 132 194 109T193 73T206 55T234 50H326Q361 50 385 53T426 63T454 84T476 118L496 158Q502 169 513 166Q518 164 522 163T531 160ZM397 723Q398 716 394 711T384 705Q366 714 347 724T309 745T273 766T242 784Q228 792 217 801T203 825Q200 842 211 859T239 880Q255 884 266 874T290 850Q300 839 313 824T341 792T369 757T397 723Z"  />
<glyph unicode="&#xC9;" horiz-adv-x="600" d="M531 160Q526 147 520 125T508 80T497 36T490 5Q486 -1 482 -2Q475 0 438 0T338 0H105Q89 0 71 0T33 -1T-6 -2T-41 -3Q-42 2 -42 11Q-42 19 -40 22T-30 28L5 34Q14 35 21 39T34 54T46 82T59 131L155 547Q162 578 165 596T166 625T158 638T142 644L111 649Q101 651 101 662Q101 674 105 681Q138 681 175 680T244 678H417Q478 678 510 678T552 680Q558 676 559 672Q557 663 555 645T550 604T546 561T543 525Q539 524 534 524T526 524Q512 524 510 538L506 575Q504 588 499 598T482 616T449 626T395 630H318Q313 621 307 601T290 538L254 382Q254 378 258 374H333Q361 374 378 376T405 382T420 393T429 409L438 434Q442 443 453 443Q458 443 463 443T471 440Q468 430 465 417T458 391T453 365T448 345Q444 329 439 302T429 249Q426 247 421 247T410 248Q399 248 399 259L402 287Q403 294 402 301T392 314T368 322T322 326H246Q244 325 243 323T239 319L205 168Q197 132 194 109T193 73T206 55T234 50H326Q361 50 385 53T426 63T454 84T476 118L496 158Q502 169 513 166Q518 164 522 163T531 160ZM569 834Q567 819 556 811T534 796Q511 782 490 770T447 748T404 727T358 705Q343 706 345 724Q363 742 378 757T408 786T438 815T473 847Q483 857 498 869T529 880Q545 879 557 864T569 834Z"  />
<glyph unicode="&#xCA;" horiz-adv-x="600" d="M531 160Q526 147 520 125T508 80T497 36T490 5Q486 -1 482 -2Q475 0 438 0T338 0H105Q89 0 71 0T33 -1T-6 -2T-41 -3Q-42 2 -42 11Q-42 19 -40 22T-30 28L5 34Q14 35 21 39T34 54T46 82T59 131L155 547Q162 578 165 596T166 625T158 638T142 644L111 649Q101 651 101 662Q101 674 105 681Q138 681 175 680T244 678H417Q478 678 510 678T552 680Q558 676 559 672Q557 663 555 645T550 604T546 561T543 525Q539 524 534 524T526 524Q512 524 510 538L506 575Q504 588 499 598T482 616T449 626T395 630H318Q313 621 307 601T290 538L254 382Q254 378 258 374H333Q361 374 378 376T405 382T420 393T429 409L438 434Q442 443 453 443Q458 443 463 443T471 440Q468 430 465 417T458 391T453 365T448 345Q444 329 439 302T429 249Q426 247 421 247T410 248Q399 248 399 259L402 287Q403 294 402 301T392 314T368 322T322 326H246Q244 325 243 323T239 319L205 168Q197 132 194 109T193 73T206 55T234 50H326Q361 50 385 53T426 63T454 84T476 118L496 158Q502 169 513 166Q518 164 522 163T531 160ZM528 723Q529 716 525 711T515 705Q498 714 480 725T443 748T408 771T379 790Q374 794 368 790Q333 767 296 746T219 705Q204 706 206 724Q224 741 239 756T268 785T298 813T332 845Q347 859 358 869T382 880Q393 880 401 872T421 849Q442 826 472 790T528 723Z"  />
<glyph unicode="&#xCB;" horiz-adv-x="600" d="M531 160Q526 147 520 125T508 80T497 36T490 5Q486 -1 482 -2Q475 0 438 0T338 0H105Q89 0 71 0T33 -1T-6 -2T-41 -3Q-42 2 -42 11Q-42 19 -40 22T-30 28L5 34Q14 35 21 39T34 54T46 82T59 131L155 547Q162 578 165 596T166 625T158 638T142 644L111 649Q101 651 101 662Q101 674 105 681Q138 681 175 680T244 678H417Q478 678 510 678T552 680Q558 676 559 672Q557 663 555 645T550 604T546 561T543 525Q539 524 534 524T526 524Q512 524 510 538L506 575Q504 588 499 598T482 616T449 626T395 630H318Q313 621 307 601T290 538L254 382Q254 378 258 374H333Q361 374 378 376T405 382T420 393T429 409L438 434Q442 443 453 443Q458 443 463 443T471 440Q468 430 465 417T458 391T453 365T448 345Q444 329 439 302T429 249Q426 247 421 247T410 248Q399 248 399 259L402 287Q403 294 402 301T392 314T368 322T322 326H246Q244 325 243 323T239 319L205 168Q197 132 194 109T193 73T206 55T234 50H326Q361 50 385 53T426 63T454 84T476 118L496 158Q502 169 513 166Q518 164 522 163T531 160ZM339 800Q339 774 322 754T276 733Q251 733 237 749T222 791Q222 817 239 837T284 858Q310 858 324 842T339 800ZM514 800Q514 774 497 754T451 733Q426 733 412 749T397 791Q397 817 414 837T459 858Q485 858 499 842T514 800Z"  />
<glyph unicode="&#xCC;" horiz-adv-x="351" d="M246 -3Q213 -3 175 -2T105 0Q89 0 71 0T33 -1T-6 -2T-41 -3Q-42 2 -42 11Q-42 19 -40 22T-30 28L5 34Q14 35 21 39T34 54T46 82T59 131L155 547Q162 578 165 596T166 625T158 638T142 644L111 649Q101 651 101 662Q101 674 105 681Q138 681 176 680T246 678Q278 678 319 679T393 681Q393 677 393 674T394 667Q394 659 392 656T382 650L347 644Q338 642 331 639T318 625T306 597T293 547L197 131Q189 101 187 83T186 54T194 39T210 34L241 29Q251 26 251 16Q251 5 246 -3ZM292 723Q293 716 289 711T279 705Q261 714 242 724T204 745T168 766T137 784Q123 792 112 801T98 825Q95 842 106 859T134 880Q150 884 161 874T185 850Q195 839 208 824T236 792T264 757T292 723Z"  />
<glyph unicode="&#xCD;" horiz-adv-x="351" d="M246 -3Q213 -3 175 -2T105 0Q89 0 71 0T33 -1T-6 -2T-41 -3Q-42 2 -42 11Q-42 19 -40 22T-30 28L5 34Q14 35 21 39T34 54T46 82T59 131L155 547Q162 578 165 596T166 625T158 638T142 644L111 649Q101 651 101 662Q101 674 105 681Q138 681 176 680T246 678Q278 678 319 679T393 681Q393 677 393 674T394 667Q394 659 392 656T382 650L347 644Q338 642 331 639T318 625T306 597T293 547L197 131Q189 101 187 83T186 54T194 39T210 34L241 29Q251 26 251 16Q251 5 246 -3ZM467 834Q465 819 454 811T432 796Q409 782 388 770T345 748T302 727T256 705Q241 706 243 724Q261 742 276 757T306 786T336 815T371 847Q381 857 396 869T427 880Q443 879 455 864T467 834Z"  />
<glyph unicode="&#xCE;" horiz-adv-x="351" d="M246 -3Q213 -3 175 -2T105 0Q89 0 71 0T33 -1T-6 -2T-41 -3Q-42 2 -42 11Q-42 19 -40 22T-30 28L5 34Q14 35 21 39T34 54T46 82T59 131L155 547Q162 578 165 596T166 625T158 638T142 644L111 649Q101 651 101 662Q101 674 105 681Q138 681 176 680T246 678Q278 678 319 679T393 681Q393 677 393 674T394 667Q394 659 392 656T382 650L347 644Q338 642 331 639T318 625T306 597T293 547L197 131Q189 101 187 83T186 54T194 39T210 34L241 29Q251 26 251 16Q251 5 246 -3ZM425 723Q426 716 422 711T412 705Q395 714 377 725T340 748T305 771T276 790Q271 794 265 790Q230 767 193 746T116 705Q101 706 103 724Q121 741 136 756T165 785T195 813T229 845Q244 859 255 869T279 880Q290 880 298 872T318 849Q339 826 369 790T425 723Z"  />
<glyph unicode="&#xCF;" horiz-adv-x="351" d="M246 -3Q213 -3 175 -2T105 0Q89 0 71 0T33 -1T-6 -2T-41 -3Q-42 2 -42 11Q-42 19 -40 22T-30 28L5 34Q14 35 21 39T34 54T46 82T59 131L155 547Q162 578 165 596T166 625T158 638T142 644L111 649Q101 651 101 662Q101 674 105 681Q138 681 176 680T246 678Q278 678 319 679T393 681Q393 677 393 674T394 667Q394 659 392 656T382 650L347 644Q338 642 331 639T318 625T306 597T293 547L197 131Q189 101 187 83T186 54T194 39T210 34L241 29Q251 26 251 16Q251 5 246 -3ZM239 800Q239 774 222 754T176 733Q151 733 137 749T122 791Q122 817 139 837T184 858Q210 858 224 842T239 800ZM414 800Q414 774 397 754T351 733Q326 733 312 749T297 791Q297 817 314 837T359 858Q385 858 399 842T414 800Z"  />
<glyph unicode="&#xD0;" horiz-adv-x="754" d="M728 393Q728 360 721 324T699 251T661 178T607 111Q556 59 482 30T314 0H104Q72 0 32 -1T-40 -3Q-41 2 -41 11Q-41 19 -39 22T-29 28L6 34Q15 35 22 39T35 54T47 82T60 131L104 319Q103 324 101 326H31Q33 338 35 352T41 378H111Q117 382 119 384L156 547Q163 577 165 595T167 624T159 638T143 644L112 649Q102 651 102 662Q102 674 106 681Q138 681 169 680T233 678Q251 678 275 679T325 681T377 684T424 685Q488 685 543 666T640 610T704 519T728 393ZM579 398Q579 452 564 496T523 571T461 619T381 636Q363 636 346 634T318 630Q313 617 307 596T294 549L255 384Q258 379 260 378H425Q424 366 422 352T416 326H248Q244 325 241 320L204 158Q196 125 193 104T192 71T204 54T230 49H280Q414 49 495 153Q535 204 557 268T579 398Z"  />
<glyph unicode="&#xD1;" horiz-adv-x="754" d="M648 -3Q633 -2 617 -1T585 0Q562 0 534 0T489 -3Q484 -2 480 2Q472 23 457 51T422 115L212 503H210L148 225Q135 167 131 131T130 73T141 44T164 34L204 29Q215 28 215 16Q215 5 210 -3Q178 -2 145 -1T81 0Q50 0 25 -1T-32 -3Q-32 1 -32 4T-33 11Q-33 19 -31 23T-21 28L14 34Q23 35 30 41T45 66T62 118T83 205L163 564Q164 571 161 578Q141 612 125 625T84 645L63 650Q58 652 56 653T54 662Q54 673 59 681Q66 681 79 681T105 680T131 679T152 678Q158 678 174 678T207 678T241 679T266 681Q271 680 275 676Q283 656 298 627T331 563L543 173H545L607 453Q620 511 624 548T626 605T614 634T592 644L551 649Q542 650 542 662Q542 674 546 681Q578 680 609 679T672 678Q703 678 729 679T787 681Q788 676 788 667Q788 659 786 655T776 650L742 644Q733 642 726 636T711 612T694 561T673 473L589 97Q587 91 590 86Q606 56 616 46T637 30L643 28Q649 26 651 25T653 16Q653 5 648 -3ZM615 828Q615 808 606 790T582 757T548 733T509 724Q483 724 460 734T417 758T381 781T352 792Q329 792 329 770Q329 761 333 754T338 739Q338 728 328 723T307 717Q295 717 291 726T286 747Q286 767 295 785T319 818T353 840T392 849Q418 849 441 839T484 816T520 794T549 783Q572 783 572 805Q572 814 568 820T563 834Q563 845 574 851T594 857Q607 857 611 848T615 828Z"  />
<glyph unicode="&#xD2;" horiz-adv-x="750" d="M724 400Q724 313 694 237T611 104T483 15T322 -18Q258 -18 204 4T110 65T48 159T25 279Q25 366 55 442T138 575T266 663T428 696Q491 696 545 674T639 613T701 519T724 400ZM578 425Q578 464 571 504T544 576T494 630T417 651Q374 651 339 632T277 580T230 506T197 420T178 332T172 254Q172 215 179 175T205 102T254 48T332 27Q375 27 410 46T472 98T520 173T553 259T572 346T578 425ZM458 723Q459 716 455 711T445 705Q427 714 408 724T370 745T334 766T303 784Q289 792 278 801T264 825Q261 842 272 859T300 880Q316 884 327 874T351 850Q361 839 374 824T402 792T430 757T458 723Z"  />
<glyph unicode="&#xD3;" horiz-adv-x="750" d="M724 400Q724 313 694 237T611 104T483 15T322 -18Q258 -18 204 4T110 65T48 159T25 279Q25 366 55 442T138 575T266 663T428 696Q491 696 545 674T639 613T701 519T724 400ZM578 425Q578 464 571 504T544 576T494 630T417 651Q374 651 339 632T277 580T230 506T197 420T178 332T172 254Q172 215 179 175T205 102T254 48T332 27Q375 27 410 46T472 98T520 173T553 259T572 346T578 425ZM616 834Q614 819 603 811T581 796Q558 782 537 770T494 748T451 727T405 705Q390 706 392 724Q410 742 425 757T455 786T485 815T520 847Q530 857 545 869T576 880Q592 879 604 864T616 834Z"  />
<glyph unicode="&#xD4;" horiz-adv-x="750" d="M724 400Q724 313 694 237T611 104T483 15T322 -18Q258 -18 204 4T110 65T48 159T25 279Q25 366 55 442T138 575T266 663T428 696Q491 696 545 674T639 613T701 519T724 400ZM578 425Q578 464 571 504T544 576T494 630T417 651Q374 651 339 632T277 580T230 506T197 420T178 332T172 254Q172 215 179 175T205 102T254 48T332 27Q375 27 410 46T472 98T520 173T553 259T572 346T578 425ZM608 723Q609 716 605 711T595 705Q578 714 560 725T523 748T488 771T459 790Q454 794 448 790Q413 767 376 746T299 705Q284 706 286 724Q304 741 319 756T348 785T378 813T412 845Q427 859 438 869T462 880Q473 880 481 872T501 849Q522 826 552 790T608 723Z"  />
<glyph unicode="&#xD5;" horiz-adv-x="750" d="M724 400Q724 313 694 237T611 104T483 15T322 -18Q258 -18 204 4T110 65T48 159T25 279Q25 366 55 442T138 575T266 663T428 696Q491 696 545 674T639 613T701 519T724 400ZM578 425Q578 464 571 504T544 576T494 630T417 651Q374 651 339 632T277 580T230 506T197 420T178 332T172 254Q172 215 179 175T205 102T254 48T332 27Q375 27 410 46T472 98T520 173T553 259T572 346T578 425ZM614 828Q614 808 605 790T581 757T547 733T508 724Q482 724 459 734T416 758T380 781T351 792Q328 792 328 770Q328 761 332 754T337 739Q337 728 327 723T306 717Q294 717 290 726T285 747Q285 767 294 785T318 818T352 840T391 849Q417 849 440 839T483 816T519 794T548 783Q571 783 571 805Q571 814 567 820T562 834Q562 845 573 851T593 857Q606 857 610 848T614 828Z"  />
<glyph unicode="&#xD6;" horiz-adv-x="750" d="M724 400Q724 313 694 237T611 104T483 15T322 -18Q258 -18 204 4T110 65T48 159T25 279Q25 366 55 442T138 575T266 663T428 696Q491 696 545 674T639 613T701 519T724 400ZM578 425Q578 464 571 504T544 576T494 630T417 651Q374 651 339 632T277 580T230 506T197 420T178 332T172 254Q172 215 179 175T205 102T254 48T332 27Q375 27 410 46T472 98T520 173T553 259T572 346T578 425ZM418 800Q418 774 401 754T355 733Q330 733 316 749T301 791Q301 817 318 837T363 858Q389 858 403 842T418 800ZM593 800Q593 774 576 754T530 733Q505 733 491 749T476 791Q476 817 493 837T538 858Q564 858 578 842T593 800Z"  />
<glyph unicode="&#xD7;" horiz-adv-x="500" d="M407 12L230 189L53 12L11 56L188 232L11 408L54 453L230 277L408 453L450 410L273 233L450 56L407 12Z"  />
<glyph unicode="&#xD8;" horiz-adv-x="750" d="M724 400Q724 313 694 237T611 104T483 15T322 -18Q265 -18 216 -1T128 48Q126 50 121 51L43 -28Q40 -28 35 -24T25 -13T17 -1T12 9L87 85Q87 92 87 92Q58 130 42 176T25 279Q25 366 55 442T138 575T266 663T428 696Q485 696 534 678T623 628Q625 628 626 627T630 627L706 704Q710 704 715 700T724 690T733 678T738 668L664 593Q663 590 663 587Q692 549 708 503T724 400ZM577 419Q577 439 575 457T567 492Q565 496 561 492L199 129Q197 124 198 122Q215 81 246 54T332 27Q374 27 409 46T471 97T518 170T551 254T570 341T577 419ZM172 261Q172 218 182 184Q184 184 184 184T187 183L551 548Q553 553 552 554Q537 594 504 622T417 651Q374 651 340 632T278 581T230 508T198 424T179 338T172 261Z"  />
<glyph unicode="&#xD9;" horiz-adv-x="686" d="M289 -18Q238 -18 196 -5T122 32T74 89T56 161Q56 186 60 212T70 264L136 547Q143 577 146 595T147 624T139 638T123 644L92 649Q82 651 82 662Q82 673 87 681Q119 681 157 680T226 678Q258 678 299 679T374 681Q374 677 374 674T375 667Q375 659 373 656T363 650L328 644Q319 642 312 639T299 625T287 597T274 547L200 230Q192 195 192 164Q192 110 226 77T321 44Q362 44 392 58T443 97T477 154T500 223L550 441Q564 502 570 540T575 601T565 633T542 644L505 649Q495 650 495 662Q495 674 499 681Q515 681 529 681T558 680T588 679T624 678Q655 678 680 679T739 681Q739 677 739 674T740 667Q740 653 727 650L694 644Q684 642 677 636T663 611T647 559T625 470L564 207Q539 100 473 41T289 -18ZM461 723Q462 716 458 711T448 705Q430 714 411 724T373 745T337 766T306 784Q292 792 281 801T267 825Q264 842 275 859T303 880Q319 884 330 874T354 850Q364 839 377 824T405 792T433 757T461 723Z"  />
<glyph unicode="&#xDA;" horiz-adv-x="686" d="M289 -18Q238 -18 196 -5T122 32T74 89T56 161Q56 186 60 212T70 264L136 547Q143 577 146 595T147 624T139 638T123 644L92 649Q82 651 82 662Q82 673 87 681Q119 681 157 680T226 678Q258 678 299 679T374 681Q374 677 374 674T375 667Q375 659 373 656T363 650L328 644Q319 642 312 639T299 625T287 597T274 547L200 230Q192 195 192 164Q192 110 226 77T321 44Q362 44 392 58T443 97T477 154T500 223L550 441Q564 502 570 540T575 601T565 633T542 644L505 649Q495 650 495 662Q495 674 499 681Q515 681 529 681T558 680T588 679T624 678Q655 678 680 679T739 681Q739 677 739 674T740 667Q740 653 727 650L694 644Q684 642 677 636T663 611T647 559T625 470L564 207Q539 100 473 41T289 -18ZM646 834Q644 819 633 811T611 796Q588 782 567 770T524 748T481 727T435 705Q420 706 422 724Q440 742 455 757T485 786T515 815T550 847Q560 857 575 869T606 880Q622 879 634 864T646 834Z"  />
<glyph unicode="&#xDB;" horiz-adv-x="686" d="M289 -18Q238 -18 196 -5T122 32T74 89T56 161Q56 186 60 212T70 264L136 547Q143 577 146 595T147 624T139 638T123 644L92 649Q82 651 82 662Q82 673 87 681Q119 681 157 680T226 678Q258 678 299 679T374 681Q374 677 374 674T375 667Q375 659 373 656T363 650L328 644Q319 642 312 639T299 625T287 597T274 547L200 230Q192 195 192 164Q192 110 226 77T321 44Q362 44 392 58T443 97T477 154T500 223L550 441Q564 502 570 540T575 601T565 633T542 644L505 649Q495 650 495 662Q495 674 499 681Q515 681 529 681T558 680T588 679T624 678Q655 678 680 679T739 681Q739 677 739 674T740 667Q740 653 727 650L694 644Q684 642 677 636T663 611T647 559T625 470L564 207Q539 100 473 41T289 -18ZM612 723Q613 716 609 711T599 705Q582 714 564 725T527 748T492 771T463 790Q458 794 452 790Q417 767 380 746T303 705Q288 706 290 724Q308 741 323 756T352 785T382 813T416 845Q431 859 442 869T466 880Q477 880 485 872T505 849Q526 826 556 790T612 723Z"  />
<glyph unicode="&#xDC;" horiz-adv-x="686" d="M289 -18Q238 -18 196 -5T122 32T74 89T56 161Q56 186 60 212T70 264L136 547Q143 577 146 595T147 624T139 638T123 644L92 649Q82 651 82 662Q82 673 87 681Q119 681 157 680T226 678Q258 678 299 679T374 681Q374 677 374 674T375 667Q375 659 373 656T363 650L328 644Q319 642 312 639T299 625T287 597T274 547L200 230Q192 195 192 164Q192 110 226 77T321 44Q362 44 392 58T443 97T477 154T500 223L550 441Q564 502 570 540T575 601T565 633T542 644L505 649Q495 650 495 662Q495 674 499 681Q515 681 529 681T558 680T588 679T624 678Q655 678 680 679T739 681Q739 677 739 674T740 667Q740 653 727 650L694 644Q684 642 677 636T663 611T647 559T625 470L564 207Q539 100 473 41T289 -18ZM422 800Q422 774 405 754T359 733Q334 733 320 749T305 791Q305 817 322 837T367 858Q393 858 407 842T422 800ZM597 800Q597 774 580 754T534 733Q509 733 495 749T480 791Q480 817 497 837T542 858Q568 858 582 842T597 800Z"  />
<glyph unicode="&#xDD;" horiz-adv-x="614" d="M387 -3Q354 -3 317 -2T247 0Q215 0 174 -1T100 -3Q100 1 100 4T99 11Q99 25 111 28L146 34Q155 35 162 39T175 53T187 82T200 131L236 282Q240 299 238 312T231 338L154 538Q142 571 132 590T114 621T98 637T82 645L64 649Q58 651 56 653T54 662Q54 674 58 681Q90 681 125 680T192 678Q224 678 261 679T330 681Q331 676 331 666Q331 658 329 655T319 649L294 644Q285 642 280 638T275 622T280 591T298 538L356 377H358L469 539Q505 592 508 615T485 644L463 649Q453 652 453 662Q453 673 458 681Q490 680 516 679T573 678Q604 678 626 679T681 681Q681 677 681 674T682 667Q682 653 670 650L649 645Q639 642 630 637T608 620T580 588T539 536L396 342Q386 328 382 315T373 286L337 131Q330 101 328 83T326 54T334 40T350 34L381 29Q391 26 391 16Q391 4 387 -3ZM598 834Q596 819 585 811T563 796Q540 782 519 770T476 748T433 727T387 705Q372 706 374 724Q392 742 407 757T437 786T467 815T502 847Q512 857 527 869T558 880Q574 879 586 864T598 834Z"  />
<glyph unicode="&#xDE;" horiz-adv-x="587" d="M266 -3Q249 -3 228 -3T186 -2T144 -1T107 0Q75 0 33 -1T-41 -3Q-42 2 -42 11Q-42 19 -40 22T-30 28L5 34Q14 35 21 39T34 54T46 82T59 131L155 547Q162 578 165 596T166 625T158 638T142 644L111 649Q101 651 101 662Q101 674 105 681Q138 681 174 680T242 678Q274 678 315 679T389 681Q390 676 390 667Q390 659 388 656T378 650L345 645Q324 642 317 633T305 604Q305 602 310 597Q325 599 343 599T378 600Q417 600 451 590T512 560T553 509T569 435Q569 379 547 336T488 264T400 219T295 204Q273 204 262 207T252 224Q253 231 255 238T261 250Q267 249 273 249T285 248Q322 248 348 266T392 313T418 374T426 438Q426 496 401 525T335 554Q312 554 299 551Q295 548 292 544L197 131Q189 101 188 83T188 54T197 39T214 34L261 29Q271 28 271 16Q271 5 266 -3Z"  />
<glyph unicode="&#xDF;" horiz-adv-x="560" d="M499 149Q499 115 484 85T441 32T376 -4T295 -18Q277 -18 259 -15T227 -4T203 15T193 42Q193 49 195 59T201 78T212 94T227 101Q237 101 248 92T272 71T303 50T342 40Q365 40 380 53T396 86Q396 111 376 138T332 196T288 260T268 331Q268 372 283 399T322 447T373 484T423 518T462 559T478 617Q478 651 456 675T394 700Q368 700 348 691T314 665T289 629T271 586Q230 460 200 327T132 65Q112 -1 86 -63T24 -173T-59 -249T-167 -278Q-182 -278 -198 -276T-227 -267T-249 -252T-258 -230Q-258 -221 -254 -210T-243 -189T-227 -171T-208 -164Q-196 -164 -186 -172T-165 -189T-140 -206T-110 -214Q-87 -214 -70 -196T-38 -146T-13 -73T9 15Q35 130 60 240T114 465Q130 532 160 589T254 696Q288 722 331 740T425 759Q452 759 481 752T533 729T572 689T588 631Q588 594 573 569T533 526T482 493T431 464T392 432T376 390Q376 362 395 335T437 279T480 218T499 149Z"  />
<glyph unicode="&#xE0;" horiz-adv-x="531" d="M463 134Q469 132 474 128T481 119Q485 111 470 94Q454 77 435 57T393 21T347 -7T297 -18Q264 -18 253 -2T241 38Q241 63 253 98T278 165H277Q259 140 234 109T178 49T116 2T54 -18Q13 -18 -5 7T-23 68Q-23 108 -9 153T31 242T90 327T163 398T243 447T326 466Q347 466 364 460T392 438H393L399 449Q409 467 416 473T442 479Q457 479 472 479T502 477Q497 465 487 441T469 392L380 144Q375 129 371 113T366 85Q366 77 369 72T380 66Q395 66 418 87T463 134ZM325 333Q327 341 329 349T331 366Q331 404 293 404Q269 404 246 389T203 349T165 294T136 233T117 176T110 131Q110 115 116 102T140 88Q157 88 181 108T231 159T277 225T309 288L325 333ZM347 513Q342 499 326 503Q301 537 275 579T227 654Q222 665 216 677T209 701Q209 718 226 730T260 743Q280 743 287 728T302 691Q307 673 313 651T325 605T336 558T347 513Z"  />
<glyph unicode="&#xE1;" horiz-adv-x="531" d="M463 134Q469 132 474 128T481 119Q485 111 470 94Q454 77 435 57T393 21T347 -7T297 -18Q264 -18 253 -2T241 38Q241 63 253 98T278 165H277Q259 140 234 109T178 49T116 2T54 -18Q13 -18 -5 7T-23 68Q-23 108 -9 153T31 242T90 327T163 398T243 447T326 466Q347 466 364 460T392 438H393L399 449Q409 467 416 473T442 479Q457 479 472 479T502 477Q497 465 487 441T469 392L380 144Q375 129 371 113T366 85Q366 77 369 72T380 66Q395 66 418 87T463 134ZM325 333Q327 341 329 349T331 366Q331 404 293 404Q269 404 246 389T203 349T165 294T136 233T117 176T110 131Q110 115 116 102T140 88Q157 88 181 108T231 159T277 225T309 288L325 333ZM534 705Q534 692 526 682T509 663Q466 620 422 581T332 503Q325 502 320 505T314 517Q356 577 384 623T433 695Q444 712 455 727T487 743Q493 743 501 740T517 731T529 719T534 705Z"  />
<glyph unicode="&#xE2;" horiz-adv-x="531" d="M463 134Q469 132 474 128T481 119Q485 111 470 94Q454 77 435 57T393 21T347 -7T297 -18Q264 -18 253 -2T241 38Q241 63 253 98T278 165H277Q259 140 234 109T178 49T116 2T54 -18Q13 -18 -5 7T-23 68Q-23 108 -9 153T31 242T90 327T163 398T243 447T326 466Q347 466 364 460T392 438H393L399 449Q409 467 416 473T442 479Q457 479 472 479T502 477Q497 465 487 441T469 392L380 144Q375 129 371 113T366 85Q366 77 369 72T380 66Q395 66 418 87T463 134ZM325 333Q327 341 329 349T331 366Q331 404 293 404Q269 404 246 389T203 349T165 294T136 233T117 176T110 131Q110 115 116 102T140 88Q157 88 181 108T231 159T277 225T309 288L325 333ZM492 513Q487 499 471 503Q462 517 453 534T433 570T413 604T395 635Q392 637 385 635Q352 603 315 568T242 503Q226 501 224 517Q254 563 285 607T348 696Q363 716 374 729T406 742Q423 742 432 728T450 684Q461 644 471 600T492 513Z"  />
<glyph unicode="&#xE3;" horiz-adv-x="531" d="M463 134Q469 132 474 128T481 119Q485 111 470 94Q454 77 435 57T393 21T347 -7T297 -18Q264 -18 253 -2T241 38Q241 63 253 98T278 165H277Q259 140 234 109T178 49T116 2T54 -18Q13 -18 -5 7T-23 68Q-23 108 -9 153T31 242T90 327T163 398T243 447T326 466Q347 466 364 460T392 438H393L399 449Q409 467 416 473T442 479Q457 479 472 479T502 477Q497 465 487 441T469 392L380 144Q375 129 371 113T366 85Q366 77 369 72T380 66Q395 66 418 87T463 134ZM325 333Q327 341 329 349T331 366Q331 404 293 404Q269 404 246 389T203 349T165 294T136 233T117 176T110 131Q110 115 116 102T140 88Q157 88 181 108T231 159T277 225T309 288L325 333ZM540 684Q540 664 531 645T507 612T473 589T434 580Q408 580 385 590T342 613T306 636T277 647Q254 647 254 625Q254 616 258 610T263 595Q263 584 252 578T232 572Q219 572 215 581T211 602Q211 622 220 640T244 673T278 696T317 705Q343 705 366 695T408 672T444 649T473 638Q484 638 490 644T497 661Q497 669 492 675T487 690Q487 701 498 706T519 712Q531 712 535 703T540 684Z"  />
<glyph unicode="&#xE4;" horiz-adv-x="531" d="M463 134Q469 132 474 128T481 119Q485 111 470 94Q454 77 435 57T393 21T347 -7T297 -18Q264 -18 253 -2T241 38Q241 63 253 98T278 165H277Q259 140 234 109T178 49T116 2T54 -18Q13 -18 -5 7T-23 68Q-23 108 -9 153T31 242T90 327T163 398T243 447T326 466Q347 466 364 460T392 438H393L399 449Q409 467 416 473T442 479Q457 479 472 479T502 477Q497 465 487 441T469 392L380 144Q375 129 371 113T366 85Q366 77 369 72T380 66Q395 66 418 87T463 134ZM325 333Q327 341 329 349T331 366Q331 404 293 404Q269 404 246 389T203 349T165 294T136 233T117 176T110 131Q110 115 116 102T140 88Q157 88 181 108T231 159T277 225T309 288L325 333ZM346 652Q346 626 329 606T283 585Q258 585 244 601T229 643Q229 669 246 689T291 710Q317 710 331 694T346 652ZM521 652Q521 626 504 606T458 585Q433 585 419 601T404 643Q404 669 421 689T466 710Q492 710 506 694T521 652Z"  />
<glyph unicode="&#xE5;" horiz-adv-x="531" d="M463 134Q469 132 474 128T481 119Q485 111 470 94Q454 77 435 57T393 21T347 -7T297 -18Q264 -18 253 -2T241 38Q241 63 253 98T278 165H277Q259 140 234 109T178 49T116 2T54 -18Q13 -18 -5 7T-23 68Q-23 108 -9 153T31 242T90 327T163 398T243 447T326 466Q347 466 364 460T392 438H393L399 449Q409 467 416 473T442 479Q457 479 472 479T502 477Q497 465 487 441T469 392L380 144Q375 129 371 113T366 85Q366 77 369 72T380 66Q395 66 418 87T463 134ZM325 333Q327 341 329 349T331 366Q331 404 293 404Q269 404 246 389T203 349T165 294T136 233T117 176T110 131Q110 115 116 102T140 88Q157 88 181 108T231 159T277 225T309 288L325 333ZM484 649Q484 623 475 600T450 560T410 534T360 524Q318 524 292 546T266 609Q266 635 275 658T300 698T340 725T390 735Q432 735 458 712T484 649ZM420 657Q420 674 414 691T387 708Q371 708 360 696T343 667T333 632T330 601Q330 584 337 568T364 551Q380 551 390 563T407 591T417 626T420 657Z"  />
<glyph unicode="&#xE6;" horiz-adv-x="690" d="M669 380Q669 338 644 306T580 251T494 215T401 199L394 192Q389 175 385 153T380 114Q380 60 439 60Q488 60 528 87T600 148Q605 146 609 144T616 139Q623 132 623 125T608 104Q584 79 557 57T501 18T441 -8T377 -18Q320 -18 290 12T267 102Q267 115 270 129T276 153Q273 154 269 153Q250 127 225 97T172 42T113 -1T55 -18Q14 -18 -4 7T-22 68Q-22 108 -8 153T32 242T91 327T164 398T244 447T327 466Q347 466 364 460T390 438H391L397 449Q407 467 413 473T440 479Q447 479 453 479T465 477Q461 468 457 456T446 424Q449 421 452 423Q469 441 497 453T561 466Q583 466 602 461T637 446T660 419T669 380ZM562 386Q562 403 556 415T532 428Q511 428 492 409T456 362T427 302T407 242Q409 236 411 235Q438 237 465 248T513 280T548 327T562 386ZM332 366Q332 404 294 404Q270 404 247 389T204 349T166 294T137 233T118 176T111 131Q111 115 117 102T141 88Q158 88 182 108T232 159T278 225T310 288L326 333Q328 341 330 349T332 366Z"  />
<glyph unicode="&#xE7;" horiz-adv-x="386" d="M312 149Q317 147 321 145T328 139Q335 133 334 126T320 105Q297 78 273 56T219 12Q201 -1 186 -11T156 -35Q143 -48 141 -58T145 -88Q152 -105 159 -122T167 -160Q167 -182 155 -201T125 -233T84 -255T42 -263Q22 -263 12 -258T1 -238Q1 -228 6 -217T22 -206Q33 -206 44 -214T68 -223Q81 -223 87 -215T94 -196Q94 -180 86 -163T70 -128Q64 -114 64 -101T74 -73Q85 -57 100 -43T133 -17V-16Q128 -17 124 -17T114 -18Q53 -18 23 19T-8 116Q-8 147 1 185T29 261T74 337T135 402T212 448T302 466Q315 466 329 464T357 456T378 443T387 421Q387 412 384 402T374 384T360 369T343 363Q332 363 324 370T305 385T283 401T253 408Q232 408 214 392T180 352T153 296T133 235T121 179T117 137Q117 99 133 80T178 61Q197 61 215 69T251 89T283 118T312 149Z"  />
<glyph unicode="&#xE8;" horiz-adv-x="418" d="M328 148Q338 144 343 139Q350 132 350 125T336 104Q290 53 234 18T114 -18Q54 -18 23 18T-8 116Q-8 149 1 188T29 266T73 341T132 405T204 449T288 466Q310 466 329 461T364 446T387 419T396 380Q396 338 371 306T308 251T222 215T129 199Q128 198 127 196T123 192Q119 176 118 162T116 137Q116 105 131 83T183 61Q223 61 259 87T328 148ZM290 386Q290 403 283 415T259 428Q238 428 219 411T185 366T156 306T134 242Q136 236 138 235Q165 237 192 248T241 280T276 327T290 386ZM299 513Q294 499 278 503Q253 537 227 579T179 654Q174 665 168 677T161 701Q161 718 178 730T212 743Q232 743 239 728T254 691Q259 673 265 651T277 605T288 558T299 513Z"  />
<glyph unicode="&#xE9;" horiz-adv-x="418" d="M328 148Q338 144 343 139Q350 132 350 125T336 104Q290 53 234 18T114 -18Q54 -18 23 18T-8 116Q-8 149 1 188T29 266T73 341T132 405T204 449T288 466Q310 466 329 461T364 446T387 419T396 380Q396 338 371 306T308 251T222 215T129 199Q128 198 127 196T123 192Q119 176 118 162T116 137Q116 105 131 83T183 61Q223 61 259 87T328 148ZM290 386Q290 403 283 415T259 428Q238 428 219 411T185 366T156 306T134 242Q136 236 138 235Q165 237 192 248T241 280T276 327T290 386ZM479 705Q479 692 471 682T454 663Q411 620 367 581T277 503Q270 502 265 505T259 517Q301 577 329 623T378 695Q389 712 400 727T432 743Q438 743 446 740T462 731T474 719T479 705Z"  />
<glyph unicode="&#xEA;" horiz-adv-x="418" d="M328 148Q338 144 343 139Q350 132 350 125T336 104Q290 53 234 18T114 -18Q54 -18 23 18T-8 116Q-8 149 1 188T29 266T73 341T132 405T204 449T288 466Q310 466 329 461T364 446T387 419T396 380Q396 338 371 306T308 251T222 215T129 199Q128 198 127 196T123 192Q119 176 118 162T116 137Q116 105 131 83T183 61Q223 61 259 87T328 148ZM290 386Q290 403 283 415T259 428Q238 428 219 411T185 366T156 306T134 242Q136 236 138 235Q165 237 192 248T241 280T276 327T290 386ZM430 513Q425 499 409 503Q400 517 391 534T371 570T351 604T333 635Q330 637 323 635Q290 603 253 568T180 503Q164 501 162 517Q192 563 223 607T286 696Q301 716 312 729T344 742Q361 742 370 728T388 684Q399 644 409 600T430 513Z"  />
<glyph unicode="&#xEB;" horiz-adv-x="418" d="M328 148Q338 144 343 139Q350 132 350 125T336 104Q290 53 234 18T114 -18Q54 -18 23 18T-8 116Q-8 149 1 188T29 266T73 341T132 405T204 449T288 466Q310 466 329 461T364 446T387 419T396 380Q396 338 371 306T308 251T222 215T129 199Q128 198 127 196T123 192Q119 176 118 162T116 137Q116 105 131 83T183 61Q223 61 259 87T328 148ZM290 386Q290 403 283 415T259 428Q238 428 219 411T185 366T156 306T134 242Q136 236 138 235Q165 237 192 248T241 280T276 327T290 386ZM277 652Q277 626 260 606T214 585Q189 585 175 601T160 643Q160 669 177 689T222 710Q248 710 262 694T277 652ZM452 652Q452 626 435 606T389 585Q364 585 350 601T335 643Q335 669 352 689T397 710Q423 710 437 694T452 652Z"  />
<glyph unicode="&#xEC;" horiz-adv-x="313" d="M223 513Q218 499 202 503Q177 537 151 579T103 654Q98 665 92 677T85 701Q85 718 102 730T136 743Q156 743 163 728T178 691Q183 673 189 651T201 605T212 558T223 513ZM245 134Q251 132 256 128T262 119Q266 111 251 94Q235 77 216 57T174 21T127 -7T77 -18Q50 -18 33 -3T15 40Q15 69 27 102T50 163L101 289Q108 306 115 327T122 360Q122 376 108 376Q100 376 91 370T73 355T54 334T38 312Q33 314 27 318T20 327Q18 332 20 337T30 352Q45 372 65 392T107 429T153 456T201 466Q227 466 244 453T262 411Q262 388 253 362T234 311L169 155Q162 136 155 116T148 83Q148 66 163 66Q179 66 201 87T245 134Z"  />
<glyph unicode="&#xED;" horiz-adv-x="313" d="M413 705Q413 692 405 682T388 663Q345 620 301 581T211 503Q204 502 199 505T193 517Q235 577 263 623T312 695Q323 712 334 727T366 743Q372 743 380 740T396 731T408 719T413 705ZM245 134Q251 132 256 128T262 119Q266 111 251 94Q235 77 216 57T174 21T127 -7T77 -18Q50 -18 33 -3T15 40Q15 69 27 102T50 163L101 289Q108 306 115 327T122 360Q122 376 108 376Q100 376 91 370T73 355T54 334T38 312Q33 314 27 318T20 327Q18 332 20 337T30 352Q45 372 65 392T107 429T153 456T201 466Q227 466 244 453T262 411Q262 388 253 362T234 311L169 155Q162 136 155 116T148 83Q148 66 163 66Q179 66 201 87T245 134Z"  />
<glyph unicode="&#xEE;" horiz-adv-x="313" d="M245 134Q251 132 256 128T262 119Q266 111 251 94Q235 77 216 57T174 21T127 -7T77 -18Q50 -18 33 -3T15 40Q15 69 27 102T50 163L101 289Q108 306 115 327T122 360Q122 376 108 376Q100 376 91 370T73 355T54 334T38 312Q33 314 27 318T20 327Q18 332 20 337T30 352Q45 372 65 392T107 429T153 456T201 466Q227 466 244 453T262 411Q262 388 253 362T234 311L169 155Q162 136 155 116T148 83Q148 66 163 66Q179 66 201 87T245 134ZM355 513Q350 499 334 503Q325 517 316 534T296 570T276 604T258 635Q255 637 248 635Q215 603 178 568T105 503Q89 501 87 517Q117 563 148 607T211 696Q226 716 237 729T269 742Q286 742 295 728T313 684Q324 644 334 600T355 513Z"  />
<glyph unicode="&#xEF;" horiz-adv-x="313" d="M207 652Q207 626 190 606T144 585Q119 585 105 601T90 643Q90 669 107 689T152 710Q178 710 192 694T207 652ZM382 652Q382 626 365 606T319 585Q294 585 280 601T265 643Q265 669 282 689T327 710Q353 710 367 694T382 652ZM245 134Q251 132 256 128T262 119Q266 111 251 94Q235 77 216 57T174 21T127 -7T77 -18Q50 -18 33 -3T15 40Q15 69 27 102T50 163L101 289Q108 306 115 327T122 360Q122 376 108 376Q100 376 91 370T73 355T54 334T38 312Q33 314 27 318T20 327Q18 332 20 337T30 352Q45 372 65 392T107 429T153 456T201 466Q227 466 244 453T262 411Q262 388 253 362T234 311L169 155Q162 136 155 116T148 83Q148 66 163 66Q179 66 201 87T245 134Z"  />
<glyph unicode="&#xF0;" horiz-adv-x="495" d="M469 395Q469 355 461 309T438 217T399 129T343 54T271 2T182 -18Q142 -18 109 -7T52 25T15 79T1 153Q1 204 20 258T74 356T156 429T259 458Q291 458 312 445T345 413H348Q352 458 345 503T321 585Q320 586 316 586L183 525Q179 531 174 544T166 565L292 624Q294 630 293 633Q274 662 245 688T173 732Q176 742 180 750T196 758Q206 758 217 754Q304 727 368 662Q373 659 375 660L484 708Q489 702 494 689T501 668L408 626Q406 620 406 618Q438 571 453 513T469 395ZM332 344Q332 357 330 370T322 393T306 410T281 417Q258 417 237 398T198 349T166 283T141 211T126 145T120 98Q120 85 122 72T129 48T145 31T171 24Q194 24 215 43T254 92T286 160T311 232T326 298T332 344Z"  />
<glyph unicode="&#xF1;" horiz-adv-x="591" d="M516 134Q521 132 526 128T533 119Q537 111 522 94Q506 77 487 57T445 21T398 -7T348 -18Q320 -18 303 -3T286 40Q286 69 297 102T321 163L366 271Q373 288 380 307T387 340Q387 359 366 359Q347 359 328 343T295 313Q247 265 215 212T161 99L144 46Q138 30 134 21T122 6T102 0T68 -2Q51 -2 36 -2T4 1L105 289Q113 309 119 330T126 365Q126 382 113 382Q104 382 94 375T73 358T54 335T37 312Q32 314 27 318T20 327Q18 332 20 337T30 352Q45 371 64 391T104 428T147 455T192 466Q219 466 234 451T250 408Q250 388 243 363T226 311L208 261H209Q226 287 253 317T313 379Q348 414 388 440T474 466Q497 466 516 454T535 411Q535 388 524 359T500 298L440 155Q433 136 426 116T419 83Q419 66 434 66Q450 66 472 87T516 134ZM553 684Q553 664 544 645T520 612T486 589T447 580Q421 580 398 590T355 613T319 636T290 647Q267 647 267 625Q267 616 271 610T276 595Q276 584 265 578T245 572Q232 572 228 581T224 602Q224 622 233 640T257 673T291 696T330 705Q356 705 379 695T421 672T457 649T486 638Q497 638 503 644T510 661Q510 669 505 675T500 690Q500 701 511 706T532 712Q544 712 548 703T553 684Z"  />
<glyph unicode="&#xF2;" horiz-adv-x="490" d="M450 296Q450 242 430 186T373 85T288 11T181 -18Q141 -18 108 -7T51 25T14 79T0 153Q0 207 20 262T77 363T163 437T269 466Q309 466 342 455T399 423T436 370T450 296ZM331 351Q331 364 329 377T322 400T306 417T280 424Q257 424 236 405T197 356T165 289T140 216T125 148T119 98Q119 85 121 72T128 48T144 31T170 24Q193 24 214 43T253 92T285 159T310 233T325 300T331 351ZM318 513Q313 499 297 503Q272 537 246 579T198 654Q193 665 187 677T180 701Q180 718 197 730T231 743Q251 743 258 728T273 691Q278 673 284 651T296 605T307 558T318 513Z"  />
<glyph unicode="&#xF3;" horiz-adv-x="490" d="M450 296Q450 242 430 186T373 85T288 11T181 -18Q141 -18 108 -7T51 25T14 79T0 153Q0 207 20 262T77 363T163 437T269 466Q309 466 342 455T399 423T436 370T450 296ZM331 351Q331 364 329 377T322 400T306 417T280 424Q257 424 236 405T197 356T165 289T140 216T125 148T119 98Q119 85 121 72T128 48T144 31T170 24Q193 24 214 43T253 92T285 159T310 233T325 300T331 351ZM490 705Q490 692 482 682T465 663Q422 620 378 581T288 503Q281 502 276 505T270 517Q312 577 340 623T389 695Q400 712 411 727T443 743Q449 743 457 740T473 731T485 719T490 705Z"  />
<glyph unicode="&#xF4;" horiz-adv-x="490" d="M450 296Q450 242 430 186T373 85T288 11T181 -18Q141 -18 108 -7T51 25T14 79T0 153Q0 207 20 262T77 363T163 437T269 466Q309 466 342 455T399 423T436 370T450 296ZM331 351Q331 364 329 377T322 400T306 417T280 424Q257 424 236 405T197 356T165 289T140 216T125 148T119 98Q119 85 121 72T128 48T144 31T170 24Q193 24 214 43T253 92T285 159T310 233T325 300T331 351ZM447 513Q442 499 426 503Q417 517 408 534T388 570T368 604T350 635Q347 637 340 635Q307 603 270 568T197 503Q181 501 179 517Q209 563 240 607T303 696Q318 716 329 729T361 742Q378 742 387 728T405 684Q416 644 426 600T447 513Z"  />
<glyph unicode="&#xF5;" horiz-adv-x="490" d="M450 296Q450 242 430 186T373 85T288 11T181 -18Q141 -18 108 -7T51 25T14 79T0 153Q0 207 20 262T77 363T163 437T269 466Q309 466 342 455T399 423T436 370T450 296ZM331 351Q331 364 329 377T322 400T306 417T280 424Q257 424 236 405T197 356T165 289T140 216T125 148T119 98Q119 85 121 72T128 48T144 31T170 24Q193 24 214 43T253 92T285 159T310 233T325 300T331 351ZM498 684Q498 664 489 645T465 612T431 589T392 580Q366 580 343 590T300 613T264 636T235 647Q212 647 212 625Q212 616 216 610T221 595Q221 584 210 578T190 572Q177 572 173 581T169 602Q169 622 178 640T202 673T236 696T275 705Q301 705 324 695T366 672T402 649T431 638Q442 638 448 644T455 661Q455 669 450 675T445 690Q445 701 456 706T477 712Q489 712 493 703T498 684Z"  />
<glyph unicode="&#xF6;" horiz-adv-x="490" d="M450 296Q450 242 430 186T373 85T288 11T181 -18Q141 -18 108 -7T51 25T14 79T0 153Q0 207 20 262T77 363T163 437T269 466Q309 466 342 455T399 423T436 370T450 296ZM331 351Q331 364 329 377T322 400T306 417T280 424Q257 424 236 405T197 356T165 289T140 216T125 148T119 98Q119 85 121 72T128 48T144 31T170 24Q193 24 214 43T253 92T285 159T310 233T325 300T331 351ZM304 652Q304 626 287 606T241 585Q216 585 202 601T187 643Q187 669 204 689T249 710Q275 710 289 694T304 652ZM479 652Q479 626 462 606T416 585Q391 585 377 601T362 643Q362 669 379 689T424 710Q450 710 464 694T479 652Z"  />
<glyph unicode="&#xF7;" horiz-adv-x="500" d="M281 51Q281 31 269 18T235 5Q213 5 201 17T188 51Q188 71 200 83T234 95Q256 95 268 83T281 51ZM5 202V265H465V202H5ZM281 417Q281 371 235 371Q214 371 202 383T189 417Q189 436 200 448T235 461Q257 461 269 449T281 417Z"  />
<glyph unicode="&#xF8;" horiz-adv-x="490" d="M182 -18Q106 -18 57 21Q57 21 51 19L3 -31Q0 -31 -4 -28T-12 -21T-20 -11T-24 -2L25 49Q26 51 27 52T27 55Q15 74 8 98T1 153Q1 207 21 262T78 363T164 437T270 466Q343 466 390 431Q392 431 393 431T397 431L444 481Q450 480 460 470T472 452L425 403Q423 398 424 396Q451 355 451 296Q451 242 431 186T374 85T288 11T182 -18ZM171 24Q191 24 209 38T243 74T272 126T296 186T314 246T324 298Q324 301 320 300L125 92Q123 85 124 84Q123 79 123 76T124 68Q128 52 138 38T171 24ZM282 424Q252 424 227 395T181 325T148 238T130 157Q131 155 132 156L204 221L327 363Q327 363 329 369Q327 379 326 383Q322 397 313 410T282 424Z"  />
<glyph unicode="&#xF9;" horiz-adv-x="576" d="M506 134Q511 132 517 128T523 119Q528 110 513 94Q498 77 479 58T437 21T390 -7T342 -18Q315 -18 300 -3T285 40Q285 60 293 85T310 137L330 193H329Q309 164 281 131T226 69Q184 24 148 3T73 -18Q50 -18 31 -5T12 38Q12 59 23 89T45 151L98 289Q106 309 114 331T122 365Q122 382 109 382Q100 382 90 375T69 358T50 335T34 312Q29 314 24 318T17 327Q14 332 16 337T26 352Q41 372 60 392T102 429T147 456T195 466Q220 466 238 452T256 410Q256 385 245 352T221 285L180 177Q173 160 167 141T160 109Q160 89 174 89Q191 89 212 108T258 160Q298 207 328 256T376 355L394 406Q400 423 405 438T412 464Q429 465 444 464T470 460Q486 457 497 453T514 442T520 422T513 391L430 160Q422 139 416 118T409 83Q409 66 423 66Q438 66 461 87T506 134ZM351 513Q346 499 330 503Q305 537 279 579T231 654Q226 665 220 677T213 701Q213 718 230 730T264 743Q284 743 291 728T306 691Q311 673 317 651T329 605T340 558T351 513Z"  />
<glyph unicode="&#xFA;" horiz-adv-x="576" d="M506 134Q511 132 517 128T523 119Q528 110 513 94Q498 77 479 58T437 21T390 -7T342 -18Q315 -18 300 -3T285 40Q285 60 293 85T310 137L330 193H329Q309 164 281 131T226 69Q184 24 148 3T73 -18Q50 -18 31 -5T12 38Q12 59 23 89T45 151L98 289Q106 309 114 331T122 365Q122 382 109 382Q100 382 90 375T69 358T50 335T34 312Q29 314 24 318T17 327Q14 332 16 337T26 352Q41 372 60 392T102 429T147 456T195 466Q220 466 238 452T256 410Q256 385 245 352T221 285L180 177Q173 160 167 141T160 109Q160 89 174 89Q191 89 212 108T258 160Q298 207 328 256T376 355L394 406Q400 423 405 438T412 464Q429 465 444 464T470 460Q486 457 497 453T514 442T520 422T513 391L430 160Q422 139 416 118T409 83Q409 66 423 66Q438 66 461 87T506 134ZM543 705Q543 692 535 682T518 663Q475 620 431 581T341 503Q334 502 329 505T323 517Q365 577 393 623T442 695Q453 712 464 727T496 743Q502 743 510 740T526 731T538 719T543 705Z"  />
<glyph unicode="&#xFB;" horiz-adv-x="576" d="M506 134Q511 132 517 128T523 119Q528 110 513 94Q498 77 479 58T437 21T390 -7T342 -18Q315 -18 300 -3T285 40Q285 60 293 85T310 137L330 193H329Q309 164 281 131T226 69Q184 24 148 3T73 -18Q50 -18 31 -5T12 38Q12 59 23 89T45 151L98 289Q106 309 114 331T122 365Q122 382 109 382Q100 382 90 375T69 358T50 335T34 312Q29 314 24 318T17 327Q14 332 16 337T26 352Q41 372 60 392T102 429T147 456T195 466Q220 466 238 452T256 410Q256 385 245 352T221 285L180 177Q173 160 167 141T160 109Q160 89 174 89Q191 89 212 108T258 160Q298 207 328 256T376 355L394 406Q400 423 405 438T412 464Q429 465 444 464T470 460Q486 457 497 453T514 442T520 422T513 391L430 160Q422 139 416 118T409 83Q409 66 423 66Q438 66 461 87T506 134ZM492 513Q487 499 471 503Q462 517 453 534T433 570T413 604T395 635Q392 637 385 635Q352 603 315 568T242 503Q226 501 224 517Q254 563 285 607T348 696Q363 716 374 729T406 742Q423 742 432 728T450 684Q461 644 471 600T492 513Z"  />
<glyph unicode="&#xFC;" horiz-adv-x="576" d="M506 134Q511 132 517 128T523 119Q528 110 513 94Q498 77 479 58T437 21T390 -7T342 -18Q315 -18 300 -3T285 40Q285 60 293 85T310 137L330 193H329Q309 164 281 131T226 69Q184 24 148 3T73 -18Q50 -18 31 -5T12 38Q12 59 23 89T45 151L98 289Q106 309 114 331T122 365Q122 382 109 382Q100 382 90 375T69 358T50 335T34 312Q29 314 24 318T17 327Q14 332 16 337T26 352Q41 372 60 392T102 429T147 456T195 466Q220 466 238 452T256 410Q256 385 245 352T221 285L180 177Q173 160 167 141T160 109Q160 89 174 89Q191 89 212 108T258 160Q298 207 328 256T376 355L394 406Q400 423 405 438T412 464Q429 465 444 464T470 460Q486 457 497 453T514 442T520 422T513 391L430 160Q422 139 416 118T409 83Q409 66 423 66Q438 66 461 87T506 134ZM344 652Q344 626 327 606T281 585Q256 585 242 601T227 643Q227 669 244 689T289 710Q315 710 329 694T344 652ZM519 652Q519 626 502 606T456 585Q431 585 417 601T402 643Q402 669 419 689T464 710Q490 710 504 694T519 652Z"  />
<glyph unicode="&#xFD;" horiz-adv-x="476" d="M462 406Q462 361 448 309T409 202T354 92T288 -14Q203 -143 124 -211T-37 -279Q-65 -279 -81 -269T-98 -231Q-98 -211 -90 -193T-60 -175Q-50 -175 -40 -179T-18 -187T5 -195T31 -199Q54 -199 74 -191T117 -157Q150 -124 156 -84T163 3Q163 56 160 119T146 237T119 328T74 365Q59 365 50 354T35 328T26 296T22 269H8Q-1 270 -4 276T-5 300Q-1 331 6 361T28 414T64 451T120 466Q153 466 177 446T219 391T247 313T263 220T270 124T270 33H272Q323 113 351 187T379 327Q379 358 371 379T363 424Q363 441 376 453T415 466Q442 466 452 448T462 406ZM501 705Q501 692 493 682T476 663Q433 620 389 581T299 503Q292 502 287 505T281 517Q323 577 351 623T400 695Q411 712 422 727T454 743Q460 743 468 740T484 731T496 719T501 705Z"  />
<glyph unicode="&#xFE;" horiz-adv-x="537" d="M506 343Q506 307 495 266T465 185T417 108T356 43T286 -1T208 -18Q176 -18 143 -9Q139 -10 137 -15L102 -143Q95 -169 92 -185T89 -211T95 -225T113 -230L165 -236Q174 -238 170 -250Q168 -261 164 -267Q152 -267 134 -267T95 -266T55 -265T23 -264Q11 -264 -8 -264T-47 -265T-85 -266T-115 -267Q-115 -263 -115 -260T-113 -251Q-110 -238 -100 -237L-71 -232Q-62 -231 -55 -228T-43 -215T-32 -190T-18 -145L117 361Q117 363 113 367Q91 360 65 350T21 331Q17 334 14 341T9 354Q8 361 11 365T26 376Q48 386 76 397T127 417Q129 419 131 421T135 427L183 601Q191 630 191 642T177 660L148 670Q142 672 141 676T142 685Q144 690 144 693T146 699Q169 702 195 708T247 722Q268 728 282 733T306 741T325 747T343 749Q345 749 347 748T352 746Q347 735 341 719T329 684T318 647T308 616L265 460Q265 460 269 454Q289 459 316 462T369 466Q397 466 422 459T466 437T495 399T506 343ZM377 324Q377 364 358 386T298 409Q279 409 254 403Q252 401 251 400T247 396L167 99Q165 93 164 86T163 72Q163 52 175 42T206 31Q229 31 250 47T291 88T325 146T352 210T370 273T377 324Z"  />
<glyph unicode="&#xFF;" horiz-adv-x="476" d="M462 406Q462 361 448 309T409 202T354 92T288 -14Q203 -143 124 -211T-37 -279Q-65 -279 -81 -269T-98 -231Q-98 -211 -90 -193T-60 -175Q-50 -175 -40 -179T-18 -187T5 -195T31 -199Q54 -199 74 -191T117 -157Q150 -124 156 -84T163 3Q163 56 160 119T146 237T119 328T74 365Q59 365 50 354T35 328T26 296T22 269H8Q-1 270 -4 276T-5 300Q-1 331 6 361T28 414T64 451T120 466Q153 466 177 446T219 391T247 313T263 220T270 124T270 33H272Q323 113 351 187T379 327Q379 358 371 379T363 424Q363 441 376 453T415 466Q442 466 452 448T462 406ZM278 652Q278 626 261 606T215 585Q190 585 176 601T161 643Q161 669 178 689T223 710Q249 710 263 694T278 652ZM453 652Q453 626 436 606T390 585Q365 585 351 601T336 643Q336 669 353 689T398 710Q424 710 438 694T453 652Z"  />
<glyph unicode="&#x131;" horiz-adv-x="313" d="M244 134Q250 132 255 128T261 119Q265 111 250 94Q234 77 215 57T173 21T126 -7T76 -18Q49 -18 32 -3T14 40Q14 69 26 102T49 163L100 289Q107 306 114 327T121 360Q121 376 107 376Q99 376 90 370T72 355T53 334T37 312Q32 314 26 318T19 327Q17 332 19 337T29 352Q44 372 64 392T106 429T152 456T200 466Q226 466 243 453T261 411Q261 388 252 362T233 311L168 155Q161 136 154 116T147 83Q147 66 162 66Q178 66 200 87T244 134Z"  />
<glyph unicode="&#x152;" horiz-adv-x="992" d="M923 160Q918 147 912 125T900 80T889 36T881 5Q877 -1 873 -2Q866 0 829 0T729 0H504Q486 0 464 -1T418 -3T371 -6T328 -7Q263 -7 208 12T112 69T48 160T25 283Q25 322 32 361T53 437T89 509T139 572Q199 633 271 659T428 685Q455 685 486 684T549 682T608 679T658 678H809Q870 678 902 678T943 680Q949 676 950 672Q948 663 946 645T941 604T937 561T934 525Q930 524 926 524T917 524Q904 524 902 538L898 575Q896 588 891 598T874 616T841 626T787 630H710Q705 621 699 601T682 538L646 382Q646 378 650 374H724Q752 374 769 376T796 382T811 393T820 409L830 434Q833 443 845 443Q850 443 855 443T863 440Q860 430 857 417T850 391T844 365T839 345Q835 329 831 302T821 249Q817 247 812 247T802 248Q790 248 791 259L793 287Q794 294 793 301T783 314T759 322T713 326H638Q636 325 635 323T631 319L596 168Q587 132 584 109T583 73T596 55T625 50H718Q752 50 776 53T817 63T846 84T868 118L887 158Q893 169 905 166Q909 164 914 163T923 160ZM544 535Q549 553 549 570Q549 591 541 603T519 622T489 630T456 632Q387 632 334 600T246 517T192 403T174 276Q174 231 184 189T217 115T274 62T357 42Q381 42 397 49T423 68T440 99T453 140L544 535Z"  />
<glyph unicode="&#x153;" horiz-adv-x="727" d="M706 380Q706 338 681 306T617 251T530 215T437 199Q436 198 435 196T431 192Q428 176 426 162T424 137Q424 105 440 83T491 61Q532 61 568 87T637 148Q641 146 645 144T653 139Q660 132 659 125T644 104Q623 80 598 58T546 19T488 -8T426 -18Q354 -18 324 42Q322 43 321 43T318 43Q287 15 251 -1T173 -17Q95 -17 48 28T0 153Q0 207 20 262T77 363T163 437T269 466Q320 466 359 446T420 387Q425 385 426 386Q461 421 504 443T597 466Q619 466 639 461T674 446T697 419T706 380ZM331 351Q331 364 329 377T322 400T306 417T280 424Q257 424 236 405T197 356T165 289T140 216T125 148T119 98Q119 85 121 72T128 48T144 31T170 24Q193 24 214 43T253 92T285 159T310 233T325 300T331 351ZM598 386Q598 403 592 415T568 428Q547 428 528 411T493 366T465 306T443 242Q443 237 447 235Q474 237 501 248T549 280T584 327T598 386Z"  />
<glyph unicode="&#x160;" horiz-adv-x="511" d="M435 201Q435 152 415 112T361 43T283 -2T191 -18Q136 -18 80 1Q58 9 51 11T36 13Q31 13 27 10T20 4T12 -3T0 -6Q-2 -6 -4 -6T-9 -5Q-1 42 6 99T18 208Q22 209 26 209T34 209Q42 209 45 205T50 195L55 157Q62 97 99 64T194 31Q245 31 276 61T307 139Q307 163 300 183T279 222T248 258T211 293Q190 312 170 333T133 377T106 428T96 489Q96 532 112 569T157 635T227 679T317 696Q345 696 366 692T412 680Q433 673 444 669T463 664Q468 664 471 666T477 672T483 677T493 680Q495 680 497 680T502 679Q495 638 489 588T478 498Q474 497 470 497T462 497Q454 497 451 500T446 510L441 548Q435 596 401 622T321 649Q296 649 278 640T247 617T229 585T223 548Q223 524 230 505T251 468T279 435T312 404Q335 383 357 361T396 315T424 263T435 201ZM502 861Q485 844 470 829T440 800T410 771T377 740Q361 725 350 715T326 705Q315 705 307 713T287 735Q277 746 264 761T236 794T207 828T180 862Q180 877 194 880Q210 870 228 859T265 835T300 812T329 794Q332 792 335 792T341 794Q375 817 413 838T490 880Q503 877 502 861Z"  />
<glyph unicode="&#x161;" horiz-adv-x="332" d="M264 147Q264 115 249 85T206 32T143 -4T64 -18Q45 -18 27 -15T-5 -4T-29 15T-38 42Q-38 49 -36 59T-30 79T-20 96T-5 103Q5 103 16 93T40 72T71 50T110 40Q135 40 148 54T162 86Q162 111 143 134T100 182T57 237T37 304Q37 331 50 359T89 411T151 450T235 466Q250 466 265 464T292 456T311 442T319 421Q319 413 316 403T308 384T295 368T278 361Q268 361 259 368T238 384T215 400T187 407Q162 407 151 393T140 364Q140 338 159 315T202 268T244 214T264 147ZM392 728Q362 683 331 639T268 549Q253 529 242 516T210 503Q193 503 184 517T166 561Q155 602 145 646T124 732Q129 746 145 742Q154 728 163 711T183 675T203 640T221 610Q224 608 231 610Q264 642 301 677T374 742Q390 744 392 728Z"  />
<glyph unicode="&#x178;" horiz-adv-x="614" d="M387 -3Q354 -3 317 -2T247 0Q215 0 174 -1T100 -3Q100 1 100 4T99 11Q99 25 111 28L146 34Q155 35 162 39T175 53T187 82T200 131L236 282Q240 299 238 312T231 338L154 538Q142 571 132 590T114 621T98 637T82 645L64 649Q58 651 56 653T54 662Q54 674 58 681Q90 681 125 680T192 678Q224 678 261 679T330 681Q331 676 331 666Q331 658 329 655T319 649L294 644Q285 642 280 638T275 622T280 591T298 538L356 377H358L469 539Q505 592 508 615T485 644L463 649Q453 652 453 662Q453 673 458 681Q490 680 516 679T573 678Q604 678 626 679T681 681Q681 677 681 674T682 667Q682 653 670 650L649 645Q639 642 630 637T608 620T580 588T539 536L396 342Q386 328 382 315T373 286L337 131Q330 101 328 83T326 54T334 40T350 34L381 29Q391 26 391 16Q391 4 387 -3ZM372 800Q372 774 355 754T309 733Q284 733 270 749T255 791Q255 817 272 837T317 858Q343 858 357 842T372 800ZM547 800Q547 774 530 754T484 733Q459 733 445 749T430 791Q430 817 447 837T492 858Q518 858 532 842T547 800Z"  />
<glyph unicode="&#x17D;" horiz-adv-x="653" d="M596 178Q591 165 584 140T570 89T557 39T548 5Q544 -1 540 -2Q512 -2 474 -2T395 -1T316 0T250 0Q169 0 98 0T-21 -3Q-23 3 -23 10T-21 25Q-7 40 18 72T73 142L446 626V628H284Q249 628 226 625T188 614T164 595T147 567L127 522Q122 510 111 511Q106 512 101 512T92 515Q96 531 102 556T115 607T126 658T133 698Q135 698 137 698T142 699Q149 699 153 697T159 692T165 686T173 682Q183 679 212 679T283 678H425Q477 678 534 678T637 681Q639 674 638 667T635 653Q628 646 618 633T595 604T569 571T542 536L169 51V50H375Q410 50 435 53T480 66T512 90T538 130L560 176Q566 187 578 184Q582 182 587 181T596 178ZM548 861Q531 844 516 829T486 800T456 771T423 740Q407 725 396 715T372 705Q361 705 353 713T333 735Q323 746 310 761T282 794T253 828T226 862Q226 877 240 880Q256 870 274 859T311 835T346 812T375 794Q378 792 381 792T387 794Q421 817 459 838T536 880Q549 877 548 861Z"  />
<glyph unicode="&#x17E;" horiz-adv-x="458" d="M420 82Q420 57 407 31T372 -18T321 -54T259 -68Q225 -68 195 -47T137 -1T84 46T36 67Q6 67 6 44Q6 36 8 30T11 16Q11 5 3 -1T-19 -8Q-43 -8 -43 23Q-43 39 -35 55T-14 85T13 113T40 136L268 329L267 331Q250 335 229 341T186 353T144 362T109 366Q86 366 79 358T71 335Q71 328 75 321T80 304Q80 291 69 284T44 277Q29 277 24 289T18 314Q18 339 33 365T71 414T121 451T174 466Q196 466 221 459T276 440Q305 429 326 422T362 415Q378 415 386 423T395 446Q395 454 399 460T414 466Q425 466 433 459T442 440Q442 423 421 399T361 343L116 137V135Q148 129 170 116T221 79Q234 68 247 57T275 35T302 19T330 13Q349 13 359 23T369 47Q369 61 361 71T352 97Q352 111 362 117T383 124Q401 124 410 112T420 82ZM431 728Q401 683 370 639T307 549Q292 529 281 516T249 503Q232 503 223 517T205 561Q194 602 184 646T163 732Q168 746 184 742Q193 728 202 711T222 675T242 640T260 610Q263 608 270 610Q303 642 340 677T413 742Q429 744 431 728Z"  />
<glyph unicode="&#x192;" horiz-adv-x="500" d="M537 569Q537 559 531 549T516 531T497 517T477 511Q461 511 452 522T433 546T413 570T383 581Q356 581 339 559T310 502T292 423T280 336Q281 332 286 329H419Q421 327 423 325T425 317Q425 308 423 296T413 280H282Q279 279 275 273Q261 151 231 47T143 -127Q109 -165 68 -186T-21 -208Q-54 -208 -76 -198T-99 -162Q-99 -155 -97 -145T-90 -126T-78 -111T-62 -105Q-51 -105 -42 -111T-23 -126T-2 -140T23 -147Q53 -147 72 -114T104 -24T127 109T145 273Q143 278 138 280H44Q39 283 39 292Q39 301 41 314T51 329H144Q149 330 151 337Q160 395 181 449T238 545T320 612T430 637Q447 637 466 633T500 619T526 598T537 569Z"  />
<glyph unicode="&#x2C6;" horiz-adv-x="500" d="M384 513Q379 499 363 503Q354 517 345 534T325 570T305 604T287 635Q284 637 277 635Q244 603 207 568T134 503Q118 501 116 517Q146 563 177 607T240 696Q255 716 266 729T298 742Q315 742 324 728T342 684Q353 644 363 600T384 513Z"  />
<glyph unicode="&#x2C7;" horiz-adv-x="500" d="M384 728Q354 683 323 639T260 549Q245 529 234 516T202 503Q185 503 176 517T158 561Q147 602 137 646T116 732Q121 746 137 742Q146 728 155 711T175 675T195 640T213 610Q216 608 223 610Q256 642 293 677T366 742Q382 744 384 728Z"  />
<glyph unicode="&#x2DA;" horiz-adv-x="500" d="M359 649Q359 623 350 600T325 560T285 534T235 524Q193 524 167 546T141 609Q141 635 150 658T175 698T215 725T265 735Q307 735 333 712T359 649ZM295 657Q295 674 289 691T262 708Q246 708 235 696T218 667T208 632T205 601Q205 584 212 568T239 551Q255 551 265 563T282 591T292 626T295 657Z"  />
<glyph unicode="&#x2DC;" horiz-adv-x="500" d="M415 684Q415 664 406 645T382 612T348 589T309 580Q283 580 260 590T217 613T181 636T152 647Q129 647 129 625Q129 616 133 610T138 595Q138 584 127 578T107 572Q94 572 90 581T86 602Q86 622 95 640T119 673T153 696T192 705Q218 705 241 695T283 672T319 649T348 638Q359 638 365 644T372 661Q372 669 367 675T362 690Q362 701 373 706T394 712Q406 712 410 703T415 684Z"  />
<glyph unicode="&#x2013;" horiz-adv-x="500" d="M470 268Q470 263 469 254T466 236T460 220T452 211H-7Q-13 214 -13 229Q-13 234 -12 242T-8 260T-3 276T6 285H465Q470 282 470 268Z"  />
<glyph unicode="&#x2014;" horiz-adv-x="1000" d="M971 268Q971 263 970 254T967 236T961 220T953 211H-5Q-11 214 -11 229Q-11 234 -10 242T-6 260T-1 276T8 285H966Q971 282 971 268Z"  />
<glyph unicode="&#x2018;" horiz-adv-x="250" d="M236 463Q236 431 214 412T161 393Q119 393 93 422T66 497Q66 533 78 565T112 623T163 668T228 699Q246 705 250 691Q252 687 252 683T251 675Q230 670 209 659T170 631T141 596T130 554Q130 532 140 522T168 512Q173 512 179 512T190 513Q211 513 223 499T236 463Z"  />
<glyph unicode="&#x2019;" horiz-adv-x="250" d="M267 595Q267 559 255 527T221 469T170 424T105 393Q96 390 91 391T84 400Q82 404 82 408T82 417Q103 422 124 433T163 461T192 496T203 539Q203 560 193 570T166 580Q161 580 155 580T143 579Q123 579 110 593T97 629Q97 661 119 680T172 699Q214 699 240 670T267 595Z"  />
<glyph unicode="&#x201A;" horiz-adv-x="250" d="M153 44Q153 8 141 -24T108 -82T57 -127T-8 -158Q-18 -161 -22 -160T-30 -151Q-32 -147 -32 -143T-31 -135Q-10 -129 11 -118T50 -91T78 -55T89 -13Q89 9 79 19T53 29Q48 29 42 29T30 28Q9 28 -3 42T-16 78Q-16 110 6 129T59 148Q101 148 127 119T153 44Z"  />
<glyph unicode="&#x201C;" horiz-adv-x="455" d="M243 463Q243 431 222 412T168 393Q126 393 100 422T74 497Q74 533 86 565T120 623T171 668T235 699Q245 702 249 701T257 691Q259 687 259 683T259 675Q238 670 216 659T177 631T148 596T137 554Q137 532 147 522T174 512Q179 512 185 512T197 513Q218 513 230 499T243 463ZM444 463Q444 431 422 412T369 393Q327 393 301 422T275 497Q275 533 287 565T320 623T371 668T436 699Q446 702 450 701T458 691Q460 687 460 683T460 675Q439 670 417 659T378 631T349 596T338 554Q338 532 348 522T375 512Q380 512 386 512T398 513Q419 513 431 499T444 463Z"  />
<glyph unicode="&#x201D;" horiz-adv-x="455" d="M267 595Q267 559 255 527T221 469T170 424T106 393Q96 390 92 391T84 400Q82 404 82 408T83 417Q104 422 125 433T164 461T193 496T204 539Q204 560 194 570T167 580Q162 580 156 580T144 579Q123 579 110 593T97 629Q97 661 119 680T173 699Q215 699 241 670T267 595ZM468 595Q468 559 456 527T422 469T371 424T307 393Q297 390 292 391T285 400Q283 404 283 408T283 417Q304 422 326 433T365 461T394 496T405 539Q405 560 395 570T367 580Q362 580 356 580T344 579Q324 579 311 593T298 629Q298 661 320 680T373 699Q415 699 441 670T468 595Z"  />
<glyph unicode="&#x201E;" horiz-adv-x="473" d="M152 44Q152 8 140 -24T106 -82T55 -127T-9 -158Q-19 -161 -24 -160T-31 -151Q-33 -147 -33 -143T-33 -135Q-12 -129 10 -118T49 -91T78 -55T89 -13Q89 9 79 19T51 29Q46 29 40 29T29 28Q8 28 -5 42T-18 78Q-18 110 4 129T57 148Q99 148 125 119T152 44ZM353 44Q353 8 341 -24T307 -82T256 -127T192 -158Q182 -161 177 -160T170 -151Q168 -147 168 -143T168 -135Q189 -129 211 -118T250 -91T279 -55T290 -13Q290 9 280 19T252 29Q247 29 241 29T229 28Q209 28 196 42T183 78Q183 110 205 129T258 148Q300 148 326 119T353 44Z"  />
<glyph unicode="&#x2020;" horiz-adv-x="500" d="M502 488Q502 482 502 474T500 459T496 445T489 437L310 450Q307 448 305 447T301 443L190 -118Q187 -121 181 -123T167 -126T154 -127T144 -127Q141 -127 135 -127T121 -126T109 -123T102 -118L250 443Q250 447 245 450L62 437Q59 444 59 451Q59 456 59 464T61 480T65 494T72 502L254 490Q260 493 262 497L294 713Q297 716 303 718T316 721T330 722T340 722Q342 722 348 722T362 721T375 718T382 713L313 497Q313 493 318 490L499 502Q502 496 502 488Z"  />
<glyph unicode="&#x2021;" horiz-adv-x="500" d="M496 477Q496 471 496 463T494 448T490 434T483 426L303 439Q297 435 294 432L232 162Q232 158 237 155L420 167Q423 159 423 153Q423 147 423 139T421 124T417 110T410 102L229 114Q222 111 220 107L188 -119Q185 -122 179 -124T166 -126T151 -127T141 -128Q138 -128 132 -128T119 -126T107 -123T100 -118L171 108Q171 112 166 115L-15 103Q-18 107 -18 117Q-18 122 -18 130T-16 146T-12 160T-5 168L175 155Q177 157 179 158T184 162L246 433Q246 437 241 440L58 427Q55 434 55 441Q55 446 55 454T57 470T61 484T68 492L250 480Q256 483 258 487L290 713Q293 716 299 718T313 720T327 721T337 721Q339 721 345 721T358 720T371 717T378 712L307 486Q308 482 313 479L493 491Q496 487 496 477Z"  />
<glyph unicode="&#x2022;" horiz-adv-x="500" d="M417 355Q417 314 403 278T365 215T306 172T232 156Q196 156 166 168T115 203T82 256T70 324Q70 365 84 401T122 463T181 505T256 521Q292 521 321 509T372 474T405 422T417 355Z"  />
<glyph unicode="&#x2026;" horiz-adv-x="1000" d="M163 73Q163 38 140 12T80 -14Q48 -14 28 7T8 60Q8 96 31 121T91 147Q123 147 143 127T163 73ZM527 73Q527 38 504 12T444 -14Q412 -14 392 7T372 60Q372 96 395 121T455 147Q487 147 507 127T527 73ZM892 73Q892 38 869 12T809 -14Q776 -14 757 7T737 60Q737 96 760 121T820 147Q852 147 872 127T892 73Z"  />
<glyph unicode="&#x2030;" horiz-adv-x="1066" d="M1054 263Q1054 220 1042 171T1006 80T943 10T854 -18Q820 -18 797 -3T758 35T736 88T729 146Q729 189 741 238T777 329T839 399T928 427Q962 427 986 412T1025 374T1047 321T1054 263ZM960 314Q960 323 959 336T954 362T943 384T923 393Q908 393 895 375T873 333T856 282T845 241Q834 201 829 159T824 87Q824 79 825 67T829 44T840 25T861 17Q877 17 890 35T913 78T930 129T941 172Q951 209 955 248T960 314ZM718 263Q718 220 706 171T669 80T607 10T518 -18Q484 -18 461 -3T422 35T400 88T393 146Q393 189 405 238T441 329T503 399T592 427Q626 427 650 412T689 374T711 321T718 263ZM624 314Q624 323 623 336T618 362T607 384T587 393Q572 393 559 375T537 333T520 282T509 241Q498 201 493 159T488 87Q488 79 489 67T493 44T504 25T524 17Q540 17 553 35T577 78T593 129T604 172Q615 209 619 248T624 314ZM108 -27Q100 -22 90 -13T74 4L617 646Q627 643 637 634T653 616L108 -27ZM334 473Q334 430 322 381T286 290T223 221T134 193Q100 193 76 208T37 246T15 299T8 357Q8 400 20 449T57 540T119 609T208 637Q242 637 266 622T305 584T327 531T334 473ZM238 532Q238 541 237 553T233 576T222 595T202 603Q186 603 173 585T150 542T133 491T122 448Q112 411 107 372T102 305Q102 296 103 283T108 257T119 236T140 227Q155 227 167 245T189 287T206 337T217 378Q228 419 234 461T238 532Z"  />
<glyph unicode="&#x2039;" horiz-adv-x="272" d="M175 82Q172 73 165 69T150 66Q134 81 113 105T69 155T27 207T-8 253Q-10 256 -7 262Q14 282 40 305T95 352T150 397T197 433Q205 435 212 429T220 414Q211 399 197 379T167 337T135 294T106 257Q105 255 105 253T104 248Q111 233 120 212T139 168T158 123T175 82Z"  />
<glyph unicode="&#x203A;" horiz-adv-x="272" d="M27 66Q19 64 12 70T5 86Q15 100 29 120T59 162T90 205T119 242Q120 244 120 246T121 251Q114 265 105 286T85 331T66 377T50 417Q53 426 60 430T75 433Q90 418 111 394T155 344T198 291T233 246Q233 240 232 237Q212 217 185 194T130 147T74 102T27 66Z"  />
<glyph unicode="&#x20AC;" horiz-adv-x="500" d="M463 157Q457 142 451 122T438 79T425 37T416 2Q414 1 408 1Q398 1 395 7T380 13Q375 13 366 8T343 -2T309 -13T264 -18Q213 -18 176 1T113 52T74 127T58 218Q56 223 53 225H-4Q-9 227 -9 237Q-9 248 -7 257T2 272H53Q59 274 60 278Q62 301 65 325T76 374Q74 378 72 379H27Q22 382 22 391Q22 402 24 411T33 426H89Q93 427 95 432Q112 475 137 512T193 577T263 621T346 637Q377 637 399 632T438 620T465 609T480 603Q489 603 491 610T506 617Q508 617 510 617T514 616Q511 599 507 579T500 537T494 496T489 457Q484 456 473 456Q460 456 459 468L456 496Q450 547 423 568T361 590Q332 590 310 575T270 536T242 484T222 431Q224 427 228 426H408Q414 423 414 415Q414 404 412 394T402 379H214Q208 377 207 373Q201 347 198 323T191 277Q194 275 197 272H377Q383 269 383 261Q383 250 381 240T371 225H193Q191 224 187 219Q187 184 190 150T204 89T236 46T292 29Q333 29 363 56T415 126L430 157Q435 167 447 164Q452 162 455 161T463 157Z"  />
<glyph unicode="&#x2122;" horiz-adv-x="1019" d="M1013 270Q988 271 963 271T914 272Q890 272 865 272T814 270Q812 276 812 282Q812 292 820 294L844 298Q857 300 859 313T861 363L858 563H857L741 269Q737 268 728 268T707 267T687 267T674 269L554 562H553L551 411Q551 380 552 359T556 325T566 306T584 298L607 294Q614 293 614 282Q614 272 613 269Q592 269 571 270T528 272Q507 272 488 271T447 270Q445 276 445 282Q445 292 453 294L475 298Q491 300 495 324T502 410L507 588Q508 617 502 634T480 653L460 655Q453 656 453 668Q453 672 455 680Q477 678 498 678T538 678Q557 678 576 678T614 680Q616 680 617 679T621 677Q626 664 632 643T647 599L738 372H739L824 599Q833 622 840 643T850 677Q853 680 857 680Q874 679 889 679T925 678Q943 678 965 678T1008 680Q1009 677 1009 675T1010 668Q1010 657 1003 657L985 655Q971 653 966 639T960 593L965 363Q966 327 968 314T984 298L1007 294Q1015 292 1015 282Q1015 276 1013 270ZM343 270Q318 271 292 271T242 272Q219 272 194 272T143 270Q141 276 141 282Q141 292 148 294L173 298Q187 300 189 313T192 363V581Q192 611 190 622T186 638H165Q142 638 128 637T105 631T91 618T83 596L78 578Q76 573 74 572T65 570Q54 570 50 571Q51 581 52 598T55 633T57 667T58 692Q62 694 67 694Q76 694 77 689Q81 678 87 678Q94 677 113 677T162 676H324Q353 676 373 676T400 678Q405 678 409 689Q410 694 418 694Q423 694 424 694T428 692Q428 683 428 667T429 633T431 598T433 571Q431 570 427 570T418 570Q408 570 407 578L402 596Q398 609 394 617T381 630T358 636T321 638H301Q299 634 297 622T295 581V363Q295 327 297 314T313 298L337 294Q344 293 344 282Q344 273 343 270Z"  />
<glyph unicode="&#xE300;" horiz-adv-x="500" d="M328 723Q329 716 325 711T315 705Q297 714 278 724T240 745T204 766T173 784Q159 792 148 801T134 825Q131 842 142 859T170 880Q186 884 197 874T221 850Q231 839 244 824T272 792T300 757T328 723Z"  />
<glyph unicode="&#xE301;" horiz-adv-x="500" d="M363 834Q361 819 350 811T328 796Q305 782 284 770T241 748T198 727T152 705Q137 706 139 724Q157 742 172 757T202 786T232 815T267 847Q277 857 292 869T323 880Q339 879 351 864T363 834Z"  />
<glyph unicode="&#xE302;" horiz-adv-x="500" d="M411 723Q412 716 408 711T398 705Q381 714 363 725T326 748T291 771T262 790Q257 794 251 790Q216 767 179 746T102 705Q87 706 89 724Q107 741 122 756T151 785T181 813T215 845Q230 859 241 869T265 880Q276 880 284 872T304 849Q325 826 355 790T411 723Z"  />
<glyph unicode="&#xE303;" horiz-adv-x="500" d="M411 861Q394 844 379 829T349 800T319 771T286 740Q270 725 259 715T235 705Q224 705 216 713T196 735Q186 746 173 761T145 794T116 828T89 862Q89 877 103 880Q119 870 137 859T174 835T209 812T238 794Q241 792 244 792T250 794Q284 817 322 838T399 880Q412 877 411 861Z"  />
<glyph unicode="&#xE304;" horiz-adv-x="500" d="M414 828Q414 808 405 790T381 757T347 733T308 724Q282 724 259 734T216 758T180 781T151 792Q128 792 128 770Q128 761 132 754T137 739Q137 728 127 723T106 717Q94 717 90 726T85 747Q85 767 94 785T118 818T152 840T191 849Q217 849 240 839T283 816T319 794T348 783Q371 783 371 805Q371 814 367 820T362 834Q362 845 373 851T393 857Q406 857 410 848T414 828Z"  />
<glyph unicode="&#xE305;" horiz-adv-x="500" d="M221 800Q221 774 204 754T158 733Q133 733 119 749T104 791Q104 817 121 837T166 858Q192 858 206 842T221 800ZM396 800Q396 774 379 754T333 733Q308 733 294 749T279 791Q279 817 296 837T341 858Q367 858 381 842T396 800Z"  />
<glyph unicode="&#xE308;" horiz-adv-x="500" d="M359 839Q359 813 350 790T325 750T285 723T235 713Q193 713 167 735T141 799Q141 825 150 847T175 887T215 914T265 924Q307 924 333 902T359 839ZM295 846Q295 863 289 880T262 897Q246 897 235 885T218 857T208 822T205 790Q205 773 212 757T239 740Q255 740 265 752T282 780T292 815T295 846Z"  />

</font>
</defs>
</svg>
